<?xml version="1.0" encoding="UTF-8"?>
<!DOCTYPE svg PUBLIC "-//W3C//DTD SVG 1.1//EN" "http://www.w3.org/Graphics/SVG/1.1/DTD/svg11.dtd">
<!-- Creator: CorelDRAW 2020 (64-Bit) -->
<svg xmlns="http://www.w3.org/2000/svg" xml:space="preserve" width="818px" height="429px" version="1.1" shape-rendering="geometricPrecision" text-rendering="geometricPrecision" image-rendering="optimizeQuality" fill-rule="evenodd" clip-rule="evenodd"
viewBox="0 0 110 57.65"
 xmlns:xlink="http://www.w3.org/1999/xlink"
 xmlns:xodm="http://www.corel.com/coreldraw/odm/2003">
 <g id="Layer_x0020_1">
  <metadata id="CorelCorpID_0Corel-Layer"/>
  <path fill="#5A00A0" d="M15.46 9.5l7.73 0 0 -7.74 7.74 0 0 1.77 1.76 0 0 7.73 0 7.73 0 7.73 0 7.73 0 7.74 0 7.73 0 7.73 -7.73 0 0 -1.77 -1.77 0 0 -7.73 0 -7.73 0 -5.97 -5.96 0 -7.73 0 -7.74 0 0 -1.76 -1.76 0 0 -7.73 7.73 0 0 -7.73 5.25 0 0 -1.77 2.48 0 0 -5.96zm77.32 5.96l-6.59 0 0 1.77 -1.15 0 0 7.73 -7.73 0 0 7.73 1.77 0 0 1.76 7.73 0 7.73 0 5.97 0 0 5.97 0 7.73 0 7.73 1.76 0 0 1.77 7.73 0 0 -7.73 0 -7.73 0 -7.74 0 -7.73 0 -7.73 0 -7.73 0 -7.73 -1.76 0 0 -1.77 -7.73 0 0 7.74 -7.73 0 0 5.96zm-21.43 34.46l0 7.73 -7.74 0 -7.73 0 -7.73 0 -7.73 0 0 -1.77 -1.76 0 0 -7.73 0 -7.73 0 -7.73 0 -7.73 0 -7.73 0 -7.73 0 -7.74 7.73 0 7.73 0 7.73 0 7.73 0 0 1.77 1.77 0 0 7.73 0 7.73 0 7.73 0 7.73 0 7.74 0 7.73zm-9.5 -38.66l-5.97 0 -7.73 0 0 7.73 0 7.73 0 7.73 0 7.74 0 5.96 5.97 0 7.73 0 0 -7.73 0 -7.73 0 -7.73 0 -7.73 0 -5.97zm38.66 7.73l-4.61 0 -1.36 0 0 5.97 5.97 0 0 -5.97zm-77.32 0l-5.96 0 0 1.57 0 4.4 5.96 0 0 -5.97z"/>
  <path fill="#7000C7" d="M15.46 7.73l7.73 0 0 -7.73 7.74 0 0 7.73 0 7.73 0 7.73 0 7.74 0 7.73 0 7.73 0 7.73 -7.74 0 0 -7.73 0 -7.73 0 -7.73 -7.73 0 -7.73 0 -7.73 0 0 -7.74 7.73 0 0 -7.73 7.73 0 0 -7.73zm92.78 38.66l0 7.73 -7.73 0 0 -7.73 0 -7.73 0 -7.73 -7.73 0 -7.74 0 -7.73 0 0 -7.74 7.73 0 0 -7.73 7.74 0 0 -7.73 7.73 0 0 -7.73 7.73 0 0 7.73 0 7.73 0 7.73 0 7.74 0 7.73 0 7.73zm-38.66 0l0 7.73 -7.73 0 -7.73 0 -7.73 0 -7.73 0 0 -7.73 0 -7.73 0 -7.73 0 -7.74 0 -7.73 0 -7.73 0 -7.73 7.73 0 7.73 0 7.73 0 7.73 0 0 7.73 0 7.73 0 7.73 0 7.74 0 7.73 0 7.73zm-15.46 0l7.73 0 0 -7.73 0 -7.73 0 -7.74 0 -7.73 0 -7.73 -7.73 0 -7.73 0 0 7.73 0 7.73 0 7.74 0 7.73 0 7.73 7.73 0zm38.66 -23.2l7.73 0 0 -7.73 -7.73 0 0 7.73zm-69.59 0l0 -7.73 -7.73 0 0 7.73 7.73 0z"/>
 </g>
</svg>
