<?xml version="1.0" encoding="UTF-8"?>
<!DOCTYPE svg PUBLIC "-//W3C//DTD SVG 1.1//EN" "http://www.w3.org/Graphics/SVG/1.1/DTD/svg11.dtd">
<!-- Creator: CorelDRAW 2020 (64-Bit) -->
<svg xmlns="http://www.w3.org/2000/svg" xml:space="preserve" width="221px" height="221px" version="1.1" shape-rendering="geometricPrecision" text-rendering="geometricPrecision" image-rendering="optimizeQuality" fill-rule="evenodd" clip-rule="evenodd"
viewBox="0 0 156.59 156.59"
 xmlns:xlink="http://www.w3.org/1999/xlink"
 xmlns:xodm="http://www.corel.com/coreldraw/odm/2003">
 <g id="Layer_x0020_1">
  <metadata id="CorelCorpID_0Corel-Layer"/>
  <g id="_2440257887312">
   <g>
    <path fill="#222222" d="M16.48 156.59l8.25 0 8.24 0 8.24 0 8.24 0 8.24 0 8.24 0 8.25 0 8.24 0 8.24 0 8.24 0 8.24 0 8.24 0 8.25 0 8.24 0 8.24 0 8.24 0 8.24 0 0 -8.24 0 -8.24 0 -8.24 0 -8.24 0 -8.25 0 -8.24 0 -8.24 0 -8.24 0 -8.24 0 -8.24 0 -8.25 0 -8.24 0 -8.24 0 -8.24 0 -8.24 0 -8.24 0 -8.25 -8.24 0 0 8.25 -8.24 0 0 8.24 -8.24 0 0 8.24 -8.24 0 0 8.24 -8.25 0 0 8.24 -8.24 0 0 8.24 -8.24 0 0 8.25 -8.24 0 0 8.24 -8.24 0 0 8.24 -8.24 0 0 8.24 -8.25 0 0 8.24 -8.24 0 0 8.24 -8.24 0 0 8.25 -8.24 0 0 8.24 -8.24 0 0 8.24 -8.24 0 0 8.24 -8.25 0 0 8.24zm123.63 -8.24l-8.24 0 -8.24 0 -8.25 0 -8.24 0 -8.24 0 -8.24 0 -8.24 0 -8.24 0 -8.25 0 -8.24 0 -8.24 0 -8.24 0 -8.24 0 0 -8.24 8.24 0 0 -8.24 8.24 0 0 -8.24 8.24 0 0 -8.25 8.24 0 0 -8.24 8.25 0 0 -8.24 8.24 0 0 -8.24 8.24 0 0 -8.24 8.24 0 0 -8.24 8.24 0 0 -8.25 8.24 0 0 -8.24 8.25 0 0 -8.24 8.24 0 0 -8.24 8.24 0 0 -8.24 8.24 0 0 8.24 0 8.24 0 8.24 0 8.24 0 8.25 0 8.24 0 8.24 0 8.24 0 8.24 0 8.24 0 8.25 0 8.24 0 8.24 0 8.24 -8.24 0z"/>
    <polygon fill="#00CCFF" points="140.11,148.35 131.87,148.35 123.63,148.35 115.38,148.35 107.14,148.35 98.9,148.35 90.66,148.35 82.42,148.35 74.18,148.35 65.93,148.35 57.69,148.35 49.45,148.35 41.21,148.35 32.97,148.35 32.97,140.11 41.21,140.11 41.21,131.87 49.45,131.87 49.45,123.63 57.69,123.63 57.69,115.38 65.93,115.38 65.93,107.14 74.18,107.14 74.18,98.9 82.42,98.9 82.42,90.66 90.66,90.66 90.66,82.42 98.9,82.42 98.9,74.18 107.14,74.18 107.14,65.93 115.38,65.93 115.38,57.69 123.63,57.69 123.63,49.45 131.87,49.45 131.87,41.21 140.11,41.21 140.11,32.97 148.35,32.97 148.35,41.21 148.35,49.45 148.35,57.69 148.35,65.93 148.35,74.18 148.35,82.42 148.35,90.66 148.35,98.9 148.35,107.14 148.35,115.38 148.35,123.63 148.35,131.87 148.35,140.11 148.35,148.35 "/>
   </g>
   <path fill="#222222" d="M8.24 140.11l8.24 0 8.25 0 8.24 0 8.24 0 8.24 0 8.24 0 8.24 0 8.25 0 8.24 0 8.24 0 8.24 0 8.24 0 8.24 0 8.25 0 8.24 0 8.24 0 0 -8.24 0 -8.24 0 -8.25 0 -8.24 0 -8.24 0 -8.24 0 -8.24 0 -8.24 0 -8.25 0 -8.24 0 -8.24 0 -8.24 0 -8.24 0 -8.24 0 -8.25 0 -8.24 -8.24 0 0 8.24 -8.24 0 0 8.25 -8.25 0 0 8.24 -8.24 0 0 8.24 -8.24 0 0 8.24 -8.24 0 0 8.24 -8.24 0 0 8.24 -8.24 0 0 8.25 -8.25 0 0 8.24 -8.24 0 0 8.24 -8.24 0 0 8.24 -8.24 0 0 8.24 -8.24 0 0 8.24 -8.24 0 0 8.25 -8.25 0 0 8.24 -8.24 0 0 8.24zm115.39 -8.24l-8.25 0 -8.24 0 -8.24 0 -8.24 0 -8.24 0 -8.24 0 -8.25 0 -8.24 0 -8.24 0 -8.24 0 -8.24 0 -8.24 0 0 -8.24 8.24 0 0 -8.25 8.24 0 0 -8.24 8.24 0 0 -8.24 8.24 0 0 -8.24 8.24 0 0 -8.24 8.25 0 0 -8.24 8.24 0 0 -8.25 8.24 0 0 -8.24 8.24 0 0 -8.24 8.24 0 0 -8.24 8.24 0 0 -8.24 8.25 0 0 -8.24 8.24 0 0 8.24 0 8.24 0 8.24 0 8.24 0 8.24 0 8.25 0 8.24 0 8.24 0 8.24 0 8.24 0 8.24 0 8.25 0 8.24 -8.24 0z"/>
   <polygon fill="#F3A1B8" points="123.63,131.87 115.38,131.87 107.14,131.87 98.9,131.87 90.66,131.87 82.42,131.87 74.18,131.87 65.93,131.87 57.69,131.87 49.45,131.87 41.21,131.87 32.97,131.87 24.73,131.87 24.73,123.63 32.97,123.63 32.97,115.38 41.21,115.38 41.21,107.14 49.45,107.14 49.45,98.9 57.69,98.9 57.69,90.66 65.93,90.66 65.93,82.42 74.18,82.42 74.18,74.18 82.42,74.18 82.42,65.93 90.66,65.93 90.66,57.69 98.9,57.69 98.9,49.45 107.14,49.45 107.14,41.21 115.38,41.21 115.38,32.97 123.63,32.97 123.63,24.73 131.87,24.73 131.87,32.97 131.87,41.21 131.87,49.45 131.87,57.69 131.87,65.93 131.87,74.18 131.87,82.42 131.87,90.66 131.87,98.9 131.87,107.14 131.87,115.38 131.87,123.63 131.87,131.87 "/>
   <path fill="#222222" d="M0 123.63l8.24 0 8.24 0 8.25 0 8.24 0 8.24 0 8.24 0 8.24 0 8.24 0 8.25 0 8.24 0 8.24 0 8.24 0 8.24 0 8.24 0 8.25 0 0 -8.25 0 -8.24 0 -8.24 0 -8.24 0 -8.24 0 -8.24 0 -8.25 0 -8.24 0 -8.24 0 -8.24 0 -8.24 0 -8.24 0 -8.25 0 -8.24 0 -8.24 -8.25 0 0 8.24 -8.24 0 0 8.24 -8.24 0 0 8.25 -8.24 0 0 8.24 -8.24 0 0 8.24 -8.24 0 0 8.24 -8.25 0 0 8.24 -8.24 0 0 8.24 -8.24 0 0 8.25 -8.24 0 0 8.24 -8.24 0 0 8.24 -8.24 0 0 8.24 -8.25 0 0 8.24 -8.24 0 0 8.24 -8.24 0 0 8.25zm107.14 -8.25l-8.24 0 -8.24 0 -8.24 0 -8.24 0 -8.25 0 -8.24 0 -8.24 0 -8.24 0 -8.24 0 -8.24 0 -8.25 0 0 -8.24 8.25 0 0 -8.24 8.24 0 0 -8.24 8.24 0 0 -8.24 8.24 0 0 -8.24 8.24 0 0 -8.25 8.24 0 0 -8.24 8.25 0 0 -8.24 8.24 0 0 -8.24 8.24 0 0 -8.24 8.24 0 0 -8.24 8.24 0 0 -8.25 8.24 0 0 8.25 0 8.24 0 8.24 0 8.24 0 8.24 0 8.24 0 8.25 0 8.24 0 8.24 0 8.24 0 8.24 0 8.24 -8.24 0z"/>
   <polygon fill="#671C9C" points="107.14,115.38 98.9,115.38 90.66,115.38 82.42,115.38 74.18,115.38 65.93,115.38 57.69,115.38 49.45,115.38 41.21,115.38 32.97,115.38 24.73,115.38 16.48,115.38 16.48,107.14 24.73,107.14 24.73,98.9 32.97,98.9 32.97,90.66 41.21,90.66 41.21,82.42 49.45,82.42 49.45,74.18 57.69,74.18 57.69,65.93 65.93,65.93 65.93,57.69 74.18,57.69 74.18,49.45 82.42,49.45 82.42,41.21 90.66,41.21 90.66,32.97 98.9,32.97 98.9,24.73 107.14,24.73 107.14,16.48 115.38,16.48 115.38,24.73 115.38,32.97 115.38,41.21 115.38,49.45 115.38,57.69 115.38,65.93 115.38,74.18 115.38,82.42 115.38,90.66 115.38,98.9 115.38,107.14 115.38,115.38 "/>
  </g>
 </g>
</svg>
