<?xml version="1.0" encoding="UTF-8"?>
<!DOCTYPE svg PUBLIC "-//W3C//DTD SVG 1.1//EN" "http://www.w3.org/Graphics/SVG/1.1/DTD/svg11.dtd">
<!-- Creator: CorelDRAW 2020 (64-Bit) -->
<svg xmlns="http://www.w3.org/2000/svg" xml:space="preserve" width="300px" height="333px" version="1.1" shape-rendering="geometricPrecision" text-rendering="geometricPrecision" image-rendering="optimizeQuality" fill-rule="evenodd" clip-rule="evenodd"
viewBox="0 0 39.24 43.6"
 xmlns:xlink="http://www.w3.org/1999/xlink"
 xmlns:xodm="http://www.corel.com/coreldraw/odm/2003">
 <g id="Layer_x0020_1">
  <metadata id="CorelCorpID_0Corel-Layer"/>
  <g id="_2424748795296">
   <path fill="#292929" d="M1.09 29.43l1.09 0 0 -1.09 1.09 0 0 -1.09 1.09 0 1.09 0 1.09 0 0 -1.09 1.09 0 1.09 0 0 -1.09 1.09 0 0 -1.09 0 -1.09 0 -1.09 1.09 0 0 -1.09 0 -1.09 0 -1.09 1.09 0 0 -1.09 0 -1.09 0 -1.09 1.09 0 0 -1.09 0 -1.09 0 -1.09 1.09 0 0 -1.09 0 -1.09 0 -1.09 1.09 0 0 -1.09 0 -1.09 0 -1.09 1.09 0 0 -1.09 0 -1.09 0 -1.09 1.09 0 0 -1.09 1.09 0 0 -1.09 1.09 0 1.09 0 0 1.09 1.09 0 0 1.09 1.09 0 0 1.09 0 1.09 0 1.09 1.09 0 0 1.09 0 1.09 0 1.09 1.09 0 0 1.09 0 1.09 0 1.09 1.09 0 0 1.09 0 1.09 0 1.09 1.09 0 0 1.09 0 1.09 0 1.09 1.09 0 0 1.09 0 1.09 0 1.09 1.09 0 0 1.09 0 1.09 0 1.09 1.09 0 0 1.09 1.09 0 1.09 0 0 1.09 1.09 0 1.09 0 1.09 0 0 1.09 1.09 0 0 1.09 1.09 0 0 1.09 0 1.09 0 1.09 0 1.09 -1.09 0 0 1.09 -1.09 0 0 1.09 -1.09 0 0 1.09 -1.09 0 -1.09 0 0 1.09 -1.09 0 -1.09 0 0 1.09 -1.09 0 -1.09 0 -1.09 0 0 1.09 -1.09 0 -1.09 0 0 1.09 -1.09 0 -1.09 0 -1.09 0 0 1.09 -1.09 0 -1.09 0 -1.09 0 -1.09 0 0 -1.09 -1.09 0 -1.09 0 -1.09 0 0 -1.09 -1.09 0 -1.09 0 0 -1.09 -1.09 0 -1.09 0 -1.09 0 0 -1.09 -1.09 0 -1.09 0 0 -1.09 -1.09 0 -1.09 0 0 -1.09 -1.09 0 0 -1.09 -1.09 0 0 -1.09 -1.09 0 0 -1.09 0 -1.09 0 -1.09 0 -1.09zm18.53 -28.34l-1.09 0 0 1.09 -1.09 0 0 1.09 0 1.09 0 1.09 -1.09 0 0 1.09 0 1.09 0 1.09 -1.09 0 0 1.09 0 1.09 0 1.09 -1.09 0 0 1.09 0 1.09 0 1.09 -1.09 0 0 1.09 0 1.09 0 1.09 -1.09 0 0 1.09 0 1.09 0 1.09 -1.09 0 0 1.09 0 1.09 0 1.09 -1.09 0 0 1.09 0 1.09 0 1.09 0 1.09 1.09 0 0 1.09 1.09 0 1.09 0 1.09 0 0 1.09 1.09 0 1.09 0 1.09 0 1.09 0 1.09 0 1.09 0 1.09 0 1.09 0 1.09 0 1.09 0 0 -1.09 1.09 0 1.09 0 1.09 0 0 -1.09 1.09 0 0 -1.09 0 -1.09 0 -1.09 0 -1.09 -1.09 0 0 -1.09 0 -1.09 0 -1.09 -1.09 0 0 -1.09 0 -1.09 0 -1.09 -1.09 0 0 -1.09 0 -1.09 0 -1.09 -1.09 0 0 -1.09 0 -1.09 0 -1.09 -1.09 0 0 -1.09 0 -1.09 0 -1.09 -1.09 0 0 -1.09 0 -1.09 0 -1.09 -1.09 0 0 -1.09 0 -1.09 0 -1.09 -1.09 0 0 -1.09 -1.09 0zm0 31.61l-1.09 0 -1.09 0 -1.09 0 -1.09 0 -1.09 0 0 -1.09 -1.09 0 -1.09 0 -1.09 0 0 -1.09 -1.09 0 0 -1.09 -1.09 0 0 -1.09 0 -1.09 -1.09 0 -1.09 0 0 1.09 -1.09 0 -1.09 0 -1.09 0 0 1.09 -1.09 0 0 1.09 0 1.09 0 1.09 0 1.09 1.09 0 0 1.09 1.09 0 0 1.09 1.09 0 1.09 0 0 1.09 1.09 0 1.09 0 0 1.09 1.09 0 1.09 0 1.09 0 0 1.09 1.09 0 1.09 0 0 1.09 1.09 0 1.09 0 1.09 0 0 1.09 1.09 0 1.09 0 1.09 0 1.09 0 0 -1.09 1.09 0 1.09 0 1.09 0 0 -1.09 1.09 0 1.09 0 0 -1.09 1.09 0 1.09 0 1.09 0 0 -1.09 1.09 0 1.09 0 0 -1.09 1.09 0 1.09 0 0 -1.09 1.09 0 0 -1.09 1.09 0 0 -1.09 0 -1.09 0 -1.09 0 -1.09 -1.09 0 0 -1.09 -1.09 0 -1.09 0 -1.09 0 0 -1.09 -1.09 0 -1.09 0 0 1.09 0 1.09 -1.09 0 0 1.09 -1.09 0 0 1.09 -1.09 0 -1.09 0 -1.09 0 0 1.09 -1.09 0 -1.09 0 -1.09 0 -1.09 0 -1.09 0z"/>
   <path fill="#F93C00" d="M8.72 29.43l1.09 0 0 -1.09 0 -1.09 0 -1.09 1.09 0 0 1.09 0 1.09 1.09 0 1.09 0 1.09 0 1.09 0 0 1.09 1.09 0 1.09 0 1.09 0 1.09 0 1.09 0 1.09 0 1.09 0 1.09 0 0 -1.09 1.09 0 1.09 0 1.09 0 1.09 0 0 -1.09 0 -1.09 1.09 0 0 1.09 0 1.09 0 1.09 1.09 0 0 -1.09 0 -1.09 1.09 0 1.09 0 0 1.09 -1.09 0 0 1.09 -1.09 0 0 1.09 -1.09 0 0 1.09 -1.09 0 0 1.09 -1.09 0 -1.09 0 -1.09 0 0 -1.09 -1.09 0 -1.09 0 -1.09 0 -1.09 0 -1.09 0 -1.09 0 -1.09 0 -1.09 0 -1.09 0 -1.09 0 0 1.09 -1.09 0 -1.09 0 -1.09 0 0 -1.09 -1.09 0 0 -1.09 -1.09 0 0 -1.09 -1.09 0 0 -1.09 -1.09 0 0 -1.09 1.09 0 1.09 0 0 1.09 0 1.09zm20.71 0l0 1.09 -1.09 0 0 -1.09 1.09 0zm-9.81 11.99l1.09 0 1.09 0 0 -1.09 1.09 0 1.09 0 1.09 0 0 -1.09 1.09 0 1.09 0 0 -1.09 1.09 0 1.09 0 1.09 0 0 -1.09 1.09 0 1.09 0 0 -1.09 1.09 0 1.09 0 0 -1.09 1.09 0 0 -1.09 1.09 0 0 -1.09 0 -1.09 0 -1.09 -1.09 0 -1.09 0 0 1.09 -1.09 0 -1.09 0 0 1.09 -1.09 0 -1.09 0 0 1.09 0 1.09 -1.09 0 -1.09 0 -1.09 0 0 1.09 -1.09 0 -1.09 0 -1.09 0 -1.09 0 0 1.09 -1.09 0 -1.09 0 0 1.09 -1.09 0 -1.09 0 0 -1.09 -1.09 0 -1.09 0 0 -1.09 -1.09 0 -1.09 0 -1.09 0 -1.09 0 0 -1.09 -1.09 0 -1.09 0 -1.09 0 0 -1.09 0 -1.09 -1.09 0 -1.09 0 0 -1.09 -1.09 0 -1.09 0 0 -1.09 -1.09 0 -1.09 0 0 1.09 0 1.09 0 1.09 1.09 0 0 1.09 1.09 0 0 1.09 1.09 0 1.09 0 0 1.09 1.09 0 1.09 0 0 1.09 1.09 0 1.09 0 1.09 0 0 1.09 1.09 0 1.09 0 0 1.09 1.09 0 1.09 0 1.09 0 0 1.09 1.09 0 1.09 0zm1.09 -8.72l-1.09 0 -1.09 0 -1.09 0 -1.09 0 -1.09 0 0 1.09 1.09 0 1.09 0 1.09 0 1.09 0 1.09 0 1.09 0 1.09 0 1.09 0 0 -1.09 -1.09 0 -1.09 0 -1.09 0zm4.36 -1.09l0 -1.09 1.09 0 1.09 0 1.09 0 0 1.09 -1.09 0 -1.09 0 -1.09 0zm-15.26 -2.18l0 1.09 1.09 0 0 -1.09 -1.09 0zm4.36 2.18l0 -1.09 -1.09 0 -1.09 0 -1.09 0 0 1.09 1.09 0 1.09 0 1.09 0z"/>
   <path fill="white" d="M13.08 15.26l1.09 0 1.09 0 0 1.09 1.09 0 1.09 0 0 1.09 1.09 0 1.09 0 1.09 0 1.09 0 0 -1.09 1.09 0 1.09 0 0 -1.09 1.09 0 1.09 0 0 1.09 0 1.09 0 1.09 -1.09 0 -1.09 0 0 1.09 -1.09 0 -1.09 0 0 1.09 -1.09 0 -1.09 0 -1.09 0 -1.09 0 0 -1.09 -1.09 0 -1.09 0 0 -1.09 -1.09 0 -1.09 0 0 -1.09 0 -1.09 0 -1.09zm6.54 -2.18l1.09 0 1.09 0 0 -1.09 1.09 0 1.09 0 0 -1.09 0 -1.09 0 -1.09 -1.09 0 0 1.09 -1.09 0 0 1.09 -1.09 0 -1.09 0 -1.09 0 -1.09 0 0 -1.09 -1.09 0 0 -1.09 -1.09 0 0 1.09 0 1.09 0 1.09 1.09 0 1.09 0 0 1.09 1.09 0 1.09 0zm0 14.17l1.09 0 1.09 0 0 -1.09 1.09 0 1.09 0 1.09 0 1.09 0 0 -1.09 1.09 0 1.09 0 0 -1.09 0 -1.09 0 -1.09 -1.09 0 -1.09 0 -1.09 0 0 1.09 -1.09 0 -1.09 0 0 1.09 -1.09 0 -1.09 0 -1.09 0 -1.09 0 -1.09 0 -1.09 0 0 -1.09 -1.09 0 -1.09 0 0 -1.09 -1.09 0 -1.09 0 -1.09 0 0 1.09 0 1.09 0 1.09 1.09 0 1.09 0 0 1.09 1.09 0 1.09 0 1.09 0 1.09 0 0 1.09 1.09 0 1.09 0z"/>
   <polygon fill="#F9A825" points="18.53,1.09 19.62,1.09 20.71,1.09 20.71,2.18 21.8,2.18 21.8,3.27 21.8,4.36 21.8,5.45 22.89,5.45 22.89,6.54 22.89,7.63 22.89,8.72 21.8,8.72 21.8,7.63 21.8,6.54 21.8,5.45 20.71,5.45 20.71,4.36 20.71,3.27 19.62,3.27 18.53,3.27 18.53,4.36 18.53,5.45 17.44,5.45 17.44,6.54 17.44,7.63 17.44,8.72 16.35,8.72 16.35,7.63 16.35,6.54 16.35,5.45 17.44,5.45 17.44,4.36 17.44,3.27 17.44,2.18 18.53,2.18 "/>
   <polygon fill="black" fill-opacity="0.301961" points="39.24,31.61 38.15,31.61 38.15,32.7 38.15,33.79 37.06,33.79 37.06,34.88 35.97,34.88 35.97,35.97 34.88,35.97 34.88,37.06 33.79,37.06 32.7,37.06 32.7,38.15 31.61,38.15 30.52,38.15 30.52,39.24 29.43,39.24 28.34,39.24 27.25,39.24 27.25,40.33 26.16,40.33 25.07,40.33 25.07,41.42 23.98,41.42 22.89,41.42 21.8,41.42 21.8,42.51 20.71,42.51 19.62,42.51 18.53,42.51 17.44,42.51 17.44,41.42 16.35,41.42 15.26,41.42 14.17,41.42 14.17,40.33 13.08,40.33 11.99,40.33 11.99,39.24 10.9,39.24 9.81,39.24 8.72,39.24 8.72,38.15 7.63,38.15 6.54,38.15 6.54,37.06 5.45,37.06 4.36,37.06 4.36,35.97 3.27,35.97 3.27,34.88 2.18,34.88 2.18,33.79 1.09,33.79 1.09,32.7 1.09,31.61 0,31.61 0,32.7 0,33.79 0,34.88 1.09,34.88 1.09,35.97 2.18,35.97 2.18,37.06 3.27,37.06 3.27,38.15 4.36,38.15 5.45,38.15 5.45,39.24 6.54,39.24 7.63,39.24 7.63,40.33 8.72,40.33 9.81,40.33 9.81,41.42 10.9,41.42 11.99,41.42 13.08,41.42 13.08,42.51 14.17,42.51 15.26,42.51 16.35,42.51 16.35,43.6 17.44,43.6 18.53,43.6 19.62,43.6 20.71,43.6 21.8,43.6 22.89,43.6 22.89,42.51 23.98,42.51 25.07,42.51 26.16,42.51 26.16,41.42 27.25,41.42 28.34,41.42 29.43,41.42 29.43,40.33 30.52,40.33 31.61,40.33 31.61,39.24 32.7,39.24 33.79,39.24 33.79,38.15 34.88,38.15 35.97,38.15 35.97,37.06 37.06,37.06 37.06,35.97 38.15,35.97 38.15,34.88 39.24,34.88 39.24,33.79 39.24,32.7 "/>
   <path fill="#F06D03" d="M37.06 29.43l-1.09 0 0 -1.09 -1.09 0 -1.09 0 -1.09 0 -1.09 0 0 1.09 -1.09 0 0 1.09 -1.09 0 0 1.09 -1.09 0 0 1.09 -1.09 0 -1.09 0 -1.09 0 -1.09 0 0 1.09 -1.09 0 -1.09 0 -1.09 0 -1.09 0 -1.09 0 -1.09 0 -1.09 0 -1.09 0 0 -1.09 -1.09 0 -1.09 0 -1.09 0 -1.09 0 0 -1.09 -1.09 0 0 -1.09 -1.09 0 0 -1.09 -1.09 0 0 -1.09 -1.09 0 -1.09 0 -1.09 0 -1.09 0 0 1.09 -1.09 0 0 1.09 1.09 0 1.09 0 0 1.09 1.09 0 1.09 0 0 1.09 1.09 0 1.09 0 0 1.09 0 1.09 1.09 0 1.09 0 1.09 0 0 1.09 1.09 0 1.09 0 1.09 0 1.09 0 0 1.09 1.09 0 1.09 0 0 1.09 1.09 0 1.09 0 0 -1.09 1.09 0 1.09 0 0 -1.09 1.09 0 1.09 0 1.09 0 1.09 0 0 -1.09 1.09 0 1.09 0 1.09 0 0 -1.09 0 -1.09 1.09 0 1.09 0 0 -1.09 1.09 0 1.09 0 0 -1.09 1.09 0 1.09 0 0 -1.09zm-17.44 -11.99l-1.09 0 -1.09 0 0 -1.09 -1.09 0 -1.09 0 0 -1.09 -1.09 0 0 -1.09 0 -1.09 0 -1.09 1.09 0 1.09 0 1.09 0 0 1.09 1.09 0 1.09 0 1.09 0 1.09 0 0 -1.09 1.09 0 1.09 0 1.09 0 0 1.09 0 1.09 0 1.09 -1.09 0 0 1.09 -1.09 0 -1.09 0 0 1.09 -1.09 0 -1.09 0zm0 11.99l-1.09 0 -1.09 0 -1.09 0 -1.09 0 0 -1.09 -1.09 0 -1.09 0 -1.09 0 -1.09 0 0 -1.09 0 -1.09 -1.09 0 0 -1.09 1.09 0 1.09 0 1.09 0 0 1.09 1.09 0 1.09 0 1.09 0 1.09 0 0 1.09 1.09 0 1.09 0 1.09 0 1.09 0 0 -1.09 1.09 0 1.09 0 1.09 0 1.09 0 0 -1.09 1.09 0 1.09 0 1.09 0 0 1.09 -1.09 0 0 1.09 0 1.09 -1.09 0 -1.09 0 -1.09 0 -1.09 0 0 1.09 -1.09 0 -1.09 0 -1.09 0 -1.09 0zm0 -18.53l-1.09 0 -1.09 0 0 -1.09 -1.09 0 0 -1.09 1.09 0 0 -1.09 0 -1.09 0 -1.09 1.09 0 0 -1.09 0 -1.09 1.09 0 1.09 0 0 1.09 0 1.09 1.09 0 0 1.09 0 1.09 0 1.09 1.09 0 0 1.09 -1.09 0 0 1.09 -1.09 0 -1.09 0zm0 13.08l-1.09 0 -1.09 0 -1.09 0 0 -1.09 -1.09 0 -1.09 0 0 -1.09 -1.09 0 -1.09 0 0 -1.09 0 -1.09 0 -1.09 1.09 0 1.09 0 1.09 0 0 1.09 1.09 0 1.09 0 0 1.09 1.09 0 1.09 0 1.09 0 1.09 0 0 -1.09 1.09 0 1.09 0 0 -1.09 1.09 0 1.09 0 1.09 0 0 1.09 0 1.09 0 1.09 -1.09 0 -1.09 0 0 1.09 -1.09 0 -1.09 0 0 1.09 -1.09 0 -1.09 0 -1.09 0z"/>
  </g>
 </g>
</svg>
