<?xml version="1.0" encoding="UTF-8"?>
<!DOCTYPE svg PUBLIC "-//W3C//DTD SVG 1.1//EN" "http://www.w3.org/Graphics/SVG/1.1/DTD/svg11.dtd">
<!-- Creator: CorelDRAW 2020 (64-Bit) -->
<svg xmlns="http://www.w3.org/2000/svg" xml:space="preserve" width="60px" height="870px" version="1.1" shape-rendering="geometricPrecision" text-rendering="geometricPrecision" image-rendering="optimizeQuality" fill-rule="evenodd" clip-rule="evenodd"
viewBox="0 0 0.52 7.49"
 xmlns:xlink="http://www.w3.org/1999/xlink"
 xmlns:xodm="http://www.corel.com/coreldraw/odm/2003">
 <g id="Layer_x0020_1">
  <metadata id="CorelCorpID_0Corel-Layer"/>
  <g id="_2093992827632">
   <path fill="#078e62" d="M0.26 3.88l-0.26 0 0 -0.26 0.26 0 0 0.26zm-0.14 2.96l0.02 0 0 0.02 -0.02 0 0 -0.02zm0.26 0.26l0.02 0 0 0.02 -0.02 0 0 -0.02zm-0.1 -2.69l0.22 0 0 0.22 -0.22 0 0 -0.22zm0.02 0.54l0.18 0 0 0.18 -0.18 0 0 -0.18zm0.02 0.54l0.14 0 0 0.14 -0.14 0 0 -0.14zm0.02 0.53l0.1 0 0 0.1 -0.1 0 0 -0.1zm0.02 0.54l0.06 0 0 0.06 -0.06 0 0 -0.06zm-0.34 -2.41l0.22 0 0 0.22 -0.22 0 0 -0.22zm0.02 0.54l0.18 0 0 0.18 -0.18 0 0 -0.18zm0.02 0.54l0.14 0 0 0.14 -0.14 0 0 -0.14zm0.02 0.54l0.1 0 0 0.09 -0.1 0 0 -0.09zm0.02 0.53l0.06 0 0 0.06 -0.06 0 0 -0.06zm0.3 -5.64l-0.02 0 0 -0.02 0.02 0 0 0.02zm0.12 3.48l-0.26 0 0 -0.26 0.26 0 0 0.26zm-0.26 -4.14l0.26 0 0 3.62 -0.26 0 0 -0.26 0 0 -0.26 0 0 -3.36 0.26 0zm0.24 3.34l-0.22 0 0 -0.22 0.22 0 0 0.22zm-0.02 -0.54l-0.18 0 0 -0.18 0.18 0 0 0.18zm-0.02 -0.53l-0.14 0 0 -0.14 0.14 0 0 0.14zm-0.02 -0.54l-0.1 0 0 -0.1 0.1 0 0 0.1zm-0.02 -0.54l-0.06 0 0 -0.06 0.06 0 0 0.06zm-0.28 -0.79l-0.02 0 0 -0.02 0.02 0 0 0.02zm0.1 2.68l-0.22 0 0 -0.22 0.22 0 0 0.22zm-0.02 -0.54l-0.18 0 0 -0.17 0.18 0 0 0.17zm-0.02 -0.53l-0.14 0 0 -0.14 0.14 0 0 0.14zm-0.02 -0.54l-0.1 0 0 -0.1 0.1 0 0 0.1zm-0.02 -0.54l-0.06 0 0 -0.06 0.06 0 0 0.06z"/>
   <path fill="#cefbe4" d="M0.4 0.66l-0.02 0 0 -0.02 0.02 0 0 0.02zm-0.4 2.96l0 0.26 0.26 0 0 -0.26 -0.26 0zm0.52 0.26l0 3.61 -0.52 0 0 -3.87 0 -0.26 0.26 0 0 0.26 0.26 0 0 0.26zm0 0.26l-0.26 0 0 -0.26 0.26 0 0 0.26zm-0.4 2.7l0.02 0 0 0.02 -0.02 0 0 -0.02zm0.26 0.26l0.02 0 0 0.02 -0.02 0 0 -0.02zm-0.1 -2.69l0.22 0 0 0.22 -0.22 0 0 -0.22zm0.02 0.54l0.18 0 0 0.18 -0.18 0 0 -0.18zm0.02 0.54l0.14 0 0 0.14 -0.14 0 0 -0.14zm0.02 0.53l0.1 0 0 0.1 -0.1 0 0 -0.1zm0.02 0.54l0.06 0 0 0.06 -0.06 0 0 -0.06zm-0.34 -2.41l0.22 0 0 0.22 -0.22 0 0 -0.22zm0.02 0.54l0.18 0 0 0.18 -0.18 0 0 -0.18zm0.02 0.54l0.14 0 0 0.14 -0.14 0 0 -0.14zm0.02 0.54l0.1 0 0 0.09 -0.1 0 0 -0.09zm0.02 0.53l0.06 0 0 0.06 -0.06 0 0 -0.06zm0.04 -5.9l-0.02 0 0 -0.02 0.02 0 0 0.02zm0.1 2.68l-0.22 0 0 -0.22 0.22 0 0 0.22zm-0.02 -0.54l-0.18 0 0 -0.17 0.18 0 0 0.17zm-0.02 -0.53l-0.14 0 0 -0.14 0.14 0 0 0.14zm-0.02 -0.54l-0.1 0 0 -0.1 0.1 0 0 0.1zm-0.02 -0.54l-0.06 0 0 -0.06 0.06 0 0 0.06zm0.34 2.41l-0.22 0 0 -0.22 0.22 0 0 0.22zm-0.02 -0.54l-0.18 0 0 -0.18 0.18 0 0 0.18zm-0.02 -0.53l-0.14 0 0 -0.14 0.14 0 0 0.14zm-0.02 -0.54l-0.1 0 0 -0.1 0.1 0 0 0.1zm-0.02 -0.54l-0.06 0 0 -0.06 0.06 0 0 0.06z"/>
  </g>
 </g>
</svg>
