<?xml version="1.0" encoding="UTF-8"?>
<!DOCTYPE svg PUBLIC "-//W3C//DTD SVG 1.1//EN" "http://www.w3.org/Graphics/SVG/1.1/DTD/svg11.dtd">
<!-- Creator: CorelDRAW 2020 (64-Bit) -->
<svg xmlns="http://www.w3.org/2000/svg" xml:space="preserve" width="956px" height="59px" version="1.1" shape-rendering="geometricPrecision" text-rendering="geometricPrecision" image-rendering="optimizeQuality" fill-rule="evenodd" clip-rule="evenodd"
viewBox="0 0 331 20.55"
 xmlns:xlink="http://www.w3.org/1999/xlink"
 xmlns:xodm="http://www.corel.com/coreldraw/odm/2003">
 <defs>
    <clipPath id="id0" clip-rule="nonzero">
     <path d="M262.94 6.67l0 -0.72 2.17 0 0 0.72 0.72 0 0 0.72 0.72 0 0 -0.72 0.72 0 0 -0.72 1.44 0 0 0.72 0.72 0 0 1.44 0.72 0 0 2.89 0.73 0 0 2.88 -0.73 0 0 0.72 -1.44 0 0 -0.72 -0.72 0 0 -3.6 -0.72 0 0 0.72 -1.44 0 0 -0.72 -0.72 0 0 -0.73 -0.72 0 0 2.17 0.72 0 0 2.16 -0.72 0 0 0.72 -2.17 0 0 -0.72 -0.72 0 0 -4.33 0.72 0 0 -2.88 0.72 0zm11.54 0l0 -0.72 2.17 0 0 0.72 1.44 0 0 0.72 0.72 0 0 1.44 0.72 0 0 3.61 -0.72 0 0 1.44 -1.44 0 0 0.72 -3.61 0 0 -0.72 -1.44 0 0 -1.44 -0.72 0 0 -3.61 0.72 0 0 -1.44 0.72 0 0 -0.72 1.44 0zm1.44 1.44l-1.44 0 0 0.72 -0.72 0 0 1.45 0.72 0 0 0.72 1.44 0 0 -0.72 0.73 0 0 -1.45 -0.73 0 0 -0.72zm6.49 -1.44l0 -0.72 4.33 0 0 0.72 0.72 0 0 1.44 -0.72 0 0 0.72 -2.88 0 0 0.72 2.16 0 0 1.45 -0.72 0 0 0.72 -2.17 0 0 0.72 3.61 0 0 1.44 -0.72 0 0 0.72 -5.05 0 0 -0.72 -0.72 0 0 -3.6 0.72 0 0 -2.17 0.72 0 0 -1.44 0.72 0zm6.5 0l0 -0.72 3.6 0 0 0.72 1.44 0 0 0.72 0.72 0 0 1.44 0.72 0 0 2.17 -0.72 0 0 0.72 -0.72 0 0 0.72 -2.16 0 0 1.44 -0.72 0 0 0.72 -1.44 0 0 -0.72 -0.72 0 0 -2.16 -0.73 0 0 -5.05 0.73 0zm2.88 1.44l-1.44 0 0 1.44 0.72 0 0 0.73 1.44 0 0 -1.45 -0.72 0 0 -0.72zm6.49 -1.44l0 -0.72 1.44 0 0 0.72 0.72 0 0 2.16 -0.72 0 0 1.45 -0.72 0 0 1.44 1.44 0 0 0.72 0.72 0 0 1.44 -0.72 0 0 0.72 -3.6 0 0 -0.72 -0.72 0 0 -3.6 0.72 0 0 -2.17 0.72 0 0 -1.44 0.72 0zm7.21 0l0 -0.72 2.89 0 0 0.72 0.72 0 0 1.44 0.72 0 0 5.77 -0.72 0 0 0.72 -1.45 0 0 -0.72 -0.72 0 0 -0.72 -0.72 0 0 -0.72 -1.44 0 0 0.72 -0.72 0 0 0.72 -1.44 0 0 -0.72 -0.72 0 0 -2.16 0.72 0 0 -1.45 0.72 0 0 -1.44 0.72 0 0 -0.72 0.72 0 0 -0.72 0.72 0zm2.16 2.16l-1.44 0 0 0.72 -0.72 0 0 0.73 1.44 0 0 0.72 0.72 0 0 -2.17zm7.94 -2.16l0 -0.72 1.44 0 0 0.72 0.72 0 0 2.88 -0.72 0 0 1.45 -0.72 0 0 1.44 -0.72 0 0 1.44 -0.72 0 0 0.72 -1.45 0 0 -0.72 -0.72 0 0 -2.16 0.72 0 0 -0.72 -0.72 0 0 -0.72 -0.72 0 0 -0.73 -0.72 0 0 -0.72 -0.72 0 0 -1.44 0.72 0 0 -0.72 2.16 0 0 0.72 0.72 0 0 0.72 0.73 0 0 -1.44 0.72 0z"/>
    </clipPath>
 </defs>
 <g id="Layer_x0020_1">
  <metadata id="CorelCorpID_0Corel-Layer"/>
  <g id="_2424803816992">
   <path fill="white" fill-rule="nonzero" d="M13.84 14.21l0 -6.78 -1.4 0 0 -1.72 1.4 0 2.66 0 4.77 0 2.65 0 1.4 0 0 1.72 -1.4 0 0 6.78 -1.98 0 0 -5.65 0 -1.13 -1.51 2.64 -1.51 -2.64 -1.71 0 -1.52 0 0 1.13 0 5.65 -1.85 0zm10.24 4.36c-0.18,0 -0.35,-0.02 -0.5,-0.06 -0.15,-0.04 -0.28,-0.1 -0.39,-0.18 -0.11,-0.09 -0.2,-0.19 -0.26,-0.3 -0.06,-0.11 -0.09,-0.25 -0.1,-0.39l0 -0.07 0.83 0 0.01 0.05c0.01,0.05 0.02,0.09 0.04,0.12 0.02,0.03 0.05,0.06 0.08,0.08 0.04,0.02 0.08,0.04 0.13,0.05 0.06,0.01 0.12,0.02 0.2,0.02 0.11,0 0.19,-0.02 0.24,-0.04 0.04,-0.02 0.05,-0.05 0.05,-0.09 0,-0.02 0,-0.03 0,-0.04 -0.01,-0.02 -0.02,-0.03 -0.03,-0.04 -0.01,-0.01 -0.03,-0.02 -0.05,-0.02 -0.03,-0.02 -0.06,-0.02 -0.1,-0.03l-0.54 -0.11c-0.25,-0.05 -0.45,-0.13 -0.58,-0.26 -0.14,-0.13 -0.21,-0.29 -0.21,-0.49 0,-0.13 0.03,-0.24 0.08,-0.35 0.05,-0.1 0.13,-0.19 0.23,-0.27 0.11,-0.07 0.23,-0.13 0.36,-0.16 0.14,-0.04 0.3,-0.06 0.47,-0.06 0.17,0 0.33,0.02 0.47,0.06 0.14,0.04 0.26,0.09 0.36,0.17 0.1,0.08 0.18,0.17 0.24,0.28 0.06,0.11 0.09,0.24 0.1,0.38l0 0.07 -0.82 0 -0.02 -0.05c-0.01,-0.05 -0.03,-0.09 -0.05,-0.12 -0.01,-0.03 -0.04,-0.05 -0.06,-0.07 -0.03,-0.02 -0.07,-0.04 -0.11,-0.05 -0.04,-0.01 -0.1,-0.01 -0.16,-0.01 -0.05,0 -0.09,0 -0.13,0.01 -0.04,0 -0.06,0.01 -0.09,0.02 -0.02,0.01 -0.03,0.03 -0.04,0.04 -0.01,0.01 -0.01,0.02 -0.01,0.04 0,0.01 0,0.02 0.01,0.03 0,0.01 0.01,0.02 0.02,0.03 0.01,0.01 0.03,0.02 0.05,0.03 0.02,0.01 0.05,0.02 0.08,0.02l0.55 0.11c0.14,0.03 0.25,0.06 0.35,0.11 0.1,0.04 0.19,0.09 0.25,0.16 0.07,0.06 0.12,0.14 0.15,0.22 0.04,0.09 0.05,0.18 0.05,0.29 0,0.13 -0.02,0.26 -0.07,0.36 -0.05,0.11 -0.13,0.2 -0.23,0.28 -0.1,0.08 -0.22,0.13 -0.36,0.17 -0.14,0.04 -0.31,0.06 -0.49,0.06zm-0.47 -0.18c0.14,0.03 0.3,0.05 0.47,0.05 0.17,0 0.32,-0.02 0.45,-0.05 0.13,-0.03 0.24,-0.08 0.32,-0.15 0.09,-0.06 0.15,-0.14 0.19,-0.23 0.05,-0.09 0.07,-0.19 0.07,-0.31 0,-0.09 -0.02,-0.17 -0.04,-0.24 -0.03,-0.07 -0.07,-0.13 -0.12,-0.18 -0.06,-0.05 -0.13,-0.1 -0.22,-0.14 -0.09,-0.04 -0.2,-0.07 -0.32,-0.09l-0.56 -0.11c-0.03,-0.01 -0.07,-0.02 -0.1,-0.03 -0.03,-0.02 -0.06,-0.03 -0.08,-0.05 -0.03,-0.02 -0.04,-0.05 -0.06,-0.07 -0.01,-0.03 -0.02,-0.06 -0.02,-0.09 0,-0.04 0.01,-0.08 0.04,-0.11 0.02,-0.03 0.05,-0.06 0.08,-0.08 0.04,-0.01 0.08,-0.03 0.13,-0.04 0.04,0 0.09,-0.01 0.15,-0.01 0.07,0 0.13,0.01 0.19,0.02 0.06,0.01 0.11,0.04 0.15,0.06 0.04,0.03 0.07,0.07 0.1,0.11 0.02,0.03 0.04,0.07 0.05,0.11l0.6 0c-0.02,-0.1 -0.04,-0.18 -0.08,-0.26 -0.05,-0.09 -0.12,-0.17 -0.21,-0.24 -0.09,-0.07 -0.19,-0.12 -0.32,-0.15 -0.12,-0.04 -0.27,-0.05 -0.43,-0.05 -0.16,0 -0.31,0.01 -0.43,0.05 -0.13,0.03 -0.23,0.08 -0.32,0.14 -0.09,0.07 -0.15,0.14 -0.2,0.23 -0.04,0.08 -0.06,0.18 -0.06,0.29 0,0.16 0.05,0.3 0.16,0.4 0.12,0.11 0.29,0.18 0.53,0.23l0.54 0.1c0.04,0.01 0.08,0.02 0.12,0.04 0.03,0.01 0.06,0.03 0.08,0.05 0.03,0.02 0.05,0.05 0.06,0.08 0.01,0.02 0.02,0.06 0.02,0.09 0,0.09 -0.04,0.15 -0.12,0.2 -0.07,0.03 -0.17,0.05 -0.3,0.05 -0.09,0 -0.16,-0.01 -0.22,-0.02 -0.07,-0.01 -0.13,-0.04 -0.17,-0.06 -0.05,-0.03 -0.09,-0.07 -0.12,-0.12 -0.02,-0.03 -0.04,-0.07 -0.05,-0.11l-0.6 0c0.01,0.1 0.04,0.19 0.08,0.27 0.06,0.1 0.13,0.18 0.23,0.25 0.09,0.08 0.21,0.13 0.34,0.17zm-3.93 -0.72l0.3 0 0 -2.66 0.87 0 0 1.18 0.03 -0.03c0.06,-0.05 0.11,-0.09 0.18,-0.13 0.07,-0.03 0.14,-0.06 0.22,-0.07 0.08,-0.02 0.16,-0.03 0.25,-0.03 0.12,0 0.23,0.01 0.34,0.04 0.1,0.03 0.2,0.07 0.29,0.13 0.09,0.05 0.16,0.12 0.23,0.2 0.06,0.08 0.12,0.16 0.17,0.26 0.04,0.1 0.08,0.21 0.1,0.33 0.02,0.11 0.03,0.23 0.03,0.36 0,0.13 -0.01,0.25 -0.03,0.36 -0.03,0.11 -0.06,0.22 -0.11,0.32 -0.05,0.1 -0.1,0.19 -0.17,0.27 -0.07,0.08 -0.15,0.14 -0.24,0.2 -0.09,0.06 -0.2,0.1 -0.31,0.13 -0.11,0.02 -0.23,0.04 -0.37,0.04 -0.1,0 -0.2,-0.01 -0.29,-0.03 -0.1,-0.03 -0.18,-0.06 -0.26,-0.1 -0.08,-0.04 -0.15,-0.09 -0.21,-0.15 -0.05,-0.05 -0.1,-0.11 -0.14,-0.17l-0.07 0 0 0.4 -0.81 0 0 -0.13 0.68 0 0 -0.4 0.27 0 0.02 0.03c0.04,0.07 0.08,0.13 0.14,0.18 0.05,0.05 0.11,0.09 0.18,0.13 0.07,0.04 0.14,0.06 0.22,0.08 0.09,0.02 0.18,0.03 0.27,0.03 0.13,0 0.24,-0.01 0.34,-0.04 0.1,-0.02 0.19,-0.06 0.27,-0.11 0.08,-0.05 0.15,-0.11 0.21,-0.18 0.06,-0.07 0.12,-0.15 0.16,-0.23 0.04,-0.09 0.07,-0.19 0.09,-0.29 0.02,-0.11 0.03,-0.22 0.03,-0.34 0,-0.12 -0.01,-0.24 -0.03,-0.34 -0.02,-0.11 -0.05,-0.2 -0.09,-0.29 -0.04,-0.09 -0.09,-0.17 -0.15,-0.24 -0.06,-0.07 -0.12,-0.13 -0.2,-0.18 -0.08,-0.04 -0.16,-0.08 -0.25,-0.11 -0.1,-0.02 -0.2,-0.03 -0.31,-0.03 -0.08,0 -0.16,0 -0.23,0.02 -0.06,0.01 -0.13,0.04 -0.18,0.06 -0.06,0.03 -0.11,0.07 -0.15,0.11 -0.05,0.04 -0.08,0.08 -0.12,0.13l-0.01 0.04 -0.12 0 0 -1.28 -0.61 0 0 2.65 -0.43 0 0 -0.12zm1.92 0.21c-0.08,0.03 -0.17,0.04 -0.28,0.04 -0.09,0 -0.17,-0.01 -0.24,-0.04 -0.07,-0.02 -0.14,-0.06 -0.19,-0.11 -0.06,-0.06 -0.1,-0.12 -0.13,-0.19 -0.02,-0.07 -0.04,-0.15 -0.04,-0.24l0 -0.18c0,-0.09 0.02,-0.17 0.04,-0.24 0.03,-0.07 0.07,-0.14 0.13,-0.19 0.05,-0.05 0.12,-0.09 0.19,-0.12 0.07,-0.02 0.15,-0.04 0.24,-0.04 0.11,0 0.2,0.02 0.28,0.05 0.08,0.03 0.14,0.08 0.2,0.14 0.05,0.06 0.09,0.14 0.11,0.22 0.03,0.08 0.04,0.17 0.04,0.27 0,0.1 -0.01,0.19 -0.04,0.27 -0.02,0.08 -0.06,0.15 -0.11,0.22 -0.06,0.06 -0.12,0.11 -0.2,0.14zm-0.28 -0.08c0.09,0 0.17,-0.02 0.23,-0.04 0.06,-0.02 0.11,-0.06 0.15,-0.1 0.04,-0.05 0.07,-0.11 0.09,-0.18 0.02,-0.07 0.03,-0.14 0.03,-0.23 0,-0.09 -0.01,-0.17 -0.03,-0.23 -0.02,-0.07 -0.05,-0.13 -0.09,-0.18 -0.04,-0.04 -0.09,-0.08 -0.15,-0.1 -0.06,-0.03 -0.14,-0.04 -0.23,-0.04 -0.07,0 -0.14,0.01 -0.2,0.03 -0.06,0.02 -0.11,0.05 -0.15,0.09 -0.04,0.04 -0.07,0.09 -0.09,0.14 -0.02,0.06 -0.03,0.13 -0.03,0.2l0 0.18c0,0.07 0.01,0.14 0.03,0.19 0.02,0.06 0.05,0.11 0.09,0.15 0.04,0.04 0.09,0.07 0.15,0.09 0.06,0.02 0.13,0.03 0.2,0.03zm-1.84 0.72l-0.8 0 0 -0.4 -0.08 0c-0.04,0.06 -0.09,0.12 -0.15,0.17 -0.06,0.06 -0.13,0.11 -0.2,0.15 -0.08,0.04 -0.16,0.07 -0.26,0.09 -0.1,0.02 -0.2,0.03 -0.32,0.03 -0.18,0 -0.34,-0.02 -0.48,-0.07 -0.14,-0.05 -0.26,-0.12 -0.36,-0.21 -0.09,-0.1 -0.16,-0.21 -0.21,-0.34 -0.05,-0.13 -0.07,-0.28 -0.07,-0.44l0 -1.52 0.86 0 0 1.38c0,0.07 0.01,0.14 0.03,0.19 0.02,0.05 0.04,0.09 0.08,0.13 0.03,0.03 0.07,0.05 0.13,0.07 0.05,0.02 0.12,0.03 0.19,0.03 0.09,0 0.16,-0.01 0.22,-0.03 0.05,-0.02 0.1,-0.05 0.14,-0.09 0.04,-0.03 0.07,-0.08 0.09,-0.13 0.02,-0.06 0.03,-0.12 0.03,-0.2l0 -1.35 0.86 0 0 1.69 0.3 0 0 0.12 -0.42 0 0 -1.69 -0.62 0 0 1.23c0,0.09 -0.01,0.17 -0.04,0.24 -0.02,0.07 -0.06,0.13 -0.11,0.18 -0.06,0.06 -0.12,0.09 -0.2,0.12 -0.07,0.02 -0.15,0.03 -0.25,0.03 -0.08,0 -0.16,-0.01 -0.23,-0.03 -0.07,-0.02 -0.13,-0.06 -0.18,-0.1 -0.05,-0.05 -0.09,-0.11 -0.11,-0.18 -0.02,-0.07 -0.03,-0.15 -0.03,-0.23l0 -1.26 -0.62 0 0 1.4c0,0.15 0.02,0.28 0.07,0.39 0.04,0.12 0.1,0.22 0.18,0.3 0.09,0.08 0.19,0.14 0.31,0.18 0.13,0.05 0.27,0.07 0.44,0.07 0.11,0 0.21,-0.01 0.3,-0.03 0.08,-0.02 0.16,-0.04 0.22,-0.08 0.06,-0.03 0.12,-0.08 0.18,-0.13 0.05,-0.05 0.1,-0.11 0.15,-0.18l0.02 -0.03 0.26 0 0 0.4 0.68 0 0 0.13zm-4.58 0.05c-0.23,0 -0.44,-0.03 -0.62,-0.08 -0.19,-0.05 -0.35,-0.13 -0.49,-0.23 -0.13,-0.1 -0.24,-0.22 -0.32,-0.37 -0.08,-0.14 -0.12,-0.31 -0.13,-0.49l-0.01 -0.07 0.89 0 0.01 0.06c0.02,0.07 0.04,0.14 0.08,0.2 0.03,0.05 0.07,0.1 0.13,0.13 0.06,0.04 0.13,0.07 0.2,0.09 0.08,0.02 0.18,0.03 0.28,0.03 0.1,0 0.18,-0.01 0.25,-0.02 0.07,-0.02 0.12,-0.04 0.17,-0.06 0.03,-0.03 0.06,-0.06 0.08,-0.09 0.02,-0.04 0.03,-0.08 0.03,-0.13 0,-0.04 0,-0.08 -0.02,-0.1 -0.01,-0.03 -0.02,-0.05 -0.05,-0.07 -0.02,-0.02 -0.06,-0.04 -0.1,-0.06 -0.05,-0.02 -0.1,-0.04 -0.17,-0.05l-0.69 -0.15c-0.16,-0.03 -0.3,-0.08 -0.42,-0.13 -0.12,-0.06 -0.22,-0.13 -0.3,-0.21 -0.08,-0.08 -0.14,-0.18 -0.18,-0.28 -0.04,-0.11 -0.06,-0.23 -0.06,-0.36 0,-0.16 0.03,-0.31 0.09,-0.43 0.06,-0.13 0.16,-0.25 0.28,-0.34 0.13,-0.09 0.27,-0.16 0.44,-0.21 0.17,-0.04 0.35,-0.06 0.56,-0.06 0.21,0 0.4,0.02 0.57,0.07 0.17,0.04 0.32,0.12 0.45,0.21 0.14,0.1 0.24,0.21 0.31,0.35 0.08,0.14 0.12,0.29 0.13,0.46l0.01 0.07 -0.89 0 -0.01 -0.05c-0.04,-0.14 -0.1,-0.24 -0.2,-0.31 -0.1,-0.06 -0.24,-0.1 -0.41,-0.1 -0.08,0 -0.15,0.01 -0.21,0.02 -0.06,0.01 -0.11,0.03 -0.15,0.06 -0.03,0.02 -0.06,0.05 -0.08,0.08 -0.02,0.03 -0.03,0.07 -0.03,0.11 0,0.06 0.03,0.11 0.07,0.15 0.05,0.05 0.12,0.08 0.23,0.1l0.72 0.15c0.17,0.04 0.31,0.08 0.43,0.14 0.13,0.06 0.23,0.13 0.31,0.21 0.08,0.08 0.14,0.18 0.18,0.29 0.04,0.12 0.06,0.24 0.06,0.38 0,0.34 -0.13,0.61 -0.38,0.8 -0.12,0.1 -0.27,0.17 -0.45,0.22 -0.17,0.04 -0.37,0.07 -0.59,0.07zm-0.59 -0.2c0.17,0.05 0.37,0.07 0.59,0.07 0.21,0 0.4,-0.02 0.56,-0.06 0.16,-0.05 0.29,-0.11 0.4,-0.2 0.22,-0.16 0.33,-0.4 0.33,-0.7 0,-0.13 -0.01,-0.24 -0.05,-0.33 -0.03,-0.1 -0.08,-0.18 -0.15,-0.25 -0.07,-0.07 -0.16,-0.13 -0.27,-0.19 -0.11,-0.05 -0.25,-0.09 -0.41,-0.12l-0.72 -0.15c-0.12,-0.03 -0.22,-0.07 -0.29,-0.13 -0.07,-0.07 -0.1,-0.15 -0.1,-0.25 0,-0.06 0.01,-0.12 0.04,-0.17 0.03,-0.05 0.07,-0.1 0.13,-0.13 0.05,-0.03 0.11,-0.06 0.18,-0.07 0.07,-0.02 0.15,-0.02 0.24,-0.02 0.2,0 0.36,0.04 0.48,0.12 0.11,0.08 0.19,0.19 0.24,0.33l0.65 0c-0.02,-0.12 -0.05,-0.24 -0.11,-0.34 -0.06,-0.12 -0.15,-0.22 -0.27,-0.31 -0.12,-0.08 -0.26,-0.15 -0.41,-0.19 -0.16,-0.05 -0.34,-0.07 -0.54,-0.07 -0.2,0 -0.37,0.02 -0.53,0.06 -0.15,0.05 -0.28,0.11 -0.39,0.19 -0.11,0.08 -0.19,0.18 -0.25,0.29 -0.05,0.11 -0.08,0.24 -0.08,0.38 0,0.12 0.02,0.22 0.05,0.31 0.04,0.09 0.09,0.17 0.16,0.24 0.07,0.07 0.16,0.13 0.27,0.18 0.11,0.06 0.24,0.1 0.39,0.13l0.69 0.14c0.07,0.02 0.13,0.04 0.19,0.06 0.05,0.02 0.1,0.05 0.14,0.08 0.03,0.03 0.06,0.07 0.08,0.12 0.02,0.04 0.03,0.09 0.03,0.15 0,0.07 -0.02,0.13 -0.05,0.19 -0.03,0.05 -0.07,0.1 -0.13,0.13 -0.05,0.04 -0.12,0.06 -0.2,0.08 -0.08,0.02 -0.17,0.02 -0.28,0.02 -0.11,0 -0.21,-0.01 -0.31,-0.03 -0.09,-0.02 -0.17,-0.06 -0.24,-0.1 -0.07,-0.05 -0.13,-0.11 -0.17,-0.18 -0.04,-0.05 -0.06,-0.12 -0.08,-0.19l-0.65 0c0.01,0.14 0.05,0.26 0.11,0.37 0.07,0.13 0.16,0.24 0.29,0.33 0.13,0.09 0.27,0.16 0.44,0.21zm51.69 -1.51c-0.98,0 -1.77,-0.2 -2.37,-0.59 -0.61,-0.39 -0.97,-0.93 -1.08,-1.62l2.04 0c0.16,0.46 0.6,0.69 1.33,0.69 0.51,0 0.9,-0.11 1.17,-0.34 0.27,-0.23 0.41,-0.56 0.41,-0.99l0 -0.79 -0.06 0c-0.19,0.33 -0.45,0.58 -0.77,0.74 -0.32,0.17 -0.7,0.25 -1.16,0.25 -0.58,0 -1.1,-0.13 -1.53,-0.39 -0.44,-0.27 -0.78,-0.64 -1.02,-1.12 -0.24,-0.48 -0.36,-1.05 -0.36,-1.7 0,-0.98 0.27,-1.76 0.81,-2.34 0.54,-0.58 1.29,-0.87 2.25,-0.87 0.53,0 0.99,0.1 1.37,0.31 0.38,0.2 0.68,0.49 0.91,0.86l0.44 0 0 -1.05 1.93 0 0 1.89 -0.95 0 0 4.21c0,0.91 -0.28,1.61 -0.87,2.1 -0.58,0.5 -1.41,0.75 -2.49,0.75zm0 -4.33c0.45,0 0.8,-0.12 1.06,-0.37 0.25,-0.24 0.37,-0.58 0.37,-1.01l0 -0.32c0,-0.43 -0.12,-0.76 -0.38,-1 -0.25,-0.24 -0.61,-0.36 -1.05,-0.36 -0.47,0 -0.84,0.13 -1.09,0.4 -0.26,0.27 -0.38,0.65 -0.38,1.14 0,0.49 0.12,0.87 0.38,1.13 0.25,0.26 0.62,0.39 1.09,0.39zm-10.91 1.68l0 -4.41 -0.94 0 0 -1.89 1.93 0 0 1.05 0.44 0c0.25,-0.36 0.56,-0.65 0.93,-0.85 0.37,-0.21 0.84,-0.31 1.41,-0.31 0.89,0 1.58,0.24 2.06,0.72 0.48,0.48 0.72,1.13 0.72,1.94l0 3.75 -1.93 0 0 -3.37c0,-0.43 -0.11,-0.76 -0.34,-0.99 -0.23,-0.22 -0.56,-0.33 -1.01,-0.33 -0.44,0 -0.77,0.11 -1,0.33 -0.23,0.23 -0.34,0.56 -0.34,0.99l0 3.37 -1.93 0zm-5.76 0.12c-0.76,0 -1.35,-0.18 -1.77,-0.55 -0.42,-0.35 -0.64,-0.84 -0.64,-1.44 0,-0.62 0.23,-1.1 0.67,-1.44 0.44,-0.34 1.08,-0.51 1.91,-0.51l1.69 0 0 -0.23c0,-0.57 -0.37,-0.86 -1.1,-0.86 -0.64,0 -1.03,0.21 -1.17,0.65l-1.91 0c0.15,-0.71 0.48,-1.25 1,-1.62 0.51,-0.36 1.21,-0.54 2.07,-0.54 0.96,0 1.69,0.21 2.2,0.63 0.5,0.43 0.75,1.04 0.75,1.85l0 2.05 0.91 0 0 1.89 -1.94 0 0 -1.05 -0.44 0c-0.21,0.38 -0.5,0.67 -0.86,0.87 -0.35,0.2 -0.81,0.3 -1.37,0.3zm0.29 -1.45c0.31,0 0.58,-0.05 0.81,-0.16 0.24,-0.1 0.42,-0.25 0.56,-0.43 0.13,-0.18 0.2,-0.38 0.2,-0.61l0 -0.03 -1.61 0c-0.54,0 -0.81,0.2 -0.81,0.6 0,0.2 0.08,0.36 0.23,0.46 0.15,0.11 0.36,0.17 0.62,0.17zm-7.46 1.33l-1.97 0 0 -8.5 6.19 0 0 1.72 -4.22 0 0 1.64 3.84 0 0 1.72 -3.84 0 0 3.42zm-6.26 0.13c-0.69,0 -1.29,-0.14 -1.8,-0.41 -0.51,-0.27 -0.91,-0.65 -1.18,-1.14 -0.28,-0.5 -0.42,-1.08 -0.42,-1.75 0,-0.67 0.14,-1.25 0.41,-1.74 0.27,-0.48 0.65,-0.86 1.15,-1.12 0.5,-0.26 1.09,-0.39 1.77,-0.39 0.67,0 1.25,0.12 1.73,0.38 0.48,0.26 0.85,0.62 1.11,1.1 0.25,0.47 0.38,1.04 0.38,1.71l0 0.62 -4.69 0c0.08,0.4 0.25,0.71 0.5,0.91 0.26,0.21 0.61,0.32 1.03,0.32 0.34,0 0.61,-0.06 0.81,-0.17 0.19,-0.11 0.33,-0.28 0.41,-0.52l1.93 0c-0.13,0.69 -0.48,1.22 -1.03,1.61 -0.55,0.39 -1.25,0.59 -2.11,0.59zm-1.51 -4l2.81 0c-0.06,-0.35 -0.2,-0.61 -0.43,-0.79 -0.23,-0.17 -0.54,-0.25 -0.93,-0.25 -0.38,0 -0.7,0.09 -0.94,0.26 -0.25,0.17 -0.42,0.44 -0.51,0.78zm-5.9 4c-0.69,0 -1.29,-0.14 -1.81,-0.41 -0.52,-0.27 -0.92,-0.65 -1.21,-1.14 -0.28,-0.5 -0.42,-1.07 -0.42,-1.74 0,-0.66 0.14,-1.24 0.42,-1.73 0.29,-0.49 0.69,-0.87 1.21,-1.13 0.52,-0.27 1.12,-0.4 1.82,-0.4 0.7,0 1.31,0.13 1.81,0.4 0.51,0.26 0.91,0.64 1.18,1.13 0.28,0.49 0.42,1.07 0.42,1.74 0,0.67 -0.14,1.25 -0.42,1.74 -0.27,0.49 -0.67,0.87 -1.18,1.14 -0.51,0.26 -1.12,0.4 -1.82,0.4zm0 -1.68c0.49,0 0.86,-0.15 1.11,-0.44 0.25,-0.29 0.38,-0.68 0.38,-1.17 0,-0.49 -0.13,-0.88 -0.38,-1.16 -0.25,-0.28 -0.62,-0.42 -1.11,-0.42 -0.49,0 -0.86,0.14 -1.12,0.42 -0.26,0.28 -0.39,0.67 -0.39,1.16 0,0.49 0.13,0.88 0.39,1.17 0.26,0.29 0.63,0.44 1.12,0.44z"/>
   <path fill="white" fill-rule="nonzero" d="M94.14 11.78l-2.6 0 -0.86 2.75 -0.15 0 0.86 -2.75 -1.81 0 0 -0.14 1.86 0 0.86 -2.76 -1.81 0 0 -0.14 1.85 0 0.71 -2.29 0.15 0 -0.71 2.29 2.6 0 0.71 -2.29 0.15 0 -0.71 2.29 1.66 0 0 0.14 -1.71 0 -0.86 2.76 1.68 0 0 0.14 -1.72 0 -0.86 2.75 -0.15 0 0.86 -2.75zm-2.55 -0.14l2.6 0 0.85 -2.76 -2.59 0 -0.86 2.76zm15.04 -5.13l0 0.14c-0.38,0 -0.62,0.03 -0.73,0.09 -0.12,0.06 -0.18,0.18 -0.18,0.35l0 6.86c0,0.17 0.06,0.28 0.18,0.35 0.11,0.06 0.35,0.1 0.73,0.1l0 0.12 -3.31 0 0 -0.12c0.38,0 0.63,-0.04 0.74,-0.11 0.12,-0.06 0.18,-0.18 0.18,-0.35l0 -6.55 -2.87 7.14 -0.14 0 -2.87 -7.17 0 6.59c0,0.17 0.06,0.29 0.18,0.36 0.11,0.06 0.35,0.1 0.73,0.1l0 0.12 -1.96 0 0 -0.12c0.38,0 0.62,-0.04 0.73,-0.1 0.12,-0.07 0.18,-0.19 0.18,-0.36l0 -6.84c0,-0.17 -0.06,-0.29 -0.18,-0.36 -0.11,-0.07 -0.35,-0.1 -0.73,-0.1l0 -0.13 2.3 0 2.41 6.02 2.41 -6.03 2.2 0zm3.36 7.98c0.46,0 0.81,-0.26 1.04,-0.76 0.23,-0.51 0.35,-1.2 0.35,-2.06 0,-0.86 -0.12,-1.54 -0.35,-2.05 -0.23,-0.51 -0.58,-0.76 -1.04,-0.76 -0.45,0 -0.8,0.25 -1.03,0.76 -0.23,0.51 -0.35,1.19 -0.35,2.05 0,0.86 0.12,1.55 0.35,2.06 0.23,0.5 0.58,0.76 1.03,0.76zm0 0.11c-0.84,0 -1.52,-0.27 -2.05,-0.82 -0.53,-0.54 -0.8,-1.25 -0.8,-2.11 0,-0.86 0.27,-1.56 0.79,-2.11 0.53,-0.55 1.22,-0.82 2.06,-0.82 0.85,0 1.54,0.27 2.06,0.82 0.53,0.55 0.79,1.25 0.79,2.11 0,0.86 -0.26,1.57 -0.79,2.11 -0.52,0.55 -1.21,0.82 -2.06,0.82zm5.18 -2.23c0.46,-0.01 0.85,-0.11 1.15,-0.27 0.33,-0.19 0.58,-0.43 0.74,-0.74 0.16,-0.3 0.24,-0.63 0.24,-0.99 0,-0.22 -0.04,-0.45 -0.1,-0.68 -0.06,-0.24 -0.17,-0.43 -0.32,-0.59 -0.15,-0.15 -0.35,-0.23 -0.61,-0.23 -0.36,0 -0.66,0.19 -0.89,0.56 -0.23,0.38 -0.35,0.98 -0.35,1.8 0,0.44 0.05,0.82 0.14,1.14zm0.03 0.13c0.04,0.1 0.08,0.2 0.13,0.28 0.19,0.4 0.44,0.68 0.76,0.86 0.32,0.17 0.65,0.25 1.01,0.25 0.64,0 1.12,-0.23 1.43,-0.68l0.11 0.05c-0.23,0.46 -0.55,0.8 -0.94,1.02 -0.4,0.21 -0.84,0.32 -1.32,0.32 -0.83,0 -1.51,-0.28 -2.03,-0.84 -0.52,-0.57 -0.78,-1.28 -0.78,-2.14 0,-0.84 0.25,-1.53 0.75,-2.07 0.5,-0.54 1.17,-0.81 2.03,-0.81 0.65,0 1.19,0.16 1.62,0.49 0.42,0.32 0.63,0.77 0.63,1.34 0,0.65 -0.3,1.13 -0.9,1.45 -0.57,0.3 -1.41,0.46 -2.5,0.48zm9.63 2.03l-3.3 0 0 -0.12c0.38,0 0.62,-0.04 0.74,-0.1 0.12,-0.07 0.18,-0.19 0.18,-0.36l0 -7.3 -0.88 0c-0.56,0 -1.04,0.16 -1.44,0.48 -0.4,0.33 -0.66,0.73 -0.78,1.22l-0.12 0c0,-0.32 -0.01,-0.65 -0.03,-1 -0.02,-0.36 -0.05,-0.63 -0.09,-0.83l8.16 0c-0.06,0.2 -0.09,0.47 -0.11,0.83 -0.01,0.35 -0.02,0.68 -0.02,1l-0.11 0c-0.13,-0.49 -0.39,-0.89 -0.79,-1.22 -0.4,-0.32 -0.88,-0.48 -1.45,-0.48l-0.88 0 0 7.3c0,0.17 0.06,0.29 0.18,0.36 0.12,0.06 0.37,0.1 0.74,0.1l0 0.12zm9.63 0l-3.06 0 0 -0.11c0.38,0 0.62,-0.03 0.72,-0.1 0.09,-0.07 0.14,-0.19 0.14,-0.36l0 -2.48c0,-0.8 -0.13,-1.4 -0.38,-1.81 -0.25,-0.41 -0.56,-0.62 -0.94,-0.62 -0.37,0 -0.66,0.18 -0.87,0.55 -0.21,0.37 -0.32,0.79 -0.32,1.26l0 3.1c0,0.17 0.05,0.29 0.15,0.36 0.1,0.07 0.34,0.1 0.71,0.1l0 0.11 -3.06 0 0 -0.11c0.38,0 0.61,-0.03 0.71,-0.1 0.1,-0.07 0.15,-0.19 0.15,-0.36l0 -7.15c0,-0.18 -0.05,-0.3 -0.15,-0.36 -0.1,-0.07 -0.33,-0.1 -0.71,-0.1l0 -0.11c0.49,0 0.93,-0.03 1.33,-0.07 0.39,-0.05 0.64,-0.12 0.76,-0.22l0.11 0 0 3.96c0.12,-0.34 0.32,-0.61 0.61,-0.84 0.3,-0.22 0.67,-0.33 1.13,-0.33 0.63,0 1.14,0.23 1.53,0.69 0.38,0.46 0.58,1.14 0.58,2.05l0 2.48c0,0.17 0.05,0.29 0.15,0.36 0.1,0.07 0.33,0.1 0.71,0.1l0 0.11zm2.38 -3.19c0.04,-0.84 0.18,-1.48 0.44,-1.92 0.27,-0.46 0.71,-0.69 1.32,-0.69 0.21,0 0.41,0.02 0.6,0.06 0.2,0.05 0.36,0.09 0.49,0.14 -0.14,0.37 -0.21,0.93 -0.21,1.68l-0.12 0c-0.06,-0.27 -0.18,-0.51 -0.37,-0.71 -0.18,-0.21 -0.42,-0.31 -0.71,-0.31 -0.36,0 -0.67,0.18 -0.94,0.54 -0.27,0.36 -0.4,0.87 -0.4,1.53l0 2.3c0,0.17 0.05,0.29 0.15,0.36 0.1,0.07 0.33,0.1 0.71,0.1l0 0.11 -3.06 0 0 -0.11c0.38,0 0.61,-0.03 0.71,-0.1 0.1,-0.07 0.15,-0.19 0.15,-0.36l0 -4.29c0,-0.17 -0.05,-0.29 -0.15,-0.36 -0.1,-0.06 -0.33,-0.1 -0.71,-0.1l0 -0.11c0.49,0 0.93,-0.03 1.32,-0.07 0.4,-0.05 0.65,-0.12 0.77,-0.22l0.11 0 -0.1 2.53zm4.87 1.03c0.47,-0.01 0.85,-0.11 1.16,-0.27 0.33,-0.19 0.57,-0.43 0.73,-0.74 0.16,-0.3 0.24,-0.63 0.24,-0.99 0,-0.22 -0.03,-0.45 -0.1,-0.68 -0.06,-0.24 -0.17,-0.43 -0.32,-0.59 -0.14,-0.15 -0.35,-0.23 -0.61,-0.23 -0.36,0 -0.65,0.19 -0.89,0.56 -0.23,0.38 -0.34,0.98 -0.34,1.8 0,0.44 0.04,0.82 0.13,1.14zm0.04 0.13c0.04,0.1 0.08,0.2 0.12,0.28 0.19,0.4 0.45,0.68 0.76,0.86 0.32,0.17 0.66,0.25 1.02,0.25 0.64,0 1.12,-0.23 1.43,-0.68l0.1 0.05c-0.23,0.46 -0.54,0.8 -0.94,1.02 -0.39,0.21 -0.83,0.32 -1.31,0.32 -0.84,0 -1.51,-0.28 -2.04,-0.84 -0.52,-0.57 -0.78,-1.28 -0.78,-2.14 0,-0.84 0.25,-1.53 0.75,-2.07 0.5,-0.54 1.18,-0.81 2.03,-0.81 0.66,0 1.2,0.16 1.62,0.49 0.43,0.32 0.64,0.77 0.64,1.34 0,0.65 -0.3,1.13 -0.91,1.45 -0.57,0.3 -1.4,0.46 -2.49,0.48zm6.46 1.66c0.26,0 0.5,-0.1 0.71,-0.29 0.22,-0.19 0.39,-0.42 0.51,-0.67 0.13,-0.26 0.19,-0.49 0.19,-0.69l0 -1.56c-0.11,0.03 -0.22,0.06 -0.33,0.09 -0.43,0.12 -0.78,0.23 -1.06,0.35 -0.28,0.12 -0.48,0.28 -0.61,0.49 -0.13,0.21 -0.2,0.53 -0.2,0.94 0,0.19 0.02,0.39 0.06,0.59 0.04,0.21 0.12,0.38 0.23,0.53 0.12,0.14 0.28,0.22 0.5,0.22zm2.51 0.43c-0.37,0 -0.65,-0.14 -0.82,-0.42 -0.18,-0.28 -0.27,-0.62 -0.27,-1.02 -0.07,0.24 -0.19,0.46 -0.36,0.68 -0.17,0.22 -0.39,0.4 -0.65,0.54 -0.27,0.15 -0.6,0.22 -0.98,0.22 -0.46,0 -0.85,-0.13 -1.17,-0.38 -0.32,-0.26 -0.48,-0.64 -0.48,-1.16 0,-0.37 0.09,-0.67 0.25,-0.89 0.16,-0.23 0.39,-0.41 0.69,-0.54 0.29,-0.14 0.63,-0.26 1.01,-0.36l1.68 -0.43c0,-0.38 -0.09,-0.67 -0.27,-0.87 -0.19,-0.21 -0.4,-0.36 -0.66,-0.44 -0.26,-0.08 -0.5,-0.13 -0.73,-0.13 -0.39,0 -0.74,0.1 -1.05,0.3 -0.31,0.19 -0.51,0.44 -0.62,0.75l-0.11 -0.05c0.07,-0.24 0.21,-0.49 0.4,-0.74 0.2,-0.26 0.47,-0.47 0.8,-0.64 0.34,-0.18 0.77,-0.27 1.27,-0.27 0.74,0 1.33,0.23 1.77,0.67 0.45,0.45 0.67,1.13 0.67,2.06l0 1.83c0,0.32 0.08,0.49 0.25,0.51 0.1,0 0.18,-0.05 0.26,-0.15 0.07,-0.1 0.14,-0.25 0.2,-0.43l0.1 0.05c-0.13,0.43 -0.28,0.76 -0.45,0.98 -0.17,0.22 -0.42,0.33 -0.73,0.33zm4.48 -0.27c0.29,0 0.55,-0.13 0.79,-0.37 0.24,-0.24 0.36,-0.53 0.36,-0.87l0 -2.22c0,-0.27 -0.04,-0.54 -0.13,-0.82 -0.09,-0.28 -0.21,-0.51 -0.38,-0.7 -0.17,-0.18 -0.38,-0.28 -0.63,-0.28 -0.35,0 -0.67,0.22 -0.95,0.67 -0.27,0.44 -0.41,1.1 -0.41,1.97 0,0.83 0.13,1.48 0.39,1.94 0.26,0.45 0.58,0.68 0.96,0.68zm-0.52 0.28c-0.41,0 -0.79,-0.1 -1.14,-0.31 -0.34,-0.21 -0.62,-0.53 -0.84,-0.95 -0.21,-0.43 -0.32,-0.96 -0.32,-1.61 0,-0.93 0.22,-1.66 0.65,-2.19 0.43,-0.53 0.97,-0.8 1.61,-0.8 0.45,0 0.82,0.12 1.13,0.36 0.3,0.23 0.5,0.53 0.58,0.89l0 -3.18c0,-0.18 -0.04,-0.3 -0.14,-0.36 -0.1,-0.07 -0.33,-0.1 -0.7,-0.1l0 -0.11c0.48,0 0.92,-0.03 1.31,-0.07 0.39,-0.05 0.65,-0.12 0.77,-0.22l0.11 0 0 7.35c0,0.32 0.12,0.49 0.36,0.51 0.22,0 0.39,-0.19 0.5,-0.58l0.11 0.05c-0.08,0.22 -0.17,0.43 -0.27,0.62 -0.11,0.2 -0.24,0.37 -0.4,0.5 -0.17,0.13 -0.38,0.19 -0.65,0.19 -0.26,0 -0.49,-0.07 -0.69,-0.23 -0.21,-0.15 -0.31,-0.4 -0.31,-0.75 -0.1,0.29 -0.3,0.53 -0.6,0.71 -0.29,0.19 -0.65,0.28 -1.07,0.28z"/>
   <g>
    <path fill="white" fill-rule="nonzero" d="M182.72 5.95l-1.45 0 0 0.72 -0.72 0 0 1.45 -0.72 0 0 0.71 -0.71 0 0 -0.71 -0.73 0 0 -1.45 -0.72 0 0 -0.72 -2.88 0 0 0.72 1.45 0 0 0.73 -0.73 0 0 0.72 -0.72 0 0 -1.45 -0.72 0 0 7.21 0.72 0 0 0.72 2.88 0 0 -0.72 0.72 0 0 -2.88 0.73 0 0 0.72 0.71 0 0 -0.72 0.72 0 0 2.88 0.72 0 0 0.72 1.45 0 0 -0.72 0.72 0 0 -7.21 -0.72 0 0 -0.72zm6.49 4.33l0.72 0 0 -0.73 -0.72 0 0 0.73zm12.26 -4.33l-7.21 0 0 0.72 1.45 0 0 0.73 -0.73 0 0 0.72 -0.72 0 0 -1.45 -0.72 0 0 7.21 0.72 0 0 0.72 7.21 0 0 -0.72 0.72 0 0 -1.43 -0.72 0 0 -0.73 -3.61 0 0 -0.72 3.61 0 0 -0.72 0.72 0 0 -0.71 -0.72 0 0 -0.73 -3.61 0 0 -0.72 3.61 0 0 -0.72 0.72 0 0 -0.73 -0.72 0 0 -0.72zm-9.38 0.72l-0.72 0 0 -0.72 -5.76 0 0 0.72 0.71 0 0 0.73 -0.71 0 0 0.72 -0.73 0 0 -0.72 -0.72 0 0 5.76 0.72 0 0 0.72 0.73 0 0 0.72 5.76 0 0 -0.72 0.72 0 0 -0.72 0.72 0 0 -5.76 -0.72 0 0 -0.73zm-1.44 5.05l-2.16 0 0 -3.6 2.16 0 0 3.6z"/>
    <path fill="white" fill-rule="nonzero" d="M210.84 7.4l-0.72 0 0 -0.73 -0.73 0 0 -0.72 -5.76 0 0 0.72 1.45 0 0 0.73 -0.72 0 0 0.72 -0.73 0 0 -1.45 -0.72 0 0 7.21 0.72 0 0 0.72 6.49 0 0 -0.72 0.72 0 0 -0.72 0.72 0 0 -5.04 -0.72 0 0 -0.72zm6.48 6.48l0.73 0 0 -0.72 -0.73 0 0 0.72zm-9.36 -2.89l0.72 0 0 0.73 -1.44 0 0 -3.6 1.44 0 0 0.71 0.71 0 0 2.16 -0.71 0 0 -0.73 -0.72 0 0 0.73zm23.07 -4.32l0.73 0 0 0.73 -0.73 0 0 6.48 0.73 0 0 0.72 2.88 0 0 -0.72 0.72 0 0 -2.88 2.16 0 0 2.88 0.72 0 0 0.72 0.72 0 0 -0.72 0.72 0 0 -6.48 -0.72 0 0 -0.73 -0.72 0 0 -0.72 -5.76 0 0 0.72 -0.72 0 0 -0.72 -0.73 0 0 0.72zm0.73 0.73l0.72 0 0 0.72 -0.72 0 0 -0.72zm0.72 0l0 -0.73 0.72 0 0 0.73 -0.72 0zm5.04 1.44l-2.16 0 0 -0.72 2.16 0 0 0.72zm-7.93 -2.89l-7.21 0 0 0.72 1.45 0 0 0.73 -0.72 0 0 0.72 -0.73 0 0 0.71 1.45 0 0 5.05 0.71 0 0 0.72 2.89 0 0 -0.72 0.72 0 0 -5.05 1.44 0 0 -0.71 0.72 0 0 -1.45 -0.72 0 0 -0.72zm-7.21 0.72l-0.72 0 0 1.45 0.72 0 0 -1.45zm-2.16 0l-0.73 0 0 -0.72 -5.76 0 0 0.72 0.72 0 0 0.73 -0.72 0 0 0.72 -0.72 0 0 -0.72 -0.73 0 0 6.48 0.73 0 0 0.72 2.88 0 0 -0.72 0.72 0 0 -2.88 2.16 0 0 2.88 0.72 0 0 0.72 0.73 0 0 -0.72 0.72 0 0 -6.48 -0.72 0 0 -0.73zm-1.45 2.17l-2.16 0 0 -0.72 2.16 0 0 0.72z"/>
   </g>
   <path fill="#C2C2C2" fill-rule="nonzero" d="M262.94 6.67l0 -0.72 2.17 0 0 0.72 0.72 0 0 0.72 0.72 0 0 -0.72 0.72 0 0 -0.72 1.44 0 0 0.72 0.72 0 0 1.44 0.72 0 0 2.89 0.73 0 0 2.88 -0.73 0 0 0.72 -1.44 0 0 -0.72 -0.72 0 0 -3.6 -0.72 0 0 0.72 -1.44 0 0 -0.72 -0.72 0 0 -0.73 -0.72 0 0 2.17 0.72 0 0 2.16 -0.72 0 0 0.72 -2.17 0 0 -0.72 -0.72 0 0 -4.33 0.72 0 0 -2.88 0.72 0zm11.54 0l0 -0.72 2.17 0 0 0.72 1.44 0 0 0.72 0.72 0 0 1.44 0.72 0 0 3.61 -0.72 0 0 1.44 -1.44 0 0 0.72 -3.61 0 0 -0.72 -1.44 0 0 -1.44 -0.72 0 0 -3.61 0.72 0 0 -1.44 0.72 0 0 -0.72 1.44 0zm1.44 1.44l-1.44 0 0 0.72 -0.72 0 0 1.45 0.72 0 0 0.72 1.44 0 0 -0.72 0.73 0 0 -1.45 -0.73 0 0 -0.72zm6.49 -1.44l0 -0.72 4.33 0 0 0.72 0.72 0 0 1.44 -0.72 0 0 0.72 -2.88 0 0 0.72 2.16 0 0 1.45 -0.72 0 0 0.72 -2.17 0 0 0.72 3.61 0 0 1.44 -0.72 0 0 0.72 -5.05 0 0 -0.72 -0.72 0 0 -3.6 0.72 0 0 -2.17 0.72 0 0 -1.44 0.72 0zm6.5 0l0 -0.72 3.6 0 0 0.72 1.44 0 0 0.72 0.72 0 0 1.44 0.72 0 0 2.17 -0.72 0 0 0.72 -0.72 0 0 0.72 -2.16 0 0 1.44 -0.72 0 0 0.72 -1.44 0 0 -0.72 -0.72 0 0 -2.16 -0.73 0 0 -5.05 0.73 0zm2.88 1.44l-1.44 0 0 1.44 0.72 0 0 0.73 1.44 0 0 -1.45 -0.72 0 0 -0.72zm6.49 -1.44l0 -0.72 1.44 0 0 0.72 0.72 0 0 2.16 -0.72 0 0 1.45 -0.72 0 0 1.44 1.44 0 0 0.72 0.72 0 0 1.44 -0.72 0 0 0.72 -3.6 0 0 -0.72 -0.72 0 0 -3.6 0.72 0 0 -2.17 0.72 0 0 -1.44 0.72 0zm7.21 0l0 -0.72 2.89 0 0 0.72 0.72 0 0 1.44 0.72 0 0 5.77 -0.72 0 0 0.72 -1.45 0 0 -0.72 -0.72 0 0 -0.72 -0.72 0 0 -0.72 -1.44 0 0 0.72 -0.72 0 0 0.72 -1.44 0 0 -0.72 -0.72 0 0 -2.16 0.72 0 0 -1.45 0.72 0 0 -1.44 0.72 0 0 -0.72 0.72 0 0 -0.72 0.72 0zm2.16 2.16l-1.44 0 0 0.72 -0.72 0 0 0.73 1.44 0 0 0.72 0.72 0 0 -2.17zm7.94 -2.16l0 -0.72 1.44 0 0 0.72 0.72 0 0 2.88 -0.72 0 0 1.45 -0.72 0 0 1.44 -0.72 0 0 1.44 -0.72 0 0 0.72 -1.45 0 0 -0.72 -0.72 0 0 -2.16 0.72 0 0 -0.72 -0.72 0 0 -0.72 -0.72 0 0 -0.73 -0.72 0 0 -0.72 -0.72 0 0 -1.44 0.72 0 0 -0.72 2.16 0 0 0.72 0.72 0 0 0.72 0.73 0 0 -1.44 0.72 0z"/>
   <g clip-path="url(#id0)">
    <g>
     <path id="1" fill="white" fill-rule="nonzero" d="M262.22 5.95l0 -0.72 2.17 0 0 0.72 0.72 0 0 0.72 0.72 0 0 -0.72 0.72 0 0 -0.72 1.44 0 0 0.72 0.72 0 0 1.44 0.72 0 0 2.89 0.73 0 0 2.88 -0.73 0 0 0.72 -1.44 0 0 -0.72 -0.72 0 0 -3.6 -0.72 0 0 0.72 -1.44 0 0 -0.72 -0.72 0 0 -0.73 -0.72 0 0 2.17 0.72 0 0 2.16 -0.72 0 0 0.72 -2.17 0 0 -0.72 -0.72 0 0 -4.33 0.72 0 0 -2.88 0.72 0zm11.54 0l0 -0.72 2.16 0 0 0.72 1.45 0 0 0.72 0.72 0 0 1.44 0.72 0 0 3.61 -0.72 0 0 1.44 -1.44 0 0 0.72 -3.61 0 0 -0.72 -1.44 0 0 -1.44 -0.72 0 0 -3.61 0.72 0 0 -1.44 0.72 0 0 -0.72 1.44 0zm1.44 1.44l-1.44 0 0 0.72 -0.72 0 0 1.45 0.72 0 0 0.72 1.44 0 0 -0.72 0.72 0 0 -1.45 -0.72 0 0 -0.72zm6.49 -1.44l0 -0.72 4.33 0 0 0.72 0.72 0 0 1.44 -0.72 0 0 0.72 -2.88 0 0 0.72 2.16 0 0 1.45 -0.72 0 0 0.72 -2.17 0 0 0.72 3.61 0 0 1.44 -0.72 0 0 0.72 -5.05 0 0 -0.72 -0.72 0 0 -3.6 0.72 0 0 -2.17 0.72 0 0 -1.44 0.72 0zm6.49 0l0 -0.72 3.61 0 0 0.72 1.44 0 0 0.72 0.72 0 0 1.44 0.72 0 0 2.17 -0.72 0 0 0.72 -0.72 0 0 0.72 -2.16 0 0 1.44 -0.72 0 0 0.72 -1.44 0 0 -0.72 -0.73 0 0 -2.16 -0.72 0 0 -5.05 0.72 0zm2.89 1.44l-1.44 0 0 1.44 0.72 0 0 0.73 1.44 0 0 -1.45 -0.72 0 0 -0.72zm6.49 -1.44l0 -0.72 1.44 0 0 0.72 0.72 0 0 2.16 -0.72 0 0 1.45 -0.72 0 0 1.44 1.44 0 0 0.72 0.72 0 0 1.44 -0.72 0 0 0.72 -3.6 0 0 -0.72 -0.72 0 0 -3.6 0.72 0 0 -2.17 0.72 0 0 -1.44 0.72 0zm7.21 0l0 -0.72 2.89 0 0 0.72 0.72 0 0 1.44 0.72 0 0 5.77 -0.72 0 0 0.72 -1.45 0 0 -0.72 -0.72 0 0 -0.72 -0.72 0 0 -0.72 -1.44 0 0 0.72 -0.72 0 0 0.72 -1.44 0 0 -0.72 -0.73 0 0 -2.16 0.73 0 0 -1.45 0.72 0 0 -1.44 0.72 0 0 -0.72 0.72 0 0 -0.72 0.72 0zm2.16 2.16l-1.44 0 0 0.72 -0.72 0 0 0.73 1.44 0 0 0.72 0.72 0 0 -2.17zm7.94 -2.16l0 -0.72 1.44 0 0 0.72 0.72 0 0 2.88 -0.72 0 0 1.45 -0.72 0 0 1.44 -0.72 0 0 1.44 -0.73 0 0 0.72 -1.44 0 0 -0.72 -0.72 0 0 -2.16 0.72 0 0 -0.72 -0.72 0 0 -0.72 -0.72 0 0 -0.73 -0.72 0 0 -0.72 -0.72 0 0 -1.44 0.72 0 0 -0.72 2.16 0 0 0.72 0.72 0 0 0.72 0.72 0 0 -1.44 0.73 0z"/>
    </g>
   </g>
   <path fill="none" fill-rule="nonzero" d="M262.94 6.67l0 -0.72 2.17 0 0 0.72 0.72 0 0 0.72 0.72 0 0 -0.72 0.72 0 0 -0.72 1.44 0 0 0.72 0.72 0 0 1.44 0.72 0 0 2.89 0.73 0 0 2.88 -0.73 0 0 0.72 -1.44 0 0 -0.72 -0.72 0 0 -3.6 -0.72 0 0 0.72 -1.44 0 0 -0.72 -0.72 0 0 -0.73 -0.72 0 0 2.17 0.72 0 0 2.16 -0.72 0 0 0.72 -2.17 0 0 -0.72 -0.72 0 0 -4.33 0.72 0 0 -2.88 0.72 0zm11.54 0l0 -0.72 2.17 0 0 0.72 1.44 0 0 0.72 0.72 0 0 1.44 0.72 0 0 3.61 -0.72 0 0 1.44 -1.44 0 0 0.72 -3.61 0 0 -0.72 -1.44 0 0 -1.44 -0.72 0 0 -3.61 0.72 0 0 -1.44 0.72 0 0 -0.72 1.44 0zm1.44 1.44l-1.44 0 0 0.72 -0.72 0 0 1.45 0.72 0 0 0.72 1.44 0 0 -0.72 0.73 0 0 -1.45 -0.73 0 0 -0.72zm6.49 -1.44l0 -0.72 4.33 0 0 0.72 0.72 0 0 1.44 -0.72 0 0 0.72 -2.88 0 0 0.72 2.16 0 0 1.45 -0.72 0 0 0.72 -2.17 0 0 0.72 3.61 0 0 1.44 -0.72 0 0 0.72 -5.05 0 0 -0.72 -0.72 0 0 -3.6 0.72 0 0 -2.17 0.72 0 0 -1.44 0.72 0zm6.5 0l0 -0.72 3.6 0 0 0.72 1.44 0 0 0.72 0.72 0 0 1.44 0.72 0 0 2.17 -0.72 0 0 0.72 -0.72 0 0 0.72 -2.16 0 0 1.44 -0.72 0 0 0.72 -1.44 0 0 -0.72 -0.72 0 0 -2.16 -0.73 0 0 -5.05 0.73 0zm2.88 1.44l-1.44 0 0 1.44 0.72 0 0 0.73 1.44 0 0 -1.45 -0.72 0 0 -0.72zm6.49 -1.44l0 -0.72 1.44 0 0 0.72 0.72 0 0 2.16 -0.72 0 0 1.45 -0.72 0 0 1.44 1.44 0 0 0.72 0.72 0 0 1.44 -0.72 0 0 0.72 -3.6 0 0 -0.72 -0.72 0 0 -3.6 0.72 0 0 -2.17 0.72 0 0 -1.44 0.72 0zm7.21 0l0 -0.72 2.89 0 0 0.72 0.72 0 0 1.44 0.72 0 0 5.77 -0.72 0 0 0.72 -1.45 0 0 -0.72 -0.72 0 0 -0.72 -0.72 0 0 -0.72 -1.44 0 0 0.72 -0.72 0 0 0.72 -1.44 0 0 -0.72 -0.72 0 0 -2.16 0.72 0 0 -1.45 0.72 0 0 -1.44 0.72 0 0 -0.72 0.72 0 0 -0.72 0.72 0zm2.16 2.16l-1.44 0 0 0.72 -0.72 0 0 0.73 1.44 0 0 0.72 0.72 0 0 -2.17zm7.94 -2.16l0 -0.72 1.44 0 0 0.72 0.72 0 0 2.88 -0.72 0 0 1.45 -0.72 0 0 1.44 -0.72 0 0 1.44 -0.72 0 0 0.72 -1.45 0 0 -0.72 -0.72 0 0 -2.16 0.72 0 0 -0.72 -0.72 0 0 -0.72 -0.72 0 0 -0.73 -0.72 0 0 -0.72 -0.72 0 0 -1.44 0.72 0 0 -0.72 2.16 0 0 0.72 0.72 0 0 0.72 0.73 0 0 -1.44 0.72 0z"/>
   <polygon fill="white" fill-rule="nonzero" points="83.1,1.89 83.1,18.66 82.4,18.66 82.4,1.89 "/>
   <rect fill="none" width="331" height="20.55"/>
   <polygon fill="white" fill-rule="nonzero" points="165.85,1.89 165.85,18.66 165.15,18.66 165.15,1.89 "/>
   <polygon fill="white" fill-rule="nonzero" points="248.6,1.89 248.6,18.66 247.9,18.66 247.9,1.89 "/>
  </g>
 </g>
</svg>
