<?xml version="1.0" encoding="UTF-8"?>
<!DOCTYPE svg PUBLIC "-//W3C//DTD SVG 1.1//EN" "http://www.w3.org/Graphics/SVG/1.1/DTD/svg11.dtd">
<!-- Creator: CorelDRAW 2020 (64-Bit) -->
<svg xmlns="http://www.w3.org/2000/svg" xml:space="preserve" width="470px" height="95px" version="1.1" shape-rendering="geometricPrecision" text-rendering="geometricPrecision" image-rendering="optimizeQuality" fill-rule="evenodd" clip-rule="evenodd"
viewBox="0 0 38.72 7.82"
 xmlns:xlink="http://www.w3.org/1999/xlink"
 xmlns:xodm="http://www.corel.com/coreldraw/odm/2003">
 <g id="Layer_x0020_1">
  <metadata id="CorelCorpID_0Corel-Layer"/>
  <polygon fill="#0A0A0A" points="1.96,0 2.93,0 2.93,0.98 3.91,0.98 3.91,1.96 4.89,1.96 4.89,0.98 5.87,0.98 5.87,0 6.84,0 6.84,0.98 6.84,1.96 6.84,2.93 6.84,3.91 6.84,4.89 6.84,5.87 6.84,6.84 5.87,6.84 5.87,7.82 4.89,7.82 4.89,6.84 3.91,6.84 3.91,5.87 4.89,5.87 4.89,4.89 5.87,4.89 5.87,3.91 5.87,2.93 5.87,1.96 4.89,1.96 4.89,2.93 3.91,2.93 3.91,1.96 2.93,1.96 2.93,2.93 2.93,3.91 2.93,4.89 2.93,5.87 2.93,6.84 1.96,6.84 1.96,7.82 0.98,7.82 0.98,6.84 0,6.84 0,5.87 0.98,5.87 0.98,4.89 1.96,4.89 1.96,3.91 1.96,2.93 1.96,1.96 1.96,0.98 "/>
  <path fill="#0A0A0A" fill-rule="nonzero" d="M8.79 6.46l-0.76 0 0 -0.37 -0.37 0 0 -0.76 -0.38 0 0 -2.65 0.38 0 0 -0.76 0.37 0 0 -0.38 0.76 0 0 -0.38 1.14 0 0 0.38 0.76 0 0 0.38 0.38 0 0 0.76 0.37 0 0 2.65 -0.37 0 0 0.76 -0.38 0 0 0.37 -0.76 0 0 0.38 -1.14 0 0 -0.38zm1.14 -0.37l0 -0.38 0.38 0 0 -0.38 0.38 0 0 -2.65 -0.38 0 0 -0.38 -0.38 0 0 -0.38 -1.14 0 0 0.38 -0.38 0 0 0.38 -0.38 0 0 2.65 0.38 0 0 0.38 0.38 0 0 0.38 1.14 0zm3.41 0.37l-0.76 0 0 -0.37 -0.38 0 0 -0.76 -0.38 0 0 -2.65 0.38 0 0 -0.76 0.38 0 0 -0.38 0.76 0 0 -0.38 1.14 0 0 0.38 0.75 0 0 0.38 0.38 0 0 0.76 0.38 0 0 1.51 -3.41 0 0 1.14 0.38 0 0 0.38 0.38 0 0 0.38 1.51 0 0 -0.38 0.38 0 0 -0.38 0.38 0 0 0.38 0.38 0 0 0.38 -0.38 0 0 0.37 -0.76 0 0 0.38 -1.51 0 0 -0.38zm1.89 -3.03l0 -0.75 -0.38 0 0 -0.38 -0.37 0 0 -0.38 -1.14 0 0 0.38 -0.38 0 0 0.38 -0.38 0 0 0.75 2.65 0zm3.03 3.03l-0.75 0 0 -0.37 -0.38 0 0 -0.38 -0.38 0 0 -0.76 -0.38 0 0 -1.89 0.38 0 0 -0.76 0.38 0 0 -0.38 0.38 0 0 -0.38 0.75 0 0 -0.38 1.14 0 0 0.38 0.76 0 0 0.38 0.38 0 0 0.38 -0.38 0 0 0.38 -0.38 0 0 -0.38 -0.38 0 0 -0.38 -1.14 0 0 0.38 -0.38 0 0 0.38 -0.37 0 0 0.38 -0.38 0 0 1.89 0.38 0 0 0.38 0.37 0 0 0.38 0.38 0 0 0.38 1.14 0 0 -0.38 0.38 0 0 -0.38 0.38 0 0 0.38 0.38 0 0 0.38 -0.38 0 0 0.37 -0.76 0 0 0.38 -1.14 0 0 -0.38zm2.66 -6.46l0.75 0 0 1.54 0.76 0 0 -0.38 1.52 0 0 0.38 0.75 0 0 0.38 0.38 0 0 4.92 -0.75 0 0 -4.54 -0.38 0 0 -0.38 -1.52 0 0 0.38 -0.38 0 0 0.38 -0.38 0 0 4.16 -0.75 0 0 -6.84zm6.06 6.46l-0.76 0 0 -0.37 -0.38 0 0 -0.76 -0.38 0 0 -2.65 0.38 0 0 -0.76 0.38 0 0 -0.38 0.76 0 0 -0.38 1.13 0 0 0.38 0.76 0 0 0.38 0.38 0 0 0.76 0.38 0 0 2.65 -0.38 0 0 0.76 -0.38 0 0 0.37 -0.76 0 0 0.38 -1.13 0 0 -0.38zm1.13 -0.37l0 -0.38 0.38 0 0 -0.38 0.38 0 0 -2.65 -0.38 0 0 -0.38 -0.38 0 0 -0.38 -1.13 0 0 0.38 -0.38 0 0 0.38 -0.38 0 0 2.65 0.38 0 0 0.38 0.38 0 0 0.38 1.13 0zm1.9 -4.93l0.76 0 0 0.76 0.75 0 0 -0.38 0.76 0 0 -0.38 1.9 0 0 0.76 -1.9 0 0 0.38 -0.76 0 0 0.38 -0.38 0 0 0.38 -0.37 0 0 3.78 -0.76 0 0 -5.68zm6.06 5.3l-0.76 0 0 -0.37 -0.38 0 0 -0.76 -0.38 0 0 -2.65 0.38 0 0 -0.76 0.38 0 0 -0.38 0.76 0 0 -0.38 1.14 0 0 0.38 0.75 0 0 -1.54 0.76 0 0 6.84 -0.76 0 0 -0.38 -0.75 0 0 0.38 -1.14 0 0 -0.38zm1.14 -0.37l0 -0.38 0.37 0 0 -0.38 0.38 0 0 -2.65 -0.38 0 0 -0.38 -0.37 0 0 -0.38 -1.14 0 0 0.38 -0.38 0 0 0.38 -0.38 0 0 2.65 0.38 0 0 0.38 0.38 0 0 0.38 1.14 0z"/>
 </g>
</svg>
