<?xml version="1.0" encoding="UTF-8"?>
<!DOCTYPE svg PUBLIC "-//W3C//DTD SVG 1.1//EN" "http://www.w3.org/Graphics/SVG/1.1/DTD/svg11.dtd">
<!-- Creator: CorelDRAW 2020 (64-Bit) -->
<svg xmlns="http://www.w3.org/2000/svg" xml:space="preserve" width="535px" height="71px" version="1.1" shape-rendering="geometricPrecision" text-rendering="geometricPrecision" image-rendering="optimizeQuality" fill-rule="evenodd" clip-rule="evenodd"
viewBox="0 0 941.79 124.2"
 xmlns:xlink="http://www.w3.org/1999/xlink"
 xmlns:xodm="http://www.corel.com/coreldraw/odm/2003">
 <g id="Layer_x0020_1">
  <metadata id="CorelCorpID_0Corel-Layer"/>
  <path fill="#440079" fill-rule="nonzero" d="M124.17 0l-20.73 0 0 10.38 -10.38 0 0 20.76 -10.38 0 0 10.26 -10.2 0 0 -10.26 -10.38 0 0 -20.76 -10.38 0 0 -10.38 -41.34 0 0 10.38 20.76 0 0 10.38 -10.38 0 0 10.38 -10.38 0 0 -20.76 -10.38 0 0 103.47 10.38 0 0 10.35 41.34 0 0 -10.35 10.38 0 0 -41.4 10.38 0 0 10.35 10.2 0 0 -10.35 10.38 0 0 41.4 10.38 0 0 10.35 20.73 0 0 -10.35 10.35 0 0 -103.47 -10.35 0 0 -10.38zm93.21 62.1l10.38 0 0 -10.38 -10.38 0 0 10.38zm175.88 -62.1l-103.44 0 0 10.38 20.76 0 0 10.38 -10.38 0 0 10.38 -10.38 0 0 -20.76 -10.38 0 0 103.47 10.38 0 0 10.35 103.44 0 0 -10.35 10.35 0 0 -20.61 -10.35 0 0 -10.38 -51.72 0 0 -10.38 51.72 0 0 -10.38 10.35 0 0 -10.2 -10.35 0 0 -10.38 -51.72 0 0 -10.38 51.72 0 0 -10.38 10.35 0 0 -10.38 -10.35 0 0 -10.38zm-134.54 10.38l-10.35 0 0 -10.38 -82.72 0 0 10.38 10.3 0 0 10.38 -10.3 0 0 10.38 -10.37 0 0 -10.38 -10.38 0 0 82.74 10.38 0 0 10.35 10.37 0 0 10.35 82.72 0 0 -10.35 10.35 0 0 -10.35 10.34 0 0 -82.74 -10.34 0 0 -10.38zm-20.76 72.48l-30.96 0 0 -51.72 30.96 0 0 51.72z"/>
  <path fill="#9103ff" fill-rule="nonzero" d="M527.81 20.76l-10.35 0 0 -10.38 -10.41 0 0 -10.38 -82.68 0 0 10.38 20.76 0 0 10.38 -10.38 0 0 10.38 -10.38 0 0 -20.76 -10.38 0 0 103.47 10.38 0 0 10.35 93.09 0 0 -10.35 10.35 0 0 -10.35 10.35 0 0 -72.36 -10.35 0 0 -10.38zm93.02 93.09l10.39 0 0 -10.38 -10.39 0 0 10.38zm-134.36 -41.55l10.38 0 0 10.56 -20.76 0 0 -51.72 20.76 0 0 10.2 10.2 0 0 30.96 -10.2 0 0 -10.38 -10.38 0 0 10.38zm331.15 -61.92l10.38 0 0 10.38 -10.37 0 0 93.09 10.37 0 0 10.35 41.35 0 0 -10.35 10.37 0 0 -41.4 30.97 0 0 41.4 10.38 0 0 10.35 10.37 0 0 -10.35 10.35 0 0 -93.09 -10.35 0 0 -10.38 -10.37 0 0 -10.38 -82.69 0 0 10.38 -10.38 0 0 -10.38 -10.38 0 0 10.38zm10.38 10.38l10.38 0 0 10.38 -10.38 0 0 -10.38zm10.39 0l0 -10.38 10.28 0 0 10.38 -10.28 0zm72.3 20.76l-30.97 0 0 -10.38 30.97 0 0 10.38zm-113.79 -41.52l-103.44 0 0 10.38 20.76 0 0 10.38 -10.38 0 0 10.38 -10.38 0 0 10.26 20.76 0 0 72.45 10.26 0 0 10.35 41.4 0 0 -10.35 10.32 0 0 -72.45 20.7 0 0 -10.26 10.35 0 0 -20.76 -10.35 0 0 -10.38zm-103.44 10.38l-10.38 0 0 20.76 10.38 0 0 -20.76zm-31.11 0l-10.38 0 0 -10.38 -82.68 0 0 10.38 10.29 0 0 10.38 -10.29 0 0 10.38 -10.38 0 0 -10.38 -10.38 0 0 93.09 10.38 0 0 10.35 41.34 0 0 -10.35 10.38 0 0 -41.4 30.97 0 0 41.4 10.37 0 0 10.35 10.38 0 0 -10.35 10.35 0 0 -93.09 -10.35 0 0 -10.38zm-20.75 31.14l-30.97 0 0 -10.38 30.97 0 0 10.38z"/>
 </g>
</svg>
