<?xml version="1.0" encoding="UTF-8"?>
<!DOCTYPE svg PUBLIC "-//W3C//DTD SVG 1.1//EN" "http://www.w3.org/Graphics/SVG/1.1/DTD/svg11.dtd">
<!-- Creator: CorelDRAW 2020 (64-Bit) -->
<svg xmlns="http://www.w3.org/2000/svg" xml:space="preserve" width="535px" height="82px" version="1.1" shape-rendering="geometricPrecision" text-rendering="geometricPrecision" image-rendering="optimizeQuality" fill-rule="evenodd" clip-rule="evenodd"
viewBox="0 0 535 82.31"
 xmlns:xlink="http://www.w3.org/1999/xlink"
 xmlns:xodm="http://www.corel.com/coreldraw/odm/2003">
 <defs>
   <clipPath id="id0" clip-rule="nonzero">
    <path d="M13.72 6.85l0 -6.85 20.58 0 0 6.85 6.85 0 0 6.87 6.87 0 0 -6.87 6.85 0 0 -6.85 13.72 0 0 6.85 6.86 0 0 13.72 6.86 0 0 27.44 6.86 0 0 27.44 -6.86 0 0 6.86 -13.72 0 0 -6.86 -6.85 0 0 -34.3 -6.87 0 0 6.86 -13.72 0 0 -6.86 -6.85 0 0 -6.86 -6.86 0 0 20.58 6.86 0 0 20.58 -6.86 0 0 6.86 -20.58 0 0 -6.86 -6.86 0 0 -41.16 6.86 0 0 -27.44 6.86 0zm109.74 0l0 -6.85 20.58 0 0 6.85 13.72 0 0 6.87 6.85 0 0 13.72 6.87 0 0 34.3 -6.87 0 0 13.71 -13.72 0 0 6.86 -34.28 0 0 -6.86 -13.72 0 0 -13.71 -6.87 0 0 -34.3 6.87 0 0 -13.72 6.85 0 0 -6.87 13.72 0zm13.72 13.72l-13.72 0 0 6.87 -6.85 0 0 13.71 6.85 0 0 6.86 13.72 0 0 -6.86 6.86 0 0 -13.71 -6.86 0 0 -6.87zm61.73 -13.72l0 -6.85 41.15 0 0 6.85 6.86 0 0 13.72 -6.86 0 0 6.87 -27.43 0 0 6.85 20.57 0 0 13.72 -6.85 0 0 6.86 -20.59 0 0 6.87 34.3 0 0 13.71 -6.86 0 0 6.86 -48.01 0 0 -6.86 -6.86 0 0 -34.3 6.86 0 0 -20.58 6.86 0 0 -13.72 6.86 0zm61.74 0l0 -6.85 34.29 0 0 6.85 13.71 0 0 6.87 6.87 0 0 13.72 6.85 0 0 20.57 -6.85 0 0 6.86 -6.87 0 0 6.87 -20.57 0 0 13.71 -6.86 0 0 6.86 -13.72 0 0 -6.86 -6.85 0 0 -20.58 -6.87 0 0 -48.02 6.87 0zm27.43 13.72l-13.71 0 0 13.72 6.85 0 0 6.86 13.72 0 0 -13.71 -6.86 0 0 -6.87zm61.74 -13.72l0 -6.85 13.72 0 0 6.85 6.85 0 0 20.59 -6.85 0 0 13.71 -6.87 0 0 13.72 13.72 0 0 6.87 6.86 0 0 13.71 -6.86 0 0 6.86 -34.29 0 0 -6.86 -6.86 0 0 -34.3 6.86 0 0 -20.58 6.85 0 0 -13.72 6.87 0zm68.59 0l0 -6.85 27.43 0 0 6.85 6.85 0 0 13.72 6.87 0 0 54.88 -6.87 0 0 6.86 -13.71 0 0 -6.86 -6.86 0 0 -6.86 -6.86 0 0 -6.85 -13.72 0 0 6.85 -6.85 0 0 6.86 -13.72 0 0 -6.86 -6.86 0 0 -20.58 6.86 0 0 -13.72 6.85 0 0 -13.72 6.87 0 0 -6.85 6.85 0 0 -6.87 6.87 0zm20.57 20.59l-13.72 0 0 6.85 -6.85 0 0 6.86 13.71 0 0 6.86 6.86 0 0 -20.57zm75.45 -20.59l0 -6.85 13.72 0 0 6.85 6.85 0 0 27.44 -6.85 0 0 13.72 -6.87 0 0 13.73 -6.85 0 0 13.71 -6.86 0 0 6.86 -13.72 0 0 -6.86 -6.85 0 0 -20.58 6.85 0 0 -6.86 -6.85 0 0 -6.86 -6.87 0 0 -6.86 -6.85 0 0 -6.85 -6.87 0 0 -13.72 6.87 0 0 -6.87 20.57 0 0 6.87 6.86 0 0 6.85 6.86 0 0 -13.72 6.86 0z"/>
   </clipPath>
 </defs>
 <g id="Layer_x0020_1">
  <metadata id="CorelCorpID_0Corel-Layer"/>
  <path fill="#B352FF" fill-rule="nonzero" d="M13.72 6.85l0 -6.85 20.58 0 0 6.85 6.85 0 0 6.87 6.87 0 0 -6.87 6.85 0 0 -6.85 13.72 0 0 6.85 6.86 0 0 13.72 6.86 0 0 27.44 6.86 0 0 27.44 -6.86 0 0 6.86 -13.72 0 0 -6.86 -6.85 0 0 -34.3 -6.87 0 0 6.86 -13.72 0 0 -6.86 -6.85 0 0 -6.86 -6.86 0 0 20.58 6.86 0 0 20.58 -6.86 0 0 6.86 -20.58 0 0 -6.86 -6.86 0 0 -41.16 6.86 0 0 -27.44 6.86 0zm109.74 0l0 -6.85 20.58 0 0 6.85 13.72 0 0 6.87 6.85 0 0 13.72 6.87 0 0 34.3 -6.87 0 0 13.71 -13.72 0 0 6.86 -34.28 0 0 -6.86 -13.72 0 0 -13.71 -6.87 0 0 -34.3 6.87 0 0 -13.72 6.85 0 0 -6.87 13.72 0zm13.72 13.72l-13.72 0 0 6.87 -6.85 0 0 13.71 6.85 0 0 6.86 13.72 0 0 -6.86 6.86 0 0 -13.71 -6.86 0 0 -6.87zm61.73 -13.72l0 -6.85 41.15 0 0 6.85 6.86 0 0 13.72 -6.86 0 0 6.87 -27.43 0 0 6.85 20.57 0 0 13.72 -6.85 0 0 6.86 -20.59 0 0 6.87 34.3 0 0 13.71 -6.86 0 0 6.86 -48.01 0 0 -6.86 -6.86 0 0 -34.3 6.86 0 0 -20.58 6.86 0 0 -13.72 6.86 0zm61.74 0l0 -6.85 34.29 0 0 6.85 13.71 0 0 6.87 6.87 0 0 13.72 6.85 0 0 20.57 -6.85 0 0 6.86 -6.87 0 0 6.87 -20.57 0 0 13.71 -6.86 0 0 6.86 -13.72 0 0 -6.86 -6.85 0 0 -20.58 -6.87 0 0 -48.02 6.87 0zm27.43 13.72l-13.71 0 0 13.72 6.85 0 0 6.86 13.72 0 0 -13.71 -6.86 0 0 -6.87zm61.74 -13.72l0 -6.85 13.72 0 0 6.85 6.85 0 0 20.59 -6.85 0 0 13.71 -6.87 0 0 13.72 13.72 0 0 6.87 6.86 0 0 13.71 -6.86 0 0 6.86 -34.29 0 0 -6.86 -6.86 0 0 -34.3 6.86 0 0 -20.58 6.85 0 0 -13.72 6.87 0zm68.59 0l0 -6.85 27.43 0 0 6.85 6.85 0 0 13.72 6.87 0 0 54.88 -6.87 0 0 6.86 -13.71 0 0 -6.86 -6.86 0 0 -6.86 -6.86 0 0 -6.85 -13.72 0 0 6.85 -6.85 0 0 6.86 -13.72 0 0 -6.86 -6.86 0 0 -20.58 6.86 0 0 -13.72 6.85 0 0 -13.72 6.87 0 0 -6.85 6.85 0 0 -6.87 6.87 0zm20.57 20.59l-13.72 0 0 6.85 -6.85 0 0 6.86 13.71 0 0 6.86 6.86 0 0 -20.57zm75.45 -20.59l0 -6.85 13.72 0 0 6.85 6.85 0 0 27.44 -6.85 0 0 13.72 -6.87 0 0 13.73 -6.85 0 0 13.71 -6.86 0 0 6.86 -13.72 0 0 -6.86 -6.85 0 0 -20.58 6.85 0 0 -6.86 -6.85 0 0 -6.86 -6.87 0 0 -6.86 -6.85 0 0 -6.85 -6.87 0 0 -13.72 6.87 0 0 -6.87 20.57 0 0 6.87 6.86 0 0 6.85 6.86 0 0 -13.72 6.86 0z"/>
  <g clip-path="url(#id0)">
   <g id="_2305028307024">
    <path id="1" fill="#C479FF" fill-rule="nonzero" d="M6.86 0l0 -6.85 20.59 0 0 6.85 6.85 0 0 6.86 6.86 0 0 -6.86 6.86 0 0 -6.85 13.72 0 0 6.85 6.86 0 0 13.72 6.85 0 0 27.43 6.87 0 0 27.45 -6.87 0 0 6.85 -13.71 0 0 -6.85 -6.86 0 0 -34.3 -6.86 0 0 6.85 -13.72 0 0 -6.85 -6.85 0 0 -6.86 -6.87 0 0 20.58 6.87 0 0 20.58 -6.87 0 0 6.85 -20.57 0 0 -6.85 -6.86 0 0 -41.16 6.86 0 0 -27.44 6.85 0zm109.75 0l0 -6.85 20.58 0 0 6.85 13.72 0 0 6.86 6.85 0 0 13.72 6.86 0 0 34.3 -6.86 0 0 13.72 -13.72 0 0 6.85 -34.29 0 0 -6.85 -13.72 0 0 -13.72 -6.86 0 0 -34.3 6.86 0 0 -13.72 6.86 0 0 -6.86 13.72 0zm13.71 13.72l-13.71 0 0 6.86 -6.86 0 0 13.72 6.86 0 0 6.85 13.71 0 0 -6.85 6.87 0 0 -13.72 -6.87 0 0 -6.86zm61.74 -13.72l0 -6.85 41.15 0 0 6.85 6.85 0 0 13.72 -6.85 0 0 6.86 -27.43 0 0 6.86 20.57 0 0 13.71 -6.86 0 0 6.87 -20.58 0 0 6.86 34.3 0 0 13.72 -6.86 0 0 6.85 -48.01 0 0 -6.85 -6.86 0 0 -34.3 6.86 0 0 -20.58 6.85 0 0 -13.72 6.87 0zm61.73 0l0 -6.85 34.29 0 0 6.85 13.72 0 0 6.86 6.87 0 0 13.72 6.85 0 0 20.57 -6.85 0 0 6.87 -6.87 0 0 6.86 -20.57 0 0 13.72 -6.87 0 0 6.85 -13.71 0 0 -6.85 -6.86 0 0 -20.58 -6.86 0 0 -48.02 6.86 0zm27.44 13.72l-13.72 0 0 13.72 6.85 0 0 6.86 13.72 0 0 -13.72 -6.85 0 0 -6.86zm61.74 -13.72l0 -6.85 13.71 0 0 6.85 6.86 0 0 20.58 -6.86 0 0 13.72 -6.86 0 0 13.72 13.72 0 0 6.86 6.86 0 0 13.72 -6.86 0 0 6.85 -34.29 0 0 -6.85 -6.87 0 0 -34.3 6.87 0 0 -20.58 6.85 0 0 -13.72 6.87 0zm68.58 0l0 -6.85 27.44 0 0 6.85 6.85 0 0 13.72 6.87 0 0 54.88 -6.87 0 0 6.85 -13.72 0 0 -6.85 -6.85 0 0 -6.86 -6.86 0 0 -6.86 -13.72 0 0 6.86 -6.85 0 0 6.86 -13.72 0 0 -6.86 -6.87 0 0 -20.59 6.87 0 0 -13.71 6.85 0 0 -13.72 6.87 0 0 -6.86 6.85 0 0 -6.86 6.86 0zm20.57 20.58l-13.71 0 0 6.86 -6.86 0 0 6.86 13.72 0 0 6.85 6.85 0 0 -20.57zm75.46 -20.58l0 -6.85 13.72 0 0 6.85 6.85 0 0 27.44 -6.85 0 0 13.71 -6.87 0 0 13.73 -6.85 0 0 13.72 -6.87 0 0 6.85 -13.72 0 0 -6.85 -6.85 0 0 -20.58 6.85 0 0 -6.87 -6.85 0 0 -6.85 -6.86 0 0 -6.86 -6.85 0 0 -6.86 -6.87 0 0 -13.72 6.87 0 0 -6.86 20.56 0 0 6.86 6.87 0 0 6.86 6.85 0 0 -13.72 6.87 0z"/>
   </g>
  </g>
  <path fill="none" fill-rule="nonzero" d="M13.72 6.85l0 -6.85 20.58 0 0 6.85 6.85 0 0 6.87 6.87 0 0 -6.87 6.85 0 0 -6.85 13.72 0 0 6.85 6.86 0 0 13.72 6.86 0 0 27.44 6.86 0 0 27.44 -6.86 0 0 6.86 -13.72 0 0 -6.86 -6.85 0 0 -34.3 -6.87 0 0 6.86 -13.72 0 0 -6.86 -6.85 0 0 -6.86 -6.86 0 0 20.58 6.86 0 0 20.58 -6.86 0 0 6.86 -20.58 0 0 -6.86 -6.86 0 0 -41.16 6.86 0 0 -27.44 6.86 0zm109.74 0l0 -6.85 20.58 0 0 6.85 13.72 0 0 6.87 6.85 0 0 13.72 6.87 0 0 34.3 -6.87 0 0 13.71 -13.72 0 0 6.86 -34.28 0 0 -6.86 -13.72 0 0 -13.71 -6.87 0 0 -34.3 6.87 0 0 -13.72 6.85 0 0 -6.87 13.72 0zm13.72 13.72l-13.72 0 0 6.87 -6.85 0 0 13.71 6.85 0 0 6.86 13.72 0 0 -6.86 6.86 0 0 -13.71 -6.86 0 0 -6.87zm61.73 -13.72l0 -6.85 41.15 0 0 6.85 6.86 0 0 13.72 -6.86 0 0 6.87 -27.43 0 0 6.85 20.57 0 0 13.72 -6.85 0 0 6.86 -20.59 0 0 6.87 34.3 0 0 13.71 -6.86 0 0 6.86 -48.01 0 0 -6.86 -6.86 0 0 -34.3 6.86 0 0 -20.58 6.86 0 0 -13.72 6.86 0zm61.74 0l0 -6.85 34.29 0 0 6.85 13.71 0 0 6.87 6.87 0 0 13.72 6.85 0 0 20.57 -6.85 0 0 6.86 -6.87 0 0 6.87 -20.57 0 0 13.71 -6.86 0 0 6.86 -13.72 0 0 -6.86 -6.85 0 0 -20.58 -6.87 0 0 -48.02 6.87 0zm27.43 13.72l-13.71 0 0 13.72 6.85 0 0 6.86 13.72 0 0 -13.71 -6.86 0 0 -6.87zm61.74 -13.72l0 -6.85 13.72 0 0 6.85 6.85 0 0 20.59 -6.85 0 0 13.71 -6.87 0 0 13.72 13.72 0 0 6.87 6.86 0 0 13.71 -6.86 0 0 6.86 -34.29 0 0 -6.86 -6.86 0 0 -34.3 6.86 0 0 -20.58 6.85 0 0 -13.72 6.87 0zm68.59 0l0 -6.85 27.43 0 0 6.85 6.85 0 0 13.72 6.87 0 0 54.88 -6.87 0 0 6.86 -13.71 0 0 -6.86 -6.86 0 0 -6.86 -6.86 0 0 -6.85 -13.72 0 0 6.85 -6.85 0 0 6.86 -13.72 0 0 -6.86 -6.86 0 0 -20.58 6.86 0 0 -13.72 6.85 0 0 -13.72 6.87 0 0 -6.85 6.85 0 0 -6.87 6.87 0zm20.57 20.59l-13.72 0 0 6.85 -6.85 0 0 6.86 13.71 0 0 6.86 6.86 0 0 -20.57zm75.45 -20.59l0 -6.85 13.72 0 0 6.85 6.85 0 0 27.44 -6.85 0 0 13.72 -6.87 0 0 13.73 -6.85 0 0 13.71 -6.86 0 0 6.86 -13.72 0 0 -6.86 -6.85 0 0 -20.58 6.85 0 0 -6.86 -6.85 0 0 -6.86 -6.87 0 0 -6.86 -6.85 0 0 -6.85 -6.87 0 0 -13.72 6.87 0 0 -6.87 20.57 0 0 6.87 6.86 0 0 6.85 6.86 0 0 -13.72 6.86 0z"/>
 </g>
</svg>
