<?xml version="1.0" encoding="UTF-8"?>
<!DOCTYPE svg PUBLIC "-//W3C//DTD SVG 1.1//EN" "http://www.w3.org/Graphics/SVG/1.1/DTD/svg11.dtd">
<!-- Creator: CorelDRAW 2020 (64-Bit) -->
<svg xmlns="http://www.w3.org/2000/svg" xml:space="preserve" width="221px" height="221px" version="1.1" shape-rendering="geometricPrecision" text-rendering="geometricPrecision" image-rendering="optimizeQuality" fill-rule="evenodd" clip-rule="evenodd"
viewBox="0 0 221 221"
 xmlns:xlink="http://www.w3.org/1999/xlink"
 xmlns:xodm="http://www.corel.com/coreldraw/odm/2003">
 <g id="Layer_x0020_1">
  <metadata id="CorelCorpID_0Corel-Layer"/>
  <path fill="#222222" d="M221 221l-13 0 -13 0 -13 0 -13 0 -13 0 -13 0 -13 0 -13 0 -13 0 -13 0 -13 0 -13 0 -13 0 -13 0 -13 0 -13 0 -13 0 0 -13 13 0 0 -13 13 0 0 -13 13 0 0 -13 13 0 0 -13 13 0 0 -13 13 0 0 -13 13 0 0 -13 13 0 0 -13 13 0 0 -13 13 0 0 -13 13 0 0 -13 13 0 0 -13 13 0 0 -13 13 0 0 -13 13 0 0 -13 13 0 0 -13 13 0 0 13 0 13 0 13 0 13 0 13 0 13 0 13 0 13 0 13 0 13 0 13 0 13 0 13 0 13 0 13 0 13 0 13zm-13 -13l0 -13 0 -13 0 -13 0 -13 0 -13 0 -13 0 -13 0 -13 0 -13 0 -13 0 -13 0 -13 0 -13 0 -13 -13 0 0 13 -13 0 0 13 -13 0 0 13 -13 0 0 13 -13 0 0 13 -13 0 0 13 -13 0 0 13 -13 0 0 13 -13 0 0 13 -13 0 0 13 -13 0 0 13 -13 0 0 13 -13 0 0 13 -13 0 0 13 13 0 13 0 13 0 13 0 13 0 13 0 13 0 13 0 13 0 13 0 13 0 13 0 13 0 13 0z"/>
  <polygon fill="#671C9C" points="208,208 208,195 208,182 208,169 208,156 208,143 208,130 208,117 208,104 208,91 208,78 208,65 208,52 208,39 208,26 195,26 195,39 182,39 182,52 169,52 169,65 156,65 156,78 143,78 143,91 130,91 130,104 117,104 117,117 104,117 104,130 91,130 91,143 78,143 78,156 65,156 65,169 52,169 52,182 39,182 39,195 26,195 26,208 39,208 52,208 65,208 78,208 91,208 104,208 117,208 130,208 143,208 156,208 169,208 182,208 195,208 "/>
  <rect fill="#CE38FF" x="26" y="195" width="13" height="13"/>
  <rect fill="#CE38FF" x="39" y="182" width="13" height="13"/>
  <rect fill="#CE38FF" x="52" y="169" width="13" height="13"/>
  <rect fill="#CE38FF" x="65" y="156" width="13" height="13"/>
  <rect fill="#CE38FF" x="78" y="143" width="13" height="13"/>
  <rect fill="#CE38FF" x="91" y="130.01" width="13" height="13"/>
  <rect fill="#CE38FF" x="104" y="117.01" width="13" height="13"/>
  <rect fill="#CE38FF" x="117" y="104.01" width="13" height="13"/>
  <rect fill="#CE38FF" x="130" y="91.01" width="13" height="13"/>
  <rect fill="#CE38FF" x="143" y="78.01" width="13" height="13"/>
  <rect fill="#CE38FF" x="156" y="65.01" width="13" height="13"/>
  <rect fill="#CE38FF" x="169" y="52.01" width="13" height="13"/>
  <rect fill="#CE38FF" x="182" y="39.01" width="13" height="13"/>
  <rect fill="#CE38FF" x="195" y="26.01" width="13" height="13"/>
  <rect fill="#3E1075" x="195" y="52.01" width="13" height="13"/>
  <rect fill="#3E1075" x="195" y="65.01" width="13" height="13"/>
  <rect fill="#3E1075" x="195" y="91.01" width="13" height="13"/>
  <rect fill="#3E1075" x="195" y="117.01" width="13" height="13"/>
  <rect fill="#3E1075" x="195" y="143" width="13" height="13"/>
  <rect fill="#3E1075" x="195" y="169" width="13" height="13"/>
  <rect fill="#3E1075" x="195" y="78.01" width="13" height="13"/>
  <rect fill="#3E1075" x="195" y="104.01" width="13" height="13"/>
  <rect fill="#3E1075" x="195" y="130.01" width="13" height="13"/>
  <rect fill="#3E1075" x="195" y="156" width="13" height="13"/>
  <rect fill="#3E1075" x="195" y="182" width="13" height="13"/>
  <rect fill="#3E1075" x="195" y="195" width="13" height="13"/>
  <rect fill="#3E1075" x="182" y="195" width="13" height="13"/>
  <rect fill="#3E1075" x="169" y="195" width="13" height="13"/>
  <rect fill="#3E1075" x="156" y="195" width="13" height="13"/>
  <rect fill="#3E1075" x="143" y="195" width="13" height="13"/>
  <rect fill="#3E1075" x="130" y="195" width="13" height="13"/>
  <rect fill="#3E1075" x="117" y="195" width="13" height="13"/>
  <rect fill="#3E1075" x="104" y="195" width="13" height="13"/>
  <rect fill="#3E1075" x="91" y="195" width="13" height="13"/>
  <rect fill="#3E1075" x="78" y="195" width="13" height="13"/>
  <rect fill="#3E1075" x="65" y="195" width="13" height="13"/>
  <rect fill="#3E1075" x="52" y="195" width="13" height="13"/>
  <polygon fill="#521688" fill-opacity="0.501961" points="39,195 52,195 52,208 39,208 "/>
  <polygon fill="#521688" fill-opacity="0.501961" points="195,39.01 208,39.01 208,52.01 195,52.01 "/>
 </g>
</svg>
