<?xml version="1.0" encoding="iso-8859-1"?>
<!-- Uploaded to: SVG Repo, www.svgrepo.com, Generator: SVG Repo Mixer Tools -->
<svg fill="#ffffff" height="800px" width="800px" version="1.1" id="Layer_1" xmlns="http://www.w3.org/2000/svg" xmlns:xlink="http://www.w3.org/1999/xlink" 
	 viewBox="0 0 511.999 511.999" xml:space="preserve">
<g>
	<g>
		<path d="M168.178,343.823c-9.561-9.561-18.078-19.779-25.552-30.507L0,455.94l56.06,56.059l142.605-142.605
			C187.88,361.856,177.675,353.32,168.178,343.823z"/>
	</g>
</g>
<g>
	<g>
		<path d="M457.818,54.181c-72.242-72.241-189.368-72.241-261.61,0c-72.241,72.242-72.241,189.368,0,261.61
			c72.242,72.242,189.368,72.241,261.61,0S530.06,126.424,457.818,54.181z M387.743,124.256
			C371.523,108.035,349.955,99.1,327.012,99.1c-22.94,0-44.509,8.934-60.731,25.156l-28.029-28.029
			c23.71-23.709,55.232-36.766,88.76-36.766c33.53,0,65.052,13.057,88.76,36.766L387.743,124.256z"/>
	</g>
</g>
</svg>