<?xml version="1.0" encoding="UTF-8"?>
<!DOCTYPE svg PUBLIC "-//W3C//DTD SVG 1.1//EN" "http://www.w3.org/Graphics/SVG/1.1/DTD/svg11.dtd">
<!-- Creator: CorelDRAW 2020 (64-Bit) -->
<svg xmlns="http://www.w3.org/2000/svg" xml:space="preserve" width="500px" height="225px" version="1.1" shape-rendering="geometricPrecision" text-rendering="geometricPrecision" image-rendering="optimizeQuality" fill-rule="evenodd" clip-rule="evenodd"
viewBox="0 0 100.67 45.3"
 xmlns:xlink="http://www.w3.org/1999/xlink"
 xmlns:xodm="http://www.corel.com/coreldraw/odm/2003">
 <style>
 .lag {
    animation-name: movelag;
    animation-duration: 3s;
    animation-timing-function: ease-in-out;
    animation-iteration-count: infinite;
}

@keyframes movelag {
    0% {
        transform: translateY(0px);
    }
    49% {
        transform: translateY(0px);
    }
    50% {
        transform: translateY(3px);
    }
    99% {
        transform: translateY(3px);
    }
    100% {
        transform: translateY(0px);
    }
}
 .klip1 {
    animation-name: klip;
    animation-duration: 3.5s;
    animation-timing-function: ease-in-out;
    animation-iteration-count: infinite;
}
 .klip2 {
    animation-name: klip;
    animation-duration: 4.5s;
    animation-timing-function: ease-in-out;
    animation-iteration-count: infinite;
}

@keyframes klip {
    0% {
        opacity:0;
    }
    49% {
        opacity:0;
    }
    50% {
        opacity:1;
    }
    99% {
        opacity:1;
    }
    100% {
        opacity:0;
    }
}
</style>
 <defs>
   <clipPath id="id0">
    <path d="M98.66 32.22l0 1 0 1.01 0 1.01 0 1 0 1.01 0 1.01 0 1 -1.01 0 0 1.01 0 1.01 -1.01 0 0 1 -1 0 -1.01 0 0 1.01 -1.01 0 -1 0 -1.01 0 -1.01 0 -1 0 -1.01 0 -1.01 0 -75.5 0 -1.01 0 -1 0 -1.01 0 -1.01 0 -1 0 -1.01 0 -1.01 0 0 -1.01 -1 0 -1.01 0 0 -1 -1.01 0 0 -1.01 0 -1.01 -1 0 0 -1 0 -1.01 0 -1.01 0 -1 0 -1.01 0 -1.01 0 -1 0 -16.11 0 -1.01 0 -1.01 0 -1 0 -1.01 0 -1.01 0 -1 0 -1.01 1 0 0 -1.01 0 -1 1.01 0 0 -1.01 1.01 0 1 0 0 -1.01 1.01 0 1.01 0 1 0 1.01 0 1.01 0 1 0 1.01 0 75.5 0 1.01 0 1.01 0 1 0 1.01 0 1.01 0 1 0 1.01 0 0 1.01 1.01 0 1 0 0 1.01 1.01 0 0 1 0 1.01 1.01 0 0 1.01 0 1 0 1.01 0 1.01 0 1 0 1.01 0 1.01 0 16.11z"/>
   </clipPath>
 </defs>
 <g id="Layer_x0020_1">
  <metadata id="CorelCorpID_0Corel-Layer"/>
  <polygon fill="#2E0052" points="4.03,43.29 5.03,43.29 5.03,44.29 6.04,44.29 7.05,44.29 8.05,44.29 9.06,44.29 10.07,44.29 11.07,44.29 12.08,44.29 87.58,44.29 88.59,44.29 89.6,44.29 90.6,44.29 91.61,44.29 92.62,44.29 93.62,44.29 94.63,44.29 94.63,43.29 95.64,43.29 96.64,43.29 96.64,42.28 97.65,42.28 97.65,41.28 98.66,41.28 98.66,40.27 98.66,39.26 99.66,39.26 99.66,38.26 99.66,37.25 99.66,36.24 99.66,35.24 99.66,34.23 99.66,33.22 99.66,32.22 99.66,16.11 99.66,15.1 99.66,14.09 99.66,13.09 99.66,12.08 99.66,11.07 99.66,10.07 99.66,9.06 98.66,9.06 98.66,8.05 98.66,7.05 97.65,7.05 97.65,6.04 96.64,6.04 96.64,5.03 95.64,5.03 94.63,5.03 94.63,4.03 93.62,4.03 92.62,4.03 91.61,4.03 90.6,4.03 89.6,4.03 88.59,4.03 87.58,4.03 12.08,4.03 11.07,4.03 10.07,4.03 9.06,4.03 8.05,4.03 7.05,4.03 6.04,4.03 5.03,4.03 5.03,5.03 4.03,5.03 3.02,5.03 3.02,6.04 2.01,6.04 2.01,7.05 1.01,7.05 1.01,8.05 1.01,9.06 0,9.06 0,10.07 0,11.07 0,12.08 0,13.09 0,14.09 0,15.1 0,16.11 0,32.22 0,33.22 0,34.23 0,35.24 0,36.24 0,37.25 0,38.26 0,39.26 1.01,39.26 1.01,40.27 1.01,41.28 2.01,41.28 2.01,42.28 3.02,42.28 3.02,43.29 "/>
  <polygon fill="#2E0052" points="5.03,44.29 6.04,44.29 6.04,45.3 7.05,45.3 8.05,45.3 9.06,45.3 10.07,45.3 11.07,45.3 12.08,45.3 13.09,45.3 88.59,45.3 89.6,45.3 90.6,45.3 91.61,45.3 92.62,45.3 93.62,45.3 94.63,45.3 95.64,45.3 95.64,44.29 96.64,44.29 97.65,44.29 97.65,43.29 98.66,43.29 98.66,42.28 99.66,42.28 99.66,41.28 99.66,40.27 100.67,40.27 100.67,39.26 100.67,38.26 100.67,37.25 100.67,36.24 100.67,35.24 100.67,34.23 100.67,33.22 100.67,17.11 100.67,16.11 100.67,15.1 100.67,14.09 100.67,13.09 100.67,12.08 100.67,11.07 100.67,10.07 99.66,10.07 99.66,9.06 99.66,8.05 98.66,8.05 98.66,7.05 97.65,7.05 97.65,6.04 96.64,6.04 95.64,6.04 95.64,5.03 94.63,5.03 93.62,5.03 92.62,5.03 91.61,5.03 90.6,5.03 89.6,5.03 88.59,5.03 13.09,5.03 12.08,5.03 11.07,5.03 10.07,5.03 9.06,5.03 8.05,5.03 7.05,5.03 6.04,5.03 6.04,6.04 5.03,6.04 4.03,6.04 4.03,7.05 3.02,7.05 3.02,8.05 2.01,8.05 2.01,9.06 2.01,10.07 1.01,10.07 1.01,11.07 1.01,12.08 1.01,13.09 1.01,14.09 1.01,15.1 1.01,16.11 1.01,17.11 1.01,33.22 1.01,34.23 1.01,35.24 1.01,36.24 1.01,37.25 1.01,38.26 1.01,39.26 1.01,40.27 2.01,40.27 2.01,41.28 2.01,42.28 3.02,42.28 3.02,43.29 4.03,43.29 4.03,44.29 "/>
  <polygon fill="#C479FF" points="98.66,32.22 98.66,33.22 98.66,34.23 98.66,35.24 98.66,36.24 98.66,37.25 98.66,38.26 98.66,39.26 97.65,39.26 97.65,40.27 97.65,41.28 96.64,41.28 96.64,42.28 95.64,42.28 94.63,42.28 94.63,43.29 93.62,43.29 92.62,43.29 91.61,43.29 90.6,43.29 89.6,43.29 88.59,43.29 87.58,43.29 12.08,43.29 11.07,43.29 10.07,43.29 9.06,43.29 8.05,43.29 7.05,43.29 6.04,43.29 5.03,43.29 5.03,42.28 4.03,42.28 3.02,42.28 3.02,41.28 2.01,41.28 2.01,40.27 2.01,39.26 1.01,39.26 1.01,38.26 1.01,37.25 1.01,36.24 1.01,35.24 1.01,34.23 1.01,33.22 1.01,32.22 1.01,16.11 1.01,15.1 1.01,14.09 1.01,13.09 1.01,12.08 1.01,11.07 1.01,10.07 1.01,9.06 2.01,9.06 2.01,8.05 2.01,7.05 3.02,7.05 3.02,6.04 4.03,6.04 5.03,6.04 5.03,5.03 6.04,5.03 7.05,5.03 8.05,5.03 9.06,5.03 10.07,5.03 11.07,5.03 12.08,5.03 87.58,5.03 88.59,5.03 89.6,5.03 90.6,5.03 91.61,5.03 92.62,5.03 93.62,5.03 94.63,5.03 94.63,6.04 95.64,6.04 96.64,6.04 96.64,7.05 97.65,7.05 97.65,8.05 97.65,9.06 98.66,9.06 98.66,10.07 98.66,11.07 98.66,12.08 98.66,13.09 98.66,14.09 98.66,15.1 98.66,16.11 "/>
  <g clip-path="url(#id0)">
   <g id="_2304471170672">
    <polygon id="1" fill="#A22BFF" points="5.03,43.29 6.04,43.29 6.04,44.29 7.05,44.29 8.05,44.29 9.06,44.29 10.07,44.29 11.07,44.29 12.08,44.29 13.09,44.29 86.58,44.29 87.58,44.29 88.59,44.29 89.6,44.29 90.6,44.29 91.61,44.29 92.62,44.29 93.62,44.29 93.62,43.29 94.63,43.29 95.64,43.29 95.64,42.28 96.64,42.28 96.64,41.28 97.65,41.28 97.65,40.27 97.65,39.26 98.66,39.26 98.66,38.26 98.66,37.25 98.66,36.24 98.66,35.24 98.66,34.23 98.66,33.22 98.66,32.22 98.66,16.11 98.66,15.1 98.66,14.09 98.66,13.09 98.66,12.08 98.66,11.07 98.66,10.07 98.66,9.06 97.65,9.06 97.65,8.05 97.65,7.05 96.64,7.05 96.64,6.04 95.64,6.04 95.64,5.03 94.63,5.03 93.62,5.03 93.62,4.03 92.62,4.03 91.61,4.03 90.6,4.03 89.6,4.03 88.59,4.03 87.58,4.03 86.58,4.03 13.09,4.03 12.08,4.03 11.07,4.03 10.07,4.03 9.06,4.03 8.05,4.03 7.05,4.03 6.04,4.03 6.04,5.03 5.03,5.03 4.03,5.03 4.03,6.04 3.02,6.04 3.02,7.05 2.01,7.05 2.01,8.05 2.01,9.06 1.01,9.06 1.01,10.07 1.01,11.07 1.01,12.08 1.01,13.09 1.01,14.09 1.01,15.1 1.01,16.11 1.01,32.22 1.01,33.22 1.01,34.23 1.01,35.24 1.01,36.24 1.01,37.25 1.01,38.26 1.01,39.26 2.01,39.26 2.01,40.27 2.01,41.28 3.02,41.28 3.02,42.28 4.03,42.28 4.03,43.29 "/>
    <polygon fill="#B352FF" points="4.03,41.28 5.03,41.28 5.03,42.28 6.04,42.28 7.05,42.28 8.05,42.28 9.06,42.28 10.07,42.28 11.07,42.28 12.08,42.28 85.57,42.28 86.58,42.28 87.58,42.28 88.59,42.28 89.6,42.28 90.6,42.28 91.61,42.28 92.62,42.28 92.62,41.28 93.62,41.28 94.63,41.28 94.63,40.27 95.64,40.27 95.64,39.26 96.64,39.26 96.64,38.26 96.64,37.25 97.65,37.25 97.65,36.24 97.65,35.24 97.65,34.23 97.65,33.22 97.65,32.22 97.65,31.21 97.65,30.2 97.65,14.09 97.65,13.09 97.65,12.08 97.65,11.07 97.65,10.07 97.65,9.06 97.65,8.05 97.65,7.05 96.64,7.05 96.64,6.04 96.64,5.03 95.64,5.03 95.64,4.03 94.63,4.03 94.63,3.02 93.62,3.02 92.62,3.02 92.62,2.01 91.61,2.01 90.6,2.01 89.6,2.01 88.59,2.01 87.58,2.01 86.58,2.01 85.57,2.01 12.08,2.01 11.07,2.01 10.07,2.01 9.06,2.01 8.05,2.01 7.05,2.01 6.04,2.01 5.03,2.01 5.03,3.02 4.03,3.02 3.02,3.02 3.02,4.03 2.01,4.03 2.01,5.03 1.01,5.03 1.01,6.04 1.01,7.05 0,7.05 0,8.05 0,9.06 0,10.07 0,11.07 0,12.08 0,13.09 0,14.09 0,30.2 0,31.21 0,32.22 0,33.22 0,34.23 0,35.24 0,36.24 0,37.25 1.01,37.25 1.01,38.26 1.01,39.26 2.01,39.26 2.01,40.27 3.02,40.27 3.02,41.28 "/>
    <polygon fill="#C479FF" points="3.02,40.27 4.03,40.27 4.03,41.28 5.03,41.28 6.04,41.28 7.05,41.28 8.05,41.28 9.06,41.28 10.07,41.28 11.07,41.28 84.56,41.28 85.57,41.28 86.58,41.28 87.58,41.28 88.59,41.28 89.6,41.28 90.6,41.28 91.61,41.28 91.61,40.27 92.62,40.27 93.62,40.27 93.62,39.26 94.63,39.26 94.63,38.26 95.64,38.26 95.64,37.25 95.64,36.24 96.64,36.24 96.64,35.24 96.64,34.23 96.64,33.22 96.64,32.22 96.64,31.21 96.64,30.2 96.64,29.2 96.64,13.09 96.64,12.08 96.64,11.07 96.64,10.07 96.64,9.06 96.64,8.05 96.64,7.05 96.64,6.04 95.64,6.04 95.64,5.03 95.64,4.03 94.63,4.03 94.63,3.02 93.62,3.02 93.62,2.01 92.62,2.01 91.61,2.01 91.61,1.01 90.6,1.01 89.6,1.01 88.59,1.01 87.58,1.01 86.58,1.01 85.57,1.01 84.56,1.01 11.07,1.01 10.07,1.01 9.06,1.01 8.05,1.01 7.05,1.01 6.04,1.01 5.03,1.01 4.03,1.01 4.03,2.01 3.02,2.01 2.01,2.01 2.01,3.02 1.01,3.02 1.01,4.03 0,4.03 0,5.03 0,6.04 -1.01,6.04 -1.01,7.05 -1.01,8.05 -1.01,9.06 -1.01,10.07 -1.01,11.07 -1.01,12.08 -1.01,13.09 -1.01,29.2 -1.01,30.2 -1.01,31.21 -1.01,32.22 -1.01,33.22 -1.01,34.23 -1.01,35.24 -1.01,36.24 0,36.24 0,37.25 0,38.26 1.01,38.26 1.01,39.26 2.01,39.26 2.01,40.27 "/>
   </g>
  </g>
  <polygon fill="none" points="98.66,32.22 98.66,33.22 98.66,34.23 98.66,35.24 98.66,36.24 98.66,37.25 98.66,38.26 98.66,39.26 97.65,39.26 97.65,40.27 97.65,41.28 96.64,41.28 96.64,42.28 95.64,42.28 94.63,42.28 94.63,43.29 93.62,43.29 92.62,43.29 91.61,43.29 90.6,43.29 89.6,43.29 88.59,43.29 87.58,43.29 12.08,43.29 11.07,43.29 10.07,43.29 9.06,43.29 8.05,43.29 7.05,43.29 6.04,43.29 5.03,43.29 5.03,42.28 4.03,42.28 3.02,42.28 3.02,41.28 2.01,41.28 2.01,40.27 2.01,39.26 1.01,39.26 1.01,38.26 1.01,37.25 1.01,36.24 1.01,35.24 1.01,34.23 1.01,33.22 1.01,32.22 1.01,16.11 1.01,15.1 1.01,14.09 1.01,13.09 1.01,12.08 1.01,11.07 1.01,10.07 1.01,9.06 2.01,9.06 2.01,8.05 2.01,7.05 3.02,7.05 3.02,6.04 4.03,6.04 5.03,6.04 5.03,5.03 6.04,5.03 7.05,5.03 8.05,5.03 9.06,5.03 10.07,5.03 11.07,5.03 12.08,5.03 87.58,5.03 88.59,5.03 89.6,5.03 90.6,5.03 91.61,5.03 92.62,5.03 93.62,5.03 94.63,5.03 94.63,6.04 95.64,6.04 96.64,6.04 96.64,7.05 97.65,7.05 97.65,8.05 97.65,9.06 98.66,9.06 98.66,10.07 98.66,11.07 98.66,12.08 98.66,13.09 98.66,14.09 98.66,15.1 98.66,16.11 "/>
  <g id="_2304471170384">
   <rect fill="black" class="klip1" x="84.57" y="6.04" width="1.01" height="1.01"/>
   <rect fill="black" class="klip1" transform="matrix(2.64845E-14 1 -1 2.64845E-14 86.578 7.04714)" width="1.01" height="1.01"/>
   <rect fill="white" class="klip1" x="84.57" y="7.05" width="1.01" height="1.01"/>
   <rect fill="black" class="klip1" x="84.57" y="8.05" width="1.01" height="1.01"/>
   <rect fill="black" class="klip1" transform="matrix(2.64845E-14 1 -1 2.64845E-14 84.5652 7.04714)" width="1.01" height="1.01"/>
  </g>
  <g id="_2304471180320">
   <rect fill="black" class="klip2" x="80.54" y="9.06" width="1.01" height="1.01"/>
   <rect fill="black" class="klip2" transform="matrix(2.64845E-14 1 -1 2.64845E-14 82.5519 10.0668)" width="1.01" height="1.01"/>
   <rect fill="white" class="klip2" x="80.54" y="10.07" width="1.01" height="1.01"/>
   <rect fill="black" class="klip2" x="80.54" y="11.07" width="1.01" height="1.01"/>
   <rect fill="black" class="klip2" transform="matrix(2.64845E-14 1 -1 2.64845E-14 80.5391 10.0668)" width="1.01" height="1.01"/>
  </g>
  <polygon fill="black" class="lag" points="87.58,10.07 88.59,10.07 88.59,9.06 88.59,8.05 88.59,7.05 88.59,6.04 88.59,5.03 88.59,4.03 88.59,3.02 88.59,2.01 88.59,1.01 88.59,0 89.6,0 89.6,1.01 90.6,1.01 91.61,1.01 91.61,2.01 92.62,2.01 93.62,2.01 93.62,3.02 94.63,3.02 95.64,3.02 95.64,4.03 96.64,4.03 97.65,4.03 97.65,5.03 97.65,6.04 97.65,7.05 97.65,8.05 97.65,9.06 97.65,10.07 97.65,11.07 97.65,12.08 97.65,13.09 97.65,14.09 97.65,15.1 97.65,16.11 97.65,17.11 96.64,17.11 96.64,18.12 95.64,18.12 95.64,19.13 94.63,19.13 93.62,19.13 92.62,19.13 92.62,18.12 91.61,18.12 91.61,17.11 91.61,16.11 91.61,15.1 92.62,15.1 92.62,14.09 93.62,14.09 93.62,13.09 94.63,13.09 95.64,13.09 96.64,13.09 96.64,12.08 96.64,11.07 96.64,10.07 96.64,9.06 96.64,8.05 96.64,7.05 95.64,7.05 95.64,6.04 94.63,6.04 93.62,6.04 93.62,5.03 92.62,5.03 91.61,5.03 91.61,4.03 90.6,4.03 89.6,4.03 89.6,5.03 89.6,6.04 89.6,7.05 89.6,8.05 89.6,9.06 89.6,10.07 89.6,11.07 89.6,12.08 89.6,13.09 89.6,14.09 88.59,14.09 88.59,15.1 87.58,15.1 87.58,16.11 86.58,16.11 85.57,16.11 84.56,16.11 84.56,15.1 83.56,15.1 83.56,14.09 83.56,13.09 83.56,12.08 84.56,12.08 84.56,11.07 85.57,11.07 85.57,10.07 86.58,10.07 "/>
  <path fill="white" class="lag" d="M95.64 5.03l1 0 0 1.01 -1 0 0 -1.01 -1.01 0 -1.01 0 0 -1 -1 0 -1.01 0 0 -1.01 -1.01 0 -1 0 0 -1.01 1 0 1.01 0 0 1.01 1.01 0 1 0 0 1.01 1.01 0 1.01 0 0 1zm-2.02 10.07l1.01 0 0 1.01 -1.01 0 0 -1.01zm-8.05 -3.02l1.01 0 0 1.01 -1.01 0 0 -1.01z"/>
  <path fill="black" fill-rule="nonzero" d="M11.24 29.19l-0.84 0 -0.84 0 -0.83 0 0 -0.83 0 -0.84 0.83 0 0 -0.84 0 -0.84 0 -0.84 0 -0.84 0 -0.84 0 -0.84 0 -0.84 0 -0.84 -0.83 0 0 -0.83 0 -0.84 0.83 0 0.84 0 0.84 0 0.84 0 0 0.84 0 0.83 -0.84 0 0 0.84 0 0.84 0 0.84 0 0.84 0 0.84 0 0.84 0 0.84 0 0.84 0.84 0 0 0.84 0 0.83 -0.84 0zm9.23 0l-0.84 0 0 -0.83 0 -0.84 0 -0.84 0 -0.84 0 -0.84 -0.84 0 -0.84 0 0 -0.84 0 -0.84 0.84 0 0.84 0 0 -0.84 0 -0.84 0 -0.84 0 -0.83 0 -0.84 0.84 0 0.84 0 0 0.84 0 0.83 0 0.84 0 0.84 0 0.84 0 0.84 0 0.84 0 0.84 0 0.84 0 0.84 0 0.84 0 0.83 -0.84 0zm-6.71 0l-0.84 0 0 -0.83 0 -0.84 0 -0.84 0 -0.84 0 -0.84 0 -0.84 0 -0.84 0 -0.84 0 -0.84 0 -0.84 0 -0.83 0 -0.84 0.84 0 0.84 0 0 0.84 0.84 0 0.84 0 0 0.83 0 0.84 0.83 0 0.84 0 0 0.84 0 0.84 -0.84 0 -0.83 0 0 -0.84 0 -0.84 -0.84 0 -0.84 0 0 0.84 0 0.84 0 0.84 0 0.84 0 0.84 0 0.84 0 0.84 0 0.84 0 0.83 -0.84 0zm12.58 0l-0.84 0 0 -0.83 0 -0.84 0 -0.84 0 -0.84 0 -0.84 0 -0.84 0 -0.84 0 -0.84 0 -0.84 0 -0.84 -0.84 0 -0.83 0 -0.84 0 -0.84 0 0 -0.83 0 -0.84 0.84 0 0.84 0 0.83 0 0.84 0 0.84 0 0.84 0 0.84 0 0.84 0 0.84 0 0.84 0 0 0.84 0 0.83 -0.84 0 -0.84 0 -0.84 0 -0.84 0 0 0.84 0 0.84 0 0.84 0 0.84 0 0.84 0 0.84 0 0.84 0 0.84 0 0.84 0 0.83 -0.84 0zm14.26 0l-0.83 0 0 -0.83 0 -0.84 0.83 0 0.84 0 0 0.84 0 0.83 -0.84 0zm-8.39 0l-0.83 0 0 -0.83 0 -0.84 0 -0.84 0 -0.84 0 -0.84 0 -0.84 0 -0.84 0 -0.84 0 -0.84 0 -0.84 0 -0.83 0 -0.84 0.83 0 0.84 0 0.84 0 0.84 0 0.84 0 0.84 0 0.84 0 0.84 0 0.84 0 0 0.84 0 0.83 0.84 0 0.83 0 0 0.84 0 0.84 -0.83 0 -0.84 0 0 -0.84 0 -0.84 -0.84 0 -0.84 0 -0.84 0 -0.84 0 -0.84 0 -0.84 0 -0.84 0 0 0.84 0 0.84 0.84 0 0.84 0 0.84 0 0.84 0 0.84 0 0.84 0 0.84 0 0 0.84 0 0.84 -0.84 0 0 0.84 0 0.84 0.84 0 0.84 0 0 0.84 0 0.84 -0.84 0 -0.84 0 0 -0.84 0 -0.84 -0.84 0 -0.84 0 0 -0.84 0 -0.84 -0.84 0 -0.84 0 -0.84 0 -0.84 0 0 0.84 0 0.84 0 0.84 0 0.84 0 0.84 0 0.83 -0.84 0zm17.62 0l-0.84 0 -0.84 0 -0.83 0 -0.84 0 -0.84 0 -0.84 0 -0.84 0 0 -0.83 0 -0.84 0.84 0 0.84 0 0.84 0 0.84 0 0.83 0 0.84 0 0.84 0 0.84 0 0 0.84 0 0.83 -0.84 0zm0.84 -1.67l0 -0.84 0 -0.84 0 -0.84 0 -0.84 0 -0.84 0 -0.84 0 -0.84 0 -0.84 0.84 0 0.84 0 0 0.84 0 0.84 0 0.84 0 0.84 0 0.84 0 0.84 0 0.84 0 0.84 -0.84 0 -0.84 0zm-6.71 0l-0.84 0 -0.84 0 0 -0.84 0 -0.84 0 -0.84 0 -0.84 0 -0.84 0 -0.84 0 -0.84 0 -0.84 0.84 0 0.84 0 0 0.84 0 0.84 0 0.84 0 0.84 0 0.84 0 0.84 0 0.84 0 0.84zm6.71 -6.72l-0.84 0 -0.84 0 -0.84 0 -0.83 0 -0.84 0 -0.84 0 -0.84 0 -0.84 0 0 -0.83 0 -0.84 0.84 0 0.84 0 0.84 0 0.84 0 0.83 0 0.84 0 0.84 0 0.84 0 0 0.84 0 0.83zm15.94 7.56l0.84 0 0 0.83 -0.84 0 -0.84 0 -0.84 0 -0.84 0 -0.84 0 -0.83 0 -0.84 0 -0.84 0 -0.84 0 -0.84 0 0 -0.83 0 -0.84 0.84 0 0.84 0 0.84 0 0.84 0 0 -0.84 0.83 0 0.84 0 0 0.84 0.84 0 0.84 0 0 0.84 0.84 0zm-0.84 -0.84l0 -0.84 0 -0.84 0 -0.84 0 -0.84 0 -0.84 0 -0.84 0 -0.84 0 -0.84 0.84 0 0.84 0 0 0.84 0 0.84 0 0.84 0 0.84 0 0.84 0 0.84 0 0.84 0 0.84 -0.84 0 -0.84 0zm-6.71 0l-0.84 0 -0.84 0 0 -0.84 0 -0.84 0 -0.84 0 -0.84 0 -0.84 0 -0.84 0 -0.84 0 -0.84 0.84 0 0.84 0 0 0.84 0 0.84 0 0.84 0 0.84 0 0.84 0 0.84 0 0.84 0 0.84zm6.71 -6.72l-0.84 0 -0.84 0 -0.84 0 -0.83 0 -0.84 0 -0.84 0 -0.84 0 -0.84 0 0 -0.83 0 -0.84 0.84 0 0.84 0 0.84 0 0.84 0 0.83 0 0.84 0 0.84 0 0.84 0 0 0.84 0 0.83zm8.39 8.39l-0.84 0 -0.84 0 -0.84 0 -0.83 0 0 -0.83 0 -0.84 0.83 0 0.84 0 0.84 0 0.84 0 0.84 0 0 0.84 0 0.83 -0.84 0zm0.84 -1.67l0 -0.84 0 -0.84 0 -0.84 0 -0.84 0 -0.84 0 -0.84 0 -0.84 0 -0.84 0 -0.83 0 -0.84 0.84 0 0.84 0 0 0.84 0 0.83 0 0.84 0 0.84 0 0.84 0 0.84 0 0.84 0 0.84 0 0.84 0 0.84 -0.84 0 -0.84 0zm-4.19 0l-0.84 0 -0.84 0 0 -0.84 0 -0.84 0 -0.84 0 -0.84 0 -0.84 0 -0.84 0 -0.84 0 -0.84 0 -0.83 0 -0.84 0.84 0 0.84 0 0 0.84 0 0.83 0 0.84 0 0.84 0 0.84 0 0.84 0 0.84 0 0.84 0 0.84 0 0.84zm10.06 1.67l-0.84 0 -0.84 0 -0.83 0 0 -0.83 0 -0.84 0.83 0 0 -0.84 0 -0.84 0 -0.84 0 -0.84 0 -0.84 0 -0.84 0 -0.84 0 -0.84 -0.83 0 0 -0.83 0 -0.84 0.83 0 0.84 0 0.84 0 0.84 0 0 0.84 0 0.83 -0.84 0 0 0.84 0 0.84 0 0.84 0 0.84 0 0.84 0 0.84 0 0.84 0 0.84 0.84 0 0 0.84 0 0.83 -0.84 0zm9.23 0l-0.84 0 -0.84 0 -0.84 0 -0.84 0 -0.83 0 -0.84 0 -0.84 0 -0.84 0 -0.84 0 0 -0.83 0 -0.84 0.84 0 0.84 0 0 -0.84 0 -0.84 0.84 0 0.84 0 0 0.84 0 0.84 0.83 0 0.84 0 0.84 0 0.84 0 0.84 0 0.84 0 0 0.84 0 0.83 -0.84 0zm-4.19 -3.35l0 -0.84 0 -0.84 0.83 0 0.84 0 0 0.84 0 0.84 -0.84 0 -0.83 0zm1.67 -1.68l0 -0.84 0 -0.84 0.84 0 0.84 0 0 0.84 0 0.84 -0.84 0 -0.84 0zm1.68 -1.68l0 -0.84 0 -0.84 -0.84 0 -0.84 0 -0.84 0 -0.83 0 -0.84 0 -0.84 0 -0.84 0 -0.84 0 0 -0.83 0 -0.84 0.84 0 0.84 0 0.84 0 0.84 0 0.83 0 0.84 0 0.84 0 0.84 0 0.84 0 0.84 0 0 0.84 0 0.83 0 0.84 0 0.84 -0.84 0 -0.84 0z"/>
 </g>
</svg>
