<?xml version="1.0" encoding="UTF-8"?>
<!DOCTYPE svg PUBLIC "-//W3C//DTD SVG 1.1//EN" "http://www.w3.org/Graphics/SVG/1.1/DTD/svg11.dtd">
<!-- Creator: CorelDRAW 2020 (64-Bit) -->
<svg xmlns="http://www.w3.org/2000/svg" xml:space="preserve" width="425px" height="245px" version="1.1" shape-rendering="geometricPrecision" text-rendering="geometricPrecision" image-rendering="optimizeQuality" fill-rule="evenodd" clip-rule="evenodd"
viewBox="0 0 360.1 207.57"
 xmlns:xlink="http://www.w3.org/1999/xlink"
 xmlns:xodm="http://www.corel.com/coreldraw/odm/2003">
 <style>
 .lag {
    animation-name: movelag;
    animation-duration: 2s; /* Wajib agar animasi terlihat */
    animation-timing-function: ease-in-out;
    animation-iteration-count: infinite; /* Optional: jika ingin animasi terus berulang */
}

@keyframes movelag {
    0% {
        transform: translateY(0px);
    }
    49% {
        transform: translateY(0px);
    }
    50% {
        transform: translateY(7px);
    }
    99% {
        transform: translateY(7px);
    }
    100% {
        transform: translateY(0px);
    }
}
</style>
 <defs>
    <clipPath id="id0">
     <path d="M351.63 152.5l0 4.24 0 4.23 0 4.24 0 4.24 0 4.23 0 4.24 0 4.24 -4.24 0 0 4.23 0 4.24 -4.24 0 0 4.23 -4.23 0 -4.24 0 0 4.24 -4.23 0 -4.24 0 -4.24 0 -4.23 0 -4.24 0 -4.23 0 -4.24 0 -254.2 0 -4.23 0 -4.24 0 -4.23 0 -4.24 0 -4.24 0 -4.23 0 -4.24 0 0 -4.24 -4.24 0 -4.23 0 0 -4.23 -4.24 0 0 -4.24 0 -4.23 -4.23 0 0 -4.24 0 -4.24 0 -4.23 0 -4.24 0 -4.24 0 -4.23 0 -4.24 0 -67.79 0 -4.23 0 -4.24 0 -4.24 0 -4.23 0 -4.24 0 -4.24 0 -4.23 4.23 0 0 -4.24 0 -4.23 4.24 0 0 -4.24 4.23 0 4.24 0 0 -4.24 4.24 0 4.23 0 4.24 0 4.24 0 4.23 0 4.24 0 4.23 0 254.2 0 4.24 0 4.23 0 4.24 0 4.23 0 4.24 0 4.24 0 4.23 0 0 4.24 4.24 0 4.23 0 0 4.24 4.24 0 0 4.23 0 4.24 4.24 0 0 4.23 0 4.24 0 4.24 0 4.23 0 4.24 0 4.24 0 4.23 0 67.79z"/>
    </clipPath>
 </defs>
 <g id="Layer_x0020_1">
  <metadata id="CorelCorpID_0Corel-Layer"/>
  <g id="_2304300989600">
   <polygon fill="#2E0052" points="16.94,199.1 21.18,199.1 21.18,203.34 25.42,203.34 29.65,203.34 33.89,203.34 38.13,203.34 42.36,203.34 46.6,203.34 50.83,203.34 305.03,203.34 309.27,203.34 313.5,203.34 317.74,203.34 321.97,203.34 326.21,203.34 330.45,203.34 334.68,203.34 334.68,199.1 338.92,199.1 343.15,199.1 343.15,194.86 347.39,194.86 347.39,190.63 351.63,190.63 351.63,186.39 351.63,182.16 355.86,182.16 355.86,177.92 355.86,173.68 355.86,169.45 355.86,165.21 355.86,160.97 355.86,156.74 355.86,152.5 355.86,84.71 355.86,80.48 355.86,76.24 355.86,72 355.86,67.77 355.86,63.53 355.86,59.29 355.86,55.06 351.63,55.06 351.63,50.82 351.63,46.59 347.39,46.59 347.39,42.35 343.15,42.35 343.15,38.11 338.92,38.11 334.68,38.11 334.68,33.88 330.45,33.88 326.21,33.88 321.97,33.88 317.74,33.88 313.5,33.88 309.27,33.88 305.03,33.88 50.83,33.88 46.6,33.88 42.36,33.88 38.13,33.88 33.89,33.88 29.65,33.88 25.42,33.88 21.18,33.88 21.18,38.11 16.94,38.11 12.71,38.11 12.71,42.35 8.47,42.35 8.47,46.59 4.24,46.59 4.24,50.82 4.24,55.06 0,55.06 0,59.29 0,63.53 0,67.77 0,72 0,76.24 0,80.48 0,84.71 0,152.5 0,156.74 0,160.97 0,165.21 0,169.45 0,173.68 0,177.92 0,182.16 4.24,182.16 4.24,186.39 4.24,190.63 8.47,190.63 8.47,194.86 12.71,194.86 12.71,199.1 "/>
   <polygon fill="#2E0052" points="21.18,203.34 25.42,203.34 25.42,207.57 29.65,207.57 33.89,207.57 38.13,207.57 42.36,207.57 46.6,207.57 50.83,207.57 55.07,207.57 309.27,207.57 313.5,207.57 317.74,207.57 321.97,207.57 326.21,207.57 330.45,207.57 334.68,207.57 338.92,207.57 338.92,203.34 343.15,203.34 347.39,203.34 347.39,199.1 351.63,199.1 351.63,194.86 355.86,194.86 355.86,190.63 355.86,186.39 360.1,186.39 360.1,182.16 360.1,177.92 360.1,173.68 360.1,169.45 360.1,165.21 360.1,160.97 360.1,156.74 360.1,88.95 360.1,84.71 360.1,80.48 360.1,76.24 360.1,72 360.1,67.77 360.1,63.53 360.1,59.29 355.86,59.29 355.86,55.06 355.86,50.82 351.63,50.82 351.63,46.59 347.39,46.59 347.39,42.35 343.15,42.35 338.92,42.35 338.92,38.11 334.68,38.11 330.45,38.11 326.21,38.11 321.97,38.11 317.74,38.11 313.5,38.11 309.27,38.11 55.07,38.11 50.83,38.11 46.6,38.11 42.36,38.11 38.13,38.11 33.89,38.11 29.65,38.11 25.42,38.11 25.42,42.35 21.18,42.35 16.94,42.35 16.94,46.59 12.71,46.59 12.71,50.82 8.47,50.82 8.47,55.06 8.47,59.29 4.24,59.29 4.24,63.53 4.24,67.77 4.24,72 4.24,76.24 4.24,80.48 4.24,84.71 4.24,88.95 4.24,156.74 4.24,160.97 4.24,165.21 4.24,169.45 4.24,173.68 4.24,177.92 4.24,182.16 4.24,186.39 8.47,186.39 8.47,190.63 8.47,194.86 12.71,194.86 12.71,199.1 16.94,199.1 16.94,203.34 "/>
   <polygon fill="#C479FF" points="351.63,152.5 351.63,156.74 351.63,160.97 351.63,165.21 351.63,169.45 351.63,173.68 351.63,177.92 351.63,182.16 347.39,182.16 347.39,186.39 347.39,190.63 343.15,190.63 343.15,194.86 338.92,194.86 334.68,194.86 334.68,199.1 330.45,199.1 326.21,199.1 321.97,199.1 317.74,199.1 313.5,199.1 309.27,199.1 305.03,199.1 50.83,199.1 46.6,199.1 42.36,199.1 38.13,199.1 33.89,199.1 29.65,199.1 25.42,199.1 21.18,199.1 21.18,194.86 16.94,194.86 12.71,194.86 12.71,190.63 8.47,190.63 8.47,186.39 8.47,182.16 4.24,182.16 4.24,177.92 4.24,173.68 4.24,169.45 4.24,165.21 4.24,160.97 4.24,156.74 4.24,152.5 4.24,84.71 4.24,80.48 4.24,76.24 4.24,72 4.24,67.77 4.24,63.53 4.24,59.29 4.24,55.06 8.47,55.06 8.47,50.82 8.47,46.59 12.71,46.59 12.71,42.35 16.94,42.35 21.18,42.35 21.18,38.11 25.42,38.11 29.65,38.11 33.89,38.11 38.13,38.11 42.36,38.11 46.6,38.11 50.83,38.11 305.03,38.11 309.27,38.11 313.5,38.11 317.74,38.11 321.97,38.11 326.21,38.11 330.45,38.11 334.68,38.11 334.68,42.35 338.92,42.35 343.15,42.35 343.15,46.59 347.39,46.59 347.39,50.82 347.39,55.06 351.63,55.06 351.63,59.29 351.63,63.53 351.63,67.77 351.63,72 351.63,76.24 351.63,80.48 351.63,84.71 "/>
   <g clip-path="url(#id0)">
    <g>
     <polygon id="1" fill="#A22BFF" points="12.71,199.1 16.94,199.1 16.94,203.34 21.18,203.34 25.42,203.34 29.65,203.34 33.89,203.34 38.13,203.34 42.36,203.34 46.6,203.34 300.79,203.34 305.03,203.34 309.27,203.34 313.5,203.34 317.74,203.34 321.97,203.34 326.21,203.34 330.45,203.34 330.45,199.1 334.68,199.1 338.92,199.1 338.92,194.86 343.15,194.86 343.15,190.63 347.39,190.63 347.39,186.39 347.39,182.16 351.63,182.16 351.63,177.92 351.63,173.68 351.63,169.45 351.63,165.21 351.63,160.97 351.63,156.74 351.63,152.5 351.63,84.71 351.63,80.48 351.63,76.24 351.63,72 351.63,67.77 351.63,63.53 351.63,59.29 351.63,55.06 347.39,55.06 347.39,50.82 347.39,46.59 343.15,46.59 343.15,42.35 338.92,42.35 338.92,38.11 334.68,38.11 330.45,38.11 330.45,33.88 326.21,33.88 321.97,33.88 317.74,33.88 313.5,33.88 309.27,33.88 305.03,33.88 300.79,33.88 46.6,33.88 42.36,33.88 38.13,33.88 33.89,33.88 29.65,33.88 25.42,33.88 21.18,33.88 16.94,33.88 16.94,38.11 12.71,38.11 8.47,38.11 8.47,42.35 4.24,42.35 4.24,46.59 0,46.59 0,50.82 0,55.06 -4.24,55.06 -4.24,59.29 -4.24,63.53 -4.24,67.77 -4.24,72 -4.24,76.24 -4.24,80.48 -4.24,84.71 -4.24,152.5 -4.24,156.74 -4.24,160.97 -4.24,165.21 -4.24,169.45 -4.24,173.68 -4.24,177.92 -4.24,182.16 0,182.16 0,186.39 0,190.63 4.24,190.63 4.24,194.86 8.47,194.86 8.47,199.1 "/>
     <polygon fill="#B352FF" points="8.47,190.63 12.71,190.63 12.71,194.86 16.94,194.86 21.18,194.86 25.42,194.86 29.65,194.86 33.89,194.86 38.13,194.86 42.36,194.86 296.56,194.86 300.79,194.86 305.03,194.86 309.27,194.86 313.5,194.86 317.74,194.86 321.97,194.86 326.21,194.86 326.21,190.63 330.45,190.63 334.68,190.63 334.68,186.39 338.92,186.39 338.92,182.16 343.15,182.16 343.15,177.92 343.15,173.68 347.39,173.68 347.39,169.45 347.39,165.21 347.39,160.97 347.39,156.74 347.39,152.5 347.39,148.27 347.39,144.03 347.39,76.24 347.39,72 347.39,67.77 347.39,63.53 347.39,59.29 347.39,55.06 347.39,50.82 347.39,46.59 343.15,46.59 343.15,42.35 343.15,38.11 338.92,38.11 338.92,33.88 334.68,33.88 334.68,29.64 330.45,29.64 326.21,29.64 326.21,25.41 321.97,25.41 317.74,25.41 313.5,25.41 309.27,25.41 305.03,25.41 300.79,25.41 296.56,25.41 42.36,25.41 38.13,25.41 33.89,25.41 29.65,25.41 25.42,25.41 21.18,25.41 16.94,25.41 12.71,25.41 12.71,29.64 8.47,29.64 4.24,29.64 4.24,33.88 0,33.88 0,38.11 -4.24,38.11 -4.24,42.35 -4.24,46.59 -8.47,46.59 -8.47,50.82 -8.47,55.06 -8.47,59.29 -8.47,63.53 -8.47,67.77 -8.47,72 -8.47,76.24 -8.47,144.03 -8.47,148.27 -8.47,152.5 -8.47,156.74 -8.47,160.97 -8.47,165.21 -8.47,169.45 -8.47,173.68 -4.24,173.68 -4.24,177.92 -4.24,182.16 0,182.16 0,186.39 4.24,186.39 4.24,190.63 "/>
     <polygon fill="#C479FF" points="4.24,186.39 8.47,186.39 8.47,190.63 12.71,190.63 16.94,190.63 21.18,190.63 25.42,190.63 29.65,190.63 33.89,190.63 38.13,190.63 292.32,190.63 296.56,190.63 300.79,190.63 305.03,190.63 309.27,190.63 313.5,190.63 317.74,190.63 321.97,190.63 321.97,186.39 326.21,186.39 330.45,186.39 330.45,182.16 334.68,182.16 334.68,177.92 338.92,177.92 338.92,173.68 338.92,169.45 343.15,169.45 343.15,165.21 343.15,160.97 343.15,156.74 343.15,152.5 343.15,148.27 343.15,144.03 343.15,139.79 343.15,72 343.15,67.77 343.15,63.53 343.15,59.29 343.15,55.06 343.15,50.82 343.15,46.59 343.15,42.35 338.92,42.35 338.92,38.11 338.92,33.88 334.68,33.88 334.68,29.64 330.45,29.64 330.45,25.41 326.21,25.41 321.97,25.41 321.97,21.17 317.74,21.17 313.5,21.17 309.27,21.17 305.03,21.17 300.79,21.17 296.56,21.17 292.32,21.17 38.13,21.17 33.89,21.17 29.65,21.17 25.42,21.17 21.18,21.17 16.94,21.17 12.71,21.17 8.47,21.17 8.47,25.41 4.24,25.41 0,25.41 0,29.64 -4.24,29.64 -4.24,33.88 -8.47,33.88 -8.47,38.11 -8.47,42.35 -12.71,42.35 -12.71,46.59 -12.71,50.82 -12.71,55.06 -12.71,59.29 -12.71,63.53 -12.71,67.77 -12.71,72 -12.71,139.79 -12.71,144.03 -12.71,148.27 -12.71,152.5 -12.71,156.74 -12.71,160.97 -12.71,165.21 -12.71,169.45 -8.47,169.45 -8.47,173.68 -8.47,177.92 -4.24,177.92 -4.24,182.16 0,182.16 0,186.39 "/>
    </g>
   </g>
   <polygon fill="none" points="351.63,152.5 351.63,156.74 351.63,160.97 351.63,165.21 351.63,169.45 351.63,173.68 351.63,177.92 351.63,182.16 347.39,182.16 347.39,186.39 347.39,190.63 343.15,190.63 343.15,194.86 338.92,194.86 334.68,194.86 334.68,199.1 330.45,199.1 326.21,199.1 321.97,199.1 317.74,199.1 313.5,199.1 309.27,199.1 305.03,199.1 50.83,199.1 46.6,199.1 42.36,199.1 38.13,199.1 33.89,199.1 29.65,199.1 25.42,199.1 21.18,199.1 21.18,194.86 16.94,194.86 12.71,194.86 12.71,190.63 8.47,190.63 8.47,186.39 8.47,182.16 4.24,182.16 4.24,177.92 4.24,173.68 4.24,169.45 4.24,165.21 4.24,160.97 4.24,156.74 4.24,152.5 4.24,84.71 4.24,80.48 4.24,76.24 4.24,72 4.24,67.77 4.24,63.53 4.24,59.29 4.24,55.06 8.47,55.06 8.47,50.82 8.47,46.59 12.71,46.59 12.71,42.35 16.94,42.35 21.18,42.35 21.18,38.11 25.42,38.11 29.65,38.11 33.89,38.11 38.13,38.11 42.36,38.11 46.6,38.11 50.83,38.11 305.03,38.11 309.27,38.11 313.5,38.11 317.74,38.11 321.97,38.11 326.21,38.11 330.45,38.11 334.68,38.11 334.68,42.35 338.92,42.35 343.15,42.35 343.15,46.59 347.39,46.59 347.39,50.82 347.39,55.06 351.63,55.06 351.63,59.29 351.63,63.53 351.63,67.77 351.63,72 351.63,76.24 351.63,80.48 351.63,84.71 "/>
   <path fill="black" fill-rule="nonzero" d="M71.43 139.79l-3.53 0 0 -3.53 0 -3.53 0 -3.53 3.53 0 3.53 0 0 3.53 0 3.53 0 3.53 -3.53 0zm-24.71 0l-3.53 0 0 -3.53 0 -3.53 0 -3.53 0 -3.53 0 -3.53 0 -3.53 0 -3.53 0 -3.53 0 -3.53 0 -3.53 0 -3.53 0 -3.54 3.53 0 3.53 0 0 3.54 0 3.53 0 3.53 0 3.53 0 3.53 3.53 0 3.53 0 3.53 0 0 3.53 0 3.53 3.53 0 3.53 0 0 3.53 0 3.53 -3.53 0 -3.53 0 0 -3.53 0 -3.53 -3.53 0 -3.53 0 -3.53 0 0 3.53 0 3.53 0 3.53 0 3.53 0 3.53 -3.53 0zm14.12 -24.71l0 -3.53 0 -3.53 3.53 0 3.53 0 0 3.53 0 3.53 -3.53 0 -3.53 0zm7.06 -7.06l0 -3.53 0 -3.53 3.53 0 3.53 0 0 3.53 0 3.53 -3.53 0 -3.53 0zm38.83 31.77l-3.53 0 0 -3.53 0 -3.53 0 -3.53 0 -3.53 0 -3.53 0 -3.53 -3.53 0 -3.53 0 -3.53 0 -3.53 0 -3.53 0 0 3.53 0 3.53 0 3.53 0 3.53 0 3.53 0 3.53 -3.53 0 -3.53 0 0 -3.53 0 -3.53 0 -3.53 0 -3.53 0 -3.53 0 -3.53 0 -3.53 0 -3.53 0 -3.53 0 -3.53 3.53 0 3.53 0 0 3.53 0 3.53 3.53 0 3.53 0 3.53 0 3.53 0 3.53 0 0 -3.53 0 -3.53 3.53 0 3.54 0 0 3.53 0 3.53 0 3.53 0 3.53 0 3.53 0 3.53 0 3.53 0 3.53 0 3.53 0 3.53 -3.54 0zm-3.53 -35.3l-3.53 0 -3.53 0 -3.53 0 -3.53 0 -3.53 0 0 -3.53 0 -3.54 3.53 0 3.53 0 3.53 0 3.53 0 3.53 0 0 3.54 0 3.53zm49.43 35.3l-3.53 0 0 -3.53 0 -3.53 3.53 0 3.53 0 0 3.53 0 3.53 -3.53 0zm-35.3 0l-3.53 0 0 -3.53 0 -3.53 0 -3.53 0 -3.53 0 -3.53 0 -3.53 0 -3.53 0 -3.53 0 -3.53 0 -3.53 0 -3.53 0 -3.54 3.53 0 3.53 0 3.53 0 3.53 0 3.53 0 3.53 0 3.53 0 3.53 0 3.53 0 0 3.54 0 3.53 3.53 0 3.53 0 0 3.53 0 3.53 -3.53 0 -3.53 0 0 -3.53 0 -3.53 -3.53 0 -3.53 0 -3.53 0 -3.53 0 -3.53 0 -3.53 0 -3.53 0 0 3.53 0 3.53 3.53 0 3.53 0 3.53 0 3.53 0 3.53 0 3.53 0 3.53 0 0 3.53 0 3.53 -3.53 0 0 3.53 0 3.53 3.53 0 3.53 0 0 3.53 0 3.53 -3.53 0 -3.53 0 0 -3.53 0 -3.53 -3.53 0 -3.53 0 0 -3.53 0 -3.53 -3.53 0 -3.53 0 -3.53 0 -3.53 0 0 3.53 0 3.53 0 3.53 0 3.53 0 3.53 0 3.53 -3.53 0zm70.6 0l-3.53 0 0 -3.53 0 -3.53 0 -3.53 0 -3.53 0 -3.53 0 -3.53 -3.53 0 -3.53 0 -3.53 0 -3.53 0 -3.53 0 0 3.53 0 3.53 0 3.53 0 3.53 0 3.53 0 3.53 -3.53 0 -3.53 0 0 -3.53 0 -3.53 0 -3.53 0 -3.53 0 -3.53 0 -3.53 0 -3.53 0 -3.53 0 -3.53 0 -3.53 3.53 0 3.53 0 0 3.53 0 3.53 3.53 0 3.53 0 3.53 0 3.53 0 3.53 0 0 -3.53 0 -3.53 3.53 0 3.53 0 0 3.53 0 3.53 0 3.53 0 3.53 0 3.53 0 3.53 0 3.53 0 3.53 0 3.53 0 3.53 -3.53 0zm-3.53 -35.3l-3.53 0 -3.53 0 -3.53 0 -3.53 0 -3.53 0 0 -3.53 0 -3.54 3.53 0 3.53 0 3.53 0 3.53 0 3.53 0 0 3.54 0 3.53zm42.37 35.3l-3.53 0 -3.53 0 -3.53 0 -3.53 0 -3.53 0 -3.53 0 -3.53 0 0 -3.53 0 -3.53 3.53 0 3.53 0 3.53 0 3.53 0 3.53 0 3.53 0 3.53 0 3.53 0 0 3.53 0 3.53 -3.53 0zm3.53 -7.06l0 -3.53 0 -3.53 0 -3.53 0 -3.53 0 -3.53 0 -3.53 0 -3.53 0 -3.53 3.53 0 3.53 0 0 3.53 0 3.53 0 3.53 0 3.53 0 3.53 0 3.53 0 3.53 0 3.53 -3.53 0 -3.53 0zm-28.24 0l-3.53 0 -3.53 0 0 -3.53 0 -3.53 0 -3.53 0 -3.53 0 -3.53 0 -3.53 0 -3.53 0 -3.53 3.53 0 3.53 0 0 3.53 0 3.53 0 3.53 0 3.53 0 3.53 0 3.53 0 3.53 0 3.53zm28.24 -28.24l-3.53 0 -3.53 0 -3.53 0 -3.53 0 -3.53 0 -3.53 0 -3.53 0 -3.53 0 0 -3.53 0 -3.54 3.53 0 3.53 0 3.53 0 3.53 0 3.53 0 3.53 0 3.53 0 3.53 0 0 3.54 0 3.53zm38.83 35.3l-3.53 0 0 -3.53 0 -3.53 0 -3.53 3.53 0 3.53 0 0 3.53 0 3.53 0 3.53 -3.53 0zm-24.71 0l-3.53 0 0 -3.53 0 -3.53 0 -3.53 0 -3.53 0 -3.53 0 -3.53 0 -3.53 0 -3.53 0 -3.53 0 -3.53 0 -3.53 0 -3.54 3.53 0 3.53 0 0 3.54 0 3.53 0 3.53 0 3.53 0 3.53 3.53 0 3.53 0 3.53 0 0 3.53 0 3.53 3.53 0 3.53 0 0 3.53 0 3.53 -3.53 0 -3.53 0 0 -3.53 0 -3.53 -3.53 0 -3.53 0 -3.53 0 0 3.53 0 3.53 0 3.53 0 3.53 0 3.53 -3.53 0zm14.12 -24.71l0 -3.53 0 -3.53 3.53 0 3.53 0 0 3.53 0 3.53 -3.53 0 -3.53 0zm7.06 -7.06l0 -3.53 0 -3.53 3.53 0 3.53 0 0 3.53 0 3.53 -3.53 0 -3.53 0zm42.37 31.77l-3.53 0 -3.53 0 -3.53 0 -3.53 0 -3.53 0 -3.54 0 -3.52 0 -3.54 0 -3.53 0 0 -3.53 0 -3.53 0 -3.53 0 -3.53 0 -3.53 0 -3.53 0 -3.53 0 -3.53 0 -3.53 0 -3.53 0 -3.53 0 -3.54 3.53 0 3.54 0 3.52 0 3.54 0 3.53 0 3.53 0 3.53 0 3.53 0 3.53 0 3.53 0 0 3.54 0 3.53 -3.53 0 -3.53 0 -3.53 0 -3.53 0 -3.53 0 -3.53 0 -3.54 0 -3.52 0 0 3.53 0 3.53 3.52 0 3.54 0 3.53 0 0 3.53 0 3.53 -3.53 0 -3.54 0 -3.52 0 0 3.53 0 3.53 0 3.53 0 3.53 3.52 0 3.54 0 3.53 0 3.53 0 3.53 0 3.53 0 3.53 0 3.53 0 0 3.53 0 3.53 -3.53 0z"/>
   <g>
    <polygon fill="black" class="lag" points="296.57,21.18 300.81,21.18 305.04,21.18 305.04,16.94 305.04,12.71 309.28,12.71 309.28,8.47 313.51,8.47 317.75,8.47 317.75,4.24 321.98,4.24 326.22,4.24 330.45,4.24 334.69,4.24 338.92,4.24 343.16,4.24 347.39,4.24 347.39,8.47 351.63,8.47 351.63,12.71 355.86,12.71 355.86,16.94 355.86,21.18 355.86,25.41 351.63,25.41 347.39,25.41 343.16,25.41 338.92,25.41 334.69,25.41 330.45,25.41 326.22,25.41 321.98,25.41 317.75,25.41 313.51,25.41 309.28,25.41 305.04,25.41 300.81,25.41 300.81,21.18 300.81,16.94 300.81,12.71 305.04,12.71 305.04,8.47 309.28,8.47 309.28,4.24 313.51,4.24 317.75,4.24 317.75,0 321.98,0 326.22,0 330.45,0 334.69,0 338.92,0 338.92,4.24 338.92,8.47 343.16,8.47 347.39,8.47 347.39,12.71 351.63,12.71 351.63,16.94 351.63,21.18 355.86,21.18 360.1,21.18 360.1,25.41 360.1,29.65 360.1,33.88 360.1,38.12 360.1,42.35 355.86,42.35 355.86,46.59 355.86,50.82 351.63,50.82 351.63,55.06 347.39,55.06 343.16,55.06 338.92,55.06 334.69,55.06 330.45,55.06 326.22,55.06 321.98,55.06 317.75,55.06 313.51,55.06 309.28,55.06 309.28,50.82 305.04,50.82 305.04,46.59 305.04,42.35 300.81,42.35 300.81,38.12 305.04,38.12 309.28,38.12 313.51,38.12 317.75,38.12 321.98,38.12 326.22,38.12 330.45,38.12 334.69,38.12 338.92,38.12 343.16,38.12 347.39,38.12 351.63,38.12 355.86,38.12 355.86,42.35 351.63,42.35 351.63,46.59 351.63,50.82 347.39,50.82 347.39,55.06 347.39,59.29 343.16,59.29 343.16,63.53 343.16,67.76 343.16,72 343.16,76.23 343.16,80.47 338.92,80.47 338.92,84.7 338.92,88.94 338.92,93.17 338.92,97.41 338.92,101.64 338.92,105.88 338.92,110.11 338.92,114.35 338.92,118.58 334.69,118.58 334.69,122.82 334.69,127.05 334.69,131.29 334.69,135.52 334.69,139.55 338.92,139.55 338.92,143.78 343.16,143.78 343.16,148.02 347.39,148.02 351.63,148.02 351.63,152.25 355.86,152.25 360.1,152.25 360.1,156.49 355.86,156.49 351.63,156.49 351.63,152.25 347.39,152.25 343.16,152.25 343.16,148.02 338.92,148.02 338.92,143.78 334.69,143.78 334.69,139.76 330.45,139.76 330.45,135.52 330.45,131.29 330.45,127.05 326.22,127.05 326.22,122.82 321.98,122.82 321.98,118.58 317.75,118.58 317.75,114.35 317.75,110.11 317.75,105.88 317.75,101.64 317.75,97.41 317.75,93.17 317.75,88.94 317.75,84.7 317.75,80.47 313.51,80.47 313.51,76.23 313.51,72 313.51,67.76 313.51,63.53 313.51,59.29 309.28,59.29 309.28,55.06 305.04,55.06 305.04,50.82 300.81,50.82 300.81,46.59 300.81,42.35 296.57,42.35 296.57,38.12 296.57,33.88 296.57,29.65 296.57,25.41 "/>
    <path fill="white" class="lag" d="M334.69 118.58l0 -4.23 0 -4.24 0 -4.23 0 -4.24 0 -4.23 0 -4.24 0 -4.23 0 -4.24 0 -4.23 -4.24 0 -4.23 0 -4.24 0 0 4.23 0 4.24 0 4.23 0 4.24 0 4.23 0 4.24 0 4.23 0 4.24 0 4.23 4.24 0 4.23 0 4.24 0zm-29.65 -76.23l-4.23 0 0 -4.23 4.23 0 4.24 0 4.23 0 4.24 0 4.23 0 4.24 0 4.23 0 4.24 0 4.23 0 4.24 0 4.23 0 4.24 0 4.23 0 0 4.23 -4.23 0 0 8.47 -4.24 0 0 4.24 -38.11 0 0 -4.24 -4.24 0 0 -8.47zm46.59 -8.47l-4.24 0 -4.23 0 -4.24 0 -4.23 0 -4.24 0 -4.23 0 -4.24 0 -4.23 0 -4.24 0 -4.23 0 -4.24 0 -4.23 0 0 -4.23 4.23 0 4.24 0 4.23 0 4.24 0 4.23 0 4.24 0 4.23 0 4.24 0 4.23 0 4.24 0 4.23 0 4.24 0 4.23 0 0 4.23 -4.23 0zm-12.71 -25.41l0 -4.23 -21.17 0 0 4.23 -8.47 0 0 4.24 -4.24 0 0 8.47 -4.23 0 0 5.03 55.05 0 0 -5.03 -4.23 0 0 -8.47 -4.24 0 0 -4.24 -8.47 0zm0 67.76l0 -4.23 0 -4.24 0 -4.23 0 -4.24 -4.23 0 -4.24 0 -4.23 0 -4.24 0 -4.23 0 0 4.24 0 4.23 0 4.24 0 4.23 4.23 0 4.24 0 4.23 0 4.24 0 4.23 0zm-8.47 -12.7l0 4.23 0 4.24 -4.23 0 0 -4.24 0 -4.23 4.23 0z"/>
   </g>
   <g>
    <polygon fill="black" class="lag" points="292.33,46.59 296.57,46.59 296.57,50.82 292.33,50.82 "/>
    <polygon fill="black" class="lag" points="300.81,50.82 300.81,55.06 296.57,55.06 296.57,50.82 "/>
    <polygon fill="white" class="lag" points="292.33,50.82 296.57,50.82 296.57,55.06 292.33,55.06 "/>
    <polygon fill="black" class="lag" points="292.33,55.06 296.57,55.06 296.57,59.29 292.33,59.29 "/>
    <polygon fill="black" class="lag" points="292.33,50.82 292.33,55.06 288.1,55.06 288.1,50.82 "/>
   </g>
   <g>
    <polygon fill="black" class="lag" points="283.86,4.24 288.1,4.24 288.1,8.47 283.86,8.47 "/>
    <polygon fill="black" class="lag" points="292.33,8.47 292.33,12.71 288.1,12.71 288.1,8.47 "/>
    <polygon fill="white" class="lag" points="283.86,8.47 288.1,8.47 288.1,12.71 283.86,12.71 "/>
    <polygon fill="black" class="lag" points="283.86,12.71 288.1,12.71 288.1,16.94 283.86,16.94 "/>
    <polygon fill="black" class="lag" points="283.86,8.47 283.86,12.71 279.63,12.71 279.63,8.47 "/>
   </g>
  </g>
 </g>
</svg>
