<?xml version="1.0" encoding="UTF-8"?>
<!DOCTYPE svg PUBLIC "-//W3C//DTD SVG 1.1//EN" "http://www.w3.org/Graphics/SVG/1.1/DTD/svg11.dtd">
<!-- Creator: CorelDRAW 2020 (64-Bit) -->
<svg xmlns="http://www.w3.org/2000/svg" xml:space="preserve" width="425px" height="245px" version="1.1" shape-rendering="geometricPrecision" text-rendering="geometricPrecision" image-rendering="optimizeQuality" fill-rule="evenodd" clip-rule="evenodd"
viewBox="0 0 121.77 70.19"
 xmlns:xlink="http://www.w3.org/1999/xlink"
 xmlns:xodm="http://www.corel.com/coreldraw/odm/2003">
 <style>
 .lag {
    animation-name: movelag;
    animation-duration: 1s;
    animation-timing-function: ease-in-out;
    animation-iteration-count: infinite;
}

@keyframes movelag {
    0% {
        transform: translateY(0px);
    }
    49% {
        transform: translateY(0px);
    }
    50% {
        transform: translateY(7px);
    }
    99% {
        transform: translateY(7px);
    }
    100% {
        transform: translateY(0px);
    }
}
</style>
 <defs>
   <clipPath id="id0">
    <path d="M118.9 51.57l0 1.43 0 1.43 0 1.44 0 1.43 0 1.43 0 1.43 0 1.44 -1.43 0 0 1.43 0 1.43 -1.43 0 0 1.43 -1.43 0 -1.44 0 0 1.44 -1.43 0 -1.43 0 -1.43 0 -1.44 0 -1.43 0 -1.43 0 -1.43 0 -85.96 0 -1.43 0 -1.44 0 -1.43 0 -1.43 0 -1.43 0 -1.44 0 -1.43 0 0 -1.44 -1.43 0 -1.43 0 0 -1.43 -1.44 0 0 -1.43 0 -1.43 -1.43 0 0 -1.44 0 -1.43 0 -1.43 0 -1.43 0 -1.44 0 -1.43 0 -1.43 0 -22.92 0 -1.44 0 -1.43 0 -1.43 0 -1.43 0 -1.44 0 -1.43 0 -1.43 1.43 0 0 -1.43 0 -1.44 1.44 0 0 -1.43 1.43 0 1.43 0 0 -1.43 1.43 0 1.44 0 1.43 0 1.43 0 1.43 0 1.44 0 1.43 0 85.96 0 1.43 0 1.43 0 1.43 0 1.44 0 1.43 0 1.43 0 1.43 0 0 1.43 1.44 0 1.43 0 0 1.43 1.43 0 0 1.44 0 1.43 1.43 0 0 1.43 0 1.43 0 1.44 0 1.43 0 1.43 0 1.43 0 1.44 0 22.92z"/>
   </clipPath>
 </defs>
 <g id="Layer_x0020_1">
  <metadata id="CorelCorpID_0Corel-Layer"/>
  <polygon fill="#2E0052" points="5.73,67.33 7.16,67.33 7.16,68.76 8.59,68.76 10.03,68.76 11.46,68.76 12.89,68.76 14.32,68.76 15.76,68.76 17.19,68.76 103.15,68.76 104.58,68.76 106.01,68.76 107.44,68.76 108.88,68.76 110.31,68.76 111.74,68.76 113.17,68.76 113.17,67.33 114.61,67.33 116.04,67.33 116.04,65.89 117.47,65.89 117.47,64.46 118.9,64.46 118.9,63.03 118.9,61.6 120.34,61.6 120.34,60.16 120.34,58.73 120.34,57.3 120.34,55.87 120.34,54.43 120.34,53 120.34,51.57 120.34,28.65 120.34,27.21 120.34,25.78 120.34,24.35 120.34,22.92 120.34,21.48 120.34,20.05 120.34,18.62 118.9,18.62 118.9,17.19 118.9,15.75 117.47,15.75 117.47,14.32 116.04,14.32 116.04,12.89 114.61,12.89 113.17,12.89 113.17,11.46 111.74,11.46 110.31,11.46 108.88,11.46 107.44,11.46 106.01,11.46 104.58,11.46 103.15,11.46 17.19,11.46 15.76,11.46 14.32,11.46 12.89,11.46 11.46,11.46 10.03,11.46 8.59,11.46 7.16,11.46 7.16,12.89 5.73,12.89 4.3,12.89 4.3,14.32 2.86,14.32 2.86,15.75 1.43,15.75 1.43,17.19 1.43,18.62 0,18.62 0,20.05 0,21.48 0,22.92 0,24.35 0,25.78 0,27.21 0,28.65 0,51.57 0,53 0,54.43 0,55.87 0,57.3 0,58.73 0,60.16 0,61.6 1.43,61.6 1.43,63.03 1.43,64.46 2.86,64.46 2.86,65.89 4.3,65.89 4.3,67.33 "/>
  <polygon fill="#2E0052" points="7.16,68.76 8.59,68.76 8.59,70.19 10.03,70.19 11.46,70.19 12.89,70.19 14.32,70.19 15.76,70.19 17.19,70.19 18.62,70.19 104.58,70.19 106.01,70.19 107.44,70.19 108.88,70.19 110.31,70.19 111.74,70.19 113.17,70.19 114.61,70.19 114.61,68.76 116.04,68.76 117.47,68.76 117.47,67.33 118.9,67.33 118.9,65.89 120.34,65.89 120.34,64.46 120.34,63.03 121.77,63.03 121.77,61.6 121.77,60.16 121.77,58.73 121.77,57.3 121.77,55.87 121.77,54.43 121.77,53 121.77,30.08 121.77,28.65 121.77,27.21 121.77,25.78 121.77,24.35 121.77,22.92 121.77,21.48 121.77,20.05 120.34,20.05 120.34,18.62 120.34,17.19 118.9,17.19 118.9,15.75 117.47,15.75 117.47,14.32 116.04,14.32 114.61,14.32 114.61,12.89 113.17,12.89 111.74,12.89 110.31,12.89 108.88,12.89 107.44,12.89 106.01,12.89 104.58,12.89 18.62,12.89 17.19,12.89 15.76,12.89 14.32,12.89 12.89,12.89 11.46,12.89 10.03,12.89 8.59,12.89 8.59,14.32 7.16,14.32 5.73,14.32 5.73,15.75 4.3,15.75 4.3,17.19 2.86,17.19 2.86,18.62 2.86,20.05 1.43,20.05 1.43,21.48 1.43,22.92 1.43,24.35 1.43,25.78 1.43,27.21 1.43,28.65 1.43,30.08 1.43,53 1.43,54.43 1.43,55.87 1.43,57.3 1.43,58.73 1.43,60.16 1.43,61.6 1.43,63.03 2.86,63.03 2.86,64.46 2.86,65.89 4.3,65.89 4.3,67.33 5.73,67.33 5.73,68.76 "/>
  <polygon fill="#C479FF" points="118.9,51.57 118.9,53 118.9,54.43 118.9,55.87 118.9,57.3 118.9,58.73 118.9,60.16 118.9,61.6 117.47,61.6 117.47,63.03 117.47,64.46 116.04,64.46 116.04,65.89 114.61,65.89 113.17,65.89 113.17,67.33 111.74,67.33 110.31,67.33 108.88,67.33 107.44,67.33 106.01,67.33 104.58,67.33 103.15,67.33 17.19,67.33 15.76,67.33 14.32,67.33 12.89,67.33 11.46,67.33 10.03,67.33 8.59,67.33 7.16,67.33 7.16,65.89 5.73,65.89 4.3,65.89 4.3,64.46 2.86,64.46 2.86,63.03 2.86,61.6 1.43,61.6 1.43,60.16 1.43,58.73 1.43,57.3 1.43,55.87 1.43,54.43 1.43,53 1.43,51.57 1.43,28.65 1.43,27.21 1.43,25.78 1.43,24.35 1.43,22.92 1.43,21.48 1.43,20.05 1.43,18.62 2.86,18.62 2.86,17.19 2.86,15.75 4.3,15.75 4.3,14.32 5.73,14.32 7.16,14.32 7.16,12.89 8.59,12.89 10.03,12.89 11.46,12.89 12.89,12.89 14.32,12.89 15.76,12.89 17.19,12.89 103.15,12.89 104.58,12.89 106.01,12.89 107.44,12.89 108.88,12.89 110.31,12.89 111.74,12.89 113.17,12.89 113.17,14.32 114.61,14.32 116.04,14.32 116.04,15.75 117.47,15.75 117.47,17.19 117.47,18.62 118.9,18.62 118.9,20.05 118.9,21.48 118.9,22.92 118.9,24.35 118.9,25.78 118.9,27.21 118.9,28.65 "/>
  <g clip-path="url(#id0)">
   <g id="_2304452872208">
    <polygon id="1" fill="#A22BFF" points="4.3,67.33 5.73,67.33 5.73,68.76 7.16,68.76 8.59,68.76 10.03,68.76 11.46,68.76 12.89,68.76 14.32,68.76 15.76,68.76 101.71,68.76 103.15,68.76 104.58,68.76 106.01,68.76 107.44,68.76 108.88,68.76 110.31,68.76 111.74,68.76 111.74,67.33 113.17,67.33 114.61,67.33 114.61,65.89 116.04,65.89 116.04,64.46 117.47,64.46 117.47,63.03 117.47,61.6 118.9,61.6 118.9,60.16 118.9,58.73 118.9,57.3 118.9,55.87 118.9,54.43 118.9,53 118.9,51.57 118.9,28.65 118.9,27.21 118.9,25.78 118.9,24.35 118.9,22.92 118.9,21.48 118.9,20.05 118.9,18.62 117.47,18.62 117.47,17.19 117.47,15.75 116.04,15.75 116.04,14.32 114.61,14.32 114.61,12.89 113.17,12.89 111.74,12.89 111.74,11.46 110.31,11.46 108.88,11.46 107.44,11.46 106.01,11.46 104.58,11.46 103.15,11.46 101.71,11.46 15.76,11.46 14.32,11.46 12.89,11.46 11.46,11.46 10.03,11.46 8.59,11.46 7.16,11.46 5.73,11.46 5.73,12.89 4.3,12.89 2.86,12.89 2.86,14.32 1.43,14.32 1.43,15.75 0,15.75 0,17.19 0,18.62 -1.43,18.62 -1.43,20.05 -1.43,21.48 -1.43,22.92 -1.43,24.35 -1.43,25.78 -1.43,27.21 -1.43,28.65 -1.43,51.57 -1.43,53 -1.43,54.43 -1.43,55.87 -1.43,57.3 -1.43,58.73 -1.43,60.16 -1.43,61.6 0,61.6 0,63.03 0,64.46 1.43,64.46 1.43,65.89 2.86,65.89 2.86,67.33 "/>
    <polygon fill="#B352FF" points="2.86,64.46 4.3,64.46 4.3,65.89 5.73,65.89 7.16,65.89 8.59,65.89 10.03,65.89 11.46,65.89 12.89,65.89 14.32,65.89 100.28,65.89 101.71,65.89 103.15,65.89 104.58,65.89 106.01,65.89 107.44,65.89 108.88,65.89 110.31,65.89 110.31,64.46 111.74,64.46 113.17,64.46 113.17,63.03 114.61,63.03 114.61,61.6 116.04,61.6 116.04,60.16 116.04,58.73 117.47,58.73 117.47,57.3 117.47,55.87 117.47,54.43 117.47,53 117.47,51.57 117.47,50.14 117.47,48.7 117.47,25.78 117.47,24.35 117.47,22.92 117.47,21.48 117.47,20.05 117.47,18.62 117.47,17.19 117.47,15.75 116.04,15.75 116.04,14.32 116.04,12.89 114.61,12.89 114.61,11.46 113.17,11.46 113.17,10.02 111.74,10.02 110.31,10.02 110.31,8.59 108.88,8.59 107.44,8.59 106.01,8.59 104.58,8.59 103.15,8.59 101.71,8.59 100.28,8.59 14.32,8.59 12.89,8.59 11.46,8.59 10.03,8.59 8.59,8.59 7.16,8.59 5.73,8.59 4.3,8.59 4.3,10.02 2.86,10.02 1.43,10.02 1.43,11.46 0,11.46 0,12.89 -1.43,12.89 -1.43,14.32 -1.43,15.75 -2.86,15.75 -2.86,17.19 -2.86,18.62 -2.86,20.05 -2.86,21.48 -2.86,22.92 -2.86,24.35 -2.86,25.78 -2.86,48.7 -2.86,50.14 -2.86,51.57 -2.86,53 -2.86,54.43 -2.86,55.87 -2.86,57.3 -2.86,58.73 -1.43,58.73 -1.43,60.16 -1.43,61.6 0,61.6 0,63.03 1.43,63.03 1.43,64.46 "/>
    <polygon fill="#C479FF" points="1.43,63.03 2.86,63.03 2.86,64.46 4.3,64.46 5.73,64.46 7.16,64.46 8.59,64.46 10.03,64.46 11.46,64.46 12.89,64.46 98.85,64.46 100.28,64.46 101.71,64.46 103.15,64.46 104.58,64.46 106.01,64.46 107.44,64.46 108.88,64.46 108.88,63.03 110.31,63.03 111.74,63.03 111.74,61.6 113.17,61.6 113.17,60.16 114.61,60.16 114.61,58.73 114.61,57.3 116.04,57.3 116.04,55.87 116.04,54.43 116.04,53 116.04,51.57 116.04,50.14 116.04,48.7 116.04,47.27 116.04,24.35 116.04,22.92 116.04,21.48 116.04,20.05 116.04,18.62 116.04,17.19 116.04,15.75 116.04,14.32 114.61,14.32 114.61,12.89 114.61,11.46 113.17,11.46 113.17,10.02 111.74,10.02 111.74,8.59 110.31,8.59 108.88,8.59 108.88,7.16 107.44,7.16 106.01,7.16 104.58,7.16 103.15,7.16 101.71,7.16 100.28,7.16 98.85,7.16 12.89,7.16 11.46,7.16 10.03,7.16 8.59,7.16 7.16,7.16 5.73,7.16 4.3,7.16 2.86,7.16 2.86,8.59 1.43,8.59 0,8.59 0,10.02 -1.43,10.02 -1.43,11.46 -2.86,11.46 -2.86,12.89 -2.86,14.32 -4.3,14.32 -4.3,15.75 -4.3,17.19 -4.3,18.62 -4.3,20.05 -4.3,21.48 -4.3,22.92 -4.3,24.35 -4.3,47.27 -4.3,48.7 -4.3,50.14 -4.3,51.57 -4.3,53 -4.3,54.43 -4.3,55.87 -4.3,57.3 -2.86,57.3 -2.86,58.73 -2.86,60.16 -1.43,60.16 -1.43,61.6 0,61.6 0,63.03 "/>
   </g>
  </g>
  <polygon fill="none" points="118.9,51.57 118.9,53 118.9,54.43 118.9,55.87 118.9,57.3 118.9,58.73 118.9,60.16 118.9,61.6 117.47,61.6 117.47,63.03 117.47,64.46 116.04,64.46 116.04,65.89 114.61,65.89 113.17,65.89 113.17,67.33 111.74,67.33 110.31,67.33 108.88,67.33 107.44,67.33 106.01,67.33 104.58,67.33 103.15,67.33 17.19,67.33 15.76,67.33 14.32,67.33 12.89,67.33 11.46,67.33 10.03,67.33 8.59,67.33 7.16,67.33 7.16,65.89 5.73,65.89 4.3,65.89 4.3,64.46 2.86,64.46 2.86,63.03 2.86,61.6 1.43,61.6 1.43,60.16 1.43,58.73 1.43,57.3 1.43,55.87 1.43,54.43 1.43,53 1.43,51.57 1.43,28.65 1.43,27.21 1.43,25.78 1.43,24.35 1.43,22.92 1.43,21.48 1.43,20.05 1.43,18.62 2.86,18.62 2.86,17.19 2.86,15.75 4.3,15.75 4.3,14.32 5.73,14.32 7.16,14.32 7.16,12.89 8.59,12.89 10.03,12.89 11.46,12.89 12.89,12.89 14.32,12.89 15.76,12.89 17.19,12.89 103.15,12.89 104.58,12.89 106.01,12.89 107.44,12.89 108.88,12.89 110.31,12.89 111.74,12.89 113.17,12.89 113.17,14.32 114.61,14.32 116.04,14.32 116.04,15.75 117.47,15.75 117.47,17.19 117.47,18.62 118.9,18.62 118.9,20.05 118.9,21.48 118.9,22.92 118.9,24.35 118.9,25.78 118.9,27.21 118.9,28.65 "/>
  <path fill="black" fill-rule="nonzero" d="M30.72 47.27l-1.19 0 0 -1.19 0 -1.2 0 -1.19 1.19 0 1.2 0 0 1.19 0 1.2 0 1.19 -1.2 0zm-8.36 0l-1.19 0 0 -1.19 0 -1.2 0 -1.19 0 -1.19 0 -1.2 0 -1.19 0 -1.2 0 -1.19 0 -1.19 0 -1.2 0 -1.19 0 -1.2 1.19 0 1.2 0 0 1.2 0 1.19 0 1.2 0 1.19 0 1.19 1.19 0 1.2 0 1.19 0 0 1.2 0 1.19 1.19 0 1.2 0 0 1.2 0 1.19 -1.2 0 -1.19 0 0 -1.19 0 -1.2 -1.19 0 -1.2 0 -1.19 0 0 1.2 0 1.19 0 1.19 0 1.2 0 1.19 -1.2 0zm4.78 -8.36l0 -1.19 0 -1.19 1.19 0 1.2 0 0 1.19 0 1.19 -1.2 0 -1.19 0zm2.39 -2.38l0 -1.2 0 -1.19 1.19 0 1.2 0 0 1.19 0 1.2 -1.2 0 -1.19 0zm14.32 10.74l-1.19 0 0 -1.19 0 -1.2 0 -1.19 0 -1.19 0 -1.2 -1.19 0 -1.2 0 -1.19 0 -1.2 0 -1.19 0 -1.19 0 0 1.2 0 1.19 0 1.19 0 1.2 0 1.19 -1.2 0 -1.19 0 0 -1.19 0 -1.2 0 -1.19 0 -1.19 0 -1.2 0 -1.19 0 -1.2 0 -1.19 0 -1.19 0 -1.2 0 -1.19 0 -1.2 1.19 0 1.2 0 0 1.2 0 1.19 0 1.2 0 1.19 0 1.19 1.19 0 1.19 0 1.2 0 1.19 0 1.2 0 1.19 0 0 -1.19 0 -1.19 0 -1.2 0 -1.19 0 -1.2 1.19 0 1.2 0 0 1.2 0 1.19 0 1.2 0 1.19 0 1.19 0 1.2 0 1.19 0 1.2 0 1.19 0 1.19 0 1.2 0 1.19 -1.2 0zm13.14 0l-1.2 0 -1.19 0 -1.2 0 -1.19 0 -1.19 0 -1.2 0 -1.19 0 0 -1.19 0 -1.2 1.19 0 1.2 0 1.19 0 1.19 0 1.2 0 1.19 0 1.2 0 1.19 0 0 1.2 0 1.19 -1.19 0zm1.19 -2.39l0 -1.19 0 -1.19 0 -1.2 0 -1.19 0 -1.2 0 -1.19 0 -1.19 0 -1.2 1.19 0 1.2 0 0 1.2 0 1.19 0 1.19 0 1.2 0 1.19 0 1.2 0 1.19 0 1.19 -1.2 0 -1.19 0zm-9.55 0l-1.2 0 -1.19 0 0 -1.19 0 -1.19 0 -1.2 0 -1.19 0 -1.2 0 -1.19 0 -1.19 0 -1.2 1.19 0 1.2 0 0 1.2 0 1.19 0 1.19 0 1.2 0 1.19 0 1.2 0 1.19 0 1.19zm9.55 -9.55l-1.19 0 -1.2 0 -1.19 0 -1.2 0 -1.19 0 -1.19 0 -1.2 0 -1.19 0 0 -1.19 0 -1.2 1.19 0 1.2 0 1.19 0 1.19 0 1.2 0 1.19 0 1.2 0 1.19 0 0 1.2 0 1.19zm11.94 11.94l-1.2 0 -1.19 0 -1.19 0 -1.2 0 -1.19 0 -1.2 0 -1.19 0 0 -1.19 0 -1.2 0 -1.19 0 -1.19 0 -1.2 0 -1.19 0 -1.2 0 -1.19 0 -1.19 0 -1.2 0 -1.19 0 -1.2 1.19 0 1.2 0 1.19 0 1.2 0 1.19 0 1.19 0 1.2 0 1.19 0 0 1.2 0 1.19 1.19 0 1.2 0 0 1.2 0 1.19 0 1.19 0 1.2 0 1.19 0 1.2 0 1.19 0 1.19 -1.2 0 -1.19 0 0 -1.19 0 -1.19 0 -1.2 0 -1.19 0 -1.2 0 -1.19 0 -1.19 0 -1.2 -1.19 0 -1.2 0 -1.19 0 -1.19 0 -1.2 0 -1.19 0 0 1.2 0 1.19 0 1.19 0 1.2 0 1.19 0 1.2 0 1.19 0 1.19 1.19 0 1.2 0 1.19 0 1.19 0 1.2 0 1.19 0 0 1.2 0 1.19 -1.19 0zm14.32 0l-1.19 0 0 -1.19 0 -1.2 0 -1.19 0 -1.19 0 -1.2 0 -1.19 -1.19 0 -1.2 0 -1.19 0 -1.2 0 -1.19 0 0 1.19 0 1.2 0 1.19 0 1.19 0 1.2 0 1.19 -1.19 0 -1.2 0 0 -1.19 0 -1.2 0 -1.19 0 -1.19 0 -1.2 0 -1.19 0 -1.2 0 -1.19 0 -1.19 0 -1.2 1.2 0 1.19 0 0 1.2 0 1.19 1.19 0 1.2 0 1.19 0 1.2 0 1.19 0 0 -1.19 0 -1.2 1.19 0 1.2 0 0 1.2 0 1.19 0 1.19 0 1.2 0 1.19 0 1.2 0 1.19 0 1.19 0 1.2 0 1.19 -1.2 0zm-1.19 -11.94l-1.19 0 -1.2 0 -1.19 0 -1.2 0 -1.19 0 0 -1.19 0 -1.2 1.19 0 1.2 0 1.19 0 1.2 0 1.19 0 0 1.2 0 1.19zm14.32 11.94l-1.19 0 0 -1.19 0 -1.2 0 -1.19 0 -1.19 0 -1.2 0 -1.19 0 -1.2 0 -1.19 -1.19 0 -1.2 0 0 1.19 0 1.2 -1.19 0 -1.19 0 0 -1.2 0 -1.19 1.19 0 1.19 0 0 -1.19 0 -1.2 1.2 0 1.19 0 0 -1.19 0 -1.2 1.19 0 1.2 0 0 1.2 0 1.19 0 1.2 0 1.19 0 1.19 0 1.2 0 1.19 0 1.2 0 1.19 0 1.19 0 1.2 0 1.19 -1.2 0zm-9.55 0l-1.19 0 0 -1.19 0 -1.2 0 -1.19 0 -1.19 0 -1.2 0 -1.19 0 -1.2 0 -1.19 0 -1.19 0 -1.2 0 -1.19 0 -1.2 1.19 0 1.2 0 0 1.2 0 1.19 1.19 0 1.2 0 0 1.2 0 1.19 -1.2 0 -1.19 0 0 1.19 0 1.2 0 1.19 0 1.2 0 1.19 0 1.19 0 1.2 0 1.19 -1.2 0z"/>
  <g id="_2304452884064">
   <polygon fill="black" class="lag" points="104.07,27.55 101.95,27.55 101.95,29.67 104.07,29.67 "/>
   <polygon fill="black" class="lag" points="99.83,12.72 99.83,10.6 101.95,10.6 101.95,8.48 101.95,6.36 104.07,6.36 104.07,4.24 106.19,4.24 106.19,2.12 108.31,2.12 108.31,0 110.43,0 112.55,0 114.67,0 116.79,0 116.79,2.12 118.9,2.12 118.9,4.24 116.79,4.24 116.79,6.36 114.67,6.36 114.67,8.48 112.55,8.48 112.55,10.6 110.43,10.6 110.43,12.72 112.55,12.72 114.67,12.72 116.79,12.72 116.79,14.83 118.9,14.83 118.9,16.95 116.79,16.95 116.79,19.07 114.67,19.07 114.67,21.19 112.55,21.19 112.55,23.31 110.43,23.31 110.43,25.43 108.31,25.43 108.31,27.55 106.19,27.55 106.19,29.67 104.07,29.67 104.07,31.79 101.95,31.79 101.95,29.67 99.83,29.67 99.83,27.55 101.95,27.55 101.95,25.43 101.95,23.31 104.07,23.31 104.07,21.19 104.07,19.07 106.19,19.07 106.19,16.95 104.07,16.95 101.95,16.95 99.83,16.95 99.83,14.83 97.71,14.83 97.71,12.72 "/>
   <polygon fill="white" class="lag" points="99.83,14.83 101.95,14.83 104.07,14.83 106.19,14.83 108.31,14.83 108.31,16.95 108.31,19.07 106.19,19.07 106.19,21.19 106.19,23.31 104.07,23.31 104.07,25.43 104.07,27.55 104.07,29.67 101.95,29.67 101.95,27.55 104.07,27.55 106.19,27.55 106.19,25.43 108.31,25.43 108.31,23.31 110.43,23.31 110.43,21.19 112.55,21.19 112.55,19.07 114.67,19.07 114.67,16.95 116.79,16.95 116.79,14.83 114.67,14.83 112.55,14.83 110.43,14.83 110.43,12.72 108.31,12.72 108.31,10.6 110.43,10.6 110.43,8.48 112.55,8.48 112.55,6.36 114.67,6.36 114.67,4.24 116.79,4.24 116.79,2.12 114.67,2.12 112.55,2.12 110.43,2.12 108.31,2.12 108.31,4.24 106.19,4.24 106.19,6.36 104.07,6.36 104.07,8.48 104.07,10.6 101.95,10.6 101.95,12.72 99.83,12.72 "/>
  </g>
 </g>
</svg>
