<?xml version="1.0" encoding="UTF-8"?>
<!DOCTYPE svg PUBLIC "-//W3C//DTD SVG 1.1//EN" "http://www.w3.org/Graphics/SVG/1.1/DTD/svg11.dtd">
<!-- Creator: CorelDRAW 2020 (64-Bit) -->
<svg xmlns="http://www.w3.org/2000/svg" xml:space="preserve" width="500px" height="245px" version="1.1" shape-rendering="geometricPrecision" text-rendering="geometricPrecision" image-rendering="optimizeQuality" fill-rule="evenodd" clip-rule="evenodd"
viewBox="0 0 58.88 28.85"
 xmlns:xlink="http://www.w3.org/1999/xlink"
 xmlns:xodm="http://www.corel.com/coreldraw/odm/2003">
 <style>
 .lag {
    animation-name: movelag;
    animation-duration: 1s;
    animation-timing-function: ease-in-out;
    animation-iteration-count: infinite;
}

@keyframes movelag {
    0% {
        transform: translateY(0px);
    }
    49% {
        transform: translateY(0px);
    }
    50% {
        transform: translateY(3px);
    }
    99% {
        transform: translateY(3px);
    }
    100% {
        transform: translateY(0px);
    }
}
</style>
 <defs>
    <clipPath id="id0">
     <path d="M57.7 21.2l0 0.58 0 0.59 0 0.59 0 0.59 0 0.59 0 0.59 0 0.59 -0.59 0 0 0.59 0 0.58 -0.59 0 0 0.59 -0.59 0 -0.59 0 0 0.59 -0.58 0 -0.59 0 -0.59 0 -0.59 0 -0.59 0 -0.59 0 -0.59 0 -44.16 0 -0.58 0 -0.59 0 -0.59 0 -0.59 0 -0.59 0 -0.59 0 -0.59 0 0 -0.59 -0.59 0 -0.58 0 0 -0.59 -0.59 0 0 -0.58 0 -0.59 -0.59 0 0 -0.59 0 -0.59 0 -0.59 0 -0.59 0 -0.59 0 -0.59 0 -0.58 0 -9.43 0 -0.58 0 -0.59 0 -0.59 0 -0.59 0 -0.59 0 -0.59 0 -0.59 0.59 0 0 -0.59 0 -0.58 0.59 0 0 -0.59 0.58 0 0.59 0 0 -0.59 0.59 0 0.59 0 0.59 0 0.59 0 0.59 0 0.59 0 0.58 0 44.16 0 0.59 0 0.59 0 0.59 0 0.59 0 0.59 0 0.59 0 0.58 0 0 0.59 0.59 0 0.59 0 0 0.59 0.59 0 0 0.58 0 0.59 0.59 0 0 0.59 0 0.59 0 0.59 0 0.59 0 0.59 0 0.59 0 0.58 0 9.43z"/>
    </clipPath>
 </defs>
 <g id="Layer_x0020_1">
  <metadata id="CorelCorpID_0Corel-Layer"/>
  <g id="_2240449799408">
   <polygon fill="#2E0052" points="2.35,27.67 2.94,27.67 2.94,28.26 3.53,28.26 4.12,28.26 4.71,28.26 5.3,28.26 5.89,28.26 6.48,28.26 7.06,28.26 51.22,28.26 51.81,28.26 52.4,28.26 52.99,28.26 53.58,28.26 54.17,28.26 54.76,28.26 55.34,28.26 55.34,27.67 55.93,27.67 56.52,27.67 56.52,27.08 57.11,27.08 57.11,26.49 57.7,26.49 57.7,25.91 57.7,25.32 58.29,25.32 58.29,24.73 58.29,24.14 58.29,23.55 58.29,22.96 58.29,22.37 58.29,21.78 58.29,21.2 58.29,11.77 58.29,11.19 58.29,10.6 58.29,10.01 58.29,9.42 58.29,8.83 58.29,8.24 58.29,7.65 57.7,7.65 57.7,7.06 57.7,6.48 57.11,6.48 57.11,5.89 56.52,5.89 56.52,5.3 55.93,5.3 55.34,5.3 55.34,4.71 54.76,4.71 54.17,4.71 53.58,4.71 52.99,4.71 52.4,4.71 51.81,4.71 51.22,4.71 7.06,4.71 6.48,4.71 5.89,4.71 5.3,4.71 4.71,4.71 4.12,4.71 3.53,4.71 2.94,4.71 2.94,5.3 2.35,5.3 1.77,5.3 1.77,5.89 1.18,5.89 1.18,6.48 0.59,6.48 0.59,7.06 0.59,7.65 0,7.65 0,8.24 0,8.83 0,9.42 0,10.01 0,10.6 0,11.19 0,11.77 0,21.2 0,21.78 0,22.37 0,22.96 0,23.55 0,24.14 0,24.73 0,25.32 0.59,25.32 0.59,25.91 0.59,26.49 1.18,26.49 1.18,27.08 1.77,27.08 1.77,27.67 "/>
   <polygon fill="#2E0052" points="2.94,28.26 3.53,28.26 3.53,28.85 4.12,28.85 4.71,28.85 5.3,28.85 5.89,28.85 6.48,28.85 7.06,28.85 7.65,28.85 51.81,28.85 52.4,28.85 52.99,28.85 53.58,28.85 54.17,28.85 54.76,28.85 55.34,28.85 55.93,28.85 55.93,28.26 56.52,28.26 57.11,28.26 57.11,27.67 57.7,27.67 57.7,27.08 58.29,27.08 58.29,26.49 58.29,25.91 58.88,25.91 58.88,25.32 58.88,24.73 58.88,24.14 58.88,23.55 58.88,22.96 58.88,22.37 58.88,21.78 58.88,12.36 58.88,11.77 58.88,11.19 58.88,10.6 58.88,10.01 58.88,9.42 58.88,8.83 58.88,8.24 58.29,8.24 58.29,7.65 58.29,7.06 57.7,7.06 57.7,6.48 57.11,6.48 57.11,5.89 56.52,5.89 55.93,5.89 55.93,5.3 55.34,5.3 54.76,5.3 54.17,5.3 53.58,5.3 52.99,5.3 52.4,5.3 51.81,5.3 7.65,5.3 7.06,5.3 6.48,5.3 5.89,5.3 5.3,5.3 4.71,5.3 4.12,5.3 3.53,5.3 3.53,5.89 2.94,5.89 2.35,5.89 2.35,6.48 1.77,6.48 1.77,7.06 1.18,7.06 1.18,7.65 1.18,8.24 0.59,8.24 0.59,8.83 0.59,9.42 0.59,10.01 0.59,10.6 0.59,11.19 0.59,11.77 0.59,12.36 0.59,21.78 0.59,22.37 0.59,22.96 0.59,23.55 0.59,24.14 0.59,24.73 0.59,25.32 0.59,25.91 1.18,25.91 1.18,26.49 1.18,27.08 1.77,27.08 1.77,27.67 2.35,27.67 2.35,28.26 "/>
   <polygon fill="#C479FF" points="57.7,21.2 57.7,21.78 57.7,22.37 57.7,22.96 57.7,23.55 57.7,24.14 57.7,24.73 57.7,25.32 57.11,25.32 57.11,25.91 57.11,26.49 56.52,26.49 56.52,27.08 55.93,27.08 55.34,27.08 55.34,27.67 54.76,27.67 54.17,27.67 53.58,27.67 52.99,27.67 52.4,27.67 51.81,27.67 51.22,27.67 7.06,27.67 6.48,27.67 5.89,27.67 5.3,27.67 4.71,27.67 4.12,27.67 3.53,27.67 2.94,27.67 2.94,27.08 2.35,27.08 1.77,27.08 1.77,26.49 1.18,26.49 1.18,25.91 1.18,25.32 0.59,25.32 0.59,24.73 0.59,24.14 0.59,23.55 0.59,22.96 0.59,22.37 0.59,21.78 0.59,21.2 0.59,11.77 0.59,11.19 0.59,10.6 0.59,10.01 0.59,9.42 0.59,8.83 0.59,8.24 0.59,7.65 1.18,7.65 1.18,7.06 1.18,6.48 1.77,6.48 1.77,5.89 2.35,5.89 2.94,5.89 2.94,5.3 3.53,5.3 4.12,5.3 4.71,5.3 5.3,5.3 5.89,5.3 6.48,5.3 7.06,5.3 51.22,5.3 51.81,5.3 52.4,5.3 52.99,5.3 53.58,5.3 54.17,5.3 54.76,5.3 55.34,5.3 55.34,5.89 55.93,5.89 56.52,5.89 56.52,6.48 57.11,6.48 57.11,7.06 57.11,7.65 57.7,7.65 57.7,8.24 57.7,8.83 57.7,9.42 57.7,10.01 57.7,10.6 57.7,11.19 57.7,11.77 "/>
   <g clip-path="url(#id0)">
    <g>
     <polygon id="1" fill="#A22BFF" points="2.94,27.67 3.53,27.67 3.53,28.26 4.12,28.26 4.71,28.26 5.3,28.26 5.89,28.26 6.48,28.26 7.06,28.26 7.65,28.26 50.63,28.26 51.22,28.26 51.81,28.26 52.4,28.26 52.99,28.26 53.58,28.26 54.17,28.26 54.76,28.26 54.76,27.67 55.34,27.67 55.93,27.67 55.93,27.08 56.52,27.08 56.52,26.49 57.11,26.49 57.11,25.91 57.11,25.32 57.7,25.32 57.7,24.73 57.7,24.14 57.7,23.55 57.7,22.96 57.7,22.37 57.7,21.78 57.7,21.2 57.7,11.77 57.7,11.19 57.7,10.6 57.7,10.01 57.7,9.42 57.7,8.83 57.7,8.24 57.7,7.65 57.11,7.65 57.11,7.06 57.11,6.48 56.52,6.48 56.52,5.89 55.93,5.89 55.93,5.3 55.34,5.3 54.76,5.3 54.76,4.71 54.17,4.71 53.58,4.71 52.99,4.71 52.4,4.71 51.81,4.71 51.22,4.71 50.63,4.71 7.65,4.71 7.06,4.71 6.48,4.71 5.89,4.71 5.3,4.71 4.71,4.71 4.12,4.71 3.53,4.71 3.53,5.3 2.94,5.3 2.35,5.3 2.35,5.89 1.77,5.89 1.77,6.48 1.18,6.48 1.18,7.06 1.18,7.65 0.59,7.65 0.59,8.24 0.59,8.83 0.59,9.42 0.59,10.01 0.59,10.6 0.59,11.19 0.59,11.77 0.59,21.2 0.59,21.78 0.59,22.37 0.59,22.96 0.59,23.55 0.59,24.14 0.59,24.73 0.59,25.32 1.18,25.32 1.18,25.91 1.18,26.49 1.77,26.49 1.77,27.08 2.35,27.08 2.35,27.67 "/>
     <polygon fill="#B352FF" points="2.35,26.49 2.94,26.49 2.94,27.08 3.53,27.08 4.12,27.08 4.71,27.08 5.3,27.08 5.89,27.08 6.48,27.08 7.06,27.08 50.05,27.08 50.63,27.08 51.22,27.08 51.81,27.08 52.4,27.08 52.99,27.08 53.58,27.08 54.17,27.08 54.17,26.49 54.76,26.49 55.34,26.49 55.34,25.91 55.93,25.91 55.93,25.32 56.52,25.32 56.52,24.73 56.52,24.14 57.11,24.14 57.11,23.55 57.11,22.96 57.11,22.37 57.11,21.78 57.11,21.2 57.11,20.61 57.11,20.02 57.11,10.6 57.11,10.01 57.11,9.42 57.11,8.83 57.11,8.24 57.11,7.65 57.11,7.06 57.11,6.48 56.52,6.48 56.52,5.89 56.52,5.3 55.93,5.3 55.93,4.71 55.34,4.71 55.34,4.12 54.76,4.12 54.17,4.12 54.17,3.53 53.58,3.53 52.99,3.53 52.4,3.53 51.81,3.53 51.22,3.53 50.63,3.53 50.05,3.53 7.06,3.53 6.48,3.53 5.89,3.53 5.3,3.53 4.71,3.53 4.12,3.53 3.53,3.53 2.94,3.53 2.94,4.12 2.35,4.12 1.77,4.12 1.77,4.71 1.18,4.71 1.18,5.3 0.59,5.3 0.59,5.89 0.59,6.48 0,6.48 0,7.06 0,7.65 0,8.24 0,8.83 0,9.42 0,10.01 0,10.6 0,20.02 0,20.61 0,21.2 0,21.78 0,22.37 0,22.96 0,23.55 0,24.14 0.59,24.14 0.59,24.73 0.59,25.32 1.18,25.32 1.18,25.91 1.77,25.91 1.77,26.49 "/>
     <polygon fill="#C479FF" points="1.77,25.91 2.35,25.91 2.35,26.49 2.94,26.49 3.53,26.49 4.12,26.49 4.71,26.49 5.3,26.49 5.89,26.49 6.48,26.49 49.46,26.49 50.05,26.49 50.63,26.49 51.22,26.49 51.81,26.49 52.4,26.49 52.99,26.49 53.58,26.49 53.58,25.91 54.17,25.91 54.76,25.91 54.76,25.32 55.34,25.32 55.34,24.73 55.93,24.73 55.93,24.14 55.93,23.55 56.52,23.55 56.52,22.96 56.52,22.37 56.52,21.78 56.52,21.2 56.52,20.61 56.52,20.02 56.52,19.43 56.52,10.01 56.52,9.42 56.52,8.83 56.52,8.24 56.52,7.65 56.52,7.06 56.52,6.48 56.52,5.89 55.93,5.89 55.93,5.3 55.93,4.71 55.34,4.71 55.34,4.12 54.76,4.12 54.76,3.53 54.17,3.53 53.58,3.53 53.58,2.94 52.99,2.94 52.4,2.94 51.81,2.94 51.22,2.94 50.63,2.94 50.05,2.94 49.46,2.94 6.48,2.94 5.89,2.94 5.3,2.94 4.71,2.94 4.12,2.94 3.53,2.94 2.94,2.94 2.35,2.94 2.35,3.53 1.77,3.53 1.18,3.53 1.18,4.12 0.59,4.12 0.59,4.71 0,4.71 0,5.3 0,5.89 -0.59,5.89 -0.59,6.48 -0.59,7.06 -0.59,7.65 -0.59,8.24 -0.59,8.83 -0.59,9.42 -0.59,10.01 -0.59,19.43 -0.59,20.02 -0.59,20.61 -0.59,21.2 -0.59,21.78 -0.59,22.37 -0.59,22.96 -0.59,23.55 0,23.55 0,24.14 0,24.73 0.59,24.73 0.59,25.32 1.18,25.32 1.18,25.91 "/>
    </g>
   </g>
   <polygon fill="none" points="57.7,21.2 57.7,21.78 57.7,22.37 57.7,22.96 57.7,23.55 57.7,24.14 57.7,24.73 57.7,25.32 57.11,25.32 57.11,25.91 57.11,26.49 56.52,26.49 56.52,27.08 55.93,27.08 55.34,27.08 55.34,27.67 54.76,27.67 54.17,27.67 53.58,27.67 52.99,27.67 52.4,27.67 51.81,27.67 51.22,27.67 7.06,27.67 6.48,27.67 5.89,27.67 5.3,27.67 4.71,27.67 4.12,27.67 3.53,27.67 2.94,27.67 2.94,27.08 2.35,27.08 1.77,27.08 1.77,26.49 1.18,26.49 1.18,25.91 1.18,25.32 0.59,25.32 0.59,24.73 0.59,24.14 0.59,23.55 0.59,22.96 0.59,22.37 0.59,21.78 0.59,21.2 0.59,11.77 0.59,11.19 0.59,10.6 0.59,10.01 0.59,9.42 0.59,8.83 0.59,8.24 0.59,7.65 1.18,7.65 1.18,7.06 1.18,6.48 1.77,6.48 1.77,5.89 2.35,5.89 2.94,5.89 2.94,5.3 3.53,5.3 4.12,5.3 4.71,5.3 5.3,5.3 5.89,5.3 6.48,5.3 7.06,5.3 51.22,5.3 51.81,5.3 52.4,5.3 52.99,5.3 53.58,5.3 54.17,5.3 54.76,5.3 55.34,5.3 55.34,5.89 55.93,5.89 56.52,5.89 56.52,6.48 57.11,6.48 57.11,7.06 57.11,7.65 57.7,7.65 57.7,8.24 57.7,8.83 57.7,9.42 57.7,10.01 57.7,10.6 57.7,11.19 57.7,11.77 "/>
   <path fill="black" fill-rule="nonzero" d="M11.48 19.43l-0.49 0 -0.49 0 -0.49 0 -0.49 0 -0.49 0 -0.49 0 0 -0.49 0 -0.49 0.49 0 0.49 0 0.49 0 0.49 0 0.49 0 0.49 0 0.49 0 0 0.49 0 0.49 -0.49 0zm0.49 -0.98l0 -0.49 0 -0.49 0 -0.49 0 -0.49 0.49 0 0.49 0 0 0.49 0 0.49 0 0.49 0 0.49 -0.49 0 -0.49 0zm0 -1.96l-0.49 0 -0.49 0 -0.49 0 -0.49 0 -0.49 0 0 -0.5 0 -0.49 0.49 0 0.49 0 0.49 0 0.49 0 0.49 0 0 0.49 0 0.5zm-2.45 -0.99l-0.49 0 -0.49 0 0 -0.49 0 -0.49 0.49 0 0.49 0 0 0.49 0 0.49zm2.94 -0.98l-0.49 0 -0.49 0 -0.49 0 -0.49 0 -0.49 0 -0.49 0 0 -0.49 0 -0.49 0.49 0 0.49 0 0.49 0 0.49 0 0.49 0 0.49 0 0.49 0 0 0.49 0 0.49 -0.49 0zm5.4 4.91l-0.49 0 -0.49 0 -0.49 0 -0.49 0 -0.49 0 -0.49 0 -0.5 0 -0.49 0 -0.49 0 0 -0.49 0 -0.49 0 -0.49 0 -0.49 0 -0.49 0 -0.49 0 -0.5 0 -0.49 0 -0.49 0 -0.49 0 -0.49 0 -0.49 0.49 0 0.49 0 0.5 0 0.49 0 0.49 0 0.49 0 0.49 0 0.49 0 0.49 0 0.49 0 0 0.49 0 0.49 -0.49 0 -0.49 0 -0.49 0 -0.49 0 -0.49 0 -0.49 0 -0.49 0 -0.5 0 0 0.49 0 0.49 0.5 0 0.49 0 0.49 0 0 0.49 0 0.5 -0.49 0 -0.49 0 -0.5 0 0 0.49 0 0.49 0 0.49 0 0.49 0.5 0 0.49 0 0.49 0 0.49 0 0.49 0 0.49 0 0.49 0 0.49 0 0 0.49 0 0.49 -0.49 0zm5.4 0l-0.49 0 0 -0.49 0 -0.49 0 -0.49 0 -0.49 0 -0.49 -0.5 0 -0.49 0 0 -0.49 0 -0.5 0.49 0 0.5 0 0 -0.49 0 -0.49 0 -0.49 0 -0.49 0 -0.49 0.49 0 0.49 0 0 0.49 0 0.49 0 0.49 0 0.49 0 0.49 0 0.5 0 0.49 0 0.49 0 0.49 0 0.49 0 0.49 0 0.49 -0.49 0zm-3.93 0l-0.49 0 0 -0.49 0 -0.49 0 -0.49 0 -0.49 0 -0.49 0 -0.49 0 -0.5 0 -0.49 0 -0.49 0 -0.49 0 -0.49 0 -0.49 0.49 0 0.49 0 0 0.49 0.49 0 0.49 0 0 0.49 0 0.49 0.49 0 0.49 0 0 0.49 0 0.49 -0.49 0 -0.49 0 0 -0.49 0 -0.49 -0.49 0 -0.49 0 0 0.49 0 0.49 0 0.5 0 0.49 0 0.49 0 0.49 0 0.49 0 0.49 0 0.49 -0.49 0zm8.34 0l-0.49 0 -0.49 0 -0.49 0 -0.49 0 -0.49 0 -0.49 0 -0.49 0 0 -0.49 0 -0.49 0 -0.49 0 -0.49 0 -0.49 0 -0.49 0 -0.5 0 -0.49 0 -0.49 0 -0.49 0 -0.49 0 -0.49 0.49 0 0.49 0 0.49 0 0.49 0 0.49 0 0.49 0 0.49 0 0.49 0 0 0.49 0 0.49 0.49 0 0.49 0 0 0.49 0 0.49 0 0.49 -0.49 0 -0.49 0 0 -0.49 0 -0.49 0 -0.49 -0.49 0 -0.49 0 -0.49 0 -0.49 0 -0.49 0 -0.49 0 0 0.49 0 0.49 0 0.49 0.49 0 0.49 0 0.49 0 0.49 0 0.49 0 0.49 0 0 0.5 0 0.49 0.49 0 0.49 0 0 0.49 0 0.49 0 0.49 -0.49 0 -0.49 0 0 -0.49 0 -0.49 0 -0.49 -0.49 0 -0.49 0 -0.49 0 -0.49 0 -0.49 0 -0.49 0 0 0.49 0 0.49 0 0.49 0.49 0 0.49 0 0.49 0 0.49 0 0.49 0 0.49 0 0 0.49 0 0.49 -0.49 0zm5.89 0l-0.49 0 0 -0.49 0 -0.49 0 -0.49 0 -0.49 0 -0.49 0 -0.49 -0.49 0 -0.49 0 -0.49 0 -0.49 0 -0.49 0 0 0.49 0 0.49 0 0.49 0 0.49 0 0.49 0 0.49 -0.49 0 -0.5 0 0 -0.49 0 -0.49 0 -0.49 0 -0.49 0 -0.49 0 -0.49 0 -0.5 0 -0.49 0 -0.49 0 -0.49 0.5 0 0.49 0 0 0.49 0 0.49 0.49 0 0.49 0 0.49 0 0.49 0 0.49 0 0 -0.49 0 -0.49 0.49 0 0.49 0 0 0.49 0 0.49 0 0.49 0 0.5 0 0.49 0 0.49 0 0.49 0 0.49 0 0.49 0 0.49 -0.49 0zm-0.49 -4.91l-0.49 0 -0.49 0 -0.49 0 -0.49 0 -0.49 0 0 -0.49 0 -0.49 0.49 0 0.49 0 0.49 0 0.49 0 0.49 0 0 0.49 0 0.49zm3.92 4.91l-0.49 0 0 -0.49 0 -0.49 0 -0.49 0 -0.49 0 -0.49 0 -0.49 0 -0.5 0 -0.49 0 -0.49 0 -0.49 -0.49 0 -0.49 0 -0.49 0 -0.49 0 0 -0.49 0 -0.49 0.49 0 0.49 0 0.49 0 0.49 0 0.49 0 0.49 0 0.5 0 0.49 0 0.49 0 0.49 0 0 0.49 0 0.49 -0.49 0 -0.49 0 -0.49 0 -0.5 0 0 0.49 0 0.49 0 0.49 0 0.5 0 0.49 0 0.49 0 0.49 0 0.49 0 0.49 0 0.49 -0.49 0zm5.89 0l-0.49 0 -0.49 0 -0.49 0 -0.49 0 -0.49 0 -0.49 0 0 -0.49 0 -0.49 0.49 0 0.49 0 0.49 0 0.49 0 0.49 0 0.49 0 0.49 0 0 0.49 0 0.49 -0.49 0zm0.49 -0.98l0 -0.49 0 -0.49 0 -0.49 0 -0.49 0.49 0 0.49 0 0 0.49 0 0.49 0 0.49 0 0.49 -0.49 0 -0.49 0zm0 -1.96l-0.49 0 -0.49 0 -0.49 0 -0.49 0 -0.49 0 0 -0.5 0 -0.49 0.49 0 0.49 0 0.49 0 0.49 0 0.49 0 0 0.49 0 0.5zm-2.45 -0.99l-0.49 0 -0.49 0 0 -0.49 0 -0.49 0.49 0 0.49 0 0 0.49 0 0.49zm2.94 -0.98l-0.49 0 -0.49 0 -0.49 0 -0.49 0 -0.49 0 -0.49 0 0 -0.49 0 -0.49 0.49 0 0.49 0 0.49 0 0.49 0 0.49 0 0.49 0 0.49 0 0 0.49 0 0.49 -0.49 0zm4.42 4.91l-0.49 0 -0.49 0 -0.49 0 -0.49 0 0 -0.49 0 -0.49 0.49 0 0.49 0 0.49 0 0.49 0 0.49 0 0 0.49 0 0.49 -0.49 0zm0.49 -0.98l0 -0.49 0 -0.49 0 -0.49 0 -0.49 0 -0.5 0 -0.49 0 -0.49 0 -0.49 0 -0.49 0 -0.49 0.49 0 0.49 0 0 0.49 0 0.49 0 0.49 0 0.49 0 0.49 0 0.5 0 0.49 0 0.49 0 0.49 0 0.49 -0.49 0 -0.49 0zm-2.45 0l-0.49 0 -0.49 0 0 -0.49 0 -0.49 0 -0.49 0 -0.49 0 -0.5 0 -0.49 0 -0.49 0 -0.49 0 -0.49 0 -0.49 0.49 0 0.49 0 0 0.49 0 0.49 0 0.49 0 0.49 0 0.49 0 0.5 0 0.49 0 0.49 0 0.49 0 0.49z"/>
  </g>
  <g id="_2240449762928">
   <path fill="black" class="lag" d="M51.32 3.24l0 1.08 1.08 0 0 1.08 1.08 0 1.08 0 1.08 0 0 -1.08 1.08 0 0 -1.08 0 -1.08 -1.08 0 0 -1.08 -1.08 0 -1.08 0 -1.08 0 0 1.08 -1.08 0 0 1.08zm3.24 3.24l1.08 0 1.08 0 0 1.08 1.08 0 0 1.08 1.08 0 0 1.08 0 1.09 0 1.08 -1.08 0 -1.08 0 -1.08 0 -1.08 0 -1.08 0 -1.08 0 -1.08 0 -1.08 0 -1.08 0 -1.08 0 0 -1.08 0 -1.09 0 -1.08 1.08 0 0 -1.08 1.08 0 0 -1.08 1.08 0 1.08 0 0 -1.08 -1.08 0 0 -1.08 -1.08 0 0 -1.08 0 -1.08 1.08 0 0 -1.08 1.08 0 0 -1.08 1.08 0 1.08 0 0 1.08 0 1.08 1.08 0 0 1.08 0 1.08 -1.08 0 0 1.08 0 1.08zm1.08 1.08l-1.08 0 -1.08 0 -1.08 0 -1.08 0 -1.08 0 0 1.08 -1.08 0 0 1.08 0 1.09 1.08 0 1.08 0 1.08 0 1.08 0 1.08 0 1.08 0 1.08 0 1.08 0 0 -1.09 0 -1.08 -1.08 0 0 -1.08 -1.08 0z"/>
   <polygon fill="white" class="lag" points="49.16,10.81 57.8,10.81 57.8,8.64 56.72,8.64 56.72,7.56 50.24,7.56 50.24,8.64 49.16,8.64 "/>
  </g>
 </g>
</svg>
