<?xml version="1.0" encoding="UTF-8"?>
<!DOCTYPE svg PUBLIC "-//W3C//DTD SVG 1.1//EN" "http://www.w3.org/Graphics/SVG/1.1/DTD/svg11.dtd">
<!-- Creator: CorelDRAW 2021.5 -->
<svg xmlns="http://www.w3.org/2000/svg" xml:space="preserve" width="100%" height="100%" version="1.1" style="shape-rendering:geometricPrecision; text-rendering:geometricPrecision; image-rendering:optimizeQuality; fill-rule:evenodd; clip-rule:evenodd"
viewBox="0 0 157.01 157.01"
 xmlns:xlink="http://www.w3.org/1999/xlink"
 xmlns:xodm="http://www.corel.com/coreldraw/odm/2003">
 <defs>
  <style type="text/css">
   <![CDATA[
    .fil0 {fill:none;fill-rule:nonzero}
    .fil1 {fill:#8C2898;fill-rule:nonzero}
    .fil2 {fill:white;fill-rule:nonzero}
   ]]>
  </style>
   <clipPath id="id0" style="clip-rule:nonzero">
    <path d="M2.82 83.11c50.45,21.59 100.87,22.91 151.32,0.12 0.12,-1.59 0.15,-3.13 0.15,-4.72 0,-20.93 -8.47,-39.89 -22.21,-53.59 -13.74,-13.74 -32.66,-22.21 -53.59,-22.21 -20.93,0 -39.89,8.47 -53.59,22.21 -13.74,13.74 -22.21,32.66 -22.21,53.59 0,1.55 0.04,3.1 0.15,4.64l-0.04 -0.04z"/>
   </clipPath>
    <clipPath id="id1">
     <path d="M19.84 89.61c37.92,12.77 75.83,13.83 113.76,1.56l0 -64.71c-0.5,-0.52 -1,-1.04 -1.51,-1.55 -13.74,-13.74 -32.66,-22.21 -53.59,-22.21 -20.93,0 -39.89,8.47 -53.59,22.21 -1.78,1.78 -3.47,3.65 -5.07,5.6l0 59.1z"/>
    </clipPath>
    <clipPath id="id2">
     <path d="M2.82 83.11c50.45,21.59 100.87,22.91 151.32,0.12 0.12,-1.59 0.15,-3.13 0.15,-4.72 0,-20.93 -8.47,-39.89 -22.21,-53.59 -13.74,-13.74 -32.66,-22.21 -53.59,-22.21 -20.93,0 -39.89,8.47 -53.59,22.21 -13.74,13.74 -22.21,32.66 -22.21,53.59 0,1.55 0.04,3.1 0.15,4.64l-0.04 -0.04z"/>
    </clipPath>
 </defs>
 <g id="Layer_x0020_1">
  <metadata id="CorelCorpID_0Corel-Layer"/>
  <g>
  </g>
  <g style="clip-path:url(#id0)">
   <g id="_1788546958944">
   </g>
   <g style="clip-path:url(#id1)">
    <image x="19.84" y="-11.12" width="113.76" height="151.96" xlink:href="https://ik.imagekit.io/moearchive/calendar/grad/andomikumo.png"/>
   </g>
   <g style="clip-path:url(#id2)">
   </g>
  </g>
  <path class="fil0" d="M2.82 83.11c50.45,21.59 100.87,22.91 151.32,0.12 0.12,-1.59 0.15,-3.13 0.15,-4.72 0,-20.93 -8.47,-39.89 -22.21,-53.59 -13.74,-13.74 -32.66,-22.21 -53.59,-22.21 -20.93,0 -39.89,8.47 -53.59,22.21 -13.74,13.74 -22.21,32.66 -22.21,53.59 0,1.55 0.04,3.1 0.15,4.64l-0.04 -0.04z"/>
  <path class="fil1" d="M46.62 31.42c-1.86,1.24 -4.37,0.77 -5.61,-1.08 -1.24,-1.86 -0.77,-4.37 1.08,-5.61 0.85,-0.58 1.78,-1.16 2.71,-1.74 1.12,-0.7 2.05,-1.24 2.75,-1.63 1.97,-1.08 4.45,-0.35 5.49,1.63 1.08,1.97 0.35,4.45 -1.63,5.49 -1.04,0.58 -1.86,1.04 -2.44,1.39 -0.77,0.46 -1.59,0.97 -2.36,1.51l0 0.04zm31.88 -31.42c21.67,0 41.32,8.78 55.52,22.98 14.2,14.2 22.98,33.85 22.98,55.52 0,21.67 -8.78,41.32 -22.98,55.52 -14.2,14.2 -33.85,22.98 -55.52,22.98 -21.67,0 -41.32,-8.78 -55.52,-22.98 -14.2,-14.2 -22.98,-33.85 -22.98,-55.52 0,-21.67 8.78,-41.32 22.98,-55.52 14.2,-14.2 33.85,-22.98 55.52,-22.98zm-75.64 83.11c50.45,21.59 100.87,22.91 151.32,0.12 0.12,-1.59 0.15,-3.13 0.15,-4.72 0,-20.93 -8.47,-39.89 -22.21,-53.59 -13.74,-13.74 -32.66,-22.21 -53.59,-22.21 -20.93,0 -39.89,8.47 -53.59,22.21 -13.74,13.74 -22.21,32.66 -22.21,53.59 0,1.55 0.04,3.1 0.15,4.64l-0.04 -0.04zm20 -16.21c-0.46,2.21 -2.59,3.6 -4.8,3.13 -2.21,-0.46 -3.6,-2.59 -3.13,-4.8 1.32,-6.27 3.52,-12.3 6.58,-17.88 3.06,-5.57 6.93,-10.72 11.49,-15.21 1.59,-1.59 4.18,-1.55 5.73,0.04 1.59,1.59 1.55,4.14 -0.04,5.73 -4.02,3.95 -7.39,8.43 -10.06,13.31 -2.67,4.88 -4.6,10.14 -5.76,15.63l0 0.04z"/>
  <path class="fil2" d="M35.95 98.85l2.72 0.6 0 2.08 6.45 1.42c2.22,0.76 3.34,1.94 3.35,3.53 -0.05,1.64 -0.23,2.85 -0.53,3.61l-2.7 -0.59c0.41,-1.53 0.61,-2.55 0.61,-3.06 0,-0.65 -0.49,-1.08 -1.45,-1.29l-15.08 -3.33 0 4.08 -2.56 -0.57 -0.02 -6.47 9.22 2.06 0 -2.08zm-9.43 7.65l7.18 1.58c1.06,-1.15 2.18,-2.23 3.36,-3.23l3.46 0.76c-1.36,1.2 -2.52,2.27 -3.48,3.21l11.33 2.5 0 2.49 -4.67 -1.03c-0.3,2.57 -1.16,4.49 -2.59,5.76 2.48,1.45 4.83,2.91 7.05,4.4l0 3.19c-3.14,-2.15 -6.3,-4.22 -9.48,-6.2 -2.82,1.2 -7.03,1.27 -12.62,0.21l0 -2.68c3.89,0.62 6.95,0.76 9.16,0.4 -1.25,-0.74 -2.49,-1.46 -3.72,-2.15 -1.14,-0.65 -1.72,-1.52 -1.72,-2.62 0.02,-0.49 0.7,-1.46 2.04,-2.93l-5.28 -1.17 0 -2.49zm11.67 10.37c1.53,-0.94 2.45,-2.51 2.77,-4.69l-5.97 -1.32c-1.2,1.29 -1.86,2.18 -1.98,2.67 0,0.31 0.18,0.57 0.53,0.79 1.6,0.84 3.16,1.69 4.65,2.54zm15.15 -13.06l5.23 0.47 0 -1.19 2.67 0.24 0 1.19 7.06 0.63 0 -1.32 2.67 0.24 0 1.32 5.09 0.46 0 2.38 -5.09 -0.46 0 1.16 -2.67 -0.24 0 -1.16 -7.06 -0.63 0 1.16 -2.67 -0.24 0 -1.16 -5.23 -0.47 0 -2.38zm4.74 4.54c1.53,0.34 2.35,1.23 2.48,2.68 0.28,1.56 0.43,3.93 0.43,7.12 0,2.65 -0.03,4.57 -0.11,5.75 0,2 -0.74,2.97 -2.21,2.91 -0.64,-0.09 -1.3,-0.19 -1.96,-0.29l0 -2.27c0.48,0.1 0.96,0.17 1.43,0.21 0.34,-0.04 0.52,-0.31 0.54,-0.82 0.04,-1.04 0.06,-2.05 0.08,-3.02l-2.61 -0.23c-0.13,3.02 -0.33,5.08 -0.59,6.17l-2.24 -0.2c0.47,-2.45 0.73,-6 0.78,-10.67l0 -7.7 3.99 0.36zm-1.86 9.81l2.53 0.23c0,-0.09 0,-0.18 0,-0.27 0,-0.9 -0.01,-1.75 -0.03,-2.55l-2.48 -0.22 0 0.52c-0.02,0.79 -0.03,1.56 -0.03,2.3zm0.03 -5.08l2.37 0.21c-0.04,-0.7 -0.09,-1.4 -0.16,-2.07 0,-0.45 -0.3,-0.74 -0.89,-0.87l-1.32 -0.12 0 2.84zm6.92 -3.82l2.34 0.21c0.18,0.61 0.33,1.21 0.45,1.8l1.46 0.13c0.2,-0.67 0.33,-1.37 0.4,-2.1l2.21 0.2c-0.07,0.75 -0.19,1.46 -0.35,2.11l1.59 0.14c0.28,-0.61 0.52,-1.2 0.7,-1.77l2.37 0.21c-0.23,0.66 -0.48,1.25 -0.73,1.77l1.88 0.17 0 2.08 -3.83 -0.34c0.2,0.54 0.43,1.05 0.7,1.53l3.71 0.33 0 2.19 -2.02 -0.18c0.63,0.67 1.36,1.28 2.18,1.82l-0.03 2.46c-0.59,-0.33 -1.15,-0.67 -1.67,-1.04l0 0.89c-0.95,-0.05 -2.14,-0.07 -3.58,-0.05l0 -1.95c0.72,-0.05 1.45,-0.07 2.18,-0.08 -0.7,-0.68 -1.32,-1.44 -1.86,-2.3l-4.44 -0.4c-0.74,0.78 -1.6,1.45 -2.59,2.02 1.11,0.13 2,0.26 2.67,0.37l0 1.89c-0.9,-0.15 -2.28,-0.33 -4.15,-0.53l0 -1c-0.31,0.13 -0.62,0.25 -0.94,0.35l0 -2.24c0.7,-0.32 1.35,-0.69 1.94,-1.13l-1.86 -0.17 0 -2.19 3.91 0.35c0.3,-0.43 0.59,-0.88 0.86,-1.39l-4.56 -0.41 0 -2.08 1.56 0.14c-0.14,-0.57 -0.32,-1.17 -0.54,-1.81zm6.92 5.92c-0.23,-0.47 -0.43,-0.98 -0.59,-1.52l-0.43 -0.04c-0.2,0.51 -0.43,0.97 -0.7,1.4l1.72 0.15zm-2.34 6.71c-0.02,-1.23 -0.03,-2.5 -0.03,-3.82l2.43 0.22c0.01,1.21 0.02,2.51 0.02,3.9 1.83,0.9 3.82,1.68 5.95,2.32l0 2.19c-2.15,-0.48 -4.14,-1.17 -5.95,-2.08 -0.05,0.86 -0.26,1.55 -0.62,2.08 -0.56,0.64 -1.18,0.93 -1.86,0.89l-2.88 -0.26 0 -2.22 1.97 0.18c0.65,0.06 0.97,-0.23 0.97,-0.86 0,-0.09 0,-0.18 0,-0.27 -1.37,0.26 -3.3,0.46 -5.79,0.62l0 -2.35c2.03,-0.1 3.96,-0.29 5.79,-0.53zm17.78 -17.89l2.82 -0.28c0.16,0.54 0.37,1.1 0.62,1.67l7.27 -0.71c0.3,-0.61 0.57,-1.2 0.78,-1.78l2.71 -0.27c-0.18,0.63 -0.39,1.22 -0.62,1.77l4.39 -0.43 0 2.49 -9.85 0.97 0 1.59 9.18 -0.9 0 2.49 -9.18 0.9 0 1.63 9.72 -0.95 0 2.49 -22.07 2.17 0 -2.49 9.74 -0.96 0 -1.63 -9.07 0.89 0 -2.49 9.07 -0.89 0 -1.59 -9.69 0.95 0 -2.49 4.77 -0.47c-0.23,-0.55 -0.43,-1.11 -0.59,-1.67zm-4.39 15.2l9.82 -0.96c0.02,-0.08 0.03,-0.15 0.03,-0.22l-0.06 -1.35 2.78 -0.27 0 1.35c0,0.07 -0.01,0.14 -0.03,0.22l9.85 -0.97 0 2.46 -9.5 0.93c2.1,2.1 5.3,3.16 9.58,3.17l0 2.68c-5.31,-0.17 -9.07,-1.46 -11.28,-3.9 -1.85,2.92 -5.58,4.95 -11.19,6.07l0 -2.68c4.81,-1.01 7.85,-2.67 9.12,-4.98l-9.12 0.9 0 -2.46zm27.51 -17.25l22.07 -4.76 0 2.3 -9.81 2.12 0 1.08 6.35 -1.37c2.06,-0.28 3.2,0.69 3.41,2.91 -0.02,1.77 -0.15,3.24 -0.4,4.42l-2.64 0.57c0.32,-1.39 0.47,-2.81 0.47,-4.27 -0.14,-1.05 -0.74,-1.49 -1.8,-1.32l-5.4 1.16 0 5.89 -2.56 0.55 0 -5.89 -6.64 1.43 0 5.87 -2.59 0.56 0 -8.01 9.23 -1.99 0 -1.05 -9.7 2.09 0 -2.3zm13.11 3.77l5.18 -1.12 0 1.79 -5.18 1.12 0 -1.79zm-9.2 1.99l4.92 -1.06 0 1.84 -4.92 1.06 0 -1.84zm0 2.95l4.92 -1.06 0 1.79 -4.92 1.06 0 -1.79zm9.2 -1.99l5.18 -1.12 0 1.79 -5.18 1.12 0 -1.79zm-12.74 5.67l21.49 -4.64 0 2.19 -21.49 4.64 0 -2.19zm-0.66 3.52l22.6 -4.88 0 2.3 -15.78 3.41c-0.99,1.42 -1.52,2.25 -1.59,2.48 0,0.24 0.12,0.33 0.35,0.3l12.13 -2.62c0.12,-0.06 0.18,-0.2 0.18,-0.42l0 -1.22 2.73 -0.59 0 2.38c-0.05,1.09 -0.88,1.81 -2.46,2.16l-14.25 3.1c-1.16,0.14 -1.74,-0.45 -1.74,-1.79 0.16,-0.77 0.66,-1.81 1.51,-3.11l-3.68 0.79 0 -2.3z"/>
 </g>
</svg>
