<?xml version="1.0" encoding="UTF-8"?>
<!DOCTYPE svg PUBLIC "-//W3C//DTD SVG 1.1//EN" "http://www.w3.org/Graphics/SVG/1.1/DTD/svg11.dtd">
<!-- Creator: CorelDRAW 2021.5 -->
<svg xmlns="http://www.w3.org/2000/svg" xml:space="preserve" width="100%" height="100%" version="1.1" style="shape-rendering:geometricPrecision; text-rendering:geometricPrecision; image-rendering:optimizeQuality; fill-rule:evenodd; clip-rule:evenodd"
viewBox="0 0 288.53 288.53"
 xmlns:xlink="http://www.w3.org/1999/xlink"
 xmlns:xodm="http://www.corel.com/coreldraw/odm/2003">
 <defs>
  <style type="text/css">
   <![CDATA[
    .fil0 {fill:none;fill-rule:nonzero}
    .fil1 {fill:#8C2898;fill-rule:nonzero}
    .fil2 {fill:white;fill-rule:nonzero}
   ]]>
  </style>
   <clipPath id="id0" style="clip-rule:nonzero">
    <path d="M5.26 152.73c92.72,39.67 185.36,42.09 278.08,0.21 0.21,-2.91 0.28,-5.76 0.28,-8.67 0,-38.47 -15.57,-73.31 -40.81,-98.48 -25.24,-25.24 -60.01,-40.81 -98.48,-40.81 -38.47,0 -73.31,15.57 -98.48,40.81 -25.24,25.24 -40.81,60.01 -40.81,98.48 0,2.84 0.07,5.69 0.28,8.53l-0.07 -0.07z"/>
   </clipPath>
    <clipPath id="id1">
     <path d="M36.54 164.69c69.69,23.46 139.36,25.41 209.05,2.87l0 -118.92c-0.91,-0.96 -1.84,-1.91 -2.78,-2.85 -25.24,-25.24 -60.01,-40.81 -98.48,-40.81 -38.47,0 -73.31,15.57 -98.48,40.81 -3.27,3.27 -6.39,6.71 -9.32,10.29l0 108.6z"/>
    </clipPath>
    <clipPath id="id2">
     <path d="M5.26 152.73c92.72,39.67 185.36,42.09 278.08,0.21 0.21,-2.91 0.28,-5.76 0.28,-8.67 0,-38.47 -15.57,-73.31 -40.81,-98.48 -25.24,-25.24 -60.01,-40.81 -98.48,-40.81 -38.47,0 -73.31,15.57 -98.48,40.81 -25.24,25.24 -40.81,60.01 -40.81,98.48 0,2.84 0.07,5.69 0.28,8.53l-0.07 -0.07z"/>
    </clipPath>
 </defs>
 <g id="Layer_x0020_1">
  <metadata id="CorelCorpID_0Corel-Layer"/>
  <g>
  </g>
  <g style="clip-path:url(#id0)">
   <g id="_1787844402736">
   </g>
   <g style="clip-path:url(#id1)">
    <image xmlns="http://www.w3.org/2000/svg" x="46.54" y="-30.44" width="199.05" height="269.26" xmlns:xlink="http://www.w3.org/1999/xlink" xlink:href="https://ik.imagekit.io/moearchive/calendar/grad/fukagawamai.png"/>
   </g>
   <g style="clip-path:url(#id2)">
   </g>
  </g>
  <path class="fil0" d="M5.26 152.73c92.72,39.67 185.36,42.09 278.08,0.21 0.21,-2.91 0.28,-5.76 0.28,-8.67 0,-38.47 -15.57,-73.31 -40.81,-98.48 -25.24,-25.24 -60.01,-40.81 -98.48,-40.81 -38.47,0 -73.31,15.57 -98.48,40.81 -25.24,25.24 -40.81,60.01 -40.81,98.48 0,2.84 0.07,5.69 0.28,8.53l-0.07 -0.07z"/>
  <path class="fil1" d="M85.68 57.74c-3.41,2.28 -8.03,1.42 -10.31,-1.99 -2.28,-3.41 -1.42,-8.03 1.99,-10.31 1.56,-1.07 3.27,-2.13 4.98,-3.2 2.06,-1.28 3.77,-2.28 5.05,-2.99 3.63,-1.99 8.18,-0.64 10.1,2.99 1.99,3.63 0.64,8.18 -2.99,10.1 -1.92,1.07 -3.41,1.92 -4.48,2.56 -1.42,0.85 -2.91,1.78 -4.34,2.77l0 0.07zm58.59 -57.74c39.82,0 75.94,16.14 102.03,42.24 26.09,26.09 42.24,62.21 42.24,102.03 0,39.82 -16.14,75.94 -42.24,102.03 -26.09,26.09 -62.21,42.24 -102.03,42.24 -39.82,0 -75.94,-16.14 -102.03,-42.24 -26.09,-26.09 -42.24,-62.21 -42.24,-102.03 0,-39.82 16.14,-75.94 42.24,-102.03 26.09,-26.09 62.21,-42.24 102.03,-42.24zm-139.01 152.73c92.72,39.67 185.36,42.09 278.08,0.21 0.21,-2.91 0.28,-5.76 0.28,-8.67 0,-38.47 -15.57,-73.31 -40.81,-98.48 -25.24,-25.24 -60.01,-40.81 -98.48,-40.81 -38.47,0 -73.31,15.57 -98.48,40.81 -25.24,25.24 -40.81,60.01 -40.81,98.48 0,2.84 0.07,5.69 0.28,8.53l-0.07 -0.07zm36.76 -29.79c-0.85,4.05 -4.76,6.61 -8.82,5.76 -4.05,-0.85 -6.61,-4.76 -5.76,-8.82 2.42,-11.52 6.47,-22.61 12.09,-32.85 5.62,-10.24 12.73,-19.7 21.12,-27.94 2.91,-2.91 7.68,-2.84 10.52,0.07 2.91,2.91 2.84,7.61 -0.07,10.52 -7.39,7.25 -13.58,15.5 -18.49,24.46 -4.91,8.96 -8.46,18.63 -10.59,28.73l0 0.07z"/>
  <path class="fil2" d="M47.59 179.78c3.56,1.72 6.79,3.59 9.71,5.62l0 5.47c-3.24,-2.54 -6.47,-4.63 -9.71,-6.26l0 -4.83zm-0.24 11.48c3.4,1.71 6.5,3.62 9.32,5.73l0 5.27c-3.14,-2.48 -6.25,-4.54 -9.32,-6.18l0 -4.82zm5.24 12.44l4.51 1c-1.59,7.14 -4.75,12.5 -9.47,16.1l0 -7.16c2.26,-2.04 3.92,-5.36 4.95,-9.93zm6.74 -22.32l23.1 5.15c3.75,1.23 5.65,3.23 5.68,6.02 -0.1,2.96 -0.41,5.14 -0.93,6.51l-4.51 -1c0.68,-2.76 1.03,-4.57 1.03,-5.44 0,-1.12 -0.79,-1.86 -2.39,-2.21l-1.89 -0.42c-0.07,1.48 -0.1,2.98 -0.1,4.5 0,1.33 0.1,2.59 0.29,3.8 0.49,1.17 1.47,1.91 2.97,2.24 1.52,0.33 2.84,0.53 3.98,0.58l0 4.13c-0.9,-0.07 -2.67,-0.34 -5.28,-0.82 -3.14,-0.69 -5.05,-2.29 -5.73,-4.79 -0.32,-1.77 -0.48,-3.54 -0.48,-5.33 0,-1.88 0.03,-3.63 0.09,-5.25l-2.91 -0.64c-0.88,7.59 -4.65,11.98 -11.31,13.16l0 -4.78c4.05,-0.99 6.39,-4.1 7.04,-9.33l-4.22 -0.93 0 7.75 -4.37 -0.96 -0.05 -11.94zm-0.05 21.51l11.5 2.54 0 -4.02 4.66 1.03 0 4.02 12.09 2.67 0 4.48 -5.29 -1.17c0.77,5.07 2.72,9.08 5.82,12.02l0 5.72c-5.53,-4.4 -8.93,-10.64 -10.2,-18.7l-2.43 -0.54 0 17.54 -4.66 -1.03 0 -17.54 -2.43 -0.54c-1.13,7.96 -4.61,12.72 -10.44,14.25l0 -5.47c3.34,-1.21 5.38,-4.46 6.11,-9.73l-4.75 -1.05 0 -4.48zm71.44 -11.3l4.91 0.44 0 44.39 -4.91 -0.44 0 -44.39zm-15.05 -0.15l4.81 0.43 0 41.25 -4.81 -0.43 0 -41.25zm-9.8 -2.07l0 17.9c0,8.02 -0.81,13.66 -2.43,16.93 -1.85,4.47 -3.86,7.49 -6.04,9.05l-0.05 -7.16c1.06,-1.59 1.95,-3.93 2.68,-7.01 0.73,-2.85 1.09,-6.88 1.09,-12.08l0.09 -17.98 4.65 0.37zm62.06 0.68l5.15 -0.51 0 2.74 16.42 -1.56 0 4.27 -35.41 3.43c0,2.45 -0.02,4.9 -0.05,7.36 -0.3,10.13 -0.93,19.7 -1.88,28.71l-4.75 0.52c1.29,-9.51 1.93,-19.43 1.93,-29.76 0.07,-3.13 0.1,-6.68 0.1,-10.65l18.5 -1.81 0 -2.74zm-12.71 14.02l5.39 -0.53 0 -4.42 4.4 -0.43 0 4.42 5.69 -0.56 0 4.57 -1.09 0.11c0.13,6.45 0.48,12.4 1.04,17.85l0 8.59c-2.37,-4.81 -3.89,-13.5 -4.55,-26.1l-1.09 0.11 0 27.19 -4.4 0.43 0 -27.19 -1.09 0.11c-0.62,12.06 -2.47,21.14 -5.54,27.24l0 -8.25c1.09,-5.15 1.71,-11.35 1.87,-18.62l-0.64 0.06 0 -4.57zm17.02 -1.72l5.59 -0.55 0 -4.37 4.6 -0.45 0 4.37 5.93 -0.58 0 4.53 -1.14 0.11c0.17,6.4 0.76,12.29 1.78,17.61l0 8.6c-2.77,-4.77 -4.55,-13.39 -5.34,-25.86l-1.23 0.12 0 27.33 -4.6 0.45 0 -27.33 -0.94 0.09c-0.6,12.15 -2.33,21.28 -5.2,27.4l-0.04 -8.25c0.95,-5.17 1.49,-11.43 1.63,-18.8l-1.04 0.1 0 -4.53zm44.15 -19.95l5.01 -1.08 0 4.42 18.56 -4 0 4.78 -16.23 3.5c0.97,3.47 2.14,6.66 3.5,9.58 3.3,-3.07 6.91,-5.19 10.84,-6.37l0 4.78c-2.85,0.98 -5.8,2.75 -8.85,5.34 2.79,4.67 6.25,8.39 10.4,11.17l0 6.26c-9.75,-5.05 -16.62,-14.97 -20.6,-29.75l-0.44 0.09c-1.49,4.5 -4.03,9.22 -7.63,14.17 -0.22,2.33 -0.34,5.15 -0.34,8.47 0,2.25 0.07,3.97 0.2,5.17 0.55,2.43 2.2,3.35 4.95,2.76 5.18,-1.28 9.46,-2.58 12.83,-3.91l0 4.83c-2.04,1.1 -6.48,2.39 -13.31,3.86 -5.28,1.14 -8.34,-0.51 -9.19,-4.93 -0.19,-2.05 -0.29,-4.22 -0.29,-6.55 0,-1.13 0,-2.25 0,-3.38 -2.4,2.73 -5.07,5.5 -8.02,8.29l0 -5.91c7.97,-8.15 13.17,-15.4 15.6,-21.75l-15.16 3.27 0 -4.78 18.17 -3.92 0 -4.42z"/>
 </g>
</svg>
