<?xml version="1.0" encoding="UTF-8"?>
<!DOCTYPE svg PUBLIC "-//W3C//DTD SVG 1.1//EN" "http://www.w3.org/Graphics/SVG/1.1/DTD/svg11.dtd">
<!-- Creator: CorelDRAW 2021.5 -->
<svg xmlns="http://www.w3.org/2000/svg" xml:space="preserve" width="100%" height="100%" version="1.1" style="shape-rendering:geometricPrecision; text-rendering:geometricPrecision; image-rendering:optimizeQuality; fill-rule:evenodd; clip-rule:evenodd"
viewBox="0 0 172.76 172.76"
 xmlns:xlink="http://www.w3.org/1999/xlink"
 xmlns:xodm="http://www.corel.com/coreldraw/odm/2003">
 <defs>
  <style type="text/css">
   <![CDATA[
    .fil0 {fill:none;fill-rule:nonzero}
    .fil1 {fill:#8C2898;fill-rule:nonzero}
    .fil2 {fill:white;fill-rule:nonzero}
   ]]>
  </style>
   <clipPath id="id0" style="clip-rule:nonzero">
    <path d="M3.11 91.44c55.51,23.75 110.98,25.2 166.5,0.13 0.13,-1.75 0.17,-3.45 0.17,-5.19 0,-23.03 -9.32,-43.89 -24.44,-58.96 -15.11,-15.11 -35.93,-24.44 -58.96,-24.44 -23.03,0 -43.89,9.32 -58.96,24.44 -15.11,15.11 -24.44,35.93 -24.44,58.96 0,1.7 0.04,3.41 0.17,5.11l-0.04 -0.04z"/>
   </clipPath>
    <clipPath id="id1">
     <path d="M21.84 98.6c41.73,14.05 83.44,15.22 125.17,1.72l0 -71.2c-0.55,-0.58 -1.1,-1.15 -1.66,-1.71 -15.11,-15.11 -35.93,-24.44 -58.96,-24.44 -23.03,0 -43.89,9.32 -58.96,24.44 -1.96,1.96 -3.82,4.02 -5.58,6.16l0 65.02z"/>
    </clipPath>
    <clipPath id="id2">
     <path d="M3.11 91.44c55.51,23.75 110.98,25.2 166.5,0.13 0.13,-1.75 0.17,-3.45 0.17,-5.19 0,-23.03 -9.32,-43.89 -24.44,-58.96 -15.11,-15.11 -35.93,-24.44 -58.96,-24.44 -23.03,0 -43.89,9.32 -58.96,24.44 -15.11,15.11 -24.44,35.93 -24.44,58.96 0,1.7 0.04,3.41 0.17,5.11l-0.04 -0.04z"/>
    </clipPath>
 </defs>
 <g id="Layer_x0020_1">
  <metadata id="CorelCorpID_0Corel-Layer"/>
  <g>
  </g>
  <g style="clip-path:url(#id0)">
   <g id="_1787922044432">
   </g>
   <g style="clip-path:url(#id1)">
    <image x="21.84" y="-12.24" width="125.17" height="167.21" xlink:href="https://ik.imagekit.io/moearchive/calendar/grad/hashimotonanami.png"/>
   </g>
   <g style="clip-path:url(#id2)">
   </g>
  </g>
  <path class="fil0" d="M3.11 91.44c55.51,23.75 110.98,25.2 166.5,0.13 0.13,-1.75 0.17,-3.45 0.17,-5.19 0,-23.03 -9.32,-43.89 -24.44,-58.96 -15.11,-15.11 -35.93,-24.44 -58.96,-24.44 -23.03,0 -43.89,9.32 -58.96,24.44 -15.11,15.11 -24.44,35.93 -24.44,58.96 0,1.7 0.04,3.41 0.17,5.11l-0.04 -0.04z"/>
  <path class="fil1" d="M51.3 34.57c-2.04,1.36 -4.81,0.85 -6.17,-1.19 -1.36,-2.04 -0.85,-4.81 1.19,-6.17 0.94,-0.64 1.96,-1.28 2.98,-1.92 1.23,-0.77 2.26,-1.36 3.02,-1.79 2.17,-1.19 4.9,-0.38 6.05,1.79 1.19,2.17 0.38,4.9 -1.79,6.05 -1.15,0.64 -2.04,1.15 -2.68,1.53 -0.85,0.51 -1.75,1.06 -2.6,1.66l0 0.04zm35.08 -34.57c23.84,0 45.47,9.66 61.09,25.29 15.62,15.62 25.29,37.25 25.29,61.09 0,23.84 -9.66,45.47 -25.29,61.09 -15.62,15.62 -37.25,25.29 -61.09,25.29 -23.84,0 -45.47,-9.66 -61.09,-25.29 -15.62,-15.62 -25.29,-37.25 -25.29,-61.09 0,-23.84 9.66,-45.47 25.29,-61.09 15.62,-15.62 37.25,-25.29 61.09,-25.29zm-83.23 91.44c55.51,23.75 110.98,25.2 166.5,0.13 0.13,-1.75 0.17,-3.45 0.17,-5.19 0,-23.03 -9.32,-43.89 -24.44,-58.96 -15.11,-15.11 -35.93,-24.44 -58.96,-24.44 -23.03,0 -43.89,9.32 -58.96,24.44 -15.11,15.11 -24.44,35.93 -24.44,58.96 0,1.7 0.04,3.41 0.17,5.11l-0.04 -0.04zm22.01 -17.84c-0.51,2.43 -2.85,3.96 -5.28,3.45 -2.43,-0.51 -3.96,-2.85 -3.45,-5.28 1.45,-6.9 3.87,-13.54 7.24,-19.67 3.36,-6.13 7.62,-11.79 12.64,-16.73 1.75,-1.75 4.6,-1.7 6.3,0.04 1.75,1.75 1.7,4.56 -0.04,6.3 -4.43,4.34 -8.13,9.28 -11.07,14.64 -2.94,5.36 -5.07,11.15 -6.34,17.2l0 0.04z"/>
  <path class="fil2" d="M24.63 110.26l4.64 1.19c0.17,-0.39 0.3,-0.8 0.37,-1.21 -1.52,-0.37 -3.1,-0.76 -4.75,-1.16l0 -2.47c3.72,0.96 8.09,1.97 13.08,3.03l0 2.53c-1.75,-0.39 -3.66,-0.83 -5.74,-1.33 -0.06,0.46 -0.15,0.9 -0.26,1.3l6.6 1.7 0 2.53 -3.11 -0.8c0.73,0.94 1.84,1.85 3.35,2.7l0 2.95c-0.52,-0.33 -0.99,-0.66 -1.42,-0.99 0,0.06 0,0.12 0,0.18 0,0.67 -0.13,1.2 -0.4,1.59 -0.34,0.49 -0.76,0.67 -1.24,0.57l-9.68 -2.49 0 -2.74c-0.54,0.12 -1.12,0.19 -1.73,0.21l0 -2.82c1.4,-0.12 2.54,-0.5 3.4,-1.15l-3.11 -0.8 0 -2.53zm6.31 4.15c-0.32,0.45 -0.7,0.86 -1.13,1.23l3.87 0.99c-0.44,-0.59 -0.82,-1.19 -1.13,-1.81l-1.61 -0.41zm-2.51 4.41l6.26 1.61c0.21,0.05 0.32,-0.21 0.32,-0.81 0,-0.47 -0.25,-0.79 -0.75,-0.93l-5.82 -1.5 0 1.64zm5.74 4.33c1.38,0.47 2.5,1.24 3.35,2.29 0.83,1.09 1.24,2.15 1.24,3.2l0 3.18c-0.08,2.46 -0.85,3.6 -2.31,3.42l-3 -0.74 0 -2.08c-0.12,-0.01 -0.23,-0.02 -0.35,-0.03l-4.64 -1.19 0 -5.92 4.47 1.15c1.4,0.52 2.11,1.68 2.11,3.49 0,1.39 -0.35,2.19 -1.07,2.4l1.21 0.31c0.63,0.16 0.95,-0.27 0.95,-1.3l0 -2.98c0,-0.69 -0.3,-1.31 -0.9,-1.84 -0.44,-0.53 -1.01,-0.91 -1.7,-1.15l-6.31 -1.62 0 9.5 -2.48 -0.64 0 -11.87 9.42 2.42zm-3.66 6.68l2.02 0.52c0.29,0.07 0.43,-0.27 0.43,-1.02 0,-0.55 -0.15,-0.97 -0.46,-1.25l-1.99 -0.51 0 2.26zm-16.57 -24.38l3.8 0.98 0 -2.47 2.6 0.67 0 2.47 3.6 0.93 0 2.71 -0.69 -0.18c0.02,7.76 0.22,14.78 0.61,21.05l-2.13 -0.52c-0.34,-4.2 -0.53,-11.22 -0.55,-21.06l-0.84 -0.22 0 21.67 -2.6 -0.67 0 -21.67 -0.86 -0.22c-0.1,7.18 -0.29,14.06 -0.58,20.65l-2.16 -0.55c0.42,-6.42 0.64,-13.3 0.66,-20.63l-0.87 -0.22 0 -2.71zm30.2 8.3l10.57 1.53 0 -3.09 2.98 0.43 0 3.09 10.63 1.54 0 2.89 -5.86 -0.85c0.88,6.83 3.02,11.77 6.39,14.82l0 3.93c-4.91,-3.71 -7.99,-10.1 -9.25,-19.17l-1.92 -0.28 0 14.88 6.81 0.99 0 2.92 -6.81 -0.99 0 3.03 -2.98 -0.43 0 -3.03 -6.45 -0.94 0 -2.92 6.45 0.94 0 -14.88 -1.91 -0.28c-0.36,4.87 -1.32,8.48 -2.89,10.83 -1.78,2.79 -3.89,4.71 -6.3,5.75l0 -3.57c3.93,-2.67 6.06,-7.14 6.39,-13.42l-5.86 -0.85 0 -2.89zm30.37 2.92l9.61 -0.23c0.38,-0.62 0.71,-1.28 1.01,-1.95l3.07 -0.07c-0.22,0.68 -0.47,1.33 -0.75,1.95l11.15 -0.27 0 2.77 -6.07 0.15c1.92,1.9 4.17,3.11 6.75,3.65l0 3.25c-1.27,-0.32 -2.44,-0.72 -3.51,-1.2l0 1.52 -18.24 0.44 0 -1.28c-1.01,0.36 -2.08,0.7 -3.21,1l0 -3.15c3.11,-0.83 5.63,-2.15 7.53,-3.97l-7.35 0.18 0 -2.77zm6.16 7.17l12.91 -0.31c-1.86,-1.18 -3.38,-2.67 -4.55,-4.45l-3.21 0.08c-1.31,1.88 -3.03,3.43 -5.15,4.68zm-6.69 5.7l25.14 -0.61 0 2.82 -10.77 0.26c0.1,0.91 0.19,1.94 0.27,3.09 0,1.49 -0.11,2.48 -0.33,2.98 -0.29,1.57 -1.54,2.5 -3.72,2.77 -1.71,0.04 -3.12,0.01 -4.22,-0.08l0 -2.77c1.13,0.13 2.22,0.19 3.27,0.16 1.35,-0.03 2.06,-0.77 2.11,-2.19 -0.04,-1.39 -0.13,-2.68 -0.26,-3.89l-11.48 0.28 0 -2.82zm3.81 3.77l2.64 -0.06c-0.1,3.59 -1.91,6.06 -5.44,7.39l0 -2.85c1.86,-0.96 2.8,-2.45 2.8,-4.48zm14.93 -0.27l2.74 -0.07c0.12,1.48 1.04,2.69 2.77,3.63l0 3.3c-3.02,-1.31 -4.85,-3.6 -5.5,-6.86zm17.25 -3.41c2.76,0.25 5.22,0.63 7.4,1.16 5.36,-4.12 8.22,-9.25 8.6,-15.38 0,-0.52 -0.35,-0.72 -1.03,-0.6l-11.15 1.89c-1.6,4.95 -4.6,9.11 -8.98,12.47l0 -3.42c4.19,-3.9 6.56,-8.5 7.13,-13.8l2.99 -0.48c-0.1,0.75 -0.22,1.48 -0.35,2.2l11.82 -2c1.68,-0.01 2.52,0.77 2.52,2.34 0,7.2 -2.87,13.08 -8.62,17.65 1.29,0.46 2.43,0.98 3.43,1.56l0 3.69c-4.17,-2.29 -8.75,-3.68 -13.76,-4.16l0 -3.12zm24.67 -11.27l10.55 -2.71 0 -4.46 -9.68 2.49 0 -2.77 9.68 -2.49 0 -3.45 2.85 -0.73 0 3.45 9.83 -2.53 0 2.77 -9.83 2.53 0 4.46 10.61 -2.73 0 2.82 -5.82 1.5c0.91,3.92 2.9,6.29 6,7.12l0 3.54c-4.54,-0.94 -7.43,-4.26 -8.68,-9.97l-2.11 0.54 0 13.28 -2.85 0.73 0 -13.28 -2.08 0.53c-0.34,3.36 -1.23,6.1 -2.65,8.21 -1.65,2.58 -3.62,4.67 -5.91,6.25l0 -3.33c3.46,-2.93 5.41,-6.41 5.85,-10.43l-5.76 1.48 0 -2.82z"/>
 </g>
</svg>
