<?xml version="1.0" encoding="UTF-8"?>
<!DOCTYPE svg PUBLIC "-//W3C//DTD SVG 1.1//EN" "http://www.w3.org/Graphics/SVG/1.1/DTD/svg11.dtd">
<!-- Creator: CorelDRAW 2021.5 -->
<svg xmlns="http://www.w3.org/2000/svg" xml:space="preserve" width="100%" height="100%" version="1.1" style="shape-rendering:geometricPrecision; text-rendering:geometricPrecision; image-rendering:optimizeQuality; fill-rule:evenodd; clip-rule:evenodd"
viewBox="0 0 216.12 216.12"
 xmlns:xlink="http://www.w3.org/1999/xlink"
 xmlns:xodm="http://www.corel.com/coreldraw/odm/2003">
 <defs>
  <style type="text/css">
   <![CDATA[
    .fil0 {fill:none;fill-rule:nonzero}
    .fil1 {fill:#8C2898;fill-rule:nonzero}
    .fil2 {fill:white;fill-rule:nonzero}
   ]]>
  </style>
   <clipPath id="id0" style="clip-rule:nonzero">
    <path d="M3.94 114.4c69.45,29.72 138.84,31.53 208.29,0.16 0.16,-2.18 0.21,-4.31 0.21,-6.5 0,-28.81 -11.66,-54.91 -30.57,-73.76 -18.91,-18.91 -44.95,-30.57 -73.76,-30.57 -28.81,0 -54.91,11.66 -73.76,30.57 -18.91,18.91 -30.57,44.95 -30.57,73.76 0,2.13 0.05,4.26 0.21,6.39l-0.05 -0.05z"/>
   </clipPath>
    <clipPath id="id1">
     <path d="M27.37 123.35c52.2,17.57 104.38,19.04 156.58,2.15l0 -89.07c-0.68,-0.72 -1.38,-1.43 -2.08,-2.14 -18.91,-18.91 -44.95,-30.57 -73.76,-30.57 -28.81,0 -54.91,11.66 -73.76,30.57 -2.45,2.45 -4.78,5.03 -6.98,7.71l0 81.35z"/>
    </clipPath>
    <clipPath id="id2">
     <path d="M3.94 114.4c69.45,29.72 138.84,31.53 208.29,0.16 0.16,-2.18 0.21,-4.31 0.21,-6.5 0,-28.81 -11.66,-54.91 -30.57,-73.76 -18.91,-18.91 -44.95,-30.57 -73.76,-30.57 -28.81,0 -54.91,11.66 -73.76,30.57 -18.91,18.91 -30.57,44.95 -30.57,73.76 0,2.13 0.05,4.26 0.21,6.39l-0.05 -0.05z"/>
    </clipPath>
 </defs>
 <g id="Layer_x0020_1">
  <metadata id="CorelCorpID_0Corel-Layer"/>
  <g>
  </g>
  <g style="clip-path:url(#id0)">
   <g id="_1823133330320">
   </g>
   <g style="clip-path:url(#id1)">
    <image xmlns="http://www.w3.org/2000/svg" x="37.37" y="-15.31" width="136.58" height="179.18" xmlns:xlink="http://www.w3.org/1999/xlink" xlink:href="https://ik.imagekit.io/moearchive/calendar/grad/hatanakaseira.png"/>
   </g>
   <g style="clip-path:url(#id2)">
   </g>
  </g>
  <path class="fil0" d="M3.94 114.4c69.45,29.72 138.84,31.53 208.29,0.16 0.16,-2.18 0.21,-4.31 0.21,-6.5 0,-28.81 -11.66,-54.91 -30.57,-73.76 -18.91,-18.91 -44.95,-30.57 -73.76,-30.57 -28.81,0 -54.91,11.66 -73.76,30.57 -18.91,18.91 -30.57,44.95 -30.57,73.76 0,2.13 0.05,4.26 0.21,6.39l-0.05 -0.05z"/>
  <path class="fil1" d="M64.18 43.25c-2.56,1.7 -6.02,1.06 -7.72,-1.49 -1.7,-2.56 -1.06,-6.02 1.49,-7.72 1.17,-0.8 2.45,-1.6 3.73,-2.4 1.54,-0.96 2.82,-1.7 3.78,-2.24 2.72,-1.49 6.12,-0.48 7.56,2.24 1.49,2.72 0.48,6.12 -2.24,7.56 -1.44,0.8 -2.56,1.44 -3.36,1.92 -1.06,0.64 -2.18,1.33 -3.25,2.08l0 0.05zm43.88 -43.25c29.82,0 56.88,12.09 76.42,31.64 19.55,19.55 31.64,46.6 31.64,76.42 0,29.82 -12.09,56.88 -31.64,76.42 -19.55,19.55 -46.6,31.64 -76.42,31.64 -29.82,0 -56.88,-12.09 -76.42,-31.64 -19.55,-19.55 -31.64,-46.6 -31.64,-76.42 0,-29.82 12.09,-56.88 31.64,-76.42 19.55,-19.55 46.6,-31.64 76.42,-31.64zm-104.12 114.4c69.45,29.72 138.84,31.53 208.29,0.16 0.16,-2.18 0.21,-4.31 0.21,-6.5 0,-28.81 -11.66,-54.91 -30.57,-73.76 -18.91,-18.91 -44.95,-30.57 -73.76,-30.57 -28.81,0 -54.91,11.66 -73.76,30.57 -18.91,18.91 -30.57,44.95 -30.57,73.76 0,2.13 0.05,4.26 0.21,6.39l-0.05 -0.05zm27.53 -22.31c-0.64,3.04 -3.57,4.95 -6.6,4.31 -3.04,-0.64 -4.95,-3.57 -4.31,-6.6 1.81,-8.63 4.85,-16.94 9.05,-24.61 4.21,-7.67 9.53,-14.75 15.82,-20.93 2.18,-2.18 5.75,-2.13 7.88,0.05 2.18,2.18 2.13,5.7 -0.05,7.88 -5.54,5.43 -10.17,11.61 -13.85,18.32 -3.67,6.71 -6.34,13.95 -7.94,21.52l0 0.05z"/>
  <path class="fil2" d="M41.08 144.5l0 2.15 16.32 3.57c1.68,0.29 2.73,-0.18 3.16,-1.42l-19.49 -4.3zm19.52 1.21c-0.39,-1.25 -1.23,-2.12 -2.54,-2.61l-16.98 -3.75 0 2.05 19.52 4.31zm-13.09 -10l3.89 0.86c-0.33,0.52 -0.78,1.05 -1.31,1.57l8.18 1.81c1.87,0.61 3.32,1.64 4.36,3.09 1.04,1.27 1.59,2.89 1.64,4.87 0,2.19 -0.5,3.73 -1.5,4.62 -1.18,1.16 -2.62,1.57 -4.29,1.25l-20.9 -4.61 0 -13.77 8.54 1.89c0.56,-0.52 1.02,-1.04 1.38,-1.56zm-7.56 24.73l0 2.83 8.98 1.94 0 -2.8 -8.98 -1.98zm12.58 2.77l0 2.8 5.85 1.29c1.79,0.29 2.91,-0.39 3.34,-2.06l-9.2 -2.03zm9.27 -1.04c-0.36,-1.67 -1.28,-2.8 -2.76,-3.4l-6.51 -1.44 0 2.79 9.27 2.05zm-12.87 -2.84l0 -2.79 -8.98 -1.98 0 2.79 8.98 1.98zm10.36 -3.64c1.91,0.65 3.41,1.76 4.47,3.34 1.09,1.35 1.67,3.12 1.74,5.3 0,2.36 -0.51,4.04 -1.53,5.06 -1.26,1.28 -2.75,1.76 -4.47,1.43l-23.05 -5.09 0 -15.08 22.83 5.04zm27.11 -13.49l3.82 0.34 0 5.36 5.11 0.46c5.71,0.51 8.62,3.9 8.71,10.16 0,6.04 -2.44,9.02 -7.34,8.95l-6.49 -0.58 0 9.19 -3.82 -0.34 0 -9.19 -12.31 -1.1 0 -18.98 12.31 1.1 0 -5.36zm0 8.9l-8.64 -0.77 0 11.76 8.64 0.77 0 -11.76zm3.82 12.1l5.93 0.53c2.85,-0.14 4.27,-1.95 4.27,-5.43 0,-3.97 -1.69,-6.1 -5.08,-6.41l-5.11 -0.46 0 11.76zm20.39 -18.11c2.89,0.41 5.52,1.03 7.89,1.87l0 4.05c-2.62,-1.11 -5.25,-1.88 -7.89,-2.31l0 -3.61zm0 8.67c2.86,0.36 5.48,0.96 7.85,1.8l0 3.8c-2.64,-1 -5.26,-1.72 -7.85,-2.13l0 -3.46zm4.26 7.59l3.59 -0.35c-1.28,6 -3.89,11.02 -7.82,15.06l0 -5.74c1.93,-2.2 3.33,-5.19 4.22,-8.97zm5.15 -16.96l8.93 -0.88 0 -1.72 3.71 -0.36 0 1.72 8.97 -0.88 0 3.09 -8.97 0.88 0 1.68 8.52 -0.84 0 3.09 -8.52 0.84 0 1.75 9.48 -0.93 0 3.16 -22.56 2.21 0 -3.16 9.37 -0.92 0 -1.75 -8.41 0.83 0 -3.09 8.41 -0.83 0 -1.68 -8.93 0.88 0 -3.09zm17.15 12.35c2.1,0.14 3.42,1.02 3.96,2.62 0.32,1.01 0.51,3.01 0.56,5.98 0,1.84 -0.06,3.3 -0.18,4.41 -0.62,2.67 -2.28,4.22 -4.97,4.66 -2.39,0.23 -4.22,0.31 -5.48,0.21l0 -3.02c1.44,-0.04 2.95,-0.12 4.56,-0.23 1.23,-0.17 1.99,-0.69 2.26,-1.56 0,-0.15 0.01,-0.28 0.04,-0.37l-13.48 1.32 0 5.13 -3.48 0.34 0 -17.9 16.23 -1.59zm-12.74 11.04l13.63 -1.34c0,-0.25 0,-0.5 0,-0.74 0,-0.4 0,-0.78 0,-1.16l-13.63 1.34 0 1.9zm0 -4.88l13.41 -1.32c-0.03,-0.14 -0.05,-0.28 -0.08,-0.4 -0.08,-1.03 -0.7,-1.49 -1.85,-1.38l-11.48 1.13 0 1.97zm39.56 -17l3.46 -0.75c-0.15,0.98 -0.33,1.93 -0.55,2.87l3.6 -0.78c0.29,-1.05 0.53,-2.04 0.73,-2.95l3.38 -0.73c-0.19,0.91 -0.45,1.9 -0.76,2.96l4.95 -1.07 0 3.46 -5.2 1.12 0 2.19 4.62 -1 0 3.43 -4.62 1 0 2.38 4.66 -1 0 3.39 -4.66 1 0 2.23 5.42 -1.17 0 3.46 -16.52 3.56 0 -12.32c-0.39,0.53 -0.8,1.04 -1.24,1.53l0 -4.88c1.48,-2.5 2.39,-5.15 2.73,-7.96zm6.22 18.5l0 -2.23 -4.44 0.96 0 2.23 4.44 -0.96zm0 -5.62l0 -2.38 -4.44 0.96 0 2.38 4.44 -0.96zm0 -5.81l0 -2.19 -4.44 0.96 0 2.19 4.44 -0.96zm4.66 -18.76c1.24,-0.15 2.17,0.13 2.8,0.84 0.61,0.74 0.91,1.59 0.91,2.56 0,1.44 -0.35,2.58 -1.06,3.43 -0.68,0.89 -1.68,1.49 -2.99,1.79l-24.85 5.36 0 -8.56 25.18 -5.43zm-21.65 10.44l4.55 -0.98 0 -3.16 -4.55 0.98 0 3.16zm7.64 -4.81l0 3.16 5.97 -1.29 0 -3.16 -5.97 1.29zm9.06 -1.96l0 3.16 3.28 -0.71c1.29,-0.33 1.93,-1.03 1.93,-2.09 0,-0.87 -0.68,-1.22 -2.04,-1.05l-3.17 0.68zm-15.32 10.08l4.12 -0.89 -6.19 6.48 2.77 -0.6 2.8 -3.21 3.82 -0.82 -8.51 9.8 3.24 -0.7c0.58,-0.12 0.87,-0.59 0.87,-1.38l0 -0.74 2.95 -0.64 0 1.94c0,1.81 -1.04,3.01 -3.13,3.61l-0.47 0.1 0 10.43 -3.17 0.68 0 -10.43 -2.4 0.52c-1.53,0.33 -2.29,-0.1 -2.29,-1.29 0,-0.35 0.32,-0.95 0.94,-1.81l2.33 -2.66 -2.29 0.49c-0.99,0.04 -1.49,-0.46 -1.49,-1.5 0,-0.37 0.17,-0.79 0.51,-1.26l5.6 -6.13zm-5.06 15.42l2.73 -0.59c-0.07,4.65 -1.34,8.07 -3.82,10.24l0 -4.39c0.73,-1.2 1.09,-2.96 1.09,-5.26zm8.52 -1.88l2.73 -0.59c0.02,1.66 0.26,3 0.69,4.02l0 5.1c-1.85,-1.41 -2.99,-4.25 -3.42,-8.53z"/>
 </g>
</svg>
