<?xml version="1.0" encoding="UTF-8"?>
<!DOCTYPE svg PUBLIC "-//W3C//DTD SVG 1.1//EN" "http://www.w3.org/Graphics/SVG/1.1/DTD/svg11.dtd">
<!-- Creator: CorelDRAW 2021.5 -->
<svg xmlns="http://www.w3.org/2000/svg" xml:space="preserve" width="100%" height="100%" version="1.1" style="shape-rendering:geometricPrecision; text-rendering:geometricPrecision; image-rendering:optimizeQuality; fill-rule:evenodd; clip-rule:evenodd"
viewBox="0 0 172.76 172.76"
 xmlns:xlink="http://www.w3.org/1999/xlink"
 xmlns:xodm="http://www.corel.com/coreldraw/odm/2003">
 <defs>
  <style type="text/css">
   <![CDATA[
    .fil0 {fill:none;fill-rule:nonzero}
    .fil1 {fill:#8C2898;fill-rule:nonzero}
    .fil2 {fill:white;fill-rule:nonzero}
   ]]>
  </style>
   <clipPath id="id0" style="clip-rule:nonzero">
    <path d="M3.15 91.45c55.51,23.76 110.99,25.2 166.5,0.13 0.13,-1.75 0.17,-3.45 0.17,-5.19 0,-23.03 -9.32,-43.89 -24.44,-58.96 -15.11,-15.11 -35.93,-24.44 -58.96,-24.44 -23.03,0 -43.89,9.32 -58.96,24.44 -15.11,15.11 -24.44,35.93 -24.44,58.96 0,1.7 0.04,3.41 0.17,5.11l-0.04 -0.04z"/>
   </clipPath>
    <clipPath id="id1">
     <path d="M21.88 98.61c41.73,14.05 83.44,15.22 125.17,1.72l0 -71.2c-0.55,-0.58 -1.1,-1.15 -1.66,-1.71 -15.11,-15.11 -35.93,-24.44 -58.96,-24.44 -23.03,0 -43.89,9.32 -58.96,24.44 -1.96,1.96 -3.82,4.02 -5.58,6.16l0 65.03z"/>
    </clipPath>
    <clipPath id="id2">
     <path d="M3.15 91.45c55.51,23.76 110.99,25.2 166.5,0.13 0.13,-1.75 0.17,-3.45 0.17,-5.19 0,-23.03 -9.32,-43.89 -24.44,-58.96 -15.11,-15.11 -35.93,-24.44 -58.96,-24.44 -23.03,0 -43.89,9.32 -58.96,24.44 -15.11,15.11 -24.44,35.93 -24.44,58.96 0,1.7 0.04,3.41 0.17,5.11l-0.04 -0.04z"/>
    </clipPath>
 </defs>
 <g id="Layer_x0020_1">
  <metadata id="CorelCorpID_0Corel-Layer"/>
  <g>
  </g>
  <g style="clip-path:url(#id0)">
   <g id="_1823140234400">
   </g>
   <g style="clip-path:url(#id1)">
   <image xmlns="http://www.w3.org/2000/svg" x="24.88" y="-16.24" width="125.17" height="167.21" xmlns:xlink="http://www.w3.org/1999/xlink" xlink:href="https://ik.imagekit.io/moearchive/calendar/grad/ikomarina.png"/>
   </g>
   <g style="clip-path:url(#id2)">
   </g>
  </g>
  <path class="fil0" d="M3.15 91.45c55.51,23.76 110.99,25.2 166.5,0.13 0.13,-1.75 0.17,-3.45 0.17,-5.19 0,-23.03 -9.32,-43.89 -24.44,-58.96 -15.11,-15.11 -35.93,-24.44 -58.96,-24.44 -23.03,0 -43.89,9.32 -58.96,24.44 -15.11,15.11 -24.44,35.93 -24.44,58.96 0,1.7 0.04,3.41 0.17,5.11l-0.04 -0.04z"/>
  <path class="fil1" d="M51.3 34.57c-2.04,1.36 -4.81,0.85 -6.17,-1.19 -1.36,-2.04 -0.85,-4.81 1.19,-6.17 0.94,-0.64 1.96,-1.28 2.98,-1.92 1.23,-0.77 2.26,-1.36 3.02,-1.79 2.17,-1.19 4.9,-0.38 6.05,1.79 1.19,2.17 0.38,4.9 -1.79,6.05 -1.15,0.64 -2.04,1.15 -2.68,1.53 -0.85,0.51 -1.75,1.06 -2.6,1.66l0 0.04zm35.08 -34.57c23.84,0 45.47,9.66 61.09,25.29 15.62,15.62 25.29,37.25 25.29,61.09 0,23.84 -9.66,45.47 -25.29,61.09 -15.62,15.62 -37.25,25.29 -61.09,25.29 -23.84,0 -45.47,-9.66 -61.09,-25.29 -15.62,-15.62 -25.29,-37.25 -25.29,-61.09 0,-23.84 9.66,-45.47 25.29,-61.09 15.62,-15.62 37.25,-25.29 61.09,-25.29zm-83.23 91.45c55.51,23.76 110.99,25.2 166.5,0.13 0.13,-1.75 0.17,-3.45 0.17,-5.19 0,-23.03 -9.32,-43.89 -24.44,-58.96 -15.11,-15.11 -35.93,-24.44 -58.96,-24.44 -23.03,0 -43.89,9.32 -58.96,24.44 -15.11,15.11 -24.44,35.93 -24.44,58.96 0,1.7 0.04,3.41 0.17,5.11l-0.04 -0.04zm22.01 -17.84c-0.51,2.43 -2.85,3.96 -5.28,3.45 -2.43,-0.51 -3.96,-2.85 -3.45,-5.28 1.45,-6.9 3.87,-13.54 7.24,-19.67 3.36,-6.13 7.62,-11.79 12.64,-16.73 1.75,-1.75 4.6,-1.7 6.3,0.04 1.75,1.75 1.7,4.56 -0.04,6.3 -4.43,4.34 -8.13,9.28 -11.07,14.64 -2.94,5.36 -5.07,11.15 -6.34,17.2l0 0.04z"/>
  <path class="fil2" d="M28.08 129.16l10.52 2.32 0 -6.93 -9.44 -2.08 0 -2.86 9.44 2.08 0 -6.58 -5.69 -1.26c-1.05,1.8 -2.72,2.93 -5.03,3.42l0 -3.42c2.31,-0.9 3.46,-2.92 3.46,-6.08l2.88 0.63c-0.01,1.01 -0.11,1.92 -0.29,2.76l4.68 1.03 0 -3.57 2.94 0.65 0 3.57 9.94 2.19 0 2.92 -9.94 -2.19 0 6.58 9.71 2.14 0 2.86 -9.71 -2.14 0 6.93 10.35 2.28 0 2.95 -23.8 -5.25 0 -2.95zm43.73 -15.3l2.85 0.26c-0.22,0.74 -0.43,1.43 -0.65,2.08l2.6 0.23c1.64,0.15 2.95,0.7 3.95,1.66 0.87,0.91 1.36,1.92 1.48,3.02 0.25,2.43 0.38,4.68 0.38,6.76 0,4.06 -0.11,6.67 -0.33,7.83 -0.12,3.26 -1.7,4.92 -4.74,4.96 -1.84,-0.16 -3.41,-0.38 -4.71,-0.63l0 -2.77c0.85,0.27 2.15,0.49 3.92,0.65 1.5,0.13 2.41,-0.75 2.73,-2.65 0.2,-2.22 0.29,-4.66 0.29,-7.32 0,-3.39 -0.08,-5.55 -0.24,-6.48 -0.25,-1.45 -1.27,-2.26 -3.05,-2.42l-3.32 -0.3c-0.46,0.99 -0.97,1.86 -1.54,2.6l2.87 0.26c1.33,0.22 2.32,1 2.99,2.35 0.69,1.27 1.04,3.05 1.04,5.33 0,2.14 -0.33,3.74 -1.01,4.79 -0.65,1.11 -1.62,1.66 -2.9,1.64l-3.82 -0.34 0 -13.03c-0.41,0.42 -0.83,0.78 -1.24,1.08l0 -3.72c1.03,-1.08 1.85,-3.03 2.46,-5.85zm1.24 19.16l0.86 0.08c0.65,0 1.14,-0.36 1.45,-1.09 0.34,-0.7 0.51,-1.65 0.51,-2.84 0,-1.41 -0.18,-2.57 -0.54,-3.47 -0.35,-0.88 -0.86,-1.44 -1.54,-1.66l-0.74 -0.07 0 9.05zm-3.94 -18.62l0 2.38 -3.47 -0.31 0 1.94 2.91 0.26 0 2.23 -2.91 -0.26 0 1.93 2.85 0.26 0 2.23 -2.85 -0.26 0 1.94 0.09 0.01c2.65,0.41 3.99,2.36 4.03,5.84 0,1.79 -0.21,3.32 -0.62,4.62 -0.46,1.88 -1.9,2.71 -4.33,2.5 -2.03,-0.18 -3.43,-0.38 -4.21,-0.61l0 -2.47c1.19,0.26 2.52,0.46 4,0.6 1.23,0.11 1.93,-0.23 2.1,-1.03 0.08,-0.15 0.14,-0.32 0.18,-0.49l-1.4 -0.13c-0.22,-1.62 -0.6,-3.53 -1.15,-5.73l1.54 0.14c0.46,1.86 0.82,3.67 1.1,5.43 0.16,-0.72 0.24,-1.6 0.24,-2.63 -0.04,-2.3 -0.63,-3.56 -1.78,-3.76l-7.38 -0.66 0 -14.94 11.06 0.99zm-5.96 12.11l0 -1.94 -2.61 -0.23 0 1.94 2.61 0.23zm0 -4.16l0 -1.93 -2.61 -0.23 0 1.93 2.61 0.23zm0 -4.17l0 -1.94 -2.61 -0.23 0 1.94 2.61 0.23zm-3.23 11.26l1.45 0.13c0.29,1.87 0.49,3.93 0.59,6.18l-1.63 -0.15c-0.06,-2.09 -0.2,-4.15 -0.41,-6.17zm2.13 0.19l1.46 0.13c0.57,1.89 0.96,3.97 1.15,6.23l-1.66 -0.15c-0.14,-2.09 -0.46,-4.17 -0.95,-6.22zm-4.44 -0.4l1.74 0.16c-0.06,3.43 -0.87,5.85 -2.43,7.28l0.03 -3.24c0.43,-1.01 0.65,-2.42 0.65,-4.2zm34.78 -5.76l0 3.12 6.43 -0.54 0 -3.12 -6.43 0.54zm6.43 5.38l-9.31 0.79 0 -14.34 15.93 -1.35c4.49,-0.38 6.77,1.79 6.85,6.5 0,4.59 -1.92,7.17 -5.78,7.75l-4.75 0.4 0 2.59 10.2 -0.86 0 2.85 -10.2 0.86 0 2.71 11.42 -0.97 0 2.92 -25.59 2.17 0 -2.92 11.23 -0.95 0 -2.71 -9.9 0.84 0 -2.85 9.9 -0.84 0 -2.59zm2.94 -3.05l4.33 -0.37c1.84,-0.39 2.91,-1.53 3.23,-3.4l-7.57 0.64 0 3.12zm7.57 -6.29c-0.36,-2.09 -1.65,-3.04 -3.89,-2.86l-3.68 0.31 0 3.18 7.57 -0.64zm-10.5 -2.3l-6.43 0.54 0 3.18 6.43 -0.54 0 -3.18zm19.78 -3.72l9.41 -1.95c0.37,-0.69 0.7,-1.4 0.99,-2.14l3 -0.62c-0.21,0.71 -0.46,1.41 -0.73,2.08l10.93 -2.27 0 2.77 -5.94 1.23c1.88,1.55 4.09,2.37 6.61,2.44l0 3.25c-1.24,-0.1 -2.39,-0.29 -3.44,-0.57l0 1.52 -17.86 3.71 0 -1.28c-0.99,0.54 -2.04,1.07 -3.15,1.58l0 -3.15c3.05,-1.39 5.51,-3.16 7.38,-5.31l-7.2 1.49 0 -2.77zm6.03 6.07l12.65 -2.62c-1.83,-0.85 -3.31,-2.06 -4.46,-3.63l-3.15 0.65c-1.28,2.12 -2.96,3.98 -5.04,5.6zm-6.55 6.9l24.62 -5.11 0 2.82 -10.55 2.19c0.09,0.89 0.18,1.91 0.26,3.04 0,1.49 -0.11,2.5 -0.32,3.04 -0.29,1.62 -1.51,2.77 -3.64,3.43 -1.67,0.35 -3.05,0.57 -4.14,0.68l0 -2.77c1.1,-0.07 2.17,-0.21 3.2,-0.43 1.32,-0.27 2.01,-1.13 2.07,-2.57 -0.04,-1.38 -0.12,-2.66 -0.26,-3.85l-11.25 2.33 0 -2.82zm3.73 3.09l2.59 -0.54c-0.09,3.61 -1.87,6.4 -5.33,8.37l0 -2.85c1.83,-1.29 2.74,-2.95 2.74,-4.98zm14.63 -2.94l2.68 -0.56c0.12,1.46 1.02,2.51 2.71,3.13l0 3.3c-2.95,-0.77 -4.75,-2.73 -5.39,-5.88z"/>
 </g>
</svg>
