<?xml version="1.0" encoding="UTF-8"?>
<!DOCTYPE svg PUBLIC "-//W3C//DTD SVG 1.1//EN" "http://www.w3.org/Graphics/SVG/1.1/DTD/svg11.dtd">
<!-- Creator: CorelDRAW 2021.5 -->
<svg xmlns="http://www.w3.org/2000/svg" xml:space="preserve" width="100%" height="100%" version="1.1" style="shape-rendering:geometricPrecision; text-rendering:geometricPrecision; image-rendering:optimizeQuality; fill-rule:evenodd; clip-rule:evenodd"
viewBox="0 0 114.64 114.64"
 xmlns:xlink="http://www.w3.org/1999/xlink"
 xmlns:xodm="http://www.corel.com/coreldraw/odm/2003">
 <defs>
  <style type="text/css">
   <![CDATA[
    .fil0 {fill:none;fill-rule:nonzero}
    .fil1 {fill:#8C2898;fill-rule:nonzero}
    .fil2 {fill:white;fill-rule:nonzero}
   ]]>
  </style>
   <clipPath id="id0" style="clip-rule:nonzero">
    <path d="M2.09 60.68c36.84,15.76 73.65,16.72 110.49,0.08 0.08,-1.16 0.11,-2.29 0.11,-3.45 0,-15.28 -6.19,-29.13 -16.22,-39.13 -10.03,-10.03 -23.84,-16.22 -39.13,-16.22 -15.28,0 -29.13,6.19 -39.13,16.22 -10.03,10.03 -16.22,23.84 -16.22,39.13 0,1.13 0.03,2.26 0.11,3.39l-0.03 -0.03z"/>
   </clipPath>
    <clipPath id="id1">
     <path d="M14.52 65.44c27.69,9.32 55.37,10.1 83.06,1.14l0 -47.25c-0.36,-0.38 -0.73,-0.76 -1.1,-1.13 -10.03,-10.03 -23.84,-16.22 -39.13,-16.22 -15.28,0 -29.13,6.19 -39.13,16.22 -1.3,1.3 -2.54,2.67 -3.7,4.09l0 43.15z"/>
    </clipPath>
    <clipPath id="id2">
     <path d="M2.09 60.68c36.84,15.76 73.65,16.72 110.49,0.08 0.08,-1.16 0.11,-2.29 0.11,-3.45 0,-15.28 -6.19,-29.13 -16.22,-39.13 -10.03,-10.03 -23.84,-16.22 -39.13,-16.22 -15.28,0 -29.13,6.19 -39.13,16.22 -10.03,10.03 -16.22,23.84 -16.22,39.13 0,1.13 0.03,2.26 0.11,3.39l-0.03 -0.03z"/>
    </clipPath>
 </defs>
 <g id="Layer_x0020_1">
  <metadata id="CorelCorpID_0Corel-Layer"/>
  <g>
  </g>
  <g style="clip-path:url(#id0)">
   <g id="_1788542847168">
   </g>
   <g style="clip-path:url(#id1)">
    <image xmlns="http://www.w3.org/2000/svg" x="19.52" y="-11.12" width="73.06" height="100.96" xmlns:xlink="http://www.w3.org/1999/xlink" xlink:href="https://ik.imagekit.io/moearchive/calendar/grad/inouesayuri.png"/>
   </g>
   <g style="clip-path:url(#id2)">
   </g>
  </g>
  <path class="fil0" d="M2.09 60.68c36.84,15.76 73.65,16.72 110.49,0.08 0.08,-1.16 0.11,-2.29 0.11,-3.45 0,-15.28 -6.19,-29.13 -16.22,-39.13 -10.03,-10.03 -23.84,-16.22 -39.13,-16.22 -15.28,0 -29.13,6.19 -39.13,16.22 -10.03,10.03 -16.22,23.84 -16.22,39.13 0,1.13 0.03,2.26 0.11,3.39l-0.03 -0.03z"/>
  <path class="fil1" d="M34.04 22.94c-1.36,0.9 -3.19,0.56 -4.1,-0.79 -0.9,-1.36 -0.56,-3.19 0.79,-4.1 0.62,-0.42 1.3,-0.85 1.98,-1.27 0.82,-0.51 1.5,-0.9 2.01,-1.19 1.44,-0.79 3.25,-0.25 4.01,1.19 0.79,1.44 0.25,3.25 -1.19,4.01 -0.76,0.42 -1.36,0.76 -1.78,1.02 -0.56,0.34 -1.16,0.71 -1.72,1.1l0 0.03zm23.28 -22.94c15.82,0 30.17,6.41 40.54,16.78 10.37,10.37 16.78,24.72 16.78,40.54 0,15.82 -6.41,30.17 -16.78,40.54 -10.37,10.37 -24.72,16.78 -40.54,16.78 -15.82,0 -30.17,-6.41 -40.54,-16.78 -10.37,-10.37 -16.78,-24.72 -16.78,-40.54 0,-15.82 6.41,-30.17 16.78,-40.54 10.37,-10.37 24.72,-16.78 40.54,-16.78zm-55.23 60.68c36.84,15.76 73.65,16.72 110.49,0.08 0.08,-1.16 0.11,-2.29 0.11,-3.45 0,-15.28 -6.19,-29.13 -16.22,-39.13 -10.03,-10.03 -23.84,-16.22 -39.13,-16.22 -15.28,0 -29.13,6.19 -39.13,16.22 -10.03,10.03 -16.22,23.84 -16.22,39.13 0,1.13 0.03,2.26 0.11,3.39l-0.03 -0.03zm14.61 -11.84c-0.34,1.61 -1.89,2.63 -3.5,2.29 -1.61,-0.34 -2.63,-1.89 -2.29,-3.5 0.96,-4.58 2.57,-8.98 4.8,-13.05 2.23,-4.07 5.06,-7.83 8.39,-11.1 1.16,-1.16 3.05,-1.13 4.18,0.03 1.16,1.16 1.13,3.02 -0.03,4.18 -2.94,2.88 -5.4,6.16 -7.35,9.72 -1.95,3.56 -3.36,7.4 -4.21,11.41l0 0.03z"/>
  <path class="fil2" d="M9.26 70.7l3.21 0.84 0 -2.8 1.84 0.48 0 2.8 5.44 1.43 0 -2.8 1.89 0.5 0 2.8 3.05 0.8 0 1.94 -3.05 -0.8 0 5.51 3.63 0.95 0 1.98 -3.63 -0.95 0 5.63 -1.89 -0.5 0 -5.63 -6.29 -1.65c-0.21,0.65 -0.47,1.26 -0.76,1.82 -0.95,1.69 -1.85,2.67 -2.73,2.96l0 -2.67c0.69,-0.65 1.22,-1.52 1.6,-2.6l-2.87 -0.75 0 -1.98 3.38 0.89c0.23,-1.18 0.35,-2.51 0.36,-3.99l0.02 -1.42 -3.21 -0.84 0 -1.94zm5.04 3.26l0 1.48c-0.01,1.42 -0.13,2.73 -0.37,3.93l5.81 1.52 0 -5.51 -5.44 -1.43zm19.73 -0.09l2.01 0.32 0 5.65c3.13,0.29 5.94,0.5 8.41,0.61l0 1.91c-2.26,-0.09 -5.06,-0.32 -8.41,-0.69l0 7.58 9.01 1.42 0 2 -16.64 -2.62 0 -2 5.62 0.89 0 -15.07zm21.95 2.1l2.06 -0.02c0.15,1.83 0.22,5.03 0.22,9.61 0,2.89 -0.1,4.79 -0.32,5.73 -0.3,1.37 -1.36,2.06 -3.18,2.08 -1.06,0.01 -1.93,-0.06 -2.59,-0.2l0 -1.98c0.72,0.15 1.53,0.22 2.43,0.22 0.99,-0.01 1.48,-0.4 1.48,-1.18 0.1,-0.59 0.16,-2.07 0.16,-4.44 0,-3.52 -0.08,-6.79 -0.26,-9.83zm-5.1 1.12l2.02 -0.02c-0.09,7.19 -1.56,12.04 -4.4,14.57l0 -3.02c1.59,-2.42 2.39,-6.26 2.39,-11.53zm10.23 -0.13l2.11 -0.02c0.08,4.67 0.76,8.56 2.05,11.65l0 3.6c-2.28,-3.03 -3.67,-8.1 -4.17,-15.23zm7.82 -0.92l16.07 -2.55 0 1.83 -7.55 1.2c-0.12,0.6 -0.27,1.16 -0.45,1.69l2.46 -0.39c1.62,-0.09 2.91,0.37 3.86,1.38 0.86,0.92 1.32,2.28 1.38,4.08 0,2.24 -0.42,3.9 -1.27,4.98 -0.88,1.38 -2.16,2.28 -3.84,2.72l-9.46 1.5 0 -13.19 4.86 -0.77c0.17,-0.58 0.32,-1.14 0.45,-1.69l-6.51 1.03 0 -1.83zm3.24 10.43l0 3.81 7.39 -1.17c1.11,-0.28 1.89,-0.89 2.34,-1.83 0.41,-0.71 0.66,-1.53 0.76,-2.47l-10.49 1.67zm10.47 -3.54c-0.13,-0.95 -0.42,-1.7 -0.88,-2.23 -0.57,-0.74 -1.43,-1.06 -2.57,-0.95l-7.02 1.11 0 3.73 10.47 -1.66zm8.1 -3.95c-0.73,0.93 -1.49,1.71 -2.3,2.33l0 -2.21c1.56,-1.47 2.98,-4.02 4.27,-7.65l7.32 -1.84c0.55,-0.14 1.14,0.17 1.78,0.91 1.15,1.74 2.22,3.12 3.22,4.13l0 2.84c-0.41,-0.23 -0.99,-0.79 -1.76,-1.67l-12.53 3.15zm11.21 -4.69c-0.42,-0.55 -0.89,-1.16 -1.4,-1.82 -0.42,-0.67 -0.98,-0.92 -1.68,-0.74l-4.81 1.21c-0.55,1.4 -1.14,2.66 -1.78,3.78l9.67 -2.43zm-0.98 4.12c2.31,-0.5 3.47,0.53 3.47,3.1 0,2.37 -1,3.9 -2.99,4.58l-11.22 2.82 0 -7.8 10.74 -2.7zm-8.9 8.16l9.02 -2.25c0.96,-0.25 1.44,-1.07 1.44,-2.45 0,-1.38 -0.53,-1.94 -1.59,-1.67l-8.87 2.23 0 4.15z"/>
 </g>
</svg>
