<?xml version="1.0" encoding="UTF-8"?>
<!DOCTYPE svg PUBLIC "-//W3C//DTD SVG 1.1//EN" "http://www.w3.org/Graphics/SVG/1.1/DTD/svg11.dtd">
<!-- Creator: CorelDRAW 2021.5 -->
<svg xmlns="http://www.w3.org/2000/svg" xml:space="preserve" width="100%" height="100%" version="1.1" style="shape-rendering:geometricPrecision; text-rendering:geometricPrecision; image-rendering:optimizeQuality; fill-rule:evenodd; clip-rule:evenodd"
viewBox="0 0 247.13 247.13"
 xmlns:xlink="http://www.w3.org/1999/xlink"
 xmlns:xodm="http://www.corel.com/coreldraw/odm/2003">
 <defs>
  <style type="text/css">
   <![CDATA[
    .fil0 {fill:none;fill-rule:nonzero}
    .fil1 {fill:#8C2898;fill-rule:nonzero}
    .fil2 {fill:white;fill-rule:nonzero}
   ]]>
  </style>
    <clipPath id="id0" style="clip-rule:nonzero">
     <path d="M4.51 130.81c79.41,33.98 158.77,36.05 238.18,0.18 0.18,-2.5 0.24,-4.93 0.24,-7.43 0,-32.95 -13.34,-62.79 -34.96,-84.35 -21.62,-21.62 -51.4,-34.96 -84.35,-34.96 -32.95,0 -62.79,13.34 -84.35,34.96 -21.62,21.62 -34.96,51.4 -34.96,84.35 0,2.44 0.06,4.87 0.24,7.31l-0.06 -0.06z"/>
    </clipPath>
     <clipPath id="id1">
      <path d="M31.3 141.05c59.69,20.09 119.36,21.77 179.05,2.46l0 -101.85c-0.78,-0.83 -1.57,-1.64 -2.38,-2.44 -21.62,-21.62 -51.4,-34.96 -84.35,-34.96 -32.95,0 -62.79,13.34 -84.35,34.96 -2.8,2.8 -5.47,5.75 -7.98,8.82l0 93.02z"/>
     </clipPath>
     <clipPath id="id2">
      <path d="M4.51 130.81c79.41,33.98 158.77,36.05 238.18,0.18 0.18,-2.5 0.24,-4.93 0.24,-7.43 0,-32.95 -13.34,-62.79 -34.96,-84.35 -21.62,-21.62 -51.4,-34.96 -84.35,-34.96 -32.95,0 -62.79,13.34 -84.35,34.96 -21.62,21.62 -34.96,51.4 -34.96,84.35 0,2.44 0.06,4.87 0.24,7.31l-0.06 -0.06z"/>
     </clipPath>
 </defs>
 <g id="Layer_x0020_1">
  <metadata id="CorelCorpID_0Corel-Layer"/>
  <g id="_1823140390608">
   <g>
   </g>
   <g style="clip-path:url(#id0)">
    <g>
    </g>
    <g style="clip-path:url(#id1)">
	<image x="51.3" y="-17.51" width="149.05" height="209.19" xlink:href="https://ik.imagekit.io/moearchive/calendar/grad/kawamuramahiro.png"/>
    </g>
    <g style="clip-path:url(#id2)">
    </g>
   </g>
   <path class="fil0" d="M4.51 130.81c79.41,33.98 158.77,36.05 238.18,0.18 0.18,-2.5 0.24,-4.93 0.24,-7.43 0,-32.95 -13.34,-62.79 -34.96,-84.35 -21.62,-21.62 -51.4,-34.96 -84.35,-34.96 -32.95,0 -62.79,13.34 -84.35,34.96 -21.62,21.62 -34.96,51.4 -34.96,84.35 0,2.44 0.06,4.87 0.24,7.31l-0.06 -0.06z"/>
   <path class="fil1" d="M73.38 49.45c-2.92,1.95 -6.88,1.22 -8.83,-1.71 -1.95,-2.92 -1.22,-6.88 1.71,-8.83 1.34,-0.91 2.8,-1.83 4.26,-2.74 1.77,-1.1 3.23,-1.95 4.32,-2.56 3.11,-1.71 7,-0.55 8.65,2.56 1.71,3.11 0.55,7 -2.56,8.65 -1.64,0.91 -2.92,1.64 -3.84,2.19 -1.22,0.73 -2.5,1.52 -3.72,2.37l0 0.06zm50.18 -49.45c34.1,0 65.04,13.82 87.39,36.17 22.35,22.35 36.17,53.29 36.17,87.39 0,34.1 -13.82,65.04 -36.17,87.39 -22.35,22.35 -53.29,36.17 -87.39,36.17 -34.1,0 -65.04,-13.82 -87.39,-36.17 -22.35,-22.35 -36.17,-53.29 -36.17,-87.39 0,-34.1 13.82,-65.04 36.17,-87.39 22.35,-22.35 53.29,-36.17 87.39,-36.17zm-119.06 130.81c79.41,33.98 158.77,36.05 238.18,0.18 0.18,-2.5 0.24,-4.93 0.24,-7.43 0,-32.95 -13.34,-62.79 -34.96,-84.35 -21.62,-21.62 -51.4,-34.96 -84.35,-34.96 -32.95,0 -62.79,13.34 -84.35,34.96 -21.62,21.62 -34.96,51.4 -34.96,84.35 0,2.44 0.06,4.87 0.24,7.31l-0.06 -0.06zm31.49 -25.52c-0.73,3.47 -4.08,5.66 -7.55,4.93 -3.47,-0.73 -5.66,-4.08 -4.93,-7.55 2.07,-9.87 5.54,-19.37 10.35,-28.14 4.81,-8.77 10.9,-16.87 18.09,-23.93 2.5,-2.5 6.58,-2.44 9.01,0.06 2.5,2.5 2.44,6.52 -0.06,9.01 -6.33,6.21 -11.63,13.28 -15.83,20.95 -4.2,7.67 -7.25,15.96 -9.07,24.6l0 0.06z"/>
   <path class="fil2" d="M67.65 158.43l4.12 0.91 0 38.02 -4.12 -0.91 0 -38.02zm-12.64 -1.76l4.04 0.89 0 35.33 -4.04 -0.89 0 -35.33zm-8.23 -2.84l0 15.33c0,6.87 -0.68,11.61 -2.04,14.23 -1.55,3.63 -3.24,6 -5.07,7.1l-0.04 -6.14c0.89,-1.25 1.64,-3.15 2.25,-5.71 0.61,-2.37 0.92,-5.78 0.92,-10.23l0.08 -15.39 3.91 0.82zm34.95 10.72l6.23 0.56 0 -3.62 4.03 0.36 0 3.62 6.23 0.56 0 4.21 -1.31 -0.12c0.06,10.9 0.46,20.73 1.23,29.48l-3.44 -0.26c-0.73,-5.89 -1.14,-15.73 -1.23,-29.53l-1.48 -0.13 0 30.73 -4.03 -0.36 0 -30.73 -1.4 -0.12c-0.14,10.12 -0.45,19.87 -0.93,29.25l-3.73 -0.33c0.79,-9.16 1.2,-18.89 1.22,-29.22l-1.4 -0.12 0 -4.21zm17.85 1.64l10.77 0.96c-0.06,-1.2 -0.12,-2.37 -0.21,-3.51l4.28 0.38c0.08,1 0.15,2.17 0.21,3.51l3.44 0.31 0 4.13 -3.31 -0.3c0.08,3.58 0.12,7.97 0.12,13.16 0,6.28 -0.24,10.38 -0.72,12.33 -0.7,2.92 -3.13,4.19 -7.29,3.82 -2.43,-0.22 -4.39,-0.57 -5.85,-1.03l0 -4c1.69,0.49 3.65,0.84 5.85,1.03 2.32,0.21 3.47,-0.52 3.47,-2.2 0.25,-1.28 0.38,-4.51 0.38,-9.67 0,-4.79 -0.07,-9.4 -0.21,-13.81l-10.94 -0.98 0 -4.13zm0.38 6.67l3.94 0.35c1.1,5.77 1.98,12.75 2.63,20.92l-4.12 -0.37c-0.48,-7 -1.29,-13.96 -2.45,-20.9zm32.79 7.84l0 1.58 22.86 -1.94c0.03,-0.34 0.06,-0.69 0.09,-1.02 -0.03,-0.2 -0.04,-0.38 -0.04,-0.56l-22.9 1.94zm21.81 -5.17c-0.57,-0.77 -1.39,-1.21 -2.46,-1.32l-19.34 1.64 0 1.53 21.81 -1.85zm-21.81 10.06l0 1.53 18.54 -1.61c1.38,-0.17 2.43,-0.76 3.13,-1.75l-21.67 1.83zm-6.74 -18.71l15.14 -1.28 0 -2.72 4.29 -0.36 0 2.72 15.57 -1.32 0 3.92 -15.57 1.32 0 2 6.91 -0.59c2.37,0.05 4.21,0.88 5.52,2.48 1.35,1.27 2.05,3.24 2.08,5.91 0,2.95 -0.62,5.24 -1.87,6.88 -1.5,2.03 -3.31,3.19 -5.43,3.48l-24.18 2.05 0 -18.77 12.68 -1.07 0 -2 -15.14 1.28 0 -3.92zm-0.81 26.12l36.36 -3.08 0 4 -5.6 0.47c0.62,1.76 1.35,3.49 2.16,5.18l-5 0.38c-0.57,-1.62 -1.15,-3.35 -1.74,-5.17l-16.07 1.36c-0.68,2.01 -1.42,3.86 -2.21,5.55l-4.84 0.41c0.88,-1.89 1.61,-3.74 2.21,-5.55l-5.26 0.45 0 -4zm44.41 -32.31c3.05,0.39 5.85,1.08 8.37,2.09l0 4.69c-2.8,-1.26 -5.6,-2.06 -8.37,-2.4l0 -4.38zm-0.17 9.4c3.09,0.38 5.9,1.07 8.47,2.07l0 4.69c-2.81,-1.26 -5.63,-2.05 -8.47,-2.37l0 -4.39zm4.46 9.54l4.05 -0.84c-1.47,6.95 -4.42,12.91 -8.84,17.88l0 -6.26c2.17,-2.69 3.77,-6.29 4.79,-10.79zm5.34 2.13l10.38 -2.15 0 -5.45 -8.59 1.78 0 -3.75 8.59 -1.78 0 -5.36 -10.04 2.08 0 -3.66 5.17 -1.07c-0.42,-1.85 -0.78,-3.71 -1.09,-5.61l4.21 -0.87c0.31,1.78 0.7,3.65 1.17,5.59l5.76 -1.19c0.44,-2.08 0.83,-4.1 1.17,-6.08l4.25 -0.88c-0.36,2.2 -0.77,4.24 -1.21,6.08l5.08 -1.05 0 3.66 -10.34 2.14 0 5.36 8.76 -1.82 0 3.75 -8.76 1.82 0 5.45 10.59 -2.2 0 3.83 -10.59 2.2 0 10.17 -4.13 0.86 0 -10.17 -10.38 2.15 0 -3.83z"/>
  </g>
 </g>
</svg>
