<?xml version="1.0" encoding="UTF-8"?>
<!DOCTYPE svg PUBLIC "-//W3C//DTD SVG 1.1//EN" "http://www.w3.org/Graphics/SVG/1.1/DTD/svg11.dtd">
<!-- Creator: CorelDRAW 2021.5 -->
<svg xmlns="http://www.w3.org/2000/svg" xml:space="preserve" width="100%" height="100%" version="1.1" style="shape-rendering:geometricPrecision; text-rendering:geometricPrecision; image-rendering:optimizeQuality; fill-rule:evenodd; clip-rule:evenodd"
viewBox="0 0 172.76 172.76"
 xmlns:xlink="http://www.w3.org/1999/xlink"
 xmlns:xodm="http://www.corel.com/coreldraw/odm/2003">
 <defs>
  <style type="text/css">
   <![CDATA[
    .fil0 {fill:none;fill-rule:nonzero}
    .fil1 {fill:#8C2898;fill-rule:nonzero}
    .fil2 {fill:white;fill-rule:nonzero}
   ]]>
  </style>
    <clipPath id="id0" style="clip-rule:nonzero">
     <path d="M3.15 91.45c55.51,23.76 110.99,25.2 166.5,0.13 0.13,-1.75 0.17,-3.45 0.17,-5.19 0,-23.03 -9.32,-43.89 -24.44,-58.96 -15.11,-15.11 -35.93,-24.44 -58.96,-24.44 -23.03,0 -43.89,9.32 -58.96,24.44 -15.11,15.11 -24.44,35.93 -24.44,58.96 0,1.7 0.04,3.41 0.17,5.11l-0.04 -0.04z"/>
    </clipPath>
     <clipPath id="id1">
      <path d="M21.88 98.61c41.73,14.05 83.44,15.22 125.17,1.72l0 -71.2c-0.55,-0.58 -1.1,-1.15 -1.66,-1.71 -15.11,-15.11 -35.93,-24.44 -58.96,-24.44 -23.03,0 -43.89,9.32 -58.96,24.44 -1.96,1.96 -3.82,4.02 -5.58,6.16l0 65.03z"/>
     </clipPath>
     <clipPath id="id2">
      <path d="M3.15 91.45c55.51,23.76 110.99,25.2 166.5,0.13 0.13,-1.75 0.17,-3.45 0.17,-5.19 0,-23.03 -9.32,-43.89 -24.44,-58.96 -15.11,-15.11 -35.93,-24.44 -58.96,-24.44 -23.03,0 -43.89,9.32 -58.96,24.44 -15.11,15.11 -24.44,35.93 -24.44,58.96 0,1.7 0.04,3.41 0.17,5.11l-0.04 -0.04z"/>
     </clipPath>
 </defs>
 <g id="Layer_x0020_1">
  <metadata id="CorelCorpID_0Corel-Layer"/>
  <g id="_1823096908848">
   <g>
   </g>
   <g style="clip-path:url(#id0)">
    <g>
    </g>
    <g style="clip-path:url(#id1)">
     <image xmlns="http://www.w3.org/2000/svg" x="24.88" y="-17.24" width="121.17" height="163.21" xmlns:xlink="http://www.w3.org/1999/xlink" xlink:href="https://ik.imagekit.io/moearchive/calendar/grad/kawagohina.png"/>
    </g>
    <g style="clip-path:url(#id2)">
    </g>
   </g>
   <path class="fil0" d="M3.15 91.45c55.51,23.76 110.99,25.2 166.5,0.13 0.13,-1.75 0.17,-3.45 0.17,-5.19 0,-23.03 -9.32,-43.89 -24.44,-58.96 -15.11,-15.11 -35.93,-24.44 -58.96,-24.44 -23.03,0 -43.89,9.32 -58.96,24.44 -15.11,15.11 -24.44,35.93 -24.44,58.96 0,1.7 0.04,3.41 0.17,5.11l-0.04 -0.04z"/>
   <path class="fil1" d="M51.3 34.57c-2.04,1.36 -4.81,0.85 -6.17,-1.19 -1.36,-2.04 -0.85,-4.81 1.19,-6.17 0.94,-0.64 1.96,-1.28 2.98,-1.92 1.23,-0.77 2.26,-1.36 3.02,-1.79 2.17,-1.19 4.9,-0.38 6.05,1.79 1.19,2.17 0.38,4.9 -1.79,6.05 -1.15,0.64 -2.04,1.15 -2.68,1.53 -0.85,0.51 -1.75,1.06 -2.6,1.66l0 0.04zm35.08 -34.57c23.84,0 45.47,9.66 61.09,25.29 15.62,15.62 25.29,37.25 25.29,61.09 0,23.84 -9.66,45.47 -25.29,61.09 -15.62,15.62 -37.25,25.29 -61.09,25.29 -23.84,0 -45.47,-9.66 -61.09,-25.29 -15.62,-15.62 -25.29,-37.25 -25.29,-61.09 0,-23.84 9.66,-45.47 25.29,-61.09 15.62,-15.62 37.25,-25.29 61.09,-25.29zm-83.23 91.45c55.51,23.76 110.99,25.2 166.5,0.13 0.13,-1.75 0.17,-3.45 0.17,-5.19 0,-23.03 -9.32,-43.89 -24.44,-58.96 -15.11,-15.11 -35.93,-24.44 -58.96,-24.44 -23.03,0 -43.89,9.32 -58.96,24.44 -15.11,15.11 -24.44,35.93 -24.44,58.96 0,1.7 0.04,3.41 0.17,5.11l-0.04 -0.04zm22.01 -17.84c-0.51,2.43 -2.85,3.96 -5.28,3.45 -2.43,-0.51 -3.96,-2.85 -3.45,-5.28 1.45,-6.9 3.87,-13.54 7.24,-19.67 3.36,-6.13 7.62,-11.79 12.64,-16.73 1.75,-1.75 4.6,-1.7 6.3,0.04 1.75,1.75 1.7,4.56 -0.04,6.3 -4.43,4.34 -8.13,9.28 -11.07,14.64 -2.94,5.36 -5.07,11.15 -6.34,17.2l0 0.04z"/>
   <path class="fil2" d="M47.85 110.87l2.88 0.64 0 26.58 -2.88 -0.64 0 -26.58zm-8.83 -1.23l2.82 0.62 0 24.7 -2.82 -0.62 0 -24.7zm-5.75 -1.99l0 10.72c0,4.8 -0.48,8.12 -1.42,9.95 -1.09,2.54 -2.27,4.19 -3.55,4.96l-0.03 -4.29c0.62,-0.87 1.15,-2.21 1.57,-4 0.43,-1.65 0.64,-4.04 0.64,-7.15l0.05 -10.76 2.73 0.57zm40.33 6.55l4.09 0.37 -6.76 4.39 4 0.36 3.41 -2.02 4.54 0.41 -11.17 6.59 6.7 0.6c0.53,0.05 0.8,-0.28 0.8,-1l0 -2.65 2.76 0.25 0 3.72c0,1.63 -0.98,2.41 -2.93,2.36l-7 -0.63c-0.06,0.45 -0.13,0.9 -0.21,1.35l7.79 0.7c1.66,0.35 2.49,1.15 2.49,2.4 -0.16,2.01 -1.39,3.78 -3.7,5.29 1.4,0.68 3.03,1.31 4.86,1.87l0 3.03c-2.96,-0.9 -5.51,-2.03 -7.65,-3.39 -2.55,1.12 -5.53,1.67 -8.95,1.64l0 -2.65c2.47,-0.13 4.58,-0.45 6.34,-0.95 -1.21,-1.08 -2.22,-2.26 -3.03,-3.54 -0.97,1.34 -2.25,2.4 -3.82,3.2l0 -3.21c1.74,-1.27 2.83,-3.26 3.26,-5.95l-0.15 -0.01c-1.68,-0.15 -2.52,-0.77 -2.52,-1.87 0,-0.29 0.35,-0.74 1.04,-1.33l3.41 -2.02 -2.9 -0.26c-1.05,-0.23 -1.57,-0.83 -1.57,-1.78 0,-0.32 0.2,-0.66 0.6,-1.02l6.28 -4.23zm2.13 20.96c1.66,-0.88 2.8,-2.04 3.43,-3.47 0,-0.18 -0.09,-0.28 -0.26,-0.32l-7.15 -0.64c0.67,1.65 2,3.13 3.98,4.43zm-15.27 -8.8c-1.01,0.74 -2.08,1.35 -3.23,1.82l0 -3.21c2.45,-1.23 4.37,-3.09 5.75,-5.58l3.2 0.29c-0.89,1.61 -1.88,3.01 -2.96,4.19l0 16.13 -2.76 -0.25 0 -13.39zm2.58 -13.16l3.2 0.29c-2.33,4.08 -5.33,6.82 -8.98,8.24l0 -3.18c2.47,-1.17 4.4,-2.95 5.78,-5.34zm38.61 6.88l0 1.4 5.92 -0.58c1.07,-0.25 1.77,-0.78 2.13,-1.61l-8.06 0.79zm8.14 -2.94c-0.37,-0.82 -1.23,-1.2 -2.57,-1.17l-5.57 0.55 0 1.43 8.14 -0.8zm-12.11 7.97l15.61 -1.53 0 2.56 -9.92 0.97c-0.14,0.49 -0.3,0.94 -0.48,1.36l7.02 -0.69c1.16,0.04 2.03,0.56 2.6,1.56 0.6,0.99 0.89,2.31 0.89,3.93 0,1.83 -0.32,3.26 -0.98,4.3 -0.61,1.03 -1.54,1.66 -2.79,1.88 -1.64,0.16 -2.82,0.22 -3.52,0.17l0 -2.38c0.9,0.07 1.93,0.05 3.05,-0.06 1.07,-0.19 1.6,-1.36 1.6,-3.52 -0.06,-1.8 -0.37,-2.88 -0.92,-3.24 -2.29,5.16 -5.4,8.52 -9.33,10.08l0 -2.71c3.06,-1.69 5.31,-4.12 6.75,-7.3l-1.48 0.15c-1.88,3.76 -4.4,6.23 -7.58,7.41l0 -2.62c2.19,-1.09 3.83,-2.6 4.92,-4.53l-1.66 0.16c-0.99,1.31 -2.23,2.35 -3.73,3.13l-0.03 -2.88c1.56,-1.01 2.57,-2.31 3.05,-3.93l-3.08 0.3 0 -2.56zm10.6 -2.08l-9.21 0.9 0 -9.55 8.95 -0.88c1.42,-0.04 2.51,0.3 3.26,1.02 0.83,0.79 1.24,1.88 1.24,3.27 0,1.43 -0.41,2.61 -1.24,3.55 -0.75,0.98 -1.74,1.55 -2.99,1.69zm-13.71 -8.18c1.68,0.05 2.52,0.75 2.52,2.1 0,1.33 -0.71,3.72 -2.13,7.17 1.18,4.01 1.77,7.59 1.77,10.75 0,1.82 -0.71,2.84 -2.13,3.06l-2.43 0.24 0 -2.5 1.42 -0.14c0.43,-0.04 0.65,-0.4 0.65,-1.07 0,-1.69 -0.63,-5.08 -1.9,-10.17 0.65,-2.17 1.3,-4.34 1.96,-6.5 0,-0.29 -0.2,-0.43 -0.59,-0.39l-2.31 0.23 0 23.63 -2.82 0.28 0 -26.1 5.98 -0.59zm24.04 -1.8l5.65 -1.17 0 -1.58 2.88 -0.6 0 1.58 7.63 -1.58 0 -1.64 2.88 -0.6 0 1.64 5.39 -1.12 0 2.65 -5.39 1.12 0 1.67 -2.88 0.6 0 -1.67 -7.63 1.58 0 1.73 -2.88 0.6 0 -1.73 -5.65 1.17 0 -2.65zm0.2 15.37l10.64 -2.21 0 -1.46 2.82 -0.59 0 1.46 10.75 -2.23 0 2.74 -4.8 1c1.16,1.25 2.68,2.08 4.55,2.51l0 3.37c-3.27,-0.75 -5.84,-2.49 -7.72,-5.21l-2.77 0.57 0 7.08 -2.82 0.59 0 -7.08 -2.68 0.56c-1.16,3.16 -3.75,5.92 -7.75,8.3l0 -3.15c2.23,-1.43 3.78,-2.94 4.64,-4.5l-4.84 1 0 -2.74zm23.37 -15.36l0 2.71c-4.47,1.2 -12.01,2.92 -22.64,5.17l0 -2.58c10.96,-2.27 18.5,-4.04 22.64,-5.3zm-20.98 8.37l2.65 -0.55c0.49,1.25 0.92,2.6 1.31,4.04l-2.68 0.56c-0.35,-1.41 -0.78,-2.76 -1.28,-4.05zm7.51 -1.53l2.68 -0.56c0.41,1.22 0.79,2.54 1.14,3.96l-2.74 0.57c-0.29,-1.39 -0.65,-2.71 -1.08,-3.97zm9.1 -2.16l2.79 -0.58c-0.56,2.26 -1.08,3.89 -1.54,4.88l-2.86 0.59c0.74,-1.86 1.27,-3.49 1.61,-4.89z"/>
  </g>
 </g>
</svg>
