<?xml version="1.0" encoding="UTF-8"?>
<!DOCTYPE svg PUBLIC "-//W3C//DTD SVG 1.1//EN" "http://www.w3.org/Graphics/SVG/1.1/DTD/svg11.dtd">
<!-- Creator: CorelDRAW 2021.5 -->
<svg xmlns="http://www.w3.org/2000/svg" xml:space="preserve" width="100%" height="100%" version="1.1" style="shape-rendering:geometricPrecision; text-rendering:geometricPrecision; image-rendering:optimizeQuality; fill-rule:evenodd; clip-rule:evenodd"
viewBox="0 0 157.01 157.01"
 xmlns:xlink="http://www.w3.org/1999/xlink"
 xmlns:xodm="http://www.corel.com/coreldraw/odm/2003">
 <defs>
  <style type="text/css">
   <![CDATA[
    .fil0 {fill:none;fill-rule:nonzero}
    .fil1 {fill:#8C2898;fill-rule:nonzero}
    .fil2 {fill:white;fill-rule:nonzero}
   ]]>
  </style>
   <clipPath id="id0" style="clip-rule:nonzero">
    <path d="M2.86 83.11c50.45,21.59 100.87,22.91 151.32,0.12 0.12,-1.59 0.15,-3.13 0.15,-4.72 0,-20.93 -8.47,-39.89 -22.21,-53.59 -13.74,-13.74 -32.66,-22.21 -53.59,-22.21 -20.93,0 -39.89,8.47 -53.59,22.21 -13.74,13.74 -22.21,32.66 -22.21,53.59 0,1.55 0.04,3.1 0.15,4.64l-0.04 -0.04z"/>
   </clipPath>
    <clipPath id="id1">
     <path d="M19.88 89.62c37.93,12.77 75.83,13.83 113.76,1.56l0 -64.71c-0.5,-0.52 -1,-1.04 -1.51,-1.55 -13.74,-13.74 -32.66,-22.21 -53.59,-22.21 -20.93,0 -39.89,8.47 -53.59,22.21 -1.78,1.78 -3.47,3.65 -5.07,5.6l0 59.1z"/>
    </clipPath>
    <clipPath id="id2">
     <path d="M2.86 83.11c50.45,21.59 100.87,22.91 151.32,0.12 0.12,-1.59 0.15,-3.13 0.15,-4.72 0,-20.93 -8.47,-39.89 -22.21,-53.59 -13.74,-13.74 -32.66,-22.21 -53.59,-22.21 -20.93,0 -39.89,8.47 -53.59,22.21 -13.74,13.74 -22.21,32.66 -22.21,53.59 0,1.55 0.04,3.1 0.15,4.64l-0.04 -0.04z"/>
    </clipPath>
 </defs>
 <g id="Layer_x0020_1">
  <metadata id="CorelCorpID_0Corel-Layer"/>
  <g>
  </g>
  <g style="clip-path:url(#id0)">
   <g id="_1788431221184">
   </g>
   <g style="clip-path:url(#id1)">
    <image xmlns="http://www.w3.org/2000/svg" x="29.88" y="-16.12" width="93.76" height="131.97" xmlns:xlink="http://www.w3.org/1999/xlink" xlink:href="https://ik.imagekit.io/moearchive/calendar/grad/nakadakana.png"/>
   </g>
   <g style="clip-path:url(#id2)">
   </g>
  </g>
  <path class="fil0" d="M2.86 83.11c50.45,21.59 100.87,22.91 151.32,0.12 0.12,-1.59 0.15,-3.13 0.15,-4.72 0,-20.93 -8.47,-39.89 -22.21,-53.59 -13.74,-13.74 -32.66,-22.21 -53.59,-22.21 -20.93,0 -39.89,8.47 -53.59,22.21 -13.74,13.74 -22.21,32.66 -22.21,53.59 0,1.55 0.04,3.1 0.15,4.64l-0.04 -0.04z"/>
  <path class="fil1" d="M46.62 31.42c-1.86,1.24 -4.37,0.77 -5.61,-1.08 -1.24,-1.86 -0.77,-4.37 1.08,-5.61 0.85,-0.58 1.78,-1.16 2.71,-1.74 1.12,-0.7 2.05,-1.24 2.75,-1.63 1.97,-1.08 4.45,-0.35 5.49,1.63 1.08,1.97 0.35,4.45 -1.63,5.49 -1.04,0.58 -1.86,1.04 -2.44,1.39 -0.77,0.46 -1.59,0.97 -2.36,1.51l0 0.04zm31.88 -31.42c21.67,0 41.32,8.78 55.52,22.98 14.2,14.2 22.98,33.86 22.98,55.52 0,21.67 -8.78,41.32 -22.98,55.52 -14.2,14.2 -33.86,22.98 -55.52,22.98 -21.67,0 -41.32,-8.78 -55.52,-22.98 -14.2,-14.2 -22.98,-33.86 -22.98,-55.52 0,-21.67 8.78,-41.32 22.98,-55.52 14.2,-14.2 33.86,-22.98 55.52,-22.98zm-75.64 83.11c50.45,21.59 100.87,22.91 151.32,0.12 0.12,-1.59 0.15,-3.13 0.15,-4.72 0,-20.93 -8.47,-39.89 -22.21,-53.59 -13.74,-13.74 -32.66,-22.21 -53.59,-22.21 -20.93,0 -39.89,8.47 -53.59,22.21 -13.74,13.74 -22.21,32.66 -22.21,53.59 0,1.55 0.04,3.1 0.15,4.64l-0.04 -0.04zm20 -16.21c-0.46,2.21 -2.59,3.6 -4.8,3.13 -2.21,-0.46 -3.6,-2.59 -3.13,-4.8 1.32,-6.27 3.52,-12.3 6.58,-17.88 3.06,-5.57 6.93,-10.72 11.49,-15.21 1.59,-1.59 4.18,-1.55 5.73,0.04 1.59,1.59 1.55,4.14 -0.04,5.73 -4.02,3.95 -7.39,8.43 -10.06,13.31 -2.67,4.88 -4.6,10.14 -5.77,15.63l0 0.04z"/>
  <path class="fil2" d="M33.92 98.45l2.72 0.62 0 3.9 3.64 0.83c4.06,0.93 6.13,3.68 6.2,8.23 0,4.38 -1.74,6.31 -5.22,5.78l-4.61 -1.06 0 6.68 -2.72 -0.62 0 -6.68 -8.75 -2.01 0 -13.79 8.75 2.01 0 -3.9zm0 6.47l-6.14 -1.41 0 8.54 6.14 1.41 0 -8.54zm2.72 9.17l4.22 0.97c2.02,0.18 3.03,-1 3.03,-3.52 0,-2.88 -1.2,-4.6 -3.61,-5.15l-3.64 -0.83 0 8.54zm17.93 1.99l0 7.3 6.41 0.57 0 -7.3 -6.41 -0.57zm9.16 8.12l3.07 0.28c1.49,-0.05 2.54,-0.83 3.15,-2.34 0.59,-1.21 0.94,-2.74 1.05,-4.59l-7.27 -0.65 0 7.3zm7.25 -9.22c-0.14,-1.97 -0.55,-3.58 -1.21,-4.81 -0.77,-1.6 -1.93,-2.55 -3.48,-2.83l-2.56 -0.23 0 7.22 7.25 0.65zm-9.99 -8.11l-6.41 -0.57 0 7.22 6.41 0.57 0 -7.22zm5.69 -2.06c2.19,0.47 3.92,1.73 5.2,3.79 1.18,1.91 1.82,4.4 1.91,7.47 0,3.8 -0.58,6.47 -1.75,8.01 -1.17,1.93 -2.88,2.96 -5.14,3.08l-15.01 -1.34 0 -22.34 14.79 1.33zm12.21 1.62l5.15 -0.44 0 -2.08 2.67 -0.23 0 2.08 7.22 -0.61 0 -2.08 2.7 -0.23 0 2.08 4.99 -0.42 0 2.46 -4.99 0.42 0 2.49 -2.7 0.23 0 -2.49 -7.22 0.61 0 2.3 -2.67 0.23 0 -2.3 -5.15 0.44 0 -2.46zm6.12 5.08l2.86 -0.24c-0.75,1.79 -1.64,3.4 -2.64,4.82l0 12.17 -2.64 0.22 0 -9.41c-1.13,1.09 -2.38,2.01 -3.74,2.75l0 -3.11c2.55,-1.51 4.61,-3.91 6.17,-7.2zm5.12 -0.38l2.72 -0.23c-0.09,1.86 -0.15,3.52 -0.17,4.96 2.84,-0.74 5.73,-1.7 8.68,-2.87l0 2.79c-2.41,1 -5.31,1.88 -8.7,2.66 0,1.46 0,2.9 0,4.32 0.12,1.18 0.91,1.71 2.34,1.59 3.29,-0.46 5.53,-0.88 6.74,-1.27l0 2.68c-2.37,0.6 -4.73,1 -7.09,1.2 -2.46,0.21 -3.96,-0.8 -4.5,-3.03 -0.11,-1.38 -0.17,-3.23 -0.17,-5.56 0.05,-2.38 0.1,-4.8 0.14,-7.23zm16.72 -7.78l8.56 -1.78c0.33,-0.63 0.63,-1.28 0.9,-1.94l2.73 -0.57c-0.19,0.65 -0.42,1.28 -0.66,1.89l9.93 -2.06 0 2.52 -5.4 1.12c1.71,1.41 3.72,2.15 6.01,2.21l0 2.95c-1.13,-0.09 -2.17,-0.26 -3.12,-0.52l0 1.38 -16.23 3.37 0 -1.16c-0.9,0.49 -1.85,0.97 -2.86,1.43l0 -2.87c2.77,-1.26 5.01,-2.87 6.7,-4.83l-6.54 1.36 0 -2.52zm5.48 5.52l11.49 -2.38c-1.66,-0.77 -3.01,-1.87 -4.05,-3.3l-2.86 0.59c-1.17,1.92 -2.69,3.61 -4.58,5.09zm-5.96 6.27l22.38 -4.64 0 2.57 -9.59 1.99c0.09,0.81 0.17,1.73 0.24,2.77 0,1.35 -0.1,2.27 -0.29,2.77 -0.26,1.48 -1.37,2.52 -3.31,3.12 -1.52,0.32 -2.78,0.52 -3.76,0.62l0 -2.52c1,-0.06 1.97,-0.19 2.91,-0.39 1.2,-0.25 1.83,-1.03 1.88,-2.34 -0.04,-1.26 -0.11,-2.42 -0.24,-3.5l-10.22 2.12 0 -2.57zm3.39 2.81l2.35 -0.49c-0.09,3.28 -1.7,5.82 -4.84,7.61l0 -2.59c1.66,-1.17 2.49,-2.68 2.49,-4.52zm13.29 -2.67l2.44 -0.51c0.11,1.33 0.93,2.28 2.46,2.84l0 3c-2.68,-0.7 -4.32,-2.48 -4.9,-5.34z"/>
 </g>
</svg>
