<?xml version="1.0" encoding="UTF-8"?>
<!DOCTYPE svg PUBLIC "-//W3C//DTD SVG 1.1//EN" "http://www.w3.org/Graphics/SVG/1.1/DTD/svg11.dtd">
<!-- Creator: CorelDRAW 2021.5 -->
<svg xmlns="http://www.w3.org/2000/svg" xml:space="preserve" width="100%" height="100%" version="1.1" style="shape-rendering:geometricPrecision; text-rendering:geometricPrecision; image-rendering:optimizeQuality; fill-rule:evenodd; clip-rule:evenodd"
viewBox="0 0 192.02 192.02"
 xmlns:xlink="http://www.w3.org/1999/xlink"
 xmlns:xodm="http://www.corel.com/coreldraw/odm/2003">
 <defs>
  <style type="text/css">
   <![CDATA[
    .fil0 {fill:none;fill-rule:nonzero}
    .fil1 {fill:#8C2898;fill-rule:nonzero}
    .fil2 {fill:white;fill-rule:nonzero}
   ]]>
  </style>
   <clipPath id="id0" style="clip-rule:nonzero">
    <path d="M3.5 101.64c61.7,26.4 123.36,28.01 185.07,0.14 0.14,-1.94 0.19,-3.83 0.19,-5.77 0,-25.6 -10.36,-48.79 -27.16,-65.54 -16.8,-16.8 -39.94,-27.16 -65.54,-27.16 -25.6,0 -48.79,10.36 -65.54,27.16 -16.8,16.8 -27.16,39.94 -27.16,65.54 0,1.89 0.05,3.79 0.19,5.68l-0.05 -0.05z"/>
   </clipPath>
    <clipPath id="id1">
     <path d="M24.32 109.6c46.38,15.61 92.74,16.91 139.13,1.91l0 -79.14c-0.61,-0.64 -1.22,-1.27 -1.85,-1.9 -16.8,-16.8 -39.94,-27.16 -65.54,-27.16 -25.6,0 -48.79,10.36 -65.54,27.16 -2.18,2.18 -4.25,4.47 -6.2,6.85l0 72.28z"/>
    </clipPath>
    <clipPath id="id2">
     <path d="M3.5 101.64c61.7,26.4 123.36,28.01 185.07,0.14 0.14,-1.94 0.19,-3.83 0.19,-5.77 0,-25.6 -10.36,-48.79 -27.16,-65.54 -16.8,-16.8 -39.94,-27.16 -65.54,-27.16 -25.6,0 -48.79,10.36 -65.54,27.16 -16.8,16.8 -27.16,39.94 -27.16,65.54 0,1.89 0.05,3.79 0.19,5.68l-0.05 -0.05z"/>
    </clipPath>
 </defs>
 <g id="Layer_x0020_1">
  <metadata id="CorelCorpID_0Corel-Layer"/>
  <g>
  </g>
  <g style="clip-path:url(#id0)">
   <g id="_1788547015824">
   </g>
   <g style="clip-path:url(#id1)">
    <image x="31.32" y="-23.6" width="126.12" height="172.85" xlink:href="https://ik.imagekit.io/moearchive/calendar/grad/nishinonanase.png"/>
   </g>
   <g style="clip-path:url(#id2)">
   </g>
  </g>
  <path class="fil0" d="M3.5 101.64c61.7,26.4 123.36,28.01 185.07,0.14 0.14,-1.94 0.19,-3.83 0.19,-5.77 0,-25.6 -10.36,-48.79 -27.16,-65.54 -16.8,-16.8 -39.94,-27.16 -65.54,-27.16 -25.6,0 -48.79,10.36 -65.54,27.16 -16.8,16.8 -27.16,39.94 -27.16,65.54 0,1.89 0.05,3.79 0.19,5.68l-0.05 -0.05z"/>
  <path class="fil1" d="M57.02 38.42c-2.27,1.51 -5.35,0.95 -6.86,-1.32 -1.51,-2.27 -0.95,-5.35 1.32,-6.86 1.04,-0.71 2.18,-1.42 3.31,-2.13 1.37,-0.85 2.51,-1.51 3.36,-1.99 2.41,-1.32 5.44,-0.43 6.72,1.99 1.32,2.41 0.43,5.44 -1.99,6.72 -1.28,0.71 -2.27,1.28 -2.98,1.7 -0.95,0.57 -1.94,1.18 -2.89,1.85l0 0.05zm38.99 -38.42c26.5,0 50.54,10.74 67.9,28.11 17.37,17.37 28.11,41.4 28.11,67.9 0,26.5 -10.74,50.54 -28.11,67.9 -17.37,17.37 -41.4,28.11 -67.9,28.11 -26.5,0 -50.54,-10.74 -67.9,-28.11 -17.37,-17.37 -28.11,-41.4 -28.11,-67.9 0,-26.5 10.74,-50.54 28.11,-67.9 17.37,-17.37 41.4,-28.11 67.9,-28.11zm-92.51 101.64c61.7,26.4 123.36,28.01 185.07,0.14 0.14,-1.94 0.19,-3.83 0.19,-5.77 0,-25.6 -10.36,-48.79 -27.16,-65.54 -16.8,-16.8 -39.94,-27.16 -65.54,-27.16 -25.6,0 -48.79,10.36 -65.54,27.16 -16.8,16.8 -27.16,39.94 -27.16,65.54 0,1.89 0.05,3.79 0.19,5.68l-0.05 -0.05zm24.46 -19.83c-0.57,2.7 -3.17,4.4 -5.87,3.83 -2.7,-0.57 -4.4,-3.17 -3.83,-5.87 1.61,-7.67 4.31,-15.05 8.04,-21.86 3.74,-6.81 8.47,-13.11 14.05,-18.6 1.94,-1.94 5.11,-1.89 7,0.05 1.94,1.94 1.89,5.06 -0.05,7 -4.92,4.83 -9.04,10.32 -12.3,16.28 -3.26,5.96 -5.63,12.4 -7.05,19.12l0 0.05z"/>
  <path class="fil2" d="M31.85 119.39l27.52 6.07 0 3.07 -9.17 -2.02c-0.02,1.03 -0.03,2.08 -0.03,3.14l0.1 0.02c2.9,0.82 5.13,2.38 6.65,4.67 1.53,2.32 2.34,4.96 2.42,7.91 -0.13,3.35 -0.94,5.8 -2.42,7.37 -1.83,1.67 -4.03,2.22 -6.59,1.66l-17.02 -3.76 0 -21.6 7.98 1.76c0.09,-0.97 0.15,-2 0.19,-3.1l-9.63 -2.12 0 -3.07zm12.56 5.84c-0.06,1.09 -0.14,2.12 -0.23,3.09l2.97 0.66c0.02,-1.1 0.04,-2.14 0.07,-3.13l-2.81 -0.62zm-7.84 19.77l13.5 2.98c1.83,0.4 3.31,0 4.45,-1.2 1.01,-1.21 1.52,-2.9 1.52,-5.09 0,-2.14 -0.58,-3.96 -1.75,-5.48 -0.96,-1.62 -2.35,-2.73 -4.16,-3.3 -0.02,0.61 -0.03,1.23 -0.03,1.84 0,1.83 0.05,3.57 0.16,5.23 0.3,1.52 0.89,2.38 1.78,2.58 0.9,0.2 1.67,0.27 2.29,0.21l0 2.91c-0.52,0.04 -1.62,-0.08 -3.29,-0.37 -1.96,-0.43 -3.17,-2.13 -3.62,-5.09 -0.19,-2.12 -0.29,-4.25 -0.29,-6.39 0,-0.57 0,-1.12 0,-1.65l-3.36 -0.74c-0.97,6.12 -2.88,10.16 -5.75,12.13l0 -4.66c1.36,-1.86 2.33,-4.56 2.91,-8.09l-4.36 -0.96 0 15.15zm31.76 -9.33l0 4.1 2.11 0.16 0 -4.1 -2.11 -0.16zm2.11 7.07l-5.02 -0.37 0 -16.24 6.6 0.49c4.29,0.32 6.47,3.16 6.53,8.52 0,5.03 -1.73,7.62 -5.21,7.79l0 2.31 5.15 0.38 0 2.97 -5.15 -0.38 0 3.51c1.72,0.02 3.47,0.02 5.25,-0.01l0 3.21c-3.67,0.01 -8.24,-0.12 -13.69,-0.39l0 -3.18c1.81,0.11 3.65,0.2 5.55,0.28l0 -3.64 -5.28 -0.39 0 -2.97 5.28 0.39 0 -2.28zm2.9 -2.8c1.39,-0.38 2.19,-1.62 2.41,-3.72l-2.41 -0.18 0 3.9zm2.41 -6.37c-0.26,-2.07 -1.06,-3.38 -2.41,-3.92l0 3.74 2.41 0.18zm-5.31 -4.33l-2.11 -0.16 0 3.94 2.11 0.16 0 -3.94zm19.89 -1.24c1.45,0.31 2.24,1.15 2.34,2.52 0,1.65 -0.64,2.92 -1.91,3.8 -1.32,1.05 -2.44,1.85 -3.36,2.4 0.37,0.58 0.69,1.2 0.96,1.86l2.83 0.21c1.74,0.33 2.61,1.51 2.61,3.57 -0.11,2.59 -1.69,4.19 -4.75,4.81l-0.03 -3.18c1.14,-0.4 1.71,-0.95 1.71,-1.66 0,-0.42 -0.16,-0.64 -0.5,-0.67l-2.37 -0.18c0.15,2.33 0.23,5.39 0.23,9.18 0,2.03 -0.38,3.51 -1.13,4.45 -0.81,1 -1.92,1.44 -3.33,1.34l-3.53 -0.26 0 -3.04 2.97 0.22c1.34,0.1 2.01,-0.85 2.01,-2.86 0,-3.77 -0.1,-6.85 -0.29,-9.25l-5.51 -0.41 0 -2.94 5.61 0.42c-1.21,-1.79 -2.96,-3.03 -5.24,-3.73l0 -2.74c2.33,0.48 4.23,1.35 5.7,2.61 2.49,-1.54 3.73,-2.58 3.73,-3.13 0,-0.37 -0.14,-0.57 -0.43,-0.6l-9.8 -0.73 0 -2.85 11.48 0.85zm36.76 4.72l0 3.38 -18.47 3.13c0.02,4.23 0.07,7.19 0.14,8.86 0.17,2.83 1.15,4.15 2.93,3.98 6.28,-0.62 11.22,-1.46 14.85,-2.52l0 3.34c-2.81,0.89 -7.68,1.68 -14.62,2.36 -3.81,0.37 -5.96,-1.45 -6.42,-5.49 -0.11,-3.27 -0.18,-6.59 -0.2,-9.94l-6.49 1.1 0 -3.34 6.46 -1.13c0.04,-3.03 0.13,-6.14 0.26,-9.36l3.32 -0.33c-0.15,2.88 -0.23,5.92 -0.23,9.12l18.47 -3.17zm22.22 -11.81l10.57 -2.28 0 2.78 -3.95 0.85c-0.13,0.67 -0.27,1.35 -0.42,2.04 0.97,-0.06 1.78,0.15 2.43,0.6 0.82,0.66 1.29,1.48 1.42,2.44 0.37,1.44 0.55,3.78 0.55,6.99 -0.02,2.63 -0.12,4.43 -0.29,5.39 -0.02,1.15 -0.39,2.24 -1.1,3.28 -0.04,0.05 -0.09,0.09 -0.13,0.12 0.28,1.59 0.59,3.15 0.93,4.67l-3 0.58c-0.18,-1.09 -0.36,-2.23 -0.55,-3.42 -0.13,0.05 -0.27,0.09 -0.42,0.12l-2.2 0.48c-0.15,1.16 -0.33,2.36 -0.55,3.62l-2.94 0.63c0.3,-1.28 0.55,-2.5 0.74,-3.67l-0.58 0.12 0 -20.84 2.78 -0.6c0.17,-0.65 0.33,-1.3 0.49,-1.96l-3.79 0.82 0 -2.78zm3.27 12.89l0 3.04 4.43 -0.96c0.02,-0.49 0.03,-0.99 0.03,-1.49 0,-0.55 -0.01,-1.07 -0.03,-1.55l-4.43 0.96zm4.23 -3.72c-0.02,-0.24 -0.04,-0.47 -0.06,-0.68 -0.07,-1.53 -0.86,-2.22 -2.36,-2.07l-1.81 0.39 0 3.27 4.23 -0.91zm-4.23 9.45l0 3.21 2.36 -0.51c1.18,-0.41 1.78,-1.13 1.78,-2.17 0.07,-0.39 0.13,-0.88 0.19,-1.46l-4.33 0.93zm-17.85 -0.91l2.91 -0.63c-0.86,6.03 -2.55,11.11 -5.08,15.25l0 -5.82c0.99,-2.16 1.71,-5.09 2.17,-8.81zm-2.14 -7.21c1.85,0.31 3.55,0.83 5.11,1.57l0 3.57c-1.7,-0.89 -3.41,-1.49 -5.11,-1.8l0 -3.34zm0.13 -6.94c1.83,0.2 3.5,0.61 5.01,1.23l0 3.57c-1.68,-0.74 -3.35,-1.23 -5.01,-1.46l0 -3.34zm5.85 0.29l3.88 -0.84 0 -2.38 2.62 -0.57 0 2.38 3.29 -0.71 0 2.97 -3.29 0.71 0 1.49c1.25,-0.12 2.19,0.43 2.81,1.64 0.63,1.16 0.96,2.63 1,4.38 0,2.3 -0.39,4.14 -1.16,5.55 -0.04,0.08 -0.09,0.14 -0.13,0.19 0.08,2.1 0.39,3.99 0.9,5.66l0 4.93c-1.36,-1.54 -2.27,-4.42 -2.72,-8.64 -0.24,0.14 -0.47,0.27 -0.71,0.38l0 9.06 -2.62 0.57 0 -8.93 -0.81 0.18c-0.51,4 -1.74,7.18 -3.69,9.56l0 -4.17c0.82,-1.5 1.34,-3.15 1.56,-4.94l-0.65 0.14 0 -14.22 3.59 -0.77 0 -1.49 -3.88 0.84 0 -2.97zm3.88 6.24l-1.23 0.27 0 8.83 1.23 -0.27 0 -8.83zm2.62 8.07c0.32,-0.24 0.63,-0.63 0.93,-1.16 0.35,-1.05 0.52,-2.17 0.52,-3.39 0,-1.19 -0.17,-2.26 -0.52,-3.2 -0.17,-0.43 -0.48,-0.68 -0.93,-0.76l0 8.5z"/>
 </g>
</svg>
