<?xml version="1.0" encoding="UTF-8"?>
<!DOCTYPE svg PUBLIC "-//W3C//DTD SVG 1.1//EN" "http://www.w3.org/Graphics/SVG/1.1/DTD/svg11.dtd">
<!-- Creator: CorelDRAW 2021.5 -->
<svg xmlns="http://www.w3.org/2000/svg" xml:space="preserve" width="100%" height="100%" version="1.1" style="shape-rendering:geometricPrecision; text-rendering:geometricPrecision; image-rendering:optimizeQuality; fill-rule:evenodd; clip-rule:evenodd"
viewBox="0 0 132.8 132.8"
 xmlns:xlink="http://www.w3.org/1999/xlink"
 xmlns:xodm="http://www.corel.com/coreldraw/odm/2003">
 <defs>
  <style type="text/css">
   <![CDATA[
    .fil0 {fill:none;fill-rule:nonzero}
    .fil1 {fill:#8C2898;fill-rule:nonzero}
    .fil2 {fill:white;fill-rule:nonzero}
   ]]>
  </style>
   <clipPath id="id0" style="clip-rule:nonzero">
    <path d="M2.42 70.29c42.67,18.26 85.31,19.37 127.99,0.1 0.1,-1.34 0.13,-2.65 0.13,-3.99 0,-17.7 -7.17,-33.74 -18.78,-45.32 -11.62,-11.62 -27.62,-18.78 -45.32,-18.78 -17.7,0 -33.74,7.17 -45.32,18.78 -11.62,11.62 -18.78,27.62 -18.78,45.32 0,1.31 0.03,2.62 0.13,3.93l-0.03 -0.03z"/>
   </clipPath>
    <clipPath id="id1">
     <path d="M16.82 75.8c32.08,10.8 64.14,11.7 96.21,1.32l0 -54.73c-0.42,-0.44 -0.85,-0.88 -1.28,-1.31 -11.62,-11.62 -27.62,-18.78 -45.32,-18.78 -17.7,0 -33.74,7.17 -45.32,18.78 -1.51,1.51 -2.94,3.09 -4.29,4.74l0 49.98z"/>
    </clipPath>
    <clipPath id="id2">
     <path d="M2.42 70.29c42.67,18.26 85.31,19.37 127.99,0.1 0.1,-1.34 0.13,-2.65 0.13,-3.99 0,-17.7 -7.17,-33.74 -18.78,-45.32 -11.62,-11.62 -27.62,-18.78 -45.32,-18.78 -17.7,0 -33.74,7.17 -45.32,18.78 -11.62,11.62 -18.78,27.62 -18.78,45.32 0,1.31 0.03,2.62 0.13,3.93l-0.03 -0.03z"/>
    </clipPath>
 </defs>
 <g id="Layer_x0020_1">
  <metadata id="CorelCorpID_0Corel-Layer"/>
  <g>
  </g>
  <g style="clip-path:url(#id0)">
   <g id="_1788544277200">
   </g>
   <g style="clip-path:url(#id1)">
    <image x="22.82" y="-12.41" width="86.21" height="118.53" xlink:href="https://ik.imagekit.io/moearchive/calendar/grad/noujoami.png"/>
   </g>
   <g style="clip-path:url(#id2)">
   </g>
  </g>
  <path class="fil0" d="M2.42 70.29c42.67,18.26 85.31,19.37 127.99,0.1 0.1,-1.34 0.13,-2.65 0.13,-3.99 0,-17.7 -7.17,-33.74 -18.78,-45.32 -11.62,-11.62 -27.62,-18.78 -45.32,-18.78 -17.7,0 -33.74,7.17 -45.32,18.78 -11.62,11.62 -18.78,27.62 -18.78,45.32 0,1.31 0.03,2.62 0.13,3.93l-0.03 -0.03z"/>
  <path class="fil1" d="M39.43 26.57c-1.57,1.05 -3.7,0.65 -4.75,-0.92 -1.05,-1.57 -0.65,-3.7 0.92,-4.75 0.72,-0.49 1.51,-0.98 2.29,-1.47 0.95,-0.59 1.73,-1.05 2.32,-1.37 1.67,-0.92 3.76,-0.29 4.65,1.37 0.92,1.67 0.29,3.76 -1.37,4.65 -0.88,0.49 -1.57,0.88 -2.06,1.18 -0.65,0.39 -1.34,0.82 -2,1.28l0 0.03zm26.97 -26.57c18.33,0 34.95,7.43 46.96,19.44 12.01,12.01 19.44,28.63 19.44,46.96 0,18.33 -7.43,34.95 -19.44,46.96 -12.01,12.01 -28.63,19.44 -46.96,19.44 -18.33,0 -34.95,-7.43 -46.96,-19.44 -12.01,-12.01 -19.44,-28.63 -19.44,-46.96 0,-18.33 7.43,-34.95 19.44,-46.96 12.01,-12.01 28.63,-19.44 46.96,-19.44zm-63.98 70.29c42.67,18.26 85.31,19.37 127.99,0.1 0.1,-1.34 0.13,-2.65 0.13,-3.99 0,-17.7 -7.17,-33.74 -18.78,-45.32 -11.62,-11.62 -27.62,-18.78 -45.32,-18.78 -17.7,0 -33.74,7.17 -45.32,18.78 -11.62,11.62 -18.78,27.62 -18.78,45.32 0,1.31 0.03,2.62 0.13,3.93l-0.03 -0.03zm16.92 -13.71c-0.39,1.87 -2.19,3.04 -4.06,2.65 -1.87,-0.39 -3.04,-2.19 -2.65,-4.06 1.11,-5.3 2.98,-10.41 5.56,-15.12 2.59,-4.71 5.86,-9.06 9.72,-12.86 1.34,-1.34 3.53,-1.31 4.84,0.03 1.34,1.34 1.31,3.5 -0.03,4.84 -3.4,3.34 -6.25,7.13 -8.51,11.26 -2.26,4.12 -3.89,8.57 -4.88,13.22l0 0.03z"/>
  <path class="fil2" d="M39.53 97.85l0 2.08c-1.69,-0.1 -3.73,-0.33 -6.11,-0.69 0,0.66 0.02,1.18 0.06,1.59 0.19,1.25 0.76,1.98 1.72,2.2 1.78,0.32 3.26,0.48 4.44,0.49l0 2.08c-0.74,0.13 -2.38,-0.09 -4.91,-0.67 -1.93,-0.44 -3.05,-1.76 -3.36,-3.95 -0.09,-1 -0.14,-2.03 -0.14,-3.1 0,-1.54 0.05,-3 0.14,-4.36l2.21 0.51c-0.09,0.88 -0.14,1.94 -0.16,3.17 2.01,0.26 4.04,0.48 6.11,0.65zm-0.06 -10.2l0 2.08c-1.77,-0.18 -3.89,-0.48 -6.35,-0.91 0.02,0.46 0.03,0.83 0.06,1.11 0.18,1.02 0.76,1.64 1.74,1.86 1.83,0.36 3.34,0.56 4.53,0.61l0 1.97c-0.75,0.1 -2.38,-0.14 -4.9,-0.72 -1.96,-0.45 -3.09,-1.6 -3.39,-3.45 -0.09,-0.83 -0.13,-1.7 -0.13,-2.61 0,-1.28 0.05,-2.49 0.13,-3.63l2.1 0.48c-0.08,0.65 -0.12,1.44 -0.13,2.37 2.07,0.32 4.18,0.6 6.35,0.84zm-11.64 3.21c1.16,0.51 1.9,1.35 2.23,2.53 0.18,0.86 0.28,2.43 0.31,4.69 0,1.41 -0.04,2.53 -0.11,3.36 -0.27,1.57 -1.03,2.26 -2.28,2.09 -1.13,-0.26 -1.99,-0.53 -2.56,-0.8l0 -1.9c0.58,0.19 1.21,0.38 1.87,0.57 0.51,0.08 0.81,-0.13 0.92,-0.66 0.03,-0.28 0.05,-0.6 0.06,-0.95l-4.82 -1.1 0 3.82 -2.03 -0.47 0 -12.65 6.4 1.47zm-4.37 5.79l4.86 1.12c0,-0.06 0,-0.12 0,-0.18 0,-0.49 0,-0.93 0,-1.33l-4.86 -1.12 0 1.51zm0 -3.45l4.73 1.08c-0.02,-0.11 -0.03,-0.21 -0.05,-0.31 -0.03,-0.72 -0.37,-1.16 -1.03,-1.31l-3.66 -0.84 0 1.37zm0.47 -11.08l2.38 0.55c-1.25,1.93 -2.26,3.31 -3.03,4.16l4.88 1.12 0 -3.64 1.98 0.45 0 4.07c0,1.02 -0.56,1.46 -1.69,1.31l-6.49 -1.49c-0.79,-0.18 -1.2,-0.75 -1.23,-1.7 0.04,-0.54 1.11,-2.15 3.19,-4.83zm27.86 16.62l4.42 0.4 0 -1.3 2.1 0.19 0 1.3 4.49 0.4 0 2.03 -1.59 -0.14c0.35,1.77 0.92,3.19 1.71,4.25l-0.02 2.63c-1.72,-1.34 -2.94,-3.7 -3.67,-7.06l-0.91 -0.08 0 7.11 -2.1 -0.19 0 -7.11 -0.93 -0.08c-0.26,3.27 -1.43,5.42 -3.53,6.45l0 -2.51c0.93,-0.86 1.45,-2.24 1.57,-4.11l-1.53 -0.14 0 -2.03zm-4.58 -11.69l2.28 0.2c-0.5,1.57 -1.08,2.96 -1.73,4.17l0 16.01 -2.14 -0.19 0 -12.79c-0.71,0.79 -1.49,1.44 -2.34,1.94l0 -2.9c1.63,-1.18 2.94,-3.33 3.94,-6.44zm6.54 0.47l2.14 0.19c-0.06,0.42 -0.14,0.83 -0.25,1.23l6.97 0.62 0 1.9 -1.37 -0.12c-0.41,1.64 -1.18,2.95 -2.3,3.94 1.11,0.53 2.48,0.9 4.1,1.12l0 2.08c-2.45,-0.42 -4.41,-1.1 -5.88,-2.06 -1.43,0.7 -3.21,1.05 -5.35,1.07l0 -2.01c1.37,-0.04 2.54,-0.25 3.53,-0.62 -0.61,-0.71 -1.05,-1.5 -1.32,-2.38 -0.61,0.75 -1.35,1.33 -2.24,1.72l-0.02 -2.43c1.2,-0.87 1.86,-2.29 1.98,-4.26zm3.28 6.47c0.99,-0.71 1.69,-1.65 2.1,-2.83l-3.6 -0.32c0.15,1.26 0.65,2.31 1.5,3.16zm-8 -3.64l2.01 0.18 0 15.23 -2.01 -0.18 0 -15.23zm20.54 0.81l2.17 -0.18c0.23,0.41 0.42,0.85 0.59,1.34l3.4 -0.29c-0.12,-0.49 -0.3,-0.96 -0.53,-1.4l2.23 -0.19c0.21,0.42 0.38,0.89 0.5,1.4l2.96 -0.25c0.27,-0.56 0.53,-1.1 0.75,-1.64l2.35 -0.2c-0.21,0.6 -0.45,1.14 -0.71,1.64l0.07 -0.01c1.85,0.04 2.78,0.7 2.78,1.98 -0.05,1.27 -0.19,2.23 -0.44,2.88l-2.21 0.19c0.44,0.83 0.8,1.64 1.07,2.43l-2.21 0.19c-0.49,-1.38 -1.34,-2.96 -2.55,-4.75l2.21 -0.19c0.56,0.78 1.05,1.54 1.46,2.3 0.32,-1.23 0.48,-2.02 0.48,-2.37 0,-0.52 -0.39,-0.75 -1.18,-0.68l-13.18 1.12 0 2.97 -2.12 0.18 -0.05 -4.92 2.69 -0.2c-0.14,-0.48 -0.32,-0.93 -0.55,-1.35zm3.51 3.68l1.98 -0.17c-0.05,0.75 -0.07,1.43 -0.07,2.04 0,0.76 0.35,1.11 1.05,1.06 3.19,-0.27 4.87,-0.47 5.04,-0.59l0 1.97c-0.4,0.11 -2.37,0.31 -5.93,0.61 -0.07,-0.01 -0.15,-0.02 -0.23,-0.03 -0.17,0.3 -0.35,0.6 -0.55,0.87l7.73 -0.65c0.94,0.01 1.41,0.47 1.41,1.37 0,0.99 -1.07,2.16 -3.19,3.52 0.89,0.11 1.87,0.16 2.92,0.16 1.03,-0.04 2.12,-0.11 3.28,-0.21l0 2.17c-4.15,0.3 -7.26,0.15 -9.32,-0.47 -2.66,1.11 -6.04,1.85 -10.15,2.23l0 -2.08c2.95,-0.25 5.43,-0.68 7.45,-1.29 -1.09,-0.63 -1.97,-1.4 -2.64,-2.32 -1.16,0.82 -2.52,1.49 -4.1,2.02l0 -2.17c2.98,-1.2 4.81,-2.61 5.49,-4.24 -0.17,-0.38 -0.25,-0.87 -0.25,-1.44 0,-0.87 0.02,-1.66 0.07,-2.36zm2.89 -0.2l2.24 -0.19c0.47,0.8 0.83,1.58 1.09,2.36l-2.3 0.19c-0.18,-0.69 -0.52,-1.47 -1.03,-2.36zm-1.46 7.88c0.76,0.72 1.74,1.28 2.94,1.7 1.79,-0.83 2.77,-1.5 2.92,-1.98 0,-0.15 -0.07,-0.22 -0.2,-0.21l-5.66 0.5zm11.08 -15.74l0 1.99c-3.52,0.54 -9.47,1.2 -17.85,1.97l0 -1.92c8.63,-0.73 14.58,-1.41 17.85,-2.04zm-14.98 8.31l1.8 -0.15c-0.06,2.55 -1.1,4.49 -3.12,5.82l0.02 -2.36c0.85,-0.86 1.29,-1.97 1.3,-3.31zm19.87 -1.08l8.2 -1.7 0 -3.43 -7.53 1.56 0 -2.13 7.53 -1.56 0 -2.65 2.22 -0.46 0 2.65 7.64 -1.58 0 2.13 -7.64 1.58 0 3.43 8.25 -1.71 0 2.17 -4.53 0.94c0.7,3.04 2.26,4.94 4.66,5.69l0 2.73c-3.52,-0.89 -5.77,-3.55 -6.74,-7.98l-1.64 0.34 0 10.21 -2.22 0.46 0 -10.21 -1.61 0.33c-0.27,2.57 -0.96,4.64 -2.06,6.22 -1.28,1.93 -2.81,3.46 -4.59,4.59l0 -2.56c2.69,-2.13 4.21,-4.73 4.55,-7.81l-4.48 0.93 0 -2.17z"/>
 </g>
</svg>
