<?xml version="1.0" encoding="UTF-8"?>
<!DOCTYPE svg PUBLIC "-//W3C//DTD SVG 1.1//EN" "http://www.w3.org/Graphics/SVG/1.1/DTD/svg11.dtd">
<!-- Creator: CorelDRAW 2021.5 -->
<svg xmlns="http://www.w3.org/2000/svg" xml:space="preserve" width="100%" height="100%" version="1.1" style="shape-rendering:geometricPrecision; text-rendering:geometricPrecision; image-rendering:optimizeQuality; fill-rule:evenodd; clip-rule:evenodd"
viewBox="0 0 143.89 143.89"
 xmlns:xlink="http://www.w3.org/1999/xlink"
 xmlns:xodm="http://www.corel.com/coreldraw/odm/2003">
 <defs>
  <style type="text/css">
   <![CDATA[
    .fil0 {fill:none;fill-rule:nonzero}
    .fil1 {fill:#8C2898;fill-rule:nonzero}
    .fil2 {fill:white;fill-rule:nonzero}
   ]]>
  </style>
   <clipPath id="id0" style="clip-rule:nonzero">
    <path d="M2.59 76.16c46.24,19.79 92.44,20.99 138.68,0.11 0.11,-1.45 0.14,-2.87 0.14,-4.33 0,-19.18 -7.77,-36.56 -20.35,-49.11 -12.59,-12.59 -29.93,-20.35 -49.11,-20.35 -19.18,0 -36.56,7.77 -49.11,20.35 -12.59,12.59 -20.35,29.93 -20.35,49.11 0,1.42 0.04,2.84 0.14,4.25l-0.04 -0.04z"/>
   </clipPath>
    <clipPath id="id1">
     <path d="M18.19 82.13c34.76,11.7 69.5,12.67 104.25,1.43l0 -59.3c-0.45,-0.48 -0.92,-0.95 -1.38,-1.42 -12.59,-12.59 -29.93,-20.35 -49.11,-20.35 -19.18,0 -36.56,7.77 -49.11,20.35 -1.63,1.63 -3.18,3.35 -4.65,5.13l0 54.16z"/>
    </clipPath>
    <clipPath id="id2">
     <path d="M2.59 76.16c46.24,19.79 92.44,20.99 138.68,0.11 0.11,-1.45 0.14,-2.87 0.14,-4.33 0,-19.18 -7.77,-36.56 -20.35,-49.11 -12.59,-12.59 -29.93,-20.35 -49.11,-20.35 -19.18,0 -36.56,7.77 -49.11,20.35 -12.59,12.59 -20.35,29.93 -20.35,49.11 0,1.42 0.04,2.84 0.14,4.25l-0.04 -0.04z"/>
    </clipPath>
 </defs>
 <g id="Layer_x0020_1">
  <metadata id="CorelCorpID_0Corel-Layer"/>
  <g>
  </g>
  <g style="clip-path:url(#id0)">
   <g id="_1788429880528">
   </g>
   <g style="clip-path:url(#id1)">
    <image xmlns="http://www.w3.org/2000/svg" x="28.19" y="-10.19" width="94.25" height="129.27" xmlns:xlink="http://www.w3.org/1999/xlink" xlink:href="https://ik.imagekit.io/moearchive/calendar/grad/saitouyuri.png"/>
   </g>
   <g style="clip-path:url(#id2)">
   </g>
  </g>
  <path class="fil0" d="M2.59 76.16c46.24,19.79 92.44,20.99 138.68,0.11 0.11,-1.45 0.14,-2.87 0.14,-4.33 0,-19.18 -7.77,-36.56 -20.35,-49.11 -12.59,-12.59 -29.93,-20.35 -49.11,-20.35 -19.18,0 -36.56,7.77 -49.11,20.35 -12.59,12.59 -20.35,29.93 -20.35,49.11 0,1.42 0.04,2.84 0.14,4.25l-0.04 -0.04z"/>
  <path class="fil1" d="M42.73 28.79c-1.7,1.13 -4.01,0.71 -5.14,-0.99 -1.13,-1.7 -0.71,-4.01 0.99,-5.14 0.78,-0.53 1.63,-1.06 2.48,-1.6 1.03,-0.64 1.88,-1.13 2.52,-1.49 1.81,-0.99 4.08,-0.32 5.04,1.49 0.99,1.81 0.32,4.08 -1.49,5.04 -0.96,0.53 -1.7,0.96 -2.23,1.28 -0.71,0.43 -1.45,0.89 -2.16,1.38l0 0.04zm29.22 -28.79c19.86,0 37.87,8.05 50.88,21.06 13.01,13.01 21.06,31.03 21.06,50.88 0,19.86 -8.05,37.87 -21.06,50.88 -13.01,13.01 -31.03,21.06 -50.88,21.06 -19.86,0 -37.87,-8.05 -50.88,-21.06 -13.01,-13.01 -21.06,-31.03 -21.06,-50.88 0,-19.86 8.05,-37.87 21.06,-50.88 13.01,-13.01 31.03,-21.06 50.88,-21.06zm-69.32 76.16c46.24,19.79 92.44,20.99 138.68,0.11 0.11,-1.45 0.14,-2.87 0.14,-4.33 0,-19.18 -7.77,-36.56 -20.35,-49.11 -12.59,-12.59 -29.93,-20.35 -49.11,-20.35 -19.18,0 -36.56,7.77 -49.11,20.35 -12.59,12.59 -20.35,29.93 -20.35,49.11 0,1.42 0.04,2.84 0.14,4.25l-0.04 -0.04zm18.33 -14.86c-0.43,2.02 -2.38,3.3 -4.4,2.87 -2.02,-0.43 -3.3,-2.38 -2.87,-4.4 1.21,-5.74 3.23,-11.28 6.03,-16.38 2.8,-5.11 6.35,-9.82 10.53,-13.94 1.45,-1.45 3.83,-1.42 5.25,0.04 1.45,1.45 1.42,3.79 -0.04,5.25 -3.69,3.62 -6.77,7.73 -9.22,12.2 -2.45,4.47 -4.22,9.29 -5.28,14.32l0 0.04z"/>
  <path class="fil2" d="M32.8 90.34l2.5 0.55 0 1.49 8.93 1.97 0 2.16 -3.63 -0.8c-0.79,1.33 -1.95,2.34 -3.49,3.02 1.03,0.48 2.16,0.9 3.37,1.26 1.21,0.33 2.49,0.65 3.85,0.95l0 2.31c-4.4,-1.02 -7.79,-2.21 -10.14,-3.55 -2.29,0.47 -5.71,0.2 -10.26,-0.8l0 -2.36c3.03,0.67 5.44,1 7.24,1.01 -1.68,-1.44 -2.96,-3.04 -3.85,-4.77l-3.24 -0.72 0 -2.16 8.74 1.93 0 -1.49zm-2.81 3.03c1.02,1.43 2.38,2.69 4.09,3.77 1.63,-0.35 2.86,-1.03 3.7,-2.06l-7.79 -1.72zm9.97 9.54l2.44 0.54 0 11.45 -2.44 -0.54 0 -3.3 -12.32 -2.72c-0.05,0.09 -0.09,0.16 -0.12,0.22 -0.86,1.45 -1.99,2.27 -3.39,2.48l-0.02 -2.81c0.72,-0.39 1.28,-1.06 1.67,-2.03 0.45,-0.96 0.68,-2.22 0.68,-3.79 0,-0.79 -0.01,-1.61 -0.02,-2.43l2.37 0.52c0.02,0.43 0.02,0.88 0.02,1.34l11.14 2.46 0 -1.39zm-11.16 1.23c-0.06,0.73 -0.18,1.42 -0.34,2.08l11.5 2.54 0 -2.16 -11.16 -2.46zm19.87 -9.07l4.79 0.43 0 -1.09 2.44 0.22 0 1.09 6.47 0.58 0 -1.21 2.44 0.22 0 1.21 4.67 0.42 0 2.18 -4.67 -0.42 0 1.07 -2.44 -0.22 0 -1.07 -6.47 -0.58 0 1.07 -2.44 -0.22 0 -1.07 -4.79 -0.43 0 -2.18zm4.35 4.16c1.4,0.31 2.15,1.12 2.27,2.46 0.26,1.43 0.39,3.61 0.39,6.53 0,2.43 -0.03,4.19 -0.1,5.27 0,1.84 -0.67,2.72 -2.03,2.67 -0.59,-0.09 -1.19,-0.17 -1.8,-0.26l0 -2.08c0.44,0.09 0.88,0.16 1.31,0.19 0.31,-0.04 0.48,-0.29 0.49,-0.75 0.03,-0.95 0.06,-1.88 0.08,-2.77l-2.39 -0.21c-0.12,2.76 -0.3,4.65 -0.54,5.65l-2.05 -0.18c0.43,-2.24 0.67,-5.5 0.72,-9.78l0 -7.06 3.66 0.33zm-1.71 8.99l2.32 0.21c0,-0.08 0,-0.16 0,-0.25 0,-0.82 -0.01,-1.6 -0.03,-2.33l-2.27 -0.2 0 0.47c-0.02,0.73 -0.02,1.43 -0.02,2.1zm0.02 -4.66l2.17 0.19c-0.03,-0.65 -0.08,-1.28 -0.15,-1.9 0,-0.41 -0.27,-0.68 -0.82,-0.79l-1.21 -0.11 0 2.6zm6.35 -3.5l2.15 0.19c0.16,0.56 0.3,1.11 0.42,1.65l1.34 0.12c0.18,-0.61 0.3,-1.25 0.37,-1.93l2.02 0.18c-0.07,0.69 -0.17,1.33 -0.32,1.93l1.46 0.13c0.26,-0.56 0.48,-1.1 0.64,-1.63l2.17 0.19c-0.21,0.61 -0.44,1.15 -0.67,1.62l1.73 0.15 0 1.91 -3.51 -0.31c0.18,0.5 0.4,0.96 0.64,1.4l3.4 0.31 0 2.01 -1.85 -0.17c0.58,0.61 1.24,1.17 2,1.67l-0.03 2.25c-0.54,-0.3 -1.05,-0.61 -1.53,-0.95l0 0.82c-0.87,-0.04 -1.96,-0.06 -3.28,-0.04l0 -1.78c0.66,-0.04 1.33,-0.06 2,-0.07 -0.64,-0.62 -1.21,-1.32 -1.71,-2.11l-4.07 -0.36c-0.68,0.72 -1.47,1.33 -2.37,1.85 1.02,0.12 1.84,0.24 2.44,0.34l0 1.73c-0.82,-0.14 -2.09,-0.3 -3.8,-0.49l0 -0.92c-0.28,0.12 -0.57,0.23 -0.86,0.32l0 -2.06c0.64,-0.29 1.23,-0.63 1.78,-1.03l-1.71 -0.15 0 -2.01 3.58 0.32c0.28,-0.39 0.54,-0.81 0.79,-1.27l-4.18 -0.37 0 -1.91 1.43 0.13c-0.13,-0.52 -0.29,-1.08 -0.49,-1.66zm6.34 5.43c-0.21,-0.43 -0.4,-0.89 -0.54,-1.39l-0.4 -0.04c-0.18,0.47 -0.4,0.89 -0.64,1.28l1.58 0.14zm-2.15 6.15c-0.02,-1.13 -0.03,-2.29 -0.03,-3.5l2.22 0.2c0.01,1.11 0.02,2.3 0.02,3.57 1.68,0.83 3.5,1.54 5.46,2.13l0 2.01c-1.97,-0.44 -3.79,-1.08 -5.46,-1.9 -0.05,0.79 -0.24,1.42 -0.56,1.9 -0.51,0.58 -1.08,0.86 -1.71,0.82l-2.64 -0.24 0 -2.03 1.8 0.16c0.59,0.05 0.89,-0.21 0.89,-0.79 0,-0.08 0,-0.17 0,-0.25 -1.25,0.23 -3.02,0.42 -5.31,0.56l0 -2.16c1.86,-0.1 3.63,-0.26 5.31,-0.49zm17.81 -16.07l15.21 -1.29 0 1.89 -6.89 0.58c-0.1,0.29 -0.19,0.56 -0.3,0.82l2.62 -0.22c2.11,0.09 3.24,0.91 3.38,2.49 0.05,0.61 0.08,1.22 0.08,1.83 0,0.81 -0.04,1.51 -0.13,2.09 0.89,0.24 1.34,0.74 1.34,1.5 -0.03,1.08 -0.16,1.89 -0.4,2.44l-1.48 0.13c0.4,0.61 0.71,1.23 0.94,1.85l-2.1 0.18c-0.4,-1.07 -1.1,-2.31 -2.12,-3.71l2.03 -0.17c0.33,0.38 0.62,0.78 0.86,1.19 0.16,-0.66 0.24,-1.1 0.24,-1.33 0,-0.43 -0.36,-0.62 -1.09,-0.56l-10.59 0.9 0 2.26c0.51,-0.49 0.76,-1.03 0.76,-1.63l1.66 -0.14c-0.07,2.09 -1.35,3.71 -3.85,4.86l0 -2.11c0.44,-0.22 0.83,-0.47 1.16,-0.75l-1.75 0.15 -0.02 -4.08 1.29 -0.11 0 -6.45 4.79 -0.41c0.1,-0.29 0.19,-0.56 0.27,-0.81l-5.9 0.5 0 -1.89zm2.94 6.12l0 0.65 9.09 -0.77c0,-0.23 -0.01,-0.45 -0.02,-0.65l-9.07 0.77zm8.7 -2.15c-0.33,-0.34 -0.86,-0.52 -1.58,-0.56l-7.11 0.6 0 0.69 8.7 -0.74zm-8.7 4.2l0 0.7 8.97 -0.76c0.03,-0.24 0.06,-0.47 0.08,-0.7l-9.04 0.77zm1.63 2.87l1.88 -0.16c-0.05,0.52 -0.07,1 -0.07,1.44 0,0.65 0.32,0.94 0.96,0.89 2.4,-0.2 3.67,-0.35 3.8,-0.44l0 1.66c-0.3,0.11 -1.83,0.28 -4.62,0.51 -0.35,-0.02 -0.64,-0.08 -0.89,-0.17 -0.12,0.32 -0.26,0.61 -0.42,0.88l6.84 -0.58c1.04,0.08 1.56,0.43 1.56,1.06 0,0.55 -0.34,1.09 -1.01,1.65 -0.33,0.29 -0.7,0.57 -1.11,0.81 0.28,-0.01 0.56,-0.01 0.84,-0.02 0.95,-0.05 1.97,-0.12 3.03,-0.21l0 1.91c-3.31,0.26 -5.88,0.27 -7.73,0.01 -1.99,0.58 -4.62,1.02 -7.9,1.31l-0.02 -1.78c1.69,-0.14 3.17,-0.33 4.44,-0.55 -0.66,-0.29 -1.23,-0.65 -1.73,-1.07 -0.76,0.39 -1.63,0.69 -2.62,0.89l0 -1.96c2.63,-0.54 4.22,-1.79 4.77,-3.75 -0.03,-0.18 -0.05,-0.38 -0.05,-0.59 0,-0.65 0.02,-1.22 0.05,-1.74zm3.31 7.38c1.98,-0.63 2.96,-1.13 2.96,-1.49 0,-0.11 -0.09,-0.17 -0.27,-0.15l-6.5 0.55c0.92,0.54 2.19,0.9 3.8,1.09zm-0.72 -7.6l1.78 -0.15c0.41,0.62 0.71,1.24 0.89,1.86l-1.85 0.16c-0.15,-0.55 -0.42,-1.17 -0.81,-1.86zm-10.12 -11.17l2.34 -0.2c-0.39,1.52 -0.82,2.91 -1.28,4.17l0 18.44 -2.32 0.2 0 -14.03c-0.67,1 -1.41,1.85 -2.2,2.54l0 -3.3c1.42,-1.59 2.57,-4.2 3.46,-7.83zm26.22 4.54l0 2.6 5.26 -1.09 0 -2.6 -5.26 1.09zm5.26 3.84l-7.62 1.58 0 -11.95 13.03 -2.7c3.67,-0.76 5.54,0.82 5.6,4.73 0,3.82 -1.57,6.16 -4.73,7.03l-3.89 0.81 0 2.16 8.35 -1.73 0 2.38 -8.35 1.73 0 2.25 9.34 -1.94 0 2.43 -20.94 4.34 0 -2.43 9.19 -1.91 0 -2.25 -8.11 1.68 0 -2.38 8.11 -1.68 0 -2.16zm2.4 -2.83l3.55 -0.74c1.5,-0.51 2.39,-1.56 2.65,-3.15l-6.19 1.28 0 2.6zm6.19 -5.99c-0.29,-1.71 -1.35,-2.37 -3.18,-1.99l-3.01 0.62 0 2.65 6.19 -1.28zm-8.59 -0.87l-5.26 1.09 0 2.65 5.26 -1.09 0 -2.65z"/>
 </g>
</svg>
