<?xml version="1.0" encoding="UTF-8"?>
<!DOCTYPE svg PUBLIC "-//W3C//DTD SVG 1.1//EN" "http://www.w3.org/Graphics/SVG/1.1/DTD/svg11.dtd">
<!-- Creator: CorelDRAW 2021.5 -->
<svg xmlns="http://www.w3.org/2000/svg" xml:space="preserve" width="100%" height="100%" version="1.1" style="shape-rendering:geometricPrecision; text-rendering:geometricPrecision; image-rendering:optimizeQuality; fill-rule:evenodd; clip-rule:evenodd"
viewBox="0 0 143.89 143.89"
 xmlns:xlink="http://www.w3.org/1999/xlink"
 xmlns:xodm="http://www.corel.com/coreldraw/odm/2003">
 <defs>
  <style type="text/css">
   <![CDATA[
    .fil0 {fill:none;fill-rule:nonzero}
    .fil1 {fill:#8C2898;fill-rule:nonzero}
    .fil2 {fill:white;fill-rule:nonzero}
   ]]>
  </style>
   <clipPath id="id0" style="clip-rule:nonzero">
    <path d="M2.62 76.17c46.24,19.79 92.44,20.99 138.68,0.11 0.11,-1.45 0.14,-2.87 0.14,-4.33 0,-19.18 -7.77,-36.56 -20.35,-49.11 -12.59,-12.59 -29.93,-20.35 -49.11,-20.35 -19.18,0 -36.56,7.77 -49.11,20.35 -12.59,12.59 -20.35,29.93 -20.35,49.11 0,1.42 0.04,2.84 0.14,4.25l-0.04 -0.04z"/>
   </clipPath>
    <clipPath id="id1">
     <path d="M18.22 82.13c34.76,11.7 69.5,12.67 104.25,1.43l0 -59.3c-0.45,-0.48 -0.92,-0.95 -1.38,-1.42 -12.59,-12.59 -29.93,-20.35 -49.11,-20.35 -19.18,0 -36.56,7.77 -49.11,20.35 -1.63,1.63 -3.18,3.35 -4.65,5.13l0 54.16z"/>
    </clipPath>
    <clipPath id="id2">
     <path d="M2.62 76.17c46.24,19.79 92.44,20.99 138.68,0.11 0.11,-1.45 0.14,-2.87 0.14,-4.33 0,-19.18 -7.77,-36.56 -20.35,-49.11 -12.59,-12.59 -29.93,-20.35 -49.11,-20.35 -19.18,0 -36.56,7.77 -49.11,20.35 -12.59,12.59 -20.35,29.93 -20.35,49.11 0,1.42 0.04,2.84 0.14,4.25l-0.04 -0.04z"/>
    </clipPath>
 </defs>
 <g id="Layer_x0020_1">
  <metadata id="CorelCorpID_0Corel-Layer"/>
  <g>
  </g>
  <g style="clip-path:url(#id0)">
   <g id="_1787652800352">
   </g>
   <g style="clip-path:url(#id1)">
    <image x="18.22" y="-10.19" width="104.25" height="139.27" xlink:href="https://ik.imagekit.io/moearchive/calendar/nogi28/wadamaaya.png"/>
   </g>
   <g style="clip-path:url(#id2)">
   </g>
  </g>
  <path class="fil0" d="M2.62 76.17c46.24,19.79 92.44,20.99 138.68,0.11 0.11,-1.45 0.14,-2.87 0.14,-4.33 0,-19.18 -7.77,-36.56 -20.35,-49.11 -12.59,-12.59 -29.93,-20.35 -49.11,-20.35 -19.18,0 -36.56,7.77 -49.11,20.35 -12.59,12.59 -20.35,29.93 -20.35,49.11 0,1.42 0.04,2.84 0.14,4.25l-0.04 -0.04z"/>
  <path class="fil1" d="M42.73 28.79c-1.7,1.13 -4.01,0.71 -5.14,-0.99 -1.13,-1.7 -0.71,-4.01 0.99,-5.14 0.78,-0.53 1.63,-1.06 2.48,-1.6 1.03,-0.64 1.88,-1.13 2.52,-1.49 1.81,-0.99 4.08,-0.32 5.04,1.49 0.99,1.81 0.32,4.08 -1.49,5.04 -0.96,0.53 -1.7,0.96 -2.23,1.28 -0.71,0.43 -1.45,0.89 -2.16,1.38l0 0.04zm29.22 -28.79c19.86,0 37.87,8.05 50.88,21.06 13.01,13.01 21.06,31.03 21.06,50.88 0,19.86 -8.05,37.87 -21.06,50.88 -13.01,13.01 -31.03,21.06 -50.88,21.06 -19.86,0 -37.87,-8.05 -50.88,-21.06 -13.01,-13.01 -21.06,-31.03 -21.06,-50.88 0,-19.86 8.05,-37.87 21.06,-50.88 13.01,-13.01 31.03,-21.06 50.88,-21.06zm-69.32 76.17c46.24,19.79 92.44,20.99 138.68,0.11 0.11,-1.45 0.14,-2.87 0.14,-4.33 0,-19.18 -7.77,-36.56 -20.35,-49.11 -12.59,-12.59 -29.93,-20.35 -49.11,-20.35 -19.18,0 -36.56,7.77 -49.11,20.35 -12.59,12.59 -20.35,29.93 -20.35,49.11 0,1.42 0.04,2.84 0.14,4.25l-0.04 -0.04zm18.33 -14.86c-0.43,2.02 -2.38,3.3 -4.4,2.87 -2.02,-0.43 -3.3,-2.38 -2.87,-4.4 1.21,-5.74 3.23,-11.28 6.03,-16.38 2.8,-5.11 6.35,-9.82 10.53,-13.94 1.45,-1.45 3.83,-1.42 5.25,0.04 1.45,1.45 1.42,3.79 -0.04,5.25 -3.69,3.62 -6.77,7.73 -9.22,12.2 -2.45,4.47 -4.22,9.29 -5.28,14.33l0 0.04z"/>
  <path class="fil2" d="M25.37 88.86l0 2.33c-1.01,-0.19 -2.09,-0.4 -3.25,-0.64l0 1.66 3.73 0.94 0 2.33 -1.01 -0.25c0.03,5.53 0.25,10.55 0.65,15.06l-2 -0.48c-0.34,-3.02 -0.51,-8.04 -0.53,-15.05l-0.84 -0.21 0 15.64 -2.24 -0.56 0 -15.64 -0.84 -0.21c-0.09,5.12 -0.27,10.03 -0.53,14.74l-2.26 -0.57c0.53,-4.55 0.81,-9.43 0.84,-14.66l-0.99 -0.25 0 -2.33 3.78 0.95 0 -1.59c-0.99,-0.2 -2.03,-0.42 -3.1,-0.68l0 -2.28c2.43,0.61 5.3,1.2 8.58,1.76zm7 2.33c1,0.31 1.82,0.83 2.48,1.56 0.66,0.81 1.04,1.62 1.15,2.42 0.29,1.64 0.44,4.16 0.44,7.55 -0.02,2.75 -0.09,4.59 -0.22,5.5 -0.03,1.23 -0.33,2.23 -0.89,3 -0.71,0.75 -1.57,1.03 -2.6,0.84l-6.08 -1.53 0 -20.77 5.72 1.43zm-3.58 17.52l3.63 0.91c0.95,0.06 1.42,-0.5 1.42,-1.67 0.16,-1.14 0.24,-3.25 0.24,-6.34 0,-2.1 -0.07,-4.04 -0.21,-5.83 -0.03,-1.18 -0.66,-2.01 -1.9,-2.49l-3.18 -0.8 0 16.21zm15.22 -3.44l0 6.69 5.85 0.77 0 -6.69 -5.85 -0.77zm8.35 7.79l2.8 0.37c1.36,0.01 2.32,-0.66 2.88,-2.02 0.54,-1.09 0.86,-2.48 0.96,-4.16l-6.63 -0.87 0 6.69zm6.61 -8.18c-0.13,-1.81 -0.5,-3.3 -1.1,-4.46 -0.7,-1.5 -1.76,-2.41 -3.17,-2.72l-2.34 -0.31 0 6.62 6.61 0.87zm-9.12 -7.82l-5.85 -0.77 0 6.62 5.85 0.77 0 -6.62zm5.19 -1.67c2,0.51 3.58,1.74 4.74,3.68 1.08,1.8 1.66,4.1 1.74,6.92 0,3.49 -0.53,5.91 -1.6,7.28 -1.06,1.72 -2.63,2.6 -4.69,2.63l-13.69 -1.8 0 -20.47 13.49 1.78zm28.32 5.29l-7.41 0.18 0 2.92 7.01 -0.17 0 2.38 -7.01 0.17 0 3.25c2.13,0.66 4.39,1.65 6.77,2.96l0 2.92c-2.46,-1.46 -4.77,-2.55 -6.91,-3.28 -0.47,3.12 -2.36,4.71 -5.7,4.8 -1.48,0.04 -2.67,-0.22 -3.54,-0.78 -0.99,-0.67 -1.48,-1.71 -1.48,-3.11 0,-2.88 1.77,-4.35 5.3,-4.44 0.92,-0.02 1.93,0.06 3.02,0.25l0 -2.5 -8.3 0.2 0 -2.38 8.3 -0.2 0 -2.92 -8.69 0.21 0 -2.45 8.69 -0.21 0 -2.23 2.55 -0.06 0 2.23 7.41 -0.18 0 2.45zm-9.98 10.65c-1.09,-0.29 -2.09,-0.42 -3,-0.4 -0.93,0.02 -1.58,0.13 -1.96,0.32 -0.58,0.31 -0.87,0.85 -0.87,1.61 0,0.64 0.28,1.07 0.84,1.27 0.35,0.14 0.92,0.2 1.71,0.18 1.16,-0.03 1.99,-0.3 2.5,-0.81 0.44,-0.46 0.7,-1.18 0.77,-2.18zm32.23 -5.35c0,2.63 -0.96,4.72 -2.87,6.27 -1.65,1.33 -3.87,2.2 -6.67,2.62 -0.23,0.03 -0.7,0.09 -1.42,0.16l0 -2.38c0.21,-0.03 0.48,-0.06 0.81,-0.09 0.36,-0.04 0.56,-0.06 0.61,-0.07 4.79,-0.71 7.18,-2.76 7.18,-6.17 0,-1.55 -0.7,-2.65 -2.11,-3.31 -1.27,2.77 -2.95,5.28 -5.03,7.54 -2.37,2.56 -4.62,4 -6.77,4.32 -1.21,0.18 -2.22,0.02 -3.04,-0.47 -0.97,-0.65 -1.45,-1.77 -1.45,-3.36 0,-1.5 0.56,-3.12 1.67,-4.85 1.21,-1.87 2.8,-3.34 4.78,-4.43 -0.02,-0.89 -0.03,-1.76 -0.03,-2.62l-5.64 0.83 0 -2.36 5.69 -0.84c0.06,-0.7 0.14,-1.45 0.22,-2.24l2.53 -0.37c-0.11,0.8 -0.19,1.54 -0.22,2.24l10.74 -1.59 0 2.36 -10.86 1.61c0,0.55 0.03,1.18 0.08,1.92 0.64,-0.2 1.31,-0.35 2.01,-0.45 2.49,-0.37 4.6,-0.21 6.35,0.45 2.29,0.9 3.43,2.66 3.43,5.27zm-6.72 -3.44c-0.93,-0.08 -1.95,-0.03 -3.06,0.13 -0.69,0.1 -1.33,0.25 -1.94,0.43 0.07,2.27 0.19,4.33 0.37,6.19 1.88,-2 3.42,-4.25 4.63,-6.76zm-6.89 8.75c-0.29,-1.96 -0.5,-4.26 -0.61,-6.92 -1.29,0.87 -2.32,1.95 -3.09,3.26 -0.72,1.15 -1.08,2.18 -1.08,3.08 0,1.39 0.71,1.98 2.13,1.77 0.8,-0.12 1.68,-0.52 2.65,-1.19zm35.78 -15.31c0,2.05 -0.74,3.75 -2.22,5.11 -1.26,1.14 -2.88,1.95 -4.9,2.43 -0.82,0.19 -1.75,0.34 -2.79,0.42l0 -2.53c1.01,-0.06 1.94,-0.19 2.79,-0.39 3.12,-0.74 4.68,-2.23 4.68,-4.46 0,-2.27 -1.16,-3.12 -3.47,-2.57 -1.89,0.45 -4.52,1.59 -7.88,3.42 1.4,4.33 2.52,8.85 3.35,13.58l-2.41 0.58c-0.84,-4.41 -1.93,-8.69 -3.28,-12.83 -1.61,0.93 -3.14,1.89 -4.58,2.88l0 -2.75c1.24,-0.79 2.52,-1.57 3.86,-2.36 -0.59,-1.63 -1.21,-3.17 -1.83,-4.64l2.6 -0.62c0.53,1.24 1.05,2.56 1.54,3.95 1.8,-0.96 3.42,-1.75 4.87,-2.37 -0.58,-1.33 -1.01,-2.26 -1.3,-2.79l2.77 -0.66c0.23,0.56 0.58,1.39 1.08,2.5 0.44,-0.14 0.84,-0.25 1.21,-0.34 1.85,-0.44 3.3,-0.26 4.34,0.55 1.05,0.82 1.57,2.13 1.57,3.92z"/>
 </g>
</svg>
