<?xml version="1.0" encoding="UTF-8"?>
<!DOCTYPE svg PUBLIC "-//W3C//DTD SVG 1.1//EN" "http://www.w3.org/Graphics/SVG/1.1/DTD/svg11.dtd">
<!-- Creator: CorelDRAW 2021.5 -->
<svg xmlns="http://www.w3.org/2000/svg" xml:space="preserve" width="100%" height="100%" version="1.1" style="shape-rendering:geometricPrecision; text-rendering:geometricPrecision; image-rendering:optimizeQuality; fill-rule:evenodd; clip-rule:evenodd"
viewBox="0 0 172.76 172.76"
 xmlns:xlink="http://www.w3.org/1999/xlink"
 xmlns:xodm="http://www.corel.com/coreldraw/odm/2003">
 <defs>
  <style type="text/css">
   <![CDATA[
    .fil0 {fill:none;fill-rule:nonzero}
    .fil1 {fill:#8C2898;fill-rule:nonzero}
    .fil2 {fill:white;fill-rule:nonzero}
   ]]>
  </style>
   <clipPath id="id0" style="clip-rule:nonzero">
    <path d="M3.15 91.45c55.51,23.76 110.99,25.2 166.5,0.13 0.13,-1.75 0.17,-3.45 0.17,-5.19 0,-23.03 -9.32,-43.89 -24.44,-58.96 -15.11,-15.11 -35.93,-24.44 -58.96,-24.44 -23.03,0 -43.89,9.32 -58.96,24.44 -15.11,15.11 -24.44,35.93 -24.44,58.96 0,1.7 0.04,3.41 0.17,5.11l-0.04 -0.04z"/>
   </clipPath>
    <clipPath id="id1">
     <path d="M21.88 98.61c41.73,14.05 83.44,15.22 125.17,1.72l0 -71.2c-0.55,-0.58 -1.1,-1.15 -1.66,-1.71 -15.11,-15.11 -35.93,-24.44 -58.96,-24.44 -23.03,0 -43.89,9.32 -58.96,24.44 -1.96,1.96 -3.82,4.02 -5.58,6.16l0 65.03z"/>
    </clipPath>
    <clipPath id="id2">
     <path d="M3.15 91.45c55.51,23.76 110.99,25.2 166.5,0.13 0.13,-1.75 0.17,-3.45 0.17,-5.19 0,-23.03 -9.32,-43.89 -24.44,-58.96 -15.11,-15.11 -35.93,-24.44 -58.96,-24.44 -23.03,0 -43.89,9.32 -58.96,24.44 -15.11,15.11 -24.44,35.93 -24.44,58.96 0,1.7 0.04,3.41 0.17,5.11l-0.04 -0.04z"/>
    </clipPath>
 </defs>
 <g id="Layer_x0020_1">
  <metadata id="CorelCorpID_0Corel-Layer"/>
  <g>
  </g>
  <g style="clip-path:url(#id0)">
   <g id="_1788546984288">
   </g>
   <g style="clip-path:url(#id1)">
    <image xmlns="http://www.w3.org/2000/svg" x="31.88" y="-22.24" width="105.17" height="147.21" xmlns:xlink="http://www.w3.org/1999/xlink" xlink:href="https://ik.imagekit.io/moearchive/calendar/grad/wakatsukiyumi.png"/>
   </g>
   <g style="clip-path:url(#id2)">
   </g>
  </g>
  <path class="fil0" d="M3.15 91.45c55.51,23.76 110.99,25.2 166.5,0.13 0.13,-1.75 0.17,-3.45 0.17,-5.19 0,-23.03 -9.32,-43.89 -24.44,-58.96 -15.11,-15.11 -35.93,-24.44 -58.96,-24.44 -23.03,0 -43.89,9.32 -58.96,24.44 -15.11,15.11 -24.44,35.93 -24.44,58.96 0,1.7 0.04,3.41 0.17,5.11l-0.04 -0.04z"/>
  <path class="fil1" d="M51.3 34.57c-2.04,1.36 -4.81,0.85 -6.17,-1.19 -1.36,-2.04 -0.85,-4.81 1.19,-6.17 0.94,-0.64 1.96,-1.28 2.98,-1.92 1.23,-0.77 2.26,-1.36 3.02,-1.79 2.17,-1.19 4.9,-0.38 6.05,1.79 1.19,2.17 0.38,4.9 -1.79,6.05 -1.15,0.64 -2.04,1.15 -2.68,1.53 -0.85,0.51 -1.75,1.06 -2.6,1.66l0 0.04zm35.08 -34.57c23.84,0 45.47,9.66 61.09,25.29 15.62,15.62 25.29,37.25 25.29,61.09 0,23.84 -9.66,45.47 -25.29,61.09 -15.62,15.62 -37.25,25.29 -61.09,25.29 -23.84,0 -45.47,-9.66 -61.09,-25.29 -15.62,-15.62 -25.29,-37.25 -25.29,-61.09 0,-23.84 9.66,-45.47 25.29,-61.09 15.62,-15.62 37.25,-25.29 61.09,-25.29zm-83.23 91.45c55.51,23.76 110.99,25.2 166.5,0.13 0.13,-1.75 0.17,-3.45 0.17,-5.19 0,-23.03 -9.32,-43.89 -24.44,-58.96 -15.11,-15.11 -35.93,-24.44 -58.96,-24.44 -23.03,0 -43.89,9.32 -58.96,24.44 -15.11,15.11 -24.44,35.93 -24.44,58.96 0,1.7 0.04,3.41 0.17,5.11l-0.04 -0.04zm22.01 -17.84c-0.51,2.43 -2.85,3.96 -5.28,3.45 -2.43,-0.51 -3.96,-2.85 -3.45,-5.28 1.45,-6.9 3.87,-13.54 7.24,-19.67 3.36,-6.13 7.62,-11.79 12.64,-16.73 1.75,-1.75 4.6,-1.7 6.3,0.04 1.75,1.75 1.7,4.56 -0.04,6.3 -4.43,4.34 -8.13,9.28 -11.07,14.64 -2.94,5.36 -5.07,11.15 -6.34,17.2l0 0.04z"/>
  <path class="fil2" d="M27.43 108.09l5.41 1.19 0 -1.93 2.88 0.63 0 1.93 8.19 1.81 0 -1.93 2.91 0.64 0 1.93 5.23 1.15 0 2.77 -5.23 -1.15 0 2.29 -2.91 -0.64 0 -2.29 -8.19 -1.81 0 2.29 -2.88 -0.63 0 -2.29 -5.41 -1.19 0 -2.77zm0.2 7.46l9.1 2.01c0.27,-0.77 0.48,-1.61 0.61,-2.51l2.91 0.64c-0.12,0.9 -0.3,1.75 -0.56,2.52l12.29 2.71 0 2.85 -13.46 -2.97c-0.64,1.01 -1.41,1.89 -2.33,2.65l9.48 2.09c1.59,0.51 2.82,1.33 3.69,2.48 0.89,0.99 1.35,2.25 1.39,3.79 0,1.69 -0.42,2.87 -1.25,3.56 -1.01,0.89 -2.23,1.18 -3.66,0.89l-13.78 -3.04 0 -7.59c-1.41,0.44 -2.97,0.71 -4.68,0.81l0 -3.18c3.53,-0.23 6.12,-1.3 7.79,-3.19l-7.55 -1.67 0 -2.85zm7.3 15.66l10.02 2.18c1.86,0.33 2.85,-0.38 2.97,-2.11 -0.12,-1.53 -0.92,-2.57 -2.42,-3.09l-10.57 -2.33 0 5.36zm25.63 -17.61l13.72 1.23c1.72,0.27 3.1,0.9 4.15,1.89 0.97,1.06 1.52,2.34 1.66,3.84 0.28,2.15 0.42,4.77 0.45,7.87 0,2.86 -0.11,5.47 -0.32,7.83 -0.46,3.06 -2.23,4.44 -5.31,4.17 -3.22,-0.29 -5.86,-0.65 -7.91,-1.09l0 -2.77c3,0.49 5.38,0.81 7.14,0.97 1.92,0.17 2.99,-0.58 3.23,-2.24 0.06,-0.57 0.1,-1.26 0.12,-2.05l-14.88 -1.33c-0.39,2.9 -0.86,5.48 -1.39,7.73l-2.99 -0.3c0.61,-2.53 1.13,-5.51 1.54,-8.97 0.5,-3.98 0.76,-7.85 0.8,-11.59l0 -5.18zm2.4 15.45l14.58 1.31c0,-0.61 0,-1.28 0,-2 -0.02,-0.91 -0.05,-1.8 -0.09,-2.65l-14.11 -1.26c-0.08,1.58 -0.21,3.12 -0.38,4.61zm0.53 -7.48l13.75 1.23c-0.08,-0.82 -0.16,-1.6 -0.24,-2.34 -0.08,-1.53 -0.95,-2.48 -2.61,-2.85l-10.85 -0.97 0 2.38c-0.02,0.87 -0.04,1.72 -0.06,2.55zm29.3 -7.15l3.12 -0.26c-0.69,2.16 -1.48,4.11 -2.37,5.85l0 20.95 -2.9 0.25 0 -16.72c-1.07,1.34 -2.23,2.46 -3.47,3.36l0 -3.69c2.31,-2 4.19,-5.25 5.63,-9.73zm2.79 3.18l5.85 -0.49c0.22,-1.11 0.36,-2.26 0.44,-3.46l2.94 -0.25c-0.12,1.2 -0.28,2.35 -0.48,3.46l8.77 -0.74 0 2.98 -9.4 0.8c-0.61,2.2 -1.43,4.19 -2.46,5.98l6.29 -0.53c1.66,-0 2.93,0.54 3.8,1.64 0.95,1.17 1.42,2.77 1.42,4.82 0,2.11 -0.48,3.81 -1.42,5.12 -0.87,1.4 -2.03,2.19 -3.47,2.38l-9.64 0.82 0 -10.24c-1.11,1.14 -2.34,2.15 -3.71,3.03l0 -3.18c2.93,-2.45 4.99,-5.64 6.2,-9.58l-5.13 0.43 0 -2.98zm5.55 11.02l0 8.39 5.93 -0.5c1.74,-0.52 2.67,-2.12 2.79,-4.79 -0.16,-2.31 -1.23,-3.5 -3.2,-3.57l-5.52 0.47zm21.87 -17.97l3.06 -0.63c0.17,0.58 0.4,1.17 0.67,1.77l7.87 -1.63c0.33,-0.7 0.61,-1.39 0.85,-2.05l2.94 -0.61c-0.19,0.72 -0.42,1.39 -0.67,2.02l4.75 -0.99 0 2.74 -10.67 2.21 0 1.75 9.94 -2.06 0 2.74 -9.94 2.06 0 1.79 10.52 -2.18 0 2.74 -23.89 4.96 0 -2.74 10.55 -2.19 0 -1.79 -9.82 2.04 0 -2.74 9.82 -2.04 0 -1.75 -10.49 2.18 0 -2.74 5.16 -1.07c-0.25,-0.58 -0.47,-1.17 -0.64,-1.77zm-4.75 17.23l10.63 -2.21c0.02,-0.09 0.03,-0.16 0.03,-0.24l-0.06 -1.48 3 -0.62 0 1.49c0,0.08 -0.01,0.16 -0.03,0.24l10.67 -2.21 0 2.71 -10.29 2.13c2.27,2.07 5.73,2.86 10.37,2.37l0 2.95c-5.75,0.44 -9.82,-0.55 -12.21,-2.97 -2,3.43 -6.04,6.09 -12.12,7.99l0 -2.95c5.2,-1.67 8.5,-3.86 9.88,-6.54l-9.88 2.05 0 -2.71z"/>
 </g>
</svg>
