<?xml version="1.0" encoding="UTF-8"?>
<!DOCTYPE svg PUBLIC "-//W3C//DTD SVG 1.1//EN" "http://www.w3.org/Graphics/SVG/1.1/DTD/svg11.dtd">
<!-- Creator: CorelDRAW 2021.5 -->
<svg xmlns="http://www.w3.org/2000/svg" xml:space="preserve" width="100%" height="100%" version="1.1" style="shape-rendering:geometricPrecision; text-rendering:geometricPrecision; image-rendering:optimizeQuality; fill-rule:evenodd; clip-rule:evenodd"
viewBox="0 0 123.29 123.29"
 xmlns:xlink="http://www.w3.org/1999/xlink"
 xmlns:xodm="http://www.corel.com/coreldraw/odm/2003">
 <defs>
  <style type="text/css">
   <![CDATA[
    .fil0 {fill:none;fill-rule:nonzero}
    .fil1 {fill:#8C2898;fill-rule:nonzero}
    .fil2 {fill:white;fill-rule:nonzero}
   ]]>
  </style>
   <clipPath id="id0" style="clip-rule:nonzero">
    <path d="M2.25 65.26c39.62,16.95 79.21,17.99 118.82,0.09 0.09,-1.25 0.12,-2.46 0.12,-3.71 0,-16.44 -6.65,-31.32 -17.44,-42.08 -10.79,-10.79 -25.64,-17.44 -42.08,-17.44 -16.44,0 -31.32,6.65 -42.08,17.44 -10.79,10.79 -17.44,25.64 -17.44,42.08 0,1.22 0.03,2.43 0.12,3.65l-0.03 -0.03z"/>
   </clipPath>
    <clipPath id="id1">
     <path d="M15.61 70.37c29.78,10.02 59.55,10.86 89.33,1.23l0 -50.81c-0.39,-0.41 -0.78,-0.82 -1.19,-1.22 -10.79,-10.79 -25.64,-17.44 -42.08,-17.44 -16.44,0 -31.32,6.65 -42.08,17.44 -1.4,1.4 -2.73,2.87 -3.98,4.4l0 46.41z"/>
    </clipPath>
    <clipPath id="id2">
     <path d="M2.25 65.26c39.62,16.95 79.21,17.99 118.82,0.09 0.09,-1.25 0.12,-2.46 0.12,-3.71 0,-16.44 -6.65,-31.32 -17.44,-42.08 -10.79,-10.79 -25.64,-17.44 -42.08,-17.44 -16.44,0 -31.32,6.65 -42.08,17.44 -10.79,10.79 -17.44,25.64 -17.44,42.08 0,1.22 0.03,2.43 0.12,3.65l-0.03 -0.03z"/>
    </clipPath>
 </defs>
 <g id="Layer_x0020_1">
  <metadata id="CorelCorpID_0Corel-Layer"/>
  <g>
  </g>
  <g style="clip-path:url(#id0)">
   <g id="_1788544255696">
   </g>
   <g style="clip-path:url(#id1)">
    <image x="15.61" y="-8.73" width="89.33" height="119.33" xlink:href="https://ik.imagekit.io/moearchive/calendar/grad/yoshimotoayaka.png"/>
   </g>
   <g style="clip-path:url(#id2)">
   </g>
  </g>
  <path class="fil0" d="M2.25 65.26c39.62,16.95 79.21,17.99 118.82,0.09 0.09,-1.25 0.12,-2.46 0.12,-3.71 0,-16.44 -6.65,-31.32 -17.44,-42.08 -10.79,-10.79 -25.64,-17.44 -42.08,-17.44 -16.44,0 -31.32,6.65 -42.08,17.44 -10.79,10.79 -17.44,25.64 -17.44,42.08 0,1.22 0.03,2.43 0.12,3.65l-0.03 -0.03z"/>
  <path class="fil1" d="M36.61 24.67c-1.46,0.97 -3.43,0.61 -4.41,-0.85 -0.97,-1.46 -0.61,-3.43 0.85,-4.41 0.67,-0.46 1.4,-0.91 2.13,-1.37 0.88,-0.55 1.61,-0.97 2.16,-1.28 1.55,-0.85 3.49,-0.27 4.31,1.28 0.85,1.55 0.27,3.49 -1.28,4.31 -0.82,0.46 -1.46,0.82 -1.91,1.09 -0.61,0.36 -1.25,0.76 -1.85,1.18l0 0.03zm25.03 -24.67c17.01,0 32.45,6.9 43.6,18.05 11.15,11.15 18.05,26.58 18.05,43.6 0,17.01 -6.9,32.45 -18.05,43.6 -11.15,11.15 -26.58,18.05 -43.6,18.05 -17.01,0 -32.45,-6.9 -43.6,-18.05 -11.15,-11.15 -18.05,-26.58 -18.05,-43.6 0,-17.01 6.9,-32.45 18.05,-43.6 11.15,-11.15 26.58,-18.05 43.6,-18.05zm-59.4 65.26c39.62,16.95 79.21,17.99 118.82,0.09 0.09,-1.25 0.12,-2.46 0.12,-3.71 0,-16.44 -6.65,-31.32 -17.44,-42.08 -10.79,-10.79 -25.64,-17.44 -42.08,-17.44 -16.44,0 -31.32,6.65 -42.08,17.44 -10.79,10.79 -17.44,25.64 -17.44,42.08 0,1.22 0.03,2.43 0.12,3.65l-0.03 -0.03zm15.71 -12.73c-0.36,1.73 -2.04,2.83 -3.77,2.46 -1.73,-0.36 -2.83,-2.04 -2.46,-3.77 1.03,-4.92 2.76,-9.66 5.16,-14.04 2.4,-4.37 5.44,-8.42 9.02,-11.94 1.25,-1.25 3.28,-1.22 4.5,0.03 1.25,1.25 1.22,3.25 -0.03,4.5 -3.16,3.1 -5.8,6.62 -7.9,10.45 -2.1,3.83 -3.62,7.96 -4.53,12.27l0 0.03z"/>
  <path class="fil2" d="M32.61 89.09c1.16,0.26 2.06,0.85 2.7,1.78 0.65,0.84 1,1.84 1.06,3.02 -0.01,1.21 -0.33,2.08 -0.96,2.61 -0.67,0.69 -1.55,0.94 -2.68,0.75l-11.82 -2.61 0 -8.13 11.7 2.58zm-9.62 3.99l9.52 2.1c1.19,0.16 1.78,-0.43 1.78,-1.77 0,-1.25 -0.59,-2.05 -1.78,-2.41l-9.52 -2.1 0 4.18zm-3.65 -15.05l7.78 1.72 0 -2.32 2.1 0.46 0 2.32 7.82 1.73 0 2.06 -7.82 -1.73 0 3.06 7.22 1.59 0 1.98 -16.36 -3.61 0 -1.98 7.05 1.56 0 -3.06 -7.78 -1.72 0 -2.06zm21.59 4.56l7.59 0.68 0 -2.21 2.14 0.19 0 2.21 7.64 0.68 0 2.06 -4.21 -0.38c0.64,4.84 2.17,8.28 4.59,10.33l0 2.81c-3.53,-2.45 -5.74,-6.89 -6.64,-13.32l-1.38 -0.12 0 10.62 4.89 0.44 0 2.08 -4.89 -0.44 0 2.16 -2.14 -0.19 0 -2.16 -4.63 -0.41 0 -2.08 4.63 0.41 0 -10.62 -1.37 -0.12c-0.26,3.49 -0.95,6.1 -2.08,7.84 -1.28,2.06 -2.79,3.52 -4.53,4.35l0 -2.55c2.82,-2.06 4.35,-5.33 4.59,-9.82l-4.21 -0.38 0 -2.06zm21.54 8.54l4.04 -0.34 0 -1.13 2.01 -0.17 0 1.13 4.02 -0.34 0 1.93 -1.42 0.12c0.21,2.18 0.59,3.78 1.12,4.81l0 2.74c-1.4,-1 -2.34,-3.47 -2.84,-7.41l-0.89 0.08 0 7.88 -2.01 0.17 0 -7.88 -0.89 0.08c-0.37,3.4 -1.33,6.03 -2.88,7.89l0 -2.76c0.56,-1.34 0.92,-3 1.08,-4.98l-1.35 0.11 0 -1.93zm10.16 -9.91l0 1.89c-1.95,0.38 -5.25,0.79 -9.92,1.22l0 -1.89c4.81,-0.41 8.12,-0.81 9.92,-1.22zm-9.79 3.87l1.84 -0.16c0.34,1.29 0.67,2.66 1,4.12l-1.91 0.16c-0.27,-1.42 -0.58,-2.8 -0.93,-4.13zm3.47 -0.36l1.82 -0.15c0.23,1.31 0.43,2.72 0.61,4.22l-1.86 0.16c-0.16,-1.44 -0.35,-2.85 -0.57,-4.22zm4.04 -0.39l1.9 -0.16c-0.3,2.04 -0.57,3.5 -0.83,4.38l-1.92 0.16c0.4,-1.65 0.68,-3.11 0.85,-4.38zm7.4 -3.73l2.18 -0.18c-0.84,3.36 -3.09,5.76 -6.75,7.22l0 -2.15c2.75,-1.22 4.27,-2.85 4.57,-4.89zm0.11 5.2l2.16 -0.18c-0.82,3.55 -3,6.09 -6.56,7.6l-0.02 -2.08c2.68,-1.32 4.16,-3.1 4.42,-5.34zm0.51 5.54l2.14 -0.18c-1.27,4.04 -3.71,7.02 -7.32,8.94l0 -2.29c2.4,-1.17 4.12,-3.33 5.18,-6.47zm5.7 -10.43l4.04 -0.84 0 -1.25 2.06 -0.43 0 1.25 5.45 -1.13 0 -1.25 2.06 -0.43 0 1.25 3.93 -0.82 0 1.91 -3.93 0.82 0 1.11 -2.06 0.43 0 -1.11 -5.45 1.13 0 1.11 -2.06 0.43 0 -1.11 -4.04 0.84 0 -1.91zm0.56 3.52l16.49 -3.42 0 1.83 -2.33 0.48 0 1.67 2.81 -0.58 0 1.89 -2.81 0.58 0 1.57 2.23 -0.46 0 1.82 -7.24 1.5 0 1.38 7.71 -1.6 0 1.87 -7.71 1.6 0 2.23 -2.06 0.43 0 -2.23 -7.55 1.57 0 -1.87 7.55 -1.57 0 -1.38 -7.07 1.47 0 -1.82 2.25 -0.47 0 -1.57 -2.89 0.6 0 -1.89 2.89 -0.6 0 -1.67 -2.27 0.47 0 -1.83zm12.33 4.41l0 -1.57 -3.18 0.66 0 1.57 3.18 -0.66zm-5.24 1.09l0 -1.57 -2.97 0.62 0 1.57 2.97 -0.62zm5.24 -4.55l0 -1.67 -3.18 0.66 0 1.67 3.18 -0.66zm-5.24 1.09l0 -1.67 -2.97 0.62 0 1.67 2.97 -0.62z"/>
 </g>
</svg>
