<?xml version="1.0" encoding="UTF-8"?>
<!DOCTYPE svg PUBLIC "-//W3C//DTD SVG 1.1//EN" "http://www.w3.org/Graphics/SVG/1.1/DTD/svg11.dtd">
<!-- Creator: CorelDRAW 2021.5 -->
<svg xmlns="http://www.w3.org/2000/svg" xml:space="preserve" width="100%" height="100%" version="1.1" style="shape-rendering:geometricPrecision; text-rendering:geometricPrecision; image-rendering:optimizeQuality; fill-rule:evenodd; clip-rule:evenodd"
viewBox="0 0 143.89 143.89"
 xmlns:xlink="http://www.w3.org/1999/xlink"
 xmlns:xodm="http://www.corel.com/coreldraw/odm/2003">
 <defs>
  <style type="text/css">
   <![CDATA[
    .fil0 {fill:none;fill-rule:nonzero}
    .fil1 {fill:#8C2898;fill-rule:nonzero}
    .fil2 {fill:white;fill-rule:nonzero}
   ]]>
  </style>
   <clipPath id="id0" style="clip-rule:nonzero">
    <path d="M2.62 76.17c46.24,19.79 92.44,20.99 138.68,0.11 0.11,-1.45 0.14,-2.87 0.14,-4.33 0,-19.18 -7.77,-36.56 -20.35,-49.11 -12.59,-12.59 -29.93,-20.35 -49.11,-20.35 -19.18,0 -36.56,7.77 -49.11,20.35 -12.59,12.59 -20.35,29.93 -20.35,49.11 0,1.42 0.04,2.84 0.14,4.25l-0.04 -0.04z"/>
   </clipPath>
    <clipPath id="id1">
     <path d="M18.22 82.13c34.76,11.7 69.5,12.67 104.25,1.43l0 -59.3c-0.45,-0.48 -0.92,-0.95 -1.38,-1.42 -12.59,-12.59 -29.93,-20.35 -49.11,-20.35 -19.18,0 -36.56,7.77 -49.11,20.35 -1.63,1.63 -3.18,3.35 -4.65,5.13l0 54.16z"/>
    </clipPath>
    <clipPath id="id2">
     <path d="M2.62 76.17c46.24,19.79 92.44,20.99 138.68,0.11 0.11,-1.45 0.14,-2.87 0.14,-4.33 0,-19.18 -7.77,-36.56 -20.35,-49.11 -12.59,-12.59 -29.93,-20.35 -49.11,-20.35 -19.18,0 -36.56,7.77 -49.11,20.35 -12.59,12.59 -20.35,29.93 -20.35,49.11 0,1.42 0.04,2.84 0.14,4.25l-0.04 -0.04z"/>
    </clipPath>
 </defs>
 <g id="Layer_x0020_1">
  <metadata id="CorelCorpID_0Corel-Layer"/>
  <g>
  </g>
  <g style="clip-path:url(#id0)">
   <g id="_1788542840304">
   </g>
   <g style="clip-path:url(#id1)">
    <image x="18.22" y="-10.19" width="104.25" height="139.27" xlink:href="https://ik.imagekit.io/moearchive/calendar/grad/horimiona.png"/>
   </g>
   <g style="clip-path:url(#id2)">
   </g>
  </g>
  <path class="fil0" d="M2.62 76.17c46.24,19.79 92.44,20.99 138.68,0.11 0.11,-1.45 0.14,-2.87 0.14,-4.33 0,-19.18 -7.77,-36.56 -20.35,-49.11 -12.59,-12.59 -29.93,-20.35 -49.11,-20.35 -19.18,0 -36.56,7.77 -49.11,20.35 -12.59,12.59 -20.35,29.93 -20.35,49.11 0,1.42 0.04,2.84 0.14,4.25l-0.04 -0.04z"/>
  <path class="fil1" d="M42.73 28.79c-1.7,1.13 -4.01,0.71 -5.14,-0.99 -1.13,-1.7 -0.71,-4.01 0.99,-5.14 0.78,-0.53 1.63,-1.06 2.48,-1.6 1.03,-0.64 1.88,-1.13 2.52,-1.49 1.81,-0.99 4.08,-0.32 5.04,1.49 0.99,1.81 0.32,4.08 -1.49,5.04 -0.96,0.53 -1.7,0.96 -2.23,1.28 -0.71,0.43 -1.45,0.89 -2.16,1.38l0 0.04zm29.22 -28.79c19.86,0 37.87,8.05 50.88,21.06 13.01,13.01 21.06,31.03 21.06,50.88 0,19.86 -8.05,37.87 -21.06,50.88 -13.01,13.01 -31.03,21.06 -50.88,21.06 -19.86,0 -37.87,-8.05 -50.88,-21.06 -13.01,-13.01 -21.06,-31.03 -21.06,-50.88 0,-19.86 8.05,-37.87 21.06,-50.88 13.01,-13.01 31.03,-21.06 50.88,-21.06zm-69.32 76.17c46.24,19.79 92.44,20.99 138.68,0.11 0.11,-1.45 0.14,-2.87 0.14,-4.33 0,-19.18 -7.77,-36.56 -20.35,-49.11 -12.59,-12.59 -29.93,-20.35 -49.11,-20.35 -19.18,0 -36.56,7.77 -49.11,20.35 -12.59,12.59 -20.35,29.93 -20.35,49.11 0,1.42 0.04,2.84 0.14,4.25l-0.04 -0.04zm18.33 -14.86c-0.43,2.02 -2.38,3.3 -4.4,2.87 -2.02,-0.43 -3.3,-2.38 -2.87,-4.4 1.21,-5.74 3.23,-11.28 6.03,-16.38 2.8,-5.11 6.35,-9.82 10.53,-13.94 1.45,-1.45 3.83,-1.42 5.25,0.04 1.45,1.45 1.42,3.79 -0.04,5.25 -3.69,3.62 -6.77,7.73 -9.22,12.2 -2.45,4.47 -4.22,9.29 -5.28,14.33l0 0.04z"/>
  <path class="fil2" d="M33.2 97.4c-0.1,5.17 -0.45,10.2 -1.07,15.11l-2.25 -0.5c0.71,-5.05 1.07,-11.16 1.07,-18.35l0 -2.9 9.9 2.18c2.05,0.45 3.07,1.71 3.07,3.77 -0.02,2.03 -0.99,2.83 -2.93,2.4l-7.79 -1.72zm0.05 -4.2l0 0.97c0,0.38 0,0.77 0,1.16l7.6 1.68c0.47,0.1 0.7,-0.18 0.7,-0.83 0,-0.76 -0.24,-1.2 -0.73,-1.3l-7.58 -1.67zm2.71 6.27l0 3.52c0,0.38 0.09,0.62 0.27,0.73l1.31 0.29 0 -4.91 2.3 0.51 0 4.91 1.31 0.29c0.23,0.05 0.34,-0.07 0.34,-0.37l0 -3.69 2.23 0.49 0 4.14c-0.11,1.41 -0.84,1.97 -2.18,1.68l-1.69 -0.37 0 5.11 1.64 0.36c0.24,0.05 0.36,-0.07 0.36,-0.37l0 -3.91 2.23 0.49 0 4.36c-0.13,1.43 -0.85,1.99 -2.18,1.7l-6.63 -1.46c-0.92,-0.4 -1.48,-1.2 -1.67,-2.38l0 -4.51 2.03 0.45 0 3.67c0,0.39 0.09,0.64 0.27,0.73l1.64 0.36 0 -5.11 -1.91 -0.42c-0.93,-0.39 -1.51,-1.18 -1.72,-2.39l0 -4.34 2.06 0.45zm-12.39 -6.63l2.18 0.48 0 -4.06 2.25 0.5 0 4.06 2.25 0.5 0 2.4 -2.25 -0.5 0 9.94c0.59,0.05 1.19,0.09 1.79,0.12l0 2.38c-1.66,-0.07 -3.73,-0.31 -6.2,-0.72l0 -2.4c0.69,0.14 1.41,0.26 2.16,0.37l0 -10.19 -2.18 -0.48 0 -2.4zm25.17 9.95l9.03 0.81 0 -3.72 -8.3 -0.74 0 -2.31 8.3 0.74 0 -2.88 2.44 0.22 0 2.88 8.42 0.75 0 2.31 -8.42 -0.75 0 3.72 9.09 0.81 0 2.35 -4.99 -0.45c0.78,3.53 2.49,6.08 5.14,7.67l0 2.95c-3.88,-2.1 -6.36,-5.71 -7.43,-10.83l-1.8 -0.16 0 11.06 -2.44 -0.22 0 -11.06 -1.78 -0.16c-0.3,2.7 -1.05,4.72 -2.27,6.07 -1.42,1.67 -3.1,2.84 -5.06,3.49l0 -2.77c2.96,-1.44 4.63,-3.76 5.01,-6.99l-4.94 -0.44 0 -2.35zm39.61 -6.46c3.24,-0.05 4.88,2.06 4.91,6.33 0,1.21 0,2.27 0,3.2l1.71 -0.17 0 2.36 -8.49 0.83c2.09,2.82 4.9,4.26 8.44,4.33l0 2.72c-4.95,-0.5 -8.45,-2.51 -10.51,-6.01 -0.72,1.36 -1.78,2.64 -3.18,3.83 -2.56,2.1 -5.01,3.53 -7.35,4.27l0 -2.55c4.08,-1.71 6.81,-3.76 8.19,-6.16l-8.19 0.8 0 -2.36 2.22 -0.22 0 -10.01 7.03 -0.69 0.03 -2.16 2.39 -0.23 0 2.16 2.81 -0.28zm-9.91 10.99l4.54 -0.45c0.07,-0.37 0.11,-0.73 0.15,-1.08l0 -6.64 -4.69 0.46 0 7.71zm7.1 -8.4l0 6.72c0,0.33 -0.02,0.66 -0.07,1l5.43 -0.53c0.03,-0.91 0.05,-1.83 0.05,-2.75 0,-3.12 -0.86,-4.69 -2.59,-4.7l-2.81 0.28zm14.03 -4.47l7.83 -1.69c0.31,-0.58 0.58,-1.17 0.82,-1.79l2.5 -0.54c-0.18,0.6 -0.38,1.18 -0.61,1.74l9.08 -1.96 0 2.31 -4.94 1.07c1.57,1.28 3.4,1.94 5.5,1.99l0 2.7c-1.03,-0.07 -1.98,-0.22 -2.86,-0.45l0 1.26 -14.85 3.21 0 -1.07c-0.82,0.46 -1.7,0.9 -2.62,1.33l0 -2.63c2.53,-1.18 4.58,-2.67 6.13,-4.47l-5.99 1.29 0 -2.31zm5.02 5.02l10.52 -2.27c-1.52,-0.7 -2.75,-1.69 -3.7,-3l-2.62 0.57c-1.07,1.77 -2.46,3.33 -4.19,4.7zm-5.45 5.79l20.47 -4.42 0 2.35 -8.77 1.89c0.08,0.74 0.15,1.59 0.22,2.53 0,1.24 -0.09,2.08 -0.27,2.54 -0.24,1.35 -1.25,2.32 -3.03,2.88 -1.39,0.3 -2.54,0.5 -3.44,0.59l0 -2.31c0.92,-0.07 1.81,-0.19 2.66,-0.38 1.1,-0.24 1.67,-0.96 1.72,-2.16 -0.03,-1.15 -0.1,-2.22 -0.21,-3.2l-9.35 2.02 0 -2.35zm3.1 2.55l2.15 -0.47c-0.08,3.01 -1.56,5.34 -4.43,7.01l0 -2.38c1.52,-1.09 2.28,-2.48 2.28,-4.16zm12.16 -2.55l2.23 -0.48c0.1,1.22 0.85,2.08 2.25,2.59l0 2.75c-2.46,-0.62 -3.95,-2.24 -4.48,-4.86z"/>
 </g>
</svg>
