<?xml version="1.0" encoding="UTF-8"?>
<!DOCTYPE svg PUBLIC "-//W3C//DTD SVG 1.1//EN" "http://www.w3.org/Graphics/SVG/1.1/DTD/svg11.dtd">
<!-- Creator: CorelDRAW 2021.5 -->
<svg xmlns="http://www.w3.org/2000/svg" xml:space="preserve" width="100%" height="100%" version="1.1" style="shape-rendering:geometricPrecision; text-rendering:geometricPrecision; image-rendering:optimizeQuality; fill-rule:evenodd; clip-rule:evenodd"
viewBox="0 0 216.12 216.12"
 xmlns:xlink="http://www.w3.org/1999/xlink"
 xmlns:xodm="http://www.corel.com/coreldraw/odm/2003">
 <defs>
  <style type="text/css">
   <![CDATA[
    .fil0 {fill:none;fill-rule:nonzero}
    .fil1 {fill:#8C2898;fill-rule:nonzero}
    .fil2 {fill:white;fill-rule:nonzero}
   ]]>
  </style>
   <clipPath id="id0" style="clip-rule:nonzero">
    <path d="M3.94 114.4c69.45,29.72 138.84,31.53 208.29,0.16 0.16,-2.18 0.21,-4.31 0.21,-6.5 0,-28.81 -11.66,-54.91 -30.57,-73.76 -18.91,-18.91 -44.95,-30.57 -73.76,-30.57 -28.81,0 -54.91,11.66 -73.76,30.57 -18.91,18.91 -30.57,44.95 -30.57,73.76 0,2.13 0.05,4.26 0.21,6.39l-0.05 -0.05z"/>
   </clipPath>
    <clipPath id="id1">
     <path d="M27.37 123.35c52.2,17.57 104.38,19.04 156.58,2.15l0 -89.07c-0.68,-0.72 -1.38,-1.43 -2.08,-2.14 -18.91,-18.91 -44.95,-30.57 -73.76,-30.57 -28.81,0 -54.91,11.66 -73.76,30.57 -2.45,2.45 -4.78,5.03 -6.98,7.71l0 81.35z"/>
    </clipPath>
    <clipPath id="id2">
     <path d="M3.94 114.4c69.45,29.72 138.84,31.53 208.29,0.16 0.16,-2.18 0.21,-4.31 0.21,-6.5 0,-28.81 -11.66,-54.91 -30.57,-73.76 -18.91,-18.91 -44.95,-30.57 -73.76,-30.57 -28.81,0 -54.91,11.66 -73.76,30.57 -18.91,18.91 -30.57,44.95 -30.57,73.76 0,2.13 0.05,4.26 0.21,6.39l-0.05 -0.05z"/>
    </clipPath>
 </defs>
 <g id="Layer_x0020_1">
  <metadata id="CorelCorpID_0Corel-Layer"/>
  <g>
  </g>
  <g style="clip-path:url(#id0)">
   <g id="_1788431133680">
   </g>
   <g style="clip-path:url(#id1)">
    <image x="27.37" y="-15.31" width="156.58" height="209.18" xlink:href="https://ik.imagekit.io/moearchive/calendar/grad/itoukarin.png"/>
   </g>
   <g style="clip-path:url(#id2)">
   </g>
  </g>
  <path class="fil0" d="M3.94 114.4c69.45,29.72 138.84,31.53 208.29,0.16 0.16,-2.18 0.21,-4.31 0.21,-6.5 0,-28.81 -11.66,-54.91 -30.57,-73.76 -18.91,-18.91 -44.95,-30.57 -73.76,-30.57 -28.81,0 -54.91,11.66 -73.76,30.57 -18.91,18.91 -30.57,44.95 -30.57,73.76 0,2.13 0.05,4.26 0.21,6.39l-0.05 -0.05z"/>
  <path class="fil1" d="M64.18 43.25c-2.56,1.7 -6.02,1.06 -7.72,-1.49 -1.7,-2.56 -1.06,-6.02 1.49,-7.72 1.17,-0.8 2.45,-1.6 3.73,-2.4 1.54,-0.96 2.82,-1.7 3.78,-2.24 2.72,-1.49 6.12,-0.48 7.56,2.24 1.49,2.72 0.48,6.12 -2.24,7.56 -1.44,0.8 -2.56,1.44 -3.36,1.92 -1.06,0.64 -2.18,1.33 -3.25,2.08l0 0.05zm43.88 -43.25c29.82,0 56.88,12.09 76.42,31.64 19.55,19.55 31.64,46.6 31.64,76.42 0,29.82 -12.09,56.88 -31.64,76.42 -19.55,19.55 -46.6,31.64 -76.42,31.64 -29.82,0 -56.88,-12.09 -76.42,-31.64 -19.55,-19.55 -31.64,-46.6 -31.64,-76.42 0,-29.82 12.09,-56.88 31.64,-76.42 19.55,-19.55 46.6,-31.64 76.42,-31.64zm-104.12 114.4c69.45,29.72 138.84,31.53 208.29,0.16 0.16,-2.18 0.21,-4.31 0.21,-6.5 0,-28.81 -11.66,-54.91 -30.57,-73.76 -18.91,-18.91 -44.95,-30.57 -73.76,-30.57 -28.81,0 -54.91,11.66 -73.76,30.57 -18.91,18.91 -30.57,44.95 -30.57,73.76 0,2.13 0.05,4.26 0.21,6.39l-0.05 -0.05zm27.53 -22.31c-0.64,3.04 -3.57,4.95 -6.6,4.31 -3.04,-0.64 -4.95,-3.57 -4.31,-6.6 1.81,-8.63 4.85,-16.94 9.05,-24.61 4.21,-7.67 9.53,-14.75 15.82,-20.93 2.18,-2.18 5.75,-2.13 7.88,0.05 2.18,2.18 2.13,5.7 -0.05,7.88 -5.54,5.43 -10.17,11.61 -13.85,18.32 -3.67,6.71 -6.34,13.95 -7.94,21.52l0 0.05z"/>
  <path class="fil2" d="M37.83 134.24l10.91 2.58c2.87,0.83 5.11,2.53 6.7,5.09 1.28,1.87 2.08,4.03 2.42,6.49l1.67 0.4 0 3.35 -1.59 -0.38c-0.24,2.42 -1.08,4.24 -2.5,5.44 -1.79,1.61 -4.23,2.15 -7.32,1.61l-0.94 -0.22c-1.28,5.11 -4.85,7.91 -10.69,8.41l-0.04 -3.88c3.77,-0.25 6.16,-2.04 7.17,-5.38l-5.94 -1.41 0 -3.42 6.52 1.54c0.02,-0.34 0.04,-0.67 0.04,-0.99l0 -4.95 -8.26 -1.96 0 -3.35 8.26 1.96 0 -5.88 -6.41 -1.52 0 -3.54zm9.89 5.88l0 5.88 6.55 1.55c-0.19,-1.36 -0.64,-2.57 -1.34,-3.63 -0.99,-1.75 -2.47,-2.96 -4.45,-3.62l-0.76 -0.18zm0 9.23l0 5.55c-0.02,0.14 -0.04,0.28 -0.04,0.4l0.36 0.08c2.13,0.28 3.72,-0.2 4.79,-1.43 0.77,-0.74 1.26,-1.75 1.45,-3.04l-6.55 -1.55zm-16.67 -4.66c-1.06,1.09 -2.22,1.98 -3.47,2.68l0 -4.77c2.51,-2.13 4.41,-5.48 5.69,-10.04l3.55 0.84c-0.61,2.26 -1.34,4.29 -2.21,6.06l0 26.73 -3.55 -0.84 0 -20.66zm34.59 -2.96l7.17 0.85 0 -1.64 3.66 0.43 0 1.64 9.68 1.15 0 -1.82 3.66 0.43 0 1.82 6.99 0.83 0 3.28 -6.99 -0.83 0 1.6 -3.66 -0.43 0 -1.6 -9.68 -1.15 0 1.6 -3.66 -0.43 0 -1.6 -7.17 -0.85 0 -3.28zm6.51 6.43c2.09,0.52 3.22,1.78 3.4,3.79 0.39,2.16 0.59,5.43 0.59,9.82 0,3.65 -0.04,6.28 -0.14,7.91 0,2.76 -1.01,4.06 -3.03,3.92 -0.88,-0.16 -1.79,-0.31 -2.69,-0.47l0 -3.13c0.66,0.16 1.32,0.27 1.96,0.35 0.47,-0.05 0.71,-0.41 0.74,-1.11 0.05,-1.43 0.09,-2.82 0.11,-4.15l-3.58 -0.42c-0.18,4.15 -0.45,6.97 -0.81,8.47l-3.07 -0.36c0.64,-3.35 1,-8.24 1.07,-14.66l0 -10.6 5.48 0.65zm-2.56 13.43l3.48 0.41c0,-0.13 0,-0.25 0,-0.37 0,-1.24 -0.01,-2.41 -0.04,-3.5l-3.4 -0.4 0 0.71c-0.03,1.09 -0.04,2.14 -0.04,3.16zm0.04 -7l3.26 0.39c-0.05,-0.97 -0.13,-1.93 -0.22,-2.85 0,-0.62 -0.41,-1.03 -1.22,-1.23l-1.81 -0.21 0 3.91zm9.5 -4.98l3.22 0.38c0.25,0.85 0.45,1.68 0.62,2.49l2 0.24c0.27,-0.91 0.45,-1.87 0.55,-2.88l3.03 0.36c-0.1,1.03 -0.26,2 -0.48,2.89l2.18 0.26c0.39,-0.82 0.71,-1.62 0.96,-2.42l3.26 0.39c-0.32,0.9 -0.66,1.71 -1,2.41l2.59 0.31 0 2.87 -5.25 -0.62c0.27,0.76 0.59,1.46 0.97,2.13l5.1 0.6 0 3.01 -2.77 -0.33c0.86,0.95 1.86,1.81 3,2.59l-0.04 3.38c-0.81,-0.47 -1.58,-0.97 -2.3,-1.5l0 1.23c-1.31,-0.1 -2.94,-0.18 -4.92,-0.21l0 -2.68c0.98,-0.04 1.99,-0.04 3,-0.02 -0.97,-0.96 -1.81,-2.04 -2.56,-3.24l-6.09 -0.72c-1.02,1.05 -2.2,1.94 -3.55,2.67 1.53,0.23 2.75,0.43 3.66,0.62l0 2.6c-1.23,-0.25 -3.13,-0.54 -5.69,-0.9l0 -1.38c-0.42,0.17 -0.85,0.32 -1.29,0.44l0 -3.09c0.96,-0.41 1.85,-0.9 2.66,-1.48l-2.56 -0.3 0 -3.01 5.36 0.63c0.42,-0.57 0.81,-1.19 1.19,-1.87l-6.25 -0.74 0 -2.87 2.15 0.25c-0.2,-0.79 -0.44,-1.63 -0.74,-2.51zm9.5 8.42c-0.32,-0.66 -0.59,-1.36 -0.81,-2.11l-0.59 -0.07c-0.27,0.69 -0.59,1.32 -0.96,1.9l2.37 0.28zm-3.22 9.15c-0.03,-1.69 -0.04,-3.44 -0.04,-5.26l3.33 0.39c0.02,1.67 0.03,3.45 0.03,5.37 2.52,1.31 5.24,2.46 8.17,3.43l0 3.02c-2.95,-0.75 -5.68,-1.78 -8.17,-3.09 -0.07,1.18 -0.35,2.12 -0.85,2.84 -0.77,0.86 -1.62,1.24 -2.56,1.15l-3.96 -0.47 0 -3.05 2.7 0.32c0.89,0.1 1.33,-0.28 1.33,-1.15 0,-0.12 0,-0.25 0,-0.37 -1.87,0.3 -4.52,0.51 -7.95,0.62l0 -3.24c2.79,-0.06 5.44,-0.24 7.95,-0.51zm46.33 -5.22l-4.16 0.23c-0.57,-3.87 -2.7,-8.44 -6.39,-13.72l4.31 -0.24c3.05,4.35 5.13,8.92 6.25,13.73zm-9.29 1.96c0,3.55 -0.37,6.16 -1.12,7.85 -1.19,2.5 -3.39,3.84 -6.62,4.01 -1.01,0.06 -2.91,0.12 -5.68,0.2l0 -3.61c2.77,-0.05 4.67,-0.11 5.68,-0.17 1.99,-0.11 3.23,-1.08 3.76,-2.92 0.25,-0.81 0.37,-2.53 0.37,-5.16 0,-4.07 -0.34,-6.67 -1.01,-7.8 -0.72,-1.13 -2.35,-1.62 -4.9,-1.48l-1 0.06c-1.39,7.38 -3.45,14.51 -6.17,21.42l-4.16 0.23c2.82,-7.01 4.95,-14.15 6.39,-21.43l-6.65 0.37 0 -3.57 7.36 -0.41c0.35,-2.26 0.68,-4.64 1,-7.17l3.86 -0.21c-0.29,2.52 -0.6,4.91 -0.93,7.16l0.3 -0.02c4.04,-0.22 6.71,0.79 8.03,3.05 0.99,1.73 1.48,4.93 1.48,9.59zm35.88 -9.89c0,10.45 -5.63,16.57 -16.91,18.36l-2.17 0.34 0 -3.8 2.17 -0.34c4.86,-0.77 8.26,-2.29 10.22,-4.56 1.89,-2.14 2.83,-5.26 2.83,-9.38 0,-3.7 -0.5,-6.39 -1.51,-8.07 -0.93,-1.61 -2.22,-2.29 -3.86,-2.03 -2.87,0.46 -5.42,2.6 -7.65,6.43 -2.25,3.98 -3.47,8.59 -3.64,13.83l-3.71 0.59c0,-9.24 0.18,-16.55 0.55,-21.94l3.75 -0.6c-0.18,2.02 -0.3,4.39 -0.37,7.13 2.99,-5.44 6.68,-8.5 11.07,-9.2 3.21,-0.51 5.6,0.61 7.17,3.36 1.38,2.39 2.06,5.68 2.06,9.88zm31.21 -4.1c-0.99,8.55 -3.63,13.34 -7.93,14.36 -2.29,0.55 -3.88,-0.1 -4.75,-1.92 -0.55,-1.13 -0.93,-3.09 -1.12,-5.88 -0.07,-1.52 -0.23,-2.54 -0.47,-3.05 -0.44,-0.96 -1.22,-1.31 -2.36,-1.04 -1.79,0.43 -3.44,2.07 -4.96,4.95 -1.16,2.26 -2.05,4.88 -2.68,7.86 -0.17,0.61 -0.4,1.64 -0.69,3.1l-3.8 0.91c2.17,-9.43 5.56,-20.37 10.17,-32.84l4.34 -1.04c-2,4.7 -3.81,9.64 -5.43,14.84 0.99,-0.73 2.07,-1.24 3.26,-1.52 2.1,-0.5 3.65,-0.29 4.63,0.65 0.89,0.83 1.4,2.3 1.52,4.4 0.27,3.13 0.42,4.82 0.47,5.06 0.27,1.4 0.88,1.99 1.85,1.76 2.08,-0.49 3.5,-3.74 4.27,-9.73l3.66 -0.87z"/>
 </g>
</svg>
