<?xml version="1.0" encoding="UTF-8"?>
<!DOCTYPE svg PUBLIC "-//W3C//DTD SVG 1.1//EN" "http://www.w3.org/Graphics/SVG/1.1/DTD/svg11.dtd">
<!-- Creator: CorelDRAW 2021.5 -->
<svg xmlns="http://www.w3.org/2000/svg" xml:space="preserve" width="100%" height="100%" version="1.1" style="shape-rendering:geometricPrecision; text-rendering:geometricPrecision; image-rendering:optimizeQuality; fill-rule:evenodd; clip-rule:evenodd"
viewBox="0 0 157.01 157.01"
 xmlns:xlink="http://www.w3.org/1999/xlink"
 xmlns:xodm="http://www.corel.com/coreldraw/odm/2003">
 <defs>
  <style type="text/css">
   <![CDATA[
    .fil0 {fill:none;fill-rule:nonzero}
    .fil1 {fill:#8C2898;fill-rule:nonzero}
    .fil2 {fill:white;fill-rule:nonzero}
   ]]>
  </style>
   <clipPath id="id0" style="clip-rule:nonzero">
    <path d="M2.86 83.11c50.45,21.59 100.87,22.91 151.32,0.12 0.12,-1.59 0.15,-3.13 0.15,-4.72 0,-20.93 -8.47,-39.89 -22.21,-53.59 -13.74,-13.74 -32.66,-22.21 -53.59,-22.21 -20.93,0 -39.89,8.47 -53.59,22.21 -13.74,13.74 -22.21,32.66 -22.21,53.59 0,1.55 0.04,3.1 0.15,4.64l-0.04 -0.04z"/>
   </clipPath>
    <clipPath id="id1">
     <path d="M19.88 89.62c37.93,12.77 75.83,13.83 113.76,1.56l0 -64.71c-0.5,-0.52 -1,-1.04 -1.51,-1.55 -13.74,-13.74 -32.66,-22.21 -53.59,-22.21 -20.93,0 -39.89,8.47 -53.59,22.21 -1.78,1.78 -3.47,3.65 -5.07,5.6l0 59.1z"/>
    </clipPath>
    <clipPath id="id2">
     <path d="M2.86 83.11c50.45,21.59 100.87,22.91 151.32,0.12 0.12,-1.59 0.15,-3.13 0.15,-4.72 0,-20.93 -8.47,-39.89 -22.21,-53.59 -13.74,-13.74 -32.66,-22.21 -53.59,-22.21 -20.93,0 -39.89,8.47 -53.59,22.21 -13.74,13.74 -22.21,32.66 -22.21,53.59 0,1.55 0.04,3.1 0.15,4.64l-0.04 -0.04z"/>
    </clipPath>
 </defs>
 <g id="Layer_x0020_1">
  <metadata id="CorelCorpID_0Corel-Layer"/>
  <g>
  </g>
  <g style="clip-path:url(#id0)">
   <g id="_1788429887488">
   </g>
   <g style="clip-path:url(#id1)">
    <image x="19.88" y="-11.12" width="113.76" height="151.97" xlink:href="https://ik.imagekit.io/moearchive/calendar/nogi28/kitanohinako.png"/>
   </g>
   <g style="clip-path:url(#id2)">
   </g>
  </g>
  <path class="fil0" d="M2.86 83.11c50.45,21.59 100.87,22.91 151.32,0.12 0.12,-1.59 0.15,-3.13 0.15,-4.72 0,-20.93 -8.47,-39.89 -22.21,-53.59 -13.74,-13.74 -32.66,-22.21 -53.59,-22.21 -20.93,0 -39.89,8.47 -53.59,22.21 -13.74,13.74 -22.21,32.66 -22.21,53.59 0,1.55 0.04,3.1 0.15,4.64l-0.04 -0.04z"/>
  <path class="fil1" d="M46.62 31.42c-1.86,1.24 -4.37,0.77 -5.61,-1.08 -1.24,-1.86 -0.77,-4.37 1.08,-5.61 0.85,-0.58 1.78,-1.16 2.71,-1.74 1.12,-0.7 2.05,-1.24 2.75,-1.63 1.97,-1.08 4.45,-0.35 5.49,1.63 1.08,1.97 0.35,4.45 -1.63,5.49 -1.04,0.58 -1.86,1.04 -2.44,1.39 -0.77,0.46 -1.59,0.97 -2.36,1.51l0 0.04zm31.88 -31.42c21.67,0 41.32,8.78 55.52,22.98 14.2,14.2 22.98,33.86 22.98,55.52 0,21.67 -8.78,41.32 -22.98,55.52 -14.2,14.2 -33.86,22.98 -55.52,22.98 -21.67,0 -41.32,-8.78 -55.52,-22.98 -14.2,-14.2 -22.98,-33.86 -22.98,-55.52 0,-21.67 8.78,-41.32 22.98,-55.52 14.2,-14.2 33.86,-22.98 55.52,-22.98zm-75.64 83.11c50.45,21.59 100.87,22.91 151.32,0.12 0.12,-1.59 0.15,-3.13 0.15,-4.72 0,-20.93 -8.47,-39.89 -22.21,-53.59 -13.74,-13.74 -32.66,-22.21 -53.59,-22.21 -20.93,0 -39.89,8.47 -53.59,22.21 -13.74,13.74 -22.21,32.66 -22.21,53.59 0,1.55 0.04,3.1 0.15,4.64l-0.04 -0.04zm20 -16.21c-0.46,2.21 -2.59,3.6 -4.8,3.13 -2.21,-0.46 -3.6,-2.59 -3.13,-4.8 1.32,-6.27 3.52,-12.3 6.58,-17.88 3.06,-5.57 6.93,-10.72 11.49,-15.21 1.59,-1.59 4.18,-1.55 5.73,0.04 1.59,1.59 1.55,4.14 -0.04,5.73 -4.02,3.95 -7.39,8.43 -10.06,13.31 -2.67,4.88 -4.6,10.14 -5.77,15.63l0 0.04z"/>
  <path class="fil2" d="M19.49 95.07l2.56 0.67 0 23.48 -2.56 -0.67 0 -2.3c-1.59,-0 -3.92,-0.19 -6.99,-0.56l0 -2.62c2.48,0.29 4.81,0.46 6.99,0.51l0 -9.33 -7.06 -1.85 0 -2.65 7.06 1.85 0 -6.52zm14.89 9.96l0 2.57c-2.01,-0.09 -4.4,-0.38 -7.17,-0.85 0,0.12 0,0.25 0,0.38 0,4 0.07,6.99 0.21,8.98 0.16,1.29 0.88,2.1 2.17,2.44 2.25,0.59 3.84,0.87 4.79,0.85l0 2.76c-1.24,-0.16 -3.02,-0.55 -5.34,-1.15 -2.48,-0.69 -3.88,-2.46 -4.19,-5.32 -0.16,-2.31 -0.24,-5.32 -0.24,-9.01 0.05,-3.81 0.18,-7.21 0.39,-10.2l2.59 0.68c-0.14,2.33 -0.24,4.69 -0.31,7.09 2.32,0.34 4.68,0.61 7.09,0.8zm7.33 3.45l0 3.35 1.71 0.27 0 -3.35 -1.71 -0.27zm1.71 5.92l-4.06 -0.64 0 -13.28 5.34 0.84c3.47,0.55 5.24,3.01 5.29,7.4 0,4.11 -1.4,6.12 -4.22,6.02l0 1.89 4.17 0.66 0 2.43 -4.17 -0.66 0 2.87c1.39,0.13 2.81,0.24 4.25,0.35l0 2.62c-2.97,-0.23 -6.67,-0.64 -11.09,-1.23l0 -2.6c1.46,0.21 2.96,0.41 4.49,0.6l0 -2.98 -4.28 -0.67 0 -2.43 4.28 0.67 0 -1.86zm2.35 -2.09c1.13,-0.22 1.77,-1.18 1.95,-2.88l-1.95 -0.31 0 3.19zm1.95 -5.05c-0.21,-1.71 -0.86,-2.83 -1.95,-3.36l0 3.06 1.95 0.31zm-4.3 -3.9l-1.71 -0.27 0 3.22 1.71 0.27 0 -3.22zm16.11 0.32c1.18,0.35 1.81,1.09 1.9,2.22 0,1.35 -0.52,2.35 -1.55,2.98 -1.07,0.77 -1.97,1.35 -2.72,1.74 0.3,0.5 0.56,1.03 0.78,1.58l2.29 0.36c1.41,0.38 2.11,1.41 2.11,3.09 -0.09,2.11 -1.37,3.32 -3.84,3.61l-0.03 -2.6c0.93,-0.25 1.39,-0.66 1.39,-1.24 0,-0.35 -0.13,-0.54 -0.4,-0.58l-1.92 -0.3c0.12,1.92 0.19,4.42 0.19,7.52 0,1.66 -0.31,2.85 -0.91,3.56 -0.66,0.76 -1.56,1.05 -2.7,0.87l-2.86 -0.45 0 -2.49 2.4 0.38c1.08,0.17 1.63,-0.56 1.63,-2.2 0,-3.08 -0.08,-5.61 -0.24,-7.58l-4.46 -0.7 0 -2.41 4.54 0.72c-0.98,-1.54 -2.39,-2.68 -4.24,-3.4l0 -2.24c1.89,0.55 3.43,1.38 4.62,2.51 2.02,-1.09 3.02,-1.86 3.02,-2.31 0,-0.3 -0.11,-0.48 -0.35,-0.52l-7.93 -1.25 0 -2.33 9.3 1.46zm21.14 0.89c4.35,0.43 6.62,3.9 6.82,10.39 0,2.07 -0.02,3.67 -0.06,4.79 -0.16,2.31 -0.8,4.11 -1.92,5.42 -1.37,1.61 -2.87,2.43 -4.49,2.44l-11.38 0.09 0 -23.04 11.03 -0.08zm-8.3 20.35l8.17 -0.06c1.06,-0.01 1.99,-0.46 2.78,-1.37 0.71,-0.76 1.11,-1.97 1.22,-3.63 0.09,-0.61 0.14,-1.47 0.16,-2.57l-12.36 0.09 0.03 7.54zm-0.03 -10.2l12.39 -0.09c-0.22,-4.54 -1.77,-7.02 -4.65,-7.43l-7.74 0.06 0 7.46zm22.34 -9.66l8.63 -1.37c0.34,-0.61 0.64,-1.25 0.91,-1.9l2.75 -0.44c-0.2,0.64 -0.42,1.26 -0.67,1.86l10.02 -1.59 0 2.52 -5.45 0.87c1.73,1.49 3.75,2.33 6.06,2.5l0 2.95c-1.14,-0.14 -2.19,-0.36 -3.15,-0.66l0 1.38 -16.38 2.6 0 -1.16c-0.91,0.45 -1.87,0.88 -2.89,1.3l0 -2.87c2.79,-1.13 5.05,-2.63 6.76,-4.51l-6.6 1.05 0 -2.52zm5.53 5.78l11.59 -1.84c-1.67,-0.85 -3.04,-2.02 -4.08,-3.49l-2.89 0.46c-1.18,1.87 -2.72,3.49 -4.62,4.87zm-6.01 5.98l22.57 -3.58 0 2.57 -9.67 1.53c0.09,0.82 0.17,1.74 0.24,2.78 0,1.35 -0.1,2.27 -0.3,2.75 -0.26,1.46 -1.38,2.45 -3.34,2.96 -1.53,0.24 -2.8,0.39 -3.79,0.44l0 -2.52c1.01,-0.02 1.99,-0.1 2.94,-0.25 1.21,-0.19 1.85,-0.94 1.9,-2.25 -0.04,-1.26 -0.11,-2.42 -0.24,-3.51l-10.31 1.64 0 -2.57zm3.42 2.97l2.37 -0.38c-0.09,3.28 -1.72,5.74 -4.89,7.38l0 -2.59c1.67,-1.1 2.51,-2.56 2.51,-4.41zm13.41 -2.05l2.46 -0.39c0.11,1.33 0.93,2.32 2.48,2.96l0 3c-2.71,-0.83 -4.35,-2.69 -4.94,-5.57zm13.02 -19.02l14.71 -3.7c1.93,-0.36 2.89,0.17 2.89,1.6 0,0.94 -0.51,1.9 -1.52,2.87 -2.2,2.23 -3.59,3.63 -4.15,4.21 0,0.48 0.01,0.99 0.03,1.51l8.08 -2.03 0 2.65 -8.05 2.02c0,1.61 0,3.33 0,5.17 0,3.9 -1.56,6.23 -4.67,7.02 -2.03,0.51 -3.81,0.81 -5.35,0.91l0.02 -2.6c1.4,-0.1 3.03,-0.35 4.88,-0.76 1.61,-0.41 2.45,-1.28 2.52,-2.61 0,-2.31 -0.02,-4.45 -0.05,-6.45l-12.07 3.03 0 -2.65 12.01 -3.02c-0.02,-1.02 -0.04,-1.99 -0.08,-2.9 0.45,-0.39 1.37,-1.27 2.75,-2.67 1.28,-1.29 1.92,-2.04 1.92,-2.24 0,-0.22 -0.06,-0.31 -0.18,-0.28l-13.69 3.44 0 -2.52z"/>
 </g>
</svg>
