<?xml version="1.0" encoding="UTF-8"?>
<!DOCTYPE svg PUBLIC "-//W3C//DTD SVG 1.1//EN" "http://www.w3.org/Graphics/SVG/1.1/DTD/svg11.dtd">
<!-- Creator: CorelDRAW 2021.5 -->
<svg xmlns="http://www.w3.org/2000/svg" xml:space="preserve" width="100%" height="100%" version="1.1" style="shape-rendering:geometricPrecision; text-rendering:geometricPrecision; image-rendering:optimizeQuality; fill-rule:evenodd; clip-rule:evenodd"
viewBox="0 0 114.64 114.64"
 xmlns:xlink="http://www.w3.org/1999/xlink"
 xmlns:xodm="http://www.corel.com/coreldraw/odm/2003">
 <defs>
  <style type="text/css">
   <![CDATA[
    .fil0 {fill:none;fill-rule:nonzero}
    .fil1 {fill:#8C2898;fill-rule:nonzero}
    .fil2 {fill:white;fill-rule:nonzero}
   ]]>
  </style>
   <clipPath id="id0" style="clip-rule:nonzero">
    <path d="M2.09 60.68c36.84,15.76 73.65,16.72 110.49,0.08 0.08,-1.16 0.11,-2.29 0.11,-3.45 0,-15.28 -6.19,-29.13 -16.22,-39.13 -10.03,-10.03 -23.84,-16.22 -39.13,-16.22 -15.28,0 -29.13,6.19 -39.13,16.22 -10.03,10.03 -16.22,23.84 -16.22,39.13 0,1.13 0.03,2.26 0.11,3.39l-0.03 -0.03z"/>
   </clipPath>
    <clipPath id="id1">
     <path d="M14.52 65.44c27.69,9.32 55.37,10.1 83.06,1.14l0 -47.25c-0.36,-0.38 -0.73,-0.76 -1.1,-1.13 -10.03,-10.03 -23.84,-16.22 -39.13,-16.22 -15.28,0 -29.13,6.19 -39.13,16.22 -1.3,1.3 -2.54,2.67 -3.7,4.09l0 43.15z"/>
    </clipPath>
    <clipPath id="id2">
     <path d="M2.09 60.68c36.84,15.76 73.65,16.72 110.49,0.08 0.08,-1.16 0.11,-2.29 0.11,-3.45 0,-15.28 -6.19,-29.13 -16.22,-39.13 -10.03,-10.03 -23.84,-16.22 -39.13,-16.22 -15.28,0 -29.13,6.19 -39.13,16.22 -10.03,10.03 -16.22,23.84 -16.22,39.13 0,1.13 0.03,2.26 0.11,3.39l-0.03 -0.03z"/>
    </clipPath>
 </defs>
 <g id="Layer_x0020_1">
  <metadata id="CorelCorpID_0Corel-Layer"/>
  <g>
  </g>
  <g style="clip-path:url(#id0)">
   <g id="_1787652758928">
   </g>
   <g style="clip-path:url(#id1)">
    <image x="14.52" y="-8.12" width="83.06" height="110.96" xlink:href="https://ik.imagekit.io/moearchive/calendar/grad/sasakikotoko.png"/>
   </g>
   <g style="clip-path:url(#id2)">
   </g>
  </g>
  <path class="fil0" d="M2.09 60.68c36.84,15.76 73.65,16.72 110.49,0.08 0.08,-1.16 0.11,-2.29 0.11,-3.45 0,-15.28 -6.19,-29.13 -16.22,-39.13 -10.03,-10.03 -23.84,-16.22 -39.13,-16.22 -15.28,0 -29.13,6.19 -39.13,16.22 -10.03,10.03 -16.22,23.84 -16.22,39.13 0,1.13 0.03,2.26 0.11,3.39l-0.03 -0.03z"/>
  <path class="fil1" d="M34.04 22.94c-1.36,0.9 -3.19,0.56 -4.1,-0.79 -0.9,-1.36 -0.56,-3.19 0.79,-4.1 0.62,-0.42 1.3,-0.85 1.98,-1.27 0.82,-0.51 1.5,-0.9 2.01,-1.19 1.44,-0.79 3.25,-0.25 4.01,1.19 0.79,1.44 0.25,3.25 -1.19,4.01 -0.76,0.42 -1.36,0.76 -1.78,1.02 -0.56,0.34 -1.16,0.71 -1.72,1.1l0 0.03zm23.28 -22.94c15.82,0 30.17,6.41 40.54,16.78 10.37,10.37 16.78,24.72 16.78,40.54 0,15.82 -6.41,30.17 -16.78,40.54 -10.37,10.37 -24.72,16.78 -40.54,16.78 -15.82,0 -30.17,-6.41 -40.54,-16.78 -10.37,-10.37 -16.78,-24.72 -16.78,-40.54 0,-15.82 6.41,-30.17 16.78,-40.54 10.37,-10.37 24.72,-16.78 40.54,-16.78zm-55.23 60.68c36.84,15.76 73.65,16.72 110.49,0.08 0.08,-1.16 0.11,-2.29 0.11,-3.45 0,-15.28 -6.19,-29.13 -16.22,-39.13 -10.03,-10.03 -23.84,-16.22 -39.13,-16.22 -15.28,0 -29.13,6.19 -39.13,16.22 -10.03,10.03 -16.22,23.84 -16.22,39.13 0,1.13 0.03,2.26 0.11,3.39l-0.03 -0.03zm14.61 -11.84c-0.34,1.61 -1.89,2.63 -3.5,2.29 -1.61,-0.34 -2.63,-1.89 -2.29,-3.5 0.96,-4.58 2.57,-8.98 4.8,-13.05 2.23,-4.07 5.06,-7.83 8.39,-11.1 1.16,-1.16 3.05,-1.13 4.18,0.03 1.16,1.16 1.13,3.02 -0.03,4.18 -2.94,2.88 -5.4,6.16 -7.35,9.72 -1.95,3.56 -3.36,7.4 -4.21,11.41l0 0.03z"/>
  <path class="fil2" d="M13.92 71.19l3.75 0.98c0.09,-0.64 0.14,-1.31 0.15,-2.04l1.93 0.51c-0.04,0.71 -0.1,1.39 -0.19,2.03l5.77 1.51 0 1.91 -6.13 -1.61c-0.32,1.25 -0.76,2.32 -1.32,3.23l7.11 1.86 0 1.91 -4.24 -1.11 0 5.96 4.58 1.2 0 1.94 -11.38 -2.98 0 -1.94 4.87 1.28 0 -5.96 -2.22 -0.58c-0.9,0.88 -2.02,1.49 -3.34,1.81l0 -2.21c1.99,-0.89 3.33,-2.53 4.01,-4.91l-3.35 -0.88 0 -1.91zm-1.87 -2.55l2 0.53c-0.46,1.33 -0.99,2.47 -1.58,3.44l0 13.96 -1.87 -0.49 0 -11.24c-0.63,0.55 -1.3,0.96 -2.03,1.25l0 -2.57c1.43,-0.76 2.59,-2.38 3.48,-4.87zm20.15 16.42c1.83,0.76 3.47,1.55 4.92,2.38 3.56,-1.57 5.47,-4.35 5.72,-8.34 0,-0.34 -0.23,-0.55 -0.69,-0.62l-7.41 -1.17c-1.07,2.94 -3.06,5.05 -5.97,6.33l0 -2.27c2.78,-1.68 4.36,-4.22 4.74,-7.61l1.99 0.33c-0.06,0.48 -0.14,0.94 -0.23,1.39l7.86 1.24c1.12,0.36 1.68,1.06 1.68,2.1 0,4.78 -1.91,8.06 -5.73,9.84 0.86,0.58 1.62,1.18 2.28,1.78l0 2.45c-2.77,-2.43 -5.82,-4.34 -9.15,-5.75l0 -2.07zm16.5 -6.54l7.21 -0.05 0 -2.47 2 -0.01 0 2.47 7.25 -0.05 0 1.88 -3.91 0.03c0.53,4.87 1.88,8.22 4.07,10.06l0 2.72c-3.24,-2.12 -5.24,-6.38 -6.02,-12.77l-1.38 0.01 0 13.37 -2 0.01 0 -13.37 -1.38 0.01c-0.21,3.55 -0.84,6.24 -1.89,8.07 -1.16,2.13 -2.53,3.69 -4.11,4.67l0 -2.51c2.54,-2.31 3.89,-5.72 4.05,-10.22l-3.87 0.03 0 -1.88zm32.57 2.74c0.45,-0.07 0.95,0.09 1.48,0.48 0.96,0.88 1.85,1.58 2.67,2.12l0 2.29c-0.65,-0.23 -1.89,-1.13 -3.72,-2.71 -0.37,-0.34 -0.83,-0.46 -1.4,-0.37l-6.77 1.07c-1.33,2.03 -2.95,3.51 -4.88,4.44l0 -1.89c1.34,-0.78 2.57,-2.12 3.68,-4.02l8.93 -1.42zm-7.8 3.73l7.88 -1.25 0 1.6 -7.88 1.25 0 -1.6zm4.06 -7.93l2.63 -0.42 0 -1 -2.81 0.45 0 -1.56 7.82 -1.24 0 1.56 -3.22 0.51 0 1 2.89 -0.46 0 1.56 -2.89 0.46 0 0.95 3.28 -0.52 0 1.56 -7.9 1.25 0 -1.56 2.83 -0.45 0 -0.95 -2.63 0.42 0 -1.56zm-8.15 1.29l2.73 -0.43 0 -1 -2.99 0.47 0 -1.56 7.59 -1.2 0 1.56 -2.83 0.45 0 1 2.65 -0.42 0 1.56 -2.65 0.42 0 1.01c0.94,-0.2 1.88,-0.42 2.83,-0.66l0 1.64c-2.07,0.53 -4.64,1.08 -7.71,1.66l0 -1.68c1.02,-0.17 2.05,-0.37 3.1,-0.57l0 -1.11 -2.73 0.43 0 -1.56zm12.66 7.67c0.93,-0.07 1.38,0.29 1.38,1.08 0,0.75 -0.97,1.73 -2.91,2.95 -1.88,1.22 -4.56,2.12 -8.02,2.69l0 -1.78c2.26,-0.36 4.07,-0.83 5.42,-1.41 1.53,-0.66 2.35,-1.14 2.46,-1.42 0,-0.14 -0.06,-0.21 -0.19,-0.18l-8.89 1.45 0 -1.68 10.74 -1.71zm8.53 -13.93l10.74 -2.7c1.41,-0.26 2.11,0.13 2.11,1.17 0,0.68 -0.37,1.38 -1.11,2.1 -1.61,1.63 -2.62,2.65 -3.03,3.07 0,0.35 0.01,0.72 0.02,1.1l5.9 -1.48 0 1.93 -5.88 1.48c0,1.17 0,2.43 0,3.77 0,2.84 -1.14,4.55 -3.41,5.12 -1.48,0.37 -2.78,0.59 -3.91,0.66l0.02 -1.9c1.02,-0.07 2.21,-0.26 3.56,-0.56 1.18,-0.3 1.79,-0.93 1.84,-1.91 0,-1.69 -0.01,-3.25 -0.04,-4.71l-8.81 2.21 0 -1.93 8.77 -2.2c-0.01,-0.75 -0.03,-1.46 -0.06,-2.12 0.33,-0.28 1,-0.93 2.01,-1.95 0.93,-0.95 1.4,-1.49 1.4,-1.64 0,-0.16 -0.05,-0.22 -0.13,-0.2l-10 2.51 0 -1.84z"/>
 </g>
</svg>
