<?xml version="1.0" encoding="UTF-8"?>
<!DOCTYPE svg PUBLIC "-//W3C//DTD SVG 1.1//EN" "http://www.w3.org/Graphics/SVG/1.1/DTD/svg11.dtd">
<!-- Creator: CorelDRAW 2021.5 -->
<svg xmlns="http://www.w3.org/2000/svg" xml:space="preserve" width="100%" height="100%" version="1.1" style="shape-rendering:geometricPrecision; text-rendering:geometricPrecision; image-rendering:optimizeQuality; fill-rule:evenodd; clip-rule:evenodd"
viewBox="0 0 247.13 247.13"
 xmlns:xlink="http://www.w3.org/1999/xlink"
 xmlns:xodm="http://www.corel.com/coreldraw/odm/2003">
 <defs>
  <style type="text/css">
   <![CDATA[
    .fil0 {fill:none;fill-rule:nonzero}
    .fil1 {fill:#8C2898;fill-rule:nonzero}
    .fil2 {fill:white;fill-rule:nonzero}
   ]]>
  </style>
   <clipPath id="id0" style="clip-rule:nonzero">
    <path d="M4.51 130.81c79.41,33.98 158.77,36.05 238.18,0.18 0.18,-2.5 0.24,-4.93 0.24,-7.43 0,-32.95 -13.34,-62.79 -34.96,-84.35 -21.62,-21.62 -51.4,-34.96 -84.35,-34.96 -32.95,0 -62.79,13.34 -84.35,34.96 -21.62,21.62 -34.96,51.4 -34.96,84.35 0,2.44 0.06,4.87 0.24,7.31l-0.06 -0.06z"/>
   </clipPath>
    <clipPath id="id1">
     <path d="M31.3 141.05c59.69,20.09 119.36,21.77 179.05,2.46l0 -101.85c-0.78,-0.83 -1.57,-1.64 -2.38,-2.44 -21.62,-21.62 -51.4,-34.96 -84.35,-34.96 -32.95,0 -62.79,13.34 -84.35,34.96 -2.8,2.8 -5.47,5.75 -7.98,8.82l0 93.02z"/>
    </clipPath>
    <clipPath id="id2">
     <path d="M4.51 130.81c79.41,33.98 158.77,36.05 238.18,0.18 0.18,-2.5 0.24,-4.93 0.24,-7.43 0,-32.95 -13.34,-62.79 -34.96,-84.35 -21.62,-21.62 -51.4,-34.96 -84.35,-34.96 -32.95,0 -62.79,13.34 -84.35,34.96 -21.62,21.62 -34.96,51.4 -34.96,84.35 0,2.44 0.06,4.87 0.24,7.31l-0.06 -0.06z"/>
    </clipPath>
 </defs>
 <g id="Layer_x0020_1">
  <metadata id="CorelCorpID_0Corel-Layer"/>
  <g>
  </g>
  <g style="clip-path:url(#id0)">
   <g id="_1788542855712">
   </g>
   <g style="clip-path:url(#id1)">
    <image x="31.3" y="-17.51" width="179.05" height="239.19" xlink:href="https://ik.imagekit.io/moearchive/calendar/nogi28/shinuchimai.png"/>
   </g>
   <g style="clip-path:url(#id2)">
   </g>
  </g>
  <path class="fil0" d="M4.51 130.81c79.41,33.98 158.77,36.05 238.18,0.18 0.18,-2.5 0.24,-4.93 0.24,-7.43 0,-32.95 -13.34,-62.79 -34.96,-84.35 -21.62,-21.62 -51.4,-34.96 -84.35,-34.96 -32.95,0 -62.79,13.34 -84.35,34.96 -21.62,21.62 -34.96,51.4 -34.96,84.35 0,2.44 0.06,4.87 0.24,7.31l-0.06 -0.06z"/>
  <path class="fil1" d="M73.38 49.45c-2.92,1.95 -6.88,1.22 -8.83,-1.71 -1.95,-2.92 -1.22,-6.88 1.71,-8.83 1.34,-0.91 2.8,-1.83 4.26,-2.74 1.77,-1.1 3.23,-1.95 4.32,-2.56 3.11,-1.71 7,-0.55 8.65,2.56 1.71,3.11 0.55,7 -2.56,8.65 -1.64,0.91 -2.92,1.64 -3.84,2.19 -1.22,0.73 -2.5,1.52 -3.72,2.37l0 0.06zm50.18 -49.45c34.1,0 65.04,13.82 87.39,36.17 22.35,22.35 36.17,53.29 36.17,87.39 0,34.1 -13.82,65.04 -36.17,87.39 -22.35,22.35 -53.29,36.17 -87.39,36.17 -34.1,0 -65.04,-13.82 -87.39,-36.17 -22.35,-22.35 -36.17,-53.29 -36.17,-87.39 0,-34.1 13.82,-65.04 36.17,-87.39 22.35,-22.35 53.29,-36.17 87.39,-36.17zm-119.06 130.81c79.41,33.98 158.77,36.05 238.18,0.18 0.18,-2.5 0.24,-4.93 0.24,-7.43 0,-32.95 -13.34,-62.79 -34.96,-84.35 -21.62,-21.62 -51.4,-34.96 -84.35,-34.96 -32.95,0 -62.79,13.34 -84.35,34.96 -21.62,21.62 -34.96,51.4 -34.96,84.35 0,2.44 0.06,4.87 0.24,7.31l-0.06 -0.06zm31.49 -25.52c-0.73,3.47 -4.08,5.66 -7.55,4.93 -3.47,-0.73 -5.66,-4.08 -4.93,-7.55 2.07,-9.87 5.54,-19.37 10.35,-28.14 4.81,-8.77 10.9,-16.87 18.09,-23.93 2.5,-2.5 6.58,-2.44 9.01,0.06 2.5,2.5 2.44,6.52 -0.06,9.01 -6.33,6.21 -11.63,13.28 -15.83,20.95 -4.2,7.67 -7.25,15.96 -9.07,24.6l0 0.06z"/>
  <path class="fil2" d="M48.22 153.84l4.11 0.91 0 2.68 6.31 1.39 0 3.75 -2.04 -0.45c-0.13,2.07 -0.38,3.96 -0.75,5.67l3.07 0.68 0 3.74 -6.94 -1.53 0 2.94 7.15 1.58 0 3.83 -2.54 -0.56c0.25,3.29 0.93,6.19 2.04,8.71l0 6.6c-2.74,-3.64 -4.53,-8.99 -5.36,-16.04l-1.28 -0.28 0 15.62 -3.99 -0.88 0 -15.62 -1.28 -0.28c-0.42,6.52 -2.34,11.01 -5.78,13.45l0.04 -5.86c1.36,-2 2.18,-4.77 2.46,-8.32l-2.58 -0.57 0 -3.83 7.14 1.58 0 -2.94 -6.98 -1.54 0 -3.74 3.04 0.67c-0.23,-1.98 -0.45,-3.98 -0.67,-5.98l-2.04 -0.45 0 -3.75 6.86 1.51 0 -2.68zm-0.5 12.15l4.58 1.01c0.3,-1.89 0.55,-3.78 0.74,-5.67l-5.98 -1.32c0.25,2.01 0.47,4 0.66,5.98zm28.27 -5.47l-0.04 3.91c-3.49,-0.46 -7.47,-1.12 -11.93,-1.99l0 4.9 12.56 2.77 0 3.75 -4.11 -0.91 0 24.48 -3.95 -0.87 0 -24.48 -4.49 -0.99 0 2.3c-0.03,8.62 -0.19,15.93 -0.5,21.94l-3.66 -0.81c0.31,-4.44 0.46,-11.52 0.46,-21.22l0 -15.45c5.87,1.3 11.1,2.2 15.67,2.69zm27.1 2.45l0 3.79 6.32 0.47c4.78,0.98 7.75,3.99 8.91,9.05 0.59,2.06 0.89,4.74 0.89,8.03 0,5.62 -0.21,8.64 -0.64,9.06 -0.65,5.31 -3.55,7.99 -8.7,8.03 -2.49,-0.19 -4.57,-0.44 -6.24,-0.76l0.04 -4.25c1.5,0.4 3.33,0.67 5.48,0.83 3.08,-0.16 4.84,-1.73 5.26,-4.67 0.34,-0.85 0.51,-3.57 0.51,-8.14 0,-3.6 -0.22,-6.29 -0.67,-8.05 -0.57,-2.85 -2.41,-4.58 -5.52,-5.18l-5.64 -0.42c0,0.46 -0.01,0.89 -0.04,1.32 0.96,5.49 4.13,10.73 9.51,15.7l0 4.93c-4.75,-2.99 -8.33,-7.25 -10.74,-12.76 -0.54,1.72 -1.3,3.12 -2.3,4.21 -2.72,3.61 -5.64,6.03 -8.78,7.27l-0.04 -4.68c2.23,-1.34 4.13,-3.35 5.69,-6.05 1.56,-2.41 2.38,-5.82 2.46,-10.25l-10.11 -0.71 0 30.27 -4.25 -0.27 0 -34.35 14.35 1.07 0.04 -3.74 4.2 0.27zm25.86 1.39l4.11 -0.4c-0.03,0.48 -0.06,0.94 -0.09,1.37 10.22,-1.26 19.33,-2.45 27.32,-3.58l0 3.66c-7.31,1.03 -16.42,2.18 -27.32,3.45 0.17,1.03 0.89,1.49 2.16,1.36 16.21,-1.59 24.73,-2.51 25.54,-2.77l0 3.66c-1.84,0.3 -10.99,1.25 -27.45,2.87 -2.94,0 -4.4,-1.54 -4.4,-4.63 0,-1.85 0.04,-3.51 0.12,-5zm3.26 32.84c-2.28,-0.63 -3.53,-2.47 -3.72,-5.55l0 -15.71 4.11 -0.4 0 15.28c0.23,2.06 1.23,2.99 3.01,2.81 13.78,-1.35 22.68,-2.31 26.7,-2.87l0 3.66c-0.96,0.15 -2.42,0.34 -4.37,0.55 0.48,1.46 0.99,2.89 1.53,4.28l-4.58 0.41c-0.42,-1.35 -0.83,-2.74 -1.23,-4.18 -4.32,0.45 -10.01,1.03 -17.07,1.72 -0.51,1.81 -1.06,3.32 -1.66,4.55l-4.74 0.47c0.79,-1.76 1.47,-3.43 2.03,-5.02zm6.62 -14.69l0 1.45 18.51 -1.82c0,-0.09 0,-0.17 0,-0.25 0,-0.43 -0.01,-0.82 -0.04,-1.19l-18.47 1.81zm17.45 -4.65c-0.57,-0.77 -1.33,-1.18 -2.29,-1.23l-15.16 1.49 0 1.45 17.45 -1.71zm-17.45 9.07l0 1.41 15.34 -1.51c1.07,-0.19 1.86,-0.73 2.37,-1.6 0.03,-0.03 0.04,-0.05 0.04,-0.05l-17.75 1.74zm15.97 -13.57c2.14,-0.09 3.78,0.55 4.91,1.94 1.11,1.37 1.66,3.38 1.66,6.05 0,2.53 -0.55,4.5 -1.66,5.91 -1.07,1.5 -2.67,2.41 -4.79,2.73l-20.04 1.97 0 -16.64 19.91 -1.95zm31.07 -17.26l4.29 -0.93 0 3.78 15.89 -3.43 0 4.09 -13.9 3c0.83,2.97 1.83,5.71 3,8.21 2.83,-2.63 5.92,-4.45 9.28,-5.45l0 4.09c-2.44,0.84 -4.97,2.36 -7.58,4.57 2.39,4 5.35,7.19 8.91,9.57l0 5.36c-8.35,-4.33 -14.23,-12.82 -17.64,-25.48l-0.38 0.08c-1.28,3.85 -3.45,7.89 -6.53,12.14 -0.19,2 -0.29,4.42 -0.29,7.26 0,1.93 0.06,3.4 0.17,4.43 0.47,2.09 1.88,2.87 4.24,2.36 4.44,-1.1 8.1,-2.21 10.99,-3.35l0 4.13c-1.75,0.94 -5.55,2.05 -11.4,3.31 -4.52,0.98 -7.14,-0.43 -7.87,-4.22 -0.16,-1.75 -0.25,-3.62 -0.25,-5.61 0,-0.97 0,-1.93 0,-2.89 -2.05,2.34 -4.34,4.71 -6.87,7.1l0 -5.06c6.82,-6.98 11.28,-13.19 13.36,-18.63l-12.98 2.8 0 -4.09 15.56 -3.36 0 -3.78z"/>
 </g>
</svg>
