<?xml version="1.0" encoding="UTF-8"?>
<!DOCTYPE svg PUBLIC "-//W3C//DTD SVG 1.1//EN" "http://www.w3.org/Graphics/SVG/1.1/DTD/svg11.dtd">
<!-- Creator: CorelDRAW 2021.5 -->
<svg xmlns="http://www.w3.org/2000/svg" xml:space="preserve" width="100%" height="100%" version="1.1" style="shape-rendering:geometricPrecision; text-rendering:geometricPrecision; image-rendering:optimizeQuality; fill-rule:evenodd; clip-rule:evenodd"
viewBox="0 0 192.02 192.02"
 xmlns:xlink="http://www.w3.org/1999/xlink"
 xmlns:xodm="http://www.corel.com/coreldraw/odm/2003">
 <defs>
  <style type="text/css">
   <![CDATA[
    .fil0 {fill:none;fill-rule:nonzero}
    .fil1 {fill:#8C2898;fill-rule:nonzero}
    .fil2 {fill:white;fill-rule:nonzero}
   ]]>
  </style>
   <clipPath id="id0" style="clip-rule:nonzero">
    <path d="M3.5 101.64c61.7,26.4 123.36,28.01 185.07,0.14 0.14,-1.94 0.19,-3.83 0.19,-5.77 0,-25.6 -10.36,-48.79 -27.16,-65.54 -16.8,-16.8 -39.94,-27.16 -65.54,-27.16 -25.6,0 -48.79,10.36 -65.54,27.16 -16.8,16.8 -27.16,39.94 -27.16,65.54 0,1.89 0.05,3.79 0.19,5.68l-0.05 -0.05z"/>
   </clipPath>
    <clipPath id="id1">
     <path d="M24.32 109.6c46.38,15.61 92.74,16.91 139.13,1.91l0 -79.14c-0.61,-0.64 -1.22,-1.27 -1.85,-1.9 -16.8,-16.8 -39.94,-27.16 -65.54,-27.16 -25.6,0 -48.79,10.36 -65.54,27.16 -2.18,2.18 -4.25,4.47 -6.2,6.85l0 72.28z"/>
    </clipPath>
    <clipPath id="id2">
     <path d="M3.5 101.64c61.7,26.4 123.36,28.01 185.07,0.14 0.14,-1.94 0.19,-3.83 0.19,-5.77 0,-25.6 -10.36,-48.79 -27.16,-65.54 -16.8,-16.8 -39.94,-27.16 -65.54,-27.16 -25.6,0 -48.79,10.36 -65.54,27.16 -16.8,16.8 -27.16,39.94 -27.16,65.54 0,1.89 0.05,3.79 0.19,5.68l-0.05 -0.05z"/>
    </clipPath>
 </defs>
 <g id="Layer_x0020_1">
  <metadata id="CorelCorpID_0Corel-Layer"/>
  <g>
  </g>
  <g style="clip-path:url(#id0)">
   <g id="_1823096661008">
   </g>
   <g style="clip-path:url(#id1)">
    <image x="24.32" y="-13.6" width="139.12" height="185.85" xlink:href="https://ik.imagekit.io/moearchive/calendar/nogi31/suzukiayane.png"/>
   </g>
   <g style="clip-path:url(#id2)">
   </g>
  </g>
  <path class="fil0" d="M3.5 101.64c61.7,26.4 123.36,28.01 185.07,0.14 0.14,-1.94 0.19,-3.83 0.19,-5.77 0,-25.6 -10.36,-48.79 -27.16,-65.54 -16.8,-16.8 -39.94,-27.16 -65.54,-27.16 -25.6,0 -48.79,10.36 -65.54,27.16 -16.8,16.8 -27.16,39.94 -27.16,65.54 0,1.89 0.05,3.79 0.19,5.68l-0.05 -0.05z"/>
  <path class="fil1" d="M57.02 38.42c-2.27,1.51 -5.35,0.95 -6.86,-1.32 -1.51,-2.27 -0.95,-5.35 1.32,-6.86 1.04,-0.71 2.18,-1.42 3.31,-2.13 1.37,-0.85 2.51,-1.51 3.36,-1.99 2.41,-1.32 5.44,-0.43 6.72,1.99 1.32,2.41 0.43,5.44 -1.99,6.72 -1.28,0.71 -2.27,1.28 -2.98,1.7 -0.95,0.57 -1.94,1.18 -2.89,1.85l0 0.05zm38.99 -38.42c26.5,0 50.54,10.74 67.9,28.11 17.37,17.37 28.11,41.4 28.11,67.9 0,26.5 -10.74,50.54 -28.11,67.9 -17.37,17.37 -41.4,28.11 -67.9,28.11 -26.5,0 -50.54,-10.74 -67.9,-28.11 -17.37,-17.37 -28.11,-41.4 -28.11,-67.9 0,-26.5 10.74,-50.54 28.11,-67.9 17.37,-17.37 41.4,-28.11 67.9,-28.11zm-92.51 101.64c61.7,26.4 123.36,28.01 185.07,0.14 0.14,-1.94 0.19,-3.83 0.19,-5.77 0,-25.6 -10.36,-48.79 -27.16,-65.54 -16.8,-16.8 -39.94,-27.16 -65.54,-27.16 -25.6,0 -48.79,10.36 -65.54,27.16 -16.8,16.8 -27.16,39.94 -27.16,65.54 0,1.89 0.05,3.79 0.19,5.68l-0.05 -0.05zm24.46 -19.83c-0.57,2.7 -3.17,4.4 -5.87,3.83 -2.7,-0.57 -4.4,-3.17 -3.83,-5.87 1.61,-7.67 4.31,-15.05 8.04,-21.86 3.74,-6.81 8.47,-13.11 14.05,-18.6 1.94,-1.94 5.11,-1.89 7,0.05 1.94,1.94 1.89,5.06 -0.05,7 -4.92,4.83 -9.04,10.32 -12.3,16.28 -3.26,5.96 -5.63,12.4 -7.05,19.12l0 0.05z"/>
  <path class="fil2" d="M46.89 133.23c-0.13,0.57 -0.25,1.14 -0.35,1.71l-3.33 -0.73c1.01,-3.48 1.91,-7.56 2.68,-12.24l6.39 1.41c1.87,0.59 3.12,1.64 3.75,3.14 1.1,3.38 2.06,7.14 2.87,11.29l-3.42 -0.76c-0.11,-0.69 -0.2,-1.35 -0.29,-1.98l-8.3 -1.83zm7.72 -1.21c-0.3,-1.5 -0.65,-2.96 -1.04,-4.39 -0.26,-0.76 -0.79,-1.26 -1.62,-1.51l-3.78 -0.83c-0.26,1.82 -0.53,3.53 -0.81,5.14l7.24 1.6zm-10.79 3.28l10.27 2.27c0.88,0.29 1.6,0.73 2.17,1.34 0.67,0.63 1.1,1.36 1.29,2.17 0.22,1.22 0.33,3.28 0.33,6.19 0,1.81 -0.35,3.15 -1.04,4.01 -0.71,0.79 -1.73,1.09 -3.07,0.88 -1.48,-0.33 -2.61,-0.62 -3.39,-0.88l0 -2.94c0.82,0.27 1.76,0.52 2.81,0.75 1.01,0.22 1.56,-0.56 1.65,-2.35 0,-2.12 -0.02,-3.7 -0.07,-4.74 -0.15,-0.83 -0.7,-1.39 -1.65,-1.69l-3.68 -0.81 0 12.6 -2.94 -0.65 0 -12.6 -2.68 -0.59 0 -2.95zm-10.14 -6.34l-0.48 1.51 -2.78 -0.61 3.1 -10.57 4.91 1.08c1.47,0.5 2.49,1.7 3.07,3.59l1.62 8.72 -2.84 -0.63 -0.29 -1.71 -1.48 -0.33 0 3.64 4.52 1 0 2.84 -4.52 -1 0 9.03c1.53,0.29 3.09,0.57 4.68,0.83l0 2.91c-3.12,-0.49 -7.01,-1.19 -11.66,-2.11l0 -3.04c1.38,0.3 2.79,0.59 4.23,0.87l0 -9.09 -4.65 -1.03 0 -2.84 4.65 1.03 0 -3.64 -2.07 -0.46zm5.75 -1.64l-0.45 -2.78c-0.24,-0.84 -0.76,-1.37 -1.55,-1.57l-1.68 -0.37 -1.16 3.65 4.85 1.07zm-7.95 8.8l2.52 0.56c0.2,2.18 0.4,4.51 0.62,6.98l-2.49 -0.55c-0.18,-2.38 -0.39,-4.7 -0.65,-6.99zm8.66 1.91l2.49 0.55c-0.09,2.49 -0.29,4.69 -0.61,6.58l-2.52 -0.56c0.3,-2.25 0.51,-4.44 0.64,-6.57zm24.2 -8.51l12.02 1.08 0 -4.13 3.33 0.3 0 4.13 12.09 1.08 0 3.14 -6.53 -0.58c0.88,8.24 3.14,14.07 6.79,17.51l0 4.56c-5.4,-4.07 -8.75,-11.53 -10.05,-22.36l-2.31 -0.21 0 22.39 -3.33 -0.3 0 -22.39 -2.31 -0.21c-0.35,5.92 -1.41,10.32 -3.16,13.21 -1.93,3.38 -4.22,5.76 -6.85,7.16l0 -4.2c4.24,-3.46 6.49,-8.94 6.75,-16.46l-6.45 -0.58 0 -3.14zm39.07 -2.34l3.72 -0.36 -5.86 8.51 2.08 -0.2 3.32 -4.62 3.69 -0.36 -8.07 11.08 3.1 -0.3c0.55,-0.05 0.82,-0.45 0.82,-1.18l0 -2.41 2.8 -0.27 0 3.51c0,1.7 -0.98,2.7 -2.96,3l-0.66 0.06 0 13 -2.87 0.28 0 -13 -2.2 0.22c-1.4,0.14 -2.11,-0.34 -2.11,-1.45 0,-0.33 0.28,-0.85 0.85,-1.57l2.34 -3.24 -2.47 0.24c-0.94,-0.04 -1.41,-0.54 -1.41,-1.52 0,-0.35 0.16,-0.73 0.49,-1.14l5.4 -8.27zm10.44 -0.92l3.29 -0.32c-0.26,0.77 -0.53,1.51 -0.79,2.22l3.13 -0.31c1.8,-0.18 3.24,0.19 4.31,1.1 0.99,0.85 1.54,1.9 1.65,3.15 0.33,2.64 0.49,5.11 0.49,7.43 0,4.5 -0.13,7.41 -0.39,8.74 -0.16,3.63 -2.29,5.83 -6.42,6.59 -2.48,0.24 -4.57,0.36 -6.29,0.35l0 -3.14c1.21,0.1 3.08,0.03 5.63,-0.22 2.17,-0.21 3.48,-1.4 3.92,-3.56 0.29,-2.5 0.43,-5.21 0.43,-8.14 0,-3.73 -0.1,-6.08 -0.3,-7.05 -0.31,-1.6 -1.44,-2.31 -3.39,-2.12l-4.18 0.41c-0.59,1.2 -1.26,2.29 -2.01,3.24l4.08 -0.4c1.43,-0 2.52,0.65 3.29,1.96 0.77,1.27 1.15,3.15 1.15,5.64 0,2.36 -0.38,4.19 -1.15,5.47 -0.72,1.35 -1.8,2.15 -3.22,2.41l-5.99 0.59 0 -13.6c-0.4,0.35 -0.79,0.68 -1.19,0.98l0 -4.04c1.62,-1.5 2.94,-3.96 3.95,-7.37zm0.03 17.26l0 3.84 2.66 -0.26c0.72,-0.14 1.26,-0.64 1.61,-1.51 0.29,-0.71 0.46,-1.56 0.53,-2.54l-4.8 0.47zm4.71 -3.14c-0.09,-0.79 -0.24,-1.46 -0.47,-2.01 -0.39,-0.96 -0.96,-1.47 -1.71,-1.55l-2.53 0.25 0 3.77 4.71 -0.46zm-19.66 4.87l2.57 -0.25c-0.06,5.52 -1.28,9.37 -3.65,11.54l0 -3.91c0.72,-1.61 1.08,-4.08 1.08,-7.38zm7.57 -0.78l2.47 -0.24c0.02,2.49 0.34,4.53 0.95,6.13l0 5.13c-1.87,-2.07 -3.01,-5.73 -3.42,-11.01zm26.11 -18.31l11.04 -2.29 0 -2.42 3.41 -0.71 0 2.42 11.14 -2.31 0 3.14 -3.47 0.72c-0.3,2.03 -0.62,3.89 -0.97,5.59l5.51 -1.14 0 3.21 -27.95 5.8 0 -3.21 5.73 -1.19c-0.26,-1.53 -0.53,-3.27 -0.81,-5.22l-3.63 0.75 0 -3.14zm7.8 6.91l9.88 -2.05c0.36,-1.88 0.7,-3.75 1,-5.6l-11.72 2.43c0.26,1.82 0.54,3.56 0.84,5.22zm-3.17 13.3l0 2.38 15.45 -3.2c0.91,-0.39 1.5,-1.31 1.78,-2.75l-17.23 3.57zm17.23 -6.29c-0.34,-1.23 -1.13,-1.8 -2.36,-1.72l-14.87 3.08 0 2.21 17.23 -3.57zm-1.19 -4.84c1.49,-0.09 2.63,0.39 3.43,1.44 0.8,1.11 1.19,2.51 1.19,4.18 -0.04,1.9 -0.5,3.54 -1.39,4.92 -0.99,1.51 -2.21,2.44 -3.63,2.81l-18.78 3.9 -0.03 -13.26 19.21 -3.98z"/>
 </g>
</svg>
