<?xml version="1.0" encoding="UTF-8"?>
<!DOCTYPE svg PUBLIC "-//W3C//DTD SVG 1.1//EN" "http://www.w3.org/Graphics/SVG/1.1/DTD/svg11.dtd">
<!-- Creator: CorelDRAW 2021.5 -->
<svg xmlns="http://www.w3.org/2000/svg" xml:space="preserve" width="100%" height="100%" version="1.1" style="shape-rendering:geometricPrecision; text-rendering:geometricPrecision; image-rendering:optimizeQuality; fill-rule:evenodd; clip-rule:evenodd"
viewBox="0 0 247.13 247.13"
 xmlns:xlink="http://www.w3.org/1999/xlink"
 xmlns:xodm="http://www.corel.com/coreldraw/odm/2003">
 <defs>
  <style type="text/css">
   <![CDATA[
    .fil0 {fill:none;fill-rule:nonzero}
    .fil1 {fill:#8C2898;fill-rule:nonzero}
    .fil2 {fill:white;fill-rule:nonzero}
   ]]>
  </style>
   <clipPath id="id0" style="clip-rule:nonzero">
    <path d="M4.51 130.81c79.41,33.98 158.77,36.05 238.18,0.18 0.18,-2.5 0.24,-4.93 0.24,-7.43 0,-32.95 -13.34,-62.79 -34.96,-84.35 -21.62,-21.62 -51.4,-34.96 -84.35,-34.96 -32.95,0 -62.79,13.34 -84.35,34.96 -21.62,21.62 -34.96,51.4 -34.96,84.35 0,2.44 0.06,4.87 0.24,7.31l-0.06 -0.06z"/>
   </clipPath>
    <clipPath id="id1">
     <path d="M31.3 141.05c59.69,20.09 119.36,21.77 179.05,2.46l0 -101.85c-0.78,-0.83 -1.57,-1.64 -2.38,-2.44 -21.62,-21.62 -51.4,-34.96 -84.35,-34.96 -32.95,0 -62.79,13.34 -84.35,34.96 -2.8,2.8 -5.47,5.75 -7.98,8.82l0 93.02z"/>
    </clipPath>
    <clipPath id="id2">
     <path d="M4.51 130.81c79.41,33.98 158.77,36.05 238.18,0.18 0.18,-2.5 0.24,-4.93 0.24,-7.43 0,-32.95 -13.34,-62.79 -34.96,-84.35 -21.62,-21.62 -51.4,-34.96 -84.35,-34.96 -32.95,0 -62.79,13.34 -84.35,34.96 -21.62,21.62 -34.96,51.4 -34.96,84.35 0,2.44 0.06,4.87 0.24,7.31l-0.06 -0.06z"/>
    </clipPath>
 </defs>
 <g id="Layer_x0020_1">
  <metadata id="CorelCorpID_0Corel-Layer"/>
  <g>
  </g>
  <g style="clip-path:url(#id0)">
   <g id="_1788430546848">
   </g>
   <g style="clip-path:url(#id1)">
    <image x="31.3" y="-17.51" width="179.05" height="239.19" xlink:href="https://ik.imagekit.io/moearchive/calendar/nogi28/teradaranze.png"/>
   </g>
   <g style="clip-path:url(#id2)">
   </g>
  </g>
  <path class="fil0" d="M4.51 130.81c79.41,33.98 158.77,36.05 238.18,0.18 0.18,-2.5 0.24,-4.93 0.24,-7.43 0,-32.95 -13.34,-62.79 -34.96,-84.35 -21.62,-21.62 -51.4,-34.96 -84.35,-34.96 -32.95,0 -62.79,13.34 -84.35,34.96 -21.62,21.62 -34.96,51.4 -34.96,84.35 0,2.44 0.06,4.87 0.24,7.31l-0.06 -0.06z"/>
  <path class="fil1" d="M73.38 49.45c-2.92,1.95 -6.88,1.22 -8.83,-1.71 -1.95,-2.92 -1.22,-6.88 1.71,-8.83 1.34,-0.91 2.8,-1.83 4.26,-2.74 1.77,-1.1 3.23,-1.95 4.32,-2.56 3.11,-1.71 7,-0.55 8.65,2.56 1.71,3.11 0.55,7 -2.56,8.65 -1.64,0.91 -2.92,1.64 -3.84,2.19 -1.22,0.73 -2.5,1.52 -3.72,2.37l0 0.06zm50.18 -49.45c34.1,0 65.04,13.82 87.39,36.17 22.35,22.35 36.17,53.29 36.17,87.39 0,34.1 -13.82,65.04 -36.17,87.39 -22.35,22.35 -53.29,36.17 -87.39,36.17 -34.1,0 -65.04,-13.82 -87.39,-36.17 -22.35,-22.35 -36.17,-53.29 -36.17,-87.39 0,-34.1 13.82,-65.04 36.17,-87.39 22.35,-22.35 53.29,-36.17 87.39,-36.17zm-119.06 130.81c79.41,33.98 158.77,36.05 238.18,0.18 0.18,-2.5 0.24,-4.93 0.24,-7.43 0,-32.95 -13.34,-62.79 -34.96,-84.35 -21.62,-21.62 -51.4,-34.96 -84.35,-34.96 -32.95,0 -62.79,13.34 -84.35,34.96 -21.62,21.62 -34.96,51.4 -34.96,84.35 0,2.44 0.06,4.87 0.24,7.31l-0.06 -0.06zm31.49 -25.52c-0.73,3.47 -4.08,5.66 -7.55,4.93 -3.47,-0.73 -5.66,-4.08 -4.93,-7.55 2.07,-9.87 5.54,-19.37 10.35,-28.14 4.81,-8.77 10.9,-16.87 18.09,-23.93 2.5,-2.5 6.58,-2.44 9.01,0.06 2.5,2.5 2.44,6.52 -0.06,9.01 -6.33,6.21 -11.63,13.28 -15.83,20.95 -4.2,7.67 -7.25,15.96 -9.07,24.6l0 0.06z"/>
  <path class="fil2" d="M39.81 164.42l15.63 3.45 0 -4.51 -13.88 -3.06 0 -4 13.88 3.06 0 -3.92 4.11 0.91 0 3.92 14.34 3.17 0 4 -14.34 -3.17 0 4.51 15.63 3.45 0 3.96 -35.37 -7.81 0 -3.96zm0.04 7.84l24.19 5.34c-0.03,-1.2 -0.06,-2.08 -0.09,-2.66l4.16 0.92c0.09,0.64 0.14,1.54 0.17,2.68l6.85 1.51 0 4 -6.78 -1.5c0,0.88 0,1.8 0,2.77 0,3.2 -0.16,5.38 -0.5,6.53 -0.7,2.43 -2.67,3.38 -5.94,2.86 -3.38,-0.83 -6,-1.69 -7.85,-2.58l0 -3.79c2.6,1 4.93,1.73 6.98,2.18 1.28,0.23 2.18,-0.13 2.7,-1.06 0.28,-0.56 0.42,-2.24 0.42,-5.02 -0.03,-1 -0.04,-1.94 -0.04,-2.82l-24.28 -5.36 0 -4zm6.82 7.13l4.2 0.93c0.97,3.25 1.67,6.4 2.11,9.45l-4.16 -0.92c-0.38,-2.64 -1.11,-5.8 -2.16,-9.46zm41.22 3.5l0 11.49 10.09 0.9 0 -11.49 -10.09 -0.9zm14.42 12.79l4.83 0.43c2.34,-0.07 4,-1.31 4.96,-3.68 0.93,-1.91 1.48,-4.31 1.65,-7.22l-11.45 -1.03 0 11.49zm11.4 -14.52c-0.22,-3.11 -0.86,-5.64 -1.9,-7.57 -1.22,-2.52 -3.04,-4.01 -5.47,-4.45l-4.03 -0.36 0 11.36 11.4 1.02zm-15.73 -12.77l-10.09 -0.9 0 11.36 10.09 0.9 0 -11.36zm8.95 -3.24c3.44,0.74 6.17,2.73 8.18,5.97 1.86,3.01 2.87,6.93 3.01,11.76 0,5.99 -0.92,10.19 -2.76,12.61 -1.84,3.04 -4.54,4.66 -8.1,4.85l-23.62 -2.12 0 -35.16 23.28 2.09zm19.51 0.63l8.21 -0.81 0 -1.58 4.19 -0.41 0 1.58 11.11 -1.09 0 -1.58 4.23 -0.41 0 1.58 7.97 -0.78 0 3.71 -7.97 0.78 0 1.53 -4.23 0.41 0 -1.53 -11.11 1.09 0 1.53 -4.19 0.41 0 -1.53 -8.21 0.81 0 -3.71zm0.89 5.75l10.55 -1.04c1.89,-0.07 3.19,0.37 3.9,1.32 0.87,0.82 1.31,1.94 1.31,3.37 0,1.61 -0.39,2.87 -1.19,3.78 -0.85,1.13 -1.99,1.82 -3.43,2.08l-7.42 0.73 -0.04 20.48 -3.72 0.37 0.04 -31.08zm3.72 7.51l6.19 -0.61c0.9,-0.18 1.5,-0.67 1.78,-1.5l-7.97 0.78 0 1.32zm0 -3.79l8.06 -0.79c-0.26,-0.68 -0.78,-1.04 -1.57,-1.07l-6.49 0.64 0 1.23zm13.6 -5.55l10.34 -1.01c1.92,-0.19 3.35,0.25 4.28,1.33 0.9,0.9 1.38,2.1 1.44,3.6 0.48,3.42 0.72,6.87 0.72,10.36 0,4.4 -0.32,7.82 -0.97,10.27 -0.31,1.34 -0.99,2.49 -2.04,3.48 -1.22,1.2 -2.48,1.92 -3.81,2.16l-5.55 0.54 0 -3.49 0.85 -0.08c-0.99,-0.69 -1.81,-1.55 -2.46,-2.57l-2.03 0.2 0 5.33 -3.35 0.33 0 -5.33 -2.08 0.2c-0.57,2.78 -2.43,5 -5.6,6.64l0.04 -4.01c1.13,-0.68 1.89,-1.44 2.28,-2.31l-2.75 0.27 -0.04 -8.93 8.13 -0.8 0 -1.07 -9.07 0.89 0 -2.98 9.07 -0.89 0 -1.02 3.35 -0.33 0 1.02 9.53 -0.93 0 2.98 -9.53 0.93 0 1.07 5.29 -0.52c2.94,-0.12 4.42,1.24 4.45,4.08 0,2.78 -1.27,4.37 -3.81,4.76 0.62,0.4 1.34,0.67 2.16,0.81l0 1.83c1.63,-0.25 2.78,-1.21 3.43,-2.89 0.48,-0.64 0.72,-3.66 0.72,-9.05 0,-1.87 -0.07,-3.73 -0.21,-5.55l-12.8 1.26 0 -10.56zm12.54 6.48c-0.05,-0.39 -0.11,-0.77 -0.17,-1.13l-8.68 0.85 0 1.15 8.85 -0.87zm-8.85 -2.79l8.18 -0.8c-0.09,-0.19 -0.17,-0.37 -0.25,-0.53 -0.51,-0.44 -1.18,-0.61 -2,-0.53l-5.93 0.63 0 1.24zm-11.32 19.42l5.05 -0.5 0 -0.98 -5.05 0.5 0 0.98zm0 -3.07l5.05 -0.5 0 -0.98 -5.05 0.5 0 0.98zm8.4 -1.81l0 0.98 6.18 -0.61c-0.28,-0.49 -0.8,-0.76 -1.57,-0.83l-4.61 0.45zm6.27 2.45l-6.27 0.61 0 0.98 4.91 -0.48c0.71,-0.07 1.16,-0.44 1.36,-1.11zm17.7 -21.95l4.13 -0.86c0.06,-2.54 0.12,-5.12 0.21,-7.75l4.17 -0.86c-0.11,2.52 -0.19,5.1 -0.25,7.76l5.67 -1.18 0 -8.73 4 -0.83 0 8.73 8.29 -1.72 0 -8.73 4.01 -0.83 0 8.73 5.09 -1.06 0 4.29 -5.09 1.06 0 11.41c0,2.27 -1.24,3.69 -3.71,4.26l-9.04 1.88c-1.97,0.35 -3.15,-0.55 -3.54,-2.71l0 -11.46 -5.71 1.18c0,0.17 0,0.34 0,0.52 0,7.01 0.07,11.75 0.21,14.22 0.2,3.53 1.41,5.07 3.63,4.61 9.42,-1.95 16.82,-3.93 22.22,-5.93l0 4.21c-4.23,1.68 -11.53,3.58 -21.92,5.74 -4.75,0.99 -7.43,-1.02 -8.05,-6.03 -0.16,-5.22 -0.26,-10.52 -0.29,-15.9 0,-0.2 0.01,-0.39 0.04,-0.57l-4.04 0.84 0 -4.29zm17.92 0.58l0 9.97c0,0.57 0.26,0.8 0.8,0.68l6.71 -1.39c0.53,-0.11 0.79,-0.37 0.79,-0.76l0 -10.22 -8.29 1.72z"/>
 </g>
</svg>
