<?xml version="1.0" encoding="UTF-8"?>
<!DOCTYPE svg PUBLIC "-//W3C//DTD SVG 1.1//EN" "http://www.w3.org/Graphics/SVG/1.1/DTD/svg11.dtd">
<!-- Creator: CorelDRAW 2021.5 -->
<svg xmlns="http://www.w3.org/2000/svg" xml:space="preserve" width="100%" height="100%" version="1.1" style="shape-rendering:geometricPrecision; text-rendering:geometricPrecision; image-rendering:optimizeQuality; fill-rule:evenodd; clip-rule:evenodd"
viewBox="0 0 132.8 132.8"
 xmlns:xlink="http://www.w3.org/1999/xlink"
 xmlns:xodm="http://www.corel.com/coreldraw/odm/2003">
 <defs>
  <style type="text/css">
   <![CDATA[
    .fil0 {fill:none;fill-rule:nonzero}
    .fil1 {fill:#8C2898;fill-rule:nonzero}
    .fil2 {fill:white;fill-rule:nonzero}
   ]]>
  </style>
   <clipPath id="id0" style="clip-rule:nonzero">
    <path d="M2.42 70.29c42.67,18.26 85.31,19.37 127.99,0.1 0.1,-1.34 0.13,-2.65 0.13,-3.99 0,-17.7 -7.17,-33.74 -18.78,-45.32 -11.62,-11.62 -27.62,-18.78 -45.32,-18.78 -17.7,0 -33.74,7.17 -45.32,18.78 -11.62,11.62 -18.78,27.62 -18.78,45.32 0,1.31 0.03,2.62 0.13,3.93l-0.03 -0.03z"/>
   </clipPath>
    <clipPath id="id1">
     <path d="M16.82 75.8c32.08,10.8 64.14,11.7 96.21,1.32l0 -54.73c-0.42,-0.44 -0.85,-0.88 -1.28,-1.31 -11.62,-11.62 -27.62,-18.78 -45.32,-18.78 -17.7,0 -33.74,7.17 -45.32,18.78 -1.51,1.51 -2.94,3.09 -4.29,4.74l0 49.98z"/>
    </clipPath>
    <clipPath id="id2">
     <path d="M2.42 70.29c42.67,18.26 85.31,19.37 127.99,0.1 0.1,-1.34 0.13,-2.65 0.13,-3.99 0,-17.7 -7.17,-33.74 -18.78,-45.32 -11.62,-11.62 -27.62,-18.78 -45.32,-18.78 -17.7,0 -33.74,7.17 -45.32,18.78 -11.62,11.62 -18.78,27.62 -18.78,45.32 0,1.31 0.03,2.62 0.13,3.93l-0.03 -0.03z"/>
    </clipPath>
 </defs>
 <g id="Layer_x0020_1">
  <metadata id="CorelCorpID_0Corel-Layer"/>
  <g>
  </g>
  <g style="clip-path:url(#id0)">
   <g id="_1823100005424">
   </g>
   <g style="clip-path:url(#id1)">
    <image x="16.82" y="-9.41" width="96.21" height="128.53" xlink:href="https://ik.imagekit.io/moearchive/calendar/nogi28/yamazakirena.png"/>
   </g>
   <g style="clip-path:url(#id2)">
   </g>
  </g>
  <path class="fil0" d="M2.42 70.29c42.67,18.26 85.31,19.37 127.99,0.1 0.1,-1.34 0.13,-2.65 0.13,-3.99 0,-17.7 -7.17,-33.74 -18.78,-45.32 -11.62,-11.62 -27.62,-18.78 -45.32,-18.78 -17.7,0 -33.74,7.17 -45.32,18.78 -11.62,11.62 -18.78,27.62 -18.78,45.32 0,1.31 0.03,2.62 0.13,3.93l-0.03 -0.03z"/>
  <path class="fil1" d="M39.43 26.57c-1.57,1.05 -3.7,0.65 -4.75,-0.92 -1.05,-1.57 -0.65,-3.7 0.92,-4.75 0.72,-0.49 1.51,-0.98 2.29,-1.47 0.95,-0.59 1.73,-1.05 2.32,-1.37 1.67,-0.92 3.76,-0.29 4.65,1.37 0.92,1.67 0.29,3.76 -1.37,4.65 -0.88,0.49 -1.57,0.88 -2.06,1.18 -0.65,0.39 -1.34,0.82 -2,1.28l0 0.03zm26.97 -26.57c18.33,0 34.95,7.43 46.96,19.44 12.01,12.01 19.44,28.63 19.44,46.96 0,18.33 -7.43,34.95 -19.44,46.96 -12.01,12.01 -28.63,19.44 -46.96,19.44 -18.33,0 -34.95,-7.43 -46.96,-19.44 -12.01,-12.01 -19.44,-28.63 -19.44,-46.96 0,-18.33 7.43,-34.95 19.44,-46.96 12.01,-12.01 28.63,-19.44 46.96,-19.44zm-63.98 70.29c42.67,18.26 85.31,19.37 127.99,0.1 0.1,-1.34 0.13,-2.65 0.13,-3.99 0,-17.7 -7.17,-33.74 -18.78,-45.32 -11.62,-11.62 -27.62,-18.78 -45.32,-18.78 -17.7,0 -33.74,7.17 -45.32,18.78 -11.62,11.62 -18.78,27.62 -18.78,45.32 0,1.31 0.03,2.62 0.13,3.93l-0.03 -0.03zm16.92 -13.71c-0.39,1.87 -2.19,3.04 -4.06,2.65 -1.87,-0.39 -3.04,-2.19 -2.65,-4.06 1.11,-5.3 2.98,-10.41 5.56,-15.12 2.59,-4.71 5.86,-9.06 9.72,-12.86 1.34,-1.34 3.53,-1.31 4.84,0.03 1.34,1.34 1.31,3.5 -0.03,4.84 -3.4,3.34 -6.25,7.13 -8.51,11.26 -2.26,4.12 -3.89,8.57 -4.88,13.22l0 0.03z"/>
  <path class="fil2" d="M29.57 83.47l2.3 0.51 0 17.77 4.31 0.95c0.67,0.13 1.01,-0.22 1.03,-1.05l0 -14.57 2.28 0.5 0 15.14c-0.02,1.83 -0.84,2.64 -2.48,2.43l-12.08 -2.67c-1.7,-0.65 -2.67,-1.94 -2.91,-3.87l0 -14.92 2.19 0.48 -0.02 14.46c0.15,0.9 0.55,1.46 1.21,1.68l4.17 0.92 0 -17.77zm17.6 3.42l1.98 0.18 0 16.49 0.55 0.05c0.21,0.02 0.32,-0.05 0.32,-0.22l0 -14.71 1.68 0.15 0 15.28c0,1.1 -0.53,1.61 -1.57,1.55l-4.06 -0.36c-0.84,-0.11 -1.35,-0.71 -1.53,-1.81l0 -15.32 1.73 0.16 0 14.59c0,0.26 0.11,0.4 0.34,0.42l0.54 0.05 0 -16.49zm5.24 1.98l4.26 0.38c0,-0.05 0,-0.1 0,-0.16l-0.02 -1.4 2.16 0.19 0 1.4c0,0.06 0,0.11 0,0.16l4.53 0.41 0 2.06 -4.37 -0.39c0.96,1.6 2.43,2.64 4.42,3.14l0 1.92c-2.38,-0.46 -4.25,-1.65 -5.58,-3.56 -1.03,1.56 -2.85,2.42 -5.45,2.58l0 -1.92c2.02,-0.2 3.32,-1 3.9,-2.4l-3.85 -0.34 0 -2.06zm-0.09 7.24l11.39 1.02 0 2.01 -1.64 -0.15c0.05,0.96 0.07,2.32 0.07,4.08 0,1.63 -0.09,2.74 -0.25,3.34 -0.32,1.28 -1.27,1.9 -2.85,1.85 -1.64,-0.18 -2.91,-0.43 -3.81,-0.75l0 -1.92c1.26,0.33 2.38,0.53 3.35,0.62 0.61,0.03 1.03,-0.23 1.28,-0.75 0.14,-0.31 0.21,-1.16 0.21,-2.55 -0.02,-1.79 -0.04,-3.15 -0.07,-4.1l-7.68 -0.69 0 -2.01zm4.15 3.23c0.8,0.07 1.5,0.41 2.07,1.01 0.49,0.53 0.73,1.2 0.73,2.01 0,0.82 -0.28,1.49 -0.82,1.99 -0.55,0.48 -1.23,0.7 -2.05,0.64l-3.64 -0.33 0 -5.65 3.71 0.33zm-1.78 3.75l1.43 0.13c0.77,-0.02 1.16,-0.38 1.16,-1.06 0,-0.6 -0.41,-1 -1.23,-1.21l-1.36 -0.12 0 2.26zm21.66 -7c-0.09,0.23 -0.17,0.46 -0.25,0.66l-2.46 0.21c1.12,-2.69 2.13,-5.75 3.01,-9.2l5.24 -0.44c1.37,0.01 2.3,0.5 2.78,1.48 1.09,2.07 2.07,4.46 2.92,7.14l-2.53 0.21c-0.06,-0.25 -0.12,-0.52 -0.18,-0.78l-8.52 0.72zm7.84 -2.79c-0.37,-1.1 -0.81,-2.15 -1.32,-3.14 -0.19,-0.5 -0.59,-0.76 -1.18,-0.77l-3.35 0.28c-0.38,1.5 -0.78,2.9 -1.21,4.22l7.06 -0.6zm-9.46 4.9l8.96 -0.76c0.65,0 1.19,0.17 1.59,0.48 0.49,0.28 0.81,0.67 0.96,1.18 0.16,0.72 0.25,1.99 0.25,3.82 0,1.13 -0.26,2.03 -0.77,2.72 -0.52,0.64 -1.28,1.03 -2.3,1.18 -1.41,0.12 -2.48,0.17 -3.19,0.16l0 -2.04c0.79,-0 1.71,-0.05 2.76,-0.14 0.77,-0.07 1.18,-0.64 1.23,-1.7 0,-1.24 -0.01,-2.16 -0.02,-2.77 -0.14,-0.55 -0.55,-0.82 -1.25,-0.81l-3.63 0.31 0 8.05 -2.26 0.19 0 -8.05 -2.33 0.2 0 -2.01zm-4.17 -10.29l2.14 -0.18 0 2.72c0.5,0.32 1,0.74 1.48,1.25l0 2.97c-0.5,-0.57 -1,-1.07 -1.48,-1.5l0 15.26 -2.14 0.18 0 -20.7zm-2.53 2.16l1.94 -0.16c-0.09,4.17 -0.26,8.18 -0.53,12.03l-2.03 0.17c0.41,-3.77 0.61,-7.79 0.61,-12.04zm23.22 -2.86l7.24 -1.5c0.28,-0.53 0.54,-1.08 0.76,-1.64l2.31 -0.48c-0.16,0.55 -0.35,1.08 -0.56,1.6l8.4 -1.74 0 2.13 -4.57 0.95c1.45,1.19 3.14,1.82 5.08,1.87l0 2.49c-0.96,-0.08 -1.83,-0.22 -2.64,-0.44l0 1.17 -13.73 2.85 0 -0.98c-0.76,0.42 -1.57,0.82 -2.42,1.21l0 -2.42c2.34,-1.07 4.24,-2.43 5.67,-4.08l-5.54 1.15 0 -2.13zm4.64 4.67l9.72 -2.02c-1.4,-0.65 -2.55,-1.58 -3.42,-2.79l-2.42 0.5c-0.99,1.63 -2.28,3.06 -3.88,4.31zm-5.04 5.3l18.93 -3.93 0 2.17 -8.11 1.68c0.07,0.69 0.14,1.47 0.2,2.34 0,1.14 -0.08,1.92 -0.25,2.34 -0.22,1.25 -1.16,2.13 -2.8,2.64 -1.28,0.27 -2.35,0.44 -3.18,0.52l0 -2.13c0.85,-0.05 1.67,-0.16 2.46,-0.33 1.02,-0.21 1.55,-0.87 1.59,-1.98 -0.03,-1.06 -0.1,-2.05 -0.2,-2.96l-8.65 1.79 0 -2.17zm2.87 2.38l1.99 -0.41c-0.07,2.78 -1.44,4.92 -4.1,6.43l0 -2.19c1.4,-0.99 2.11,-2.27 2.11,-3.83zm11.24 -2.26l2.06 -0.43c0.09,1.12 0.78,1.93 2.08,2.41l0 2.54c-2.27,-0.59 -3.65,-2.1 -4.14,-4.52z"/>
 </g>
</svg>
