<?xml version="1.0" encoding="UTF-8"?>
<!DOCTYPE svg PUBLIC "-//W3C//DTD SVG 1.1//EN" "http://www.w3.org/Graphics/SVG/1.1/DTD/svg11.dtd">
<!-- Creator: CorelDRAW 2021.5 -->
<svg xmlns="http://www.w3.org/2000/svg" xml:space="preserve" width="100%" height="100%" version="1.1" style="shape-rendering:geometricPrecision; text-rendering:geometricPrecision; image-rendering:optimizeQuality; fill-rule:evenodd; clip-rule:evenodd"
viewBox="0 0 3986.84 3986.84"
 xmlns:xlink="http://www.w3.org/1999/xlink"
 xmlns:xodm="http://www.corel.com/coreldraw/odm/2003">
 <defs>
  <style type="text/css">
   <![CDATA[
    .fil0 {fill:none;fill-rule:nonzero}
    .fil1 {fill:#8C2898;fill-rule:nonzero}
    .fil2 {fill:#FEFEFE;fill-rule:nonzero}
   ]]>
  </style>
   <clipPath id="id0" style="clip-rule:nonzero">
    <path d="M72.71 2110.34c1281.13,548.21 2561.28,581.62 3842.41,2.95 2.95,-40.28 3.93,-79.58 3.93,-119.86 0,-531.52 -215.16,-1012.92 -563.93,-1360.71 -348.78,-348.78 -829.2,-563.93 -1360.71,-563.93 -531.52,0 -1012.92,215.16 -1360.71,563.93 -348.78,348.78 -563.93,829.2 -563.93,1360.71 0,39.3 0.99,78.6 3.93,117.89l-0.99 -0.98z"/>
   </clipPath>
    <clipPath id="id1">
     <path d="M504.9 2275.56c963.01,324.15 1925.59,351.15 2888.57,39.68l0 -1643.14c-12.6,-13.32 -25.38,-26.45 -38.35,-39.39 -348.78,-348.78 -829.2,-563.93 -1360.71,-563.93 -531.52,0 -1012.92,215.16 -1360.71,563.93 -45.25,45.25 -88.23,92.73 -128.79,142.23l0 1500.62z"/>
    </clipPath>
    <clipPath id="id2">
     <path d="M72.71 2110.34c1281.13,548.21 2561.28,581.62 3842.41,2.95 2.95,-40.28 3.93,-79.58 3.93,-119.86 0,-531.52 -215.16,-1012.92 -563.93,-1360.71 -348.78,-348.78 -829.2,-563.93 -1360.71,-563.93 -531.52,0 -1012.92,215.16 -1360.71,563.93 -348.78,348.78 -563.93,829.2 -563.93,1360.71 0,39.3 0.99,78.6 3.93,117.89l-0.99 -0.98z"/>
    </clipPath>
 </defs>
 <g id="Layer_x0020_1">
  <metadata id="CorelCorpID_0Corel-Layer"/>
  <g>
  </g>
  <g style="clip-path:url(#id0)">
   <g id="_2682486713920">
   </g>
   <g style="clip-path:url(#id1)">
    <image x="504.9" y="-282.46" width="2888.56" height="3858.76" xlink:href="https://ik.imagekit.io/moearchive/calendar/nogi35fix/itouriria.png"/>
   </g>
   <g style="clip-path:url(#id2)">
   </g>
  </g>
  <path class="fil0" d="M72.71 2110.34c1281.13,548.21 2561.28,581.62 3842.41,2.95 2.95,-40.28 3.93,-79.58 3.93,-119.86 0,-531.52 -215.16,-1012.92 -563.93,-1360.71 -348.78,-348.78 -829.2,-563.93 -1360.71,-563.93 -531.52,0 -1012.92,215.16 -1360.71,563.93 -348.78,348.78 -563.93,829.2 -563.93,1360.71 0,39.3 0.99,78.6 3.93,117.89l-0.99 -0.98z"/>
  <path class="fil1" d="M1183.87 797.77c-47.15,31.44 -111.01,19.65 -142.46,-27.51 -31.44,-47.15 -19.65,-111.01 27.51,-142.46 21.62,-14.74 45.19,-29.47 68.77,-44.21 28.5,-17.68 52.07,-31.44 69.76,-41.26 50.1,-27.51 112.99,-8.84 139.51,41.26 27.51,50.1 8.84,112.99 -41.26,139.51 -26.52,14.74 -47.15,26.52 -61.9,35.37 -19.65,11.79 -40.28,24.56 -59.93,38.31l0 0.99zm809.55 -797.77c550.17,0 1049.27,223.02 1409.84,583.58 360.56,360.56 583.58,859.65 583.58,1409.84 0,550.17 -223.02,1049.27 -583.58,1409.84 -360.56,360.56 -859.65,583.58 -1409.84,583.58 -550.17,0 -1049.27,-223.02 -1409.84,-583.58 -360.56,-360.56 -583.58,-859.65 -583.58,-1409.84 0,-550.17 223.02,-1049.27 583.58,-1409.84 360.56,-360.56 859.65,-583.58 1409.84,-583.58zm-1920.71 2110.34c1281.13,548.21 2561.28,581.62 3842.41,2.95 2.95,-40.28 3.93,-79.58 3.93,-119.86 0,-531.52 -215.16,-1012.92 -563.93,-1360.71 -348.78,-348.78 -829.2,-563.93 -1360.71,-563.93 -531.52,0 -1012.92,215.16 -1360.71,563.93 -348.78,348.78 -563.93,829.2 -563.93,1360.71 0,39.3 0.99,78.6 3.93,117.89l-0.99 -0.98zm507.93 -411.65c-11.79,56.01 -65.82,91.37 -121.83,79.58 -56.01,-11.79 -91.37,-65.82 -79.58,-121.83 33.4,-159.15 89.4,-312.42 167.02,-453.9 77.61,-141.47 175.86,-272.14 291.79,-386.11 40.28,-40.28 106.11,-39.3 145.4,0.99 40.28,40.28 39.3,105.12 -0.99,145.4 -102.17,100.21 -187.65,214.17 -255.44,337.96 -67.79,123.79 -116.91,257.4 -146.39,396.91l0.01 1z"/>
  <path class="fil2" d="M492.23 2396.25l198.46 72.7c52.07,21.62 93.33,59.93 121.83,114.95 23.58,39.3 38.31,84.49 44.21,133.62l30.46 10.8 0 66.81 -29.47 -10.8c-3.93,48.14 -19.65,82.53 -45.19,103.16 -32.42,28.5 -76.64,34.39 -133.62,17.68l-16.7 -5.89c-23.58,99.23 -88.42,147.37 -194.53,146.39l-0.99 -77.61c68.77,2.95 112,-28.5 130.67,-92.36l-108.07 -39.3 0 -67.79 118.88 43.23c0,-6.88 0.99,-12.77 0.99,-19.65l0 -98.25 -150.31 -55.02 0 -66.81 150.31 55.02 0 -116.91 -116.91 -43.23 0 -70.74 0 -0.01zm179.79 136.56l0 116.91 118.88 44.21c-3.93,-27.51 -11.79,-52.07 -24.56,-74.66 -17.68,-36.35 -45.19,-63.86 -80.56,-80.56l-13.75 -4.91 0 -0.99zm0 183.72l0 110.04c0,2.95 -0.99,5.89 -0.99,7.86l6.88 1.96c38.31,9.83 67.79,2.95 87.44,-18.67 13.75,-12.77 22.6,-32.42 26.52,-57.97l-118.88 -44.21 -0.98 0.99zm-303.58 -125.76c-19.65,19.65 -40.28,35.37 -62.88,46.18l0 -94.32c45.19,-37.34 80.56,-100.21 103.16,-188.64l64.85 23.58c-10.8,44.21 -24.56,82.53 -40.28,115.93l0 531.52 -64.85 -23.58 0 -410.66zm632.71 0l133.62 25.55 0 -32.42 67.79 12.77 0 32.42 179.79 34.39 0 -36.35 67.79 12.77 0 36.35 129.68 24.56 0 64.85 -129.68 -24.56 0 31.44 -67.79 -12.77 0 -31.44 -179.79 -34.39 0 31.44 -67.79 -12.77 0 -31.44 -133.62 -25.55 0 -64.85zm120.84 135.57c39.3,12.77 59.93,39.3 62.88,79.58 6.88,43.23 10.8,109.05 10.8,195.51 0,72.7 -0.99,124.77 -2.95,157.19 0,55.02 -18.67,79.58 -56.01,74.66 -16.7,-3.93 -33.4,-7.86 -50.1,-12.77l0 -61.9c12.77,3.93 24.56,6.88 36.35,8.84 8.84,0 12.77,-6.88 13.75,-21.62 0.99,-28.5 1.96,-56.01 1.96,-82.53l-66.81 -12.77c-2.95,82.53 -7.86,138.52 -14.74,167.02l-56.98 -10.8c11.79,-65.82 18.67,-162.11 19.65,-289.82l0 -211.23 101.2 19.65 1 0.99zm-47.16 264.29l64.85 12.77c0,-2.95 0,-4.91 0,-7.86 0,-24.56 0,-48.14 -0.99,-69.76l-62.88 -11.79 0 13.75c0,21.62 -0.99,42.25 -0.99,62.88l0.01 0.01zm0.99 -139.51l60.91 11.79c-0.99,-19.65 -1.96,-38.31 -3.93,-56.98 0,-12.77 -7.86,-20.63 -22.6,-25.55l-33.4 -6.88 0 77.61 -0.99 0zm176.85 -87.44l59.93 11.79c4.91,16.7 8.84,34.39 11.79,50.1l37.34 6.88c4.91,-17.68 8.84,-36.35 10.8,-56.98l56.01 10.8c-1.96,20.63 -4.91,39.3 -8.84,56.98l40.28 7.86c6.88,-15.72 12.77,-31.44 17.68,-47.15l59.93 11.79c-5.89,17.68 -11.79,33.4 -18.67,47.15l48.14 8.84 0 56.98 -97.26 -18.67c4.91,15.72 10.8,29.47 17.68,43.23l94.32 17.68 0 59.93 -51.09 -9.83c15.72,19.65 34.39,38.31 56.01,55.02l-0.99 66.81c-14.74,-10.8 -29.47,-20.63 -42.25,-32.42l0 24.56c-24.56,-3.93 -55.02,-6.88 -91.37,-9.83l0 -53.05c18.67,0 37.34,1.96 56.01,2.95 -17.68,-20.63 -33.4,-42.25 -47.15,-67.79l-112.99 -21.62c-18.67,19.65 -41.26,36.35 -65.82,49.13 28.5,5.89 51.09,11.79 67.79,16.7l0 52.07c-22.6,-6.88 -57.97,-14.74 -106.11,-24.56l0 -27.51c-7.86,2.95 -15.72,4.91 -23.58,6.88l0 -60.91c17.68,-6.88 34.39,-15.72 49.13,-26.52l-47.15 -8.84 0 -59.93 99.23 18.67c7.86,-10.8 14.74,-22.6 21.62,-36.35l-115.93 -22.6 0 -56.98 40.28 7.86c-3.93,-15.72 -7.86,-32.42 -13.75,-51.09l-1 1.95zm176.84 178.81c-5.89,-13.75 -10.8,-27.51 -14.74,-43.23l-10.8 -1.96c-4.91,13.75 -10.8,25.55 -17.68,36.35l44.21 8.84 -0.99 0zm-59.92 177.82c0,-33.4 -0.99,-68.77 -0.99,-104.14l61.9 11.79c0,33.4 0.99,68.77 0.99,107.09 47.15,29.47 97.26,55.02 151.3,77.61l0 59.93c-55.02,-18.67 -105.12,-42.25 -151.3,-70.74 -0.99,23.58 -6.88,42.25 -15.72,55.02 -14.74,15.72 -29.47,22.6 -47.15,19.65l-73.69 -13.75 0 -60.91 50.1 9.83c16.7,2.95 24.56,-3.93 24.56,-21.62 0,-1.96 0,-4.91 0,-6.88 -34.39,3.93 -83.5,4.91 -147.37,2.95l0 -64.85c52.07,1.96 101.2,1.96 147.37,-0.99zm330.1 -168.98l68.77 -0.99 0 -177.82 -62.88 0.99 0 -69.76 200.42 -2.95 0 69.76 -71.72 0.99 0 177.82 68.77 -0.99 0 68.77 -68.77 0.99 0 174.88c23.58,-3.93 46.18,-9.83 69.76,-16.7l0 73.69c-53.05,13.75 -119.86,24.56 -198.46,32.42l0 -74.66c20.63,-0.99 42.25,-1.96 63.86,-4.91l0 -183.72 -68.77 0.99 0 -68.77 -0.98 -0.01zm292.77 -45.19l0 85.48 80.56 -0.99 0 -85.48 -80.56 0.99zm80.56 150.31l-144.42 1.96 0 -368.42 224.99 -2.95c99.23,-1.96 149.34,57.97 152.28,179.79 0,116.91 -42.25,179.79 -128.71,188.64l-37.34 0.99 0 56.01 147.37 -1.96 0 71.72 -147.37 1.96 0 66.81 165.06 -2.95 0 72.7 -387.09 5.89 0 -72.7 155.23 -1.96 0 -66.81 -142.46 1.96 0 -71.72 142.46 -1.96 0 -56.01 0.01 -0.98zm66.81 -66.81l27.51 0c41.26,-7.86 64.85,-36.35 70.74,-87.44l-99.23 1.96 0 85.48 0.99 0zm99.22 -152.28c-6.88,-59.93 -35.37,-89.4 -86.45,-89.4l-13.75 0 0 90.38 99.23 -1.96 0.98 0.99zm-167.02 -87.44l-80.56 0.99 0 90.38 80.56 -0.99 0 -90.38zm477.48 318.32c64.85,5.89 121.83,14.74 172.91,26.52 125.76,-104.14 192.56,-231.86 201.41,-385.13 0,-12.77 -7.86,-17.68 -24.56,-14.74l-260.35 50.1c-37.34,123.79 -107.09,227.93 -210.25,312.42l0 -85.48c98.25,-98.25 153.26,-213.2 167.02,-344.84l69.76 -12.77c-1.96,18.67 -4.91,37.34 -7.86,55.02l276.07 -53.05c39.3,-0.99 58.95,18.67 58.95,57.97 0,178.81 -66.81,326.17 -201.41,441.12 30.46,10.8 56.98,23.58 80.56,38.31l0 91.37c-97.26,-56.01 -204.36,-89.4 -322.25,-100.21l0 -77.61 0 1zm572.77 -493.19l246.6 -90.38 0 -57.97 64.85 -23.58 0 57.97 246.6 -90.38 0 70.74 -130.67 48.14c31.44,68.77 75.65,113.96 131.65,134.6l0 83.5c-86.45,-23.58 -152.28,-87.44 -198.46,-193.54l-49.13 17.68 0 234.81 -64.85 23.58 0 -234.81 -49.13 17.68c-23.58,124.77 -90.38,237.76 -198.46,336l0 -79.58c70.74,-74.66 115.93,-152.28 133.62,-232.84l-132.63 48.14 0 -70.74 0.01 0.98zm421.48 170.95c82.53,-27.51 122.8,2.95 122.8,91.37 0,81.54 -35.37,138.52 -106.11,170.95l-383.17 140.5 0 -268.21 366.46 -134.6 0.01 0zm-303.58 308.49l307.52 -112c33.4,-12.77 51.09,-41.26 51.09,-84.49 0,-44.21 -18.67,-58.95 -56.01,-45.19l-301.61 111.01 0 130.67 -0.99 0z"/>
 </g>
</svg>
