<?xml version="1.0" encoding="UTF-8"?>
<!DOCTYPE svg PUBLIC "-//W3C//DTD SVG 1.1//EN" "http://www.w3.org/Graphics/SVG/1.1/DTD/svg11.dtd">
<!-- Creator: CorelDRAW 2021.5 -->
<svg xmlns="http://www.w3.org/2000/svg" xml:space="preserve" width="100%" height="100%" version="1.1" style="shape-rendering:geometricPrecision; text-rendering:geometricPrecision; image-rendering:optimizeQuality; fill-rule:evenodd; clip-rule:evenodd"
viewBox="0 0 3986.84 3986.84"
 xmlns:xlink="http://www.w3.org/1999/xlink"
 xmlns:xodm="http://www.corel.com/coreldraw/odm/2003">
 <defs>
  <style type="text/css">
   <![CDATA[
    .fil0 {fill:none;fill-rule:nonzero}
    .fil1 {fill:#8C2898;fill-rule:nonzero}
    .fil2 {fill:#FEFEFE;fill-rule:nonzero}
   ]]>
  </style>
   <clipPath id="id0" style="clip-rule:nonzero">
    <path d="M72.71 2110.34c1281.13,548.21 2561.28,581.62 3842.41,2.95 2.95,-40.28 3.93,-79.58 3.93,-119.86 0,-531.52 -215.16,-1012.92 -563.93,-1360.71 -348.78,-348.78 -829.2,-563.93 -1360.71,-563.93 -531.52,0 -1012.92,215.16 -1360.71,563.93 -348.78,348.78 -563.93,829.2 -563.93,1360.71 0,39.3 0.99,78.6 3.93,117.89l-0.99 -0.98z"/>
   </clipPath>
    <clipPath id="id1">
     <path d="M504.9 2275.56c963.01,324.15 1925.59,351.15 2888.57,39.68l0 -1643.14c-12.6,-13.32 -25.38,-26.45 -38.35,-39.39 -348.78,-348.78 -829.2,-563.93 -1360.71,-563.93 -531.52,0 -1012.92,215.16 -1360.71,563.93 -45.25,45.25 -88.23,92.73 -128.79,142.23l0 1500.62z"/>
    </clipPath>
    <clipPath id="id2">
     <path d="M72.71 2110.34c1281.13,548.21 2561.28,581.62 3842.41,2.95 2.95,-40.28 3.93,-79.58 3.93,-119.86 0,-531.52 -215.16,-1012.92 -563.93,-1360.71 -348.78,-348.78 -829.2,-563.93 -1360.71,-563.93 -531.52,0 -1012.92,215.16 -1360.71,563.93 -348.78,348.78 -563.93,829.2 -563.93,1360.71 0,39.3 0.99,78.6 3.93,117.89l-0.99 -0.98z"/>
    </clipPath>
 </defs>
 <g id="Layer_x0020_1">
  <metadata id="CorelCorpID_0Corel-Layer"/>
  <g>
  </g>
  <g style="clip-path:url(#id0)">
   <g id="_2718320166704">
   </g>
   <g style="clip-path:url(#id1)">
    <image x="504.9" y="-282.46" width="2888.56" height="3858.76" xlink:href="https://ik.imagekit.io/moearchive/calendar/nogi33/iwamotorenka.png"/>
   </g>
   <g style="clip-path:url(#id2)">
   </g>
  </g>
  <path class="fil0" d="M72.71 2110.34c1281.13,548.21 2561.28,581.62 3842.41,2.95 2.95,-40.28 3.93,-79.58 3.93,-119.86 0,-531.52 -215.16,-1012.92 -563.93,-1360.71 -348.78,-348.78 -829.2,-563.93 -1360.71,-563.93 -531.52,0 -1012.92,215.16 -1360.71,563.93 -348.78,348.78 -563.93,829.2 -563.93,1360.71 0,39.3 0.99,78.6 3.93,117.89l-0.99 -0.98z"/>
  <path class="fil1" d="M1183.87 797.77c-47.15,31.44 -111.01,19.65 -142.46,-27.51 -31.44,-47.15 -19.65,-111.01 27.51,-142.46 21.62,-14.74 45.19,-29.47 68.77,-44.21 28.5,-17.68 52.07,-31.44 69.76,-41.26 50.1,-27.51 112.99,-8.84 139.51,41.26 27.51,50.1 8.84,112.99 -41.26,139.51 -26.52,14.74 -47.15,26.52 -61.9,35.37 -19.65,11.79 -40.28,24.56 -59.93,38.31l0 0.99zm809.55 -797.77c550.17,0 1049.27,223.02 1409.84,583.58 360.56,360.56 583.58,859.65 583.58,1409.84 0,550.17 -223.02,1049.27 -583.58,1409.84 -360.56,360.56 -859.65,583.58 -1409.84,583.58 -550.17,0 -1049.27,-223.02 -1409.84,-583.58 -360.56,-360.56 -583.58,-859.65 -583.58,-1409.84 0,-550.17 223.02,-1049.27 583.58,-1409.84 360.56,-360.56 859.65,-583.58 1409.84,-583.58zm-1920.71 2110.34c1281.13,548.21 2561.28,581.62 3842.41,2.95 2.95,-40.28 3.93,-79.58 3.93,-119.86 0,-531.52 -215.16,-1012.92 -563.93,-1360.71 -348.78,-348.78 -829.2,-563.93 -1360.71,-563.93 -531.52,0 -1012.92,215.16 -1360.71,563.93 -348.78,348.78 -563.93,829.2 -563.93,1360.71 0,39.3 0.99,78.6 3.93,117.89l-0.99 -0.98zm507.93 -411.65c-11.79,56.01 -65.82,91.37 -121.83,79.58 -56.01,-11.79 -91.37,-65.82 -79.58,-121.83 33.4,-159.15 89.4,-312.42 167.02,-453.9 77.61,-141.47 175.86,-272.14 291.79,-386.11 40.28,-40.28 106.11,-39.3 145.4,0.99 40.28,40.28 39.3,105.12 -0.99,145.4 -102.17,100.21 -187.65,214.17 -255.44,337.96 -67.79,123.79 -116.91,257.4 -146.39,396.91l0.01 1z"/>
  <g id="_2718320166896">
  </g>
  <path class="fil2" d="M655.98 2617.65l568.75 158.66 0 69.59 -368.34 -102.99c-8.35,25.05 -18.56,47.31 -31.55,66.8l282.06 78.86c30.62,13.91 54.74,35.25 71.44,64.95 15.77,29.69 24.12,62.16 24.12,97.42 -0.93,38.97 -10.21,67.73 -28.77,86.29 -20.41,21.34 -44.53,27.84 -73.3,21.34l-347 -97.42 0 -182.78c-29.69,16.7 -63.09,26.91 -102.99,31.55l-0.93 -79.8c72.37,-13.91 117.83,-49.18 136.39,-105.77l-130.82 -36.18 0 -69.59 0.93 -0.92zm248.66 -160.52l66.8 18.56 0 119.69 153.09 42.68c5.57,1.85 9.28,-2.78 9.28,-12.06l0 -92.78 65.87 18.56 0 108.55c0,39.9 -16.7,56.59 -51.03,52.89l-423.08 -117.83c-27.84,-16.7 -40.83,-42.68 -40.83,-76.08l0 -109.48 66.8 18.56 -0.93 90.93c0,8.35 2.78,13.91 8.35,17.63l144.74 40.83 0 -119.69 0.93 -0.95zm-86.3 553.91l277.41 77.01c24.12,1.85 37.12,-15.77 40.83,-52.89 0,-42.68 -17.63,-71.44 -52.89,-85.36l-265.35 -74.23 0 134.54 0 0.93zm538.13 -370.2l248.66 25.97 0 -77.01 70.52 7.43 0 77.01 250.51 25.97 0 71.44 -138.24 -13.91c20.41,168.86 71.44,289.47 150.3,360.92l0 97.42c-115.98,-86.29 -188.35,-241.23 -218.04,-465.76l-45.46 -4.63 0 370.2 160.51 16.7 0 72.37 -160.51 -16.7 0 75.15 -70.52 -7.43 0 -75.15 -152.16 -15.77 0 -72.37 152.16 15.77 0 -370.2 -45.46 -4.63c-8.35,121.55 -30.62,212.47 -67.73,272.78 -41.75,71.44 -91.86,121.55 -148.45,150.3l0 -89.07c92.78,-70.52 142.89,-184.64 150.3,-341.43l-138.24 -13.91 0 -71.44 1.84 -0.01zm707 25.05c59.38,9.28 103.92,29.69 135.46,58.46l0 81.65c-29.69,-30.62 -74.23,-54.74 -135.46,-73.3l0 -66.8 0 -0.01zm-3.71 215.26l64.95 -6.5c44.53,4.63 69.59,29.69 76.08,76.08l0 142.89c0,33.4 13.91,52.89 41.75,59.38 37.12,15.77 103.92,20.41 200.41,12.99 96.49,-10.21 167.01,-19.49 212.47,-27.84l0.93 64.95c-23.19,7.43 -99.27,17.63 -230.1,30.62 -134.54,11.13 -222.68,-5.57 -266.28,-50.1 -16.7,36.18 -50.1,64.95 -101.14,87.21l0 -71.44c45.46,-28.77 71.44,-64.02 77.93,-107.62l0 -125.26c0,-14.84 -8.35,-25.05 -25.97,-29.69l-51.03 5.57 -0.93 -62.16 0.94 0.94zm170.72 -223.61l162.36 -16.7 0 -45.46 65.87 -6.5 0 45.46 166.08 -16.7 0 62.16 -166.08 16.7 0 31.55 16.7 -1.85c94.64,-10.21 142.89,27.84 144.74,113.2 0,82.58 -40.83,129.89 -122.48,143.82l-39.9 3.71 0 28.77 175.36 -18.56 0 64.95 -175.36 18.56 0 64.95 -65.87 6.5 0 -64.95 -165.15 16.7 0 -64.95 165.15 -16.7 0 -28.77 -142.89 14.84 0 -258.87 142.89 -14.84 0 -31.55 -162.36 16.7 0 -62.16 0.93 0zm162.37 135.46l-80.72 8.35 0 39.9 80.72 -8.35 0 -39.9zm-80.72 108.55l0 38.97 80.72 -8.35 0 -38.97 -80.72 8.35zm146.6 24.13l30.62 -2.78c33.4,-6.5 55.67,-22.27 64.95,-46.39l-95.56 10.21 0 38.97 0 -0.01zm95.56 -109.49c-11.13,-25.97 -37.12,-36.18 -78.86,-31.55l-16.7 1.85 0 39.9 95.56 -10.21zm222.68 -204.12l69.59 -19.49 0.93 -66.8 60.31 -18.56 0 67.73 27.84 -7.43c36.18,-10.21 65.87,-7.43 88.14,8.35 19.49,15.77 30.62,37.12 33.4,64.02 4.63,56.59 6.5,109.48 6.5,158.66 0,97.42 -1.85,161.44 -6.5,189.28 -1.85,78.86 -31.55,129.89 -88.14,153.09 -34.33,9.28 -63.09,15.77 -87.21,18.56l0 -70.52c14.84,0.93 36.18,-2.78 65.87,-11.13 26.91,-7.43 42.68,-34.33 47.31,-81.65 2.78,-53.81 4.63,-112.27 4.63,-175.36 0,-79.8 -0.93,-129.89 -3.71,-151.23 -5.57,-33.4 -28.77,-45.46 -69.59,-33.4l-19.49 5.57 0 126.18c0,119.69 -13.91,209.69 -40.83,270 -30.62,77.93 -64.02,135.46 -99.27,172.57l-0.93 -92.78c21.34,-33.4 39.9,-77.01 54.74,-130.82 15.77,-51.03 23.19,-117.83 23.19,-200.41l0.93 -127.11 -69.59 19.49 0 -67.73 1.86 0.92zm449.07 -154.95c27.84,-5.57 50.1,-1.85 67.73,10.21 17.63,13.91 28.77,32.47 31.55,53.81 8.35,44.53 12.06,115.98 12.06,215.25 0,79.8 -2.78,134.54 -6.5,164.23 0,35.25 -8.35,69.59 -25.05,102.06 -18.56,31.55 -42.68,52.89 -70.52,62.16l-138.24 38.97 0 -609.58 128.04 -36.18 0.94 -0.94zm-66.81 558.55l67.73 -18.56c25.97,-12.99 38.97,-36.18 38.97,-70.52 4.63,-36.18 7.43,-98.35 7.43,-188.35 0,-62.16 -1.85,-116.9 -6.5,-167.01 -0.93,-35.25 -18.56,-50.1 -52.89,-44.53l-55.67 15.77 0 474.12 0.93 -0.92z"/>
 </g>
</svg>
