<?xml version="1.0" encoding="UTF-8"?>
<!DOCTYPE svg PUBLIC "-//W3C//DTD SVG 1.1//EN" "http://www.w3.org/Graphics/SVG/1.1/DTD/svg11.dtd">
<!-- Creator: CorelDRAW 2021.5 -->
<svg xmlns="http://www.w3.org/2000/svg" xml:space="preserve" width="100%" height="100%" version="1.1" style="shape-rendering:geometricPrecision; text-rendering:geometricPrecision; image-rendering:optimizeQuality; fill-rule:evenodd; clip-rule:evenodd"
viewBox="0 0 3986.84 3986.84"
 xmlns:xlink="http://www.w3.org/1999/xlink"
 xmlns:xodm="http://www.corel.com/coreldraw/odm/2003">
 <defs>
  <style type="text/css">
   <![CDATA[
    .fil0 {fill:none;fill-rule:nonzero}
    .fil1 {fill:#8C2898;fill-rule:nonzero}
    .fil2 {fill:white;fill-rule:nonzero}
   ]]>
  </style>
   <clipPath id="id0" style="clip-rule:nonzero">
    <path d="M72.71 2110.34c1281.13,548.21 2561.28,581.62 3842.41,2.95 2.95,-40.28 3.93,-79.58 3.93,-119.86 0,-531.52 -215.16,-1012.92 -563.93,-1360.71 -348.78,-348.78 -829.2,-563.93 -1360.71,-563.93 -531.52,0 -1012.92,215.16 -1360.71,563.93 -348.78,348.78 -563.93,829.2 -563.93,1360.71 0,39.3 0.99,78.6 3.93,117.89l-0.99 -0.98z"/>
   </clipPath>
    <clipPath id="id1">
     <path d="M504.9 2275.56c963.01,324.15 1925.59,351.15 2888.57,39.68l0 -1643.14c-12.6,-13.32 -25.38,-26.45 -38.35,-39.39 -348.78,-348.78 -829.2,-563.93 -1360.71,-563.93 -531.52,0 -1012.92,215.16 -1360.71,563.93 -45.25,45.25 -88.23,92.73 -128.79,142.23l0 1500.62z"/>
    </clipPath>
    <clipPath id="id2">
     <path d="M72.71 2110.34c1281.13,548.21 2561.28,581.62 3842.41,2.95 2.95,-40.28 3.93,-79.58 3.93,-119.86 0,-531.52 -215.16,-1012.92 -563.93,-1360.71 -348.78,-348.78 -829.2,-563.93 -1360.71,-563.93 -531.52,0 -1012.92,215.16 -1360.71,563.93 -348.78,348.78 -563.93,829.2 -563.93,1360.71 0,39.3 0.99,78.6 3.93,117.89l-0.99 -0.98z"/>
    </clipPath>
 </defs>
 <g id="Layer_x0020_1">
  <metadata id="CorelCorpID_0Corel-Layer"/>
  <g>
  </g>
  <g style="clip-path:url(#id0)">
   <g id="_2718165217056">
   </g>
   <g style="clip-path:url(#id1)">
    <image x="504.9" y="-282.46" width="2888.56" height="3858.76" xlink:href="https://ik.imagekit.io/moearchive/calendar/nogi33/kuboshiori.png"/>
   </g>
   <g style="clip-path:url(#id2)">
   </g>
  </g>
  <path class="fil0" d="M72.71 2110.34c1281.13,548.21 2561.28,581.62 3842.41,2.95 2.95,-40.28 3.93,-79.58 3.93,-119.86 0,-531.52 -215.16,-1012.92 -563.93,-1360.71 -348.78,-348.78 -829.2,-563.93 -1360.71,-563.93 -531.52,0 -1012.92,215.16 -1360.71,563.93 -348.78,348.78 -563.93,829.2 -563.93,1360.71 0,39.3 0.99,78.6 3.93,117.89l-0.99 -0.98z"/>
  <path class="fil1" d="M1183.87 797.77c-47.15,31.44 -111.01,19.65 -142.46,-27.51 -31.44,-47.15 -19.65,-111.01 27.51,-142.46 21.62,-14.74 45.19,-29.47 68.77,-44.21 28.5,-17.68 52.07,-31.44 69.76,-41.26 50.1,-27.51 112.99,-8.84 139.51,41.26 27.51,50.1 8.84,112.99 -41.26,139.51 -26.52,14.74 -47.15,26.52 -61.9,35.37 -19.65,11.79 -40.28,24.56 -59.93,38.31l0 0.99zm809.55 -797.77c550.17,0 1049.27,223.02 1409.84,583.58 360.56,360.56 583.58,859.65 583.58,1409.84 0,550.17 -223.02,1049.27 -583.58,1409.84 -360.56,360.56 -859.65,583.58 -1409.84,583.58 -550.17,0 -1049.27,-223.02 -1409.84,-583.58 -360.56,-360.56 -583.58,-859.65 -583.58,-1409.84 0,-550.17 223.02,-1049.27 583.58,-1409.84 360.56,-360.56 859.65,-583.58 1409.84,-583.58zm-1920.71 2110.34c1281.13,548.21 2561.28,581.62 3842.41,2.95 2.95,-40.28 3.93,-79.58 3.93,-119.86 0,-531.52 -215.16,-1012.92 -563.93,-1360.71 -348.78,-348.78 -829.2,-563.93 -1360.71,-563.93 -531.52,0 -1012.92,215.16 -1360.71,563.93 -348.78,348.78 -563.93,829.2 -563.93,1360.71 0,39.3 0.99,78.6 3.93,117.89l-0.99 -0.98zm507.93 -411.65c-11.79,56.01 -65.82,91.37 -121.83,79.58 -56.01,-11.79 -91.37,-65.82 -79.58,-121.83 33.4,-159.15 89.4,-312.42 167.02,-453.9 77.61,-141.47 175.86,-272.14 291.79,-386.11 40.28,-40.28 106.11,-39.3 145.4,0.99 40.28,40.28 39.3,105.12 -0.99,145.4 -102.17,100.21 -187.65,214.17 -255.44,337.96 -67.79,123.79 -116.91,257.4 -146.39,396.91l0.01 1z"/>
  <path class="fil2" d="M489.9 2323.65l70.92 26.08c-4.08,19.57 -8.97,38.31 -14.67,56.24l133.68 48.91c44.01,22.01 66.84,59.5 69.29,110.85 0,61.14 -32.6,128.79 -98.63,203.79 54.61,101.89 131.24,191.56 229.05,268.18l0 83.96c-119.01,-88.04 -209.49,-192.38 -271.44,-311.38 -88.04,74.99 -187.48,108.41 -299.15,101.08l0 -81.51c85.59,3.26 163.84,-23.64 235.57,-80.69 85.59,-70.1 129.6,-137.76 131.24,-203.79 0,-12.23 -5.7,-21.19 -17.93,-26.9l-134.5 -49.73c-41.57,97.82 -104.34,161.4 -186.66,192.38l0 -86.4c88.85,-60.32 139.39,-144.28 152.43,-251.06l0.82 -0.01zm947.19 274.7c81.51,17.93 123.08,70.92 123.08,158.14 0,80.69 -35.05,117.38 -105.97,110.05l-270.63 -52.17 0 -264.11 254.32 48.91 -0.81 -0.82zm-190.74 161.4l194.82 37.5c34.24,5.7 50.54,-13.05 50.54,-57.88 0,-44.83 -18.75,-70.92 -56.24,-78.25l-189.12 -35.86 0 133.68 0 0.82zm-94.56 122.28l175.25 33.42 0 -52.99 67.66 13.05 0 52.99 176.07 33.42 0 68.47 -74.99 -14.67c19.57,68.47 46.47,122.27 81.51,163.03l0 88.04c-62.76,-60.32 -110.85,-148.35 -145.09,-263.29l-36.68 -7.34 0 244.54 -67.66 -13.05 0 -244.54 -35.05 -6.52c-17.93,100.26 -66.84,168.73 -145.09,207.05l0 -79.89c44.01,-32.6 71.73,-79.07 83.15,-138.57l-78.25 -14.67 0 -68.47 -0.82 -0.01zm-105.97 -128.79c-21.19,22.01 -44.01,39.94 -68.47,53.8l0 -89.66c51.35,-43.2 91.3,-110.05 118.19,-200.53l66.02 12.23c-13.05,48.09 -28.53,91.3 -48.09,128.79l0 527.39 -66.84 -13.05 0 -419.79 -0.81 0.82zm1102.07 -61.14c83.15,1.63 124.72,49.73 124.72,144.28 0,87.22 -35.86,134.5 -107.59,142.65l-137.76 2.44c-0.82,71.73 -15.49,130.42 -45.65,176.89 52.99,22.82 116.57,37.5 190.74,44.83 38.31,1.63 78.25,1.63 120.64,0.82l0 69.29c-168.73,0.82 -288.56,-20.38 -360.29,-62.76 -54.61,44.01 -133.68,66.84 -236.39,68.47l0 -68.47c70.92,-2.44 127.16,-17.11 169.55,-43.2 -54.61,-42.39 -92.92,-94.56 -116.57,-157.32l67.66 -0.82c22.82,44.83 55.43,82.33 98.63,112.49 27.72,-35.86 42.39,-82.33 44.01,-139.39l-223.34 2.44 0 -286.12 223.34 -3.26 0 -78.25 67.66 -0.82 0 78.25 120.64 -1.63 -0.01 -0.82zm-342.36 224.16l154.06 -1.63 0 -152.43 -154.06 2.44 0 151.62zm221.72 -154.87l0 152.43 124.72 -1.63c34.24,-0.82 51.35,-26.9 51.35,-76.63 0,-50.54 -18.75,-75.81 -57.06,-75.81l-119.01 1.63 0 0.01zm659.44 -138.57l88.04 -17.11 0 -70.1 66.84 -13.05 0 70.1 84.77 -16.31c2.44,-8.97 5.7,-17.11 8.15,-25.27l65.21 -12.23c-15.49,66.02 -44.83,131.24 -88.85,196.45l90.48 -17.11 0 65.21 -149.17 28.53c-14.67,17.11 -30.16,34.24 -47.27,52.17l68.47 -13.05c37.5,-7.34 66.02,2.44 86.4,30.16 21.19,24.45 32.6,58.69 34.24,102.71 -0.82,48.09 -10.6,87.22 -30.98,117.38 -21.19,35.86 -50.54,58.69 -86.4,68.47l-166.29 31.8 0 -251.06c-13.85,12.23 -27.72,23.64 -42.39,35.05l0 -75.81c31.8,-26.08 61.95,-52.99 88.85,-79.89l-83.96 16.31 0 -65.21 101.89 -19.57 0 -91.3 -88.04 17.11 0 -64.4zm154.06 110.04c21.19,-28.53 39.94,-57.06 54.61,-85.59l-54.61 10.6 0 75.81 0 -0.82zm-65.21 394.53l92.92 -17.93c30.98,-9.78 48.91,-36.68 55.43,-79.89l-149.17 28.53 0 68.47 0.82 0.82zm0 -132.05l149.17 -28.53c-5.7,-39.13 -24.45,-57.88 -54.61,-56.24l-93.74 17.93 0 66.84 -0.82 0zm-246.98 -413.27l75.81 -14.67 -123.08 195.63 46.47 -8.97 70.1 -114.93 76.63 -14.67 -167.92 271.44 68.47 -13.05c11.41,-2.44 16.31,-11.41 16.31,-29.34l0 -53.8 57.88 -11.41 0 79.89c0,40.76 -20.38,66.02 -61.14,75.81l-18.75 3.26 0 289.38 -61.95 11.41 0 -289.38 -42.39 8.15c-29.34,5.7 -44.01,-4.89 -44.01,-30.98 0,-7.34 5.7,-20.38 17.93,-39.13l45.65 -73.36 -51.35 9.78c-18.75,0 -27.72,-11.41 -27.72,-35.86 0,-8.15 3.26,-17.93 9.78,-28.53l114.12 -189.12 -0.84 2.44zm-94.56 416.53l54.61 -10.6c-1.63,123.08 -27.72,211.12 -79.89,263.29l0 -89.66c17.11,-36.68 25.27,-91.3 25.27,-163.03l0.01 0zm156.51 -31.79l52.99 -9.78c0.82,53.8 7.34,97 19.57,129.6l0 123.9c-39.94,-43.2 -64.4,-123.9 -72.55,-242.91l0 -0.82zm626.02 -315.46l0 77.43 142.65 -52.17 0 -77.43 -142.65 52.17zm142.65 94.56l-207.05 75.81 0 -357.03 353.77 -129.6c99.44,-36.68 150.8,3.26 152.43,120.64 0,114.12 -42.39,189.92 -128.79,227.42l-105.15 38.31 0 64.4 226.61 -83.15 0 70.92 -226.61 83.15 0 67.66 253.5 -92.92 0 72.55 -568.16 208.67 0 -72.55 249.44 -91.3 0 -67.66 -220.08 80.69 0 -70.92 220.08 -80.69 0 -64.4 0.01 0zm65.2 -93.74l96.18 -35.05c40.76,-21.19 64.4,-55.43 71.73,-104.34l-167.92 61.95 0 77.43 0 0.01zm167.92 -202.15c-8.15,-49.73 -36.68,-66.02 -86.4,-47.27l-81.51 30.16 0 79.07 167.92 -61.95 0 -0.01zm-233.12 6.52l-142.65 52.17 0 79.07 142.65 -52.17 0 -79.07z"/>
 </g>
</svg>
