<?xml version="1.0" encoding="UTF-8"?>
<!DOCTYPE svg PUBLIC "-//W3C//DTD SVG 1.1//EN" "http://www.w3.org/Graphics/SVG/1.1/DTD/svg11.dtd">
<!-- Creator: CorelDRAW 2021.5 -->
<svg xmlns="http://www.w3.org/2000/svg" xml:space="preserve" width="100%" height="100%" version="1.1" style="shape-rendering:geometricPrecision; text-rendering:geometricPrecision; image-rendering:optimizeQuality; fill-rule:evenodd; clip-rule:evenodd"
viewBox="0 0 3986.84 3986.84"
 xmlns:xlink="http://www.w3.org/1999/xlink"
 xmlns:xodm="http://www.corel.com/coreldraw/odm/2003">
 <defs>
  <style type="text/css">
   <![CDATA[
    .fil0 {fill:none;fill-rule:nonzero}
    .fil1 {fill:#8C2898;fill-rule:nonzero}
    .fil2 {fill:#FEFEFE;fill-rule:nonzero}
   ]]>
  </style>
   <clipPath id="id0" style="clip-rule:nonzero">
    <path d="M72.71 2110.34c1281.13,548.21 2561.28,581.62 3842.41,2.95 2.95,-40.28 3.93,-79.58 3.93,-119.86 0,-531.52 -215.16,-1012.92 -563.93,-1360.71 -348.78,-348.78 -829.2,-563.93 -1360.71,-563.93 -531.52,0 -1012.92,215.16 -1360.71,563.93 -348.78,348.78 -563.93,829.2 -563.93,1360.71 0,39.3 0.99,78.6 3.93,117.89l-0.99 -0.98z"/>
   </clipPath>
    <clipPath id="id1">
     <path d="M504.9 2275.56c963.01,324.15 1925.59,351.15 2888.57,39.68l0 -1643.14c-12.6,-13.32 -25.38,-26.45 -38.35,-39.39 -348.78,-348.78 -829.2,-563.93 -1360.71,-563.93 -531.52,0 -1012.92,215.16 -1360.71,563.93 -45.25,45.25 -88.23,92.73 -128.79,142.23l0 1500.62z"/>
    </clipPath>
    <clipPath id="id2">
     <path d="M72.71 2110.34c1281.13,548.21 2561.28,581.62 3842.41,2.95 2.95,-40.28 3.93,-79.58 3.93,-119.86 0,-531.52 -215.16,-1012.92 -563.93,-1360.71 -348.78,-348.78 -829.2,-563.93 -1360.71,-563.93 -531.52,0 -1012.92,215.16 -1360.71,563.93 -348.78,348.78 -563.93,829.2 -563.93,1360.71 0,39.3 0.99,78.6 3.93,117.89l-0.99 -0.98z"/>
    </clipPath>
 </defs>
 <g id="Layer_x0020_1">
  <metadata id="CorelCorpID_0Corel-Layer"/>
  <g>
  </g>
  <g style="clip-path:url(#id0)">
   <g id="_2682478601168">
   </g>
   <g style="clip-path:url(#id1)">
    <image x="504.9" y="-282.46" width="2888.56" height="3858.76" xlink:href="https://ik.imagekit.io/moearchive/calendar/nogi33/mukaihazuki.png"/>
   </g>
   <g style="clip-path:url(#id2)">
   </g>
  </g>
  <path class="fil0" d="M72.71 2110.34c1281.13,548.21 2561.28,581.62 3842.41,2.95 2.95,-40.28 3.93,-79.58 3.93,-119.86 0,-531.52 -215.16,-1012.92 -563.93,-1360.71 -348.78,-348.78 -829.2,-563.93 -1360.71,-563.93 -531.52,0 -1012.92,215.16 -1360.71,563.93 -348.78,348.78 -563.93,829.2 -563.93,1360.71 0,39.3 0.99,78.6 3.93,117.89l-0.99 -0.98z"/>
  <path class="fil1" d="M1183.87 797.77c-47.15,31.44 -111.01,19.65 -142.46,-27.51 -31.44,-47.15 -19.65,-111.01 27.51,-142.46 21.62,-14.74 45.19,-29.47 68.77,-44.21 28.5,-17.68 52.07,-31.44 69.76,-41.26 50.1,-27.51 112.99,-8.84 139.51,41.26 27.51,50.1 8.84,112.99 -41.26,139.51 -26.52,14.74 -47.15,26.52 -61.9,35.37 -19.65,11.79 -40.28,24.56 -59.93,38.31l0 0.99zm809.55 -797.77c550.17,0 1049.27,223.02 1409.84,583.58 360.56,360.56 583.58,859.65 583.58,1409.84 0,550.17 -223.02,1049.27 -583.58,1409.84 -360.56,360.56 -859.65,583.58 -1409.84,583.58 -550.17,0 -1049.27,-223.02 -1409.84,-583.58 -360.56,-360.56 -583.58,-859.65 -583.58,-1409.84 0,-550.17 223.02,-1049.27 583.58,-1409.84 360.56,-360.56 859.65,-583.58 1409.84,-583.58zm-1920.71 2110.34c1281.13,548.21 2561.28,581.62 3842.41,2.95 2.95,-40.28 3.93,-79.58 3.93,-119.86 0,-531.52 -215.16,-1012.92 -563.93,-1360.71 -348.78,-348.78 -829.2,-563.93 -1360.71,-563.93 -531.52,0 -1012.92,215.16 -1360.71,563.93 -348.78,348.78 -563.93,829.2 -563.93,1360.71 0,39.3 0.99,78.6 3.93,117.89l-0.99 -0.98zm507.93 -411.65c-11.79,56.01 -65.82,91.37 -121.83,79.58 -56.01,-11.79 -91.37,-65.82 -79.58,-121.83 33.4,-159.15 89.4,-312.42 167.02,-453.9 77.61,-141.47 175.86,-272.14 291.79,-386.11 40.28,-40.28 106.11,-39.3 145.4,0.99 40.28,40.28 39.3,105.12 -0.99,145.4 -102.17,100.21 -187.65,214.17 -255.44,337.96 -67.79,123.79 -116.91,257.4 -146.39,396.91l0.01 1z"/>
  <path class="fil2" d="M680.29 2424.81l171.98 48.3c11.19,-17.08 21.79,-34.16 31.81,-50.06l73.04 20.61c-8.24,18.85 -17.67,35.93 -27.68,51.24l137.83 38.28c76.57,33.57 124.87,96.59 143.72,190.24 9.42,37.11 14.13,84.22 14.13,140.77 0,99.54 -3.54,151.96 -10.02,157.26 -12.37,87.76 -64.79,121.92 -158.44,103.07 -45.35,-12.96 -82.46,-24.74 -111.91,-35.93l0.59 -71.85c27.68,12.37 62.43,24.15 103.07,35.34 58.31,10.02 91.29,-9.42 98.95,-58.31 5.3,-14.13 8.24,-61.26 8.24,-140.77 0,-62.43 -3.54,-109.55 -10.61,-141.94 -9.42,-52.42 -38.87,-88.94 -88.35,-109.55l-308.63 -85.4 0 531.27 -66.55 -17.67 0 -604.3 -1.18 -0.61zm196.72 258.57l0 202.61 98.36 27.68c38.28,2.35 58.31,-28.86 60.07,-93.06 -2.94,-57.72 -25.91,-94.83 -69.5,-112.5l-88.94 -24.74 0.01 0.01zm116.03 301.56l-180.81 -50.65 0 -334.55 173.16 48.3c36.52,12.96 64.2,36.52 83.05,69.5 21.2,36.52 31.81,78.92 31.81,127.22 0,50.65 -10.61,88.35 -31.81,111.91 -18.85,26.5 -44.17,35.34 -75.39,27.68l0 0.59zm374.59 -341.61l116.62 11.78 0 -104.84 66.55 7.07 0 104.84 197.9 20.02 0 -104.84 68.91 7.07 0 104.84 110.72 11.19 0 72.44 -110.72 -11.19 0 206.14 131.93 13.55 0 74.22 -131.93 -13.55 0 210.85 -68.91 -7.07 0 -210.85 -228.53 -23.56c-7.65,25.91 -17.08,50.06 -27.68,72.44 -34.16,68.91 -67.15,111.32 -99.54,127.22l0 -100.13c24.74,-28.27 44.17,-64.2 58.31,-107.2l-104.25 -10.61 0 -74.22 122.51 12.37c8.24,-45.35 12.96,-96 12.96,-151.96l0.59 -53.01 -116.62 -11.78 0 -72.44 1.19 1.2zm183.18 91.29l0 55.37c-0.59,53.01 -4.71,103.07 -13.55,149.61l210.85 21.79 0 -206.14 -197.9 -20.02 0.59 -0.6zm515.96 -99.53l140.77 -14.72 0 -36.52 65.96 -7.07 0 36.52 178.46 -18.26 0 -36.52 65.96 -7.07 0 36.52 136.05 -14.13 0 63.02 -136.05 14.13 0 31.81 -65.96 7.07 0 -31.81 -178.46 18.26 0 35.34 -65.96 7.07 0 -35.34 -140.77 14.72 0 -63.02zm7.65 143.71l59.48 -5.89c0,-10.02 0,-20.02 0,-31.22l63.02 -5.89c0,10.02 0,20.02 0,30.63l88.35 -8.83 0 -34.75 60.07 -6.48 0 34.75 136.05 -14.13 0 -34.75 64.79 -6.48 0 34.75 96.59 -10.02 0 60.67 -96.59 10.02 0 28.27c-3.54,38.28 -24.15,59.48 -63.02,63.61l-147.83 15.31c-26.5,-2.94 -43.59,-18.26 -50.06,-47.11l0 -32.39 -88.35 8.83c0,16.5 0,33.57 0,51.83 1.18,41.82 38.87,58.9 114.26,51.24 114.26,-11.78 216.16,-27.68 305.09,-47.71l0 63.02c-40.05,10.02 -114.26,21.79 -222.64,34.75l0 25.91 258.57 -26.5 0 64.2 -139 14.13c29.45,43 74.22,66.55 133.7,68.91l0 68.32c-95.42,-0.59 -164.33,-43.59 -206.74,-129.57l-47.11 4.71 0 160.79 -65.96 7.07 0 -160.79 -45.35 4.71c-37.7,83.05 -106.02,141.35 -205.55,174.93l0 -70.09c58.31,-20.61 101.89,-53.01 130.76,-97.18l-137.83 14.13 0 -64.2 257.98 -26.5 0 -25.33c-10.02,1.18 -19.44,1.76 -28.27,2.94 -103.66,10.61 -159.03,-18.85 -166.09,-89.52 0,-22.39 0,-44.76 0,-67.15l-59.48 5.89 0 -60.67 1.17 -1.18zm271.52 32.39l0 10.61c0,10.61 2.94,15.91 8.24,17.08l117.2 -12.37c7.07,-0.59 10.61,-4.71 10.61,-12.96l0 -16.5 -136.05 14.13zm506.52 -296.84l312.16 -87.17c38.87,-8.24 70.68,-4.13 94.24,11.19 22.39,17.67 34.75,44.76 37.7,81.28 6.48,51.24 9.42,114.85 10.02,192.01 0,71.26 -2.35,136.65 -7.65,197.31 -10.61,80.11 -50.65,129.57 -120.74,149.01 -73.63,20.61 -133.11,34.16 -180.23,40.64l0 -68.91c68.32,-13.55 122.51,-25.91 162.56,-37.11 43.59,-12.37 68.32,-40.05 73.63,-83.63 1.18,-14.72 2.35,-32.39 2.94,-51.83l-338.66 94.24c-8.83,75.39 -19.44,143.72 -31.81,204.38l-68.32 18.26c14.13,-67.74 25.33,-146.66 35.34,-236.18 11.19,-103.07 17.08,-201.44 18.26,-295.08l0 -128.98 0.57 0.59zm54.78 363.4l331.6 -92.47c0,-15.31 0,-31.81 0,-49.48 -0.59,-22.39 -1.18,-44.17 -1.76,-65.37l-321 89.52c-1.76,40.05 -4.71,79.52 -8.83,117.8zm12.37 -190.83l312.75 -87.17c-1.76,-19.44 -3.54,-38.28 -5.3,-55.96 -1.76,-37.7 -21.79,-53.59 -59.48,-48.3l-246.79 68.91 0 59.48c-0.59,21.79 -1.18,43 -1.18,64.2l0 -1.17z"/>
 </g>
</svg>
