<?xml version="1.0" encoding="UTF-8"?>
<!DOCTYPE svg PUBLIC "-//W3C//DTD SVG 1.1//EN" "http://www.w3.org/Graphics/SVG/1.1/DTD/svg11.dtd">
<!-- Creator: CorelDRAW 2021.5 -->
<svg xmlns="http://www.w3.org/2000/svg" xml:space="preserve" width="100%" height="100%" version="1.1" style="shape-rendering:geometricPrecision; text-rendering:geometricPrecision; image-rendering:optimizeQuality; fill-rule:evenodd; clip-rule:evenodd"
viewBox="0 0 3986.84 3986.84"
 xmlns:xlink="http://www.w3.org/1999/xlink"
 xmlns:xodm="http://www.corel.com/coreldraw/odm/2003">
 <defs>
  <style type="text/css">
   <![CDATA[
    .fil0 {fill:none;fill-rule:nonzero}
    .fil1 {fill:#8C2898;fill-rule:nonzero}
    .fil2 {fill:#FEFEFE;fill-rule:nonzero}
   ]]>
  </style>
   <clipPath id="id0" style="clip-rule:nonzero">
    <path d="M72.71 2110.34c1281.13,548.21 2561.28,581.62 3842.41,2.95 2.95,-40.28 3.93,-79.58 3.93,-119.86 0,-531.52 -215.16,-1012.92 -563.93,-1360.71 -348.78,-348.78 -829.2,-563.93 -1360.71,-563.93 -531.52,0 -1012.92,215.16 -1360.71,563.93 -348.78,348.78 -563.93,829.2 -563.93,1360.71 0,39.3 0.99,78.6 3.93,117.89l-0.99 -0.98z"/>
   </clipPath>
    <clipPath id="id1">
     <path d="M504.9 2275.56c963.01,324.15 1925.59,351.15 2888.57,39.68l0 -1643.14c-12.6,-13.32 -25.38,-26.45 -38.35,-39.39 -348.78,-348.78 -829.2,-563.93 -1360.71,-563.93 -531.52,0 -1012.92,215.16 -1360.71,563.93 -45.25,45.25 -88.23,92.73 -128.79,142.23l0 1500.62z"/>
    </clipPath>
    <clipPath id="id2">
     <path d="M72.71 2110.34c1281.13,548.21 2561.28,581.62 3842.41,2.95 2.95,-40.28 3.93,-79.58 3.93,-119.86 0,-531.52 -215.16,-1012.92 -563.93,-1360.71 -348.78,-348.78 -829.2,-563.93 -1360.71,-563.93 -531.52,0 -1012.92,215.16 -1360.71,563.93 -348.78,348.78 -563.93,829.2 -563.93,1360.71 0,39.3 0.99,78.6 3.93,117.89l-0.99 -0.98z"/>
    </clipPath>
 </defs>
 <g id="Layer_x0020_1">
  <metadata id="CorelCorpID_0Corel-Layer"/>
  <g>
  </g>
  <g style="clip-path:url(#id0)">
   <g id="_2682486670528">
   </g>
   <g style="clip-path:url(#id1)">
    <image x="504.9" y="-282.46" width="2888.56" height="3858.76" xlink:href="https://ik.imagekit.io/moearchive/calendar/nogi35fix/nakamurareno.png"/>
   </g>
   <g style="clip-path:url(#id2)">
   </g>
  </g>
  <path class="fil0" d="M72.71 2110.34c1281.13,548.21 2561.28,581.62 3842.41,2.95 2.95,-40.28 3.93,-79.58 3.93,-119.86 0,-531.52 -215.16,-1012.92 -563.93,-1360.71 -348.78,-348.78 -829.2,-563.93 -1360.71,-563.93 -531.52,0 -1012.92,215.16 -1360.71,563.93 -348.78,348.78 -563.93,829.2 -563.93,1360.71 0,39.3 0.99,78.6 3.93,117.89l-0.99 -0.98z"/>
  <path class="fil1" d="M1183.87 797.77c-47.15,31.44 -111.01,19.65 -142.46,-27.51 -31.44,-47.15 -19.65,-111.01 27.51,-142.46 21.62,-14.74 45.19,-29.47 68.77,-44.21 28.5,-17.68 52.07,-31.44 69.76,-41.26 50.1,-27.51 112.99,-8.84 139.51,41.26 27.51,50.1 8.84,112.99 -41.26,139.51 -26.52,14.74 -47.15,26.52 -61.9,35.37 -19.65,11.79 -40.28,24.56 -59.93,38.31l0 0.99zm809.55 -797.77c550.17,0 1049.27,223.02 1409.84,583.58 360.56,360.56 583.58,859.65 583.58,1409.84 0,550.17 -223.02,1049.27 -583.58,1409.84 -360.56,360.56 -859.65,583.58 -1409.84,583.58 -550.17,0 -1049.27,-223.02 -1409.84,-583.58 -360.56,-360.56 -583.58,-859.65 -583.58,-1409.84 0,-550.17 223.02,-1049.27 583.58,-1409.84 360.56,-360.56 859.65,-583.58 1409.84,-583.58zm-1920.71 2110.34c1281.13,548.21 2561.28,581.62 3842.41,2.95 2.95,-40.28 3.93,-79.58 3.93,-119.86 0,-531.52 -215.16,-1012.92 -563.93,-1360.71 -348.78,-348.78 -829.2,-563.93 -1360.71,-563.93 -531.52,0 -1012.92,215.16 -1360.71,563.93 -348.78,348.78 -563.93,829.2 -563.93,1360.71 0,39.3 0.99,78.6 3.93,117.89l-0.99 -0.98zm507.93 -411.65c-11.79,56.01 -65.82,91.37 -121.83,79.58 -56.01,-11.79 -91.37,-65.82 -79.58,-121.83 33.4,-159.15 89.4,-312.42 167.02,-453.9 77.61,-141.47 175.86,-272.14 291.79,-386.11 40.28,-40.28 106.11,-39.3 145.4,0.99 40.28,40.28 39.3,105.12 -0.99,145.4 -102.17,100.21 -187.65,214.17 -255.44,337.96 -67.79,123.79 -116.91,257.4 -146.39,396.91l0.01 1z"/>
  <path class="fil2" d="M886.65 2427.17l69.62 19.34 0 106.36 92.82 25.78c103.78,29 156.63,105.71 158.57,230.77 0,119.89 -44.47,171.46 -133.43,153.41l-117.96 -32.87 0 183.07 -69.62 -19.34 0 -183.07 -223.67 -62.52 0 -377.73 223.67 62.52 0 -106.36 0 0.64zm0 177.27l-157.28 -43.84 0 233.99 157.28 43.84 0 -233.99zm69.62 253.33l107.64 30.3c51.57,6.45 77.35,-24.5 77.35,-94.11 0,-78.64 -30.94,-126.98 -92.18,-144.39l-92.82 -25.78 0 233.99zm371.93 -261.71l101.84 10.32 0 -63.17 65.75 6.45 0 63.17 101.84 10.32 0 73.49 -21.27 -1.93c0.65,189.51 7.73,360.33 19.98,512.46l-56.08 -5.15c-12.25,-102.49 -18.7,-273.31 -19.98,-513.74l-24.5 -2.58 0 534.37 -65.75 -6.45 0 -534.37 -23.2 -2.58c-1.93,175.98 -7.09,345.5 -15.47,508.59l-61.24 -6.45c12.89,-159.21 19.98,-328.1 19.98,-507.94l-22.57 -2.58 0 -73.49 0.66 1.29zm292 30.94l175.98 18.05c-0.65,-20.63 -1.93,-41.25 -3.22,-61.24l70.26 7.09c1.29,17.4 2.58,38.03 3.22,61.24l56.08 5.8 0 71.55 -54.14 -5.8c1.29,62.52 1.93,138.59 1.93,228.83 0,108.94 -3.87,180.48 -11.6,214 -11.6,50.27 -51.57,72.19 -119.25,65.11 -39.97,-3.87 -71.55,-10.32 -96.04,-18.7l0 -69.62c27.72,9.02 59.95,14.82 96.04,18.7 38.03,3.87 56.72,-8.38 56.72,-38.03 3.87,-21.92 6.45,-78.64 6.45,-168.24 0,-83.16 -1.29,-163.08 -3.22,-239.79l-179.2 -18.05 0 -71.55 -0.02 0.66zm6.45 116.03l64.46 6.45c18.05,100.56 32.23,221.74 43.19,364.2l-67.69 -7.09c-7.73,-121.83 -21.27,-243.02 -39.97,-363.55l0.01 -0.01zm434.46 -136.66l264.93 -27.07 0 63.82 -264.93 27.07 0 -63.82zm153.41 531.15c0,24.5 11.6,36.1 34.17,33.52 65.75,-7.09 100.56,-11.6 103.78,-15.47l0 63.82c-9.02,2.58 -53.5,8.38 -133.43,16.75 -47.05,0 -70.26,-27.07 -70.26,-80.57 0,-34.81 0.65,-67.04 1.29,-97.34l-30.3 3.22c-4.52,64.46 -10.95,126.98 -18.7,186.29l-64.46 7.09c17.4,-94.76 26.43,-194.02 26.43,-297.81 0.65,-31.59 1.29,-67.04 1.29,-106.36l237.86 -23.85 0 -19.34 -43.84 4.52c6.45,-25.14 9.67,-47.05 9.67,-65.11 0,-14.18 -8.38,-21.92 -25.14,-22.57l-112.16 11.6 0 93.47 -58.02 5.8 0 -146.33 183.07 -18.7c25.78,-2.58 43.84,1.93 53.5,13.54 11.6,14.82 18.05,32.87 18.05,54.79 0,18.05 -1.93,34.17 -5.8,47.7l34.17 -3.22 0 -121.83 182.42 -18.7c25.78,-2.58 43.19,1.93 53.5,13.54 12.25,14.82 18.05,32.87 18.05,54.14 0,29 -2.58,52.86 -8.38,70.91l-58.02 5.8c4.52,-26.43 7.09,-48.99 7.09,-68.32 0,-14.18 -7.73,-21.92 -24.5,-22.57l-112.16 11.6 0 89.59 -43.19 4.52 0 17.4 254.62 -26.43 0 56.08 -169.53 17.4 0 29.65 109.58 -11.6c38.03,1.93 56.72,22.57 56.72,60.59 0,42.54 -19.34,65.75 -57.37,69.62l-125.7 12.89c-1.29,10.95 -1.29,22.57 -1.93,34.81 59.95,-10.32 121.83,-23.2 184.35,-36.74l0 60.59c-50.92,11.6 -112.16,23.2 -183.07,34.17 0.65,1.29 0.65,2.58 0.65,3.87 6.45,19.98 24.5,28.37 53.5,25.78 56.08,-7.09 102.49,-14.82 138.59,-23.2l0 61.24c-22.57,8.38 -72.19,16.12 -148.9,24.5 -59.3,5.8 -93.47,-11.6 -102.49,-52.21 -2.58,-18.7 -3.87,-38.67 -3.87,-59.95 0,-22.57 0.65,-44.47 1.93,-66.39l-163.08 16.75c0,10.95 0,20.63 -0.65,29.65l129.56 -13.54 0 56.08 -129.56 13.54 0.66 1.32zm132.79 -560.8l268.79 -27.72 0 63.82 -268.79 27.72 0 -63.82zm-124.41 313.92l-97.98 9.67c0,10.32 0,20.63 0,30.3l97.98 -10.32 0 -29.65zm0 77.35l-98.62 10.32c-0.65,9.67 -1.29,19.98 -1.29,29.65l99.91 -10.32 0 -29.65zm61.89 23.2l106.36 -10.95 0 -29.65 -106.36 10.95 0 29.65zm0 -78l106.36 -10.95 0 -29.65 -106.36 10.95 0 29.65zm172.1 59.95l85.09 -9.02c10.32,-1.29 15.47,-6.45 15.47,-15.47 0,-10.32 -4.52,-14.82 -14.18,-14.18l-86.37 9.02 0 29.65zm-302.31 -221.1c30.3,-1.29 58.02,-1.29 83.79,0l0 56.72c-28.37,-1.93 -56.08,-3.22 -83.79,-3.87l0 -53.5 0 0.65zm280.39 -30.94c32.23,0 60.59,1.93 87.02,5.15l0 58.02c-28.37,-5.15 -57.37,-8.38 -87.02,-9.67l0 -53.5zm354.53 -192.09l367.42 -102.49c43.84,-5.15 65.11,18.05 65.11,68.97 0,17.4 -9.67,56.72 -28.37,119.25l46.41 -13.54c56.08,-8.38 83.79,15.47 83.79,71.55 0,134.08 -7.09,220.45 -21.92,260.42 -14.18,55.44 -48.99,92.82 -105.71,112.16 -50.92,12.25 -102.49,24.5 -154.7,37.39l0 -70.91c46.41,-9.02 94.11,-20.63 144.39,-34.17 30.3,-11.6 48.99,-34.17 55.44,-67.04 9.02,-19.98 13.54,-88.96 13.54,-207.57 0,-27.07 -12.25,-37.39 -38.03,-30.3l-119.25 33.52c36.1,-111.51 54.79,-173.4 54.79,-185 0,-11.6 -5.15,-18.7 -16.12,-19.98l-178.55 49.64 0 30.3c-12.25,304.25 -77.35,504.08 -194.02,599.47l0 -79.29c76.06,-84.44 119.89,-252.69 130.21,-505.36l0 -27.72 -103.14 29 -0.65 -68.97 -0.64 0.66z"/>
 </g>
</svg>
