<?xml version="1.0" encoding="UTF-8"?>
<!DOCTYPE svg PUBLIC "-//W3C//DTD SVG 1.1//EN" "http://www.w3.org/Graphics/SVG/1.1/DTD/svg11.dtd">
<!-- Creator: CorelDRAW 2021.5 -->
<svg xmlns="http://www.w3.org/2000/svg" xml:space="preserve" width="100%" height="100%" version="1.1" style="shape-rendering:geometricPrecision; text-rendering:geometricPrecision; image-rendering:optimizeQuality; fill-rule:evenodd; clip-rule:evenodd"
viewBox="0 0 143.89 143.89"
 xmlns:xlink="http://www.w3.org/1999/xlink"
 xmlns:xodm="http://www.corel.com/coreldraw/odm/2003">
 <defs>
  <style type="text/css">
   <![CDATA[
    .fil0 {fill:none;fill-rule:nonzero}
    .fil1 {fill:#8C2898;fill-rule:nonzero}
    .fil2 {fill:white;fill-rule:nonzero}
   ]]>
  </style>
   <clipPath id="id0" style="clip-rule:nonzero">
    <path d="M2.62 76.17c46.24,19.79 92.44,20.99 138.68,0.11 0.11,-1.45 0.14,-2.87 0.14,-4.33 0,-19.18 -7.77,-36.56 -20.35,-49.11 -12.59,-12.59 -29.93,-20.35 -49.11,-20.35 -19.18,0 -36.56,7.77 -49.11,20.35 -12.59,12.59 -20.35,29.93 -20.35,49.11 0,1.42 0.04,2.84 0.14,4.25l-0.04 -0.04z"/>
   </clipPath>
    <clipPath id="id1">
     <path d="M18.22 82.13c34.76,11.7 69.5,12.67 104.25,1.43l0 -59.3c-0.45,-0.48 -0.92,-0.95 -1.38,-1.42 -12.59,-12.59 -29.93,-20.35 -49.11,-20.35 -19.18,0 -36.56,7.77 -49.11,20.35 -1.63,1.63 -3.18,3.35 -4.65,5.13l0 54.16z"/>
    </clipPath>
    <clipPath id="id2">
     <path d="M2.62 76.17c46.24,19.79 92.44,20.99 138.68,0.11 0.11,-1.45 0.14,-2.87 0.14,-4.33 0,-19.18 -7.77,-36.56 -20.35,-49.11 -12.59,-12.59 -29.93,-20.35 -49.11,-20.35 -19.18,0 -36.56,7.77 -49.11,20.35 -12.59,12.59 -20.35,29.93 -20.35,49.11 0,1.42 0.04,2.84 0.14,4.25l-0.04 -0.04z"/>
    </clipPath>
 </defs>
 <g id="Layer_x0020_1">
  <metadata id="CorelCorpID_0Corel-Layer"/>
  <g>
  </g>
  <g style="clip-path:url(#id0)">
   <g id="_1788431244224">
   </g>
   <g style="clip-path:url(#id1)">
    <image x="18.22" y="-10.19" width="104.25" height="139.27" xlink:href="https://ik.imagekit.io/moearchive/calendar/nogi27/oozonomomoko.png"/>
   </g>
   <g style="clip-path:url(#id2)">
   </g>
  </g>
  <path class="fil0" d="M2.62 76.17c46.24,19.79 92.44,20.99 138.68,0.11 0.11,-1.45 0.14,-2.87 0.14,-4.33 0,-19.18 -7.77,-36.56 -20.35,-49.11 -12.59,-12.59 -29.93,-20.35 -49.11,-20.35 -19.18,0 -36.56,7.77 -49.11,20.35 -12.59,12.59 -20.35,29.93 -20.35,49.11 0,1.42 0.04,2.84 0.14,4.25l-0.04 -0.04z"/>
  <path class="fil1" d="M42.73 28.79c-1.7,1.13 -4.01,0.71 -5.14,-0.99 -1.13,-1.7 -0.71,-4.01 0.99,-5.14 0.78,-0.53 1.63,-1.06 2.48,-1.6 1.03,-0.64 1.88,-1.13 2.52,-1.49 1.81,-0.99 4.08,-0.32 5.04,1.49 0.99,1.81 0.32,4.08 -1.49,5.04 -0.96,0.53 -1.7,0.96 -2.23,1.28 -0.71,0.43 -1.45,0.89 -2.16,1.38l0 0.04zm29.22 -28.79c19.86,0 37.87,8.05 50.88,21.06 13.01,13.01 21.06,31.03 21.06,50.88 0,19.86 -8.05,37.87 -21.06,50.88 -13.01,13.01 -31.03,21.06 -50.88,21.06 -19.86,0 -37.87,-8.05 -50.88,-21.06 -13.01,-13.01 -21.06,-31.03 -21.06,-50.88 0,-19.86 8.05,-37.87 21.06,-50.88 13.01,-13.01 31.03,-21.06 50.88,-21.06zm-69.32 76.17c46.24,19.79 92.44,20.99 138.68,0.11 0.11,-1.45 0.14,-2.87 0.14,-4.33 0,-19.18 -7.77,-36.56 -20.35,-49.11 -12.59,-12.59 -29.93,-20.35 -49.11,-20.35 -19.18,0 -36.56,7.77 -49.11,20.35 -12.59,12.59 -20.35,29.93 -20.35,49.11 0,1.42 0.04,2.84 0.14,4.25l-0.04 -0.04zm18.33 -14.86c-0.43,2.02 -2.38,3.3 -4.4,2.87 -2.02,-0.43 -3.3,-2.38 -2.87,-4.4 1.21,-5.74 3.23,-11.28 6.03,-16.38 2.8,-5.11 6.35,-9.82 10.53,-13.94 1.45,-1.45 3.83,-1.42 5.25,0.04 1.45,1.45 1.42,3.79 -0.04,5.25 -3.69,3.62 -6.77,7.73 -9.22,12.2 -2.45,4.47 -4.22,9.29 -5.28,14.33l0 0.04z"/>
  <path class="fil2" d="M23.6 93.32l8.64 1.91 -0.02 -4.62 2.49 0.55 0 4.61 8.81 1.94 0 2.45 -8.76 -1.93c0.87,6.13 3.9,10.75 9.08,13.88l0 2.7c-5.05,-2.74 -8.45,-6.79 -10.19,-12.16 -0.54,1.43 -1.3,2.66 -2.25,3.69 -1.92,2.16 -4.63,3.45 -8.13,3.88l0 -2.58c2.76,-0.6 4.88,-1.83 6.37,-3.68 1.4,-1.65 2.24,-3.76 2.52,-6.31l-8.54 -1.88 0 -2.45zm39.07 2.49c2.06,0.42 3.69,1.62 4.89,3.61 1.09,1.77 1.67,4.12 1.75,7.05 0,3.59 -0.54,6.1 -1.61,7.54 -1.12,1.85 -2.73,2.82 -4.84,2.91l-14.54 -1.3 0 -21.1 14.35 1.29zm-11.88 17.75l12 1.08c1.4,-0.06 2.39,-0.83 2.96,-2.31 0.69,-1.47 1.04,-3.43 1.04,-5.85 -0.06,-2.42 -0.46,-4.34 -1.18,-5.76 -0.72,-1.55 -1.82,-2.46 -3.28,-2.72l-11.53 -1.03 0 16.61zm2.12 -14.73l4.42 0.4 0 -0.96 2.15 0.19 0 0.96 4.71 0.42 0 1.69 -4.71 -0.42 0 0.89 5.43 0.49 0 1.76 -12.69 -1.14 0 -1.76 5.11 0.46 0 -0.89 -4.42 -0.4 0 -1.69zm4.27 11.04c-1.14,1.48 -2.76,2.35 -4.89,2.61l0 -1.98c1.46,-0.33 2.57,-0.95 3.31,-1.86l-2.47 -0.22 0 -4.49 8.15 0.73c0.74,0.1 1.32,0.35 1.75,0.75 0.51,0.44 0.76,0.97 0.76,1.58 0,0.74 -0.21,1.29 -0.62,1.63 -0.36,0.38 -0.91,0.56 -1.66,0.54l-1.18 -0.11c0.3,0.37 0.68,0.73 1.16,1.07 1.02,-0.74 2.14,-1.12 3.36,-1.14l0 1.59c-0.58,0.01 -1.16,0.17 -1.75,0.46 0.41,0.2 0.85,0.39 1.31,0.57l0 2.13c-2.21,-0.89 -3.91,-1.97 -5.11,-3.26l0 3.13 -2.12 -0.19 0 -3.54zm-2 -3.03l5.9 0.53c0.54,0.05 0.81,-0.11 0.81,-0.47 0,-0.36 -0.34,-0.58 -1.01,-0.66l-5.7 -0.51 0 1.12zm18.12 -9.21l3.33 -0.33 0 -1.96 2.24 -0.22 0 1.96 2.93 -0.29 0 2.25 -0.44 0.04c0.01,6.39 0.22,12.12 0.61,17.19l-1.97 0.22c-0.29,-3.36 -0.44,-9.1 -0.44,-17.23l-0.69 0.07 0 18.14 -2.24 0.22 0 -18.14 -0.69 0.07c-0.1,6.01 -0.28,11.79 -0.54,17.35l-1.88 0.18c0.38,-5.46 0.58,-11.24 0.62,-17.36l-0.84 0.08 0 -2.25zm15.62 -3.44l2.19 -0.22c-0.1,3.11 -0.16,6.28 -0.17,9.51 0,0.41 0,0.82 0,1.21 1.18,0.15 2.32,0.48 3.41,1l0 2.9c-1.05,-0.74 -2.19,-1.2 -3.41,-1.37 0.02,1.95 0.04,3.49 0.08,4.62 0.08,1.19 0.43,1.74 1.06,1.68 1.07,-0.1 1.83,-0.3 2.29,-0.6l0 2.38c-0.72,0.24 -1.76,0.42 -3.11,0.55 -1.45,0.09 -2.26,-1.14 -2.44,-3.7 -0.1,-2.12 -0.15,-4.9 -0.15,-8.34 0.05,-3.56 0.13,-6.77 0.25,-9.64zm-6.51 4.11c0.82,0.32 1.57,0.77 2.24,1.37l0 2.83c-0.76,-0.7 -1.51,-1.21 -2.24,-1.54l0 -2.65zm2.86 6.89c0,-0.14 0,-0.25 0,-0.35l0 -10.29 2.24 -0.22 0 10.71c-0.15,6.01 -1.76,10.09 -4.83,12.22l-0.03 -2.87c1.33,-1.09 2.16,-3.25 2.47,-6.49 -0.95,0.67 -1.91,1.23 -2.86,1.67l0 -2.63c1.01,-0.48 2.01,-1.06 3.01,-1.75zm8.78 -8.15l0 2.72c-0.72,0.63 -1.54,1.23 -2.47,1.78l0 -2.53c0.81,-0.56 1.63,-1.22 2.47,-1.98zm6.96 -3.96l13.61 -2.82c1.78,-0.26 2.67,0.27 2.67,1.58 0,0.86 -0.47,1.72 -1.41,2.57 -2.04,1.96 -3.32,3.19 -3.84,3.7 0,0.44 0.01,0.9 0.03,1.38l7.48 -1.55 0 2.43 -7.45 1.55c0,1.47 0,3.05 0,4.73 0,3.57 -1.44,5.65 -4.32,6.25 -1.88,0.39 -3.53,0.6 -4.95,0.63l0.02 -2.39c1.3,-0.04 2.8,-0.21 4.51,-0.51 1.49,-0.31 2.27,-1.07 2.33,-2.29 0,-2.12 -0.02,-4.08 -0.05,-5.91l-11.16 2.32 0 -2.43 11.11 -2.31c-0.02,-0.94 -0.04,-1.83 -0.07,-2.66 0.42,-0.34 1.27,-1.11 2.55,-2.34 1.18,-1.14 1.77,-1.8 1.77,-1.98 0,-0.2 -0.06,-0.28 -0.17,-0.26l-12.67 2.63 0 -2.31z"/>
 </g>
</svg>
