<?xml version="1.0" encoding="UTF-8"?>
<!DOCTYPE svg PUBLIC "-//W3C//DTD SVG 1.1//EN" "http://www.w3.org/Graphics/SVG/1.1/DTD/svg11.dtd">
<!-- Creator: CorelDRAW 2021.5 -->
<svg xmlns="http://www.w3.org/2000/svg" xml:space="preserve" width="100%" height="100%" version="1.1" style="shape-rendering:geometricPrecision; text-rendering:geometricPrecision; image-rendering:optimizeQuality; fill-rule:evenodd; clip-rule:evenodd"
viewBox="0 0 3986.84 3986.84"
 xmlns:xlink="http://www.w3.org/1999/xlink"
 xmlns:xodm="http://www.corel.com/coreldraw/odm/2003">
 <defs>
  <style type="text/css">
   <![CDATA[
    .fil0 {fill:none;fill-rule:nonzero}
    .fil1 {fill:#8C2898;fill-rule:nonzero}
    .fil2 {fill:#FEFEFE;fill-rule:nonzero}
   ]]>
  </style>
   <clipPath id="id0" style="clip-rule:nonzero">
    <path d="M72.71 2110.34c1281.13,548.21 2561.28,581.62 3842.41,2.95 2.95,-40.28 3.93,-79.58 3.93,-119.86 0,-531.52 -215.16,-1012.92 -563.93,-1360.71 -348.78,-348.78 -829.2,-563.93 -1360.71,-563.93 -531.52,0 -1012.92,215.16 -1360.71,563.93 -348.78,348.78 -563.93,829.2 -563.93,1360.71 0,39.3 0.99,78.6 3.93,117.89l-0.99 -0.98z"/>
   </clipPath>
    <clipPath id="id1">
     <path d="M504.9 2275.56c963.01,324.15 1925.59,351.15 2888.57,39.68l0 -1643.14c-12.6,-13.32 -25.38,-26.45 -38.35,-39.39 -348.78,-348.78 -829.2,-563.93 -1360.71,-563.93 -531.52,0 -1012.92,215.16 -1360.71,563.93 -45.25,45.25 -88.23,92.73 -128.79,142.23l0 1500.62z"/>
    </clipPath>
    <clipPath id="id2">
     <path d="M72.71 2110.34c1281.13,548.21 2561.28,581.62 3842.41,2.95 2.95,-40.28 3.93,-79.58 3.93,-119.86 0,-531.52 -215.16,-1012.92 -563.93,-1360.71 -348.78,-348.78 -829.2,-563.93 -1360.71,-563.93 -531.52,0 -1012.92,215.16 -1360.71,563.93 -348.78,348.78 -563.93,829.2 -563.93,1360.71 0,39.3 0.99,78.6 3.93,117.89l-0.99 -0.98z"/>
    </clipPath>
 </defs>
 <g id="Layer_x0020_1">
  <metadata id="CorelCorpID_0Corel-Layer"/>
  <g>
  </g>
  <g style="clip-path:url(#id0)">
   <g id="_2718321578560">
   </g>
   <g style="clip-path:url(#id1)">
    <image x="504.9" y="-282.46" width="2888.56" height="3858.76" xlink:href="https://ik.imagekit.io/moearchive/calendar/nogi35fix/sakaguchitamami.png"/>
   </g>
   <g style="clip-path:url(#id2)">
   </g>
  </g>
  <path class="fil0" d="M72.71 2110.34c1281.13,548.21 2561.28,581.62 3842.41,2.95 2.95,-40.28 3.93,-79.58 3.93,-119.86 0,-531.52 -215.16,-1012.92 -563.93,-1360.71 -348.78,-348.78 -829.2,-563.93 -1360.71,-563.93 -531.52,0 -1012.92,215.16 -1360.71,563.93 -348.78,348.78 -563.93,829.2 -563.93,1360.71 0,39.3 0.99,78.6 3.93,117.89l-0.99 -0.98z"/>
  <path class="fil1" d="M1183.87 797.77c-47.15,31.44 -111.01,19.65 -142.46,-27.51 -31.44,-47.15 -19.65,-111.01 27.51,-142.46 21.62,-14.74 45.19,-29.47 68.77,-44.21 28.5,-17.68 52.07,-31.44 69.76,-41.26 50.1,-27.51 112.99,-8.84 139.51,41.26 27.51,50.1 8.84,112.99 -41.26,139.51 -26.52,14.74 -47.15,26.52 -61.9,35.37 -19.65,11.79 -40.28,24.56 -59.93,38.31l0 0.99zm809.55 -797.77c550.17,0 1049.27,223.02 1409.84,583.58 360.56,360.56 583.58,859.65 583.58,1409.84 0,550.17 -223.02,1049.27 -583.58,1409.84 -360.56,360.56 -859.65,583.58 -1409.84,583.58 -550.17,0 -1049.27,-223.02 -1409.84,-583.58 -360.56,-360.56 -583.58,-859.65 -583.58,-1409.84 0,-550.17 223.02,-1049.27 583.58,-1409.84 360.56,-360.56 859.65,-583.58 1409.84,-583.58zm-1920.71 2110.34c1281.13,548.21 2561.28,581.62 3842.41,2.95 2.95,-40.28 3.93,-79.58 3.93,-119.86 0,-531.52 -215.16,-1012.92 -563.93,-1360.71 -348.78,-348.78 -829.2,-563.93 -1360.71,-563.93 -531.52,0 -1012.92,215.16 -1360.71,563.93 -348.78,348.78 -563.93,829.2 -563.93,1360.71 0,39.3 0.99,78.6 3.93,117.89l-0.99 -0.98zm507.93 -411.65c-11.79,56.01 -65.82,91.37 -121.83,79.58 -56.01,-11.79 -91.37,-65.82 -79.58,-121.83 33.4,-159.15 89.4,-312.42 167.02,-453.9 77.61,-141.47 175.86,-272.14 291.79,-386.11 40.28,-40.28 106.11,-39.3 145.4,0.99 40.28,40.28 39.3,105.12 -0.99,145.4 -102.17,100.21 -187.65,214.17 -255.44,337.96 -67.79,123.79 -116.91,257.4 -146.39,396.91l0.01 1z"/>
  <path class="fil2" d="M793.11 2452.89c41.02,13.67 61.54,42.54 61.54,88.12 -2.28,45.58 -18.23,89.64 -47.1,131.43 25.82,109.4 40.27,202.07 43.31,278.81 0,78.25 -23.55,110.16 -69.89,97.24l-46.34 -12.92 0 -63.81 40.27 11.39c14.43,3.04 22.03,-10.63 22.03,-42.54 -9.88,-98.76 -25.82,-194.48 -48.62,-286.4 17.47,-17.47 33.43,-58.5 46.34,-122.31 0,-9.88 -5.32,-17.47 -15.19,-22.79l-62.29 -17.47 0 594.84 -63.05 -17.47 0 -654.85 139.02 38.74 -0.01 0zm148.14 243.87l0 60.78c-0.76,149.66 -8.35,275 -21.27,376.81l-64.58 -18.23c15.96,-73.69 24.31,-195.24 24.31,-364.65l0 -268.93c124.59,34.94 234.75,60.78 331.23,78.25l-0.76 70.65c-78.25,-16.71 -167.89,-37.98 -268.17,-63.81l0 60.78 194.48 53.94c47.86,19.75 72.17,59.25 72.93,117.75 -3.04,49.38 -11.39,94.2 -26.59,135.22 -13.67,41.78 -31.9,78.25 -54.7,109.4 27.35,37.98 60.01,72.17 98.76,102.56l0 81.28c-55.46,-36.47 -101.79,-82.05 -139.78,-136.74 -37.98,34.19 -84.32,53.17 -139.02,56.97l0 -75.97c37.23,-8.35 69.89,-25.07 98,-50.13 -41.02,-81.28 -66.85,-178.53 -79.01,-290.96l63.05 17.47c6.08,84.32 25.07,158.78 55.46,223.34 37.23,-66.09 56.21,-126.1 56.21,-180.05 -1.52,-25.82 -12.92,-42.54 -34.19,-50.13l-164.86 -46.34 -1.52 0.73zm783.24 -37.23c59.25,12.16 105.59,46.34 139.78,102.56 31.15,49.38 47.86,114.71 50.13,195.24 0,98.76 -15.19,167.89 -45.58,207.4 -32.66,50.13 -79.01,76.73 -139.02,78.25l-341.86 -34.94 0 -583.43 337.3 34.94 -0.75 -0.01zm-265.14 485.44l268.17 27.35c40.27,-0.76 69.13,-20.51 85.85,-59.25 19.75,-39.5 28.86,-91.16 28.86,-155.74 -1.52,-64.58 -12.92,-116.24 -34.19,-154.98 -20.51,-41.78 -52.42,-66.09 -93.44,-73.69l-255.26 -25.82 0 442.9 0.01 -0.77zm594.84 -243.1l66.85 -6.84 0 -162.57 -67.62 6.84 0 -67.62 200.56 -20.51 0 67.62 -66.85 6.84 0 162.57 60.01 -6.08 0 68.37 -60.01 6.08 0 196c19.75,-4.55 39.5,-9.12 60.01,-14.43l0 71.41c-52.42,13.67 -116.99,26.59 -194.48,38.74l0 -70.65c22.79,-3.04 45.58,-6.84 68.37,-10.63l0 -202.84 -66.85 6.84 0 -68.37 0 -0.77zm261.33 -284.88l60.01 -6.08c-0.76,22.79 -3.04,44.06 -6.08,65.33l56.97 -6.08 0 -72.93 66.85 -6.84 0 72.93 131.43 -13.67 0 68.37 -131.43 13.67 0 132.18 152.7 -15.96 0 68.37 -57.74 6.08c5.32,74.44 22.79,135.98 53.17,184.6l0 122.31c-60.01,-57.74 -98,-158.02 -114.71,-300.84l-33.43 3.8 0 326.66 -66.85 6.84 0 -326.66 -35.7 3.8c-14.43,141.3 -55.46,249.18 -123.83,323.62l-0.76 -106.36c36.47,-60.01 57.74,-130.67 63.81,-211.19l-62.29 6.84 0 -68.37 158.02 -15.96 0 -132.18 -75.97 7.59c-16.71,44.82 -42.54,81.28 -75.21,109.4l0 -87.36c24.31,-34.19 37.98,-84.32 41.02,-150.41l0.02 -1.51zm564.45 -88.89l70.65 -19.75c3.8,14.43 9.12,28.86 15.19,43.31l182.33 -50.9c7.59,-18.23 14.43,-34.94 19.75,-52.42l68.37 -18.99c-4.55,18.23 -9.88,34.94 -15.19,50.9l110.16 -30.39 0 68.37 -246.9 69.13 0 43.31 230.18 -63.81 0 68.37 -230.18 63.81 0 44.82 243.1 -67.62 0 68.37 -553.05 154.22 0 -68.37 243.86 -68.37 0 -44.82 -227.15 63.81 0 -68.37 227.15 -63.81 0 -43.31 -243.1 67.62 0 -68.37 119.27 -33.43c-6.08,-14.43 -10.63,-28.86 -15.19,-43.31l0.76 0zm-110.15 434.55l246.14 -68.37c0.76,-2.28 0.76,-3.8 0.76,-6.08l-1.52 -36.47 69.13 -18.99 0 37.23c0,2.28 0,3.8 -0.76,6.08l246.9 -69.13 0 67.62 -237.79 66.09c52.42,48.62 132.94,63.81 240.06,45.58l0 72.93c-132.94,18.23 -227.15,-0.76 -282.61,-57.74 -46.34,88.12 -139.78,159.53 -280.32,214.23l0 -72.93c120.03,-48.62 196.76,-107.12 228.67,-175.49l-228.67 63.81 0 -67.62 0.01 -0.75z"/>
 </g>
</svg>
