<?xml version="1.0" encoding="UTF-8"?>
<!DOCTYPE svg PUBLIC "-//W3C//DTD SVG 1.1//EN" "http://www.w3.org/Graphics/SVG/1.1/DTD/svg11.dtd">
<!-- Creator: CorelDRAW 2021.5 -->
<svg xmlns="http://www.w3.org/2000/svg" xml:space="preserve" width="100%" height="100%" version="1.1" style="shape-rendering:geometricPrecision; text-rendering:geometricPrecision; image-rendering:optimizeQuality; fill-rule:evenodd; clip-rule:evenodd"
viewBox="0 0 3986.84 3986.84"
 xmlns:xlink="http://www.w3.org/1999/xlink"
 xmlns:xodm="http://www.corel.com/coreldraw/odm/2003">
 <defs>
  <style type="text/css">
   <![CDATA[
    .fil0 {fill:none;fill-rule:nonzero}
    .fil1 {fill:#8C2898;fill-rule:nonzero}
    .fil2 {fill:#FEFEFE;fill-rule:nonzero}
   ]]>
  </style>
   <clipPath id="id0" style="clip-rule:nonzero">
    <path d="M72.71 2110.34c1281.13,548.21 2561.28,581.62 3842.41,2.95 2.95,-40.28 3.93,-79.58 3.93,-119.86 0,-531.52 -215.16,-1012.92 -563.93,-1360.71 -348.78,-348.78 -829.2,-563.93 -1360.71,-563.93 -531.52,0 -1012.92,215.16 -1360.71,563.93 -348.78,348.78 -563.93,829.2 -563.93,1360.71 0,39.3 0.99,78.6 3.93,117.89l-0.99 -0.98z"/>
   </clipPath>
    <clipPath id="id1">
     <path d="M504.9 2275.56c963.01,324.15 1925.59,351.15 2888.57,39.68l0 -1643.14c-12.6,-13.32 -25.38,-26.45 -38.35,-39.39 -348.78,-348.78 -829.2,-563.93 -1360.71,-563.93 -531.52,0 -1012.92,215.16 -1360.71,563.93 -45.25,45.25 -88.23,92.73 -128.79,142.23l0 1500.62z"/>
    </clipPath>
    <clipPath id="id2">
     <path d="M72.71 2110.34c1281.13,548.21 2561.28,581.62 3842.41,2.95 2.95,-40.28 3.93,-79.58 3.93,-119.86 0,-531.52 -215.16,-1012.92 -563.93,-1360.71 -348.78,-348.78 -829.2,-563.93 -1360.71,-563.93 -531.52,0 -1012.92,215.16 -1360.71,563.93 -348.78,348.78 -563.93,829.2 -563.93,1360.71 0,39.3 0.99,78.6 3.93,117.89l-0.99 -0.98z"/>
    </clipPath>
 </defs>
 <g id="Layer_x0020_1">
  <metadata id="CorelCorpID_0Corel-Layer"/>
  <g>
  </g>
  <g style="clip-path:url(#id0)">
   <g id="_2718327578624">
   </g>
   <g style="clip-path:url(#id1)">
    <image x="504.9" y="-282.46" width="2888.56" height="3858.76" xlink:href="https://ik.imagekit.io/moearchive/calendar/nogi35fix/umezawaminami.png"/>
   </g>
   <g style="clip-path:url(#id2)">
   </g>
  </g>
  <path class="fil0" d="M72.71 2110.34c1281.13,548.21 2561.28,581.62 3842.41,2.95 2.95,-40.28 3.93,-79.58 3.93,-119.86 0,-531.52 -215.16,-1012.92 -563.93,-1360.71 -348.78,-348.78 -829.2,-563.93 -1360.71,-563.93 -531.52,0 -1012.92,215.16 -1360.71,563.93 -348.78,348.78 -563.93,829.2 -563.93,1360.71 0,39.3 0.99,78.6 3.93,117.89l-0.99 -0.98z"/>
  <path class="fil1" d="M1183.87 797.77c-47.15,31.44 -111.01,19.65 -142.46,-27.51 -31.44,-47.15 -19.65,-111.01 27.51,-142.46 21.62,-14.74 45.19,-29.47 68.77,-44.21 28.5,-17.68 52.07,-31.44 69.76,-41.26 50.1,-27.51 112.99,-8.84 139.51,41.26 27.51,50.1 8.84,112.99 -41.26,139.51 -26.52,14.74 -47.15,26.52 -61.9,35.37 -19.65,11.79 -40.28,24.56 -59.93,38.31l0 0.99zm809.55 -797.77c550.17,0 1049.27,223.02 1409.84,583.58 360.56,360.56 583.58,859.65 583.58,1409.84 0,550.17 -223.02,1049.27 -583.58,1409.84 -360.56,360.56 -859.65,583.58 -1409.84,583.58 -550.17,0 -1049.27,-223.02 -1409.84,-583.58 -360.56,-360.56 -583.58,-859.65 -583.58,-1409.84 0,-550.17 223.02,-1049.27 583.58,-1409.84 360.56,-360.56 859.65,-583.58 1409.84,-583.58zm-1920.71 2110.34c1281.13,548.21 2561.28,581.62 3842.41,2.95 2.95,-40.28 3.93,-79.58 3.93,-119.86 0,-531.52 -215.16,-1012.92 -563.93,-1360.71 -348.78,-348.78 -829.2,-563.93 -1360.71,-563.93 -531.52,0 -1012.92,215.16 -1360.71,563.93 -348.78,348.78 -563.93,829.2 -563.93,1360.71 0,39.3 0.99,78.6 3.93,117.89l-0.99 -0.98zm507.93 -411.65c-11.79,56.01 -65.82,91.37 -121.83,79.58 -56.01,-11.79 -91.37,-65.82 -79.58,-121.83 33.4,-159.15 89.4,-312.42 167.02,-453.9 77.61,-141.47 175.86,-272.14 291.79,-386.11 40.28,-40.28 106.11,-39.3 145.4,0.99 40.28,40.28 39.3,105.12 -0.99,145.4 -102.17,100.21 -187.65,214.17 -255.44,337.96 -67.79,123.79 -116.91,257.4 -146.39,396.91l0.01 1z"/>
  <path class="fil2" d="M643.01 2438.51l87.07 24.38 0 -60.08 60.95 17.41 0 60.08 85.33 23.51 0 67.04 -17.41 -5.22c0.87,190.68 7.83,363.94 21.77,519.79l-54.85 -14.8c-9.58,-103.61 -14.8,-276.88 -15.67,-518.93l-19.16 -5.22 0 536.34 -60.95 -17.41 0 -536.34 -17.41 -5.22c-1.74,176.75 -6.97,346.53 -13.93,508.47l-50.5 -13.93c10.45,-157.59 15.67,-327.38 16.55,-508.47l-20.9 -6.09 0 -67.04 -0.88 1.73zm320.41 152.38c-15.67,43.54 -41.79,71.39 -77.49,84.45l0 -90.55c25.25,-21.77 37.44,-64.43 37.44,-127.99l58.34 16.55c-0.87,20.9 -1.74,40.05 -4.36,57.46l237.7 66.17 0 64.43 -252.5 -70.53 0.88 0.01zm-82.72 184.58l37.44 10.45c11.32,-43.54 27.86,-97.52 47.89,-161.08l121.02 33.96c54.85,20.9 89.68,62.69 106.22,125.38 3.48,14.8 6.09,41.79 6.97,80.97l22.64 6.09 0 65.3 -21.77 -6.09c-0.87,38.31 -1.74,67.92 -3.48,89.68 9.58,0.87 18.28,1.74 26.99,2.61l0 64.43c-12.19,-1.74 -24.38,-2.61 -35.7,-4.36 -16.55,65.3 -60.08,87.94 -132.34,67.92 -44.4,-12.19 -79.23,-23.51 -104.49,-34.83l0.87 -65.3c20.02,9.58 57.46,21.77 112.32,37.44 26.99,6.97 46.15,1.74 57.46,-16.55 -21.77,-5.22 -43.54,-10.45 -67.04,-17.41 -50.5,-13.93 -82.72,-26.12 -97.52,-36.57 -43.54,-27.86 -64.43,-64.43 -64.43,-107.96 0,-13.06 2.61,-33.96 8.71,-61.82l-22.64 -6.09 0 -65.3 0.88 -0.87zm82.72 88.81c-4.36,21.77 -6.97,43.54 -8.71,64.43 0.87,17.41 9.58,28.74 25.25,34.83 8.71,4.36 20.9,9.58 34.83,14.8l10.45 -96.64 -60.95 -17.41 -0.86 0zm108.84 131.48c0.87,0 0.87,0 0.87,0 21.77,6.09 42.66,11.32 63.56,15.67 2.61,-20.9 3.48,-52.24 3.48,-94.91 0,-0.87 0,-1.74 0,-2.61l-58.34 -16.55 -9.58 98.39 0.01 0.01zm66.17 -148.02c0,-22.64 -1.74,-41.79 -3.48,-56.59 -4.36,-25.25 -16.55,-45.27 -36.57,-60.08l-10.45 101.87 49.63 13.93 0.87 0.87zm-94.04 -138.43l-31.35 -8.71c-14.8,34.83 -26.12,68.78 -34.83,102.74l53.98 14.8 12.19 -108.83zm306.48 -132.34c51.37,21.77 99.25,47.89 141.92,78.36l0 80.97c-47.01,-35.7 -94.03,-63.56 -141.92,-83.58l0 -74.88 0 -0.87zm-1.73 161.95c51.37,20.9 98.39,45.27 140.18,73.14l0 80.11c-47.01,-32.21 -93.16,-58.34 -140.18,-76.62l0 -76.62 0 -0.01zm77.48 189.8l61.82 6.09c-24.38,112.32 -72.26,200.26 -144.53,264.69l0 -107.96c37.44,-35.7 65.3,-90.55 82.72,-162.81zm438.82 -298.63c21.77,4.36 38.31,15.67 48.76,33.08 11.32,19.16 17.41,39.18 17.41,58.34 0,27.86 -6.09,47.89 -19.16,61.82 -11.32,12.19 -29.6,18.28 -53.11,15.67l-107.1 -11.32 0 29.6 175.88 18.28 0 61.82 -175.88 -18.28 0 32.21 181.97 18.28 0 63.56 -80.11 -7.83c-3.48,13.93 -7.83,26.99 -13.06,38.31l92.3 9.58 0 64.43 -180.24 -18.28 0 47.01 175.88 18.28 0 64.43 -175.88 -18.28 0 75.75 -64.43 -6.97 0 -75.75 -173.27 -17.41 0 -64.43 173.27 17.41 0 -47.01 -175 -18.28 0 -64.43 98.39 10.45c-2.61,-13.93 -5.22,-26.99 -7.83,-40.92l-89.68 -9.58 0 -63.56 173.27 17.41 0 -32.21 -166.3 -17.41 0 -61.82 166.3 17.41 0 -29.6 -165.42 -17.41 0 -169.78 343.92 35.7 -0.87 1.74zm-194.16 377l107.96 11.32c5.22,-13.06 9.58,-25.25 13.06,-38.31l-128.86 -13.06c2.61,13.93 5.22,26.99 7.83,40.92l0.01 -0.88zm-89.68 -287.32l58.34 6.09 0 -68.78 -58.34 -6.09 0 68.78zm114.93 -57.46l0 68.78 54.85 5.22 0 -68.78 -54.85 -5.22zm111.45 11.31l0 68.78 26.99 2.61c23.51,1.74 34.83,-9.58 34.83,-32.21 0,-18.28 -12.19,-30.47 -35.7,-36.57l-25.25 -2.61 -0.87 0zm367.42 -64.43l73.14 -7.83c4.36,14.8 9.58,30.47 15.67,45.27l187.19 -19.16c7.83,-16.55 14.8,-33.08 20.02,-48.76l69.65 -6.97c-4.36,17.41 -9.58,33.08 -15.67,48.76l113.19 -11.32 0 67.92 -254.24 26.12 0 43.54 236.83 -24.38 0 67.92 -236.83 24.38 0 44.4 250.75 -26.12 0 67.92 -568.55 58.34 0 -67.92 250.75 -26.12 0 -44.4 -234.22 24.38 0 -67.92 234.22 -24.38 0 -43.54 -249.89 26.12 0 -67.92 122.76 -13.06c-6.09,-14.8 -11.32,-30.47 -15.67,-46.15l0.89 0.88zm-113.2 415.31l253.36 -26.12c0.87,-1.74 0.87,-4.36 0.87,-6.09l-1.74 -36.57 71.39 -6.97 0 37.44c0,1.74 0,3.48 -0.87,6.09l254.24 -26.12 0 67.04 -244.66 25.25c53.98,57.46 136.7,86.2 247.27,87.07l0 73.14c-136.7,-4.36 -233.34,-40.05 -290.81,-107.1 -47.89,80.11 -143.67,134.95 -288.2,166.3l0 -73.14c123.63,-27.86 201.99,-73.14 235.08,-135.82l-235.08 24.38 0 -67.04 -0.86 -1.73zm709.61 -468.42c52.24,2.61 99.25,10.45 141.92,24.38l0 81.84c-47.01,-17.41 -94.91,-26.99 -141.92,-29.6l0 -75.75 0 -0.87zm-1.74 160.21c52.24,3.48 100.13,12.19 142.79,26.99l0 81.84c-47.01,-19.16 -94.91,-29.6 -142.79,-32.21l0 -76.62zm77.49 160.2l65.3 -18.28c-24.38,121.9 -74.01,228.98 -148.01,320.41l0 -107.96c37.44,-50.5 65.3,-114.93 82.72,-194.16l-0.01 -0.01zm153.23 -271.65c0,45.27 -0.87,89.68 -1.74,134.09l108.83 -30.47 0 -133.21 -107.1 29.6 0.01 -0.01zm169.78 86.2l81.84 -22.64c39.18,-7.83 58.34,6.09 58.34,42.66 -3.48,84.45 -34.83,166.3 -94.03,243.79 35.7,12.19 78.36,17.41 127.12,16.55l0 76.62c-73.14,3.48 -133.21,-6.97 -181.1,-31.35 -42.66,44.4 -94.91,86.2 -155.86,127.99l0 -77.49c40.92,-26.12 76.62,-53.11 106.22,-81.84 -44.4,-38.31 -72.26,-94.03 -85.33,-165.42l62.69 -17.41c8.71,56.59 33.08,99.25 74.88,127.99 47.89,-58.34 74.88,-120.15 81.84,-184.58 0,-6.97 -2.61,-10.45 -8.71,-10.45l-241.17 67.04c-0.87,117.54 -6.97,230.73 -19.16,340.44l-60.95 17.41c13.06,-94.91 19.16,-215.06 20.02,-360.46 0,-73.14 0.87,-153.24 0.87,-241.17l168.91 -47.01 0 -67.92 62.69 -17.41 0 67.92 94.91 -26.12c39.18,-6.97 60.95,8.71 65.3,48.76 0,35.7 -2.61,71.39 -6.97,107.96l-60.08 16.55c1.74,-29.6 3.48,-59.2 4.36,-88.81 0,-12.19 -5.22,-18.28 -14.8,-17.41l-83.58 23.51 0 133.21 1.74 -0.88z"/>
 </g>
</svg>
