<?xml version="1.0" encoding="UTF-8"?>
<!DOCTYPE svg PUBLIC "-//W3C//DTD SVG 1.1//EN" "http://www.w3.org/Graphics/SVG/1.1/DTD/svg11.dtd">
<!-- Creator: CorelDRAW 2021.5 -->
<svg xmlns="http://www.w3.org/2000/svg" xml:space="preserve" width="100%" height="100%" version="1.1" style="shape-rendering:geometricPrecision; text-rendering:geometricPrecision; image-rendering:optimizeQuality; fill-rule:evenodd; clip-rule:evenodd"
viewBox="0 0 3986.84 3986.84"
 xmlns:xlink="http://www.w3.org/1999/xlink"
 xmlns:xodm="http://www.corel.com/coreldraw/odm/2003">
 <defs>
  <style type="text/css">
   <![CDATA[
    .fil0 {fill:none;fill-rule:nonzero}
    .fil1 {fill:#8C2898;fill-rule:nonzero}
    .fil2 {fill:#FEFEFE;fill-rule:nonzero}
   ]]>
  </style>
   <clipPath id="id0" style="clip-rule:nonzero">
    <path d="M72.71 2110.34c1281.13,548.21 2561.28,581.62 3842.41,2.95 2.95,-40.28 3.93,-79.58 3.93,-119.86 0,-531.52 -215.16,-1012.92 -563.93,-1360.71 -348.78,-348.78 -829.2,-563.93 -1360.71,-563.93 -531.52,0 -1012.92,215.16 -1360.71,563.93 -348.78,348.78 -563.93,829.2 -563.93,1360.71 0,39.3 0.99,78.6 3.93,117.89l-0.99 -0.98z"/>
   </clipPath>
    <clipPath id="id1">
     <path d="M504.9 2275.56c963.01,324.15 1925.59,351.15 2888.57,39.68l0 -1643.14c-12.6,-13.32 -25.38,-26.45 -38.35,-39.39 -348.78,-348.78 -829.2,-563.93 -1360.71,-563.93 -531.52,0 -1012.92,215.16 -1360.71,563.93 -45.25,45.25 -88.23,92.73 -128.79,142.23l0 1500.62z"/>
    </clipPath>
    <clipPath id="id2">
     <path d="M72.71 2110.34c1281.13,548.21 2561.28,581.62 3842.41,2.95 2.95,-40.28 3.93,-79.58 3.93,-119.86 0,-531.52 -215.16,-1012.92 -563.93,-1360.71 -348.78,-348.78 -829.2,-563.93 -1360.71,-563.93 -531.52,0 -1012.92,215.16 -1360.71,563.93 -348.78,348.78 -563.93,829.2 -563.93,1360.71 0,39.3 0.99,78.6 3.93,117.89l-0.99 -0.98z"/>
    </clipPath>
 </defs>
 <g id="Layer_x0020_1">
  <metadata id="CorelCorpID_0Corel-Layer"/>
  <g>
  </g>
  <g style="clip-path:url(#id0)">
   <g id="_2718332593216">
   </g>
   <g style="clip-path:url(#id1)">
    <image x="504.9" y="-282.46" width="2888.56" height="3858.76" xlink:href="https://ik.imagekit.io/moearchive/calendar/nogi33/yamashitamizuki.png"/>
   </g>
   <g style="clip-path:url(#id2)">
   </g>
  </g>
  <path class="fil0" d="M72.71 2110.34c1281.13,548.21 2561.28,581.62 3842.41,2.95 2.95,-40.28 3.93,-79.58 3.93,-119.86 0,-531.52 -215.16,-1012.92 -563.93,-1360.71 -348.78,-348.78 -829.2,-563.93 -1360.71,-563.93 -531.52,0 -1012.92,215.16 -1360.71,563.93 -348.78,348.78 -563.93,829.2 -563.93,1360.71 0,39.3 0.99,78.6 3.93,117.89l-0.99 -0.98z"/>
  <path class="fil1" d="M1183.87 797.77c-47.15,31.44 -111.01,19.65 -142.46,-27.51 -31.44,-47.15 -19.65,-111.01 27.51,-142.46 21.62,-14.74 45.19,-29.47 68.77,-44.21 28.5,-17.68 52.07,-31.44 69.76,-41.26 50.1,-27.51 112.99,-8.84 139.51,41.26 27.51,50.1 8.84,112.99 -41.26,139.51 -26.52,14.74 -47.15,26.52 -61.9,35.37 -19.65,11.79 -40.28,24.56 -59.93,38.31l0 0.99zm809.55 -797.77c550.17,0 1049.27,223.02 1409.84,583.58 360.56,360.56 583.58,859.65 583.58,1409.84 0,550.17 -223.02,1049.27 -583.58,1409.84 -360.56,360.56 -859.65,583.58 -1409.84,583.58 -550.17,0 -1049.27,-223.02 -1409.84,-583.58 -360.56,-360.56 -583.58,-859.65 -583.58,-1409.84 0,-550.17 223.02,-1049.27 583.58,-1409.84 360.56,-360.56 859.65,-583.58 1409.84,-583.58zm-1920.71 2110.34c1281.13,548.21 2561.28,581.62 3842.41,2.95 2.95,-40.28 3.93,-79.58 3.93,-119.86 0,-531.52 -215.16,-1012.92 -563.93,-1360.71 -348.78,-348.78 -829.2,-563.93 -1360.71,-563.93 -531.52,0 -1012.92,215.16 -1360.71,563.93 -348.78,348.78 -563.93,829.2 -563.93,1360.71 0,39.3 0.99,78.6 3.93,117.89l-0.99 -0.98zm507.93 -411.65c-11.79,56.01 -65.82,91.37 -121.83,79.58 -56.01,-11.79 -91.37,-65.82 -79.58,-121.83 33.4,-159.15 89.4,-312.42 167.02,-453.9 77.61,-141.47 175.86,-272.14 291.79,-386.11 40.28,-40.28 106.11,-39.3 145.4,0.99 40.28,40.28 39.3,105.12 -0.99,145.4 -102.17,100.21 -187.65,214.17 -255.44,337.96 -67.79,123.79 -116.91,257.4 -146.39,396.91l0.01 1z"/>
  <path class="fil2" d="M909.06 2428.14l69.7 19.69 0 575.17 130.36 36.18c20.22,5.32 30.33,-5.85 30.86,-32.99l0 -471.41 68.63 19.16 0 490.04c-0.53,59.07 -25.54,84.07 -74.49,75.55l-365.01 -102.16c-51.08,-23.41 -80.34,-66.51 -87.79,-128.77l0 -482.59 65.97 18.62 -0.53 467.7c4.78,29.26 16.5,47.88 36.71,55.87l126.1 35.11 0 -575.17 -0.52 0.01zm670.42 231.46l-227.73 -23.41 0 -74.49 590.07 60.66 0 74.49 -291.58 -29.79 0 139.94c102.69,43.63 184.63,93.11 245.82,147.91l0 97.9c-73.43,-70.77 -154.83,-125.57 -245.82,-164.95l0 346.92 -70.77 -7.45 0 -567.73zm604.96 -70.77l72.89 -7.45c4.26,14.9 9.58,30.33 15.96,45.76l187.29 -19.16c7.98,-16.5 14.36,-32.99 20.22,-48.95l70.24 -7.45c-4.78,17.02 -10.11,33.52 -15.96,48.42l112.8 -11.7 0 68.11 -253.8 26.07 0 43.63 236.77 -24.48 0 68.11 -236.77 24.48 0 44.69 250.6 -26.07 0 68.11 -568.78 58.53 0 -68.11 251.14 -26.07 0 -44.69 -234.12 23.94 0 -68.11 234.12 -23.94 0 -43.63 -250.07 25.54 0 -68.11 122.9 -12.77c-5.85,-14.9 -11.17,-30.33 -15.43,-45.76l0 1.06zm-113.33 415.55l253.26 -26.07c0.53,-2.13 0.53,-3.73 0.53,-5.85l-1.59 -36.71 71.29 -7.45 0 37.25c0,2.13 0,3.73 -0.53,5.85l253.8 -26.07 0 67.04 -244.75 25.54c54.27,57.46 136.74,86.72 246.89,87.26l0 73.43c-136.74,-4.78 -233.58,-40.44 -290.51,-106.95 -47.35,79.81 -143.66,135.14 -288.39,166.01l0 -73.43c123.97,-27.67 202.19,-72.89 235.17,-136.21l-235.17 24.48 0 -67.04 0 -1.08zm780.02 -490.04l312.33 -87.26c38.84,-7.98 70.77,-4.26 94.18,11.17 22.35,18.09 34.59,45.23 37.78,80.87 6.39,51.08 9.58,114.93 10.11,192.08 0,71.29 -2.66,136.74 -7.45,197.4 -10.64,79.81 -50.54,129.82 -120.78,148.98 -73.43,20.22 -133.02,34.06 -179.84,40.44l0 -68.63c68.11,-13.83 122.38,-26.07 162.28,-37.25 43.63,-12.24 68.11,-39.91 73.43,-83.53 1.59,-14.9 2.13,-31.92 2.66,-52.15l-338.4 94.71c-9.05,75.55 -19.69,143.66 -31.92,204.32l-68.11 18.09c13.83,-68.11 25.54,-146.86 35.11,-236.24 11.17,-103.22 17.02,-201.65 18.09,-295.31l0 -128.77 0.53 1.09zm54.81 363.41l331.49 -92.58c0,-15.43 0,-31.92 0,-49.49 -0.53,-22.35 -1.07,-44.16 -2.13,-65.44l-320.84 89.39c-1.59,39.91 -4.78,79.28 -8.51,118.12l0 0.01zm12.23 -190.48l312.86 -87.26c-1.59,-19.69 -3.73,-38.31 -5.32,-56.4 -1.59,-37.25 -21.82,-53.74 -59.59,-48.42l-246.89 68.63 0 59.07c-0.53,21.82 -1.07,43.1 -1.59,63.85l0.54 0.54z"/>
 </g>
</svg>
