<?xml version="1.0" encoding="UTF-8"?>
<!DOCTYPE svg PUBLIC "-//W3C//DTD SVG 1.1//EN" "http://www.w3.org/Graphics/SVG/1.1/DTD/svg11.dtd">
<!-- Creator: CorelDRAW 2021.5 -->
<svg xmlns="http://www.w3.org/2000/svg" xml:space="preserve" width="100%" height="100%" version="1.1" style="shape-rendering:geometricPrecision; text-rendering:geometricPrecision; image-rendering:optimizeQuality; fill-rule:evenodd; clip-rule:evenodd"
viewBox="0 0 3986.84 3986.84"
 xmlns:xlink="http://www.w3.org/1999/xlink"
 xmlns:xodm="http://www.corel.com/coreldraw/odm/2003">
 <defs>
  <style type="text/css">
   <![CDATA[
    .fil0 {fill:none;fill-rule:nonzero}
    .fil1 {fill:#8C2898;fill-rule:nonzero}
    .fil2 {fill:#FEFEFE;fill-rule:nonzero}
   ]]>
  </style>
   <clipPath id="id0" style="clip-rule:nonzero">
    <path d="M72.71 2110.34c1281.13,548.21 2561.28,581.62 3842.41,2.95 2.95,-40.28 3.93,-79.58 3.93,-119.86 0,-531.52 -215.16,-1012.92 -563.93,-1360.71 -348.78,-348.78 -829.2,-563.93 -1360.71,-563.93 -531.52,0 -1012.92,215.16 -1360.71,563.93 -348.78,348.78 -563.93,829.2 -563.93,1360.71 0,39.3 0.99,78.6 3.93,117.89l-0.99 -0.98z"/>
   </clipPath>
    <clipPath id="id1">
     <path d="M504.9 2275.56c963.01,324.15 1925.59,351.15 2888.57,39.68l0 -1643.14c-12.6,-13.32 -25.38,-26.45 -38.35,-39.39 -348.78,-348.78 -829.2,-563.93 -1360.71,-563.93 -531.52,0 -1012.92,215.16 -1360.71,563.93 -45.25,45.25 -88.23,92.73 -128.79,142.23l0 1500.62z"/>
    </clipPath>
    <clipPath id="id2">
     <path d="M72.71 2110.34c1281.13,548.21 2561.28,581.62 3842.41,2.95 2.95,-40.28 3.93,-79.58 3.93,-119.86 0,-531.52 -215.16,-1012.92 -563.93,-1360.71 -348.78,-348.78 -829.2,-563.93 -1360.71,-563.93 -531.52,0 -1012.92,215.16 -1360.71,563.93 -348.78,348.78 -563.93,829.2 -563.93,1360.71 0,39.3 0.99,78.6 3.93,117.89l-0.99 -0.98z"/>
    </clipPath>
 </defs>
 <g id="Layer_x0020_1">
  <metadata id="CorelCorpID_0Corel-Layer"/>
  <g>
  </g>
  <g style="clip-path:url(#id0)">
   <g id="_2682477009392">
   </g>
   <g style="clip-path:url(#id1)">
    <image x="504.9" y="-282.46" width="2888.56" height="3858.76" xlink:href="https://ik.imagekit.io/moearchive/calendar/nogi33/yodayuuki.png"/>
   </g>
   <g style="clip-path:url(#id2)">
   </g>
  </g>
  <path class="fil0" d="M72.71 2110.34c1281.13,548.21 2561.28,581.62 3842.41,2.95 2.95,-40.28 3.93,-79.58 3.93,-119.86 0,-531.52 -215.16,-1012.92 -563.93,-1360.71 -348.78,-348.78 -829.2,-563.93 -1360.71,-563.93 -531.52,0 -1012.92,215.16 -1360.71,563.93 -348.78,348.78 -563.93,829.2 -563.93,1360.71 0,39.3 0.99,78.6 3.93,117.89l-0.99 -0.98z"/>
  <path class="fil1" d="M1183.87 797.77c-47.15,31.44 -111.01,19.65 -142.46,-27.51 -31.44,-47.15 -19.65,-111.01 27.51,-142.46 21.62,-14.74 45.19,-29.47 68.77,-44.21 28.5,-17.68 52.07,-31.44 69.76,-41.26 50.1,-27.51 112.99,-8.84 139.51,41.26 27.51,50.1 8.84,112.99 -41.26,139.51 -26.52,14.74 -47.15,26.52 -61.9,35.37 -19.65,11.79 -40.28,24.56 -59.93,38.31l0 0.99zm809.55 -797.77c550.17,0 1049.27,223.02 1409.84,583.58 360.56,360.56 583.58,859.65 583.58,1409.84 0,550.17 -223.02,1049.27 -583.58,1409.84 -360.56,360.56 -859.65,583.58 -1409.84,583.58 -550.17,0 -1049.27,-223.02 -1409.84,-583.58 -360.56,-360.56 -583.58,-859.65 -583.58,-1409.84 0,-550.17 223.02,-1049.27 583.58,-1409.84 360.56,-360.56 859.65,-583.58 1409.84,-583.58zm-1920.71 2110.34c1281.13,548.21 2561.28,581.62 3842.41,2.95 2.95,-40.28 3.93,-79.58 3.93,-119.86 0,-531.52 -215.16,-1012.92 -563.93,-1360.71 -348.78,-348.78 -829.2,-563.93 -1360.71,-563.93 -531.52,0 -1012.92,215.16 -1360.71,563.93 -348.78,348.78 -563.93,829.2 -563.93,1360.71 0,39.3 0.99,78.6 3.93,117.89l-0.99 -0.98zm507.93 -411.65c-11.79,56.01 -65.82,91.37 -121.83,79.58 -56.01,-11.79 -91.37,-65.82 -79.58,-121.83 33.4,-159.15 89.4,-312.42 167.02,-453.9 77.61,-141.47 175.86,-272.14 291.79,-386.11 40.28,-40.28 106.11,-39.3 145.4,0.99 40.28,40.28 39.3,105.12 -0.99,145.4 -102.17,100.21 -187.65,214.17 -255.44,337.96 -67.79,123.79 -116.91,257.4 -146.39,396.91l0.01 1z"/>
  <path class="fil2" d="M747.54 2417.32l66.5 18.52 -13.05 77.03 387.23 108.17 0 69.03 -397.76 -111.12 -16.42 95.96 246.66 69.03c42.93,17.25 77.86,45.88 106.07,85.87 17.68,30.73 28.63,66.93 33.67,108.59l71.55 19.78 0 69.03 -68.6 -19.37c-3.79,117.85 -61.88,161.21 -173.42,130.06 -67.77,-18.94 -132.16,-38.3 -192.77,-58.09l0 -74.92c50.51,20.62 113.64,41.25 190.25,62.71 65.24,18.1 100.6,-7.99 106.49,-79.13l-448.69 -125.43 0 -68.6 446.16 124.59c-10.11,-57.66 -38.72,-95.13 -86.29,-111.96l-308.1 -86.29 50.51 -303.48zm685.24 530.34l0 199.93 165 16.83 0 -199.93 -165 -16.83zm235.71 223.92l79.13 7.99c38.3,-0.84 65.66,-22.31 81.23,-63.56 15.15,-32.83 24.41,-74.92 26.94,-125.43l-187.3 -19.37 0 199.93 0 0.43zm186.45 -250.86c-3.79,-53.87 -14.31,-98.08 -31.15,-131.75 -19.78,-44.19 -49.67,-69.87 -89.65,-77.86l-66.08 -6.74 0 197.41 186.46 18.94 0.42 0zm-257.59 -223.92l-165 -16.83 0 197.41 165 16.83 0 -197.41zm146.48 -55.14c56.4,13.05 101.02,47.98 133.85,104.8 30.31,52.62 46.72,120.8 49.25,204.98 0,103.97 -15.15,177.21 -45.04,218.87 -29.88,52.62 -74.08,80.39 -132.58,83.33l-386.39 -39.57 0 -611.15 380.92 39.14 0 -0.41zm389.34 -17.68l71.55 -7.58 0 60.61 17.25 -1.68c18.94,1.27 34.1,7.99 45.88,20.62 10.53,13.89 16,29.04 16,46.3 0,51.77 -23.57,109.44 -70.72,172.99 21.89,10.11 42.93,23.15 63.98,39.14l0 87.55c-26.09,-21.47 -51.35,-39.99 -77.03,-55.14l0 295.89 -66.5 6.74 0 -282.85c-24.84,24.84 -52.62,50.08 -83.33,75.76l0 -89.65c104.39,-99.75 158.69,-173.42 162.47,-220.98 0,-16.42 -7.16,-24.84 -21.47,-25.26l-134.69 13.89 0 -69.03 77.03 -7.99 0 -60.61 -0.43 1.28zm168.78 64.83l125.01 -13.05c3.37,-26.09 5.05,-53.03 5.47,-81.23l70.72 -7.16c-1.27,28.2 -3.79,55.14 -6.74,81.23l154.47 -16 0 70.29 -168.36 17.25c-13.05,57.66 -32.41,109.01 -58.51,154.05l58.93 -6.31c105.65,-10.94 159.52,40.83 161.63,155.74 0,111.54 -45.46,175.52 -135.95,191.51l-160.36 16.42 0 -258.86c-16.83,16 -34.1,30.73 -52.62,43.78l-0.42 -87.13c57.24,-50.93 96.39,-118.28 117.85,-202.45l-111.12 11.36 0 -70.29 0.01 0.85zm111.54 486.56l84.6 -8.84c52.62,-12.21 79.13,-50.08 79.13,-113.23 0,-71.55 -31.57,-103.97 -94.28,-97.65l-69.45 7.16 0 212.56zm630.52 -396.07l65.24 -18.1 0 53.87 135.53 -37.88c52.19,-6.74 80.39,31.98 84.18,116.17 -0.42,95.54 -32.41,151.95 -95.54,169.63l-74.92 21.04 0.84 -65.24 69.45 -19.37c22.73,-6.31 34.1,-36.2 34.1,-88.81 0,-50.08 -16,-70.29 -47.98,-61.46l-106.07 29.46 0 244.12 -65.24 18.1 0 -244.12 -130.06 36.2 0 218.87 -63.98 17.68 0 -216.76c-24.84,17.25 -51.35,33.67 -79.55,48.83l0.84 -71.97c70.72,-34.1 127.96,-83.76 172.57,-149l-175.1 48.83 0 -68.18 220.98 -61.88c6.74,-14.31 12.63,-29.04 18.1,-45.04l63.98 -17.68c-5.05,15.57 -9.68,30.31 -14.31,44.19l284.53 -79.55 0 68.18 -319.05 89.24c-19.37,35.35 -42.09,68.6 -68.18,98.91l88.81 -24.84 0 -53.87 0.85 0.43zm259.7 -387.65l0 70.29c-26.09,17.68 -51.77,34.52 -77.03,50.08 26.09,2.1 52.62,4.63 79.55,7.99l0 69.45c-59.77,-10.11 -119.95,-15.57 -180.57,-16.83 -106.49,60.61 -213.82,111.12 -321.57,150.26l0 -64.4c67.35,-21.89 135.53,-50.08 203.72,-84.18 -66.93,4.63 -134.27,14.73 -202.03,29.04l0 -57.66c101.44,-26.51 209.61,-39.14 324.1,-37.88 57.66,-34.52 115.75,-73.66 173.84,-116.6l0 0.43z"/>
 </g>
</svg>
