<?xml version="1.0" encoding="UTF-8"?>
<!DOCTYPE svg PUBLIC "-//W3C//DTD SVG 1.1//EN" "http://www.w3.org/Graphics/SVG/1.1/DTD/svg11.dtd">
<!-- Creator: CorelDRAW 2021.5 -->
<svg xmlns="http://www.w3.org/2000/svg" xml:space="preserve" width="100%" height="100%" version="1.1" style="shape-rendering:geometricPrecision; text-rendering:geometricPrecision; image-rendering:optimizeQuality; fill-rule:evenodd; clip-rule:evenodd"
viewBox="0 0 3986.84 3986.84"
 xmlns:xlink="http://www.w3.org/1999/xlink"
 xmlns:xodm="http://www.corel.com/coreldraw/odm/2003">
 <defs>
  <style type="text/css">
   <![CDATA[
    .fil0 {fill:none;fill-rule:nonzero}
    .fil1 {fill:#8C2898;fill-rule:nonzero}
    .fil2 {fill:#FEFEFE;fill-rule:nonzero}
   ]]>
  </style>
   <clipPath id="id0" style="clip-rule:nonzero">
    <path d="M72.71 2110.34c1281.13,548.21 2561.28,581.62 3842.41,2.95 2.95,-40.28 3.93,-79.58 3.93,-119.86 0,-531.52 -215.16,-1012.92 -563.93,-1360.71 -348.78,-348.78 -829.2,-563.93 -1360.71,-563.93 -531.52,0 -1012.92,215.16 -1360.71,563.93 -348.78,348.78 -563.93,829.2 -563.93,1360.71 0,39.3 0.99,78.6 3.93,117.89l-0.99 -0.98z"/>
   </clipPath>
    <clipPath id="id1">
     <path d="M504.9 2275.56c963.01,324.15 1925.59,351.15 2888.57,39.68l0 -1643.14c-12.6,-13.32 -25.38,-26.45 -38.35,-39.39 -348.78,-348.78 -829.2,-563.93 -1360.71,-563.93 -531.52,0 -1012.92,215.16 -1360.71,563.93 -45.25,45.25 -88.23,92.73 -128.79,142.23l0 1500.62z"/>
    </clipPath>
    <clipPath id="id2">
     <path d="M72.71 2110.34c1281.13,548.21 2561.28,581.62 3842.41,2.95 2.95,-40.28 3.93,-79.58 3.93,-119.86 0,-531.52 -215.16,-1012.92 -563.93,-1360.71 -348.78,-348.78 -829.2,-563.93 -1360.71,-563.93 -531.52,0 -1012.92,215.16 -1360.71,563.93 -348.78,348.78 -563.93,829.2 -563.93,1360.71 0,39.3 0.99,78.6 3.93,117.89l-0.99 -0.98z"/>
    </clipPath>
 </defs>
 <g id="Layer_x0020_1">
  <metadata id="CorelCorpID_0Corel-Layer"/>
  <g>
  </g>
  <g style="clip-path:url(#id0)">
   <g id="_2682477027104">
   </g>
   <g style="clip-path:url(#id1)">
    <image x="504.9" y="-282.46" width="2888.56" height="3858.76" xlink:href="https://ik.imagekit.io/moearchive/calendar/nogi33/yoshidaayanochristie.png"/>
   </g>
   <g style="clip-path:url(#id2)">
   </g>
  </g>
  <path class="fil0" d="M72.71 2110.34c1281.13,548.21 2561.28,581.62 3842.41,2.95 2.95,-40.28 3.93,-79.58 3.93,-119.86 0,-531.52 -215.16,-1012.92 -563.93,-1360.71 -348.78,-348.78 -829.2,-563.93 -1360.71,-563.93 -531.52,0 -1012.92,215.16 -1360.71,563.93 -348.78,348.78 -563.93,829.2 -563.93,1360.71 0,39.3 0.99,78.6 3.93,117.89l-0.99 -0.98z"/>
  <path class="fil1" d="M1183.87 797.77c-47.15,31.44 -111.01,19.65 -142.46,-27.51 -31.44,-47.15 -19.65,-111.01 27.51,-142.46 21.62,-14.74 45.19,-29.47 68.77,-44.21 28.5,-17.68 52.07,-31.44 69.76,-41.26 50.1,-27.51 112.99,-8.84 139.51,41.26 27.51,50.1 8.84,112.99 -41.26,139.51 -26.52,14.74 -47.15,26.52 -61.9,35.37 -19.65,11.79 -40.28,24.56 -59.93,38.31l0 0.99zm809.55 -797.77c550.17,0 1049.27,223.02 1409.84,583.58 360.56,360.56 583.58,859.65 583.58,1409.84 0,550.17 -223.02,1049.27 -583.58,1409.84 -360.56,360.56 -859.65,583.58 -1409.84,583.58 -550.17,0 -1049.27,-223.02 -1409.84,-583.58 -360.56,-360.56 -583.58,-859.65 -583.58,-1409.84 0,-550.17 223.02,-1049.27 583.58,-1409.84 360.56,-360.56 859.65,-583.58 1409.84,-583.58zm-1920.71 2110.34c1281.13,548.21 2561.28,581.62 3842.41,2.95 2.95,-40.28 3.93,-79.58 3.93,-119.86 0,-531.52 -215.16,-1012.92 -563.93,-1360.71 -348.78,-348.78 -829.2,-563.93 -1360.71,-563.93 -531.52,0 -1012.92,215.16 -1360.71,563.93 -348.78,348.78 -563.93,829.2 -563.93,1360.71 0,39.3 0.99,78.6 3.93,117.89l-0.99 -0.98zm507.93 -411.65c-11.79,56.01 -65.82,91.37 -121.83,79.58 -56.01,-11.79 -91.37,-65.82 -79.58,-121.83 33.4,-159.15 89.4,-312.42 167.02,-453.9 77.61,-141.47 175.86,-272.14 291.79,-386.11 40.28,-40.28 106.11,-39.3 145.4,0.99 40.28,40.28 39.3,105.12 -0.99,145.4 -102.17,100.21 -187.65,214.17 -255.44,337.96 -67.79,123.79 -116.91,257.4 -146.39,396.91l0.01 1z"/>
  <path class="fil2" d="M775.98 2799.56c23.82,8.1 42.41,28.12 55.75,60.04 13.35,28.59 20.49,63.37 21.92,104.36 -0.48,42.41 -6.67,72.9 -19.54,91.49 -13.81,24.3 -31.92,33.83 -55.28,28.12l-243.96 -82.44 0 -283.51 241.58 81.48 -0.47 0.47zm-198.69 145.81l196.79 66.23c24.78,4.76 36.69,-16.2 36.69,-62.89 0,-43.36 -12.39,-71 -36.69,-82.91l-196.79 -66.23 0 145.81 0 -0.01zm-75.29 -521.76l160.58 54.32 0 -80.52 43.36 14.77 0 80.52 161.53 54.8 0 71.95 -161.53 -54.32 0 106.74 149.15 50.51 0 69.09 -337.84 -114.36 0 -68.61 145.81 49.08 0 -106.74 -160.58 -54.32 0 -71.95 -0.48 -0.96zm494.61 444.09l0 199.65 102.92 22.87 0 -199.65 -102.92 -22.87zm147.23 232.05l49.56 10.96c23.82,0.48 40.97,-20.01 50.51,-60.51 9.53,-32.4 15.25,-73.86 16.67,-124.37l-116.74 -25.74 0 199.65zm116.74 -244.44c-2.38,-54.32 -8.58,-98.63 -19.54,-132.94 -12.39,-44.79 -30.97,-71.95 -55.75,-81l-40.97 -9.05 0 197.75 116.74 25.74 -0.49 -0.49zm-160.58 -233.01l-102.92 -22.87 0 197.75 102.92 22.87 0 -197.75zm91.49 -50.02c35.26,15.25 62.89,51.46 83.38,109.6 19.06,53.36 29.06,122.46 30.97,206.8 0,103.88 -9.53,176.31 -28.12,217.28 -18.58,51.46 -46.22,77.67 -82.91,78.62l-241.1 -53.36 0 -611.34 237.78 52.42 0 -0.01zm396.92 249.68l-48.6 -4.76 0 -64.33 85.29 8.58 0 -45.27 -74.33 -7.62 0 -63.85 74.33 7.62 0 -47.17 42.41 4.29 0 47.17 75.76 7.62 0 63.85 -75.76 -7.62 0 45.27 84.82 8.58 0 64.33 -52.42 -5.24c0,4.29 0,8.1 0,11.91 0,9.53 0.96,18.11 2.38,26.68 3.81,7.15 11.91,11.43 24.3,12.87 12.39,1.43 23.35,1.9 32.88,1.9l0 60.04c-7.15,0 -21.92,-0.48 -44.31,-2.38 -26.2,-2.86 -42.41,-14.77 -48.6,-36.69 -2.86,-15.25 -4.29,-30.5 -4.29,-46.22 0,-10.96 0,-21.44 0.48,-31.92l-33.35 -3.34c-17.63,71.95 -47.17,115.79 -87.67,130.08l0 -65.28c20.49,-13.35 36.21,-36.21 46.7,-69.09l-0.02 0zm19.06 83.86l38.12 3.81c-1.43,15.25 -3.81,29.54 -6.67,42.89l61.47 6.19c15.25,1.43 24.78,6.67 28.12,14.77 6.67,10.01 10.01,21.92 10.01,35.74 0,26.2 -5.72,55.28 -17.63,87.2 -8.1,25.26 -18.11,47.17 -30.5,64.81 19.54,21.44 42.41,39.55 68.61,55.28l0 71.95c-40.03,-22.4 -73.38,-51.94 -100.54,-88.63 -29.06,28.59 -67.67,50.51 -115.31,65.28l0 -68.61c30.02,-8.58 57.66,-24.78 82.91,-47.65 -12.87,-25.26 -23.82,-52.42 -32.88,-82.44 -13.81,20.96 -30.02,40.97 -49.08,58.61l0 -73.38c30.97,-36.69 51.46,-85.29 62.42,-145.33l0.95 -0.49zm12.87 109.6c6.19,36.69 18.11,69.57 35.74,98.16 24.3,-34.79 36.69,-63.37 36.69,-85.77 0,-5.72 -1.43,-9.53 -4.29,-10.96l-66.23 -6.19c-0.48,1.43 -1.43,2.86 -1.9,4.29l-0.01 0.48zm-157.24 -422.66l47.17 4.76 -79.1 160.58 28.12 2.86 38.59 -81.96 47.65 4.76 -103.4 211.56 41.45 4.29c7.15,0.96 10.96,-7.15 10.96,-23.82l0 -54.8 35.74 3.81 0 80.06c0,39.55 -12.87,59.09 -38.12,59.09l-10.96 -0.96 0 290.66 -38.12 -3.81 0 -290.66 -26.2 -2.86c-18.11,-1.9 -27.16,-15.25 -27.16,-40.51 0,-7.15 3.81,-18.58 11.43,-33.35l30.02 -62.89 -30.5 -3.34c-12.39,-4.76 -18.11,-18.58 -18.11,-41.93 0,-8.58 1.9,-16.67 6.19,-25.26l74.33 -155.82 0.01 -0.47zm-64.81 383.58l31.92 3.34c-0.96,123.41 -15.73,204.89 -44.31,244.92l0 -83.86c8.58,-33.35 12.87,-88.15 12.87,-164.39l-0.48 -0.01zm95.3 9.05l30.02 2.86c0.48,55.75 3.34,102.44 9.53,140.09l0 114.83c-21.92,-52.9 -34.79,-138.66 -39.55,-257.78zm362.13 -341.17l237.78 -3.81c28.12,6.67 42.41,35.26 42.41,86.72 0,17.15 -6.19,54.32 -18.58,111.5l30.02 -1.43c36.21,6.19 54.32,37.65 54.32,93.87 0,133.9 -4.76,218.71 -13.81,254.93 -9.05,51.46 -31.92,79.58 -68.61,83.86 -33.35,-1.43 -66.71,-2.86 -100.54,-4.29l0 -71c30.02,3.34 60.99,4.76 93.39,4.29 19.54,-3.34 31.45,-20.49 35.74,-52.42 5.72,-17.63 8.58,-85.29 8.58,-203.94 0,-27.16 -8.1,-40.51 -24.3,-40.03l-77.2 0.96c23.35,-101.97 35.26,-158.68 35.26,-170.11 0,-11.91 -3.34,-20.01 -10.49,-24.3l-115.79 1.9 0 30.5c-8.1,300.67 -50.03,483.17 -125.79,547.49l0 -79.1c49.56,-63.85 77.67,-220.62 84.34,-470.3l0 -27.64 -66.71 0.96 -0.48 -69.09 0.45 0.45zm595.62 162.02c0,90.05 -15.25,178.69 -45.27,264.46 -33.35,95.3 -77.2,162.01 -130.56,200.13l0 -81.96c39.07,-34.79 71.47,-89.58 96.25,-164.87 23.35,-70.52 34.79,-141.52 34.79,-213 0,-21.92 -2.38,-33.83 -7.62,-37.17 -2.38,-1.9 -6.67,-2.38 -12.87,-1.43l-40.97 4.29c-16.2,93.39 -46.22,169.63 -90.05,229.19l0 -99.11c36.21,-66.23 55.75,-160.58 58.13,-282.09l44.79 -4.76c-0.48,27.64 -1.9,53.84 -3.81,79.1l31.92 -3.34c43.36,-4.29 64.81,32.4 64.81,111.02l0.47 -0.47zm222.05 64.33c0,104.82 -13.35,187.26 -40.03,248.73 -28.59,65.28 -70.52,102.44 -126.27,111.5l0 -77.67c41.45,-7.15 71.95,-33.35 91.49,-77.67 20.01,-43.84 30.02,-109.6 30.02,-197.27l0 -275.41 44.79 -7.15 0 275.41 0 -0.47zm-149.15 121.98l-44.79 7.15 0 -373.1 44.79 -7.15 0 373.1zm374.52 166.78c-21.44,-62.42 -50.51,-126.27 -85.77,-191.08 -32.88,95.77 -71,165.82 -114.36,211.08l0 -87.2c33.35,-44.79 62.42,-107.68 87.2,-188.69 24.3,-80.06 36.21,-151.53 36.21,-214.42 0,-20.01 -6.19,-29.06 -18.58,-26.2l-94.83 20.96 0 -77.67 101.97 -22.4c37.65,-8.58 56.7,22.4 56.7,91.97 0,64.81 -10.49,136.76 -30.97,216.33 21.44,36.69 42.41,77.67 62.89,122.93l0 145.33 -0.48 -0.94zm192.98 -579.42l-142.95 40.03 0 -74.81 142.95 -40.03 0 74.81zm-47.17 196.79l0 45.74c0,172.97 -34.79,282.56 -104.36,328.31l0 -78.62c40.03,-34.79 60.04,-113.88 60.04,-237.3l0 -45.74 -78.14 21.92 0 -73.86 196.31 -54.8 0 73.86 -74.33 20.49 0.48 0zm183.45 -321.16l-29.54 9.05c-5.72,-19.54 -12.87,-40.97 -21.44,-63.85l29.06 -9.05c9.05,20.49 16.67,41.45 21.92,63.37l0 0.48zm-36.21 30.5l-29.54 9.05c-5.72,-19.54 -12.87,-40.51 -21.44,-62.89l29.06 -9.05c9.05,20.01 16.67,40.97 21.92,62.89zm222.99 537.49l-42.41 15.73 0 -282.09c-22.87,36.69 -50.51,74.33 -83.86,114.36l0 -82.91c69.57,-87.2 119.13,-183.45 148.67,-289.24l47.65 -17.15c-17.63,73.38 -40.97,139.61 -69.57,198.69l0 342.6 -0.48 0z"/>
 </g>
</svg>
