<?xml version="1.0" encoding="UTF-8"?>
<!DOCTYPE svg PUBLIC "-//W3C//DTD SVG 1.1//EN" "http://www.w3.org/Graphics/SVG/1.1/DTD/svg11.dtd">
<!-- Creator: CorelDRAW 2021.5 -->
<svg xmlns="http://www.w3.org/2000/svg" xml:space="preserve" width="100%" height="100%" version="1.1" style="shape-rendering:geometricPrecision; text-rendering:geometricPrecision; image-rendering:optimizeQuality; fill-rule:evenodd; clip-rule:evenodd"
viewBox="0 0 192.02 192.02"
 xmlns:xlink="http://www.w3.org/1999/xlink"
 xmlns:xodm="http://www.corel.com/coreldraw/odm/2003">
 <defs>
  <style type="text/css">
   <![CDATA[
    .fil0 {fill:none;fill-rule:nonzero}
    .fil1 {fill:#8C2898;fill-rule:nonzero}
    .fil2 {fill:white;fill-rule:nonzero}
   ]]>
  </style>
   <clipPath id="id0" style="clip-rule:nonzero">
    <path d="M3.5 101.64c61.7,26.4 123.36,28.01 185.07,0.14 0.14,-1.94 0.19,-3.83 0.19,-5.77 0,-25.6 -10.36,-48.79 -27.16,-65.54 -16.8,-16.8 -39.94,-27.16 -65.54,-27.16 -25.6,0 -48.79,10.36 -65.54,27.16 -16.8,16.8 -27.16,39.94 -27.16,65.54 0,1.89 0.05,3.79 0.19,5.68l-0.05 -0.05z"/>
   </clipPath>
    <clipPath id="id1">
     <path d="M24.32 109.6c46.38,15.61 92.74,16.91 139.13,1.91l0 -79.14c-0.61,-0.64 -1.22,-1.27 -1.85,-1.9 -16.8,-16.8 -39.94,-27.16 -65.54,-27.16 -25.6,0 -48.79,10.36 -65.54,27.16 -2.18,2.18 -4.25,4.47 -6.2,6.85l0 72.28z"/>
    </clipPath>
    <clipPath id="id2">
     <path d="M3.5 101.64c61.7,26.4 123.36,28.01 185.07,0.14 0.14,-1.94 0.19,-3.83 0.19,-5.77 0,-25.6 -10.36,-48.79 -27.16,-65.54 -16.8,-16.8 -39.94,-27.16 -65.54,-27.16 -25.6,0 -48.79,10.36 -65.54,27.16 -16.8,16.8 -27.16,39.94 -27.16,65.54 0,1.89 0.05,3.79 0.19,5.68l-0.05 -0.05z"/>
    </clipPath>
 </defs>
 <g id="Layer_x0020_1">
  <metadata id="CorelCorpID_0Corel-Layer"/>
  <g>
  </g>
  <g style="clip-path:url(#id0)">
   <g id="_1788429496096">
   </g>
   <g style="clip-path:url(#id1)">
    <image x="24.32" y="-13.6" width="139.12" height="185.85" xlink:href="https://ik.imagekit.io/moearchive/calendar/nogi31/hayakawaseira.png"/>
   </g>
   <g style="clip-path:url(#id2)">
   </g>
  </g>
  <path class="fil0" d="M3.5 101.64c61.7,26.4 123.36,28.01 185.07,0.14 0.14,-1.94 0.19,-3.83 0.19,-5.77 0,-25.6 -10.36,-48.79 -27.16,-65.54 -16.8,-16.8 -39.94,-27.16 -65.54,-27.16 -25.6,0 -48.79,10.36 -65.54,27.16 -16.8,16.8 -27.16,39.94 -27.16,65.54 0,1.89 0.05,3.79 0.19,5.68l-0.05 -0.05z"/>
  <path class="fil1" d="M57.02 38.42c-2.27,1.51 -5.35,0.95 -6.86,-1.32 -1.51,-2.27 -0.95,-5.35 1.32,-6.86 1.04,-0.71 2.18,-1.42 3.31,-2.13 1.37,-0.85 2.51,-1.51 3.36,-1.99 2.41,-1.32 5.44,-0.43 6.72,1.99 1.32,2.41 0.43,5.44 -1.99,6.72 -1.28,0.71 -2.27,1.28 -2.98,1.7 -0.95,0.57 -1.94,1.18 -2.89,1.85l0 0.05zm38.99 -38.42c26.5,0 50.54,10.74 67.9,28.11 17.37,17.37 28.11,41.4 28.11,67.9 0,26.5 -10.74,50.54 -28.11,67.9 -17.37,17.37 -41.4,28.11 -67.9,28.11 -26.5,0 -50.54,-10.74 -67.9,-28.11 -17.37,-17.37 -28.11,-41.4 -28.11,-67.9 0,-26.5 10.74,-50.54 28.11,-67.9 17.37,-17.37 41.4,-28.11 67.9,-28.11zm-92.51 101.64c61.7,26.4 123.36,28.01 185.07,0.14 0.14,-1.94 0.19,-3.83 0.19,-5.77 0,-25.6 -10.36,-48.79 -27.16,-65.54 -16.8,-16.8 -39.94,-27.16 -65.54,-27.16 -25.6,0 -48.79,10.36 -65.54,27.16 -16.8,16.8 -27.16,39.94 -27.16,65.54 0,1.89 0.05,3.79 0.19,5.68l-0.05 -0.05zm24.46 -19.83c-0.57,2.7 -3.17,4.4 -5.87,3.83 -2.7,-0.57 -4.4,-3.17 -3.83,-5.87 1.61,-7.67 4.31,-15.05 8.04,-21.86 3.74,-6.81 8.47,-13.11 14.05,-18.6 1.94,-1.94 5.11,-1.89 7,0.05 1.94,1.94 1.89,5.06 -0.05,7 -4.92,4.83 -9.04,10.32 -12.3,16.28 -3.26,5.96 -5.63,12.4 -7.05,19.12l0 0.05z"/>
  <path class="fil2" d="M30.71 137.56l11.98 2.64 0 -2.71 -9.6 -2.12 0 -15.81 16.6 3.66c5.08,1.12 7.67,4.29 7.75,9.52 0,5.02 -2.17,7.22 -6.52,6.57l-4.98 -1.1 0 2.71 12.24 2.7 0 3.24 -12.24 -2.7 0 7.04 -3.26 -0.72 0 -7.04 -11.98 -2.64 0 -3.24zm5.58 -7.86l0 3.27 14.12 3.12c2.07,0.19 3.29,-0.63 3.65,-2.47l-17.77 -3.92zm17.77 0.81c-0.47,-2.29 -1.92,-3.7 -4.36,-4.24l-13.41 -2.96 0 3.27 17.77 3.92zm32.35 -3.06l3.27 0.29 0 29.54 -3.27 -0.29 0 -29.54zm-10.01 -0.1l3.2 0.29 0 27.45 -3.2 -0.29 0 -27.45zm-6.52 -1.38l0 11.91c0,5.33 -0.54,9.09 -1.61,11.26 -1.23,2.98 -2.57,4.99 -4.02,6.02l-0.03 -4.77c0.7,-1.06 1.3,-2.62 1.78,-4.67 0.48,-1.9 0.73,-4.58 0.73,-8.04l0.06 -11.97 3.1 0.24zm28.58 2.23l14.47 -1.22 0 2.78 -1.65 0.14 0 12.97 -3 0.25 0 -1.03c-2.73,0.52 -6.2,1.06 -10.42,1.61l0 -2.68c0.75,-0.06 1.48,-0.14 2.21,-0.22l0 -9.96 -1.62 0.14 0 -2.78zm4.62 12.18c1.78,-0.26 3.52,-0.59 5.21,-1l0 -1.23 -5.21 0.44 0 1.78zm0 -4.4l5.21 -0.44 0 -1.39 -5.21 0.44 0 1.39zm0 -4l5.21 -0.44 0 -1.39 -5.21 0.44 0 1.39zm-5.47 21.9l12.39 -1.05 0 -1.85 -9.92 0.84 0 -2.65 9.92 -0.84 0 -1.78 -11.33 0.96 0 -2.75 25.97 -2.2 0 2.75 -11.37 0.96 0 1.78 10.42 -0.88 0 2.65 -10.42 0.88 0 1.85 12.36 -1.05 0 2.85 -28.02 2.37 0 -2.85zm21.36 -26.95c3.65,-0.24 5.55,1.25 5.7,4.48l0 4.6c-0.16,3.17 -1.86,4.91 -5.11,5.23l-5.87 0.5 0 -14.36 5.28 -0.45zm-2.27 11.8l2.57 -0.22c1.58,-0.13 2.37,-1.11 2.37,-2.92l0 -3.17c-0.04,-1.67 -0.85,-2.56 -2.41,-2.68l-2.54 0.21 0 8.77zm15.84 -12.4l10.98 -2.28 0 -2.45 3.21 -0.67 0 2.45 11.63 -2.41 0 3.21 -11.63 2.41 0 6.72 3.37 -0.7c0.75,-2.19 1.32,-4.16 1.68,-5.91l3.15 -0.65c-0.52,2.45 -1.03,4.41 -1.53,5.88l5.35 -1.11 0 3.34 -6.09 1.26c1.45,3.6 3.47,6.13 6.06,7.61l0 4.23c-4.06,-1.83 -7.18,-5.54 -9.36,-11.16l-2.63 0.54 0 13.95 -3.21 0.67 0 -13.95 -2.72 0.56c-1.14,6.01 -4.23,11.02 -9.26,15.02l0 -3.9c3.22,-3.07 5.22,-6.55 6.03,-10.45l-5.99 1.24 0 -3.34 5.47 -1.14c-0.48,-1.67 -0.91,-3.44 -1.29,-5.32l3.14 -0.65c0.43,1.82 0.9,3.6 1.39,5.3l3.24 -0.67 0 -6.72 -10.98 2.28 0 -3.21z"/>
 </g>
</svg>
