<?xml version="1.0" encoding="UTF-8"?>
<!DOCTYPE svg PUBLIC "-//W3C//DTD SVG 1.1//EN" "http://www.w3.org/Graphics/SVG/1.1/DTD/svg11.dtd">
<!-- Creator: CorelDRAW 2021.5 -->
<svg xmlns="http://www.w3.org/2000/svg" xml:space="preserve" width="100%" height="100%" version="1.1" style="shape-rendering:geometricPrecision; text-rendering:geometricPrecision; image-rendering:optimizeQuality; fill-rule:evenodd; clip-rule:evenodd"
viewBox="0 0 123.29 123.29"
 xmlns:xlink="http://www.w3.org/1999/xlink"
 xmlns:xodm="http://www.corel.com/coreldraw/odm/2003">
 <defs>
  <style type="text/css">
   <![CDATA[
    .fil0 {fill:none;fill-rule:nonzero}
    .fil1 {fill:#8C2898;fill-rule:nonzero}
    .fil2 {fill:white;fill-rule:nonzero}
   ]]>
  </style>
   <clipPath id="id0" style="clip-rule:nonzero">
    <path d="M2.25 65.26c39.62,16.95 79.21,17.99 118.82,0.09 0.09,-1.25 0.12,-2.46 0.12,-3.71 0,-16.44 -6.65,-31.32 -17.44,-42.08 -10.79,-10.79 -25.64,-17.44 -42.08,-17.44 -16.44,0 -31.32,6.65 -42.08,17.44 -10.79,10.79 -17.44,25.64 -17.44,42.08 0,1.22 0.03,2.43 0.12,3.65l-0.03 -0.03z"/>
   </clipPath>
    <clipPath id="id1">
     <path d="M15.61 70.37c29.78,10.02 59.55,10.86 89.33,1.23l0 -50.81c-0.39,-0.41 -0.78,-0.82 -1.19,-1.22 -10.79,-10.79 -25.64,-17.44 -42.08,-17.44 -16.44,0 -31.32,6.65 -42.08,17.44 -1.4,1.4 -2.73,2.87 -3.98,4.4l0 46.41z"/>
    </clipPath>
    <clipPath id="id2">
     <path d="M2.25 65.26c39.62,16.95 79.21,17.99 118.82,0.09 0.09,-1.25 0.12,-2.46 0.12,-3.71 0,-16.44 -6.65,-31.32 -17.44,-42.08 -10.79,-10.79 -25.64,-17.44 -42.08,-17.44 -16.44,0 -31.32,6.65 -42.08,17.44 -10.79,10.79 -17.44,25.64 -17.44,42.08 0,1.22 0.03,2.43 0.12,3.65l-0.03 -0.03z"/>
    </clipPath>
 </defs>
 <g id="Layer_x0020_1">
  <metadata id="CorelCorpID_0Corel-Layer"/>
  <g>
  </g>
  <g style="clip-path:url(#id0)">
   <g id="_1788431253392">
   </g>
   <g style="clip-path:url(#id1)">
    <image x="15.61" y="-8.73" width="89.33" height="119.33" xlink:href="https://ik.imagekit.io/moearchive/calendar/nogi35fix/kanagawasaya.png"/>
   </g>
   <g style="clip-path:url(#id2)">
   </g>
  </g>
  <path class="fil0" d="M2.25 65.26c39.62,16.95 79.21,17.99 118.82,0.09 0.09,-1.25 0.12,-2.46 0.12,-3.71 0,-16.44 -6.65,-31.32 -17.44,-42.08 -10.79,-10.79 -25.64,-17.44 -42.08,-17.44 -16.44,0 -31.32,6.65 -42.08,17.44 -10.79,10.79 -17.44,25.64 -17.44,42.08 0,1.22 0.03,2.43 0.12,3.65l-0.03 -0.03z"/>
  <path class="fil1" d="M36.61 24.67c-1.46,0.97 -3.43,0.61 -4.41,-0.85 -0.97,-1.46 -0.61,-3.43 0.85,-4.41 0.67,-0.46 1.4,-0.91 2.13,-1.37 0.88,-0.55 1.61,-0.97 2.16,-1.28 1.55,-0.85 3.49,-0.27 4.31,1.28 0.85,1.55 0.27,3.49 -1.28,4.31 -0.82,0.46 -1.46,0.82 -1.91,1.09 -0.61,0.36 -1.25,0.76 -1.85,1.18l0 0.03zm25.03 -24.67c17.01,0 32.45,6.9 43.6,18.05 11.15,11.15 18.05,26.58 18.05,43.6 0,17.01 -6.9,32.45 -18.05,43.6 -11.15,11.15 -26.58,18.05 -43.6,18.05 -17.01,0 -32.45,-6.9 -43.6,-18.05 -11.15,-11.15 -18.05,-26.58 -18.05,-43.6 0,-17.01 6.9,-32.45 18.05,-43.6 11.15,-11.15 26.58,-18.05 43.6,-18.05zm-59.4 65.26c39.62,16.95 79.21,17.99 118.82,0.09 0.09,-1.25 0.12,-2.46 0.12,-3.71 0,-16.44 -6.65,-31.32 -17.44,-42.08 -10.79,-10.79 -25.64,-17.44 -42.08,-17.44 -16.44,0 -31.32,6.65 -42.08,17.44 -10.79,10.79 -17.44,25.64 -17.44,42.08 0,1.22 0.03,2.43 0.12,3.65l-0.03 -0.03zm15.71 -12.73c-0.36,1.73 -2.04,2.83 -3.77,2.46 -1.73,-0.36 -2.83,-2.04 -2.46,-3.77 1.03,-4.92 2.76,-9.66 5.16,-14.04 2.4,-4.37 5.44,-8.42 9.02,-11.94 1.25,-1.25 3.28,-1.22 4.5,0.03 1.25,1.25 1.22,3.25 -0.03,4.5 -3.16,3.1 -5.8,6.62 -7.9,10.45 -2.1,3.83 -3.62,7.96 -4.53,12.27l0 0.03z"/>
  <path class="fil2" d="M22.44 83.42c-0.87,0.75 -1.81,1.28 -2.82,1.58l0 -2.4c1.55,-0.69 2.97,-2.47 4.25,-5.35l8.15 1.8c0.59,0.13 1.23,0.68 1.91,1.63 1.23,2.08 2.39,3.81 3.47,5.18l0 3.06c-0.47,-0.43 -1.18,-1.32 -2.14,-2.68l-5.79 -1.28 0 2.93 6.99 1.54 0 1.95 -6.99 -1.54 0 4.59 7.47 1.65 0 2 -16.8 -3.71 0 -2 7.28 1.61 0 -4.59 -6.78 -1.5 0 -1.95 6.78 1.5 0 -2.93 -4.98 -1.1zm11.26 0.53c-0.36,-0.55 -0.73,-1.13 -1.12,-1.76 -0.46,-0.81 -1.07,-1.29 -1.82,-1.46l-5.45 -1.2c-0.42,0.85 -0.87,1.61 -1.37,2.27l9.77 2.16zm-11.53 4.99l1.89 0.42c0.28,1.22 0.59,2.37 0.93,3.43l-1.97 -0.43c-0.3,-0.96 -0.59,-2.1 -0.85,-3.41zm10.87 2.4l1.97 0.43c-0.19,1.19 -0.44,2.21 -0.73,3.07l-1.99 -0.44c0.29,-1.03 0.54,-2.04 0.75,-3.06zm22.39 -9.52l2.1 0.19 0 18.97 -2.1 -0.19 0 -18.97zm-6.43 -0.07l2.05 0.18 0 17.63 -2.05 -0.18 0 -17.63zm-4.19 -0.89l0 7.65c0,3.43 -0.35,5.84 -1.04,7.23 -0.79,1.91 -1.65,3.2 -2.58,3.87l-0.02 -3.06c0.45,-0.68 0.83,-1.68 1.14,-3 0.31,-1.22 0.47,-2.94 0.47,-5.16l0.04 -7.68 1.99 0.16zm29.5 0.05l2.12 -0.18c0.14,1.85 0.21,4.63 0.21,8.33 0,1.53 -0.22,2.71 -0.66,3.54 -0.48,0.85 -1.13,1.3 -1.95,1.37l-2.07 0.18 0 -1.99 1.55 -0.13c0.7,-0.06 1.06,-0.88 1.06,-2.47 0,-3.77 -0.09,-6.64 -0.26,-8.64zm3.15 10.01l2.18 -0.16c-0.5,2.94 -1.47,5.24 -2.94,6.9 -1.14,1.58 -3.07,2.49 -5.77,2.72l0 -2.1c2.1,-0.18 3.55,-0.87 4.36,-2.09 1.1,-1.2 1.83,-2.95 2.18,-5.26zm-11.26 -9.33l2.31 -0.2 -3.6 5.44 1.18 -0.1 2.01 -2.83 2.37 -0.2 -4.91 6.77 2.08 -0.18c0.34,-0.03 0.51,-0.28 0.51,-0.76l0 -1.83 1.78 -0.15 0 2.55c0,1.15 -0.62,1.81 -1.88,1.99l-0.7 0.06 0 8.35 -1.89 0.16 0 -8.35 -1.16 0.1c-0.9,0.08 -1.35,-0.25 -1.35,-0.99 0,-0.21 0.18,-0.56 0.55,-1.05l1.21 -1.67 -1.31 0.11c-0.61,-0.06 -0.91,-0.44 -0.91,-1.13 0,-0.26 0.1,-0.53 0.32,-0.81l3.41 -5.28zm-2.98 11.55l1.63 -0.14c-0.04,3.64 -0.78,6.16 -2.22,7.56l0 -2.89c0.39,-0.98 0.59,-2.49 0.59,-4.53zm4.76 -0.42l1.63 -0.14c0.03,1.57 0.22,2.85 0.59,3.84l0 3.48c-1.21,-1.35 -1.95,-3.75 -2.22,-7.18zm3.73 -10.49l1.86 -0.16c-0.05,4.8 -1.04,8.12 -2.96,9.95l0 -2.78c0.73,-1.51 1.1,-3.84 1.1,-7.02zm5.63 -0.46l1.89 -0.16c0.08,2.4 0.61,4.56 1.56,6.48l0 3.06c-1.86,-1.64 -3.01,-4.76 -3.45,-9.37zm22.61 -4.97c1.37,-0.24 2.06,0.34 2.06,1.74 -0.08,1.26 -0.7,2.69 -1.85,4.27 1.24,2.46 1.93,4.7 2.08,6.73 0,2.36 -1.01,3.75 -3.03,4.17l-2 0.41 0 -1.95 2.02 -0.42c0.76,-0.19 1.14,-0.76 1.14,-1.7 -0.46,-2.5 -1.19,-4.8 -2.2,-6.91 0.68,-0.72 1.28,-2.03 1.81,-3.92 0,-0.33 -0.17,-0.49 -0.52,-0.49l-2.85 0.59 0 16.84 -2.02 0.42 0 -18.67 5.37 -1.11zm-15.58 3.23l9.57 -1.98 0 1.95 -0.96 0.2 0 16.73 -1.99 0.41 0 -2.7c-1.77,0.69 -4.01,1.43 -6.72,2.2l0 -2.17c0.4,-0.08 0.79,-0.18 1.16,-0.28l0 -12.64 -1.06 0.22 0 -1.95zm2.97 13.82c1.24,-0.38 2.45,-0.84 3.64,-1.37l0 -2.36 -3.64 0.76 0 2.97zm0 -4.93l3.64 -0.76 0 -2.82 -3.64 0.76 0 2.82zm0 -4.76l3.64 -0.76 0 -2.81 -3.64 0.76 0 2.81z"/>
 </g>
</svg>
