<?xml version="1.0" encoding="UTF-8"?>
<!DOCTYPE svg PUBLIC "-//W3C//DTD SVG 1.1//EN" "http://www.w3.org/Graphics/SVG/1.1/DTD/svg11.dtd">
<!-- Creator: CorelDRAW 2021.5 -->
<svg xmlns="http://www.w3.org/2000/svg" xml:space="preserve" width="100%" height="100%" version="1.1" style="shape-rendering:geometricPrecision; text-rendering:geometricPrecision; image-rendering:optimizeQuality; fill-rule:evenodd; clip-rule:evenodd"
viewBox="0 0 247.13 247.13"
 xmlns:xlink="http://www.w3.org/1999/xlink"
 xmlns:xodm="http://www.corel.com/coreldraw/odm/2003">
 <defs>
  <style type="text/css">
   <![CDATA[
    .fil0 {fill:none;fill-rule:nonzero}
    .fil1 {fill:#8C2898;fill-rule:nonzero}
    .fil2 {fill:white;fill-rule:nonzero}
   ]]>
  </style>
   <clipPath id="id0" style="clip-rule:nonzero">
    <path d="M4.51 130.81c79.41,33.98 158.77,36.05 238.18,0.18 0.18,-2.5 0.24,-4.93 0.24,-7.43 0,-32.95 -13.34,-62.79 -34.96,-84.35 -21.62,-21.62 -51.4,-34.96 -84.35,-34.96 -32.95,0 -62.79,13.34 -84.35,34.96 -21.62,21.62 -34.96,51.4 -34.96,84.35 0,2.44 0.06,4.87 0.24,7.31l-0.06 -0.06z"/>
   </clipPath>
    <clipPath id="id1">
     <path d="M31.3 141.05c59.69,20.09 119.36,21.77 179.05,2.46l0 -101.85c-0.78,-0.83 -1.57,-1.64 -2.38,-2.44 -21.62,-21.62 -51.4,-34.96 -84.35,-34.96 -32.95,0 -62.79,13.34 -84.35,34.96 -2.8,2.8 -5.47,5.75 -7.98,8.82l0 93.02z"/>
    </clipPath>
    <clipPath id="id2">
     <path d="M4.51 130.81c79.41,33.98 158.77,36.05 238.18,0.18 0.18,-2.5 0.24,-4.93 0.24,-7.43 0,-32.95 -13.34,-62.79 -34.96,-84.35 -21.62,-21.62 -51.4,-34.96 -84.35,-34.96 -32.95,0 -62.79,13.34 -84.35,34.96 -21.62,21.62 -34.96,51.4 -34.96,84.35 0,2.44 0.06,4.87 0.24,7.31l-0.06 -0.06z"/>
    </clipPath>
 </defs>
 <g id="Layer_x0020_1">
  <metadata id="CorelCorpID_0Corel-Layer"/>
  <g>
  </g>
  <g style="clip-path:url(#id0)">
   <g id="_1823099978208">
   </g>
   <g style="clip-path:url(#id1)">
    <image x="31.3" y="-17.51" width="179.05" height="239.19" xlink:href="https://ik.imagekit.io/moearchive/calendar/nogi28/kakehashisayaka.png"/>
   </g>
   <g style="clip-path:url(#id2)">
   </g>
  </g>
  <path class="fil0" d="M4.51 130.81c79.41,33.98 158.77,36.05 238.18,0.18 0.18,-2.5 0.24,-4.93 0.24,-7.43 0,-32.95 -13.34,-62.79 -34.96,-84.35 -21.62,-21.62 -51.4,-34.96 -84.35,-34.96 -32.95,0 -62.79,13.34 -84.35,34.96 -21.62,21.62 -34.96,51.4 -34.96,84.35 0,2.44 0.06,4.87 0.24,7.31l-0.06 -0.06z"/>
  <path class="fil1" d="M73.38 49.45c-2.92,1.95 -6.88,1.22 -8.83,-1.71 -1.95,-2.92 -1.22,-6.88 1.71,-8.83 1.34,-0.91 2.8,-1.83 4.26,-2.74 1.77,-1.1 3.23,-1.95 4.32,-2.56 3.11,-1.71 7,-0.55 8.65,2.56 1.71,3.11 0.55,7 -2.56,8.65 -1.64,0.91 -2.92,1.64 -3.84,2.19 -1.22,0.73 -2.5,1.52 -3.72,2.37l0 0.06zm50.18 -49.45c34.1,0 65.04,13.82 87.39,36.17 22.35,22.35 36.17,53.29 36.17,87.39 0,34.1 -13.82,65.04 -36.17,87.39 -22.35,22.35 -53.29,36.17 -87.39,36.17 -34.1,0 -65.04,-13.82 -87.39,-36.17 -22.35,-22.35 -36.17,-53.29 -36.17,-87.39 0,-34.1 13.82,-65.04 36.17,-87.39 22.35,-22.35 53.29,-36.17 87.39,-36.17zm-119.06 130.81c79.41,33.98 158.77,36.05 238.18,0.18 0.18,-2.5 0.24,-4.93 0.24,-7.43 0,-32.95 -13.34,-62.79 -34.96,-84.35 -21.62,-21.62 -51.4,-34.96 -84.35,-34.96 -32.95,0 -62.79,13.34 -84.35,34.96 -21.62,21.62 -34.96,51.4 -34.96,84.35 0,2.44 0.06,4.87 0.24,7.31l-0.06 -0.06zm31.49 -25.52c-0.73,3.47 -4.08,5.66 -7.55,4.93 -3.47,-0.73 -5.66,-4.08 -4.93,-7.55 2.07,-9.87 5.54,-19.37 10.35,-28.14 4.81,-8.77 10.9,-16.87 18.09,-23.93 2.5,-2.5 6.58,-2.44 9.01,0.06 2.5,2.5 2.44,6.52 -0.06,9.01 -6.33,6.21 -11.63,13.28 -15.83,20.95 -4.2,7.67 -7.25,15.96 -9.07,24.6l0 0.06z"/>
  <path class="fil2" d="M27.21 152.69l3.31 0.83c0,-1.42 -0.01,-2.85 -0.04,-4.31l3.54 0.89c0.03,1.51 0.05,2.95 0.07,4.32l3.12 0.78 0 3.92 -3.05 -0.76c0.05,3.73 0.08,7.05 0.08,9.94 0.94,-0.05 1.88,-0.12 2.81,-0.22l0 4.29c-0.93,0.14 -1.88,0.21 -2.81,0.23 0,3.09 0,6.19 0,9.28 0,4.14 -1.09,5.94 -3.27,5.39 -1.22,-0.31 -2.29,-0.63 -3.2,-0.97l0.04 -3.95c0.4,0.27 1,0.53 1.79,0.79 0.71,0.18 1.07,-0.67 1.07,-2.54 0.03,-2.63 0.04,-5.27 0.04,-7.91 -1.2,0.01 -2.37,-0.03 -3.54,-0.12l0 -4.09c1.19,0.05 2.37,0.06 3.54,0.04 0,-0.22 0,-0.46 0,-0.68 -0.03,-3.52 -0.06,-6.98 -0.12,-10.38l-3.39 -0.85 0 -3.92zm10.66 21.79l5.56 1.4 0 -4.13 3.46 0.87 0 4.13 5.59 1.4 0 3.87 -5.59 -1.4 0 5.45c2.01,0.37 3.94,0.71 5.83,1.04l0 4.04c-2.97,-0.43 -8.12,-1.41 -15.46,-2.94l0 -4c2.1,0.42 4.16,0.83 6.17,1.25l0 -5.7 -5.56 -1.4 0 -3.87zm0.2 -9.53l5.48 1.37 0 -5.54 -4.94 -1.24 0 -3.92 4.94 1.24 0 -4.47 3.47 0.87 0 4.47 5.55 1.39 0 3.92 -5.55 -1.39 0 5.54 5.74 1.44 0 3.92 -14.69 -3.69 0 -3.92zm15.83 -9.95l3.66 0.92 0 12.94c0.99,0.9 1.96,1.95 2.93,3.16l0 4.85c-0.99,-1.18 -1.97,-2.28 -2.93,-3.29l0 20.86 -3.66 -0.92 0 -38.52zm26.66 11.72l6.23 0.9c0.23,-0.59 0.4,-1.19 0.5,-1.8 -2.04,-0.27 -4.17,-0.55 -6.38,-0.84l0 -3.53c5,0.73 10.86,1.42 17.58,2.08l0 3.62c-2.35,-0.25 -4.92,-0.55 -7.71,-0.91 -0.08,0.67 -0.2,1.31 -0.35,1.91l8.87 1.29 0 3.62 -4.18 -0.61c0.98,1.22 2.48,2.32 4.49,3.29l0 4.21c-0.7,-0.38 -1.34,-0.77 -1.9,-1.17 0,0.09 0,0.17 0,0.26 0,0.96 -0.18,1.75 -0.54,2.35 -0.46,0.75 -1.02,1.1 -1.67,1.03l-13.01 -1.89 0 -3.92c-0.73,0.27 -1.5,0.47 -2.33,0.6l0 -4.04c1.88,-0.41 3.41,-1.15 4.57,-2.24l-4.18 -0.61 0 -3.62zm8.48 4.85c-0.44,0.71 -0.95,1.35 -1.51,1.95l5.19 0.75c-0.59,-0.77 -1.1,-1.56 -1.51,-2.39l-2.17 -0.31zm-3.37 6.75l8.41 1.22c0.28,0.04 0.42,-0.36 0.42,-1.22 0,-0.68 -0.34,-1.08 -1,-1.21l-7.82 -1.13 0 2.34zm7.71 5.21c1.86,0.44 3.36,1.34 4.49,2.69 1.11,1.41 1.67,2.86 1.67,4.37l0 4.56c-0.11,3.54 -1.14,5.3 -3.1,5.3l-4.02 -0.54 0 -2.98c-0.16,0.01 -0.31,0.01 -0.47,0.02l-6.23 -0.9 0 -8.47 6 0.87c1.88,0.5 2.83,2.04 2.83,4.62 0,1.98 -0.48,3.19 -1.43,3.62l1.63 0.24c0.85,0.12 1.28,-0.55 1.28,-2.03l0 -4.26c0,-0.99 -0.4,-1.82 -1.2,-2.47 -0.59,-0.68 -1.35,-1.13 -2.29,-1.36l-8.48 -1.23 0 13.59 -3.33 -0.48 0 -16.99 12.66 1.84zm-4.92 10.18l2.71 0.39c0.39,0.06 0.58,-0.46 0.58,-1.54 0,-0.79 -0.21,-1.37 -0.62,-1.71l-2.67 -0.39 0 3.24zm-22.27 -32.01l5.11 0.74 0 -3.54 3.49 0.51 0 3.54 4.84 0.7 0 3.87 -0.93 -0.14c0.03,11.1 0.3,21.1 0.82,30l-2.87 -0.37c-0.46,-5.94 -0.71,-15.96 -0.73,-30.03l-1.12 -0.16 0 30.99 -3.49 -0.51 0 -30.99 -1.16 -0.17c-0.13,10.28 -0.39,20.16 -0.78,29.65l-2.9 -0.42c0.57,-9.26 0.87,-19.13 0.89,-29.63l-1.16 -0.17 0 -3.87zm54.34 4l3.63 -0.03c-0.67,10.23 -3.28,17.75 -7.81,22.58l-0.03 -5.96c2.65,-4.48 4.06,-10.01 4.21,-16.6zm12.03 -0l3.59 -0.03c0.18,4.6 1.46,8.83 3.83,12.7l0 5.15c-3.98,-3.26 -6.45,-9.2 -7.42,-17.82zm2.07 18.25l3.94 -0.03c-3.2,11.89 -10.71,17.96 -22.54,18.22l0 -3.74c10.03,-0.87 16.23,-5.69 18.6,-14.45zm-8.09 -20.29l3.63 -0.03c0.15,2.84 0.23,8.71 0.23,17.62 0,3.23 -0.15,5.45 -0.43,6.64 -0.49,2.58 -1.98,3.99 -4.45,4.2 -2.6,-0.07 -4.59,-0.32 -5.97,-0.76l0 -3.79c1.87,0.39 3.53,0.57 4.96,0.56 0.94,-0.07 1.57,-0.62 1.91,-1.67 0.21,-0.65 0.31,-2.36 0.31,-5.11 -0.05,-9.26 -0.12,-15.14 -0.19,-17.67zm-20.12 1.18c3.21,0.93 6.11,2.15 8.71,3.63l0 4.85c-2.89,-1.82 -5.79,-3.2 -8.71,-4.15l0 -4.34zm-0.15 9.49c3.25,1.17 6.22,2.65 8.91,4.44l0 4.77c-2.97,-2.08 -5.94,-3.66 -8.91,-4.74l0 -4.48zm4.92 11.25l3.83 -0.03c-1.48,6.34 -4.48,11.45 -8.99,15.35l0 -5.62c2.35,-2.26 4.07,-5.49 5.16,-9.7zm64.19 -26.26c2.56,-0.29 3.83,0.97 3.83,3.78 -0.15,2.51 -1.3,5.29 -3.45,8.3 2.3,5.11 3.59,9.7 3.87,13.78 0,4.74 -1.88,7.38 -5.65,7.94l-3.72 0.55 0 -3.92 3.76 -0.56c1.42,-0.27 2.13,-1.35 2.13,-3.25 -0.85,-5.07 -2.22,-9.79 -4.1,-14.16 1.26,-1.36 2.38,-3.89 3.37,-7.61 0,-0.65 -0.32,-1.01 -0.97,-1.05l-5.3 0.78 0 33.75 -3.76 0.56 0 -37.42 9.99 -1.48zm-29 4.29l17.81 -2.63 0 3.92 -1.78 0.26 0 33.54 -3.71 0.55 0 -5.41c-3.3,1.14 -7.47,2.3 -12.51,3.47l0 -4.34c0.75,-0.11 1.47,-0.25 2.17,-0.41l0 -25.33 -1.98 0.29 0 -3.92zm5.54 28.13c2.3,-0.59 4.56,-1.33 6.78,-2.23l0 -4.73 -6.78 1 0 5.96zm0 -9.87l6.78 -1 0 -5.66 -6.78 1 0 5.66zm0 -9.53l6.78 -1 0 -5.62 -6.78 1 0 5.62zm33.73 -7.65l14.54 -3.47 0 -3.07c-3.87,1 -8.18,2.09 -12.94,3.25l0 -4.13c14.68,-3.5 24.81,-6.14 30.38,-7.93l0 4.09c-3.31,1.02 -7.89,2.27 -13.74,3.79l0 3.11 14.58 -3.48 0 3.96 -7.97 1.9c2.21,3.16 4.85,4.91 7.9,5.26l0 4.47c-5.44,-0.8 -9.42,-3.73 -11.91,-8.78l-2.6 0.62 0 7.49 -3.7 0.88 0 -7.49 -2.44 0.58c-1.3,3.94 -3.6,7.41 -6.91,10.42l16.99 -4.05c5.85,-1.39 8.83,0.59 8.93,5.96 0,5.22 -2.52,8.59 -7.55,10.1l-19.54 4.66 0 -15.66c-1.25,1.04 -2.6,2 -4.05,2.88l0 -4.34c3.8,-2.47 6.49,-5.46 8.1,-8.99l-8.06 1.92 0 -3.96zm7.63 20.7l0 2.77 15.35 -3.66c2.23,-0.76 3.62,-2.01 4.15,-3.76l-19.5 4.65zm19.39 -8.24c-0.66,-1.48 -2.28,-1.93 -4.85,-1.31l-14.54 3.47 0 2.47 19.39 -4.62z"/>
 </g>
</svg>
