<?xml version="1.0" encoding="UTF-8"?>
<!DOCTYPE svg PUBLIC "-//W3C//DTD SVG 1.1//EN" "http://www.w3.org/Graphics/SVG/1.1/DTD/svg11.dtd">
<!-- Creator: CorelDRAW 2021.5 -->
<svg xmlns="http://www.w3.org/2000/svg" xml:space="preserve" width="100%" height="100%" version="1.1" style="shape-rendering:geometricPrecision; text-rendering:geometricPrecision; image-rendering:optimizeQuality; fill-rule:evenodd; clip-rule:evenodd"
viewBox="0 0 157.01 157.01"
 xmlns:xlink="http://www.w3.org/1999/xlink"
 xmlns:xodm="http://www.corel.com/coreldraw/odm/2003">
 <defs>
  <style type="text/css">
   <![CDATA[
    .fil0 {fill:none;fill-rule:nonzero}
    .fil1 {fill:#8C2898;fill-rule:nonzero}
    .fil2 {fill:white;fill-rule:nonzero}
   ]]>
  </style>
   <clipPath id="id0" style="clip-rule:nonzero">
    <path d="M2.86 83.11c50.45,21.59 100.87,22.91 151.32,0.12 0.12,-1.59 0.15,-3.13 0.15,-4.72 0,-20.93 -8.47,-39.89 -22.21,-53.59 -13.74,-13.74 -32.66,-22.21 -53.59,-22.21 -20.93,0 -39.89,8.47 -53.59,22.21 -13.74,13.74 -22.21,32.66 -22.21,53.59 0,1.55 0.04,3.1 0.15,4.64l-0.04 -0.04z"/>
   </clipPath>
    <clipPath id="id1">
     <path d="M19.88 89.62c37.93,12.77 75.83,13.83 113.76,1.56l0 -64.71c-0.5,-0.52 -1,-1.04 -1.51,-1.55 -13.74,-13.74 -32.66,-22.21 -53.59,-22.21 -20.93,0 -39.89,8.47 -53.59,22.21 -1.78,1.78 -3.47,3.65 -5.07,5.6l0 59.1z"/>
    </clipPath>
    <clipPath id="id2">
     <path d="M2.86 83.11c50.45,21.59 100.87,22.91 151.32,0.12 0.12,-1.59 0.15,-3.13 0.15,-4.72 0,-20.93 -8.47,-39.89 -22.21,-53.59 -13.74,-13.74 -32.66,-22.21 -53.59,-22.21 -20.93,0 -39.89,8.47 -53.59,22.21 -13.74,13.74 -22.21,32.66 -22.21,53.59 0,1.55 0.04,3.1 0.15,4.64l-0.04 -0.04z"/>
    </clipPath>
 </defs>
 <g id="Layer_x0020_1">
  <metadata id="CorelCorpID_0Corel-Layer"/>
  <g>
  </g>
  <g style="clip-path:url(#id0)">
   <g id="_1788431188832">
   </g>
   <g style="clip-path:url(#id1)">
    <image x="19.88" y="-11.12" width="113.76" height="151.97" xlink:href="https://ik.imagekit.io/moearchive/calendar/nogi31/kitagawayuri.png"/>
   </g>
   <g style="clip-path:url(#id2)">
   </g>
  </g>
  <path class="fil0" d="M2.86 83.11c50.45,21.59 100.87,22.91 151.32,0.12 0.12,-1.59 0.15,-3.13 0.15,-4.72 0,-20.93 -8.47,-39.89 -22.21,-53.59 -13.74,-13.74 -32.66,-22.21 -53.59,-22.21 -20.93,0 -39.89,8.47 -53.59,22.21 -13.74,13.74 -22.21,32.66 -22.21,53.59 0,1.55 0.04,3.1 0.15,4.64l-0.04 -0.04z"/>
  <path class="fil1" d="M46.62 31.42c-1.86,1.24 -4.37,0.77 -5.61,-1.08 -1.24,-1.86 -0.77,-4.37 1.08,-5.61 0.85,-0.58 1.78,-1.16 2.71,-1.74 1.12,-0.7 2.05,-1.24 2.75,-1.63 1.97,-1.08 4.45,-0.35 5.49,1.63 1.08,1.97 0.35,4.45 -1.63,5.49 -1.04,0.58 -1.86,1.04 -2.44,1.39 -0.77,0.46 -1.59,0.97 -2.36,1.51l0 0.04zm31.88 -31.42c21.67,0 41.32,8.78 55.52,22.98 14.2,14.2 22.98,33.86 22.98,55.52 0,21.67 -8.78,41.32 -22.98,55.52 -14.2,14.2 -33.86,22.98 -55.52,22.98 -21.67,0 -41.32,-8.78 -55.52,-22.98 -14.2,-14.2 -22.98,-33.86 -22.98,-55.52 0,-21.67 8.78,-41.32 22.98,-55.52 14.2,-14.2 33.86,-22.98 55.52,-22.98zm-75.64 83.11c50.45,21.59 100.87,22.91 151.32,0.12 0.12,-1.59 0.15,-3.13 0.15,-4.72 0,-20.93 -8.47,-39.89 -22.21,-53.59 -13.74,-13.74 -32.66,-22.21 -53.59,-22.21 -20.93,0 -39.89,8.47 -53.59,22.21 -13.74,13.74 -22.21,32.66 -22.21,53.59 0,1.55 0.04,3.1 0.15,4.64l-0.04 -0.04zm20 -16.21c-0.46,2.21 -2.59,3.6 -4.8,3.13 -2.21,-0.46 -3.6,-2.59 -3.13,-4.8 1.32,-6.27 3.52,-12.3 6.58,-17.88 3.06,-5.57 6.93,-10.72 11.49,-15.21 1.59,-1.59 4.18,-1.55 5.73,0.04 1.59,1.59 1.55,4.14 -0.04,5.73 -4.02,3.95 -7.39,8.43 -10.06,13.31 -2.67,4.88 -4.6,10.14 -5.77,15.63l0 0.04z"/>
  <path class="fil2" d="M32.67 98.43l2.59 0.57 0 23.48 -2.59 -0.57 0 -2.3c-1.61,0.06 -3.95,-0.04 -7.05,-0.29l0 -2.62c2.5,0.19 4.85,0.27 7.05,0.23l0 -9.33 -7.13 -1.57 0 -2.65 7.13 1.57 0 -6.52zm15.03 9.37l0 2.57c-2.02,-0.01 -4.44,-0.2 -7.24,-0.57 0,0.12 0,0.25 0,0.38 0,4 0.07,6.99 0.21,8.97 0.16,1.28 0.89,2.07 2.2,2.35 2.27,0.5 3.88,0.72 4.83,0.66l0 2.76c-1.25,-0.11 -3.05,-0.43 -5.39,-0.94 -2.5,-0.59 -3.91,-2.3 -4.23,-5.15 -0.16,-2.31 -0.24,-5.31 -0.24,-9 0.05,-3.81 0.18,-7.22 0.4,-10.22l2.61 0.58c-0.14,2.33 -0.24,4.7 -0.32,7.1 2.34,0.24 4.73,0.42 7.16,0.52zm23.21 -3.57l2.67 0.24 0 24.15 -2.67 -0.24 0 -24.15zm-8.19 -0.08l2.62 0.23 0 22.45 -2.62 -0.23 0 -22.45zm-5.33 -1.13l0 9.74c0,4.36 -0.44,7.43 -1.32,9.21 -1.01,2.43 -2.1,4.08 -3.29,4.93l-0.03 -3.9c0.57,-0.87 1.06,-2.14 1.46,-3.82 0.4,-1.55 0.59,-3.75 0.59,-6.58l0.05 -9.79 2.53 0.2zm29.36 17.11l2.5 -0.25c-0.02,1.06 -0.03,2.38 -0.03,3.93 0.02,0.92 0.97,1.28 2.85,1.1 2.77,-0.27 5.05,-0.56 6.86,-0.86l0 2.38c-2.56,0.34 -5.24,0.65 -8.02,0.92 -2.78,0.27 -4.18,-0.91 -4.2,-3.53 0.02,-1.45 0.03,-2.67 0.03,-3.68zm4.09 -0.43l2.83 -0.28c0.75,1.42 1.29,2.83 1.62,4.22l-2.64 0.26c-0.3,-1.41 -0.91,-2.81 -1.8,-4.2zm6.03 -0.56l2.8 -0.28c1.56,2.17 2.79,4.6 3.68,7.26l-2.77 0.24c-0.79,-2.55 -2.03,-4.97 -3.72,-7.23zm-12.89 -15.13l2.72 -0.27c-0.57,1.59 -1.23,3.02 -1.97,4.31l0 11.41 -2.48 0.24 0 -8.33c-0.77,0.81 -1.61,1.51 -2.5,2.08l0 -3.16c1.74,-1.31 3.15,-3.4 4.23,-6.29zm2.8 1.62l2.42 -0.24 0 13.17 -2.42 0.24 0 -13.17zm8.24 1.6c0.25,2.19 0.9,3.95 1.97,5.27 1.19,-1.54 1.92,-3.43 2.21,-5.68l-4.17 0.41zm6.67 -0.66c-0.34,2.97 -1.34,5.47 -2.99,7.48 1.22,0.8 2.72,1.28 4.49,1.46l0 2.57c-2.64,-0.18 -4.78,-0.86 -6.43,-2.07 -1.62,1.29 -3.61,2.33 -5.98,3.1l0 -2.54c1.69,-0.54 3.11,-1.26 4.28,-2.15 -1.02,-1.27 -1.74,-2.86 -2.15,-4.76 -0.67,0.97 -1.49,1.82 -2.48,2.54l0 -2.92c1.29,-1.59 1.95,-3.6 1.97,-6.03l2.48 -0.24c-0.02,0.62 -0.06,1.21 -0.14,1.77l8.26 -0.81 0 2.49 -1.32 0.13zm-18.84 13.91l2.61 -0.26c-0.09,3.71 -1.84,6.58 -5.25,8.63l0.03 -2.98c1.72,-1.45 2.6,-3.25 2.61,-5.39zm24.6 -9.12l2.59 -0.54 0 -6.49 -2.38 0.49 0 -2.54 7.6 -1.58 0 2.54 -2.73 0.57 0 6.49 2.62 -0.54 0 2.52 -2.62 0.54 0 6.38c0.88,-0.33 1.77,-0.7 2.65,-1.12l0 2.68c-2.03,0.91 -4.55,1.79 -7.55,2.65l0 -2.73c0.8,-0.18 1.6,-0.39 2.41,-0.63l0 -6.71 -2.59 0.54 0 -2.52zm11.12 -3.79l0 3.14 3.05 -0.63 0 -3.14 -3.05 0.63zm3.05 4.91l-5.48 1.14 0 -13.47 8.53 -1.77c3.76,-0.78 5.68,1.04 5.77,5.45 0,4.27 -1.62,6.88 -4.87,7.83l-1.41 0.29 0 2.05 5.59 -1.16 0 2.63 -5.59 1.16 0 2.43 6.28 -1.3 0 2.65 -14.7 3.05 0 -2.65 5.88 -1.22 0 -2.43 -5.41 1.12 0 -2.63 5.41 -1.12 0 -2.05zm2.54 -2.93l1.06 -0.22c1.55,-0.58 2.45,-1.81 2.7,-3.7l-3.76 0.78 0 3.14zm3.79 -6.28c-0.27,-2.15 -1.36,-3.02 -3.28,-2.62l-0.51 0.1 0 3.3 3.79 -0.79zm-6.33 -1.99l-3.05 0.63 0 3.3 3.05 -0.63 0 -3.3z"/>
 </g>
</svg>
