<?xml version="1.0" encoding="UTF-8"?>
<!DOCTYPE svg PUBLIC "-//W3C//DTD SVG 1.1//EN" "http://www.w3.org/Graphics/SVG/1.1/DTD/svg11.dtd">
<!-- Creator: CorelDRAW 2021.5 -->
<svg xmlns="http://www.w3.org/2000/svg" xml:space="preserve" width="100%" height="100%" version="1.1" style="shape-rendering:geometricPrecision; text-rendering:geometricPrecision; image-rendering:optimizeQuality; fill-rule:evenodd; clip-rule:evenodd"
viewBox="0 0 157.01 157.01"
 xmlns:xlink="http://www.w3.org/1999/xlink"
 xmlns:xodm="http://www.corel.com/coreldraw/odm/2003">
 <defs>
  <style type="text/css">
   <![CDATA[
    .fil0 {fill:none;fill-rule:nonzero}
    .fil1 {fill:#8C2898;fill-rule:nonzero}
    .fil2 {fill:white;fill-rule:nonzero}
   ]]>
  </style>
   <clipPath id="id0" style="clip-rule:nonzero">
    <path d="M2.86 83.11c50.45,21.59 100.87,22.91 151.32,0.12 0.12,-1.59 0.15,-3.13 0.15,-4.72 0,-20.93 -8.47,-39.89 -22.21,-53.59 -13.74,-13.74 -32.66,-22.21 -53.59,-22.21 -20.93,0 -39.89,8.47 -53.59,22.21 -13.74,13.74 -22.21,32.66 -22.21,53.59 0,1.55 0.04,3.1 0.15,4.64l-0.04 -0.04z"/>
   </clipPath>
    <clipPath id="id1">
     <path d="M19.88 89.62c37.93,12.77 75.83,13.83 113.76,1.56l0 -64.71c-0.5,-0.52 -1,-1.04 -1.51,-1.55 -13.74,-13.74 -32.66,-22.21 -53.59,-22.21 -20.93,0 -39.89,8.47 -53.59,22.21 -1.78,1.78 -3.47,3.65 -5.07,5.6l0 59.1z"/>
    </clipPath>
    <clipPath id="id2">
     <path d="M2.86 83.11c50.45,21.59 100.87,22.91 151.32,0.12 0.12,-1.59 0.15,-3.13 0.15,-4.72 0,-20.93 -8.47,-39.89 -22.21,-53.59 -13.74,-13.74 -32.66,-22.21 -53.59,-22.21 -20.93,0 -39.89,8.47 -53.59,22.21 -13.74,13.74 -22.21,32.66 -22.21,53.59 0,1.55 0.04,3.1 0.15,4.64l-0.04 -0.04z"/>
    </clipPath>
 </defs>
 <g id="Layer_x0020_1">
  <metadata id="CorelCorpID_0Corel-Layer"/>
  <g>
  </g>
  <g style="clip-path:url(#id0)">
   <g id="_1823092620800">
   </g>
   <g style="clip-path:url(#id1)">
    <image x="19.88" y="-11.12" width="113.76" height="151.97" xlink:href="https://ik.imagekit.io/moearchive/calendar/nogi35fix/matsuomiyu.png"/>
   </g>
   <g style="clip-path:url(#id2)">
   </g>
  </g>
  <path class="fil0" d="M2.86 83.11c50.45,21.59 100.87,22.91 151.32,0.12 0.12,-1.59 0.15,-3.13 0.15,-4.72 0,-20.93 -8.47,-39.89 -22.21,-53.59 -13.74,-13.74 -32.66,-22.21 -53.59,-22.21 -20.93,0 -39.89,8.47 -53.59,22.21 -13.74,13.74 -22.21,32.66 -22.21,53.59 0,1.55 0.04,3.1 0.15,4.64l-0.04 -0.04z"/>
  <path class="fil1" d="M46.62 31.42c-1.86,1.24 -4.37,0.77 -5.61,-1.08 -1.24,-1.86 -0.77,-4.37 1.08,-5.61 0.85,-0.58 1.78,-1.16 2.71,-1.74 1.12,-0.7 2.05,-1.24 2.75,-1.63 1.97,-1.08 4.45,-0.35 5.49,1.63 1.08,1.97 0.35,4.45 -1.63,5.49 -1.04,0.58 -1.86,1.04 -2.44,1.39 -0.77,0.46 -1.59,0.97 -2.36,1.51l0 0.04zm31.88 -31.42c21.67,0 41.32,8.78 55.52,22.98 14.2,14.2 22.98,33.86 22.98,55.52 0,21.67 -8.78,41.32 -22.98,55.52 -14.2,14.2 -33.86,22.98 -55.52,22.98 -21.67,0 -41.32,-8.78 -55.52,-22.98 -14.2,-14.2 -22.98,-33.86 -22.98,-55.52 0,-21.67 8.78,-41.32 22.98,-55.52 14.2,-14.2 33.86,-22.98 55.52,-22.98zm-75.64 83.11c50.45,21.59 100.87,22.91 151.32,0.12 0.12,-1.59 0.15,-3.13 0.15,-4.72 0,-20.93 -8.47,-39.89 -22.21,-53.59 -13.74,-13.74 -32.66,-22.21 -53.59,-22.21 -20.93,0 -39.89,8.47 -53.59,22.21 -13.74,13.74 -22.21,32.66 -22.21,53.59 0,1.55 0.04,3.1 0.15,4.64l-0.04 -0.04zm20 -16.21c-0.46,2.21 -2.59,3.6 -4.8,3.13 -2.21,-0.46 -3.6,-2.59 -3.13,-4.8 1.32,-6.27 3.52,-12.3 6.58,-17.88 3.06,-5.57 6.93,-10.72 11.49,-15.21 1.59,-1.59 4.18,-1.55 5.73,0.04 1.59,1.59 1.55,4.14 -0.04,5.73 -4.02,3.95 -7.39,8.43 -10.06,13.31 -2.67,4.88 -4.6,10.14 -5.77,15.63l0 0.04z"/>
  <path class="fil2" d="M24.73 98.6l3.7 0.82 0 -2.16 2.48 0.55 0 2.16 3.57 0.79 0 2.62 -0.64 -0.14c0.04,7.04 0.24,13.42 0.61,19.12l-2.09 -0.46c-0.33,-3.83 -0.51,-10.19 -0.53,-19.11l-0.92 -0.2 0 19.58 -2.48 -0.55 0 -19.58 -0.87 -0.19c-0.09,6.56 -0.26,12.86 -0.5,18.9l-2.09 -0.46c0.37,-5.89 0.56,-12.18 0.58,-18.88l-0.82 -0.18 0 -2.62zm14.87 10.18l2.88 0.64 -4.09 10.7c0,0.34 0.17,0.56 0.5,0.65l3.86 0.85c0.53,0.04 0.79,-0.27 0.79,-0.93l0 -4.52 2.53 0.56 0 5.68c-0.09,1.48 -0.98,2.11 -2.67,1.9l-6.68 -1.47c-0.7,-0.21 -1.19,-0.84 -1.45,-1.89 0,-0.31 0.06,-0.69 0.18,-1.15l4.14 -11.01zm-2.08 -9.22l2.56 0.56c-0.62,5.32 -2.37,9.46 -5.26,12.39l0 -3.97c1.44,-2.51 2.34,-5.51 2.7,-8.98zm4.12 0.88l2.48 0.55c0.51,4.44 1.68,7.88 3.52,10.32l0 3.71c-2.94,-2.42 -4.94,-7.28 -5.99,-14.57zm11.8 2.91l17.86 1.63c0.75,0.1 1.47,0.51 2.16,1.22 0.46,0.55 0.7,1.35 0.7,2.39 0,1.08 -0.23,1.84 -0.7,2.29 -0.54,0.55 -1.27,0.78 -2.18,0.7l-15.27 -1.37c-0.14,6.25 -0.57,11.65 -1.27,16.22l-2.5 -0.22c0.7,-4.59 1.1,-10.58 1.21,-17.99l0 -4.86zm2.59 4.72l14.41 1.29c0.7,-0.03 1.05,-0.34 1.05,-0.93 0,-0.83 -0.29,-1.32 -0.89,-1.46l-14.57 -1.31 0 2.41zm17.99 4.67l0 2.35c-2.1,-0.03 -5.12,-0.17 -9.05,-0.43 -0.04,0.63 -0.06,1.23 -0.08,1.81 4.24,0.31 7.37,0.44 9.4,0.41l0 2.33c-2.17,0.02 -5.32,-0.11 -9.45,-0.39 0,0.18 0,0.35 0,0.51 0,0.43 0,0.84 0,1.24 4.49,0.31 7.82,0.41 9.99,0.28l0 2.46c-2.32,0.05 -5.65,-0.06 -9.99,-0.33 0,0.12 0,0.27 0,0.43 0.14,1 0.99,1.57 2.53,1.71 3.6,0.16 6.05,0.18 7.36,0.06l0 2.6c-2.53,0.1 -5.06,0.03 -7.59,-0.2 -2.61,-0.23 -4.19,-1.35 -4.77,-3.35 -0.05,-0.44 -0.09,-0.91 -0.11,-1.42 -1.77,-0.12 -3.7,-0.27 -5.77,-0.43l0 -2.46c2.05,0.18 3.94,0.33 5.69,0.45 0,-0.32 0,-0.67 0,-1.05 0.02,-0.23 0.02,-0.47 0.02,-0.7 -1.63,-0.11 -3.4,-0.24 -5.31,-0.39l0 -2.43c1.94,0.17 3.73,0.32 5.36,0.45 0.02,-0.59 0.04,-1.2 0.06,-1.81 -1.58,-0.1 -3.27,-0.24 -5.07,-0.4l0 -2.35c8.12,0.73 13.71,1.08 16.79,1.04zm10.25 -8.74l2.83 -0.24c0.16,0.54 0.37,1.1 0.62,1.68l7.28 -0.62c0.3,-0.6 0.57,-1.19 0.78,-1.77l2.72 -0.23c-0.18,0.63 -0.39,1.21 -0.62,1.76l4.39 -0.37 0 2.49 -9.87 0.83 0 1.59 9.19 -0.78 0 2.49 -9.19 0.78 0 1.63 9.73 -0.82 0 2.49 -22.1 1.87 0 -2.49 9.76 -0.83 0 -1.63 -9.08 0.77 0 -2.49 9.08 -0.77 0 -1.59 -9.71 0.82 0 -2.49 4.77 -0.4c-0.23,-0.56 -0.43,-1.12 -0.59,-1.68zm-4.39 15.14l9.83 -0.83c0.02,-0.08 0.03,-0.15 0.03,-0.22l-0.06 -1.35 2.78 -0.24 0 1.35c0,0.07 -0.01,0.14 -0.03,0.22l9.87 -0.83 0 2.46 -9.52 0.81c2.1,2.13 5.3,3.23 9.59,3.3l0 2.68c-5.32,-0.24 -9.08,-1.59 -11.29,-4.05 -1.85,2.89 -5.59,4.87 -11.21,5.92l0 -2.68c4.81,-0.95 7.86,-2.57 9.13,-4.86l-9.13 0.77 0 -2.46zm31.89 -18.57l2.78 -0.58c-0.62,2.04 -1.32,3.9 -2.12,5.58l0 19.04 -2.59 0.54 0 -15.2c-0.95,1.33 -1.99,2.48 -3.1,3.43l0 -3.35c2.07,-2.07 3.74,-5.22 5.03,-9.45zm2.49 2.59l5.22 -1.08c0.19,-1.03 0.33,-2.09 0.39,-3.19l2.63 -0.54c-0.11,1.1 -0.25,2.17 -0.42,3.19l7.84 -1.63 0 2.7 -8.39 1.74c-0.55,2.06 -1.28,3.96 -2.2,5.7l5.62 -1.17c1.48,-0.18 2.61,0.18 3.39,1.08 0.85,0.96 1.27,2.37 1.27,4.22 0,1.92 -0.42,3.52 -1.27,4.81 -0.78,1.37 -1.81,2.21 -3.1,2.54l-8.61 1.79 0 -9.31c-0.99,1.16 -2.09,2.21 -3.31,3.15l0 -2.89c2.61,-2.55 4.46,-5.67 5.54,-9.37l-4.58 0.95 0 -2.7zm4.95 9.41l0 7.63 5.3 -1.1c1.55,-0.66 2.38,-2.22 2.49,-4.65 -0.14,-2.08 -1.1,-3.04 -2.86,-2.9l-4.93 1.02z"/>
 </g>
</svg>
