<?xml version="1.0" encoding="UTF-8"?>
<!DOCTYPE svg PUBLIC "-//W3C//DTD SVG 1.1//EN" "http://www.w3.org/Graphics/SVG/1.1/DTD/svg11.dtd">
<!-- Creator: CorelDRAW 2021.5 -->
<svg xmlns="http://www.w3.org/2000/svg" xml:space="preserve" width="100%" height="100%" version="1.1" style="shape-rendering:geometricPrecision; text-rendering:geometricPrecision; image-rendering:optimizeQuality; fill-rule:evenodd; clip-rule:evenodd"
viewBox="0 0 143.89 143.89"
 xmlns:xlink="http://www.w3.org/1999/xlink"
 xmlns:xodm="http://www.corel.com/coreldraw/odm/2003">
 <defs>
  <style type="text/css">
   <![CDATA[
    .fil0 {fill:none;fill-rule:nonzero}
    .fil1 {fill:#8C2898;fill-rule:nonzero}
    .fil2 {fill:white;fill-rule:nonzero}
   ]]>
  </style>
   <clipPath id="id0" style="clip-rule:nonzero">
    <path d="M2.62 76.17c46.24,19.79 92.44,20.99 138.68,0.11 0.11,-1.45 0.14,-2.87 0.14,-4.33 0,-19.18 -7.77,-36.56 -20.35,-49.11 -12.59,-12.59 -29.93,-20.35 -49.11,-20.35 -19.18,0 -36.56,7.77 -49.11,20.35 -12.59,12.59 -20.35,29.93 -20.35,49.11 0,1.42 0.04,2.84 0.14,4.25l-0.04 -0.04z"/>
   </clipPath>
    <clipPath id="id1">
     <path d="M18.22 82.13c34.76,11.7 69.5,12.67 104.25,1.43l0 -59.3c-0.45,-0.48 -0.92,-0.95 -1.38,-1.42 -12.59,-12.59 -29.93,-20.35 -49.11,-20.35 -19.18,0 -36.56,7.77 -49.11,20.35 -1.63,1.63 -3.18,3.35 -4.65,5.13l0 54.16z"/>
    </clipPath>
    <clipPath id="id2">
     <path d="M2.62 76.17c46.24,19.79 92.44,20.99 138.68,0.11 0.11,-1.45 0.14,-2.87 0.14,-4.33 0,-19.18 -7.77,-36.56 -20.35,-49.11 -12.59,-12.59 -29.93,-20.35 -49.11,-20.35 -19.18,0 -36.56,7.77 -49.11,20.35 -12.59,12.59 -20.35,29.93 -20.35,49.11 0,1.42 0.04,2.84 0.14,4.25l-0.04 -0.04z"/>
    </clipPath>
 </defs>
 <g id="Layer_x0020_1">
  <metadata id="CorelCorpID_0Corel-Layer"/>
  <g>
  </g>
  <g style="clip-path:url(#id0)">
   <g id="_1823134110528">
   </g>
   <g style="clip-path:url(#id1)">
    <image x="18.22" y="-10.19" width="104.25" height="139.27" xlink:href="https://ik.imagekit.io/moearchive/calendar/nogi35fix/satourika.png"/>
   </g>
   <g style="clip-path:url(#id2)">
   </g>
  </g>
  <path class="fil0" d="M2.62 76.17c46.24,19.79 92.44,20.99 138.68,0.11 0.11,-1.45 0.14,-2.87 0.14,-4.33 0,-19.18 -7.77,-36.56 -20.35,-49.11 -12.59,-12.59 -29.93,-20.35 -49.11,-20.35 -19.18,0 -36.56,7.77 -49.11,20.35 -12.59,12.59 -20.35,29.93 -20.35,49.11 0,1.42 0.04,2.84 0.14,4.25l-0.04 -0.04z"/>
  <path class="fil1" d="M42.73 28.79c-1.7,1.13 -4.01,0.71 -5.14,-0.99 -1.13,-1.7 -0.71,-4.01 0.99,-5.14 0.78,-0.53 1.63,-1.06 2.48,-1.6 1.03,-0.64 1.88,-1.13 2.52,-1.49 1.81,-0.99 4.08,-0.32 5.04,1.49 0.99,1.81 0.32,4.08 -1.49,5.04 -0.96,0.53 -1.7,0.96 -2.23,1.28 -0.71,0.43 -1.45,0.89 -2.16,1.38l0 0.04zm29.22 -28.79c19.86,0 37.87,8.05 50.88,21.06 13.01,13.01 21.06,31.03 21.06,50.88 0,19.86 -8.05,37.87 -21.06,50.88 -13.01,13.01 -31.03,21.06 -50.88,21.06 -19.86,0 -37.87,-8.05 -50.88,-21.06 -13.01,-13.01 -21.06,-31.03 -21.06,-50.88 0,-19.86 8.05,-37.87 21.06,-50.88 13.01,-13.01 31.03,-21.06 50.88,-21.06zm-69.32 76.17c46.24,19.79 92.44,20.99 138.68,0.11 0.11,-1.45 0.14,-2.87 0.14,-4.33 0,-19.18 -7.77,-36.56 -20.35,-49.11 -12.59,-12.59 -29.93,-20.35 -49.11,-20.35 -19.18,0 -36.56,7.77 -49.11,20.35 -12.59,12.59 -20.35,29.93 -20.35,49.11 0,1.42 0.04,2.84 0.14,4.25l-0.04 -0.04zm18.33 -14.86c-0.43,2.02 -2.38,3.3 -4.4,2.87 -2.02,-0.43 -3.3,-2.38 -2.87,-4.4 1.21,-5.74 3.23,-11.28 6.03,-16.38 2.8,-5.11 6.35,-9.82 10.53,-13.94 1.45,-1.45 3.83,-1.42 5.25,0.04 1.45,1.45 1.42,3.79 -0.04,5.25 -3.69,3.62 -6.77,7.73 -9.22,12.2 -2.45,4.47 -4.22,9.29 -5.28,14.33l0 0.04z"/>
  <path class="fil2" d="M28.94 92.32l4.75 1.05c0.11,-0.8 0.18,-1.66 0.19,-2.56l2.45 0.54c-0.05,0.9 -0.13,1.75 -0.24,2.55l7.31 1.61 0 2.4 -7.77 -1.71c-0.4,1.58 -0.96,2.95 -1.67,4.12l9.01 1.99 0 2.4 -5.37 -1.19 0 7.48 5.81 1.28 0 2.43 -14.42 -3.18 0 -2.43 6.17 1.36 0 -7.48 -2.81 -0.62c-1.14,1.15 -2.56,1.97 -4.23,2.44l0 -2.77c2.52,-1.21 4.21,-3.33 5.08,-6.37l-4.24 -0.93 0 -2.4zm-2.37 -3.1l2.54 0.56c-0.58,1.69 -1.25,3.15 -2.01,4.39l0 17.52 -2.37 -0.52 0 -14.1c-0.79,0.72 -1.65,1.27 -2.57,1.67l0 -3.22c1.81,-1.02 3.28,-3.12 4.41,-6.29zm20.98 5.84l4.79 0.43 0 -1.09 2.44 0.22 0 1.09 6.47 0.58 0 -1.21 2.44 0.22 0 1.21 4.67 0.42 0 2.18 -4.67 -0.42 0 1.07 -2.44 -0.22 0 -1.07 -6.47 -0.58 0 1.07 -2.44 -0.22 0 -1.07 -4.79 -0.43 0 -2.18zm4.35 4.16c1.4,0.31 2.15,1.12 2.27,2.46 0.26,1.43 0.39,3.61 0.39,6.53 0,2.43 -0.03,4.19 -0.1,5.27 0,1.84 -0.67,2.72 -2.03,2.67 -0.59,-0.09 -1.19,-0.17 -1.8,-0.26l0 -2.08c0.44,0.09 0.88,0.16 1.31,0.19 0.31,-0.04 0.48,-0.29 0.49,-0.75 0.03,-0.95 0.06,-1.88 0.08,-2.77l-2.39 -0.21c-0.12,2.76 -0.3,4.65 -0.54,5.65l-2.05 -0.18c0.43,-2.24 0.67,-5.5 0.72,-9.78l0 -7.06 3.66 0.33zm-1.71 8.99l2.32 0.21c0,-0.08 0,-0.16 0,-0.25 0,-0.82 -0.01,-1.6 -0.03,-2.33l-2.27 -0.2 0 0.47c-0.02,0.73 -0.02,1.43 -0.02,2.1zm0.02 -4.66l2.17 0.19c-0.03,-0.65 -0.08,-1.28 -0.15,-1.9 0,-0.41 -0.27,-0.68 -0.82,-0.79l-1.21 -0.11 0 2.6zm6.35 -3.5l2.15 0.19c0.16,0.56 0.3,1.11 0.42,1.65l1.34 0.12c0.18,-0.61 0.3,-1.25 0.37,-1.93l2.02 0.18c-0.07,0.69 -0.17,1.33 -0.32,1.93l1.46 0.13c0.26,-0.56 0.48,-1.1 0.64,-1.63l2.17 0.19c-0.21,0.61 -0.44,1.15 -0.67,1.62l1.73 0.15 0 1.91 -3.51 -0.31c0.18,0.5 0.4,0.96 0.64,1.4l3.4 0.31 0 2.01 -1.85 -0.17c0.58,0.61 1.24,1.17 2,1.67l-0.03 2.25c-0.54,-0.3 -1.05,-0.61 -1.53,-0.95l0 0.82c-0.87,-0.04 -1.96,-0.06 -3.28,-0.04l0 -1.78c0.66,-0.04 1.33,-0.06 2,-0.07 -0.64,-0.62 -1.21,-1.32 -1.71,-2.11l-4.07 -0.36c-0.68,0.72 -1.47,1.33 -2.37,1.85 1.02,0.12 1.84,0.24 2.44,0.34l0 1.73c-0.82,-0.14 -2.09,-0.3 -3.8,-0.49l0 -0.92c-0.28,0.12 -0.57,0.23 -0.86,0.32l0 -2.06c0.64,-0.29 1.23,-0.63 1.78,-1.03l-1.71 -0.15 0 -2.01 3.58 0.32c0.28,-0.39 0.54,-0.81 0.79,-1.27l-4.18 -0.37 0 -1.91 1.43 0.13c-0.13,-0.52 -0.29,-1.08 -0.49,-1.66zm6.34 5.43c-0.21,-0.43 -0.4,-0.89 -0.54,-1.39l-0.4 -0.04c-0.18,0.47 -0.4,0.89 -0.64,1.28l1.58 0.14zm-2.15 6.15c-0.02,-1.13 -0.03,-2.29 -0.03,-3.5l2.22 0.2c0.01,1.11 0.02,2.3 0.02,3.57 1.68,0.83 3.5,1.54 5.46,2.13l0 2.01c-1.97,-0.44 -3.79,-1.08 -5.46,-1.9 -0.05,0.79 -0.24,1.42 -0.56,1.9 -0.51,0.58 -1.08,0.86 -1.71,0.82l-2.64 -0.24 0 -2.03 1.8 0.16c0.59,0.05 0.89,-0.21 0.89,-0.79 0,-0.08 0,-0.17 0,-0.25 -1.25,0.23 -3.02,0.42 -5.31,0.56l0 -2.16c1.86,-0.1 3.63,-0.26 5.31,-0.49zm12.01 -6.63l2.25 -0.19 0 -5.93 -2.22 0.19 0 -2.2 6.89 -0.58 0 2.2 -2.35 0.2 0 5.93 2.25 -0.19 0 2.33 -2.25 0.19 0 5.63c0.76,-0.22 1.53,-0.47 2.32,-0.77l0 2.4c-1.85,0.63 -4.14,1.19 -6.89,1.67l0 -2.4c0.74,-0.08 1.49,-0.19 2.25,-0.34l0 -6 -2.25 0.19 0 -2.33zm7.58 -8.72l5.41 -0.46 0 -1.34 2.5 -0.21 0 1.34 5.63 -0.48 0 2.06 -13.53 1.15 0 -2.06zm0.64 2.77l2.18 -0.18 0 4.74c0,0.28 0.13,0.41 0.4,0.39l6.86 -0.58c0.28,-0.02 0.42,-0.12 0.42,-0.31l0 -4.89 2.15 -0.18 0 5.48c0,1.11 -0.67,1.74 -2,1.88l-3.11 0.26c-0.11,0.32 -0.22,0.61 -0.32,0.87l3.48 -0.29c1.32,0.12 2.15,0.74 2.5,1.84 0.2,0.49 0.31,1.45 0.35,2.85 0,0.86 -0.03,1.56 -0.1,2.09 -0.36,1.8 -1.29,2.82 -2.79,3.06 -1.33,0.11 -2.36,0.13 -3.09,0.04l0 -2.06c0.75,0 1.56,-0.02 2.42,-0.06 0.64,-0.09 1.03,-0.43 1.16,-1.04 0.1,-0.49 0.15,-1.07 0.15,-1.73 0,-0.84 -0.06,-1.49 -0.19,-1.94 -0.05,-0.71 -0.44,-1.03 -1.16,-0.97l-3.48 0.29c-0.74,2.05 -1.11,3.13 -1.11,3.25l2.2 -0.19c0.16,-0.01 0.27,-0.13 0.32,-0.35l0 -1.88 1.98 -0.17 0 2.58c-0.12,0.95 -0.82,1.5 -2.1,1.64l-3.36 0.28c-0.86,-0.04 -1.3,-0.41 -1.34,-1.1 0,-0.11 0.41,-1.41 1.24,-3.87l-2.02 0.17 0 7.98 -2.17 0.18 0 -10.01 4.89 -0.41c0.1,-0.28 0.2,-0.56 0.3,-0.87l-2.72 0.23c-1.07,0.06 -1.7,-0.45 -1.9,-1.53l0 -5.5zm7.16 -0.73l2.1 -0.18c-0.44,0.78 -0.92,1.47 -1.43,2.08 0.39,0.2 0.77,0.41 1.13,0.65l0 2.13c-0.84,-0.51 -1.68,-0.97 -2.52,-1.37 -1.02,0.86 -2.16,1.51 -3.43,1.95l0 -1.86c0.59,-0.2 1.14,-0.48 1.66,-0.83 -0.56,-0.2 -1.11,-0.38 -1.66,-0.53l0 -1.91c1.12,0.3 2.19,0.66 3.21,1.07 0.31,-0.36 0.62,-0.76 0.94,-1.2zm25.65 -7.97c2.9,-0.5 4.34,0.91 4.34,4.23 0,3.04 -1.25,4.96 -3.76,5.74l-4.75 0.96 0 1.39 9.12 -1.89 0 2.38 -4.37 0.91c1.02,1.79 2.43,3.01 4.23,3.66l0 2.95c-2.93,-0.93 -5.19,-2.96 -6.8,-6.08l-2.18 0.45 0 7.88 -2.45 0.51 0 -7.88 -2.16 0.45c-0.94,3.43 -3.24,6.37 -6.91,8.8l0 -2.75c2.29,-1.7 3.79,-3.55 4.49,-5.54l-4.56 0.95 0 -2.38 9.15 -1.9 0 -1.39 -7.38 1.53 0 -10.06 14 -2.91zm-11.65 10.2l5.02 -1.04 0 -1.73 -5.02 1.04 0 1.73zm0 -3.91l5.02 -1.04 0 -1.74 -5.02 1.04 0 1.74zm7.48 -3.29l0 1.74 6.02 -1.25c-0.23,-1.11 -0.86,-1.56 -1.89,-1.35l-4.13 0.86zm6.02 2.67l-6.02 1.25 0 1.76 4.32 -0.9c0.95,-0.21 1.52,-0.92 1.7,-2.11z"/>
 </g>
</svg>
