<?xml version="1.0" encoding="UTF-8"?>
<!DOCTYPE svg PUBLIC "-//W3C//DTD SVG 1.1//EN" "http://www.w3.org/Graphics/SVG/1.1/DTD/svg11.dtd">
<!-- Creator: CorelDRAW 2021.5 -->
<svg xmlns="http://www.w3.org/2000/svg" xml:space="preserve" width="100%" height="100%" version="1.1" style="shape-rendering:geometricPrecision; text-rendering:geometricPrecision; image-rendering:optimizeQuality; fill-rule:evenodd; clip-rule:evenodd"
viewBox="0 0 216.12 216.12"
 xmlns:xlink="http://www.w3.org/1999/xlink"
 xmlns:xodm="http://www.corel.com/coreldraw/odm/2003">
 <defs>
  <style type="text/css">
   <![CDATA[
    .fil0 {fill:none;fill-rule:nonzero}
    .fil1 {fill:#8C2898;fill-rule:nonzero}
    .fil2 {fill:white;fill-rule:nonzero}
   ]]>
  </style>
   <clipPath id="id0" style="clip-rule:nonzero">
    <path d="M3.94 114.4c69.45,29.72 138.84,31.53 208.29,0.16 0.16,-2.18 0.21,-4.31 0.21,-6.5 0,-28.81 -11.66,-54.91 -30.57,-73.76 -18.91,-18.91 -44.95,-30.57 -73.76,-30.57 -28.81,0 -54.91,11.66 -73.76,30.57 -18.91,18.91 -30.57,44.95 -30.57,73.76 0,2.13 0.05,4.26 0.21,6.39l-0.05 -0.05z"/>
   </clipPath>
    <clipPath id="id1">
     <path d="M27.37 123.35c52.2,17.57 104.38,19.04 156.58,2.15l0 -89.07c-0.68,-0.72 -1.38,-1.43 -2.08,-2.14 -18.91,-18.91 -44.95,-30.57 -73.76,-30.57 -28.81,0 -54.91,11.66 -73.76,30.57 -2.45,2.45 -4.78,5.03 -6.98,7.71l0 81.35z"/>
    </clipPath>
    <clipPath id="id2">
     <path d="M3.94 114.4c69.45,29.72 138.84,31.53 208.29,0.16 0.16,-2.18 0.21,-4.31 0.21,-6.5 0,-28.81 -11.66,-54.91 -30.57,-73.76 -18.91,-18.91 -44.95,-30.57 -73.76,-30.57 -28.81,0 -54.91,11.66 -73.76,30.57 -18.91,18.91 -30.57,44.95 -30.57,73.76 0,2.13 0.05,4.26 0.21,6.39l-0.05 -0.05z"/>
    </clipPath>
 </defs>
 <g id="Layer_x0020_1">
  <metadata id="CorelCorpID_0Corel-Layer"/>
  <g>
  </g>
  <g style="clip-path:url(#id0)">
   <g id="_1823105898288">
   </g>
   <g style="clip-path:url(#id1)">
    <image x="27.37" y="-15.31" width="156.58" height="209.18" xlink:href="https://ik.imagekit.io/moearchive/calendar/nogi35fix/shibatayuna.png"/>
   </g>
   <g style="clip-path:url(#id2)">
   </g>
  </g>
  <path class="fil0" d="M3.94 114.4c69.45,29.72 138.84,31.53 208.29,0.16 0.16,-2.18 0.21,-4.31 0.21,-6.5 0,-28.81 -11.66,-54.91 -30.57,-73.76 -18.91,-18.91 -44.95,-30.57 -73.76,-30.57 -28.81,0 -54.91,11.66 -73.76,30.57 -18.91,18.91 -30.57,44.95 -30.57,73.76 0,2.13 0.05,4.26 0.21,6.39l-0.05 -0.05z"/>
  <path class="fil1" d="M64.18 43.25c-2.56,1.7 -6.02,1.06 -7.72,-1.49 -1.7,-2.56 -1.06,-6.02 1.49,-7.72 1.17,-0.8 2.45,-1.6 3.73,-2.4 1.54,-0.96 2.82,-1.7 3.78,-2.24 2.72,-1.49 6.12,-0.48 7.56,2.24 1.49,2.72 0.48,6.12 -2.24,7.56 -1.44,0.8 -2.56,1.44 -3.36,1.92 -1.06,0.64 -2.18,1.33 -3.25,2.08l0 0.05zm43.88 -43.25c29.82,0 56.88,12.09 76.42,31.64 19.55,19.55 31.64,46.6 31.64,76.42 0,29.82 -12.09,56.88 -31.64,76.42 -19.55,19.55 -46.6,31.64 -76.42,31.64 -29.82,0 -56.88,-12.09 -76.42,-31.64 -19.55,-19.55 -31.64,-46.6 -31.64,-76.42 0,-29.82 12.09,-56.88 31.64,-76.42 19.55,-19.55 46.6,-31.64 76.42,-31.64zm-104.12 114.4c69.45,29.72 138.84,31.53 208.29,0.16 0.16,-2.18 0.21,-4.31 0.21,-6.5 0,-28.81 -11.66,-54.91 -30.57,-73.76 -18.91,-18.91 -44.95,-30.57 -73.76,-30.57 -28.81,0 -54.91,11.66 -73.76,30.57 -18.91,18.91 -30.57,44.95 -30.57,73.76 0,2.13 0.05,4.26 0.21,6.39l-0.05 -0.05zm27.53 -22.31c-0.64,3.04 -3.57,4.95 -6.6,4.31 -3.04,-0.64 -4.95,-3.57 -4.31,-6.6 1.81,-8.63 4.85,-16.94 9.05,-24.61 4.21,-7.67 9.53,-14.75 15.82,-20.93 2.18,-2.18 5.75,-2.13 7.88,0.05 2.18,2.18 2.13,5.7 -0.05,7.88 -5.54,5.43 -10.17,11.61 -13.85,18.32 -3.67,6.71 -6.34,13.95 -7.94,21.52l0 0.05z"/>
  <path class="fil2" d="M34.93 151.59l13.56 2.99 0 -2.12 3.67 0.81 0 2.12 13.49 2.98 0 3.53 -7.53 -1.66c1.77,3.17 4.16,5.82 7.16,7.95l0 4.21c-4.73,-3.22 -8.38,-7.55 -10.98,-12.99l-2.15 -0.47 0 11.43 -3.67 -0.81 0 -11.43 -2.25 -0.5c-1.46,4.35 -5.09,7.07 -10.91,8.17l0 -3.95c3.71,-0.94 6.1,-2.62 7.2,-5.04l-7.59 -1.68 0 -3.53zm7.01 -17.07l3.31 0.73 0 4.1 5.09 1.12 0 3.27 -5.09 -1.12 0 5.06c2.06,0.33 3.82,0.54 5.27,0.64l0 3.16c-1.26,0.14 -4.08,-0.27 -8.47,-1.23 -3.37,-0.74 -5.32,-2.56 -5.85,-5.47 -0.15,-1.3 -0.22,-2.67 -0.22,-4.1 0,-1.99 0.07,-3.87 0.22,-5.65l3.31 0.73c-0.15,1.41 -0.22,3.21 -0.22,5.39 0,1.34 0.04,2.38 0.11,3.11 0.32,1.41 1.17,2.33 2.54,2.76l0 -12.51zm23.24 8.51l0 3.39c-2.82,-0.14 -6.19,-0.52 -10.11,-1.11 0.02,0.77 0.06,1.42 0.11,1.92 0.29,1.75 1.22,2.8 2.8,3.15 2.93,0.53 5.36,0.81 7.27,0.86l0 3.24c-1.23,0.17 -3.9,-0.19 -8,-1.09 -3.15,-0.7 -4.97,-2.65 -5.45,-5.86 -0.14,-1.45 -0.22,-2.96 -0.22,-4.55 0,-2.21 0.07,-4.32 0.22,-6.32l3.49 0.77c-0.12,1.26 -0.19,2.77 -0.22,4.5 3.29,0.45 6.66,0.82 10.11,1.11zm11.69 16.9l0 10.05 8.82 0.79 0 -10.05 -8.82 -0.79zm12.61 11.18l4.23 0.38c2.05,-0.06 3.5,-1.14 4.34,-3.22 0.82,-1.67 1.3,-3.77 1.44,-6.31l-10.01 -0.9 0 10.05zm9.97 -12.7c-0.2,-2.72 -0.75,-4.93 -1.66,-6.62 -1.06,-2.21 -2.66,-3.5 -4.78,-3.89l-3.52 -0.32 0 9.94 9.97 0.89zm-13.76 -11.17l-8.82 -0.79 0 9.94 8.82 0.79 0 -9.94zm7.83 -2.84c3.01,0.65 5.4,2.38 7.16,5.22 1.63,2.63 2.51,6.06 2.63,10.29 0,5.24 -0.8,8.91 -2.41,11.03 -1.61,2.66 -3.97,4.07 -7.08,4.24l-20.66 -1.85 0 -30.75 20.36 1.82zm16.65 2.37l5.19 -0.51 0 -3.13 3.38 -0.33 0 3.13 4.96 -0.49 0 3.43 -0.93 0.09c0.03,9.7 0.32,18.38 0.89,26.04l-2.78 0.27c-0.54,-5.06 -0.82,-13.74 -0.85,-26.05l-1.3 0.13 0 27.02 -3.38 0.33 0 -27.02 -1.18 0.12c-0.17,9.05 -0.48,17.78 -0.93,26.19l-2.85 0.28c0.64,-8.25 0.98,-16.98 1,-26.19l-1.22 0.12 0 -3.43zm17.89 15.11l0.04 9.45 2.89 -0.28 0 -9.45 -2.93 0.29zm6.41 8.71c0.84,-0.3 1.61,-0.88 2.3,-1.71 0.87,-1 1.36,-2.52 1.49,-4.54 0.12,-0.83 0.2,-1.99 0.22,-3.48l-4 0.39 0 9.34zm4 -12.93c-0.27,-4.29 -1.61,-6.88 -4,-7.76l0 8.15 4 -0.39zm-4 -11.41c4.69,0.49 7.16,4.44 7.41,11.86 0,2.5 -0.04,4.46 -0.11,5.86 -0.2,2.82 -0.96,5.08 -2.3,6.78 -1.68,2.13 -3.52,3.29 -5.52,3.48l-9.19 0.9 0 -28.11 6.22 -0.61 0 -4.61 3.48 -0.34 0 4.8zm-3.48 3.51l-2.93 0.29 0 8.64 2.93 -0.29 0 -8.64zm17.29 -8.32l7.07 -1.47 0 -1.98 3.61 -0.75 0 1.98 9.55 -1.98 0 -2.05 3.61 -0.75 0 2.05 6.74 -1.4 0 3.31 -6.74 1.4 0 2.08 -3.61 0.75 0 -2.08 -9.55 1.98 0 2.16 -3.61 0.75 0 -2.16 -7.07 1.47 0 -3.31zm0.26 19.23l13.31 -2.76 0 -1.82 3.53 -0.73 0 1.82 13.45 -2.79 0 3.42 -6.01 1.25c1.46,1.56 3.35,2.6 5.69,3.13l0 4.21c-4.09,-0.94 -7.3,-3.12 -9.66,-6.52l-3.46 0.72 0 8.86 -3.53 0.73 0 -8.86 -3.35 0.7c-1.46,3.95 -4.69,7.41 -9.7,10.39l0 -3.95c2.79,-1.79 4.73,-3.67 5.8,-5.63l-6.05 1.26 0 -3.42zm29.23 -19.21l0 3.39c-5.59,1.5 -15.03,3.66 -28.32,6.47l0 -3.23c13.71,-2.84 23.14,-5.06 28.32,-6.63zm-26.24 10.47l3.32 -0.69c0.61,1.56 1.15,3.25 1.64,5.06l-3.35 0.7c-0.44,-1.77 -0.98,-3.46 -1.61,-5.07zm9.4 -1.91l3.35 -0.7c0.52,1.53 0.99,3.18 1.42,4.95l-3.43 0.71c-0.36,-1.74 -0.81,-3.39 -1.35,-4.97zm11.38 -2.7l3.5 -0.73c-0.7,2.83 -1.35,4.86 -1.93,6.1l-3.58 0.74c0.93,-2.33 1.59,-4.36 2.01,-6.12z"/>
 </g>
</svg>
