<?xml version="1.0" encoding="UTF-8"?>
<!DOCTYPE svg PUBLIC "-//W3C//DTD SVG 1.1//EN" "http://www.w3.org/Graphics/SVG/1.1/DTD/svg11.dtd">
<!-- Creator: CorelDRAW 2021.5 -->
<svg xmlns="http://www.w3.org/2000/svg" xml:space="preserve" width="100%" height="100%" version="1.1" style="shape-rendering:geometricPrecision; text-rendering:geometricPrecision; image-rendering:optimizeQuality; fill-rule:evenodd; clip-rule:evenodd"
viewBox="0 0 216.12 216.12"
 xmlns:xlink="http://www.w3.org/1999/xlink"
 xmlns:xodm="http://www.corel.com/coreldraw/odm/2003">
 <defs>
  <style type="text/css">
   <![CDATA[
    .fil0 {fill:none;fill-rule:nonzero}
    .fil1 {fill:#8C2898;fill-rule:nonzero}
    .fil2 {fill:white;fill-rule:nonzero}
   ]]>
  </style>
   <clipPath id="id0" style="clip-rule:nonzero">
    <path d="M3.94 114.4c69.45,29.72 138.84,31.53 208.29,0.16 0.16,-2.18 0.21,-4.31 0.21,-6.5 0,-28.81 -11.66,-54.91 -30.57,-73.76 -18.91,-18.91 -44.95,-30.57 -73.76,-30.57 -28.81,0 -54.91,11.66 -73.76,30.57 -18.91,18.91 -30.57,44.95 -30.57,73.76 0,2.13 0.05,4.26 0.21,6.39l-0.05 -0.05z"/>
   </clipPath>
    <clipPath id="id1">
     <path d="M27.37 123.35c52.2,17.57 104.38,19.04 156.58,2.15l0 -89.07c-0.68,-0.72 -1.38,-1.43 -2.08,-2.14 -18.91,-18.91 -44.95,-30.57 -73.76,-30.57 -28.81,0 -54.91,11.66 -73.76,30.57 -2.45,2.45 -4.78,5.03 -6.98,7.71l0 81.35z"/>
    </clipPath>
    <clipPath id="id2">
     <path d="M3.94 114.4c69.45,29.72 138.84,31.53 208.29,0.16 0.16,-2.18 0.21,-4.31 0.21,-6.5 0,-28.81 -11.66,-54.91 -30.57,-73.76 -18.91,-18.91 -44.95,-30.57 -73.76,-30.57 -28.81,0 -54.91,11.66 -73.76,30.57 -18.91,18.91 -30.57,44.95 -30.57,73.76 0,2.13 0.05,4.26 0.21,6.39l-0.05 -0.05z"/>
    </clipPath>
 </defs>
 <g id="Layer_x0020_1">
  <metadata id="CorelCorpID_0Corel-Layer"/>
  <g>
  </g>
  <g style="clip-path:url(#id0)">
   <g id="_1788544271776">
   </g>
   <g style="clip-path:url(#id1)">
    <image x="27.37" y="-15.31" width="156.58" height="209.18" xlink:href="https://ik.imagekit.io/moearchive/calendar/nogi33/yumikinao.png"/>
   </g>
   <g style="clip-path:url(#id2)">
   </g>
  </g>
  <path class="fil0" d="M3.94 114.4c69.45,29.72 138.84,31.53 208.29,0.16 0.16,-2.18 0.21,-4.31 0.21,-6.5 0,-28.81 -11.66,-54.91 -30.57,-73.76 -18.91,-18.91 -44.95,-30.57 -73.76,-30.57 -28.81,0 -54.91,11.66 -73.76,30.57 -18.91,18.91 -30.57,44.95 -30.57,73.76 0,2.13 0.05,4.26 0.21,6.39l-0.05 -0.05z"/>
  <path class="fil1" d="M64.18 43.25c-2.56,1.7 -6.02,1.06 -7.72,-1.49 -1.7,-2.56 -1.06,-6.02 1.49,-7.72 1.17,-0.8 2.45,-1.6 3.73,-2.4 1.54,-0.96 2.82,-1.7 3.78,-2.24 2.72,-1.49 6.12,-0.48 7.56,2.24 1.49,2.72 0.48,6.12 -2.24,7.56 -1.44,0.8 -2.56,1.44 -3.36,1.92 -1.06,0.64 -2.18,1.33 -3.25,2.08l0 0.05zm43.88 -43.25c29.82,0 56.88,12.09 76.42,31.64 19.55,19.55 31.64,46.6 31.64,76.42 0,29.82 -12.09,56.88 -31.64,76.42 -19.55,19.55 -46.6,31.64 -76.42,31.64 -29.82,0 -56.88,-12.09 -76.42,-31.64 -19.55,-19.55 -31.64,-46.6 -31.64,-76.42 0,-29.82 12.09,-56.88 31.64,-76.42 19.55,-19.55 46.6,-31.64 76.42,-31.64zm-104.12 114.4c69.45,29.72 138.84,31.53 208.29,0.16 0.16,-2.18 0.21,-4.31 0.21,-6.5 0,-28.81 -11.66,-54.91 -30.57,-73.76 -18.91,-18.91 -44.95,-30.57 -73.76,-30.57 -28.81,0 -54.91,11.66 -73.76,30.57 -18.91,18.91 -30.57,44.95 -30.57,73.76 0,2.13 0.05,4.26 0.21,6.39l-0.05 -0.05zm27.53 -22.31c-0.64,3.04 -3.57,4.95 -6.6,4.31 -3.04,-0.64 -4.95,-3.57 -4.31,-6.6 1.81,-8.63 4.85,-16.94 9.05,-24.61 4.21,-7.67 9.53,-14.75 15.82,-20.93 2.18,-2.18 5.75,-2.13 7.88,0.05 2.18,2.18 2.13,5.7 -0.05,7.88 -5.54,5.43 -10.17,11.61 -13.85,18.32 -3.67,6.71 -6.34,13.95 -7.94,21.52l0 0.05z"/>
  <path class="fil2" d="M36.92 134.64l21.7 4.79c3.41,1.18 5.14,3.53 5.16,7.06 0,3.89 -1.7,5.62 -5.09,5.17l-17.7 -3.91 -0.37 5.02 18.07 3.99c4.27,1.16 6.4,3.97 6.4,8.41 0,4.69 -2.53,6.57 -7.56,5.63 -4.68,-1.03 -9.64,-2.27 -14.87,-3.69l0 -3.88c4,1.33 8.73,2.6 14.18,3.8 2.79,0.61 4.21,-0.2 4.29,-2.45 0,-2.2 -0.91,-3.67 -2.72,-4.39l-21.85 -4.78 0.66 -12.03 20.32 4.48c1.53,0.34 2.3,-0.32 2.33,-1.98 -0.02,-1.52 -0.65,-2.58 -1.85,-3.17l-21.08 -4.65 0 -3.42zm35.49 11.12l13.53 1.21 0 -4.65 3.75 0.34 0 4.65 13.61 1.22 0 3.54 -7.35 -0.66c0.99,9.27 3.54,15.84 7.64,19.71l0 5.13c-6.08,-4.59 -9.85,-12.98 -11.31,-25.17l-2.59 -0.23 0 25.2 -3.75 -0.34 0 -25.2 -2.59 -0.23c-0.39,6.66 -1.58,11.62 -3.56,14.87 -2.18,3.8 -4.75,6.49 -7.71,8.06l0 -4.73c4.77,-3.89 7.3,-10.06 7.6,-18.53l-7.26 -0.65 0 -3.54zm38.45 0.44l11.97 -1.17c0.47,-0.82 0.89,-1.66 1.26,-2.54l3.82 -0.37c-0.27,0.87 -0.58,1.7 -0.93,2.51l13.89 -1.36 0 3.46 -7.56 0.74c2.4,2.2 5.2,3.51 8.41,3.94l0 4.06c-1.58,-0.29 -3.03,-0.68 -4.37,-1.17l0 1.9 -22.71 2.23 0 -1.6c-1.26,0.54 -2.59,1.06 -4,1.55l0 -3.95c3.88,-1.33 7.01,-3.21 9.38,-5.65l-9.16 0.9 0 -3.46zm7.67 8.41l16.08 -1.58c-2.32,-1.31 -4.21,-3.02 -5.67,-5.14l-4 0.39c-1.63,2.47 -3.77,4.58 -6.41,6.33zm-8.33 7.74l31.31 -3.07 0 3.53 -13.41 1.32c0.12,1.13 0.23,2.41 0.33,3.84 0,1.86 -0.14,3.11 -0.41,3.76 -0.37,1.99 -1.92,3.26 -4.63,3.8 -2.12,0.21 -3.88,0.31 -5.26,0.29l0 -3.46c1.4,0.06 2.76,0.03 4.07,-0.1 1.68,-0.16 2.56,-1.15 2.63,-2.94 -0.05,-1.74 -0.16,-3.35 -0.33,-4.85l-14.3 1.4 0 -3.53zm4.74 4.37l3.29 -0.32c-0.12,4.5 -2.38,7.76 -6.78,9.75l0 -3.57c2.32,-1.37 3.48,-3.32 3.48,-5.86zm18.6 -1.71l3.41 -0.33c0.15,1.85 1.3,3.27 3.45,4.28l0 4.13c-3.76,-1.37 -6.04,-4.06 -6.85,-8.08zm20.28 -26.77l3.57 -0.74 0 2.94 5.39 -1.12 0 3.5 -8.82 1.83 0 2.64 3.5 -0.73c1.02,-0.21 1.93,-0.01 2.73,0.62 0.8,0.83 1.23,1.77 1.28,2.83 0.15,1.88 0.22,4.82 0.22,8.81 0,2.04 -0.08,3.92 -0.26,5.64 -0.49,3.5 -2.17,5.62 -5.06,6.34 -1.41,0.24 -2.42,0.42 -3.02,0.52l0 -3.46c0.85,-0.03 1.83,-0.16 2.95,-0.39 1.07,-0.25 1.63,-0.82 1.68,-1.73 0.24,-1.51 0.36,-3.72 0.36,-6.63 0,-2.73 -0.08,-5.22 -0.26,-7.47 -0.05,-0.98 -0.53,-1.53 -1.46,-1.67l-2.66 0.55 0 3.39c0,5.34 -0.56,9.27 -1.67,11.82 -1.31,3.32 -2.71,5.73 -4.19,7.24l-0.04 -4.91c0.73,-1.27 1.34,-3 1.82,-5.18 0.53,-2 0.8,-4.73 0.8,-8.2l0.04 -9.35 -2.99 0.62 0 -3.5 6.09 -1.26 0 -2.94zm9.8 13.01c6.27,-0.18 11.22,0.07 14.84,0.76l0 4.21c-4.52,-1.17 -9.47,-1.62 -14.84,-1.35l0 -3.62zm9.51 -16.27c1.39,-0.08 2.51,0.61 3.35,2.1 1.53,3.33 2.75,6.42 3.65,9.26l-3.71 0.77c-0.85,-2.56 -1.85,-5.15 -2.99,-7.79 -0.19,-0.61 -0.68,-0.96 -1.46,-1.08l-3.35 0.7c-1.14,4.65 -2.09,8.15 -2.84,10.49l-3.68 0.76c1.16,-3.72 2.58,-8.32 4.23,-13.8l6.81 -1.41zm-9.51 24.73c6.27,0.41 11.23,1.34 14.87,2.79l0 4.4c-4.52,-2.14 -9.48,-3.26 -14.87,-3.36l0 -3.83z"/>
 </g>
</svg>
