<?xml version="1.0" encoding="UTF-8"?>
<!DOCTYPE svg PUBLIC "-//W3C//DTD SVG 1.1//EN" "http://www.w3.org/Graphics/SVG/1.1/DTD/svg11.dtd">
<!-- Creator: CorelDRAW 2021.5 -->
<svg xmlns="http://www.w3.org/2000/svg" xml:space="preserve" width="100%" height="100%" version="1.1" style="shape-rendering:geometricPrecision; text-rendering:geometricPrecision; image-rendering:optimizeQuality; fill-rule:evenodd; clip-rule:evenodd"
viewBox="0 0 143.89 143.89"
 xmlns:xlink="http://www.w3.org/1999/xlink"
 xmlns:xodm="http://www.corel.com/coreldraw/odm/2003">
 <defs>
  <style type="text/css">
   <![CDATA[
    .fil0 {fill:none;fill-rule:nonzero}
    .fil1 {fill:#8C2898;fill-rule:nonzero}
    .fil2 {fill:white;fill-rule:nonzero}
   ]]>
  </style>
   <clipPath id="id0" style="clip-rule:nonzero">
    <path d="M2.62 76.17c46.24,19.79 92.44,20.99 138.68,0.11 0.11,-1.45 0.14,-2.87 0.14,-4.33 0,-19.18 -7.77,-36.56 -20.35,-49.11 -12.59,-12.59 -29.93,-20.35 -49.11,-20.35 -19.18,0 -36.56,7.77 -49.11,20.35 -12.59,12.59 -20.35,29.93 -20.35,49.11 0,1.42 0.04,2.84 0.14,4.25l-0.04 -0.04z"/>
   </clipPath>
    <clipPath id="id1">
     <path d="M18.22 82.13c34.76,11.7 69.5,12.67 104.25,1.43l0 -59.3c-0.45,-0.48 -0.92,-0.95 -1.38,-1.42 -12.59,-12.59 -29.93,-20.35 -49.11,-20.35 -19.18,0 -36.56,7.77 -49.11,20.35 -1.63,1.63 -3.18,3.35 -4.65,5.13l0 54.16z"/>
    </clipPath>
    <clipPath id="id2">
     <path d="M2.62 76.17c46.24,19.79 92.44,20.99 138.68,0.11 0.11,-1.45 0.14,-2.87 0.14,-4.33 0,-19.18 -7.77,-36.56 -20.35,-49.11 -12.59,-12.59 -29.93,-20.35 -49.11,-20.35 -19.18,0 -36.56,7.77 -49.11,20.35 -12.59,12.59 -20.35,29.93 -20.35,49.11 0,1.42 0.04,2.84 0.14,4.25l-0.04 -0.04z"/>
    </clipPath>
 </defs>
 <g id="Layer_x0020_1">
  <metadata id="CorelCorpID_0Corel-Layer"/>
  <g>
  </g>
  <g style="clip-path:url(#id0)">
   <g id="_1823105922096">
   </g>
   <g style="clip-path:url(#id1)">
    <image x="18.22" y="-10.19" width="104.25" height="139.27" xlink:href="https://ik.imagekit.io/moearchive/calendar/nogi35fix/inouenagi.png"/>
   </g>
   <g style="clip-path:url(#id2)">
   </g>
  </g>
  <path class="fil0" d="M2.62 76.17c46.24,19.79 92.44,20.99 138.68,0.11 0.11,-1.45 0.14,-2.87 0.14,-4.33 0,-19.18 -7.77,-36.56 -20.35,-49.11 -12.59,-12.59 -29.93,-20.35 -49.11,-20.35 -19.18,0 -36.56,7.77 -49.11,20.35 -12.59,12.59 -20.35,29.93 -20.35,49.11 0,1.42 0.04,2.84 0.14,4.25l-0.04 -0.04z"/>
  <path class="fil1" d="M42.73 28.79c-1.7,1.13 -4.01,0.71 -5.14,-0.99 -1.13,-1.7 -0.71,-4.01 0.99,-5.14 0.78,-0.53 1.63,-1.06 2.48,-1.6 1.03,-0.64 1.88,-1.13 2.52,-1.49 1.81,-0.99 4.08,-0.32 5.04,1.49 0.99,1.81 0.32,4.08 -1.49,5.04 -0.96,0.53 -1.7,0.96 -2.23,1.28 -0.71,0.43 -1.45,0.89 -2.16,1.38l0 0.04zm29.22 -28.79c19.86,0 37.87,8.05 50.88,21.06 13.01,13.01 21.06,31.03 21.06,50.88 0,19.86 -8.05,37.87 -21.06,50.88 -13.01,13.01 -31.03,21.06 -50.88,21.06 -19.86,0 -37.87,-8.05 -50.88,-21.06 -13.01,-13.01 -21.06,-31.03 -21.06,-50.88 0,-19.86 8.05,-37.87 21.06,-50.88 13.01,-13.01 31.03,-21.06 50.88,-21.06zm-69.32 76.17c46.24,19.79 92.44,20.99 138.68,0.11 0.11,-1.45 0.14,-2.87 0.14,-4.33 0,-19.18 -7.77,-36.56 -20.35,-49.11 -12.59,-12.59 -29.93,-20.35 -49.11,-20.35 -19.18,0 -36.56,7.77 -49.11,20.35 -12.59,12.59 -20.35,29.93 -20.35,49.11 0,1.42 0.04,2.84 0.14,4.25l-0.04 -0.04zm18.33 -14.86c-0.43,2.02 -2.38,3.3 -4.4,2.87 -2.02,-0.43 -3.3,-2.38 -2.87,-4.4 1.21,-5.74 3.23,-11.28 6.03,-16.38 2.8,-5.11 6.35,-9.82 10.53,-13.94 1.45,-1.45 3.83,-1.42 5.25,0.04 1.45,1.45 1.42,3.79 -0.04,5.25 -3.69,3.62 -6.77,7.73 -9.22,12.2 -2.45,4.47 -4.22,9.29 -5.28,14.33l0 0.04z"/>
  <path class="fil2" d="M36.59 95.19l4.11 0.65 0 -3.52 2.35 0.37 0 3.52 6.98 1.1 0 -3.52 2.42 0.38 0 3.52 3.92 0.62 0 2.43 -3.92 -0.62 0 6.91 4.65 0.73 0 2.48 -4.65 -0.73 0 7.06 -2.42 -0.38 0 -7.06 -8.06 -1.27c-0.28,0.85 -0.61,1.64 -0.98,2.38 -1.21,2.24 -2.38,3.59 -3.5,4.06l0 -3.35c0.88,-0.9 1.57,-2.06 2.06,-3.47l-3.67 -0.58 0 -2.48 4.33 0.68c0.29,-1.51 0.45,-3.19 0.46,-5.05l0.03 -1.78 -4.11 -0.65 0 -2.43zm6.46 3.45l0 1.86c-0.02,1.78 -0.17,3.44 -0.47,4.98l7.45 1.17 0 -6.91 -6.98 -1.1zm25.28 -3.31l2.55 -0.02 0 7.09c3.98,-0.28 7.54,-0.6 10.68,-0.97l0 2.4c-2.87,0.35 -6.43,0.64 -10.68,0.88l0 9.52 11.45 -0.09 0 2.5 -21.14 0.16 0 -2.5 7.14 -0.05 0 -18.91zm27.57 -1.96l0 2.33c-1.03,0.23 -2.13,0.46 -3.3,0.7l0 1.66 3.8 -0.6 0 2.33 -1.03 0.16c0.03,5.52 0.25,10.44 0.66,14.79l-2.03 0.35c-0.34,-2.89 -0.52,-7.83 -0.54,-14.83l-0.86 0.14 0 15.64 -2.28 0.36 0 -15.64 -0.86 0.14c-0.1,5.15 -0.28,10.14 -0.54,14.96l-2.3 0.36c0.54,-4.76 0.82,-9.77 0.86,-15.01l-1.01 0.16 0 -2.33 3.84 -0.61 0 -1.59c-1.01,0.21 -2.06,0.41 -3.15,0.6l0 -2.28c2.48,-0.39 5.39,-0.99 8.74,-1.78zm7.12 -0.56c1.02,-0.1 1.86,0.08 2.52,0.54 0.67,0.54 1.06,1.19 1.17,1.95 0.3,1.52 0.44,3.98 0.44,7.37 -0.02,2.76 -0.09,4.63 -0.22,5.59 -0.03,1.24 -0.33,2.37 -0.91,3.37 -0.72,1.04 -1.6,1.68 -2.64,1.91l-6.19 0.98 0 -20.77 5.82 -0.92zm-3.65 18.99l3.7 -0.59c0.97,-0.34 1.45,-1.09 1.45,-2.26 0.16,-1.2 0.24,-3.35 0.24,-6.43 0,-2.1 -0.07,-4.01 -0.22,-5.74 -0.03,-1.17 -0.68,-1.74 -1.93,-1.7l-3.23 0.51 0 16.21z"/>
 </g>
</svg>
