<?xml version="1.0" encoding="UTF-8"?>
<!DOCTYPE svg PUBLIC "-//W3C//DTD SVG 1.1//EN" "http://www.w3.org/Graphics/SVG/1.1/DTD/svg11.dtd">
<!-- Creator: CorelDRAW 2021.5 -->
<svg xmlns="http://www.w3.org/2000/svg" xml:space="preserve" width="100%" height="100%" version="1.1" style="shape-rendering:geometricPrecision; text-rendering:geometricPrecision; image-rendering:optimizeQuality; fill-rule:evenodd; clip-rule:evenodd"
viewBox="0 0 192.02 192.02"
 xmlns:xlink="http://www.w3.org/1999/xlink"
 xmlns:xodm="http://www.corel.com/coreldraw/odm/2003">
 <defs>
  <style type="text/css">
   <![CDATA[
    .fil0 {fill:none;fill-rule:nonzero}
    .fil1 {fill:#8C2898;fill-rule:nonzero}
    .fil2 {fill:white;fill-rule:nonzero}
   ]]>
  </style>
   <clipPath id="id0" style="clip-rule:nonzero">
    <path d="M3.5 101.64c61.7,26.4 123.36,28.01 185.07,0.14 0.14,-1.94 0.19,-3.83 0.19,-5.77 0,-25.6 -10.36,-48.79 -27.16,-65.54 -16.8,-16.8 -39.94,-27.16 -65.54,-27.16 -25.6,0 -48.79,10.36 -65.54,27.16 -16.8,16.8 -27.16,39.94 -27.16,65.54 0,1.89 0.05,3.79 0.19,5.68l-0.05 -0.05z"/>
   </clipPath>
    <clipPath id="id1">
     <path d="M24.32 109.6c46.38,15.61 92.74,16.91 139.13,1.91l0 -79.14c-0.61,-0.64 -1.22,-1.27 -1.85,-1.9 -16.8,-16.8 -39.94,-27.16 -65.54,-27.16 -25.6,0 -48.79,10.36 -65.54,27.16 -2.18,2.18 -4.25,4.47 -6.2,6.85l0 72.28z"/>
    </clipPath>
    <clipPath id="id2">
     <path d="M3.5 101.64c61.7,26.4 123.36,28.01 185.07,0.14 0.14,-1.94 0.19,-3.83 0.19,-5.77 0,-25.6 -10.36,-48.79 -27.16,-65.54 -16.8,-16.8 -39.94,-27.16 -65.54,-27.16 -25.6,0 -48.79,10.36 -65.54,27.16 -16.8,16.8 -27.16,39.94 -27.16,65.54 0,1.89 0.05,3.79 0.19,5.68l-0.05 -0.05z"/>
    </clipPath>
 </defs>
 <g id="Layer_x0020_1">
  <metadata id="CorelCorpID_0Corel-Layer"/>
  <g>
  </g>
  <g style="clip-path:url(#id0)">
   <g id="_1823131632064">
   </g>
   <g style="clip-path:url(#id1)">
    <image x="24.32" y="-13.6" width="139.12" height="185.85" xlink:href="https://ik.imagekit.io/moearchive/calendar/nogi33/kawasakisakura.png"/>
   </g>
   <g style="clip-path:url(#id2)">
   </g>
  </g>
  <path class="fil0" d="M3.5 101.64c61.7,26.4 123.36,28.01 185.07,0.14 0.14,-1.94 0.19,-3.83 0.19,-5.77 0,-25.6 -10.36,-48.79 -27.16,-65.54 -16.8,-16.8 -39.94,-27.16 -65.54,-27.16 -25.6,0 -48.79,10.36 -65.54,27.16 -16.8,16.8 -27.16,39.94 -27.16,65.54 0,1.89 0.05,3.79 0.19,5.68l-0.05 -0.05z"/>
  <path class="fil1" d="M57.02 38.42c-2.27,1.51 -5.35,0.95 -6.86,-1.32 -1.51,-2.27 -0.95,-5.35 1.32,-6.86 1.04,-0.71 2.18,-1.42 3.31,-2.13 1.37,-0.85 2.51,-1.51 3.36,-1.99 2.41,-1.32 5.44,-0.43 6.72,1.99 1.32,2.41 0.43,5.44 -1.99,6.72 -1.28,0.71 -2.27,1.28 -2.98,1.7 -0.95,0.57 -1.94,1.18 -2.89,1.85l0 0.05zm38.99 -38.42c26.5,0 50.54,10.74 67.9,28.11 17.37,17.37 28.11,41.4 28.11,67.9 0,26.5 -10.74,50.54 -28.11,67.9 -17.37,17.37 -41.4,28.11 -67.9,28.11 -26.5,0 -50.54,-10.74 -67.9,-28.11 -17.37,-17.37 -28.11,-41.4 -28.11,-67.9 0,-26.5 10.74,-50.54 28.11,-67.9 17.37,-17.37 41.4,-28.11 67.9,-28.11zm-92.51 101.64c61.7,26.4 123.36,28.01 185.07,0.14 0.14,-1.94 0.19,-3.83 0.19,-5.77 0,-25.6 -10.36,-48.79 -27.16,-65.54 -16.8,-16.8 -39.94,-27.16 -65.54,-27.16 -25.6,0 -48.79,10.36 -65.54,27.16 -16.8,16.8 -27.16,39.94 -27.16,65.54 0,1.89 0.05,3.79 0.19,5.68l-0.05 -0.05zm24.46 -19.83c-0.57,2.7 -3.17,4.4 -5.87,3.83 -2.7,-0.57 -4.4,-3.17 -3.83,-5.87 1.61,-7.67 4.31,-15.05 8.04,-21.86 3.74,-6.81 8.47,-13.11 14.05,-18.6 1.94,-1.94 5.11,-1.89 7,0.05 1.94,1.94 1.89,5.06 -0.05,7 -4.92,4.83 -9.04,10.32 -12.3,16.28 -3.26,5.96 -5.63,12.4 -7.05,19.12l0 0.05z"/>
  <path class="fil2" d="M68.45 125.8l3.23 0.55 0 29.54 -3.23 -0.55 0 -29.54zm-9.91 -0.88l3.17 0.54 0 27.45 -3.17 -0.54 0 -27.45zm-6.46 -1.89l0 11.91c0,5.33 -0.53,9.05 -1.6,11.14 -1.22,2.88 -2.54,4.79 -3.98,5.71l-0.03 -4.77c0.7,-1.01 1.29,-2.51 1.76,-4.53 0.48,-1.86 0.72,-4.52 0.72,-7.99l0.06 -11.96 3.07 0.49zm31.77 4.27l2.88 0.03 0 25.01 0.72 0.01c0.31,0 0.46,-0.13 0.46,-0.39l0 -22.56 2.55 0.02 0 23.46c0,1.65 -0.78,2.49 -2.35,2.52l-5.79 -0.05c-1.21,-0.06 -1.95,-0.9 -2.21,-2.53l0 -23.52 2.51 0.02 0 22.39c0,0.4 0.16,0.6 0.5,0.6l0.73 0.01 0 -25.01zm10.02 5.06l-1.98 -0.02 0 -2.91 6.09 0.06 0 -2.28 3.34 0.03 0 2.28 6.35 0.06 0 2.91 -1.72 -0.02c-0.2,1.83 -0.4,3.51 -0.6,5.06l2.65 0.02 0 2.97 -1.78 -0.02c0.06,1.83 0.1,4.56 0.1,8.17 0,2.43 -0.12,4.1 -0.36,5.03 -0.49,1.95 -1.86,2.99 -4.14,3.1 -2.36,-0.06 -4.18,-0.29 -5.45,-0.68l0 -2.88c1.78,0.35 3.36,0.53 4.73,0.54 0.86,-0.04 1.47,-0.46 1.85,-1.27 0.18,-0.48 0.27,-1.76 0.27,-3.84 -0.02,-3.7 -0.06,-6.44 -0.1,-8.2l-11.67 -0.11 0 -2.97 2.97 0.03c-0.18,-1.62 -0.36,-3.3 -0.53,-5.07zm3.51 5.1l4.87 0.05c0.22,-1.7 0.43,-3.38 0.63,-5.06l-6.09 -0.06c0.15,1.72 0.35,3.41 0.59,5.07zm0 4.4c1.41,0.1 2.5,0.63 3.24,1.58 0.75,0.93 1.13,2.24 1.13,3.92 0,1.59 -0.38,2.8 -1.13,3.62 -0.71,0.87 -1.76,1.35 -3.17,1.43l-5.26 -0.05 0 -10.55 5.19 0.05zm-2.48 7.85l2.02 0.02c0.71,-0.03 1.24,-0.27 1.59,-0.71 0.36,-0.44 0.53,-0.99 0.53,-1.68 0,-0.84 -0.19,-1.51 -0.56,-2.03 -0.4,-0.51 -0.96,-0.81 -1.69,-0.91l-1.89 -0.02 0 5.32zm30.8 -24.57l3.01 -0.48c0.5,2.67 0.98,5.52 1.44,8.54l-3.1 0.49c-0.37,-2.92 -0.82,-5.77 -1.34,-8.55zm5.26 -0.8l2.97 -0.47c0.48,2.61 0.94,5.41 1.37,8.38l-3.07 0.49c-0.35,-2.88 -0.77,-5.68 -1.27,-8.4zm7.19 -1.17l3.07 -0.49c-0.64,4.14 -1.21,7.12 -1.73,8.94l-3.14 0.5c0.83,-3.37 1.43,-6.36 1.8,-8.95zm-12.94 14.82l5.59 -0.89c0.59,-1.02 1.24,-2.15 1.96,-3.39l3.43 -0.51c-0.76,1.24 -1.43,2.37 -1.99,3.36l7.25 -1.15 0 2.98 -1.86 0.3c-0.66,2.9 -1.84,5.5 -3.56,7.77 1.46,0.61 3.18,1.25 5.16,1.93l0 3.74c-2.7,-1.12 -5.13,-2.17 -7.29,-3.18 -2.22,2.14 -5,3.97 -8.33,5.49l0 -3.27c2.2,-0.99 4.08,-2.16 5.65,-3.51 -2.79,-1.15 -4.18,-2.32 -4.18,-3.51 0,-0.18 0.65,-1.44 1.96,-3.78l-3.79 0.6 0 -2.98zm8.27 7.35c1.48,-1.82 2.5,-3.88 3.07,-6.18l-4.32 0.69c-1.13,1.96 -1.69,3.05 -1.69,3.24 0,0.58 0.97,1.32 2.94,2.25zm-20.03 -15.87l4.11 -0.65 0 -2.88 2.98 -0.47 0 2.88 4.05 -0.64 0 3.04 -0.81 0.13c0.02,8.59 0.35,16.27 0.98,23l-2.48 0.39c-0.55,-4.46 -0.83,-12.13 -0.85,-23.02l-0.88 0.14 0 24.05 -2.98 0.47 0 -24.05 -0.88 0.14c-0.11,8.02 -0.31,15.77 -0.62,23.25l-2.45 0.39c0.46,-7.33 0.7,-15.09 0.72,-23.27l-0.88 0.14 0 -3.04z"/>
 </g>
</svg>
