<?xml version="1.0" encoding="UTF-8"?>
<!DOCTYPE svg PUBLIC "-//W3C//DTD SVG 1.1//EN" "http://www.w3.org/Graphics/SVG/1.1/DTD/svg11.dtd">
<!-- Creator: CorelDRAW 2021.5 -->
<svg xmlns="http://www.w3.org/2000/svg" xml:space="preserve" width="100%" height="100%" version="1.1" style="shape-rendering:geometricPrecision; text-rendering:geometricPrecision; image-rendering:optimizeQuality; fill-rule:evenodd; clip-rule:evenodd"
viewBox="0 0 216.12 216.12"
 xmlns:xlink="http://www.w3.org/1999/xlink"
 xmlns:xodm="http://www.corel.com/coreldraw/odm/2003">
 <defs>
  <style type="text/css">
   <![CDATA[
    .fil0 {fill:none;fill-rule:nonzero}
    .fil1 {fill:#8C2898;fill-rule:nonzero}
    .fil2 {fill:white;fill-rule:nonzero}
   ]]>
  </style>
   <clipPath id="id0" style="clip-rule:nonzero">
    <path d="M3.94 114.4c69.45,29.72 138.84,31.53 208.29,0.16 0.16,-2.18 0.21,-4.31 0.21,-6.5 0,-28.81 -11.66,-54.91 -30.57,-73.76 -18.91,-18.91 -44.95,-30.57 -73.76,-30.57 -28.81,0 -54.91,11.66 -73.76,30.57 -18.91,18.91 -30.57,44.95 -30.57,73.76 0,2.13 0.05,4.26 0.21,6.39l-0.05 -0.05z"/>
   </clipPath>
    <clipPath id="id1">
     <path d="M27.37 123.35c52.2,17.57 104.38,19.04 156.58,2.15l0 -89.07c-0.68,-0.72 -1.38,-1.43 -2.08,-2.14 -18.91,-18.91 -44.95,-30.57 -73.76,-30.57 -28.81,0 -54.91,11.66 -73.76,30.57 -2.45,2.45 -4.78,5.03 -6.98,7.71l0 81.35z"/>
    </clipPath>
    <clipPath id="id2">
     <path d="M3.94 114.4c69.45,29.72 138.84,31.53 208.29,0.16 0.16,-2.18 0.21,-4.31 0.21,-6.5 0,-28.81 -11.66,-54.91 -30.57,-73.76 -18.91,-18.91 -44.95,-30.57 -73.76,-30.57 -28.81,0 -54.91,11.66 -73.76,30.57 -18.91,18.91 -30.57,44.95 -30.57,73.76 0,2.13 0.05,4.26 0.21,6.39l-0.05 -0.05z"/>
    </clipPath>
 </defs>
 <g id="Layer_x0020_1">
  <metadata id="CorelCorpID_0Corel-Layer"/>
  <g>
  </g>
  <g style="clip-path:url(#id0)">
   <g id="_1823105908464">
   </g>
   <g style="clip-path:url(#id1)">
    <image x="27.37" y="-15.31" width="156.58" height="209.18" xlink:href="https://ik.imagekit.io/moearchive/calendar/nogi33/nakanishiaruno.png"/>
   </g>
   <g style="clip-path:url(#id2)">
   </g>
  </g>
  <path class="fil0" d="M3.94 114.4c69.45,29.72 138.84,31.53 208.29,0.16 0.16,-2.18 0.21,-4.31 0.21,-6.5 0,-28.81 -11.66,-54.91 -30.57,-73.76 -18.91,-18.91 -44.95,-30.57 -73.76,-30.57 -28.81,0 -54.91,11.66 -73.76,30.57 -18.91,18.91 -30.57,44.95 -30.57,73.76 0,2.13 0.05,4.26 0.21,6.39l-0.05 -0.05z"/>
  <path class="fil1" d="M64.18 43.25c-2.56,1.7 -6.02,1.06 -7.72,-1.49 -1.7,-2.56 -1.06,-6.02 1.49,-7.72 1.17,-0.8 2.45,-1.6 3.73,-2.4 1.54,-0.96 2.82,-1.7 3.78,-2.24 2.72,-1.49 6.12,-0.48 7.56,2.24 1.49,2.72 0.48,6.12 -2.24,7.56 -1.44,0.8 -2.56,1.44 -3.36,1.92 -1.06,0.64 -2.18,1.33 -3.25,2.08l0 0.05zm43.88 -43.25c29.82,0 56.88,12.09 76.42,31.64 19.55,19.55 31.64,46.6 31.64,76.42 0,29.82 -12.09,56.88 -31.64,76.42 -19.55,19.55 -46.6,31.64 -76.42,31.64 -29.82,0 -56.88,-12.09 -76.42,-31.64 -19.55,-19.55 -31.64,-46.6 -31.64,-76.42 0,-29.82 12.09,-56.88 31.64,-76.42 19.55,-19.55 46.6,-31.64 76.42,-31.64zm-104.12 114.4c69.45,29.72 138.84,31.53 208.29,0.16 0.16,-2.18 0.21,-4.31 0.21,-6.5 0,-28.81 -11.66,-54.91 -30.57,-73.76 -18.91,-18.91 -44.95,-30.57 -73.76,-30.57 -28.81,0 -54.91,11.66 -73.76,30.57 -18.91,18.91 -30.57,44.95 -30.57,73.76 0,2.13 0.05,4.26 0.21,6.39l-0.05 -0.05zm27.53 -22.31c-0.64,3.04 -3.57,4.95 -6.6,4.31 -3.04,-0.64 -4.95,-3.57 -4.31,-6.6 1.81,-8.63 4.85,-16.94 9.05,-24.61 4.21,-7.67 9.53,-14.75 15.82,-20.93 2.18,-2.18 5.75,-2.13 7.88,0.05 2.18,2.18 2.13,5.7 -0.05,7.88 -5.54,5.43 -10.17,11.61 -13.85,18.32 -3.67,6.71 -6.34,13.95 -7.94,21.52l0 0.05z"/>
  <path class="fil2" d="M41.52 134.29l3.73 0.89 0 5.36 5 1.18c5.58,1.32 8.42,5.12 8.51,11.4 0,6.04 -2.39,8.67 -7.17,7.91l-6.34 -1.5 0 9.19 -3.73 -0.89 0 -9.19 -12.02 -2.85 0 -18.98 12.02 2.85 0 -5.36zm0 8.9l-8.44 -2 0 11.76 8.44 2 0 -11.76zm3.73 12.65l5.79 1.37c2.78,0.27 4.17,-1.34 4.17,-4.82 0,-3.97 -1.65,-6.34 -4.96,-7.13l-5 -1.18 0 11.76zm19.83 -14.84l31.5 3.73 0 3.46 -10.5 -1.24c-0.03,1.17 -0.04,2.35 -0.04,3.53l0.11 0.01c3.32,0.59 5.87,2.1 7.62,4.51 1.75,2.44 2.68,5.32 2.77,8.63 -0.14,3.78 -1.07,6.63 -2.77,8.57 -2.09,2.09 -4.61,2.95 -7.54,2.61l-19.48 -2.31 0 -24.31 9.13 1.08c0.1,-1.11 0.17,-2.27 0.22,-3.51l-11.02 -1.3 0 -3.46zm14.38 5.16c-0.07,1.24 -0.16,2.4 -0.26,3.51l3.4 0.4c0.03,-1.24 0.05,-2.41 0.08,-3.53l-3.22 -0.38zm-8.98 23.14l15.45 1.83c2.09,0.25 3.79,-0.37 5.1,-1.86 1.16,-1.48 1.74,-3.44 1.74,-5.9 0,-2.41 -0.67,-4.39 -2,-5.97 -1.1,-1.72 -2.69,-2.8 -4.76,-3.25 -0.03,0.69 -0.04,1.39 -0.04,2.08 0,2.06 0.06,4.02 0.18,5.87 0.35,1.68 1.02,2.58 2.03,2.7 1.03,0.12 1.91,0.11 2.62,-0.03l0 3.28c-0.59,0.1 -1.85,0.09 -3.77,-0.04 -2.25,-0.27 -3.63,-2.04 -4.15,-5.33 -0.22,-2.36 -0.33,-4.75 -0.33,-7.16 0,-0.64 0,-1.26 0,-1.86l-3.85 -0.46c-1.11,7 -3.3,11.76 -6.58,14.3l0 -5.25c1.55,-2.25 2.66,-5.39 3.33,-9.43l-4.99 -0.59 0 17.05zm59.63 -19.44c0,4.64 -3.87,8.67 -11.6,12.07l0 -4.06c5.15,-2.55 7.73,-5.02 7.73,-7.43 0,-1.07 -0.47,-1.57 -1.41,-1.52l-23.83 1.32 0 -3.87 24.01 -1.33c1.48,-0.08 2.7,0.33 3.64,1.25 0.97,0.89 1.45,2.07 1.45,3.57zm-13.94 6.02c0,4.49 -1.33,8.54 -3.97,12.13 -2.46,3.31 -5.73,5.78 -9.81,7.39l0 -3.98c3.05,-1.46 5.44,-3.48 7.17,-6.06 1.96,-2.76 2.94,-5.86 2.94,-9.28l0 -3.5 3.68 -0.2 0 3.5zm47.09 1.46l-0.03 5.25c-4.09,4.3 -7.47,6.67 -10.14,7.12 -2.74,0.46 -4.57,-0.28 -5.51,-2.23 -0.85,-1.82 -1.28,-5.6 -1.28,-11.36 0,-3.2 0.05,-8.29 0.15,-15.29l3.85 -0.65c-0.1,7.02 -0.14,12.11 -0.14,15.29 0,3.35 0.11,5.81 0.33,7.39 0.2,1.38 0.51,2.26 0.96,2.63 0.34,0.24 0.89,0.29 1.65,0.17 1.99,-0.34 5.38,-3.11 10.17,-8.31zm-21.43 -8.4c0,4.22 -0.29,7.95 -0.88,11.17 -0.81,4.5 -2.26,8.73 -4.37,12.69l-4.59 0.78c2.4,-3.91 4.07,-8.12 4.99,-12.65 0.68,-3.19 1.03,-6.97 1.03,-11.34l0 -6.37 3.82 -0.65 0 6.37zm47.6 -16.5c-1.69,15.07 -9.83,27.1 -24.41,36.09l0 -4.1c12.21,-7.82 19.13,-18.2 20.75,-31.12l3.66 -0.87z"/>
 </g>
</svg>
