<?xml version="1.0" encoding="UTF-8"?>
<!DOCTYPE svg PUBLIC "-//W3C//DTD SVG 1.1//EN" "http://www.w3.org/Graphics/SVG/1.1/DTD/svg11.dtd">
<!-- Creator: CorelDRAW 2021.5 -->
<svg xmlns="http://www.w3.org/2000/svg" xml:space="preserve" width="100%" height="100%" version="1.1" style="shape-rendering:geometricPrecision; text-rendering:geometricPrecision; image-rendering:optimizeQuality; fill-rule:evenodd; clip-rule:evenodd"
viewBox="0 0 216.12 216.12"
 xmlns:xlink="http://www.w3.org/1999/xlink"
 xmlns:xodm="http://www.corel.com/coreldraw/odm/2003">
 <defs>
  <style type="text/css">
   <![CDATA[
    .fil0 {fill:none;fill-rule:nonzero}
    .fil1 {fill:#8C2898;fill-rule:nonzero}
    .fil2 {fill:white;fill-rule:nonzero}
   ]]>
  </style>
   <clipPath id="id0" style="clip-rule:nonzero">
    <path d="M3.94 114.4c69.45,29.72 138.84,31.53 208.29,0.16 0.16,-2.18 0.21,-4.31 0.21,-6.5 0,-28.81 -11.66,-54.91 -30.57,-73.76 -18.91,-18.91 -44.95,-30.57 -73.76,-30.57 -28.81,0 -54.91,11.66 -73.76,30.57 -18.91,18.91 -30.57,44.95 -30.57,73.76 0,2.13 0.05,4.26 0.21,6.39l-0.05 -0.05z"/>
   </clipPath>
    <clipPath id="id1">
     <path d="M27.37 123.35c52.2,17.57 104.38,19.04 156.58,2.15l0 -89.07c-0.68,-0.72 -1.38,-1.43 -2.08,-2.14 -18.91,-18.91 -44.95,-30.57 -73.76,-30.57 -28.81,0 -54.91,11.66 -73.76,30.57 -2.45,2.45 -4.78,5.03 -6.98,7.71l0 81.35z"/>
    </clipPath>
    <clipPath id="id2">
     <path d="M3.94 114.4c69.45,29.72 138.84,31.53 208.29,0.16 0.16,-2.18 0.21,-4.31 0.21,-6.5 0,-28.81 -11.66,-54.91 -30.57,-73.76 -18.91,-18.91 -44.95,-30.57 -73.76,-30.57 -28.81,0 -54.91,11.66 -73.76,30.57 -18.91,18.91 -30.57,44.95 -30.57,73.76 0,2.13 0.05,4.26 0.21,6.39l-0.05 -0.05z"/>
    </clipPath>
 </defs>
 <g id="Layer_x0020_1">
  <metadata id="CorelCorpID_0Corel-Layer"/>
  <g>
  </g>
  <g style="clip-path:url(#id0)">
   <g id="_1823105925072">
   </g>
   <g style="clip-path:url(#id1)">
    <image x="27.37" y="-15.31" width="156.58" height="209.18" xlink:href="https://ik.imagekit.io/moearchive/calendar/nogi35fix/ogawaaya.png"/>
   </g>
   <g style="clip-path:url(#id2)">
   </g>
  </g>
  <path class="fil0" d="M3.94 114.4c69.45,29.72 138.84,31.53 208.29,0.16 0.16,-2.18 0.21,-4.31 0.21,-6.5 0,-28.81 -11.66,-54.91 -30.57,-73.76 -18.91,-18.91 -44.95,-30.57 -73.76,-30.57 -28.81,0 -54.91,11.66 -73.76,30.57 -18.91,18.91 -30.57,44.95 -30.57,73.76 0,2.13 0.05,4.26 0.21,6.39l-0.05 -0.05z"/>
  <path class="fil1" d="M64.18 43.25c-2.56,1.7 -6.02,1.06 -7.72,-1.49 -1.7,-2.56 -1.06,-6.02 1.49,-7.72 1.17,-0.8 2.45,-1.6 3.73,-2.4 1.54,-0.96 2.82,-1.7 3.78,-2.24 2.72,-1.49 6.12,-0.48 7.56,2.24 1.49,2.72 0.48,6.12 -2.24,7.56 -1.44,0.8 -2.56,1.44 -3.36,1.92 -1.06,0.64 -2.18,1.33 -3.25,2.08l0 0.05zm43.88 -43.25c29.82,0 56.88,12.09 76.42,31.64 19.55,19.55 31.64,46.6 31.64,76.42 0,29.82 -12.09,56.88 -31.64,76.42 -19.55,19.55 -46.6,31.64 -76.42,31.64 -29.82,0 -56.88,-12.09 -76.42,-31.64 -19.55,-19.55 -31.64,-46.6 -31.64,-76.42 0,-29.82 12.09,-56.88 31.64,-76.42 19.55,-19.55 46.6,-31.64 76.42,-31.64zm-104.12 114.4c69.45,29.72 138.84,31.53 208.29,0.16 0.16,-2.18 0.21,-4.31 0.21,-6.5 0,-28.81 -11.66,-54.91 -30.57,-73.76 -18.91,-18.91 -44.95,-30.57 -73.76,-30.57 -28.81,0 -54.91,11.66 -73.76,30.57 -18.91,18.91 -30.57,44.95 -30.57,73.76 0,2.13 0.05,4.26 0.21,6.39l-0.05 -0.05zm27.53 -22.31c-0.64,3.04 -3.57,4.95 -6.6,4.31 -3.04,-0.64 -4.95,-3.57 -4.31,-6.6 1.81,-8.63 4.85,-16.94 9.05,-24.61 4.21,-7.67 9.53,-14.75 15.82,-20.93 2.18,-2.18 5.75,-2.13 7.88,0.05 2.18,2.18 2.13,5.7 -0.05,7.88 -5.54,5.43 -10.17,11.61 -13.85,18.32 -3.67,6.71 -6.34,13.95 -7.94,21.52l0 0.05z"/>
  <path class="fil2" d="M66.31 139.59l3.82 0.65c0.27,3.5 0.4,9.56 0.4,18.19 0,5.44 -0.19,9 -0.59,10.7 -0.56,2.48 -2.53,3.44 -5.91,2.87 -1.98,-0.33 -3.58,-0.75 -4.81,-1.22l0 -3.72c1.35,0.52 2.85,0.93 4.52,1.21 1.84,0.31 2.76,-0.26 2.76,-1.73 0.19,-1.09 0.29,-3.86 0.29,-8.33 0,-6.63 -0.16,-12.84 -0.48,-18.62zm-9.47 0.44l3.75 0.63c-0.17,13.52 -2.9,22.19 -8.18,26.02l0 -5.7c2.96,-4.04 4.44,-11.02 4.44,-20.95zm19.02 3.11l3.93 0.67c0.14,8.83 1.42,16.38 3.82,22.64l0 6.78c-4.23,-6.46 -6.82,-16.48 -7.74,-30.09zm39.68 0.16l3.69 -0.03 0 33.25 -3.69 0.03 0 -33.25zm-11.31 0.98l3.62 -0.03 0 30.9 -3.62 0.03 0 -30.9zm-7.37 -0.84l0 13.41c0,6 -0.61,10.29 -1.82,12.85 -1.39,3.49 -2.9,5.89 -4.54,7.22l-0.04 -5.36c0.79,-1.27 1.47,-3.09 2.01,-5.45 0.55,-2.19 0.82,-5.24 0.82,-9.13l0.07 -13.48 3.5 -0.06zm31.55 15.1l7.02 -1.11 0 -1.98 3.49 -0.55 0 1.98 6.98 -1.11 0 3.39 -2.47 0.39c0.37,3.79 1.02,6.55 1.95,8.29l0 4.8c-2.43,-1.58 -4.07,-5.78 -4.93,-12.62l-1.54 0.24 0 13.81 -3.49 0.55 0 -13.81 -1.54 0.25c-0.64,6.01 -2.3,10.74 -5,14.2l0 -4.84c0.98,-2.42 1.61,-5.37 1.88,-8.86l-2.35 0.37 0 -3.39zm17.65 -18.66l0 3.31c-3.38,0.91 -9.13,2.05 -17.24,3.41l0 -3.32c8.36,-1.33 14.11,-2.46 17.24,-3.4zm-17.02 8.03l3.19 -0.51c0.59,2.21 1.17,4.58 1.73,7.09l-3.31 0.53c-0.46,-2.46 -1,-4.83 -1.61,-7.11zm6.02 -1.07l3.16 -0.5c0.4,2.27 0.75,4.71 1.07,7.31l-3.23 0.51c-0.27,-2.51 -0.6,-4.96 -1,-7.33zm7.03 -1.19l3.31 -0.52c-0.51,3.61 -0.99,6.21 -1.44,7.79l-3.34 0.53c0.69,-2.94 1.18,-5.54 1.47,-7.79zm12.86 -7.47l3.79 -0.6c-1.47,5.99 -5.38,10.5 -11.73,13.51l0 -3.76c4.78,-2.49 7.42,-5.54 7.94,-9.15zm0.19 9.09l3.75 -0.59c-1.42,6.32 -5.22,11.05 -11.39,14.17l-0.04 -3.64c4.66,-2.65 7.22,-5.96 7.69,-9.93zm0.88 9.65l3.71 -0.59c-2.2,7.25 -6.44,12.78 -12.72,16.61l0 -4.01c4.17,-2.35 7.17,-6.35 9,-12z"/>
 </g>
</svg>
