<?xml version="1.0" encoding="UTF-8"?>
<!DOCTYPE svg PUBLIC "-//W3C//DTD SVG 1.1//EN" "http://www.w3.org/Graphics/SVG/1.1/DTD/svg11.dtd">
<!-- Creator: CorelDRAW 2021.5 -->
<svg xmlns="http://www.w3.org/2000/svg" xml:space="preserve" width="100%" height="100%" version="1.1" style="shape-rendering:geometricPrecision; text-rendering:geometricPrecision; image-rendering:optimizeQuality; fill-rule:evenodd; clip-rule:evenodd"
viewBox="0 0 123.29 123.29"
 xmlns:xlink="http://www.w3.org/1999/xlink"
 xmlns:xodm="http://www.corel.com/coreldraw/odm/2003">
 <defs>
  <style type="text/css">
   <![CDATA[
    .fil0 {fill:none;fill-rule:nonzero}
    .fil1 {fill:#8C2898;fill-rule:nonzero}
    .fil2 {fill:white;fill-rule:nonzero}
   ]]>
  </style>
   <clipPath id="id0" style="clip-rule:nonzero">
    <path d="M2.25 65.26c39.62,16.95 79.21,17.99 118.82,0.09 0.09,-1.25 0.12,-2.46 0.12,-3.71 0,-16.44 -6.65,-31.32 -17.44,-42.08 -10.79,-10.79 -25.64,-17.44 -42.08,-17.44 -16.44,0 -31.32,6.65 -42.08,17.44 -10.79,10.79 -17.44,25.64 -17.44,42.08 0,1.22 0.03,2.43 0.12,3.65l-0.03 -0.03z"/>
   </clipPath>
    <clipPath id="id1">
     <path d="M15.61 70.37c29.78,10.02 59.55,10.86 89.33,1.23l0 -50.81c-0.39,-0.41 -0.78,-0.82 -1.19,-1.22 -10.79,-10.79 -25.64,-17.44 -42.08,-17.44 -16.44,0 -31.32,6.65 -42.08,17.44 -1.4,1.4 -2.73,2.87 -3.98,4.4l0 46.41z"/>
    </clipPath>
    <clipPath id="id2">
     <path d="M2.25 65.26c39.62,16.95 79.21,17.99 118.82,0.09 0.09,-1.25 0.12,-2.46 0.12,-3.71 0,-16.44 -6.65,-31.32 -17.44,-42.08 -10.79,-10.79 -25.64,-17.44 -42.08,-17.44 -16.44,0 -31.32,6.65 -42.08,17.44 -10.79,10.79 -17.44,25.64 -17.44,42.08 0,1.22 0.03,2.43 0.12,3.65l-0.03 -0.03z"/>
    </clipPath>
 </defs>
 <g id="Layer_x0020_1">
  <metadata id="CorelCorpID_0Corel-Layer"/>
  <g>
  </g>
  <g style="clip-path:url(#id0)">
   <g id="_1823133373616">
   </g>
   <g style="clip-path:url(#id1)">
    <image x="15.61" y="-8.73" width="89.33" height="119.33" xlink:href="https://ik.imagekit.io/moearchive/calendar/nogi35fix/okudairoha.png"/>
   </g>
   <g style="clip-path:url(#id2)">
   </g>
  </g>
  <path class="fil0" d="M2.25 65.26c39.62,16.95 79.21,17.99 118.82,0.09 0.09,-1.25 0.12,-2.46 0.12,-3.71 0,-16.44 -6.65,-31.32 -17.44,-42.08 -10.79,-10.79 -25.64,-17.44 -42.08,-17.44 -16.44,0 -31.32,6.65 -42.08,17.44 -10.79,10.79 -17.44,25.64 -17.44,42.08 0,1.22 0.03,2.43 0.12,3.65l-0.03 -0.03z"/>
  <path class="fil1" d="M36.61 24.67c-1.46,0.97 -3.43,0.61 -4.41,-0.85 -0.97,-1.46 -0.61,-3.43 0.85,-4.41 0.67,-0.46 1.4,-0.91 2.13,-1.37 0.88,-0.55 1.61,-0.97 2.16,-1.28 1.55,-0.85 3.49,-0.27 4.31,1.28 0.85,1.55 0.27,3.49 -1.28,4.31 -0.82,0.46 -1.46,0.82 -1.91,1.09 -0.61,0.36 -1.25,0.76 -1.85,1.18l0 0.03zm25.03 -24.67c17.01,0 32.45,6.9 43.6,18.05 11.15,11.15 18.05,26.58 18.05,43.6 0,17.01 -6.9,32.45 -18.05,43.6 -11.15,11.15 -26.58,18.05 -43.6,18.05 -17.01,0 -32.45,-6.9 -43.6,-18.05 -11.15,-11.15 -18.05,-26.58 -18.05,-43.6 0,-17.01 6.9,-32.45 18.05,-43.6 11.15,-11.15 26.58,-18.05 43.6,-18.05zm-59.4 65.26c39.62,16.95 79.21,17.99 118.82,0.09 0.09,-1.25 0.12,-2.46 0.12,-3.71 0,-16.44 -6.65,-31.32 -17.44,-42.08 -10.79,-10.79 -25.64,-17.44 -42.08,-17.44 -16.44,0 -31.32,6.65 -42.08,17.44 -10.79,10.79 -17.44,25.64 -17.44,42.08 0,1.22 0.03,2.43 0.12,3.65l-0.03 -0.03zm15.71 -12.73c-0.36,1.73 -2.04,2.83 -3.77,2.46 -1.73,-0.36 -2.83,-2.04 -2.46,-3.77 1.03,-4.92 2.76,-9.66 5.16,-14.04 2.4,-4.37 5.44,-8.42 9.02,-11.94 1.25,-1.25 3.28,-1.22 4.5,0.03 1.25,1.25 1.22,3.25 -0.03,4.5 -3.16,3.1 -5.8,6.62 -7.9,10.45 -2.1,3.83 -3.62,7.96 -4.53,12.27l0 0.03z"/>
  <path class="fil2" d="M26.91 77.38l2.02 0.44c-0.21,0.35 -0.41,0.69 -0.6,1.02l3.08 0.68c2.37,0.72 3.57,2.76 3.6,6.12 0,2.18 -0.06,4.02 -0.18,5.5l-1.76 -0.39c0.16,-1.68 0.24,-3.4 0.24,-5.15 0,-2.45 -0.63,-3.88 -1.89,-4.3l-7.9 -1.74 0 9.09 -1.69 -0.37 0 -10.87 4.55 1c0.17,-0.35 0.35,-0.69 0.55,-1.03zm-2.18 3.15l1.48 0.33c0.17,0.76 0.33,1.52 0.46,2.29l-1.47 -0.32c-0.16,-0.76 -0.32,-1.52 -0.48,-2.29zm5.41 1.28l1.52 0.34c-0.11,0.8 -0.25,1.49 -0.42,2.07l-1.54 -0.34c0.17,-0.7 0.32,-1.39 0.44,-2.07zm-5.89 1.33l3.08 0.68 0 -2.91 1.67 0.37 0 2.91 3.48 0.77 0 1.7 -1.39 -0.31c0.19,0.82 0.57,1.58 1.14,2.27l0 2.12c-1.31,-1.17 -2.18,-2.74 -2.62,-4.72l-0.6 -0.13 0 3.23 -1.67 -0.37 0 -3.23 -0.5 -0.11c-0.57,1.97 -1.41,3.09 -2.51,3.35l0 -2.02c0.4,-0.22 0.75,-0.77 1.05,-1.66l-1.12 -0.25 0 -1.7zm-3.89 5.51l6.88 1.52c0.05,-0.27 0.08,-0.57 0.09,-0.89l1.72 0.38c0,0.33 -0.02,0.63 -0.05,0.9l6.97 1.54 0 1.91 -6.14 -1.36c1.23,1.67 3.23,2.95 5.98,3.83l0 2.04c-3.46,-1.05 -6,-2.89 -7.63,-5.55 -1.22,1.88 -3.76,2.61 -7.61,2.19l0 -1.95c2.88,0.37 4.84,-0.06 5.88,-1.29l-6.09 -1.34 0 -1.91zm21.19 2.27l0 5.73 4.43 0.46 0 -5.73 -4.43 -0.46zm6.32 6.39l2.12 0.22c1.03,-0.03 1.76,-0.65 2.18,-1.83 0.41,-0.95 0.65,-2.15 0.72,-3.6l-5.02 -0.52 0 5.73zm5 -7.23c-0.1,-1.55 -0.38,-2.81 -0.83,-3.78 -0.53,-1.26 -1.33,-2 -2.4,-2.23l-1.77 -0.18 0 5.67 5 0.52zm-6.9 -6.39l-4.43 -0.46 0 5.67 4.43 0.46 0 -5.67zm3.93 -1.61c1.51,0.37 2.71,1.37 3.59,2.99 0.82,1.5 1.26,3.46 1.32,5.87 0,2.99 -0.4,5.08 -1.21,6.29 -0.81,1.51 -1.99,2.32 -3.55,2.41l-10.36 -1.08 0 -17.54 10.21 1.06zm21.56 15.48l-1.88 0.08c0,-5 -1.19,-9.65 -3.58,-13.95l2.07 -0.08c2.27,3.73 3.4,8.38 3.4,13.96zm-7.33 -0.85c-1.34,1.78 -2.55,2.69 -3.6,2.74 -2.15,0.09 -3.23,-2.85 -3.23,-8.81 0,-1.88 0.04,-4.26 0.11,-7.14l1.87 -0.08c-0.09,2.3 -0.13,4.37 -0.13,6.21 0,5.01 0.52,7.5 1.57,7.45 0.83,-0.03 1.98,-1.17 3.42,-3.41l0 3.04zm23.04 -5.07c0,2.45 -1.33,4.31 -4,5.58 -1.51,0.7 -3.7,1.27 -6.58,1.69l0 -2.19c2.26,-0.31 3.98,-0.67 5.17,-1.1 2.36,-0.9 3.54,-2.14 3.54,-3.71 0,-1.81 -1.3,-2.53 -3.89,-2.14 -2.92,0.43 -5.86,2.1 -8.82,5l0 -2.5c2.41,-2.06 5.48,-5.15 9.21,-9.28l-7.67 1.13 0 -2.14 8.63 -1.28c1.08,-0.16 1.61,0.27 1.61,1.29 0,0.67 -0.47,1.51 -1.43,2.53l-3.69 3.77c0.71,-0.26 1.43,-0.45 2.15,-0.55 1.5,-0.22 2.74,-0.12 3.7,0.3 1.37,0.57 2.06,1.78 2.06,3.6zm15.41 -1.28l0 2.55c-1.19,-0.66 -2.31,-1.14 -3.37,-1.45 -0.44,2.33 -1.78,3.75 -4.03,4.26 -1.01,0.23 -1.84,0.15 -2.47,-0.23 -0.74,-0.43 -1.12,-1.21 -1.12,-2.34 0,-1.15 0.34,-2.09 1.03,-2.82 0.62,-0.65 1.45,-1.09 2.47,-1.32 0.74,-0.17 1.57,-0.21 2.47,-0.13l0 -5.78 -5.9 1.32 0 -2.04 5.9 -1.32 0 -3.19 1.85 -0.41 0 3.19 3.13 -0.7 0 2.04 -3.13 0.7 0 6.52c1.05,0.25 2.11,0.63 3.17,1.16zm-11.91 5.98l-1.89 0.42c-0.39,-3.55 -0.59,-6.49 -0.59,-8.83 0,-2.53 0.19,-5.2 0.59,-8.01l1.85 -0.41c-0.39,2.77 -0.59,5.43 -0.59,8.01 0,2.25 0.21,5.19 0.62,8.82zm6.8 -5.28c-0.86,-0.11 -1.65,-0.08 -2.38,0.09 -1.09,0.24 -1.63,0.77 -1.63,1.58 0,0.8 0.58,1.08 1.72,0.82 1.35,-0.3 2.11,-1.13 2.29,-2.49z"/>
 </g>
</svg>
