<?xml version="1.0" encoding="UTF-8"?>
<!DOCTYPE svg PUBLIC "-//W3C//DTD SVG 1.1//EN" "http://www.w3.org/Graphics/SVG/1.1/DTD/svg11.dtd">
<!-- Creator: CorelDRAW 2021.5 -->
<svg xmlns="http://www.w3.org/2000/svg" xml:space="preserve" width="100%" height="100%" version="1.1" style="shape-rendering:geometricPrecision; text-rendering:geometricPrecision; image-rendering:optimizeQuality; fill-rule:evenodd; clip-rule:evenodd"
viewBox="0 0 114.64 114.64"
 xmlns:xlink="http://www.w3.org/1999/xlink"
 xmlns:xodm="http://www.corel.com/coreldraw/odm/2003">
 <defs>
  <style type="text/css">
   <![CDATA[
    .fil0 {fill:none;fill-rule:nonzero}
    .fil1 {fill:#8C2898;fill-rule:nonzero}
    .fil2 {fill:white;fill-rule:nonzero}
   ]]>
  </style>
   <clipPath id="id0" style="clip-rule:nonzero">
    <path d="M2.09 60.68c36.84,15.76 73.65,16.72 110.49,0.08 0.08,-1.16 0.11,-2.29 0.11,-3.45 0,-15.28 -6.19,-29.13 -16.22,-39.13 -10.03,-10.03 -23.84,-16.22 -39.13,-16.22 -15.28,0 -29.13,6.19 -39.13,16.22 -10.03,10.03 -16.22,23.84 -16.22,39.13 0,1.13 0.03,2.26 0.11,3.39l-0.03 -0.03z"/>
   </clipPath>
    <clipPath id="id1">
     <path d="M14.52 65.44c27.69,9.32 55.37,10.1 83.06,1.14l0 -47.25c-0.36,-0.38 -0.73,-0.76 -1.1,-1.13 -10.03,-10.03 -23.84,-16.22 -39.13,-16.22 -15.28,0 -29.13,6.19 -39.13,16.22 -1.3,1.3 -2.54,2.67 -3.7,4.09l0 43.15z"/>
    </clipPath>
    <clipPath id="id2">
     <path d="M2.09 60.68c36.84,15.76 73.65,16.72 110.49,0.08 0.08,-1.16 0.11,-2.29 0.11,-3.45 0,-15.28 -6.19,-29.13 -16.22,-39.13 -10.03,-10.03 -23.84,-16.22 -39.13,-16.22 -15.28,0 -29.13,6.19 -39.13,16.22 -10.03,10.03 -16.22,23.84 -16.22,39.13 0,1.13 0.03,2.26 0.11,3.39l-0.03 -0.03z"/>
    </clipPath>
 </defs>
 <g id="Layer_x0020_1">
  <metadata id="CorelCorpID_0Corel-Layer"/>
  <g>
  </g>
  <g style="clip-path:url(#id0)">
   <g id="_1823105906400">
   </g>
   <g style="clip-path:url(#id1)">
    <image x="14.52" y="-8.12" width="83.06" height="110.96" xlink:href="https://ik.imagekit.io/moearchive/calendar/nogi35fix/sugawarasatsuki.png"/>
   </g>
   <g style="clip-path:url(#id2)">
   </g>
  </g>
  <path class="fil0" d="M2.09 60.68c36.84,15.76 73.65,16.72 110.49,0.08 0.08,-1.16 0.11,-2.29 0.11,-3.45 0,-15.28 -6.19,-29.13 -16.22,-39.13 -10.03,-10.03 -23.84,-16.22 -39.13,-16.22 -15.28,0 -29.13,6.19 -39.13,16.22 -10.03,10.03 -16.22,23.84 -16.22,39.13 0,1.13 0.03,2.26 0.11,3.39l-0.03 -0.03z"/>
  <path class="fil1" d="M34.04 22.94c-1.36,0.9 -3.19,0.56 -4.1,-0.79 -0.9,-1.36 -0.56,-3.19 0.79,-4.1 0.62,-0.42 1.3,-0.85 1.98,-1.27 0.82,-0.51 1.5,-0.9 2.01,-1.19 1.44,-0.79 3.25,-0.25 4.01,1.19 0.79,1.44 0.25,3.25 -1.19,4.01 -0.76,0.42 -1.36,0.76 -1.78,1.02 -0.56,0.34 -1.16,0.71 -1.72,1.1l0 0.03zm23.28 -22.94c15.82,0 30.17,6.41 40.54,16.78 10.37,10.37 16.78,24.72 16.78,40.54 0,15.82 -6.41,30.17 -16.78,40.54 -10.37,10.37 -24.72,16.78 -40.54,16.78 -15.82,0 -30.17,-6.41 -40.54,-16.78 -10.37,-10.37 -16.78,-24.72 -16.78,-40.54 0,-15.82 6.41,-30.17 16.78,-40.54 10.37,-10.37 24.72,-16.78 40.54,-16.78zm-55.23 60.68c36.84,15.76 73.65,16.72 110.49,0.08 0.08,-1.16 0.11,-2.29 0.11,-3.45 0,-15.28 -6.19,-29.13 -16.22,-39.13 -10.03,-10.03 -23.84,-16.22 -39.13,-16.22 -15.28,0 -29.13,6.19 -39.13,16.22 -10.03,10.03 -16.22,23.84 -16.22,39.13 0,1.13 0.03,2.26 0.11,3.39l-0.03 -0.03zm14.61 -11.84c-0.34,1.61 -1.89,2.63 -3.5,2.29 -1.61,-0.34 -2.63,-1.89 -2.29,-3.5 0.96,-4.58 2.57,-8.98 4.8,-13.05 2.23,-4.07 5.06,-7.83 8.39,-11.1 1.16,-1.16 3.05,-1.13 4.18,0.03 1.16,1.16 1.13,3.02 -0.03,4.18 -2.94,2.88 -5.4,6.16 -7.35,9.72 -1.95,3.56 -3.36,7.4 -4.21,11.41l0 0.03z"/>
  <path class="fil2" d="M18.31 71.56l3.65 0.8 0 -1.11 1.89 0.42 0 1.11 5.25 1.16 0 -1.11 1.93 0.43 0 1.11 3.55 0.78 0 1.78 -3.55 -0.78 0 1.02 -1.93 -0.43 0 -1.02 -5.25 -1.16 0 1.13 -1.89 -0.42 0 -1.13 -3.65 -0.8 0 -1.78zm7.1 4.08l2.02 0.45 0 1.22 4.67 1.03c1.62,0.54 2.43,1.39 2.43,2.53 -0.04,1.04 -0.17,1.81 -0.38,2.28l-1.68 -0.37c0.04,0.19 0.06,0.37 0.06,0.55 0,0.7 -0.17,1.2 -0.52,1.5 -0.32,0.33 -0.76,0.44 -1.31,0.34l-7.79 -1.72 0 0.83 8.08 1.78c0.57,0.15 1.02,0.45 1.37,0.92 0.36,0.55 0.55,1.11 0.56,1.66 0,0.72 -0.19,1.26 -0.56,1.61 -0.35,0.36 -0.87,0.48 -1.56,0.35l-9.77 -2.16 0 -9.77 9.6 2.12c0.54,0.19 0.99,0.52 1.35,1.01 0.14,0.19 0.26,0.38 0.35,0.57 0.22,-0.75 0.33,-1.26 0.33,-1.53 0,-0.46 -0.35,-0.77 -1.04,-0.92l-11.18 -2.47 0 2.63 -1.85 -0.41 -0.02 -4.35 6.87 1.54 0 -1.22zm-2.51 5.01l0 1.22 7.17 1.58c0.36,0.08 0.54,-0.1 0.54,-0.53 -0.04,-0.39 -0.23,-0.62 -0.56,-0.7l-7.16 -1.58zm0 5.13l0 1.42 7.41 1.63c0.41,0.08 0.62,-0.13 0.62,-0.63 -0.04,-0.4 -0.2,-0.66 -0.5,-0.76l-7.52 -1.66zm17.91 -8.4c0,1.04 -0.01,2.08 -0.04,3.12 -0.12,4.28 -0.39,8.28 -0.83,11.99l-1.95 -0.15c0.58,-3.9 0.87,-8.02 0.87,-12.38 0.04,-1.31 0.06,-2.82 0.06,-4.52l15.68 1.43 0 1.78 -5.98 -0.54c-0.14,0.39 -0.31,0.77 -0.49,1.12l3.42 0.31c0.88,0.21 1.55,0.69 2.03,1.43 0.43,0.76 0.65,1.64 0.65,2.63 -0.01,1.1 -0.28,1.97 -0.81,2.59 -0.56,0.72 -1.25,1.07 -2.05,1.04l-2.5 -0.22c0.01,0.41 0.02,0.9 0.02,1.46 0,1.44 -0.06,2.42 -0.18,2.95 -0.24,1.15 -0.9,1.72 -1.99,1.7 -1.14,-0.14 -2.02,-0.35 -2.64,-0.61l0 -1.7c0.79,0.25 1.48,0.41 2.07,0.46 0.37,0.01 0.63,-0.22 0.81,-0.68 0.08,-0.28 0.12,-1.03 0.12,-2.26 -0.01,-0.59 -0.03,-1.09 -0.04,-1.48l-4.8 -0.43 -0.02 -7.7 3.83 0.34c0.21,-0.38 0.39,-0.75 0.55,-1.12l-5.8 -0.54zm3.25 6.08l0 1.4 7.18 0.64c0.53,-0.07 0.87,-0.51 1.02,-1.31l-8.2 -0.73zm8.2 -0.89c-0.18,-0.82 -0.64,-1.31 -1.38,-1.48l-6.82 -0.61 0 1.36 8.2 0.73zm-1.63 5.27l1.75 0.16c0.08,1.26 0.8,2.36 2.17,3.31l0 2.25c-2.14,-1.26 -3.44,-3.17 -3.91,-5.72zm-7.57 -0.7l1.73 0.16c-0.08,2.6 -1.32,4.25 -3.74,4.94l0 -1.94c1.34,-0.59 2.01,-1.64 2.01,-3.16zm21.53 -9.41l1.3 -0.11c-0.14,-0.63 -0.29,-1.34 -0.43,-2.14l1.91 -0.16c0.16,0.75 0.33,1.46 0.51,2.13l3.34 -0.28c0.22,-0.73 0.42,-1.46 0.59,-2.18l1.97 -0.17c-0.16,0.8 -0.34,1.53 -0.53,2.18l1.42 -0.12 0 1.88 -4.17 0.35 0 3.81c0,0.09 -0.01,0.19 -0.02,0.3l4.49 -0.38 0 1.92 -4.37 0.37c0.59,2.49 2.09,4.22 4.51,5.19l0 2.29c-2.64,-0.94 -4.49,-2.59 -5.57,-4.96 -0.37,0.84 -0.83,1.62 -1.38,2.37 -1.38,1.76 -2.7,2.92 -3.96,3.48l0 -2.19c2.17,-1.51 3.52,-3.51 4.05,-5.97l-3.86 0.33 0 -1.92 4.11 -0.35c0.01,-0.12 0.02,-0.24 0.02,-0.36l0.02 -3.75 -3.96 0.33 0 -1.88zm-3.7 -0.67c0.73,-0.01 1.32,0.18 1.77,0.56 0.47,0.44 0.75,0.94 0.83,1.53 0.21,1.06 0.32,2.76 0.32,5.11 -0.01,1.89 -0.07,3.16 -0.18,3.83 -0.01,0.84 -0.21,1.6 -0.61,2.26 -0.5,0.68 -1.12,1.06 -1.85,1.16l-2.5 0.21 0 -14.48 2.22 -0.19zm-0.53 12.72l0.57 -0.05c0.7,-0.17 1.04,-0.65 1.04,-1.45 0.12,-0.79 0.18,-2.22 0.18,-4.3 0,-1.4 -0.05,-2.67 -0.16,-3.84 -0.05,-0.9 -0.51,-1.37 -1.38,-1.38l-0.26 0.02 0 11zm20.14 -15.74l8.95 -1.86c1.12,-0.16 2.02,-0 2.71,0.45 0.63,0.51 0.99,1.25 1.08,2.22 0.18,1.37 0.28,3.08 0.29,5.13 0,1.9 -0.07,3.65 -0.21,5.26 -0.3,2.12 -1.45,3.38 -3.46,3.8 -2.1,0.44 -3.82,0.71 -5.16,0.81l0 -1.84c1.96,-0.26 3.51,-0.51 4.66,-0.75 1.25,-0.26 1.95,-0.96 2.11,-2.12 0.04,-0.39 0.07,-0.85 0.08,-1.38l-9.71 2.01c-0.26,2 -0.56,3.8 -0.91,5.4l-1.95 0.39c0.4,-1.8 0.74,-3.88 1.01,-6.25 0.32,-2.74 0.49,-5.35 0.52,-7.85l0 -3.43zm1.57 9.79l9.51 -1.97c0,-0.41 0,-0.85 0,-1.32 -0.01,-0.6 -0.03,-1.18 -0.06,-1.74l-9.2 1.91c-0.05,1.06 -0.14,2.11 -0.25,3.13zm0.35 -5.07l8.97 -1.86c-0.05,-0.53 -0.1,-1.03 -0.15,-1.51 -0.05,-1 -0.62,-1.46 -1.7,-1.38l-7.08 1.47 0 1.58c-0.01,0.58 -0.03,1.15 -0.04,1.7z"/>
 </g>
</svg>
