<?xml version="1.0" encoding="UTF-8"?>
<!DOCTYPE svg PUBLIC "-//W3C//DTD SVG 1.1//EN" "http://www.w3.org/Graphics/SVG/1.1/DTD/svg11.dtd">
<!-- Creator: CorelDRAW 2021.5 -->
<svg xmlns="http://www.w3.org/2000/svg" xml:space="preserve" width="100%" height="100%" version="1.1" style="shape-rendering:geometricPrecision; text-rendering:geometricPrecision; image-rendering:optimizeQuality; fill-rule:evenodd; clip-rule:evenodd"
viewBox="0 0 247.13 247.13"
 xmlns:xlink="http://www.w3.org/1999/xlink"
 xmlns:xodm="http://www.corel.com/coreldraw/odm/2003">
 <defs>
  <style type="text/css">
   <![CDATA[
    .fil0 {fill:none;fill-rule:nonzero}
    .fil1 {fill:#8C2898;fill-rule:nonzero}
    .fil2 {fill:white;fill-rule:nonzero}
   ]]>
  </style>
   <clipPath id="id0" style="clip-rule:nonzero">
    <path d="M4.51 130.81c79.41,33.98 158.77,36.05 238.18,0.18 0.18,-2.5 0.24,-4.93 0.24,-7.43 0,-32.95 -13.34,-62.79 -34.96,-84.35 -21.62,-21.62 -51.4,-34.96 -84.35,-34.96 -32.95,0 -62.79,13.34 -84.35,34.96 -21.62,21.62 -34.96,51.4 -34.96,84.35 0,2.44 0.06,4.87 0.24,7.31l-0.06 -0.06z"/>
   </clipPath>
    <clipPath id="id1">
     <path d="M31.3 141.05c59.69,20.09 119.36,21.77 179.05,2.46l0 -101.85c-0.78,-0.83 -1.57,-1.64 -2.38,-2.44 -21.62,-21.62 -51.4,-34.96 -84.35,-34.96 -32.95,0 -62.79,13.34 -84.35,34.96 -2.8,2.8 -5.47,5.75 -7.98,8.82l0 93.02z"/>
    </clipPath>
    <clipPath id="id2">
     <path d="M4.51 130.81c79.41,33.98 158.77,36.05 238.18,0.18 0.18,-2.5 0.24,-4.93 0.24,-7.43 0,-32.95 -13.34,-62.79 -34.96,-84.35 -21.62,-21.62 -51.4,-34.96 -84.35,-34.96 -32.95,0 -62.79,13.34 -84.35,34.96 -21.62,21.62 -34.96,51.4 -34.96,84.35 0,2.44 0.06,4.87 0.24,7.31l-0.06 -0.06z"/>
    </clipPath>
 </defs>
 <g id="Layer_x0020_1">
  <metadata id="CorelCorpID_0Corel-Layer"/>
  <g>
  </g>
  <g style="clip-path:url(#id0)">
   <g id="_1823105917824">
   </g>
   <g style="clip-path:url(#id1)">
    <image x="31.3" y="-17.51" width="179.05" height="239.19" xlink:href="https://ik.imagekit.io/moearchive/calendar/nogi33/tomisatonao.png"/>
   </g>
   <g style="clip-path:url(#id2)">
   </g>
  </g>
  <path class="fil0" d="M4.51 130.81c79.41,33.98 158.77,36.05 238.18,0.18 0.18,-2.5 0.24,-4.93 0.24,-7.43 0,-32.95 -13.34,-62.79 -34.96,-84.35 -21.62,-21.62 -51.4,-34.96 -84.35,-34.96 -32.95,0 -62.79,13.34 -84.35,34.96 -21.62,21.62 -34.96,51.4 -34.96,84.35 0,2.44 0.06,4.87 0.24,7.31l-0.06 -0.06z"/>
  <path class="fil1" d="M73.38 49.45c-2.92,1.95 -6.88,1.22 -8.83,-1.71 -1.95,-2.92 -1.22,-6.88 1.71,-8.83 1.34,-0.91 2.8,-1.83 4.26,-2.74 1.77,-1.1 3.23,-1.95 4.32,-2.56 3.11,-1.71 7,-0.55 8.65,2.56 1.71,3.11 0.55,7 -2.56,8.65 -1.64,0.91 -2.92,1.64 -3.84,2.19 -1.22,0.73 -2.5,1.52 -3.72,2.37l0 0.06zm50.18 -49.45c34.1,0 65.04,13.82 87.39,36.17 22.35,22.35 36.17,53.29 36.17,87.39 0,34.1 -13.82,65.04 -36.17,87.39 -22.35,22.35 -53.29,36.17 -87.39,36.17 -34.1,0 -65.04,-13.82 -87.39,-36.17 -22.35,-22.35 -36.17,-53.29 -36.17,-87.39 0,-34.1 13.82,-65.04 36.17,-87.39 22.35,-22.35 53.29,-36.17 87.39,-36.17zm-119.06 130.81c79.41,33.98 158.77,36.05 238.18,0.18 0.18,-2.5 0.24,-4.93 0.24,-7.43 0,-32.95 -13.34,-62.79 -34.96,-84.35 -21.62,-21.62 -51.4,-34.96 -84.35,-34.96 -32.95,0 -62.79,13.34 -84.35,34.96 -21.62,21.62 -34.96,51.4 -34.96,84.35 0,2.44 0.06,4.87 0.24,7.31l-0.06 -0.06zm31.49 -25.52c-0.73,3.47 -4.08,5.66 -7.55,4.93 -3.47,-0.73 -5.66,-4.08 -4.93,-7.55 2.07,-9.87 5.54,-19.37 10.35,-28.14 4.81,-8.77 10.9,-16.87 18.09,-23.93 2.5,-2.5 6.58,-2.44 9.01,0.06 2.5,2.5 2.44,6.52 -0.06,9.01 -6.33,6.21 -11.63,13.28 -15.83,20.95 -4.2,7.67 -7.25,15.96 -9.07,24.6l0 0.06z"/>
  <path class="fil2" d="M41.64 153.49l29.22 6.49c3.36,1.14 5.04,2.93 5.07,5.38 -0.09,2.45 -0.36,4.24 -0.83,5.35l-3.99 -0.88c0.58,-2.2 0.87,-3.68 0.87,-4.45 0,-0.99 -0.72,-1.65 -2.16,-1.97l-24.11 -5.32 0 6.04 -4.03 -0.89 -0.04 -9.76zm5.61 6.99l22.87 5.05 0 3.4 -22.87 -5.05 0 -3.4zm20.04 20.38c2.33,0.51 4.13,1.62 5.41,3.32 1.33,1.57 2.05,3.42 2.16,5.54 -0.03,2.21 -0.68,3.77 -1.96,4.68 -1.33,1.18 -3.13,1.57 -5.41,1.15l-23.86 -5.26 0 -14.64 23.65 5.22zm-19.58 6.83l8.65 1.91 0 -2.13 -8.65 -1.91 0 2.13zm12.68 0.67l0 2.13 6.65 1.47c1.69,0.23 2.78,-0.24 3.28,-1.4l-9.94 -2.19zm-12.68 -6.16l8.65 1.91 0 -2.22 -8.65 -1.91 0 2.22zm12.68 0.58l0 2.22 10.02 2.21c-0.48,-1.44 -1.58,-2.42 -3.33,-2.95l-6.7 -1.48zm7.19 -12.8c1.47,0.41 2.66,1.1 3.58,2.07 1.03,1.02 1.54,2.16 1.54,3.41 0,1.55 -0.42,2.64 -1.25,3.26 -0.75,0.66 -1.87,0.88 -3.37,0.66l-22.82 -5.03 0 -9.28 22.32 4.93zm-18.25 1.81l17.87 3.94c1.11,0.25 1.67,-0.08 1.67,-0.95 0,-0.82 -0.68,-1.4 -2.04,-1.73l-17.5 -3.86 0 2.6zm40.71 3.27l0 4.47 9.21 0.69 0 -4.47 -9.21 -0.69zm9.21 9.16l-13.33 -0.99 0 -20.52 22.8 1.7c6.43,0.48 9.69,4.1 9.8,10.86 0,6.56 -2.75,9.81 -8.27,9.77l-6.8 -0.51 0 3.71 14.61 1.09 0 4.08 -14.61 -1.09 0 3.87 16.35 1.22 0 4.18 -36.63 -2.73 0 -4.18 16.08 1.2 0 -3.87 -14.18 -1.05 0 -4.08 14.18 1.05 0 -3.71zm4.2 -3.69l6.2 0.46c2.63,-0.15 4.17,-1.52 4.63,-4.12l-10.83 -0.81 0 4.47zm10.83 -7.28c-0.51,-3.08 -2.37,-4.73 -5.56,-4.97l-5.27 -0.39 0 4.56 10.83 0.81zm-15.03 -5.67l-9.21 -0.69 0 4.56 9.21 0.69 0 -4.56zm28.5 -0.51l13.69 -1.34c0.54,-0.93 1.01,-1.9 1.44,-2.9l4.37 -0.43c-0.31,0.99 -0.67,1.95 -1.06,2.87l15.89 -1.56 0 3.96 -8.64 0.85c2.74,2.51 5.94,4.02 9.62,4.51l0 4.64c-1.81,-0.33 -3.47,-0.78 -5,-1.34l0 2.17 -25.97 2.55 0 -1.83c-1.44,0.62 -2.96,1.21 -4.58,1.77l0 -4.51c4.43,-1.52 8.01,-3.67 10.72,-6.46l-10.47 1.03 0 -3.96zm8.77 9.62l18.39 -1.8c-2.65,-1.5 -4.82,-3.46 -6.48,-5.88l-4.58 0.45c-1.87,2.83 -4.31,5.23 -7.33,7.24zm-9.53 8.85l35.8 -3.51 0 4.04 -15.34 1.51c0.14,1.29 0.27,2.76 0.38,4.39 0,2.13 -0.16,3.56 -0.47,4.3 -0.42,2.28 -2.19,3.73 -5.29,4.35 -2.43,0.24 -4.44,0.35 -6.02,0.34l0 -3.96c1.61,0.07 3.16,0.03 4.66,-0.12 1.92,-0.19 2.93,-1.31 3.01,-3.36 -0.06,-1.99 -0.18,-3.83 -0.38,-5.54l-16.36 1.61 0 -4.04zm5.42 5l3.77 -0.37c-0.14,5.15 -2.73,8.87 -7.75,11.15l0 -4.08c2.65,-1.57 3.98,-3.8 3.98,-6.7zm21.27 -1.96l3.9 -0.38c0.17,2.11 1.48,3.74 3.94,4.9l0 4.72c-4.3,-1.56 -6.9,-4.64 -7.84,-9.23zm41.04 -30.77c5.47,-0.72 8.23,2.58 8.28,9.92 0,2.08 0,3.9 0,5.49l2.88 -0.62 0 4.05 -14.32 3.09c3.52,4.43 8.27,6.36 14.23,5.79l0 4.68c-8.35,0.1 -14.26,-2.66 -17.73,-8.26 -1.22,2.48 -3.01,4.88 -5.37,7.2 -4.33,4.12 -8.46,7.03 -12.4,8.76l0 -4.38c6.88,-3.73 11.48,-7.79 13.81,-12.18l-13.81 2.98 0 -4.05 3.74 -0.81 0 -17.2 11.86 -2.56 0.04 -3.72 4.03 -0.87 0 3.71 4.74 -1.02zm-16.72 20.81l7.66 -1.65c0.11,-0.65 0.19,-1.28 0.25,-1.88l0 -11.41 -7.9 1.71 0 13.24zm11.98 -15.82l0 11.54c0,0.57 -0.04,1.14 -0.12,1.73l9.15 -1.98c0.06,-1.57 0.09,-3.15 0.09,-4.74 0,-5.36 -1.46,-7.89 -4.37,-7.57l-4.74 1.02z"/>
 </g>
</svg>
