<?xml version="1.0" encoding="UTF-8"?>
<!DOCTYPE svg PUBLIC "-//W3C//DTD SVG 1.1//EN" "http://www.w3.org/Graphics/SVG/1.1/DTD/svg11.dtd">
<!-- Creator: CorelDRAW 2021.5 -->
<svg xmlns="http://www.w3.org/2000/svg" xml:space="preserve" width="100%" height="100%" version="1.1" style="shape-rendering:geometricPrecision; text-rendering:geometricPrecision; image-rendering:optimizeQuality; fill-rule:evenodd; clip-rule:evenodd"
viewBox="0 0 172.76 172.76"
 xmlns:xlink="http://www.w3.org/1999/xlink"
 xmlns:xodm="http://www.corel.com/coreldraw/odm/2003">
 <defs>
  <style type="text/css">
   <![CDATA[
    .fil0 {fill:none;fill-rule:nonzero}
    .fil1 {fill:#8C2898;fill-rule:nonzero}
    .fil2 {fill:white;fill-rule:nonzero}
   ]]>
  </style>
   <clipPath id="id0" style="clip-rule:nonzero">
    <path d="M3.15 91.45c55.51,23.76 110.99,25.2 166.5,0.13 0.13,-1.75 0.17,-3.45 0.17,-5.19 0,-23.03 -9.32,-43.89 -24.44,-58.96 -15.11,-15.11 -35.93,-24.44 -58.96,-24.44 -23.03,0 -43.89,9.32 -58.96,24.44 -15.11,15.11 -24.44,35.93 -24.44,58.96 0,1.7 0.04,3.41 0.17,5.11l-0.04 -0.04z"/>
   </clipPath>
    <clipPath id="id1">
     <path d="M21.88 98.61c41.73,14.05 83.44,15.22 125.17,1.72l0 -71.2c-0.55,-0.58 -1.1,-1.15 -1.66,-1.71 -15.11,-15.11 -35.93,-24.44 -58.96,-24.44 -23.03,0 -43.89,9.32 -58.96,24.44 -1.96,1.96 -3.82,4.02 -5.58,6.16l0 65.03z"/>
    </clipPath>
    <clipPath id="id2">
     <path d="M3.15 91.45c55.51,23.76 110.99,25.2 166.5,0.13 0.13,-1.75 0.17,-3.45 0.17,-5.19 0,-23.03 -9.32,-43.89 -24.44,-58.96 -15.11,-15.11 -35.93,-24.44 -58.96,-24.44 -23.03,0 -43.89,9.32 -58.96,24.44 -15.11,15.11 -24.44,35.93 -24.44,58.96 0,1.7 0.04,3.41 0.17,5.11l-0.04 -0.04z"/>
    </clipPath>
 </defs>
 <g id="Layer_x0020_1">
  <metadata id="CorelCorpID_0Corel-Layer"/>
  <g>
  </g>
  <g style="clip-path:url(#id0)">
   <g id="_1788429935488">
   </g>
   <g style="clip-path:url(#id1)">
   </g>
   <g style="clip-path:url(#id2)">
   </g>
  </g>
  <path class="fil0" d="M3.15 91.45c55.51,23.76 110.99,25.2 166.5,0.13 0.13,-1.75 0.17,-3.45 0.17,-5.19 0,-23.03 -9.32,-43.89 -24.44,-58.96 -15.11,-15.11 -35.93,-24.44 -58.96,-24.44 -23.03,0 -43.89,9.32 -58.96,24.44 -15.11,15.11 -24.44,35.93 -24.44,58.96 0,1.7 0.04,3.41 0.17,5.11l-0.04 -0.04z"/>
  <path class="fil1" d="M51.3 34.57c-2.04,1.36 -4.81,0.85 -6.17,-1.19 -1.36,-2.04 -0.85,-4.81 1.19,-6.17 0.94,-0.64 1.96,-1.28 2.98,-1.92 1.23,-0.77 2.26,-1.36 3.02,-1.79 2.17,-1.19 4.9,-0.38 6.05,1.79 1.19,2.17 0.38,4.9 -1.79,6.05 -1.15,0.64 -2.04,1.15 -2.68,1.53 -0.85,0.51 -1.75,1.06 -2.6,1.66l0 0.04zm35.08 -34.57c23.84,0 45.47,9.66 61.09,25.29 15.62,15.62 25.29,37.25 25.29,61.09 0,23.84 -9.66,45.47 -25.29,61.09 -15.62,15.62 -37.25,25.29 -61.09,25.29 -23.84,0 -45.47,-9.66 -61.09,-25.29 -15.62,-15.62 -25.29,-37.25 -25.29,-61.09 0,-23.84 9.66,-45.47 25.29,-61.09 15.62,-15.62 37.25,-25.29 61.09,-25.29zm-83.23 91.45c55.51,23.76 110.99,25.2 166.5,0.13 0.13,-1.75 0.17,-3.45 0.17,-5.19 0,-23.03 -9.32,-43.89 -24.44,-58.96 -15.11,-15.11 -35.93,-24.44 -58.96,-24.44 -23.03,0 -43.89,9.32 -58.96,24.44 -15.11,15.11 -24.44,35.93 -24.44,58.96 0,1.7 0.04,3.41 0.17,5.11l-0.04 -0.04zm22.01 -17.84c-0.51,2.43 -2.85,3.96 -5.28,3.45 -2.43,-0.51 -3.96,-2.85 -3.45,-5.28 1.45,-6.9 3.87,-13.54 7.24,-19.67 3.36,-6.13 7.62,-11.79 12.64,-16.73 1.75,-1.75 4.6,-1.7 6.3,0.04 1.75,1.75 1.7,4.56 -0.04,6.3 -4.43,4.34 -8.13,9.28 -11.07,14.64 -2.94,5.36 -5.07,11.15 -6.34,17.2l0 0.04z"/>
  <path class="fil2" d="M43.03 112.27l4.67 0.74 0 -2.29 2.85 0.45 0 2.29 4.38 0.69 0 2.95 -1 -0.16c0.04,7.79 0.4,14.82 1.09,21.1l-2.53 -0.4c-0.67,-4.19 -1.01,-11.22 -1.03,-21.09l-0.91 -0.14 0 21.7 -2.85 -0.45 0 -21.7 -0.85 -0.13c-0.16,7.2 -0.48,14.1 -0.97,20.71l-2.62 -0.41c0.69,-6.44 1.04,-13.34 1.06,-20.7l-1.29 -0.2 0 -2.95zm12.78 2.05l4.44 0.7 0 -2.35 2.88 0.45 0 2.35 4.79 0.75 0 2.95 -1.32 -0.21c0.04,7.75 0.41,14.75 1.11,21.01l-2.67 -0.42c-0.65,-4.19 -0.98,-11.19 -1,-20.99l-0.91 -0.14 0 21.7 -2.88 -0.45 0 -21.7 -0.85 -0.13c-0.18,7.19 -0.54,14.09 -1.09,20.69l-2.67 -0.42c0.78,-6.42 1.19,-13.32 1.23,-20.67l-1.06 -0.17 0 -2.95zm17.31 10.6l2.56 -0.02 0 -6.34 -2.53 0.02 0 -2.65 7.7 -0.06 0 2.65 -2.41 0.02 0 6.34 2.53 -0.02 0 2.8 -2.53 0.02 0 6.16c0.85,-0.2 1.72,-0.44 2.59,-0.71l0 2.82c-2.11,0.65 -4.74,1.13 -7.92,1.43l0 -2.85c0.83,-0.03 1.69,-0.09 2.56,-0.2l0 -6.63 -2.56 0.02 0 -2.8zm20.26 2.52c1.67,0.21 2.91,0.87 3.72,2 0.85,1.14 1.28,2.7 1.28,4.66 -0.04,2.18 -0.5,3.82 -1.37,4.92 -0.87,1.1 -2.22,1.7 -4.05,1.79l-10.5 0.08 0 -13.36 10.92 -0.08zm-8.24 11.01l3.42 -0.03 0 -3.39 -3.42 0.03 0 3.39zm6.19 -3.43l0 3.39 1.31 -0.01c1.82,-0.01 2.82,-1.15 3.01,-3.41l-4.32 0.03zm-6.19 -2.37l3.42 -0.03 0 -2.77 -3.42 0.03 0 2.77zm6.19 -2.81l0 2.77 4.22 -0.03c-0.34,-1.7 -1.19,-2.62 -2.56,-2.75l-1.67 0.01zm0.53 -12.56l-1.75 0.01 0.03 -2.26 5.63 -0.04c1.82,0.34 2.74,2.15 2.74,5.42 0,3.83 -0.94,5.75 -2.83,5.77l-2.56 0.02 -0.03 -2.47 2.08 -0.02c0.4,-0 0.59,-1.09 0.59,-3.25 0,-1.84 -0.22,-2.91 -0.66,-3.21l-0.86 0.01c-0.26,4.92 -1.67,8.12 -4.23,9.59l0 -3.06c1.07,-1.2 1.69,-3.36 1.84,-6.5zm-5.54 2.15l2.44 -0.02c0.3,2.3 0.57,4.73 0.83,7.29l-2.44 0.02c-0.04,-0.42 -0.08,-0.84 -0.12,-1.28 -0.99,0.4 -1.89,0.61 -2.71,0.62 -1.65,-0.21 -2.47,-1.45 -2.47,-3.73l0.03 -5.71 0 -1.13c1.97,-0.02 4.27,-0.32 6.91,-0.92l0 2.53c-1.27,0.31 -2.74,0.57 -4.4,0.78l0 4.82c0,0.52 0.27,0.77 0.83,0.77 0.31,-0 0.83,-0.16 1.54,-0.48 -0.12,-1.17 -0.26,-2.35 -0.45,-3.54zm17.82 -3.82l9.49 -1.51c0.37,-0.67 0.7,-1.37 1,-2.09l3.03 -0.48c-0.22,0.7 -0.46,1.39 -0.74,2.05l11.02 -1.75 0 2.77 -5.99 0.95c1.9,1.64 4.12,2.56 6.67,2.75l0 3.25c-1.25,-0.16 -2.41,-0.4 -3.47,-0.73l0 1.52 -18.02 2.86 0 -1.28c-1,0.49 -2.06,0.97 -3.18,1.43l0 -3.15c3.08,-1.24 5.56,-2.9 7.44,-4.96l-7.26 1.15 0 -2.77zm6.08 6.36l12.76 -2.02c-1.84,-0.94 -3.34,-2.22 -4.49,-3.84l-3.18 0.5c-1.29,2.05 -2.99,3.84 -5.09,5.36zm-6.61 6.59l24.83 -3.94 0 2.82 -10.64 1.69c0.1,0.9 0.19,1.92 0.27,3.06 0,1.49 -0.11,2.5 -0.33,3.03 -0.29,1.61 -1.52,2.7 -3.67,3.26 -1.69,0.27 -3.08,0.43 -4.17,0.48l0 -2.77c1.11,-0.02 2.19,-0.11 3.23,-0.27 1.33,-0.21 2.03,-1.04 2.09,-2.47 -0.04,-1.39 -0.13,-2.67 -0.26,-3.86l-11.35 1.8 0 -2.82zm3.76 3.27l2.61 -0.41c-0.1,3.61 -1.89,6.31 -5.38,8.12l0 -2.85c1.84,-1.21 2.76,-2.82 2.76,-4.85zm14.75 -2.25l2.7 -0.43c0.12,1.47 1.03,2.55 2.73,3.26l0 3.3c-2.98,-0.91 -4.79,-2.96 -5.44,-6.13z"/>
 </g>
</svg>
