<?xml version="1.0" encoding="UTF-8"?>
<!DOCTYPE svg PUBLIC "-//W3C//DTD SVG 1.1//EN" "http://www.w3.org/Graphics/SVG/1.1/DTD/svg11.dtd">
<!-- Creator: CorelDRAW 2021.5 -->
<svg xmlns="http://www.w3.org/2000/svg" xml:space="preserve" width="100%" height="100%" version="1.1" style="shape-rendering:geometricPrecision; text-rendering:geometricPrecision; image-rendering:optimizeQuality; fill-rule:evenodd; clip-rule:evenodd"
viewBox="0 0 157.01 157.01"
 xmlns:xlink="http://www.w3.org/1999/xlink"
 xmlns:xodm="http://www.corel.com/coreldraw/odm/2003">
 <defs>
  <style type="text/css">
   <![CDATA[
    .fil0 {fill:none;fill-rule:nonzero}
    .fil1 {fill:#8C2898;fill-rule:nonzero}
    .fil2 {fill:white;fill-rule:nonzero}
   ]]>
  </style>
   <clipPath id="id0" style="clip-rule:nonzero">
    <path d="M2.86 83.11c50.45,21.59 100.87,22.91 151.32,0.12 0.12,-1.59 0.15,-3.13 0.15,-4.72 0,-20.93 -8.47,-39.89 -22.21,-53.59 -13.74,-13.74 -32.66,-22.21 -53.59,-22.21 -20.93,0 -39.89,8.47 -53.59,22.21 -13.74,13.74 -22.21,32.66 -22.21,53.59 0,1.55 0.04,3.1 0.15,4.64l-0.04 -0.04z"/>
   </clipPath>
    <clipPath id="id1">
     <path d="M19.88 89.62c37.93,12.77 75.83,13.83 113.76,1.56l0 -64.71c-0.5,-0.52 -1,-1.04 -1.51,-1.55 -13.74,-13.74 -32.66,-22.21 -53.59,-22.21 -20.93,0 -39.89,8.47 -53.59,22.21 -1.78,1.78 -3.47,3.65 -5.07,5.6l0 59.1z"/>
    </clipPath>
    <clipPath id="id2">
     <path d="M2.86 83.11c50.45,21.59 100.87,22.91 151.32,0.12 0.12,-1.59 0.15,-3.13 0.15,-4.72 0,-20.93 -8.47,-39.89 -22.21,-53.59 -13.74,-13.74 -32.66,-22.21 -53.59,-22.21 -20.93,0 -39.89,8.47 -53.59,22.21 -13.74,13.74 -22.21,32.66 -22.21,53.59 0,1.55 0.04,3.1 0.15,4.64l-0.04 -0.04z"/>
    </clipPath>
 </defs>
 <g id="Layer_x0020_1">
  <metadata id="CorelCorpID_0Corel-Layer"/>
  <g>
  </g>
  <g style="clip-path:url(#id0)">
   <g id="_1787652759648">
   </g>
   <g style="clip-path:url(#id1)">
   </g>
   <g style="clip-path:url(#id2)">
   </g>
  </g>
  <path class="fil0" d="M2.86 83.11c50.45,21.59 100.87,22.91 151.32,0.12 0.12,-1.59 0.15,-3.13 0.15,-4.72 0,-20.93 -8.47,-39.89 -22.21,-53.59 -13.74,-13.74 -32.66,-22.21 -53.59,-22.21 -20.93,0 -39.89,8.47 -53.59,22.21 -13.74,13.74 -22.21,32.66 -22.21,53.59 0,1.55 0.04,3.1 0.15,4.64l-0.04 -0.04z"/>
  <path class="fil1" d="M46.62 31.42c-1.86,1.24 -4.37,0.77 -5.61,-1.08 -1.24,-1.86 -0.77,-4.37 1.08,-5.61 0.85,-0.58 1.78,-1.16 2.71,-1.74 1.12,-0.7 2.05,-1.24 2.75,-1.63 1.97,-1.08 4.45,-0.35 5.49,1.63 1.08,1.97 0.35,4.45 -1.63,5.49 -1.04,0.58 -1.86,1.04 -2.44,1.39 -0.77,0.46 -1.59,0.97 -2.36,1.51l0 0.04zm31.88 -31.42c21.67,0 41.32,8.78 55.52,22.98 14.2,14.2 22.98,33.86 22.98,55.52 0,21.67 -8.78,41.32 -22.98,55.52 -14.2,14.2 -33.86,22.98 -55.52,22.98 -21.67,0 -41.32,-8.78 -55.52,-22.98 -14.2,-14.2 -22.98,-33.86 -22.98,-55.52 0,-21.67 8.78,-41.32 22.98,-55.52 14.2,-14.2 33.86,-22.98 55.52,-22.98zm-75.64 83.11c50.45,21.59 100.87,22.91 151.32,0.12 0.12,-1.59 0.15,-3.13 0.15,-4.72 0,-20.93 -8.47,-39.89 -22.21,-53.59 -13.74,-13.74 -32.66,-22.21 -53.59,-22.21 -20.93,0 -39.89,8.47 -53.59,22.21 -13.74,13.74 -22.21,32.66 -22.21,53.59 0,1.55 0.04,3.1 0.15,4.64l-0.04 -0.04zm20 -16.21c-0.46,2.21 -2.59,3.6 -4.8,3.13 -2.21,-0.46 -3.6,-2.59 -3.13,-4.8 1.32,-6.27 3.52,-12.3 6.58,-17.88 3.06,-5.57 6.93,-10.72 11.49,-15.21 1.59,-1.59 4.18,-1.55 5.73,0.04 1.59,1.59 1.55,4.14 -0.04,5.73 -4.02,3.95 -7.39,8.43 -10.06,13.31 -2.67,4.88 -4.6,10.14 -5.77,15.63l0 0.04z"/>
  <path class="fil2" d="M42.11 107.31c3.15,0.89 4.78,3.2 4.89,6.92l0 3.54c0,3.33 -1.51,4.97 -4.54,4.89 -1.55,-0.34 -2.73,-0.62 -3.54,-0.84l-0.03 -2.52c0.83,0.28 1.83,0.54 3.01,0.8 1.55,-0.04 2.39,-0.8 2.53,-2.28l0 -3.82c-0.07,-2.48 -0.94,-3.91 -2.61,-4.28l-4.07 -0.9 0 14.87 -2.61 -0.58 0 -14.87 -6.08 -1.34 0 12.74 -2.53 -0.56 0 -15.22 8.61 1.9 0 -2.14 -9.98 -2.2 0 -2.68 9.98 2.2 0 -2.25 2.61 0.58 0 2.25 9.96 2.2 0 2.68 -9.96 -2.2 0 2.14 4.36 0.96zm10.71 -2.12l9.53 0.85 0 -2.63 2.78 0.25 0 2.63 10.05 0.9 0 2.68 -10.05 -0.9 0 6.73c0.48,0.76 1.01,1.5 1.56,2.19l0 -2.16c1.89,-0.62 2.84,-1.73 2.86,-3.31l0 -2.14 2.45 0.22 0 2.03c0,0.16 0,0.31 0,0.46 0.48,1.38 1.35,2.45 2.58,3.21l0 2.81c-1.42,-0.88 -2.59,-2.01 -3.53,-3.37 -0.81,1.17 -2.16,2.05 -4.04,2.64 2.12,2.5 4.89,4.53 8.3,6.1l0 3.06c-4.13,-1.92 -7.53,-4.52 -10.18,-7.81l0 8.33 -2.78 -0.25 0 -7.98c-2.19,2.49 -5.55,4.35 -10.07,5.59l0 -2.87c3.82,-1.19 6.59,-2.78 8.3,-4.78 -1.38,-0.86 -2.51,-1.95 -3.37,-3.25 -0.88,1.22 -2.34,2.12 -4.39,2.69l0 -2.63c1.9,-0.62 2.86,-1.72 2.88,-3.31l0 -2.14 2.45 0.22 0 2.03c0,0.18 -0.01,0.35 -0.03,0.51 0.49,1.36 1.36,2.41 2.62,3.16l0 2.52c0.74,-0.88 1.27,-1.83 1.61,-2.89l0 -5.87 -9.53 -0.85 0 -2.68zm38.08 8.4c-0.16,0.45 -0.33,0.88 -0.49,1.29l-2.83 0.28 0 0.76 -2.34 0.23 0 6.63c0.9,-0.18 1.81,-0.4 2.72,-0.67l0 2.62c-2.15,0.56 -4.83,1.06 -8.02,1.52l0 -2.57c0.9,-0.11 1.81,-0.24 2.75,-0.4l0 -6.87 -2.75 0.27 0 -2.54 2.75 -0.27 0 -6.28 -2.61 0.26 0 -2.41 7.7 -0.76 0 2.41 -2.53 0.25 0 6.28 2.34 -0.23 0 1.62c1.27,-3.28 2.41,-7.02 3.42,-11.21l5.76 -0.57c1.69,-0.02 2.83,0.54 3.42,1.69 1.28,2.52 2.41,5.42 3.39,8.67l-3.07 0.3c-0.11,-0.4 -0.2,-0.81 -0.29,-1.21l-9.31 0.91zm8.53 -3.35c-0.43,-1.29 -0.92,-2.53 -1.48,-3.7 -0.23,-0.57 -0.72,-0.86 -1.46,-0.86l-3.5 0.34c-0.4,1.75 -0.83,3.41 -1.29,4.97l7.72 -0.76zm-10.58 5.88l10.23 -1c0.75,-0 1.36,0.18 1.83,0.55 0.56,0.32 0.93,0.78 1.11,1.38 0.18,0.85 0.27,2.35 0.27,4.49 0,1.35 -0.29,2.42 -0.89,3.22 -0.59,0.76 -1.47,1.24 -2.61,1.42 -1.69,0.17 -2.96,0.25 -3.82,0.24l0 -2.49c0.96,-0 2.07,-0.07 3.34,-0.19 0.88,-0.09 1.35,-0.75 1.4,-2 0,-1.43 -0.02,-2.49 -0.06,-3.18 -0.12,-0.66 -0.59,-0.98 -1.4,-0.98l-4.14 0.41 0 9.44 -2.56 0.25 0 -9.44 -2.69 0.26 0 -2.38zm19.13 -13l8.56 -1.78c0.33,-0.63 0.63,-1.28 0.9,-1.94l2.73 -0.57c-0.19,0.65 -0.42,1.28 -0.66,1.89l9.93 -2.06 0 2.52 -5.4 1.12c1.71,1.41 3.72,2.15 6.01,2.21l0 2.95c-1.13,-0.09 -2.17,-0.26 -3.12,-0.52l0 1.38 -16.23 3.37 0 -1.16c-0.9,0.49 -1.85,0.97 -2.86,1.43l0 -2.87c2.77,-1.26 5.01,-2.87 6.7,-4.83l-6.54 1.36 0 -2.52zm5.48 5.52l11.49 -2.38c-1.66,-0.77 -3.01,-1.87 -4.05,-3.3l-2.86 0.59c-1.17,1.92 -2.69,3.61 -4.58,5.09zm-5.96 6.27l22.38 -4.64 0 2.57 -9.59 1.99c0.09,0.81 0.17,1.73 0.24,2.77 0,1.35 -0.1,2.27 -0.29,2.77 -0.26,1.48 -1.37,2.52 -3.31,3.12 -1.52,0.32 -2.78,0.52 -3.76,0.62l0 -2.52c1,-0.06 1.97,-0.19 2.91,-0.39 1.2,-0.25 1.83,-1.03 1.88,-2.34 -0.04,-1.26 -0.11,-2.42 -0.24,-3.5l-10.22 2.12 0 -2.57zm3.39 2.81l2.35 -0.49c-0.09,3.28 -1.7,5.82 -4.84,7.61l0 -2.59c1.66,-1.17 2.49,-2.68 2.49,-4.52zm13.29 -2.67l2.44 -0.51c0.11,1.33 0.93,2.28 2.46,2.84l0 3c-2.68,-0.7 -4.32,-2.48 -4.9,-5.34z"/>
 </g>
</svg>
