<?xml version="1.0" encoding="UTF-8"?>
<!DOCTYPE svg PUBLIC "-//W3C//DTD SVG 1.1//EN" "http://www.w3.org/Graphics/SVG/1.1/DTD/svg11.dtd">
<!-- Creator: CorelDRAW 2021.5 -->
<svg xmlns="http://www.w3.org/2000/svg" xml:space="preserve" width="100%" height="100%" version="1.1" style="shape-rendering:geometricPrecision; text-rendering:geometricPrecision; image-rendering:optimizeQuality; fill-rule:evenodd; clip-rule:evenodd"
viewBox="0 0 247.13 247.13"
 xmlns:xlink="http://www.w3.org/1999/xlink"
 xmlns:xodm="http://www.corel.com/coreldraw/odm/2003">
 <defs>
  <style type="text/css">
   <![CDATA[
    .fil0 {fill:none;fill-rule:nonzero}
    .fil1 {fill:#8C2898;fill-rule:nonzero}
    .fil2 {fill:white;fill-rule:nonzero}
   ]]>
  </style>
   <clipPath id="id0" style="clip-rule:nonzero">
    <path d="M4.51 130.81c79.41,33.98 158.77,36.05 238.18,0.18 0.18,-2.5 0.24,-4.93 0.24,-7.43 0,-32.95 -13.34,-62.79 -34.96,-84.35 -21.62,-21.62 -51.4,-34.96 -84.35,-34.96 -32.95,0 -62.79,13.34 -84.35,34.96 -21.62,21.62 -34.96,51.4 -34.96,84.35 0,2.44 0.06,4.87 0.24,7.31l-0.06 -0.06z"/>
   </clipPath>
    <clipPath id="id1">
     <path d="M31.3 141.05c59.69,20.09 119.36,21.77 179.05,2.46l0 -101.85c-0.78,-0.83 -1.57,-1.64 -2.38,-2.44 -21.62,-21.62 -51.4,-34.96 -84.35,-34.96 -32.95,0 -62.79,13.34 -84.35,34.96 -2.8,2.8 -5.47,5.75 -7.98,8.82l0 93.02z"/>
    </clipPath>
    <clipPath id="id2">
     <path d="M4.51 130.81c79.41,33.98 158.77,36.05 238.18,0.18 0.18,-2.5 0.24,-4.93 0.24,-7.43 0,-32.95 -13.34,-62.79 -34.96,-84.35 -21.62,-21.62 -51.4,-34.96 -84.35,-34.96 -32.95,0 -62.79,13.34 -84.35,34.96 -21.62,21.62 -34.96,51.4 -34.96,84.35 0,2.44 0.06,4.87 0.24,7.31l-0.06 -0.06z"/>
    </clipPath>
 </defs>
 <g id="Layer_x0020_1">
  <metadata id="CorelCorpID_0Corel-Layer"/>
  <g>
  </g>
  <g style="clip-path:url(#id0)">
   <g id="_1823092638272">
   </g>
   <g style="clip-path:url(#id1)">
   </g>
   <g style="clip-path:url(#id2)">
   </g>
  </g>
  <path class="fil0" d="M4.51 130.81c79.41,33.98 158.77,36.05 238.18,0.18 0.18,-2.5 0.24,-4.93 0.24,-7.43 0,-32.95 -13.34,-62.79 -34.96,-84.35 -21.62,-21.62 -51.4,-34.96 -84.35,-34.96 -32.95,0 -62.79,13.34 -84.35,34.96 -21.62,21.62 -34.96,51.4 -34.96,84.35 0,2.44 0.06,4.87 0.24,7.31l-0.06 -0.06z"/>
  <path class="fil1" d="M73.38 49.45c-2.92,1.95 -6.88,1.22 -8.83,-1.71 -1.95,-2.92 -1.22,-6.88 1.71,-8.83 1.34,-0.91 2.8,-1.83 4.26,-2.74 1.77,-1.1 3.23,-1.95 4.32,-2.56 3.11,-1.71 7,-0.55 8.65,2.56 1.71,3.11 0.55,7 -2.56,8.65 -1.64,0.91 -2.92,1.64 -3.84,2.19 -1.22,0.73 -2.5,1.52 -3.72,2.37l0 0.06zm50.18 -49.45c34.1,0 65.04,13.82 87.39,36.17 22.35,22.35 36.17,53.29 36.17,87.39 0,34.1 -13.82,65.04 -36.17,87.39 -22.35,22.35 -53.29,36.17 -87.39,36.17 -34.1,0 -65.04,-13.82 -87.39,-36.17 -22.35,-22.35 -36.17,-53.29 -36.17,-87.39 0,-34.1 13.82,-65.04 36.17,-87.39 22.35,-22.35 53.29,-36.17 87.39,-36.17zm-119.06 130.81c79.41,33.98 158.77,36.05 238.18,0.18 0.18,-2.5 0.24,-4.93 0.24,-7.43 0,-32.95 -13.34,-62.79 -34.96,-84.35 -21.62,-21.62 -51.4,-34.96 -84.35,-34.96 -32.95,0 -62.79,13.34 -84.35,34.96 -21.62,21.62 -34.96,51.4 -34.96,84.35 0,2.44 0.06,4.87 0.24,7.31l-0.06 -0.06zm31.49 -25.52c-0.73,3.47 -4.08,5.66 -7.55,4.93 -3.47,-0.73 -5.66,-4.08 -4.93,-7.55 2.07,-9.87 5.54,-19.37 10.35,-28.14 4.81,-8.77 10.9,-16.87 18.09,-23.93 2.5,-2.5 6.58,-2.44 9.01,0.06 2.5,2.5 2.44,6.52 -0.06,9.01 -6.33,6.21 -11.63,13.28 -15.83,20.95 -4.2,7.67 -7.25,15.96 -9.07,24.6l0 0.06z"/>
  <path class="fil2" d="M40.1 153.71c3.24,1.51 6.19,3.17 8.85,4.98l0 4.63c-2.94,-2.21 -5.89,-4.04 -8.85,-5.48l0 -4.13zm0 9.92c3.21,1.44 6.15,3.07 8.81,4.88l0 4.34c-2.97,-2.1 -5.9,-3.86 -8.81,-5.26l0 -3.96zm4.78 10.59l4.03 0.89c-1.44,6.13 -4.36,10.69 -8.77,13.69l0 -6.56c2.16,-1.65 3.74,-4.33 4.74,-8.02zm23.9 -9.79c3.85,1.19 5.94,4.02 6.28,8.5 0,4.31 -0.13,7.32 -0.38,9.03 -0.28,3.08 -1.62,4.52 -4.03,4.3 -1.53,-0.34 -2.82,-0.73 -3.87,-1.19l0 -3.5c0.5,0.31 1.31,0.59 2.45,0.84 1.03,0.23 1.61,-0.51 1.75,-2.21 0.11,-3.01 0.17,-5.75 0.17,-8.22 -0.19,-1.92 -1.07,-3.2 -2.62,-3.85 -0.81,-0.18 -1.93,-0.26 -3.37,-0.24l0 19.88 -3.91 -0.86 0 -18.69c-1.44,0.11 -3.06,0.31 -4.86,0.59 0,0.17 0,0.33 0,0.47 0,7.04 0.06,11.83 0.16,14.38 0.17,3.61 1.31,5.65 3.41,6.12 6.79,1.5 12.14,2.25 16.04,2.26l0 4.05c-3.01,0.07 -8.27,-0.72 -15.75,-2.37 -4.46,-0.98 -6.99,-4.09 -7.57,-9.33 -0.13,-4.91 -0.22,-9.91 -0.25,-15 -0.89,0.15 -1.79,0.3 -2.7,0.46l0 -4.13c0.94,-0.19 1.86,-0.35 2.75,-0.5 0.06,-2.8 0.14,-5.66 0.25,-8.59l3.91 0.86c-0.11,2.28 -0.18,4.65 -0.21,7.11 1.72,-0.22 3.32,-0.36 4.82,-0.43l0 -7.24 3.91 0.86 0 6.26c1.33,0.06 2.54,0.19 3.62,0.37zm19.41 18.48l0 11.49 10.09 0.9 0 -11.49 -10.09 -0.9zm14.42 12.79l4.83 0.43c2.34,-0.07 4,-1.31 4.96,-3.68 0.93,-1.91 1.48,-4.31 1.65,-7.22l-11.45 -1.03 0 11.49zm11.4 -14.52c-0.22,-3.11 -0.86,-5.64 -1.9,-7.57 -1.22,-2.52 -3.04,-4.01 -5.47,-4.45l-4.03 -0.36 0 11.36 11.4 1.02zm-15.73 -12.77l-10.09 -0.9 0 11.36 10.09 0.9 0 -11.36zm8.95 -3.24c3.44,0.74 6.17,2.73 8.18,5.97 1.86,3.01 2.87,6.93 3.01,11.76 0,5.99 -0.92,10.19 -2.76,12.61 -1.84,3.04 -4.54,4.66 -8.1,4.85l-23.62 -2.12 0 -35.16 23.28 2.09zm19.17 14.02l3.77 -0.37 0 -8.86 -3.85 0.38 0 -3.79 11.6 -1.14 0 3.79 -3.77 0.37 0 8.86 3.85 -0.38 0 4 -3.85 0.38 0 9.07c1.21,-0.32 2.44,-0.7 3.69,-1.13l0 4.13c-3.08,0.98 -6.92,1.87 -11.52,2.66l0 -4.13c1.27,-0.15 2.55,-0.34 3.85,-0.59l0 -9.62 -3.77 0.37 0 -4zm12.83 -13.9l4.49 -0.44 0 -2.22 3.94 -0.39 0 2.22 6.61 -0.65 0 -2.22 3.98 -0.39 0 2.22 4.36 -0.43 0 3.79 -4.36 0.43 0 2.34 -3.98 0.39 0 -2.34 -6.61 0.65 0 2.34 -3.94 0.39 0 -2.34 -4.49 0.44 0 -3.79zm9.75 7.56l0 -2.69 3.94 -0.39 0 2.69c5.19,0.06 7.82,3.48 7.87,10.25 0,1 -0.01,1.89 -0.04,2.68l1.94 -0.19 0 3.92 -8 0.79c1.66,2.34 4.37,4 8.13,4.99l0 4.56c-5.48,-1.42 -9.35,-4.12 -11.61,-8.09 -0.9,1.62 -2.12,3.16 -3.64,4.62 -3.19,2.8 -6.23,4.69 -9.1,5.66l0 -4.3c4.09,-1.88 7,-4.11 8.73,-6.69l-8.1 0.79 0 -3.92 2.25 -0.22 0 -13.7 7.63 -0.75zm-3.6 14.05l3.38 -0.33c0.12,-0.4 0.17,-0.84 0.17,-1.29l0.04 -8.74 -3.6 0.35 0 10zm7.54 -10.7l0 8.77c0,0.17 -0.01,0.34 -0.04,0.52 0.06,0.25 0.11,0.47 0.17,0.66l3.82 -0.37c0.05,-0.66 0.08,-1.29 0.08,-1.92 0,-4.91 -1.34,-7.46 -4.02,-7.65zm39.72 -21.5l4.16 -0.9c0.28,3.68 0.42,9.23 0.42,16.64 0,3.06 -0.43,5.48 -1.29,7.26 -0.94,1.82 -2.22,2.9 -3.83,3.24l-4.08 0.88 0 -4 3.04 -0.66c1.38,-0.3 2.08,-2.04 2.08,-5.22 0,-7.55 -0.17,-13.3 -0.5,-17.26zm6.2 19.27l4.29 -0.88c-0.97,6.02 -2.9,10.88 -5.79,14.57 -2.24,3.46 -6.03,5.77 -11.36,6.92l0 -4.21c4.13,-0.89 6.99,-2.66 8.57,-5.3 2.17,-2.68 3.59,-6.38 4.28,-11.09zm-22.14 -15.83l4.54 -0.98 -7.07 11.83 2.33 -0.5 3.96 -6.18 4.66 -1.01 -9.66 14.81 4.08 -0.88c0.66,-0.14 0.99,-0.7 0.99,-1.66l0 -3.66 3.49 -0.75 0 5.11c0,2.3 -1.23,3.79 -3.7,4.46l-1.37 0.3 0 16.73 -3.71 0.8 0 -16.73 -2.29 0.49c-1.78,0.38 -2.66,-0.16 -2.66,-1.63 0,-0.43 0.36,-1.17 1.08,-2.24l2.37 -3.66 -2.58 0.56c-1.19,0.03 -1.79,-0.65 -1.79,-2.04 0,-0.52 0.21,-1.08 0.62,-1.71l6.7 -11.45zm-5.87 23.91l3.2 -0.69c-0.09,7.31 -1.54,12.55 -4.37,15.71l0 -5.79c0.77,-2.06 1.16,-5.14 1.16,-9.23zm9.36 -2.06l3.21 -0.69c0.05,3.14 0.44,5.65 1.17,7.54l0 6.98c-2.39,-2.41 -3.84,-7.02 -4.37,-13.83zm7.33 -21.97l3.66 -0.79c-0.11,9.64 -2.05,16.54 -5.82,20.71l0 -5.57c1.44,-3.21 2.17,-7.99 2.17,-14.34zm11.06 -2.35l3.71 -0.8c0.16,4.79 1.19,8.98 3.08,12.58l0 6.12c-3.66,-2.81 -5.92,-8.78 -6.78,-17.91z"/>
 </g>
</svg>
