<?xml version="1.0" encoding="UTF-8"?>
<!DOCTYPE svg PUBLIC "-//W3C//DTD SVG 1.1//EN" "http://www.w3.org/Graphics/SVG/1.1/DTD/svg11.dtd">
<!-- Creator: CorelDRAW 2021.5 -->
<svg xmlns="http://www.w3.org/2000/svg" xml:space="preserve" width="100%" height="100%" version="1.1" style="shape-rendering:geometricPrecision; text-rendering:geometricPrecision; image-rendering:optimizeQuality; fill-rule:evenodd; clip-rule:evenodd"
viewBox="0 0 114.64 114.64"
 xmlns:xlink="http://www.w3.org/1999/xlink"
 xmlns:xodm="http://www.corel.com/coreldraw/odm/2003">
 <defs>
  <style type="text/css">
   <![CDATA[
    .fil0 {fill:none;fill-rule:nonzero}
    .fil1 {fill:#8C2898;fill-rule:nonzero}
    .fil2 {fill:white;fill-rule:nonzero}
   ]]>
  </style>
   <clipPath id="id0" style="clip-rule:nonzero">
    <path d="M2.09 60.68c36.84,15.76 73.65,16.72 110.49,0.08 0.08,-1.16 0.11,-2.29 0.11,-3.45 0,-15.28 -6.19,-29.13 -16.22,-39.13 -10.03,-10.03 -23.84,-16.22 -39.13,-16.22 -15.28,0 -29.13,6.19 -39.13,16.22 -10.03,10.03 -16.22,23.84 -16.22,39.13 0,1.13 0.03,2.26 0.11,3.39l-0.03 -0.03z"/>
   </clipPath>
    <clipPath id="id1">
     <path d="M14.52 65.44c27.69,9.32 55.37,10.1 83.06,1.14l0 -47.25c-0.36,-0.38 -0.73,-0.76 -1.1,-1.13 -10.03,-10.03 -23.84,-16.22 -39.13,-16.22 -15.28,0 -29.13,6.19 -39.13,16.22 -1.3,1.3 -2.54,2.67 -3.7,4.09l0 43.15z"/>
    </clipPath>
    <clipPath id="id2">
     <path d="M2.09 60.68c36.84,15.76 73.65,16.72 110.49,0.08 0.08,-1.16 0.11,-2.29 0.11,-3.45 0,-15.28 -6.19,-29.13 -16.22,-39.13 -10.03,-10.03 -23.84,-16.22 -39.13,-16.22 -15.28,0 -29.13,6.19 -39.13,16.22 -10.03,10.03 -16.22,23.84 -16.22,39.13 0,1.13 0.03,2.26 0.11,3.39l-0.03 -0.03z"/>
    </clipPath>
 </defs>
 <g id="Layer_x0020_1">
  <metadata id="CorelCorpID_0Corel-Layer"/>
  <g>
  </g>
  <g style="clip-path:url(#id0)">
   <g id="_1788431192528">
   </g>
   <g style="clip-path:url(#id1)">
   </g>
   <g style="clip-path:url(#id2)">
   </g>
  </g>
  <path class="fil0" d="M2.09 60.68c36.84,15.76 73.65,16.72 110.49,0.08 0.08,-1.16 0.11,-2.29 0.11,-3.45 0,-15.28 -6.19,-29.13 -16.22,-39.13 -10.03,-10.03 -23.84,-16.22 -39.13,-16.22 -15.28,0 -29.13,6.19 -39.13,16.22 -10.03,10.03 -16.22,23.84 -16.22,39.13 0,1.13 0.03,2.26 0.11,3.39l-0.03 -0.03z"/>
  <path class="fil1" d="M34.04 22.94c-1.36,0.9 -3.19,0.56 -4.1,-0.79 -0.9,-1.36 -0.56,-3.19 0.79,-4.1 0.62,-0.42 1.3,-0.85 1.98,-1.27 0.82,-0.51 1.5,-0.9 2.01,-1.19 1.44,-0.79 3.25,-0.25 4.01,1.19 0.79,1.44 0.25,3.25 -1.19,4.01 -0.76,0.42 -1.36,0.76 -1.78,1.02 -0.56,0.34 -1.16,0.71 -1.72,1.1l0 0.03zm23.28 -22.94c15.82,0 30.17,6.41 40.54,16.78 10.37,10.37 16.78,24.72 16.78,40.54 0,15.82 -6.41,30.17 -16.78,40.54 -10.37,10.37 -24.72,16.78 -40.54,16.78 -15.82,0 -30.17,-6.41 -40.54,-16.78 -10.37,-10.37 -16.78,-24.72 -16.78,-40.54 0,-15.82 6.41,-30.17 16.78,-40.54 10.37,-10.37 24.72,-16.78 40.54,-16.78zm-55.23 60.68c36.84,15.76 73.65,16.72 110.49,0.08 0.08,-1.16 0.11,-2.29 0.11,-3.45 0,-15.28 -6.19,-29.13 -16.22,-39.13 -10.03,-10.03 -23.84,-16.22 -39.13,-16.22 -15.28,0 -29.13,6.19 -39.13,16.22 -10.03,10.03 -16.22,23.84 -16.22,39.13 0,1.13 0.03,2.26 0.11,3.39l-0.03 -0.03zm14.61 -11.84c-0.34,1.61 -1.89,2.63 -3.5,2.29 -1.61,-0.34 -2.63,-1.89 -2.29,-3.5 0.96,-4.58 2.57,-8.98 4.8,-13.05 2.23,-4.07 5.06,-7.83 8.39,-11.1 1.16,-1.16 3.05,-1.13 4.18,0.03 1.16,1.16 1.13,3.02 -0.03,4.18 -2.94,2.88 -5.4,6.16 -7.35,9.72 -1.95,3.56 -3.36,7.4 -4.21,11.41l0 0.03z"/>
  <path class="fil2" d="M9.32 83.11l6.91 1.81 0 -4.6 -6.21 -1.63 0 -1.9 6.21 1.63 0 -4.36 -3.74 -0.98c-0.69,1.16 -1.79,1.88 -3.31,2.14l0 -2.27c1.52,-0.54 2.27,-1.85 2.27,-3.94l1.89 0.5c-0.01,0.67 -0.07,1.27 -0.19,1.82l3.07 0.81 0 -2.37 1.93 0.51 0 2.37 6.53 1.71 0 1.93 -6.53 -1.71 0 4.36 6.38 1.67 0 1.9 -6.38 -1.67 0 4.6 6.8 1.78 0 1.95 -15.65 -4.1 0 -1.95zm21.69 0.11l0 5.33 4.64 0.73 0 -5.33 -4.64 -0.73zm6.63 6.38l2.22 0.35c1.08,0.04 1.84,-0.48 2.28,-1.55 0.43,-0.86 0.68,-1.95 0.76,-3.3l-5.27 -0.83 0 5.33zm5.25 -6.38c-0.1,-1.45 -0.4,-2.64 -0.88,-3.57 -0.56,-1.21 -1.4,-1.95 -2.52,-2.23l-1.85 -0.29 0 5.27 5.25 0.83zm-7.24 -6.41l-4.64 -0.73 0 5.27 4.64 0.73 0 -5.27zm4.12 -1.23c1.58,0.45 2.84,1.46 3.77,3.02 0.86,1.45 1.32,3.3 1.39,5.55 0,2.78 -0.42,4.7 -1.27,5.77 -0.85,1.35 -2.09,2.02 -3.73,2l-10.87 -1.71 0 -16.31 10.71 1.69zm12.35 0.45l2.25 -0.02 -3.71 4.31 1.48 -0.01 1.9 -2.23 2.25 -0.02 -5.35 6.24 2.35 -0.02c0.32,-0 0.48,-0.22 0.48,-0.64l0 -1.72 1.68 -0.01 0 2.35c0,1.02 -0.6,1.58 -1.8,1.65l-0.67 0.01 0 7.78 -1.74 0.01 0 -7.78 -1.54 0.01c-0.84,0.01 -1.26,-0.32 -1.26,-0.98 0,-0.2 0.17,-0.49 0.51,-0.89l1.84 -2.14 -1.58 0.01c-0.58,-0.1 -0.87,-0.46 -0.87,-1.06 0,-0.21 0.1,-0.44 0.29,-0.69l3.5 -4.17zm6.02 6.9c-0.13,0.42 -0.27,0.82 -0.41,1.21l-2 0.02c0.89,-2.29 1.69,-4.93 2.39,-7.94l3.45 -0.03c1.09,0.1 1.84,0.55 2.23,1.37 0.83,1.93 1.55,4.12 2.15,6.56l-2.04 0.02c-0.08,-0.41 -0.16,-0.82 -0.26,-1.24l-5.53 0.04zm5.07 -1.78c-0.25,-0.89 -0.54,-1.76 -0.87,-2.6 -0.15,-0.42 -0.45,-0.65 -0.93,-0.68l-1.91 0.01c-0.26,1.16 -0.55,2.26 -0.85,3.3l4.56 -0.03zm-7.23 4.18l9.4 -0.07 0 1.72 -5.45 0.04 -1.44 4c0,0.27 0.12,0.4 0.36,0.41l3.43 -0.03c0.38,-0.07 0.57,-0.34 0.57,-0.83l0 -2.45 1.91 -0.01 0 3.3c-0.06,1.11 -0.73,1.72 -1.99,1.85l-5.49 0.04c-0.49,-0.03 -0.83,-0.42 -1.03,-1.14 0,-0.24 0.05,-0.53 0.14,-0.89l1.5 -4.24 -1.91 0.01 0 -1.72zm-6.87 1.18l1.44 -0.01c-0.04,3.27 -0.72,5.48 -2.04,6.63l0 -2.21c0.39,-0.93 0.59,-2.39 0.59,-4.41zm4.46 -0.05l1.4 -0.01c0.01,1.49 0.15,2.73 0.41,3.71l0 3.06c-1,-1.34 -1.6,-3.59 -1.82,-6.76zm15.56 -0.16l6.94 -1.1 0 -1.07 1.93 -0.31 0 1.07 7.2 -1.14 0 1.91 -3.86 0.61c0.96,0.96 2.22,1.61 3.76,1.97l0 2.15c-2.51,-0.58 -4.47,-1.84 -5.89,-3.79l-1.21 0.19 0 4.86 -1.93 0.31 0 -4.86 -1.19 0.19c-0.83,2.2 -2.74,4.09 -5.74,5.67l0 -2.1c1.81,-1.01 3.03,-2.09 3.67,-3.25l-3.69 0.59 0 -1.91zm10.42 -12.32l1.81 -0.29 0 7.07 -1.81 0.29 0 -7.07zm3.18 -0.76l1.93 -0.31c0.13,0.9 0.22,3.11 0.25,6.63 -0.08,1.13 -0.3,1.93 -0.68,2.38 -0.48,0.75 -1.11,1.18 -1.89,1.31 -0.92,0.15 -1.96,0.26 -3.12,0.34l0 -1.84c0.71,0 1.62,-0.08 2.71,-0.25 0.77,-0.12 1.15,-1.03 1.15,-2.71 -0.04,-3.1 -0.16,-4.95 -0.35,-5.55zm-4.48 0.93l0 1.6c-1.03,0.22 -2.16,0.44 -3.4,0.68l0 1.2 3.63 -0.58 0 1.76 -1.15 0.18c0.18,0.81 0.54,1.49 1.07,2.02l0 2.45c-1.36,-0.76 -2.27,-2.16 -2.71,-4.21l-0.84 0.13 0 4.88 -1.85 0.29 0 -4.88 -0.86 0.14c-0.26,2.36 -1.24,4.11 -2.95,5.27l0 -2.13c0.7,-0.72 1.12,-1.68 1.27,-2.87l-1.04 0.16 0 -1.76 3.57 -0.57 0 -1.15c-1.09,0.2 -2.24,0.41 -3.45,0.63l0 -1.64c2.48,-0.39 5.39,-0.94 8.7,-1.62zm10.53 -0.68l3.66 -0.92 0 -1.52 1.9 -0.48 0 1.52 5.13 -1.29 0 -1.52 1.92 -0.48 0 1.52 3.54 -0.89 0 1.8 -3.54 0.89 0 1.82 -1.92 0.48 0 -1.82 -5.13 1.29 0 1.68 -1.9 0.48 0 -1.68 -3.66 0.92 0 -1.8zm4.35 3l2.03 -0.51c-0.54,1.4 -1.16,2.67 -1.88,3.83l0 8.89 -1.88 0.47 0 -6.87c-0.8,0.93 -1.69,1.74 -2.66,2.44l0 -2.27c1.81,-1.4 3.28,-3.39 4.38,-5.98zm3.64 -0.87l1.94 -0.49c-0.07,1.37 -0.1,2.59 -0.12,3.64 2.02,-0.88 4.07,-1.91 6.17,-3.11l0 2.04c-1.71,1.01 -3.77,1.99 -6.18,2.96 0,1.07 0,2.12 0,3.16 0.09,0.85 0.64,1.14 1.66,0.89 2.34,-0.72 3.93,-1.29 4.79,-1.72l0 1.95c-1.69,0.71 -3.36,1.28 -5.04,1.7 -1.75,0.44 -2.81,-0.12 -3.2,-1.69 -0.08,-0.99 -0.12,-2.34 -0.12,-4.04 0.04,-1.75 0.07,-3.51 0.1,-5.3z"/>
 </g>
</svg>
