<?xml version="1.0" encoding="UTF-8"?>
<!DOCTYPE svg PUBLIC "-//W3C//DTD SVG 1.1//EN" "http://www.w3.org/Graphics/SVG/1.1/DTD/svg11.dtd">
<!-- Creator: CorelDRAW 2021.5 -->
<svg xmlns="http://www.w3.org/2000/svg" xml:space="preserve" width="100%" height="100%" version="1.1" style="shape-rendering:geometricPrecision; text-rendering:geometricPrecision; image-rendering:optimizeQuality; fill-rule:evenodd; clip-rule:evenodd"
viewBox="0 0 132.8 132.8"
 xmlns:xlink="http://www.w3.org/1999/xlink"
 xmlns:xodm="http://www.corel.com/coreldraw/odm/2003">
 <defs>
  <style type="text/css">
   <![CDATA[
    .fil0 {fill:none;fill-rule:nonzero}
    .fil1 {fill:#8C2898;fill-rule:nonzero}
    .fil2 {fill:white;fill-rule:nonzero}
   ]]>
  </style>
   <clipPath id="id0" style="clip-rule:nonzero">
    <path d="M2.42 70.29c42.67,18.26 85.31,19.37 127.99,0.1 0.1,-1.34 0.13,-2.65 0.13,-3.99 0,-17.7 -7.17,-33.74 -18.78,-45.32 -11.62,-11.62 -27.62,-18.78 -45.32,-18.78 -17.7,0 -33.74,7.17 -45.32,18.78 -11.62,11.62 -18.78,27.62 -18.78,45.32 0,1.31 0.03,2.62 0.13,3.93l-0.03 -0.03z"/>
   </clipPath>
    <clipPath id="id1">
     <path d="M16.82 75.8c32.08,10.8 64.14,11.7 96.21,1.32l0 -54.73c-0.42,-0.44 -0.85,-0.88 -1.28,-1.31 -11.62,-11.62 -27.62,-18.78 -45.32,-18.78 -17.7,0 -33.74,7.17 -45.32,18.78 -1.51,1.51 -2.94,3.09 -4.29,4.74l0 49.98z"/>
    </clipPath>
    <clipPath id="id2">
     <path d="M2.42 70.29c42.67,18.26 85.31,19.37 127.99,0.1 0.1,-1.34 0.13,-2.65 0.13,-3.99 0,-17.7 -7.17,-33.74 -18.78,-45.32 -11.62,-11.62 -27.62,-18.78 -45.32,-18.78 -17.7,0 -33.74,7.17 -45.32,18.78 -11.62,11.62 -18.78,27.62 -18.78,45.32 0,1.31 0.03,2.62 0.13,3.93l-0.03 -0.03z"/>
    </clipPath>
 </defs>
 <g id="Layer_x0020_1">
  <metadata id="CorelCorpID_0Corel-Layer"/>
  <g>
  </g>
  <g style="clip-path:url(#id0)">
   <g id="_1788430546416">
   </g>
   <g style="clip-path:url(#id1)">
   </g>
   <g style="clip-path:url(#id2)">
   </g>
  </g>
  <path class="fil0" d="M2.42 70.29c42.67,18.26 85.31,19.37 127.99,0.1 0.1,-1.34 0.13,-2.65 0.13,-3.99 0,-17.7 -7.17,-33.74 -18.78,-45.32 -11.62,-11.62 -27.62,-18.78 -45.32,-18.78 -17.7,0 -33.74,7.17 -45.32,18.78 -11.62,11.62 -18.78,27.62 -18.78,45.32 0,1.31 0.03,2.62 0.13,3.93l-0.03 -0.03z"/>
  <path class="fil1" d="M39.43 26.57c-1.57,1.05 -3.7,0.65 -4.75,-0.92 -1.05,-1.57 -0.65,-3.7 0.92,-4.75 0.72,-0.49 1.51,-0.98 2.29,-1.47 0.95,-0.59 1.73,-1.05 2.32,-1.37 1.67,-0.92 3.76,-0.29 4.65,1.37 0.92,1.67 0.29,3.76 -1.37,4.65 -0.88,0.49 -1.57,0.88 -2.06,1.18 -0.65,0.39 -1.34,0.82 -2,1.28l0 0.03zm26.97 -26.57c18.33,0 34.95,7.43 46.96,19.44 12.01,12.01 19.44,28.63 19.44,46.96 0,18.33 -7.43,34.95 -19.44,46.96 -12.01,12.01 -28.63,19.44 -46.96,19.44 -18.33,0 -34.95,-7.43 -46.96,-19.44 -12.01,-12.01 -19.44,-28.63 -19.44,-46.96 0,-18.33 7.43,-34.95 19.44,-46.96 12.01,-12.01 28.63,-19.44 46.96,-19.44zm-63.98 70.29c42.67,18.26 85.31,19.37 127.99,0.1 0.1,-1.34 0.13,-2.65 0.13,-3.99 0,-17.7 -7.17,-33.74 -18.78,-45.32 -11.62,-11.62 -27.62,-18.78 -45.32,-18.78 -17.7,0 -33.74,7.17 -45.32,18.78 -11.62,11.62 -18.78,27.62 -18.78,45.32 0,1.31 0.03,2.62 0.13,3.93l-0.03 -0.03zm16.92 -13.71c-0.39,1.87 -2.19,3.04 -4.06,2.65 -1.87,-0.39 -3.04,-2.19 -2.65,-4.06 1.11,-5.3 2.98,-10.41 5.56,-15.12 2.59,-4.71 5.86,-9.06 9.72,-12.86 1.34,-1.34 3.53,-1.31 4.84,0.03 1.34,1.34 1.31,3.5 -0.03,4.84 -3.4,3.34 -6.25,7.13 -8.51,11.26 -2.26,4.12 -3.89,8.57 -4.88,13.22l0 0.03z"/>
  <path class="fil2" d="M15.14 80.65l16.11 4.04 0 2.29 -7.76 -1.95 -0.86 4.66 3.93 0.99c1.15,0.44 2.03,1.12 2.63,2.03 0.62,0.98 0.93,2.09 0.93,3.32 -0.07,2.18 -0.19,3.92 -0.35,5.22l2.18 0.55 0 2.29 -17.41 -4.37 0 -2.29 4.3 1.08 1.38 -7.27 -4.24 -1.06 0 -2.15 4.61 1.16 0.88 -4.65 -6.34 -1.59 0 -2.29zm5.76 18.37l6.75 1.69c0.2,-1.52 0.33,-3.21 0.37,-5.08 0,-0.7 -0.17,-1.32 -0.51,-1.84 -0.33,-0.5 -0.81,-0.86 -1.44,-1.1l-3.81 -0.96 -1.36 7.28zm14.94 -13.19l17.25 2.5 0 2.12 -8.1 -1.17c-0.13,0.65 -0.29,1.25 -0.48,1.81l2.64 0.38c1.74,0.45 3.13,1.42 4.14,2.91 0.92,1.35 1.42,3.09 1.49,5.2 0,2.59 -0.45,4.37 -1.36,5.34 -0.95,1.3 -2.32,1.91 -4.12,1.85l-10.15 -1.47 0 -15.28 5.21 0.76c0.18,-0.61 0.34,-1.22 0.48,-1.81l-6.99 -1.01 0 -2.12zm3.48 13.18l0 4.41 7.93 1.15c1.19,0.05 2.03,-0.39 2.51,-1.33 0.44,-0.69 0.71,-1.55 0.82,-2.6l-11.26 -1.63zm11.24 -0.55c-0.14,-1.15 -0.45,-2.11 -0.94,-2.88 -0.61,-1.05 -1.53,-1.71 -2.76,-1.98l-7.53 -1.09 0 4.32 11.24 1.63zm6.42 -6.44l1.73 -0.01 0 -3.82 1.96 -0.01 0 3.82 1.58 -0.01 0 2.2 -1.58 0.01 0 8.23c0.44,-0.06 0.86,-0.14 1.26,-0.24l0 2.17c-1.32,0.3 -2.97,0.53 -4.94,0.68l0 -2.19c0.55,-0.02 1.12,-0.06 1.71,-0.11l0 -8.53 -1.73 0.01 0 -2.2zm7.88 0.06c0,0.82 -0.01,1.64 -0.02,2.45l1.31 -0.01c1.38,0.22 2.14,1.07 2.28,2.57l0 4.64c-0.01,1.5 -0.61,2.32 -1.79,2.46l-1.48 0.01 0 -1.9 0.95 -0.01c0.37,-0.02 0.55,-0.41 0.55,-1.17l0 -3.54c-0.1,-0.76 -0.5,-1.14 -1.2,-1.13l-0.66 0c-0.13,4.26 -0.36,8.25 -0.7,11.99l-1.96 0.04c0.52,-4.28 0.78,-8.78 0.78,-13.53 0.03,-1.43 0.04,-3.06 0.04,-4.87l5.62 -0.02c-0.03,-0.7 -0.04,-1.41 -0.04,-2.13l1.96 -0.01c0,0.73 0.01,1.44 0.02,2.13l1.5 -0.01c-0.16,-0.55 -0.33,-1.13 -0.53,-1.76l1.92 -0.01c0.21,0.59 0.38,1.18 0.5,1.76l1.04 -0.01 0 2.01 -4.35 0.03c0.15,2.62 0.48,4.91 0.97,6.88 0.51,-1.54 0.83,-3.25 0.97,-5.11l1.9 -0.01c-0.23,3.11 -0.88,5.78 -1.96,8.02 0.65,1.58 1.46,2.86 2.43,3.83l0 2.81c-1.46,-1.1 -2.67,-2.62 -3.61,-4.57 -1.13,1.62 -2.54,2.94 -4.25,3.94l0 -2.45c1.35,-1.02 2.46,-2.27 3.32,-3.75 -0.92,-2.63 -1.49,-5.83 -1.71,-9.59l-3.8 0.03zm13.89 -3.32l4.06 -0.6 0 -1.35 2.07 -0.31 0 1.35 5.48 -0.81 0 -1.35 2.07 -0.31 0 1.35 3.96 -0.58 0 2.01 -3.96 0.58 0 1.35 -2.07 0.31 0 -1.35 -5.48 0.81 0 1.35 -2.07 0.31 0 -1.35 -4.06 0.6 0 -2.01zm0.44 9.08l7.33 -1.08 0 -2.19 -7.8 1.15 0 -2.1 7.8 -1.15 0 -1.49 2.05 -0.3 0 1.49 7.89 -1.17 0 2.1 -7.89 1.17 0 2.19 7.56 -1.12 0 2.13 -3.66 0.54c0.63,2.41 1.95,3.97 3.96,4.68l0 2.45c-3.1,-0.85 -5.08,-3.13 -5.94,-6.83l-1.91 0.28 0 7.87 -2.05 0.3 0 -7.87 -1.9 0.28c-0.26,2.04 -0.86,3.66 -1.78,4.86 -1.12,1.54 -2.45,2.74 -4,3.59l0 -2.36c2.22,-1.55 3.49,-3.48 3.83,-5.8l-3.47 0.51 0 -2.13zm32.95 -14.84c2.71,-0.4 4.08,1.37 4.1,5.31 0,1.12 0,2.1 0,2.95l1.43 -0.34 0 2.17 -7.1 1.69c1.75,2.38 4.1,3.4 7.05,3.08l0 2.51c-4.14,0.07 -7.07,-1.39 -8.79,-4.4 -0.61,1.34 -1.49,2.63 -2.66,3.88 -2.14,2.22 -4.19,3.8 -6.15,4.74l0 -2.35c3.41,-2.02 5.69,-4.21 6.85,-6.58l-6.85 1.63 0 -2.17 1.85 -0.44 0 -9.24 5.88 -1.4 0.02 -2 2 -0.48 0 1.99 2.35 -0.56zm-8.29 11.22l3.79 -0.9c0.06,-0.35 0.09,-0.69 0.12,-1.01l0 -6.13 -3.92 0.93 0 7.11zm5.94 -8.53l0 6.2c0,0.3 -0.02,0.61 -0.06,0.93l4.54 -1.08c0.03,-0.85 0.04,-1.69 0.04,-2.55 0,-2.88 -0.72,-4.24 -2.17,-4.06l-2.35 0.56z"/>
 </g>
</svg>
