<?xml version="1.0" encoding="UTF-8"?>
<!DOCTYPE svg PUBLIC "-//W3C//DTD SVG 1.1//EN" "http://www.w3.org/Graphics/SVG/1.1/DTD/svg11.dtd">
<!-- Creator: CorelDRAW 2021.5 -->
<svg xmlns="http://www.w3.org/2000/svg" xml:space="preserve" width="100%" height="100%" version="1.1" style="shape-rendering:geometricPrecision; text-rendering:geometricPrecision; image-rendering:optimizeQuality; fill-rule:evenodd; clip-rule:evenodd"
viewBox="0 0 192.02 192.02"
 xmlns:xlink="http://www.w3.org/1999/xlink"
 xmlns:xodm="http://www.corel.com/coreldraw/odm/2003">
 <defs>
  <style type="text/css">
   <![CDATA[
    .fil0 {fill:none;fill-rule:nonzero}
    .fil1 {fill:#8C2898;fill-rule:nonzero}
    .fil2 {fill:white;fill-rule:nonzero}
   ]]>
  </style>
   <clipPath id="id0" style="clip-rule:nonzero">
    <path d="M3.5 101.64c61.7,26.4 123.36,28.01 185.07,0.14 0.14,-1.94 0.19,-3.83 0.19,-5.77 0,-25.6 -10.36,-48.79 -27.16,-65.54 -16.8,-16.8 -39.94,-27.16 -65.54,-27.16 -25.6,0 -48.79,10.36 -65.54,27.16 -16.8,16.8 -27.16,39.94 -27.16,65.54 0,1.89 0.05,3.79 0.19,5.68l-0.05 -0.05z"/>
   </clipPath>
    <clipPath id="id1">
     <path d="M24.32 109.6c46.38,15.61 92.74,16.91 139.13,1.91l0 -79.14c-0.61,-0.64 -1.22,-1.27 -1.85,-1.9 -16.8,-16.8 -39.94,-27.16 -65.54,-27.16 -25.6,0 -48.79,10.36 -65.54,27.16 -2.18,2.18 -4.25,4.47 -6.2,6.85l0 72.28z"/>
    </clipPath>
    <clipPath id="id2">
     <path d="M3.5 101.64c61.7,26.4 123.36,28.01 185.07,0.14 0.14,-1.94 0.19,-3.83 0.19,-5.77 0,-25.6 -10.36,-48.79 -27.16,-65.54 -16.8,-16.8 -39.94,-27.16 -65.54,-27.16 -25.6,0 -48.79,10.36 -65.54,27.16 -16.8,16.8 -27.16,39.94 -27.16,65.54 0,1.89 0.05,3.79 0.19,5.68l-0.05 -0.05z"/>
    </clipPath>
 </defs>
 <g id="Layer_x0020_1">
  <metadata id="CorelCorpID_0Corel-Layer"/>
  <g>
  </g>
  <g style="clip-path:url(#id0)">
   <g id="_1823133379568">
   </g>
   <g style="clip-path:url(#id1)">
   </g>
   <g style="clip-path:url(#id2)">
   </g>
  </g>
  <path class="fil0" d="M3.5 101.64c61.7,26.4 123.36,28.01 185.07,0.14 0.14,-1.94 0.19,-3.83 0.19,-5.77 0,-25.6 -10.36,-48.79 -27.16,-65.54 -16.8,-16.8 -39.94,-27.16 -65.54,-27.16 -25.6,0 -48.79,10.36 -65.54,27.16 -16.8,16.8 -27.16,39.94 -27.16,65.54 0,1.89 0.05,3.79 0.19,5.68l-0.05 -0.05z"/>
  <path class="fil1" d="M57.02 38.42c-2.27,1.51 -5.35,0.95 -6.86,-1.32 -1.51,-2.27 -0.95,-5.35 1.32,-6.86 1.04,-0.71 2.18,-1.42 3.31,-2.13 1.37,-0.85 2.51,-1.51 3.36,-1.99 2.41,-1.32 5.44,-0.43 6.72,1.99 1.32,2.41 0.43,5.44 -1.99,6.72 -1.28,0.71 -2.27,1.28 -2.98,1.7 -0.95,0.57 -1.94,1.18 -2.89,1.85l0 0.05zm38.99 -38.42c26.5,0 50.54,10.74 67.9,28.11 17.37,17.37 28.11,41.4 28.11,67.9 0,26.5 -10.74,50.54 -28.11,67.9 -17.37,17.37 -41.4,28.11 -67.9,28.11 -26.5,0 -50.54,-10.74 -67.9,-28.11 -17.37,-17.37 -28.11,-41.4 -28.11,-67.9 0,-26.5 10.74,-50.54 28.11,-67.9 17.37,-17.37 41.4,-28.11 67.9,-28.11zm-92.51 101.64c61.7,26.4 123.36,28.01 185.07,0.14 0.14,-1.94 0.19,-3.83 0.19,-5.77 0,-25.6 -10.36,-48.79 -27.16,-65.54 -16.8,-16.8 -39.94,-27.16 -65.54,-27.16 -25.6,0 -48.79,10.36 -65.54,27.16 -16.8,16.8 -27.16,39.94 -27.16,65.54 0,1.89 0.05,3.79 0.19,5.68l-0.05 -0.05zm24.46 -19.83c-0.57,2.7 -3.17,4.4 -5.87,3.83 -2.7,-0.57 -4.4,-3.17 -3.83,-5.87 1.61,-7.67 4.31,-15.05 8.04,-21.86 3.74,-6.81 8.47,-13.11 14.05,-18.6 1.94,-1.94 5.11,-1.89 7,0.05 1.94,1.94 1.89,5.06 -0.05,7 -4.92,4.83 -9.04,10.32 -12.3,16.28 -3.26,5.96 -5.63,12.4 -7.05,19.12l0 0.05z"/>
  <path class="fil2" d="M39 120.6l9.72 2.15c2.56,0.69 4.55,2.17 5.98,4.43 1.14,1.64 1.86,3.55 2.16,5.73l1.49 0.33 0 2.98 -1.42 -0.31c-0.21,2.15 -0.96,3.78 -2.23,4.87 -1.59,1.46 -3.77,1.97 -6.53,1.53l-0.84 -0.18c-1.14,4.56 -4.32,7.1 -9.53,7.62l-0.03 -3.44c3.36,-0.27 5.49,-1.9 6.39,-4.88l-5.29 -1.17 0 -3.04 5.81 1.28c0.02,-0.3 0.03,-0.6 0.03,-0.88l0 -4.4 -7.36 -1.62 0 -2.98 7.36 1.62 0 -5.22 -5.72 -1.26 0 -3.14zm8.82 5.09l0 5.22 5.84 1.29c-0.17,-1.21 -0.57,-2.27 -1.2,-3.2 -0.88,-1.54 -2.2,-2.59 -3.97,-3.16l-0.68 -0.15zm0 8.2l0 4.93c-0.02,0.13 -0.03,0.25 -0.03,0.35l0.32 0.07c1.9,0.22 3.32,-0.23 4.27,-1.34 0.69,-0.67 1.12,-1.57 1.29,-2.72l-5.84 -1.29zm-14.86 -3.91c-0.95,0.98 -1.98,1.79 -3.1,2.43l0 -4.23c2.24,-1.93 3.93,-4.93 5.07,-9l3.16 0.7c-0.54,2.02 -1.2,3.83 -1.97,5.42l0 23.75 -3.16 -0.7 0 -18.36zm30.85 -3.1l6.39 0.57 0 -1.46 3.26 0.29 0 1.46 8.63 0.77 0 -1.62 3.26 0.29 0 1.62 6.23 0.56 0 2.91 -6.23 -0.56 0 1.42 -3.26 -0.29 0 -1.42 -8.63 -0.77 0 1.42 -3.26 -0.29 0 -1.42 -6.39 -0.57 0 -2.91zm5.8 5.55c1.87,0.41 2.87,1.5 3.03,3.28 0.35,1.91 0.52,4.81 0.52,8.71 0,3.24 -0.04,5.58 -0.13,7.03 0,2.45 -0.9,3.63 -2.7,3.56 -0.79,-0.12 -1.59,-0.23 -2.4,-0.35l0 -2.78c0.59,0.12 1.18,0.21 1.74,0.26 0.42,-0.05 0.64,-0.38 0.66,-1 0.04,-1.27 0.08,-2.51 0.1,-3.69l-3.19 -0.29c-0.16,3.69 -0.4,6.21 -0.73,7.54l-2.74 -0.25c0.57,-2.99 0.89,-7.34 0.96,-13.05l0 -9.42 4.88 0.44zm-2.28 12l3.1 0.28c0,-0.11 0,-0.22 0,-0.33 0,-1.1 -0.01,-2.14 -0.03,-3.11l-3.03 -0.27 0 0.63c-0.02,0.97 -0.03,1.9 -0.03,2.81zm0.03 -6.22l2.9 0.26c-0.05,-0.86 -0.11,-1.71 -0.2,-2.53 0,-0.55 -0.37,-0.9 -1.09,-1.06l-1.61 -0.14 0 3.47zm8.47 -4.67l2.87 0.26c0.22,0.75 0.4,1.48 0.56,2.2l1.78 0.16c0.24,-0.81 0.41,-1.67 0.49,-2.57l2.7 0.24c-0.09,0.92 -0.23,1.78 -0.43,2.58l1.95 0.17c0.35,-0.74 0.64,-1.46 0.85,-2.17l2.9 0.26c-0.29,0.81 -0.58,1.53 -0.89,2.17l2.31 0.21 0 2.55 -4.68 -0.42c0.24,0.66 0.53,1.28 0.86,1.87l4.54 0.41 0 2.68 -2.47 -0.22c0.77,0.82 1.66,1.56 2.67,2.23l-0.03 3.01c-0.73,-0.4 -1.41,-0.82 -2.05,-1.27l0 1.09c-1.16,-0.06 -2.62,-0.08 -4.38,-0.06l0 -2.38c0.88,-0.06 1.77,-0.08 2.67,-0.09 -0.86,-0.83 -1.61,-1.76 -2.28,-2.82l-5.43 -0.49c-0.91,0.96 -1.96,1.78 -3.17,2.47 1.36,0.16 2.45,0.32 3.26,0.46l0 2.31c-1.1,-0.19 -2.79,-0.4 -5.07,-0.65l0 -1.23c-0.38,0.16 -0.76,0.3 -1.15,0.43l0 -2.74c0.85,-0.39 1.65,-0.85 2.37,-1.38l-2.28 -0.2 0 -2.68 4.78 0.43c0.37,-0.52 0.73,-1.08 1.06,-1.69l-5.57 -0.5 0 -2.55 1.91 0.17c-0.17,-0.7 -0.39,-1.43 -0.66,-2.21zm8.47 7.25c-0.29,-0.58 -0.53,-1.19 -0.72,-1.85l-0.53 -0.05c-0.24,0.62 -0.53,1.19 -0.85,1.71l2.11 0.19zm-2.87 8.21c-0.02,-1.5 -0.03,-3.06 -0.03,-4.67l2.97 0.27c0.02,1.48 0.03,3.07 0.03,4.77 2.24,1.1 4.67,2.05 7.28,2.84l0 2.68c-2.63,-0.59 -5.06,-1.44 -7.28,-2.54 -0.06,1.05 -0.31,1.9 -0.75,2.54 -0.69,0.78 -1.44,1.14 -2.28,1.09l-3.53 -0.32 0 -2.71 2.41 0.22c0.79,0.07 1.19,-0.28 1.19,-1.06 0,-0.11 0,-0.22 0,-0.33 -1.67,0.31 -4.03,0.56 -7.08,0.75l0 -2.88c2.49,-0.13 4.85,-0.35 7.08,-0.65zm28.39 -22.53l3.33 -0.28 0 1.85 8.6 -0.73c2.64,0.06 3.97,1.02 3.99,2.87 -0.06,1.48 -0.28,2.6 -0.62,3.36l-3.17 0.27c0.46,-1.39 0.69,-2.3 0.69,-2.74 0,-0.73 -0.55,-1.04 -1.64,-0.95l-19.88 1.68 0 3.57 -3.09 0.26 -0.03 -6.35 11.83 -1 0 -1.82zm-2.37 5.86l2.74 -0.23c-0.02,0.6 -0.03,1.31 -0.03,2.12 0.02,0.92 0.79,1.32 2.31,1.19 2.2,-0.19 4.02,-0.41 5.47,-0.66l0 2.45c-2.22,0.27 -4.52,0.51 -6.89,0.71 -2.42,0.2 -3.63,-1.02 -3.66,-3.69 0.04,-0.73 0.06,-1.36 0.06,-1.89zm9.46 -0.8l3.1 -0.26c1.14,1.67 2.04,3.52 2.7,5.56l-3.03 0.23c-0.61,-1.96 -1.54,-3.8 -2.77,-5.52zm-10.09 10.02l-4.35 0.37 0 1.99 4.35 -0.37 0 -1.99zm2.77 1.75l4.15 -0.35 0 -1.99 -4.15 0.35 0 1.99zm7.12 -0.6l3.53 -0.3c0.88,-0.07 1.32,-0.44 1.32,-1.1 0,-0.62 -0.53,-0.9 -1.58,-0.86l-3.26 0.28 0 1.99zm-18.98 5.41l27.52 -2.33 0 2.91 -11.73 0.99c0.02,0.99 0.03,2.03 0.03,3.11 0,0.88 -0.28,1.61 -0.85,2.19 -0.82,0.65 -1.69,1 -2.64,1.08l-4.02 0.34 0 -2.81 2.97 -0.25c0.97,-0.08 1.45,-0.33 1.45,-0.75 0,-0.86 0,-1.74 0,-2.65l-12.72 1.08 0 -2.91zm13.97 -16.17l2.97 -0.25c0.42,0.78 0.8,1.61 1.15,2.48l-2.94 0.25c-0.31,-0.85 -0.7,-1.68 -1.19,-2.48zm8.83 5.97c1.17,-0.04 2.09,0.22 2.77,0.75 0.79,0.58 1.19,1.33 1.19,2.28 0,1.15 -0.31,2.06 -0.92,2.73 -0.6,0.69 -1.46,1.12 -2.6,1.28l-21.46 1.82 0 -7.08 21.03 -1.78zm-16.87 -5.26l2.74 -0.23c-0.57,3.67 -2.85,5.9 -6.82,6.7l0 -2.61c2.31,-0.52 3.67,-1.81 4.08,-3.85zm33.65 9.36c3.05,0.16 5.77,0.49 8.16,0.99 5.91,-4.8 9.08,-10.62 9.49,-17.45 0,-0.58 -0.38,-0.78 -1.14,-0.63l-12.3 2.55c-1.77,5.57 -5.07,10.32 -9.91,14.23l0 -3.8c4.62,-4.51 7.24,-9.72 7.87,-15.63l3.3 -0.65c-0.11,0.84 -0.24,1.66 -0.39,2.46l13.05 -2.71c1.86,-0.07 2.79,0.75 2.79,2.5 0,8 -3.17,14.66 -9.52,19.97 1.43,0.45 2.69,0.99 3.79,1.6l0 4.1c-4.6,-2.38 -9.66,-3.73 -15.19,-4.06l0 -3.47z"/>
 </g>
</svg>
