<?xml version="1.0" encoding="UTF-8"?>
<!DOCTYPE svg PUBLIC "-//W3C//DTD SVG 1.1//EN" "http://www.w3.org/Graphics/SVG/1.1/DTD/svg11.dtd">
<!-- Creator: CorelDRAW 2021.5 -->
<svg xmlns="http://www.w3.org/2000/svg" xml:space="preserve" width="100%" height="100%" version="1.1" style="shape-rendering:geometricPrecision; text-rendering:geometricPrecision; image-rendering:optimizeQuality; fill-rule:evenodd; clip-rule:evenodd"
viewBox="0 0 143.89 143.89"
 xmlns:xlink="http://www.w3.org/1999/xlink"
 xmlns:xodm="http://www.corel.com/coreldraw/odm/2003">
 <defs>
  <style type="text/css">
   <![CDATA[
    .fil0 {fill:none;fill-rule:nonzero}
    .fil1 {fill:#8C2898;fill-rule:nonzero}
    .fil2 {fill:white;fill-rule:nonzero}
   ]]>
  </style>
   <clipPath id="id0" style="clip-rule:nonzero">
    <path d="M2.62 76.17c46.24,19.79 92.44,20.99 138.68,0.11 0.11,-1.45 0.14,-2.87 0.14,-4.33 0,-19.18 -7.77,-36.56 -20.35,-49.11 -12.59,-12.59 -29.93,-20.35 -49.11,-20.35 -19.18,0 -36.56,7.77 -49.11,20.35 -12.59,12.59 -20.35,29.93 -20.35,49.11 0,1.42 0.04,2.84 0.14,4.25l-0.04 -0.04z"/>
   </clipPath>
    <clipPath id="id1">
     <path d="M18.22 82.13c34.76,11.7 69.5,12.67 104.25,1.43l0 -59.3c-0.45,-0.48 -0.92,-0.95 -1.38,-1.42 -12.59,-12.59 -29.93,-20.35 -49.11,-20.35 -19.18,0 -36.56,7.77 -49.11,20.35 -1.63,1.63 -3.18,3.35 -4.65,5.13l0 54.16z"/>
    </clipPath>
    <clipPath id="id2">
     <path d="M2.62 76.17c46.24,19.79 92.44,20.99 138.68,0.11 0.11,-1.45 0.14,-2.87 0.14,-4.33 0,-19.18 -7.77,-36.56 -20.35,-49.11 -12.59,-12.59 -29.93,-20.35 -49.11,-20.35 -19.18,0 -36.56,7.77 -49.11,20.35 -12.59,12.59 -20.35,29.93 -20.35,49.11 0,1.42 0.04,2.84 0.14,4.25l-0.04 -0.04z"/>
    </clipPath>
 </defs>
 <g id="Layer_x0020_1">
  <metadata id="CorelCorpID_0Corel-Layer"/>
  <g>
  </g>
  <g style="clip-path:url(#id0)">
   <g id="_1823133377312">
   </g>
   <g style="clip-path:url(#id1)">
   </g>
   <g style="clip-path:url(#id2)">
   </g>
  </g>
  <path class="fil0" d="M2.62 76.17c46.24,19.79 92.44,20.99 138.68,0.11 0.11,-1.45 0.14,-2.87 0.14,-4.33 0,-19.18 -7.77,-36.56 -20.35,-49.11 -12.59,-12.59 -29.93,-20.35 -49.11,-20.35 -19.18,0 -36.56,7.77 -49.11,20.35 -12.59,12.59 -20.35,29.93 -20.35,49.11 0,1.42 0.04,2.84 0.14,4.25l-0.04 -0.04z"/>
  <path class="fil1" d="M42.73 28.79c-1.7,1.13 -4.01,0.71 -5.14,-0.99 -1.13,-1.7 -0.71,-4.01 0.99,-5.14 0.78,-0.53 1.63,-1.06 2.48,-1.6 1.03,-0.64 1.88,-1.13 2.52,-1.49 1.81,-0.99 4.08,-0.32 5.04,1.49 0.99,1.81 0.32,4.08 -1.49,5.04 -0.96,0.53 -1.7,0.96 -2.23,1.28 -0.71,0.43 -1.45,0.89 -2.16,1.38l0 0.04zm29.22 -28.79c19.86,0 37.87,8.05 50.88,21.06 13.01,13.01 21.06,31.03 21.06,50.88 0,19.86 -8.05,37.87 -21.06,50.88 -13.01,13.01 -31.03,21.06 -50.88,21.06 -19.86,0 -37.87,-8.05 -50.88,-21.06 -13.01,-13.01 -21.06,-31.03 -21.06,-50.88 0,-19.86 8.05,-37.87 21.06,-50.88 13.01,-13.01 31.03,-21.06 50.88,-21.06zm-69.32 76.17c46.24,19.79 92.44,20.99 138.68,0.11 0.11,-1.45 0.14,-2.87 0.14,-4.33 0,-19.18 -7.77,-36.56 -20.35,-49.11 -12.59,-12.59 -29.93,-20.35 -49.11,-20.35 -19.18,0 -36.56,7.77 -49.11,20.35 -12.59,12.59 -20.35,29.93 -20.35,49.11 0,1.42 0.04,2.84 0.14,4.25l-0.04 -0.04zm18.33 -14.86c-0.43,2.02 -2.38,3.3 -4.4,2.87 -2.02,-0.43 -3.3,-2.38 -2.87,-4.4 1.21,-5.74 3.23,-11.28 6.03,-16.38 2.8,-5.11 6.35,-9.82 10.53,-13.94 1.45,-1.45 3.83,-1.42 5.25,0.04 1.45,1.45 1.42,3.79 -0.04,5.25 -3.69,3.62 -6.77,7.73 -9.22,12.2 -2.45,4.47 -4.22,9.29 -5.28,14.33l0 0.04z"/>
  <path class="fil2" d="M18.24 87.38l7.22 1.89c1.9,0.59 3.38,1.76 4.44,3.49 0.85,1.26 1.38,2.71 1.6,4.36l1.11 0.29 0 2.23 -1.06 -0.28c-0.16,1.61 -0.71,2.8 -1.65,3.58 -1.18,1.04 -2.8,1.36 -4.84,0.96l-0.62 -0.16c-0.85,3.38 -3.21,5.19 -7.08,5.43l-0.02 -2.58c2.5,-0.11 4.08,-1.26 4.75,-3.47l-3.93 -1.03 0 -2.28 4.31 1.13c0.02,-0.22 0.02,-0.45 0.02,-0.66l0 -3.3 -5.47 -1.43 0 -2.23 5.47 1.43 0 -3.91 -4.24 -1.11 0 -2.36zm6.55 4.07l0 3.91 4.34 1.14c-0.13,-0.91 -0.42,-1.72 -0.89,-2.44 -0.66,-1.18 -1.64,-2.01 -2.95,-2.48l-0.5 -0.13zm0 6.15l0 3.69c-0.02,0.09 -0.02,0.18 -0.02,0.26l0.24 0.06c1.41,0.22 2.46,-0.07 3.17,-0.88 0.51,-0.48 0.83,-1.14 0.96,-2l-4.34 -1.14zm-11.03 -3.37c-0.7,0.71 -1.47,1.29 -2.3,1.73l0 -3.17c1.66,-1.38 2.92,-3.58 3.76,-6.6l2.35 0.62c-0.4,1.5 -0.89,2.83 -1.46,4l0 17.8 -2.35 -0.62 0 -13.76zm22.88 -1.34l4.75 0.75 0 -1.09 2.42 0.38 0 1.09 6.41 1.01 0 -1.21 2.42 0.38 0 1.21 4.63 0.73 0 2.18 -4.63 -0.73 0 1.07 -2.42 -0.38 0 -1.07 -6.41 -1.01 0 1.07 -2.42 -0.38 0 -1.07 -4.75 -0.75 0 -2.18zm4.31 4.45c1.39,0.4 2.14,1.27 2.25,2.61 0.26,1.45 0.39,3.63 0.39,6.55 0,2.43 -0.03,4.18 -0.1,5.26 0,1.84 -0.67,2.68 -2.01,2.53 -0.59,-0.13 -1.18,-0.25 -1.78,-0.38l0 -2.08c0.44,0.12 0.87,0.21 1.3,0.28 0.31,-0.02 0.47,-0.26 0.49,-0.72 0.03,-0.95 0.06,-1.87 0.08,-2.76l-2.37 -0.37c-0.12,2.76 -0.3,4.63 -0.54,5.62l-2.04 -0.32c0.43,-2.21 0.66,-5.46 0.71,-9.73l0 -7.06 3.63 0.57zm-1.69 8.88l2.3 0.36c0,-0.08 0,-0.16 0,-0.25 0,-0.82 -0.01,-1.6 -0.02,-2.33l-2.25 -0.36 0 0.47c-0.02,0.73 -0.02,1.43 -0.02,2.1zm0.02 -4.66l2.16 0.34c-0.03,-0.65 -0.08,-1.29 -0.15,-1.91 0,-0.41 -0.27,-0.69 -0.81,-0.85l-1.2 -0.19 0 2.6zm6.29 -3.07l2.13 0.34c0.16,0.57 0.3,1.13 0.41,1.68l1.32 0.21c0.18,-0.6 0.3,-1.23 0.37,-1.9l2.01 0.32c-0.07,0.68 -0.17,1.32 -0.32,1.91l1.45 0.23c0.26,-0.54 0.47,-1.06 0.64,-1.58l2.16 0.34c-0.21,0.59 -0.43,1.12 -0.66,1.58l1.71 0.27 0 1.91 -3.48 -0.55c0.18,0.51 0.39,0.99 0.64,1.44l3.38 0.53 0 2.01 -1.83 -0.29c0.57,0.65 1.23,1.25 1.98,1.8l-0.03 2.25c-0.54,-0.33 -1.04,-0.68 -1.52,-1.06l0 0.82c-0.87,-0.1 -1.95,-0.19 -3.26,-0.26l0 -1.78c0.65,0 1.32,0.03 1.98,0.06 -0.64,-0.66 -1.2,-1.4 -1.69,-2.23l-4.04 -0.64c-0.67,0.67 -1.45,1.23 -2.35,1.69 1.01,0.19 1.82,0.36 2.42,0.5l0 1.73c-0.81,-0.2 -2.07,-0.44 -3.77,-0.74l0 -0.92c-0.28,0.1 -0.56,0.19 -0.86,0.26l0 -2.06c0.63,-0.25 1.22,-0.55 1.76,-0.92l-1.69 -0.27 0 -2.01 3.55 0.56c0.28,-0.37 0.54,-0.77 0.79,-1.22l-4.14 -0.65 0 -1.91 1.42 0.22c-0.13,-0.53 -0.29,-1.1 -0.49,-1.69zm6.29 5.85c-0.21,-0.45 -0.39,-0.92 -0.54,-1.43l-0.39 -0.06c-0.18,0.45 -0.39,0.86 -0.63,1.24l1.57 0.25zm-2.13 6.01c-0.02,-1.13 -0.02,-2.29 -0.02,-3.5l2.21 0.35c0.01,1.11 0.02,2.3 0.02,3.57 1.67,0.94 3.47,1.77 5.41,2.49l0 2.01c-1.96,-0.57 -3.76,-1.33 -5.41,-2.27 -0.05,0.78 -0.23,1.41 -0.56,1.87 -0.51,0.55 -1.07,0.78 -1.69,0.7l-2.62 -0.41 0 -2.03 1.79 0.28c0.59,0.09 0.88,-0.15 0.88,-0.73 0,-0.08 0,-0.17 0,-0.25 -1.24,0.15 -3,0.22 -5.27,0.21l0 -2.16c1.85,0.03 3.6,-0.02 5.27,-0.13zm11.77 -13.75l21.17 -0.16 0 2.43 -12.82 0.1 0 3.17 5.75 -0.04c1.7,0.02 3,0.54 3.89,1.56 0.99,0.9 1.5,2.18 1.54,3.83 0,2.49 -0.1,4.25 -0.3,5.28 -0.1,1.3 -0.61,2.32 -1.51,3.06 -0.88,0.7 -2.09,1.08 -3.64,1.14 -1.37,0.01 -2.5,-0.06 -3.37,-0.2l0 -2.35c0.99,0.16 2.15,0.23 3.47,0.22 1.32,-0.06 2.19,-0.79 2.61,-2.2 0.16,-0.8 0.24,-2.36 0.24,-4.69 0,-0.86 -0.28,-1.64 -0.84,-2.32 -0.6,-0.67 -1.29,-1.01 -2.08,-1l-5.8 0.04c-0.25,3.19 -1.18,6 -2.8,8.42 -1.67,2.34 -3.27,3.84 -4.78,4.47l0 -2.8c3.32,-2.55 5.03,-6.4 5.13,-11.54l0.02 -4.04 -5.87 0.04 0 -2.43zm25.36 7.23l2.4 -0.38 0 -5.95 -2.2 0.35 0 -2.33 7.02 -1.11 0 2.33 -2.52 0.4 0 5.95 2.42 -0.38 0 2.31 -2.42 0.38 0 5.85c0.81,-0.26 1.63,-0.56 2.45,-0.91l0 2.45c-1.88,0.74 -4.2,1.44 -6.98,2.1l0 -2.5c0.73,-0.13 1.47,-0.29 2.23,-0.48l0 -6.15 -2.4 0.38 0 -2.31zm10.28 -2.99l0 2.88 2.82 -0.45 0 -2.88 -2.82 0.45zm2.82 4.63l-5.07 0.8 0 -12.34 7.88 -1.25c3.48,-0.55 5.25,1.2 5.34,5.25 0,3.92 -1.5,6.24 -4.5,6.96l-1.3 0.21 0 1.88 5.17 -0.82 0 2.41 -5.17 0.82 0 2.23 5.8 -0.92 0 2.43 -13.59 2.16 0 -2.43 5.44 -0.86 0 -2.23 -5 0.79 0 -2.41 5 -0.79 0 -1.88zm2.35 -2.58l0.98 -0.16c1.43,-0.46 2.27,-1.55 2.49,-3.27l-3.48 0.55 0 2.88zm3.5 -5.59c-0.25,-1.98 -1.26,-2.82 -3.03,-2.54l-0.47 0.07 0 3.02 3.5 -0.56zm-5.85 -2.1l-2.82 0.45 0 3.02 2.82 -0.45 0 -3.02zm12.21 -3.42l4.66 -1.17 0 -1.46 2.38 -0.6 0 1.46 6.3 -1.58 0 -1.46 2.38 -0.6 0 1.46 4.55 -1.14 0 2.23 -4.55 1.14 0 1.29 -2.38 0.6 0 -1.29 -6.3 1.58 0 1.29 -2.38 0.6 0 -1.29 -4.66 1.17 0 -2.23zm0.65 4.08l19.07 -4.79 0 2.13 -2.69 0.68 0 1.95 3.25 -0.82 0 2.21 -3.25 0.82 0 1.84 2.57 -0.65 0 2.13 -8.37 2.1 0 1.61 8.92 -2.24 0 2.18 -8.92 2.24 0 2.6 -2.38 0.6 0 -2.6 -8.73 2.19 0 -2.18 8.73 -2.19 0 -1.61 -8.18 2.05 0 -2.13 2.6 -0.65 0 -1.84 -3.34 0.84 0 -2.21 3.34 -0.84 0 -1.95 -2.62 0.66 0 -2.13zm14.26 4.55l0 -1.84 -3.68 0.92 0 1.84 3.68 -0.92zm-6.06 1.52l0 -1.84 -3.44 0.86 0 1.84 3.44 -0.86zm6.06 -5.57l0 -1.95 -3.68 0.92 0 1.95 3.68 -0.92zm-6.06 1.52l0 -1.95 -3.44 0.86 0 1.95 3.44 -0.86z"/>
 </g>
</svg>
