<?xml version="1.0" encoding="UTF-8"?>
<!DOCTYPE svg PUBLIC "-//W3C//DTD SVG 1.1//EN" "http://www.w3.org/Graphics/SVG/1.1/DTD/svg11.dtd">
<!-- Creator: CorelDRAW 2021.5 -->
<svg xmlns="http://www.w3.org/2000/svg" xml:space="preserve" width="100%" height="100%" version="1.1" style="shape-rendering:geometricPrecision; text-rendering:geometricPrecision; image-rendering:optimizeQuality; fill-rule:evenodd; clip-rule:evenodd"
viewBox="0 0 344.13 344.13"
 xmlns:xlink="http://www.w3.org/1999/xlink"
 xmlns:xodm="http://www.corel.com/coreldraw/odm/2003">
 <defs>
  <style type="text/css">
   <![CDATA[
    .fil0 {fill:none;fill-rule:nonzero}
    .fil1 {fill:#8C2898;fill-rule:nonzero}
    .fil2 {fill:white;fill-rule:nonzero}
   ]]>
  </style>
   <clipPath id="id0" style="clip-rule:nonzero">
    <path d="M6.28 182.15c110.58,47.32 221.08,50.2 331.66,0.25 0.25,-3.48 0.34,-6.87 0.34,-10.35 0,-45.88 -18.57,-87.43 -48.68,-117.45 -30.1,-30.1 -71.57,-48.68 -117.45,-48.68 -45.88,0 -87.43,18.57 -117.45,48.68 -30.1,30.1 -48.68,71.57 -48.68,117.45 0,3.39 0.09,6.78 0.34,10.18l-0.09 -0.08z"/>
   </clipPath>
    <clipPath id="id1">
     <path d="M43.58 196.42c83.12,27.98 166.21,30.31 249.33,3.42l0 -141.83c-1.09,-1.15 -2.19,-2.28 -3.31,-3.4 -30.1,-30.1 -71.57,-48.68 -117.45,-48.68 -45.88,0 -87.43,18.57 -117.45,48.68 -3.91,3.91 -7.62,8 -11.12,12.28l0 129.53z"/>
    </clipPath>
    <clipPath id="id2">
     <path d="M6.28 182.15c110.58,47.32 221.08,50.2 331.66,0.25 0.25,-3.48 0.34,-6.87 0.34,-10.35 0,-45.88 -18.57,-87.43 -48.68,-117.45 -30.1,-30.1 -71.57,-48.68 -117.45,-48.68 -45.88,0 -87.43,18.57 -117.45,48.68 -30.1,30.1 -48.68,71.57 -48.68,117.45 0,3.39 0.09,6.78 0.34,10.18l-0.09 -0.08z"/>
    </clipPath>
 </defs>
 <g id="Layer_x0020_1">
  <metadata id="CorelCorpID_0Corel-Layer"/>
  <g>
  </g>
  <g style="clip-path:url(#id0)">
   <g id="_1788544279312">
   </g>
   <g style="clip-path:url(#id1)">
   </g>
   <g style="clip-path:url(#id2)">
   </g>
  </g>
  <path class="fil0" d="M6.28 182.15c110.58,47.32 221.08,50.2 331.66,0.25 0.25,-3.48 0.34,-6.87 0.34,-10.35 0,-45.88 -18.57,-87.43 -48.68,-117.45 -30.1,-30.1 -71.57,-48.68 -117.45,-48.68 -45.88,0 -87.43,18.57 -117.45,48.68 -30.1,30.1 -48.68,71.57 -48.68,117.45 0,3.39 0.09,6.78 0.34,10.18l-0.09 -0.08z"/>
  <path class="fil1" d="M102.19 68.86c-4.07,2.71 -9.58,1.7 -12.3,-2.37 -2.71,-4.07 -1.7,-9.58 2.37,-12.3 1.87,-1.27 3.9,-2.54 5.94,-3.82 2.46,-1.53 4.49,-2.71 6.02,-3.56 4.32,-2.37 9.75,-0.76 12.04,3.56 2.37,4.32 0.76,9.75 -3.56,12.04 -2.29,1.27 -4.07,2.29 -5.34,3.05 -1.7,1.02 -3.48,2.12 -5.17,3.31l0 0.09zm69.88 -68.86c47.49,0 90.57,19.25 121.69,50.37 31.12,31.12 50.37,74.2 50.37,121.69 0,47.49 -19.25,90.57 -50.37,121.69 -31.12,31.12 -74.2,50.37 -121.69,50.37 -47.49,0 -90.57,-19.25 -121.69,-50.37 -31.12,-31.12 -50.37,-74.2 -50.37,-121.69 0,-47.49 19.25,-90.57 50.37,-121.69 31.12,-31.12 74.2,-50.37 121.69,-50.37zm-165.79 182.15c110.58,47.32 221.08,50.2 331.66,0.25 0.25,-3.48 0.34,-6.87 0.34,-10.35 0,-45.88 -18.57,-87.43 -48.68,-117.45 -30.1,-30.1 -71.57,-48.68 -117.45,-48.68 -45.88,0 -87.43,18.57 -117.45,48.68 -30.1,30.1 -48.68,71.57 -48.68,117.45 0,3.39 0.09,6.78 0.34,10.18l-0.09 -0.08zm43.84 -35.53c-1.02,4.83 -5.68,7.89 -10.52,6.87 -4.83,-1.02 -7.89,-5.68 -6.87,-10.52 2.88,-13.74 7.72,-26.97 14.42,-39.18 6.7,-12.21 15.18,-23.49 25.19,-33.33 3.48,-3.48 9.16,-3.39 12.55,0.09 3.48,3.48 3.39,9.07 -0.09,12.55 -8.82,8.65 -16.2,18.49 -22.05,29.17 -5.85,10.69 -10.09,22.22 -12.64,34.26l0 0.09z"/>
  <path class="fil2" d="M28.5 216.76l47.9 14.44 0 5.57 -30.99 -9.34c-0.68,2 -1.57,3.76 -2.66,5.24l23.78 7.17c2.57,1.21 4.58,3.02 6.02,5.43 1.37,2.43 2.04,5.04 2.04,7.85 -0.08,3.09 -0.89,5.36 -2.44,6.79 -1.71,1.62 -3.77,2.12 -6.19,1.51l-29.22 -8.81 0 -14.65c-2.46,1.24 -5.34,1.97 -8.63,2.2l-0.06 -6.42c6.09,-0.89 9.92,-3.59 11.47,-8.1l-11.01 -3.32 0 -5.57zm20.94 -12.12l5.62 1.69 0 9.6 12.88 3.88c0.49,0.15 0.75,-0.17 0.75,-0.96l0 -7.42 5.56 1.68 0 8.71c0,3.17 -1.42,4.52 -4.26,4.06l-35.59 -10.73c-2.31,-1.44 -3.46,-3.51 -3.46,-6.2l0 -8.77 5.62 1.69 -0.06 7.28c0,0.67 0.25,1.14 0.74,1.41l12.21 3.68 0 -9.6zm-7.27 44.1l23.32 7.03c2,0.21 3.15,-1.17 3.41,-4.13 0,-3.44 -1.47,-5.76 -4.43,-6.97l-22.31 -6.72 0 10.79zm74.61 -27.5l19.12 3.19 0 4.98 -7.14 -1.19c-0.23,1.11 -0.49,2.23 -0.76,3.37 1.76,0.57 3.21,1.49 4.39,2.75 1.48,1.75 2.33,3.54 2.56,5.35 0.67,2.84 1,7.15 1,12.91 -0.04,4.7 -0.21,7.86 -0.53,9.46 -0.04,2.05 -0.7,3.75 -1.99,5.12 -0.08,0.06 -0.16,0.1 -0.23,0.13 0.5,3.05 1.07,6.05 1.69,9l-5.43 -1.03c-0.32,-2.07 -0.65,-4.24 -1,-6.51 -0.23,0 -0.49,-0.02 -0.76,-0.07l-3.98 -0.66c-0.27,1.97 -0.6,4.01 -0.99,6.12l-5.32 -0.89c0.54,-2.09 0.99,-4.1 1.34,-6.06l-1.05 -0.17 0 -37.35 5.03 0.84c0.31,-1.05 0.6,-2.11 0.88,-3.17l-6.85 -1.14 0 -4.98zm5.91 25.35l0 5.45 8.01 1.34c0.04,-0.86 0.06,-1.75 0.06,-2.65 0,-0.99 -0.02,-1.93 -0.06,-2.8l-8.01 -1.34zm7.65 -3.76c-0.03,-0.44 -0.07,-0.86 -0.11,-1.26 -0.12,-2.78 -1.55,-4.57 -4.27,-5.34l-3.27 -0.55 0 5.87 7.65 1.28zm-7.65 14.02l0 5.75 4.27 0.71c2.14,0.08 3.21,-0.81 3.21,-2.66 0.12,-0.66 0.23,-1.49 0.35,-2.49l-7.83 -1.31zm-32.27 -13.93l5.26 0.88c-1.56,10.21 -4.62,18.16 -9.18,23.84l0 -10.43c1.8,-3.18 3.09,-7.94 3.92,-14.29zm-3.86 -14.39c3.35,1.82 6.43,3.94 9.24,6.34l0 6.4c-3.08,-2.76 -6.17,-5.01 -9.24,-6.75l0 -5.99zm0.23 -12.35c3.31,1.63 6.34,3.51 9.06,5.66l0 6.4c-3.03,-2.48 -6.06,-4.51 -9.06,-6.07l0 -5.99zm10.59 4.56l7.01 1.17 0 -4.27 4.74 0.79 0 4.27 5.96 0.99 0 5.33 -5.96 -0.99 0 2.67c2.25,0.65 3.95,2.28 5.08,4.87 1.14,2.52 1.74,5.37 1.82,8.54 0,4.12 -0.7,7.16 -2.11,9.14 -0.08,0.11 -0.16,0.19 -0.23,0.26 0.15,3.82 0.7,7.41 1.64,10.76l0 8.83c-2.45,-3.69 -4.1,-9.47 -4.92,-17.35 -0.43,0.08 -0.86,0.15 -1.28,0.2l0 16.24 -4.74 -0.79 0 -16.01 -1.47 -0.24c-0.93,6.81 -3.15,11.66 -6.67,14.6l0 -7.47c1.49,-2.13 2.43,-4.71 2.81,-7.78l-1.17 -0.19 0 -25.48 6.49 1.08 0 -2.67 -7.01 -1.17 0 -5.33zm7.01 13.85l-2.22 -0.37 0 15.83 2.22 0.37 0 -15.83zm4.74 16.27c0.58,-0.22 1.15,-0.7 1.69,-1.44 0.63,-1.64 0.94,-3.54 0.94,-5.71 0,-2.14 -0.31,-4.16 -0.94,-6.08 -0.31,-0.88 -0.87,-1.55 -1.69,-2l0 15.24zm47.76 -26.52l6.23 0c-1.39,4.19 -2.96,7.94 -4.74,11.26l0 41.73 -5.81 -0 0 -33.31c-2.13,2.49 -4.45,4.52 -6.94,6.1l0 -7.34c4.62,-3.6 8.38,-9.74 11.26,-18.43zm5.57 6.81l11.68 0.01c0.44,-2.16 0.73,-4.44 0.88,-6.81l5.88 0c-0.24,2.37 -0.56,4.64 -0.95,6.81l17.54 0.01 0 5.93 -18.79 -0.01c-1.22,4.27 -2.86,8.1 -4.93,11.5l12.57 0.01c3.32,0.27 5.85,1.58 7.59,3.92 1.89,2.49 2.84,5.77 2.84,9.84 0,4.2 -0.95,7.52 -2.84,9.96 -1.74,2.65 -4.06,4.03 -6.94,4.14l-19.26 -0.01 0 -20.4c-2.22,2.09 -4.68,3.89 -7.42,5.4l0 -6.34c5.85,-4.39 9.98,-10.39 12.39,-18.02l-10.26 -0.01 0 -5.93zm11.09 22.89l0 16.71 11.86 0.01c3.48,-0.75 5.33,-3.77 5.57,-9.06 -0.32,-4.62 -2.46,-7.17 -6.4,-7.65l-11.03 -0.01zm43.94 -31.82l6.15 -0.92c0.35,1.17 0.8,2.37 1.35,3.59l15.83 -2.37c0.66,-1.36 1.23,-2.69 1.7,-4l5.91 -0.89c-0.39,1.4 -0.84,2.72 -1.34,3.94l9.55 -1.43 0 5.45 -21.46 3.22 0 3.49 19.99 -3 0 5.45 -19.99 3 0 3.56 21.16 -3.17 0 5.45 -48.06 7.21 0 -5.45 21.22 -3.18 0 -3.56 -19.76 2.96 0 -5.45 19.76 -2.96 0 -3.49 -21.11 3.17 0 -5.45 10.39 -1.56c-0.51,-1.19 -0.94,-2.39 -1.29,-3.6zm-9.55 33.8l21.39 -3.21c0.04,-0.17 0.06,-0.32 0.06,-0.48l-0.12 -2.95 6.04 -0.91 0 2.96c0,0.16 -0.02,0.32 -0.06,0.48l21.46 -3.22 0 5.39 -20.7 3.1c4.57,4.37 11.54,6.33 20.87,5.89l0 5.87c-11.57,0.23 -19.75,-2.2 -24.56,-7.28 -4.02,6.6 -12.16,11.46 -24.38,14.56l0 -5.87c10.46,-2.75 17.1,-6.73 19.87,-11.93l-19.87 2.98 0 -5.39zm64.94 -42.27l31.71 -10.01c4.15,-1.04 6.22,0.01 6.22,3.13 0,2.05 -1.09,4.22 -3.28,6.49 -4.75,5.17 -7.73,8.43 -8.93,9.76 0,1.06 0.02,2.16 0.06,3.3l17.41 -5.5 0 5.81 -17.36 5.48c0,3.52 0,7.29 0,11.32 0,8.54 -3.36,13.87 -10.06,15.98 -4.37,1.38 -8.22,2.27 -11.53,2.69l0.05 -5.71c3.02,-0.4 6.52,-1.17 10.52,-2.31 3.47,-1.1 5.28,-3.11 5.43,-6.04 0,-5.06 -0.04,-9.76 -0.12,-14.13l-26 8.21 0 -5.81 25.88 -8.17c-0.04,-2.24 -0.09,-4.36 -0.16,-6.35 0.97,-0.9 2.95,-2.96 5.93,-6.2 2.75,-3 4.13,-4.72 4.13,-5.16 0,-0.48 -0.14,-0.67 -0.4,-0.58l-29.51 9.31 0 -5.51z"/>
 </g>
</svg>
