<?xml version="1.0" encoding="UTF-8"?>
<!DOCTYPE svg PUBLIC "-//W3C//DTD SVG 1.1//EN" "http://www.w3.org/Graphics/SVG/1.1/DTD/svg11.dtd">
<!-- Creator: CorelDRAW 2021.5 -->
<svg xmlns="http://www.w3.org/2000/svg" xml:space="preserve" width="100%" height="100%" version="1.1" style="shape-rendering:geometricPrecision; text-rendering:geometricPrecision; image-rendering:optimizeQuality; fill-rule:evenodd; clip-rule:evenodd"
viewBox="0 0 143.89 143.89"
 xmlns:xlink="http://www.w3.org/1999/xlink"
 xmlns:xodm="http://www.corel.com/coreldraw/odm/2003">
 <defs>
  <style type="text/css">
   <![CDATA[
    .fil0 {fill:none;fill-rule:nonzero}
    .fil1 {fill:#8C2898;fill-rule:nonzero}
    .fil2 {fill:white;fill-rule:nonzero}
   ]]>
  </style>
   <clipPath id="id0" style="clip-rule:nonzero">
    <path d="M2.62 76.17c46.24,19.79 92.44,20.99 138.68,0.11 0.11,-1.45 0.14,-2.87 0.14,-4.33 0,-19.18 -7.77,-36.56 -20.35,-49.11 -12.59,-12.59 -29.93,-20.35 -49.11,-20.35 -19.18,0 -36.56,7.77 -49.11,20.35 -12.59,12.59 -20.35,29.93 -20.35,49.11 0,1.42 0.04,2.84 0.14,4.25l-0.04 -0.04z"/>
   </clipPath>
    <clipPath id="id1">
     <path d="M18.22 82.13c34.76,11.7 69.5,12.67 104.25,1.43l0 -59.3c-0.45,-0.48 -0.92,-0.95 -1.38,-1.42 -12.59,-12.59 -29.93,-20.35 -49.11,-20.35 -19.18,0 -36.56,7.77 -49.11,20.35 -1.63,1.63 -3.18,3.35 -4.65,5.13l0 54.16z"/>
    </clipPath>
    <clipPath id="id2">
     <path d="M2.62 76.17c46.24,19.79 92.44,20.99 138.68,0.11 0.11,-1.45 0.14,-2.87 0.14,-4.33 0,-19.18 -7.77,-36.56 -20.35,-49.11 -12.59,-12.59 -29.93,-20.35 -49.11,-20.35 -19.18,0 -36.56,7.77 -49.11,20.35 -12.59,12.59 -20.35,29.93 -20.35,49.11 0,1.42 0.04,2.84 0.14,4.25l-0.04 -0.04z"/>
    </clipPath>
 </defs>
 <g id="Layer_x0020_1">
  <metadata id="CorelCorpID_0Corel-Layer"/>
  <g>
  </g>
  <g style="clip-path:url(#id0)">
   <g id="_1788542866128">
   </g>
   <g style="clip-path:url(#id1)">
   </g>
   <g style="clip-path:url(#id2)">
   </g>
  </g>
  <path class="fil0" d="M2.62 76.17c46.24,19.79 92.44,20.99 138.68,0.11 0.11,-1.45 0.14,-2.87 0.14,-4.33 0,-19.18 -7.77,-36.56 -20.35,-49.11 -12.59,-12.59 -29.93,-20.35 -49.11,-20.35 -19.18,0 -36.56,7.77 -49.11,20.35 -12.59,12.59 -20.35,29.93 -20.35,49.11 0,1.42 0.04,2.84 0.14,4.25l-0.04 -0.04z"/>
  <path class="fil1" d="M42.73 28.79c-1.7,1.13 -4.01,0.71 -5.14,-0.99 -1.13,-1.7 -0.71,-4.01 0.99,-5.14 0.78,-0.53 1.63,-1.06 2.48,-1.6 1.03,-0.64 1.88,-1.13 2.52,-1.49 1.81,-0.99 4.08,-0.32 5.04,1.49 0.99,1.81 0.32,4.08 -1.49,5.04 -0.96,0.53 -1.7,0.96 -2.23,1.28 -0.71,0.43 -1.45,0.89 -2.16,1.38l0 0.04zm29.22 -28.79c19.86,0 37.87,8.05 50.88,21.06 13.01,13.01 21.06,31.03 21.06,50.88 0,19.86 -8.05,37.87 -21.06,50.88 -13.01,13.01 -31.03,21.06 -50.88,21.06 -19.86,0 -37.87,-8.05 -50.88,-21.06 -13.01,-13.01 -21.06,-31.03 -21.06,-50.88 0,-19.86 8.05,-37.87 21.06,-50.88 13.01,-13.01 31.03,-21.06 50.88,-21.06zm-69.32 76.17c46.24,19.79 92.44,20.99 138.68,0.11 0.11,-1.45 0.14,-2.87 0.14,-4.33 0,-19.18 -7.77,-36.56 -20.35,-49.11 -12.59,-12.59 -29.93,-20.35 -49.11,-20.35 -19.18,0 -36.56,7.77 -49.11,20.35 -12.59,12.59 -20.35,29.93 -20.35,49.11 0,1.42 0.04,2.84 0.14,4.25l-0.04 -0.04zm18.33 -14.86c-0.43,2.02 -2.38,3.3 -4.4,2.87 -2.02,-0.43 -3.3,-2.38 -2.87,-4.4 1.21,-5.74 3.23,-11.28 6.03,-16.38 2.8,-5.11 6.35,-9.82 10.53,-13.94 1.45,-1.45 3.83,-1.42 5.25,0.04 1.45,1.45 1.42,3.79 -0.04,5.25 -3.69,3.62 -6.77,7.73 -9.22,12.2 -2.45,4.47 -4.22,9.29 -5.28,14.33l0 0.04z"/>
  <path class="fil2" d="M33.68 93.42l3.15 0.53 0 -2.31 2.22 0.38 0 2.31 3.13 0.53 0 2.28 -0.56 -0.1c0.03,6.38 0.21,12.15 0.54,17.3l-1.95 -0.33c-0.28,-3.44 -0.43,-9.2 -0.44,-17.28l-0.71 -0.12 0 17.82 -2.22 -0.38 0 -17.82 -0.68 -0.12c-0.05,5.92 -0.16,11.62 -0.34,17.1l-1.91 -0.32c0.28,-5.33 0.42,-11.02 0.44,-17.08l-0.66 -0.11 0 -2.28zm15.18 2.57c3.63,1 5.54,4.26 5.72,9.79 0,1.72 -0.02,3.06 -0.07,4.03 -0.13,1.93 -0.67,3.35 -1.61,4.26 -1.14,1.16 -2.4,1.63 -3.77,1.4l-6.21 -1.05 0 -19.43 3.13 0.53c0.43,-0.74 0.77,-1.45 1.03,-2.13l2.59 0.44c-0.26,0.68 -0.58,1.4 -0.98,2.14l0.17 0.03zm-3.62 16.49l3.47 0.59c0.88,0.15 1.66,-0.1 2.34,-0.74 0.57,-0.55 0.91,-1.51 1.03,-2.88 0.07,-0.55 0.12,-1.34 0.15,-2.38l-7.01 -1.19 0.03 6.6zm-0.03 -8.98l6.99 1.18c-0.25,-3.63 -1.54,-5.81 -3.89,-6.53l-3.1 -0.53 0 5.88zm14.87 -6.58l8.03 0.08 0 -1.76 2.45 0.02 0 1.76 8.18 0.08 0 2.36 -8.18 -0.08 0 2.11 9.37 0.09 0 2.38 -3.47 -0.03c-0.12,1.14 -0.33,2.21 -0.62,3.19l4.09 0.04 0 2.38 -9.4 -0.09 0 2.31 8.93 0.08 0 2.35 -8.93 -0.08 0 3.57 -2.45 -0.02 0 -3.57 -8.9 -0.08 0 -2.35 8.9 0.08 0 -2.31 -9.29 -0.09 0 -2.38 4.21 0.04c-0.15,-1.08 -0.29,-2.14 -0.42,-3.2l-3.82 -0.04 0 -2.38 9.34 0.09 0 -2.11 -8.03 -0.08 0 -2.36zm5.28 10.09l8.13 0.08c0.25,-1.08 0.44,-2.15 0.59,-3.19l-9.15 -0.09c0.15,1.06 0.29,2.13 0.42,3.2zm19.29 -10.51l7.92 -1.17c0.31,-0.56 0.59,-1.14 0.83,-1.73l2.53 -0.37c-0.18,0.58 -0.39,1.15 -0.62,1.7l9.19 -1.36 0 2.31 -5 0.74c1.59,1.39 3.44,2.17 5.57,2.35l0 2.7c-1.05,-0.14 -2.01,-0.35 -2.89,-0.64l0 1.26 -15.03 2.22 0 -1.07c-0.83,0.4 -1.72,0.79 -2.65,1.16l0 -2.63c2.57,-1.01 4.64,-2.36 6.21,-4.07l-6.06 0.9 0 -2.31zm5.08 5.35l10.64 -1.57c-1.54,-0.8 -2.79,-1.88 -3.75,-3.24l-2.65 0.39c-1.08,1.7 -2.49,3.17 -4.24,4.42zm-5.52 5.43l20.72 -3.06 0 2.35 -8.88 1.31c0.08,0.75 0.15,1.6 0.22,2.55 0,1.24 -0.09,2.08 -0.27,2.52 -0.24,1.34 -1.27,2.23 -3.06,2.68 -1.41,0.21 -2.57,0.33 -3.48,0.37l0 -2.31c0.93,-0.01 1.83,-0.07 2.7,-0.2 1.11,-0.16 1.7,-0.85 1.74,-2.04 -0.03,-1.15 -0.1,-2.22 -0.22,-3.22l-9.47 1.4 0 -2.35zm3.14 2.76l2.18 -0.32c-0.08,3 -1.58,5.24 -4.49,6.71l0 -2.38c1.54,-0.99 2.31,-2.32 2.31,-4.01zm12.31 -1.74l2.26 -0.33c0.1,1.22 0.86,2.14 2.28,2.74l0 2.75c-2.49,-0.79 -4,-2.51 -4.54,-5.15z"/>
 </g>
</svg>
