<?xml version="1.0" encoding="UTF-8"?>
<!DOCTYPE svg PUBLIC "-//W3C//DTD SVG 1.1//EN" "http://www.w3.org/Graphics/SVG/1.1/DTD/svg11.dtd">
<!-- Creator: CorelDRAW 2021.5 -->
<svg xmlns="http://www.w3.org/2000/svg" xml:space="preserve" width="100%" height="100%" version="1.1" style="shape-rendering:geometricPrecision; text-rendering:geometricPrecision; image-rendering:optimizeQuality; fill-rule:evenodd; clip-rule:evenodd"
viewBox="0 0 192.02 192.02"
 xmlns:xlink="http://www.w3.org/1999/xlink"
 xmlns:xodm="http://www.corel.com/coreldraw/odm/2003">
 <defs>
  <style type="text/css">
   <![CDATA[
    .fil0 {fill:none;fill-rule:nonzero}
    .fil1 {fill:#8C2898;fill-rule:nonzero}
    .fil2 {fill:white;fill-rule:nonzero}
   ]]>
  </style>
   <clipPath id="id0" style="clip-rule:nonzero">
    <path d="M3.5 101.64c61.7,26.4 123.36,28.01 185.07,0.14 0.14,-1.94 0.19,-3.83 0.19,-5.77 0,-25.6 -10.36,-48.79 -27.16,-65.54 -16.8,-16.8 -39.94,-27.16 -65.54,-27.16 -25.6,0 -48.79,10.36 -65.54,27.16 -16.8,16.8 -27.16,39.94 -27.16,65.54 0,1.89 0.05,3.79 0.19,5.68l-0.05 -0.05z"/>
   </clipPath>
    <clipPath id="id1">
     <path d="M24.32 109.6c46.38,15.61 92.74,16.91 139.13,1.91l0 -79.14c-0.61,-0.64 -1.22,-1.27 -1.85,-1.9 -16.8,-16.8 -39.94,-27.16 -65.54,-27.16 -25.6,0 -48.79,10.36 -65.54,27.16 -2.18,2.18 -4.25,4.47 -6.2,6.85l0 72.28z"/>
    </clipPath>
    <clipPath id="id2">
     <path d="M3.5 101.64c61.7,26.4 123.36,28.01 185.07,0.14 0.14,-1.94 0.19,-3.83 0.19,-5.77 0,-25.6 -10.36,-48.79 -27.16,-65.54 -16.8,-16.8 -39.94,-27.16 -65.54,-27.16 -25.6,0 -48.79,10.36 -65.54,27.16 -16.8,16.8 -27.16,39.94 -27.16,65.54 0,1.89 0.05,3.79 0.19,5.68l-0.05 -0.05z"/>
    </clipPath>
 </defs>
 <g id="Layer_x0020_1">
  <metadata id="CorelCorpID_0Corel-Layer"/>
  <g>
  </g>
  <g style="clip-path:url(#id0)">
   <g id="_1788544279696">
   </g>
   <g style="clip-path:url(#id1)">
   </g>
   <g style="clip-path:url(#id2)">
   </g>
  </g>
  <path class="fil0" d="M3.5 101.64c61.7,26.4 123.36,28.01 185.07,0.14 0.14,-1.94 0.19,-3.83 0.19,-5.77 0,-25.6 -10.36,-48.79 -27.16,-65.54 -16.8,-16.8 -39.94,-27.16 -65.54,-27.16 -25.6,0 -48.79,10.36 -65.54,27.16 -16.8,16.8 -27.16,39.94 -27.16,65.54 0,1.89 0.05,3.79 0.19,5.68l-0.05 -0.05z"/>
  <path class="fil1" d="M57.02 38.42c-2.27,1.51 -5.35,0.95 -6.86,-1.32 -1.51,-2.27 -0.95,-5.35 1.32,-6.86 1.04,-0.71 2.18,-1.42 3.31,-2.13 1.37,-0.85 2.51,-1.51 3.36,-1.99 2.41,-1.32 5.44,-0.43 6.72,1.99 1.32,2.41 0.43,5.44 -1.99,6.72 -1.28,0.71 -2.27,1.28 -2.98,1.7 -0.95,0.57 -1.94,1.18 -2.89,1.85l0 0.05zm38.99 -38.42c26.5,0 50.54,10.74 67.9,28.11 17.37,17.37 28.11,41.4 28.11,67.9 0,26.5 -10.74,50.54 -28.11,67.9 -17.37,17.37 -41.4,28.11 -67.9,28.11 -26.5,0 -50.54,-10.74 -67.9,-28.11 -17.37,-17.37 -28.11,-41.4 -28.11,-67.9 0,-26.5 10.74,-50.54 28.11,-67.9 17.37,-17.37 41.4,-28.11 67.9,-28.11zm-92.51 101.64c61.7,26.4 123.36,28.01 185.07,0.14 0.14,-1.94 0.19,-3.83 0.19,-5.77 0,-25.6 -10.36,-48.79 -27.16,-65.54 -16.8,-16.8 -39.94,-27.16 -65.54,-27.16 -25.6,0 -48.79,10.36 -65.54,27.16 -16.8,16.8 -27.16,39.94 -27.16,65.54 0,1.89 0.05,3.79 0.19,5.68l-0.05 -0.05zm24.46 -19.83c-0.57,2.7 -3.17,4.4 -5.87,3.83 -2.7,-0.57 -4.4,-3.17 -3.83,-5.87 1.61,-7.67 4.31,-15.05 8.04,-21.86 3.74,-6.81 8.47,-13.11 14.05,-18.6 1.94,-1.94 5.11,-1.89 7,0.05 1.94,1.94 1.89,5.06 -0.05,7 -4.92,4.83 -9.04,10.32 -12.3,16.28 -3.26,5.96 -5.63,12.4 -7.05,19.12l0 0.05z"/>
  <path class="fil2" d="M29.81 120.37l4.51 1.04 0 -2.65 3.03 0.7 0 2.65 4.35 1 0 3.21 -0.78 -0.18c0.04,8.61 0.29,16.41 0.74,23.39l-2.55 -0.58c-0.41,-4.68 -0.62,-12.47 -0.64,-23.37l-1.13 -0.26 0 23.95 -3.03 -0.7 0 -23.95 -1.06 -0.24c-0.11,8.03 -0.31,15.73 -0.62,23.11l-2.55 -0.58c0.45,-7.2 0.69,-14.89 0.71,-23.09l-1 -0.23 0 -3.21zm18.15 12.6l3.52 0.81 -5 13.05c0,0.42 0.2,0.69 0.61,0.8l4.71 1.08c0.64,0.06 0.97,-0.32 0.97,-1.13l0 -5.53 3.09 0.71 0 6.95c-0.11,1.8 -1.19,2.57 -3.26,2.3l-8.15 -1.87c-0.86,-0.26 -1.45,-1.04 -1.77,-2.33 0,-0.38 0.07,-0.85 0.23,-1.41l5.06 -13.43zm-2.54 -11.3l3.13 0.72c-0.75,6.51 -2.89,11.54 -6.42,15.1l0 -4.86c1.76,-3.06 2.86,-6.71 3.29,-10.95zm5.03 1.12l3.03 0.69c0.63,5.43 2.05,9.66 4.29,12.66l0 4.53c-3.59,-2.99 -6.03,-8.95 -7.32,-17.89zm13.35 7.03l5.53 0.5 0 -4.7 3.17 0.28 0 4.7 9.39 0.84 0 -4.7 3.26 0.29 0 4.7 5.27 0.47 0 3.25 -5.27 -0.47 0 9.22 6.26 0.56 0 3.31 -6.26 -0.56 0 9.43 -3.26 -0.29 0 -9.43 -10.84 -0.97c-0.37,1.16 -0.82,2.25 -1.32,3.26 -1.63,3.09 -3.2,5.01 -4.71,5.73l0 -4.47c1.19,-1.28 2.11,-2.89 2.77,-4.82l-4.94 -0.44 0 -3.31 5.83 0.52c0.39,-2.04 0.6,-4.3 0.62,-6.79l0.03 -2.38 -5.53 -0.5 0 -3.25zm8.7 4.03l0 2.48c-0.02,2.38 -0.23,4.61 -0.63,6.69l10.02 0.9 0 -9.22 -9.39 -0.84zm37.81 5.13c-0.2,0.55 -0.4,1.07 -0.6,1.57l-3.46 0.29 0 0.93 -2.87 0.24 0 8.11c1.1,-0.21 2.21,-0.46 3.33,-0.78l0 3.21c-2.64,0.65 -5.91,1.22 -9.82,1.73l0 -3.14c1.1,-0.12 2.22,-0.27 3.36,-0.45l0 -8.41 -3.36 0.28 0 -3.1 3.36 -0.28 0 -7.68 -3.2 0.27 0 -2.94 9.43 -0.8 0 2.94 -3.1 0.26 0 7.68 2.87 -0.24 0 1.98c1.56,-3.99 2.95,-8.54 4.19,-13.65l7.05 -0.6c2.06,0 3.46,0.71 4.18,2.12 1.56,3.11 2.95,6.67 4.15,10.66l-3.76 0.32c-0.13,-0.49 -0.25,-0.99 -0.36,-1.49l-11.4 0.96zm10.45 -3.96c-0.53,-1.59 -1.13,-3.11 -1.81,-4.54 -0.29,-0.7 -0.88,-1.06 -1.78,-1.07l-4.28 0.36c-0.48,2.14 -1.01,4.16 -1.58,6.06l9.46 -0.8zm-12.95 7.02l12.53 -1.06c0.92,0.01 1.67,0.24 2.24,0.7 0.68,0.41 1.14,0.97 1.36,1.7 0.22,1.04 0.33,2.87 0.33,5.5 0,1.65 -0.36,2.96 -1.09,3.92 -0.73,0.93 -1.79,1.49 -3.2,1.69 -2.06,0.17 -3.62,0.26 -4.68,0.23l0 -3.04c1.17,0.01 2.53,-0.05 4.09,-0.18 1.07,-0.09 1.65,-0.9 1.72,-2.43 0,-1.74 -0.02,-3.04 -0.07,-3.9 -0.15,-0.81 -0.72,-1.21 -1.72,-1.22l-5.07 0.43 0 11.54 -3.13 0.26 0 -11.54 -3.3 0.28 0 -2.91zm23.41 -15.76l10.46 -2.17c0.41,-0.77 0.77,-1.56 1.1,-2.37l3.34 -0.69c-0.24,0.79 -0.51,1.57 -0.81,2.31l12.14 -2.52 0 3.08 -6.61 1.37c2.09,1.73 4.54,2.63 7.35,2.71l0 3.61c-1.38,-0.11 -2.65,-0.32 -3.82,-0.63l0 1.69 -19.85 4.12 0 -1.42c-1.1,0.6 -2.27,1.19 -3.5,1.75l0 -3.51c3.39,-1.54 6.12,-3.51 8.2,-5.91l-8 1.66 0 -3.08zm6.7 6.75l14.06 -2.92c-2.03,-0.95 -3.68,-2.29 -4.95,-4.04l-3.5 0.73c-1.43,2.35 -3.29,4.42 -5.6,6.23zm-7.29 7.66l27.37 -5.68 0 3.14 -11.72 2.43c0.11,0.99 0.2,2.12 0.29,3.38 0,1.65 -0.12,2.78 -0.36,3.38 -0.32,1.81 -1.67,3.08 -4.05,3.81 -1.86,0.39 -3.39,0.64 -4.6,0.76l0 -3.08c1.23,-0.08 2.42,-0.24 3.56,-0.47 1.47,-0.3 2.24,-1.26 2.3,-2.86 -0.04,-1.54 -0.14,-2.96 -0.29,-4.28l-12.5 2.59 0 -3.14zm4.15 3.44l2.88 -0.6c-0.1,4.01 -2.08,7.12 -5.93,9.3l0 -3.17c2.03,-1.44 3.05,-3.28 3.05,-5.53zm16.26 -3.27l2.98 -0.62c0.13,1.63 1.13,2.78 3.01,3.48l0 3.67c-3.28,-0.86 -5.28,-3.04 -5.99,-6.53z"/>
 </g>
</svg>
