<?xml version="1.0" encoding="UTF-8"?>
<!DOCTYPE svg PUBLIC "-//W3C//DTD SVG 1.1//EN" "http://www.w3.org/Graphics/SVG/1.1/DTD/svg11.dtd">
<!-- Creator: CorelDRAW 2021.5 -->
<svg xmlns="http://www.w3.org/2000/svg" xml:space="preserve" width="100%" height="100%" version="1.1" style="shape-rendering:geometricPrecision; text-rendering:geometricPrecision; image-rendering:optimizeQuality; fill-rule:evenodd; clip-rule:evenodd"
viewBox="0 0 247.13 247.13"
 xmlns:xlink="http://www.w3.org/1999/xlink"
 xmlns:xodm="http://www.corel.com/coreldraw/odm/2003">
 <defs>
  <style type="text/css">
   <![CDATA[
    .fil0 {fill:none;fill-rule:nonzero}
    .fil1 {fill:#8C2898;fill-rule:nonzero}
    .fil2 {fill:white;fill-rule:nonzero}
   ]]>
  </style>
   <clipPath id="id0" style="clip-rule:nonzero">
    <path d="M4.51 130.81c79.41,33.98 158.77,36.05 238.18,0.18 0.18,-2.5 0.24,-4.93 0.24,-7.43 0,-32.95 -13.34,-62.79 -34.96,-84.35 -21.62,-21.62 -51.4,-34.96 -84.35,-34.96 -32.95,0 -62.79,13.34 -84.35,34.96 -21.62,21.62 -34.96,51.4 -34.96,84.35 0,2.44 0.06,4.87 0.24,7.31l-0.06 -0.06z"/>
   </clipPath>
    <clipPath id="id1">
     <path d="M31.3 141.05c59.69,20.09 119.36,21.77 179.05,2.46l0 -101.85c-0.78,-0.83 -1.57,-1.64 -2.38,-2.44 -21.62,-21.62 -51.4,-34.96 -84.35,-34.96 -32.95,0 -62.79,13.34 -84.35,34.96 -2.8,2.8 -5.47,5.75 -7.98,8.82l0 93.02z"/>
    </clipPath>
    <clipPath id="id2">
     <path d="M4.51 130.81c79.41,33.98 158.77,36.05 238.18,0.18 0.18,-2.5 0.24,-4.93 0.24,-7.43 0,-32.95 -13.34,-62.79 -34.96,-84.35 -21.62,-21.62 -51.4,-34.96 -84.35,-34.96 -32.95,0 -62.79,13.34 -84.35,34.96 -21.62,21.62 -34.96,51.4 -34.96,84.35 0,2.44 0.06,4.87 0.24,7.31l-0.06 -0.06z"/>
    </clipPath>
 </defs>
 <g id="Layer_x0020_1">
  <metadata id="CorelCorpID_0Corel-Layer"/>
  <g>
  </g>
  <g style="clip-path:url(#id0)">
   <g id="_1788542841168">
   </g>
   <g style="clip-path:url(#id1)">
   </g>
   <g style="clip-path:url(#id2)">
   </g>
  </g>
  <path class="fil0" d="M4.51 130.81c79.41,33.98 158.77,36.05 238.18,0.18 0.18,-2.5 0.24,-4.93 0.24,-7.43 0,-32.95 -13.34,-62.79 -34.96,-84.35 -21.62,-21.62 -51.4,-34.96 -84.35,-34.96 -32.95,0 -62.79,13.34 -84.35,34.96 -21.62,21.62 -34.96,51.4 -34.96,84.35 0,2.44 0.06,4.87 0.24,7.31l-0.06 -0.06z"/>
  <path class="fil1" d="M73.38 49.45c-2.92,1.95 -6.88,1.22 -8.83,-1.71 -1.95,-2.92 -1.22,-6.88 1.71,-8.83 1.34,-0.91 2.8,-1.83 4.26,-2.74 1.77,-1.1 3.23,-1.95 4.32,-2.56 3.11,-1.71 7,-0.55 8.65,2.56 1.71,3.11 0.55,7 -2.56,8.65 -1.64,0.91 -2.92,1.64 -3.84,2.19 -1.22,0.73 -2.5,1.52 -3.72,2.37l0 0.06zm50.18 -49.45c34.1,0 65.04,13.82 87.39,36.17 22.35,22.35 36.17,53.29 36.17,87.39 0,34.1 -13.82,65.04 -36.17,87.39 -22.35,22.35 -53.29,36.17 -87.39,36.17 -34.1,0 -65.04,-13.82 -87.39,-36.17 -22.35,-22.35 -36.17,-53.29 -36.17,-87.39 0,-34.1 13.82,-65.04 36.17,-87.39 22.35,-22.35 53.29,-36.17 87.39,-36.17zm-119.06 130.81c79.41,33.98 158.77,36.05 238.18,0.18 0.18,-2.5 0.24,-4.93 0.24,-7.43 0,-32.95 -13.34,-62.79 -34.96,-84.35 -21.62,-21.62 -51.4,-34.96 -84.35,-34.96 -32.95,0 -62.79,13.34 -84.35,34.96 -21.62,21.62 -34.96,51.4 -34.96,84.35 0,2.44 0.06,4.87 0.24,7.31l-0.06 -0.06zm31.49 -25.52c-0.73,3.47 -4.08,5.66 -7.55,4.93 -3.47,-0.73 -5.66,-4.08 -4.93,-7.55 2.07,-9.87 5.54,-19.37 10.35,-28.14 4.81,-8.77 10.9,-16.87 18.09,-23.93 2.5,-2.5 6.58,-2.44 9.01,0.06 2.5,2.5 2.44,6.52 -0.06,9.01 -6.33,6.21 -11.63,13.28 -15.83,20.95 -4.2,7.67 -7.25,15.96 -9.07,24.6l0 0.06z"/>
  <path class="fil2" d="M44.49 152.86l4.18 1.02 0 2.38 15.3 3.74 0 3.83 -5.34 -1.3c-1.35,1.6 -3.23,2.82 -5.63,3.65 1.38,0.53 2.84,1.04 4.38,1.49 2.15,0.61 4.41,1.21 6.78,1.79l0 4.05c-7.5,-1.89 -13.31,-3.94 -17.45,-6.14 -4.11,0.3 -9.98,-0.48 -17.62,-2.35l0 -3.92c4.57,1.12 8.39,1.85 11.45,2.2 -2.6,-2.08 -4.62,-4.3 -6.08,-6.68l-5.29 -1.29 0 -3.83 15.3 3.74 0 -2.38zm-5 4.99c1.88,1.99 4.33,3.82 7.36,5.5 3.01,-0.2 5.31,-0.88 6.91,-2.02l-14.27 -3.49zm-7.69 9.1l3.93 0.96 0 7.53c-0.42,7.42 -2.43,11.5 -6.03,12.23l0 -4.94c1.24,-0.92 1.94,-3.72 2.1,-8.42l0 -7.37zm26.51 6.35l3.8 0.93 0 21.32 -3.8 -0.93 0 -21.32zm-20.55 -4.9l18.28 4.47 0 3.71 -18.28 -4.47 0 -3.71zm-0.54 5.19l19.44 4.75 0 3.7 -8.07 -1.97c0.03,2 0.04,4.09 0.04,6.27 0,1.56 -0.26,2.73 -0.78,3.51 -0.78,0.8 -1.62,1.1 -2.53,0.91l-3.8 -0.93 0 -3.49 2.28 0.56c0.77,0.19 1.16,-0.15 1.16,-1 0,-2.16 -0.01,-4.4 -0.04,-6.74l-7.69 -1.88 0 -3.7zm1.91 5.62l3.39 0.83c-0.11,4.68 -2.11,7.37 -6,8.07l0 -4.56c1.74,-0.6 2.61,-2.04 2.61,-4.34zm11.53 2.9l3.44 0.84c0.08,1.76 0.93,3.42 2.56,5.01l0 5.11c-3.28,-2.71 -5.28,-6.35 -6,-10.96zm20.96 -20.71l8.19 1.08 0 -1.87 4.18 0.55 0 1.87 11.06 1.46 0 -2.09 4.18 0.55 0 2.09 7.98 1.05 0 3.75 -7.98 -1.05 0 1.83 -4.18 -0.55 0 -1.83 -11.06 -1.46 0 1.83 -4.18 -0.55 0 -1.83 -8.19 -1.08 0 -3.75zm7.43 7.45c2.39,0.63 3.68,2.08 3.88,4.38 0.45,2.47 0.67,6.22 0.67,11.24 0,4.17 -0.05,7.19 -0.17,9.05 0,3.15 -1.15,4.63 -3.46,4.44 -1.01,-0.19 -2.04,-0.38 -3.08,-0.58l0 -3.57c0.76,0.19 1.51,0.33 2.23,0.43 0.53,-0.05 0.81,-0.46 0.84,-1.26 0.06,-1.63 0.1,-3.22 0.13,-4.75l-4.09 -0.54c-0.2,4.74 -0.51,7.97 -0.93,9.67l-3.51 -0.46c0.74,-3.82 1.15,-9.4 1.22,-16.74l0 -12.13 6.25 0.82zm-2.92 15.32l3.97 0.52c0,-0.15 0,-0.28 0,-0.43 0,-1.42 -0.01,-2.75 -0.04,-4.01l-3.88 -0.51 0 0.81c-0.03,1.25 -0.04,2.45 -0.04,3.61zm0.04 -8l3.72 0.49c-0.06,-1.11 -0.14,-2.21 -0.25,-3.27 0,-0.71 -0.47,-1.18 -1.4,-1.42l-2.07 -0.27 0 4.47zm10.85 -5.55l3.67 0.48c0.28,0.97 0.52,1.93 0.71,2.86l2.28 0.3c0.31,-1.03 0.52,-2.13 0.63,-3.28l3.46 0.46c-0.11,1.18 -0.3,2.28 -0.55,3.29l2.49 0.33c0.45,-0.94 0.81,-1.85 1.1,-2.75l3.72 0.49c-0.37,1.03 -0.75,1.94 -1.15,2.74l2.95 0.39 0 3.28 -5.99 -0.79c0.31,0.87 0.68,1.68 1.1,2.45l5.82 0.77 0 3.44 -3.16 -0.42c0.99,1.1 2.12,2.1 3.42,3.01l-0.04 3.87c-0.93,-0.55 -1.8,-1.13 -2.62,-1.75l0 1.4c-1.49,-0.14 -3.36,-0.25 -5.61,-0.31l0 -3.07c1.12,-0.03 2.27,-0.01 3.42,0.02 -1.1,-1.11 -2.07,-2.36 -2.92,-3.75l-6.96 -0.92c-1.16,1.18 -2.51,2.18 -4.06,3 1.74,0.28 3.14,0.54 4.18,0.76l0 2.98c-1.4,-0.3 -3.57,-0.67 -6.5,-1.11l0 -1.58c-0.48,0.19 -0.97,0.35 -1.48,0.49l0 -3.53c1.09,-0.46 2.11,-1 3.04,-1.65l-2.92 -0.38 0 -3.44 6.12 0.81c0.48,-0.65 0.93,-1.35 1.35,-2.12l-7.14 -0.94 0 -3.28 2.45 0.32c-0.22,-0.91 -0.5,-1.87 -0.84,-2.88zm10.85 9.78c-0.37,-0.76 -0.68,-1.56 -0.93,-2.42l-0.68 -0.09c-0.31,0.79 -0.68,1.5 -1.09,2.16l2.7 0.36zm-3.67 10.41c-0.03,-1.94 -0.04,-3.94 -0.04,-6.01l3.8 0.5c0.02,1.91 0.04,3.95 0.04,6.14 2.87,1.54 5.98,2.89 9.33,4.04l0 3.45c-3.37,-0.9 -6.48,-2.12 -9.33,-3.66 -0.08,1.35 -0.4,2.42 -0.96,3.23 -0.88,0.97 -1.84,1.39 -2.92,1.28l-4.52 -0.59 0 -3.49 3.08 0.41c1.02,0.13 1.52,-0.3 1.52,-1.3 0,-0.14 0,-0.28 0,-0.42 -2.14,0.31 -5.16,0.51 -9.08,0.59l0 -3.71c3.18,-0.03 6.21,-0.19 9.08,-0.46zm52.3 -17.54l-18.8 0.76c-1.22,2.91 -2.53,5.49 -3.91,7.73 3.15,-0.74 6.04,-1.17 8.67,-1.28 3.52,-0.14 6.53,0.35 9.02,1.47 3.17,1.49 4.76,3.85 4.76,7.08 0,7.07 -5.43,10.83 -16.29,11.26 -5.42,0.22 -9.77,-0.04 -13.06,-0.75l0 -4.77c2.69,1.06 6.62,1.48 11.78,1.28 8.6,-0.35 12.88,-2.49 12.88,-6.44 0,-3.52 -3.08,-5.15 -9.27,-4.9 -4.37,0.18 -9.31,1.31 -14.85,3.4l0 -3.78c2.04,-2.89 3.93,-6.26 5.65,-10.1l-10.93 0.44 0 -4.09 12.51 -0.5c0.57,-1.44 1.13,-3.05 1.7,-4.83l4.64 -0.19c-0.68,1.9 -1.23,3.51 -1.66,4.83l17.14 -0.69 0 4.09zm35.39 13.39l0 5.11c-2.72,-1.41 -5.3,-2.48 -7.74,-3.2 -1,4.64 -4.09,7.37 -9.25,8.19 -2.32,0.37 -4.22,0.15 -5.68,-0.67 -1.71,-0.92 -2.56,-2.52 -2.56,-4.79 0,-2.3 0.78,-4.16 2.35,-5.57 1.43,-1.25 3.32,-2.06 5.68,-2.43 1.71,-0.27 3.6,-0.29 5.68,-0.05l0 -11.58 -13.54 2.15 0 -4.08 13.54 -2.15 0 -6.39 4.25 -0.67 0 6.39 7.19 -1.14 0 4.08 -7.19 1.14 0 13.07c2.41,0.58 4.84,1.45 7.27,2.6zm-27.32 10.98l-4.33 0.69c-0.9,-7.15 -1.34,-13.07 -1.34,-17.75 0,-5.08 0.44,-10.42 1.34,-16.01l4.25 -0.67c-0.9,5.51 -1.34,10.84 -1.34,16.01 0,4.51 0.47,10.43 1.43,17.74zm15.6 -10.01c-1.97,-0.28 -3.79,-0.29 -5.47,-0.03 -2.5,0.4 -3.75,1.4 -3.75,3.02 0,1.61 1.32,2.22 3.95,1.8 3.09,-0.49 4.84,-2.09 5.26,-4.79zm47.31 -14.05c0,7.61 -5.32,12.68 -15.98,15.22 -8.37,1.99 -12.55,0.57 -12.55,-4.29 0,-2.15 0.84,-3.94 2.53,-5.37 1.32,-1.14 3.05,-1.96 5.17,-2.47 2.18,-0.52 4.43,-0.26 6.75,0.77 2.16,1.02 3.94,2.5 5.34,4.43 3.07,-1.84 4.6,-4.27 4.6,-7.31 0,-4.57 -3.33,-6.06 -9.99,-4.47 -4.14,0.99 -7.62,2.46 -10.43,4.4 -1.33,0.94 -4.17,3.44 -8.53,7.48l0 -5.15 19.5 -18.01 -15.2 3.63 0 -4.26 18.26 -4.36c1.46,-0.35 2.49,-0.47 3.07,-0.35 0.94,0.18 1.41,0.86 1.41,2.05 0,0.8 -0.35,1.59 -1.04,2.38 -0.22,0.23 -0.88,0.82 -1.99,1.8l-9.15 8.06c1.74,-0.93 3.11,-1.51 4.1,-1.75 4.17,-0.99 7.47,-0.97 9.9,0.07 2.81,1.26 4.22,3.76 4.22,7.51zm-13.25 10.23c-2.54,-2.52 -5.06,-3.48 -7.58,-2.88 -2.35,0.56 -3.52,1.42 -3.52,2.58 0,2.02 2.79,2.36 8.37,1.03 0.96,-0.23 1.87,-0.48 2.73,-0.73z"/>
 </g>
</svg>
