<?xml version="1.0" encoding="UTF-8"?>
<!DOCTYPE svg PUBLIC "-//W3C//DTD SVG 1.1//EN" "http://www.w3.org/Graphics/SVG/1.1/DTD/svg11.dtd">
<!-- Creator: CorelDRAW 2021.5 -->
<svg xmlns="http://www.w3.org/2000/svg" xml:space="preserve" width="100%" height="100%" version="1.1" style="shape-rendering:geometricPrecision; text-rendering:geometricPrecision; image-rendering:optimizeQuality; fill-rule:evenodd; clip-rule:evenodd"
viewBox="0 0 132.8 132.8"
 xmlns:xlink="http://www.w3.org/1999/xlink"
 xmlns:xodm="http://www.corel.com/coreldraw/odm/2003">
 <defs>
  <style type="text/css">
   <![CDATA[
    .fil0 {fill:none;fill-rule:nonzero}
    .fil1 {fill:#8C2898;fill-rule:nonzero}
    .fil2 {fill:white;fill-rule:nonzero}
   ]]>
  </style>
   <clipPath id="id0" style="clip-rule:nonzero">
    <path d="M2.42 70.29c42.67,18.26 85.31,19.37 127.99,0.1 0.1,-1.34 0.13,-2.65 0.13,-3.99 0,-17.7 -7.17,-33.74 -18.78,-45.32 -11.62,-11.62 -27.62,-18.78 -45.32,-18.78 -17.7,0 -33.74,7.17 -45.32,18.78 -11.62,11.62 -18.78,27.62 -18.78,45.32 0,1.31 0.03,2.62 0.13,3.93l-0.03 -0.03z"/>
   </clipPath>
    <clipPath id="id1">
     <path d="M16.82 75.8c32.08,10.8 64.14,11.7 96.21,1.32l0 -54.73c-0.42,-0.44 -0.85,-0.88 -1.28,-1.31 -11.62,-11.62 -27.62,-18.78 -45.32,-18.78 -17.7,0 -33.74,7.17 -45.32,18.78 -1.51,1.51 -2.94,3.09 -4.29,4.74l0 49.98z"/>
    </clipPath>
    <clipPath id="id2">
     <path d="M2.42 70.29c42.67,18.26 85.31,19.37 127.99,0.1 0.1,-1.34 0.13,-2.65 0.13,-3.99 0,-17.7 -7.17,-33.74 -18.78,-45.32 -11.62,-11.62 -27.62,-18.78 -45.32,-18.78 -17.7,0 -33.74,7.17 -45.32,18.78 -11.62,11.62 -18.78,27.62 -18.78,45.32 0,1.31 0.03,2.62 0.13,3.93l-0.03 -0.03z"/>
    </clipPath>
 </defs>
 <g id="Layer_x0020_1">
  <metadata id="CorelCorpID_0Corel-Layer"/>
  <g>
  </g>
  <g style="clip-path:url(#id0)">
   <g id="_1787844394048">
   </g>
   <g style="clip-path:url(#id1)">
   </g>
   <g style="clip-path:url(#id2)">
   </g>
  </g>
  <path class="fil0" d="M2.42 70.29c42.67,18.26 85.31,19.37 127.99,0.1 0.1,-1.34 0.13,-2.65 0.13,-3.99 0,-17.7 -7.17,-33.74 -18.78,-45.32 -11.62,-11.62 -27.62,-18.78 -45.32,-18.78 -17.7,0 -33.74,7.17 -45.32,18.78 -11.62,11.62 -18.78,27.62 -18.78,45.32 0,1.31 0.03,2.62 0.13,3.93l-0.03 -0.03z"/>
  <path class="fil1" d="M39.43 26.57c-1.57,1.05 -3.7,0.65 -4.75,-0.92 -1.05,-1.57 -0.65,-3.7 0.92,-4.75 0.72,-0.49 1.51,-0.98 2.29,-1.47 0.95,-0.59 1.73,-1.05 2.32,-1.37 1.67,-0.92 3.76,-0.29 4.65,1.37 0.92,1.67 0.29,3.76 -1.37,4.65 -0.88,0.49 -1.57,0.88 -2.06,1.18 -0.65,0.39 -1.34,0.82 -2,1.28l0 0.03zm26.97 -26.57c18.33,0 34.95,7.43 46.96,19.44 12.01,12.01 19.44,28.63 19.44,46.96 0,18.33 -7.43,34.95 -19.44,46.96 -12.01,12.01 -28.63,19.44 -46.96,19.44 -18.33,0 -34.95,-7.43 -46.96,-19.44 -12.01,-12.01 -19.44,-28.63 -19.44,-46.96 0,-18.33 7.43,-34.95 19.44,-46.96 12.01,-12.01 28.63,-19.44 46.96,-19.44zm-63.98 70.29c42.67,18.26 85.31,19.37 127.99,0.1 0.1,-1.34 0.13,-2.65 0.13,-3.99 0,-17.7 -7.17,-33.74 -18.78,-45.32 -11.62,-11.62 -27.62,-18.78 -45.32,-18.78 -17.7,0 -33.74,7.17 -45.32,18.78 -11.62,11.62 -18.78,27.62 -18.78,45.32 0,1.31 0.03,2.62 0.13,3.93l-0.03 -0.03zm16.92 -13.71c-0.39,1.87 -2.19,3.04 -4.06,2.65 -1.87,-0.39 -3.04,-2.19 -2.65,-4.06 1.11,-5.3 2.98,-10.41 5.56,-15.12 2.59,-4.71 5.86,-9.06 9.72,-12.86 1.34,-1.34 3.53,-1.31 4.84,0.03 1.34,1.34 1.31,3.5 -0.03,4.84 -3.4,3.34 -6.25,7.13 -8.51,11.26 -2.26,4.12 -3.89,8.57 -4.88,13.22l0 0.03z"/>
  <path class="fil2" d="M29.59 83.48l2.43 0.54 0 1.24 8.4 1.85 0 1.94 -19.14 -4.22 0 -1.94 8.31 1.83 0 -1.24zm-8.22 2.37l5.21 1.15c0.49,0.17 0.89,0.45 1.2,0.84 0.31,0.39 0.5,0.82 0.56,1.31 0.09,0.46 0.14,1.17 0.14,2.13 -0.12,1.25 -0.82,1.74 -2.1,1.46 -0.72,-0.16 -1.36,-0.35 -1.92,-0.58l0 -1.65c0.45,0.16 0.88,0.29 1.32,0.38 0.61,0.13 0.92,-0.09 0.94,-0.66 0,-0.4 -0.04,-0.73 -0.11,-0.99 -0.01,-0.39 -0.18,-0.61 -0.49,-0.68l-1.52 -0.34c-0.24,2.15 -1.24,3.55 -3.02,4.21l0.02 -2.4c0.69,-0.5 1.1,-1.24 1.25,-2.2l-1.48 -0.33 0 -1.67zm6.08 0.93l2.21 0.49 1.19 1.47 1.36 -0.93 2.15 0.47 -0.54 0.47c2.26,0.46 4.38,0.81 6.34,1.06l0 1.76c-0.39,-0.06 -0.77,-0.12 -1.14,-0.18 0.18,0.8 0.59,1.54 1.23,2.19l0 2.59c-1.51,-1.25 -2.5,-2.93 -2.97,-5.05 -0.56,-0.1 -1.13,-0.21 -1.7,-0.33l0 2.06c0.06,0.33 0.37,0.56 0.91,0.68 0.43,0.09 0.81,0.15 1.14,0.16l0 1.58c-0.79,-0.04 -1.5,-0.13 -2.12,-0.27 -1.12,-0.25 -1.76,-0.77 -1.92,-1.57l0 -4.53 -1.78 1.53 0 3.66 -2.04 -0.45 0 -3.7 -2.32 -3.17zm-4.45 5.68l2.08 0.46 0 0.48 11.52 2.54 0 -0.48 2.08 0.46 0 10.09 -2.08 -0.46 0 -4.97 -4.82 -1.06 0 4.85 -2.01 -0.44 0 -4.85 -4.82 -1.06c-0.39,2.74 -1.47,4.24 -3.24,4.5l0 -2.56c0.77,-0.38 1.21,-1.62 1.3,-3.74l0 -3.75zm2.08 3.78l11.52 2.54 0 -1.03 -11.52 -2.54 0 1.03zm1.68 2.86l1.72 0.38c-0.08,1.92 -1.09,3.11 -3.06,3.56l0.02 -2.26c0.86,-0.31 1.3,-0.87 1.32,-1.68zm6.16 1.34l1.74 0.38c0.04,0.7 0.41,1.36 1.09,1.98l0 2.47c-1.54,-1.18 -2.48,-2.79 -2.84,-4.84zm11.39 -12.67l4.42 0.4 0 -1.01 2.26 0.2 0 1.01 5.97 0.53 0 -1.12 2.26 0.2 0 1.12 4.31 0.39 0 2.01 -4.31 -0.39 0 0.98 -2.26 -0.2 0 -0.98 -5.97 -0.53 0 0.98 -2.26 -0.2 0 -0.98 -4.42 -0.4 0 -2.01zm4.01 3.84c1.29,0.28 1.99,1.04 2.1,2.27 0.24,1.32 0.36,3.33 0.36,6.03 0,2.24 -0.03,3.86 -0.09,4.86 0,1.69 -0.62,2.51 -1.87,2.46 -0.54,-0.08 -1.1,-0.16 -1.66,-0.24l0 -1.92c0.41,0.08 0.81,0.14 1.21,0.18 0.29,-0.04 0.44,-0.26 0.46,-0.69 0.03,-0.88 0.05,-1.73 0.07,-2.55l-2.21 -0.2c-0.11,2.55 -0.28,4.29 -0.5,5.22l-1.89 -0.17c0.4,-2.07 0.62,-5.08 0.66,-9.03l0 -6.52 3.38 0.3zm-1.57 8.3l2.14 0.19c0,-0.08 0,-0.15 0,-0.23 0,-0.76 -0.01,-1.48 -0.02,-2.15l-2.1 -0.19 0 0.44c-0.02,0.67 -0.02,1.32 -0.02,1.94zm0.02 -4.3l2.01 0.18c-0.03,-0.6 -0.08,-1.18 -0.14,-1.75 0,-0.38 -0.25,-0.62 -0.75,-0.73l-1.12 -0.1 0 2.4zm5.86 -3.23l1.98 0.18c0.15,0.52 0.28,1.02 0.38,1.52l1.23 0.11c0.17,-0.56 0.28,-1.16 0.34,-1.78l1.87 0.17c-0.06,0.63 -0.16,1.23 -0.3,1.78l1.35 0.12c0.24,-0.51 0.44,-1.01 0.59,-1.5l2.01 0.18c-0.2,0.56 -0.4,1.06 -0.62,1.5l1.59 0.14 0 1.76 -3.24 -0.29c0.17,0.46 0.37,0.89 0.6,1.29l3.14 0.28 0 1.85 -1.71 -0.15c0.53,0.57 1.15,1.08 1.85,1.54l-0.02 2.08c-0.5,-0.28 -0.97,-0.57 -1.42,-0.88l0 0.75c-0.81,-0.04 -1.81,-0.06 -3.03,-0.04l0 -1.65c0.61,-0.04 1.22,-0.06 1.85,-0.06 -0.59,-0.57 -1.12,-1.22 -1.57,-1.95l-3.76 -0.34c-0.63,0.66 -1.35,1.23 -2.19,1.71 0.94,0.11 1.7,0.22 2.26,0.32l0 1.6c-0.76,-0.13 -1.93,-0.28 -3.51,-0.45l0 -0.85c-0.26,0.11 -0.52,0.21 -0.8,0.3l0 -1.9c0.59,-0.27 1.14,-0.58 1.64,-0.95l-1.57 -0.14 0 -1.85 3.3 0.3c0.26,-0.36 0.5,-0.75 0.73,-1.17l-3.85 -0.35 0 -1.76 1.32 0.12c-0.12,-0.48 -0.27,-0.99 -0.45,-1.53zm5.86 5.01c-0.2,-0.4 -0.37,-0.83 -0.5,-1.28l-0.37 -0.03c-0.17,0.43 -0.37,0.82 -0.59,1.18l1.46 0.13zm-1.98 5.68c-0.02,-1.04 -0.02,-2.11 -0.02,-3.23l2.05 0.18c0.01,1.02 0.02,2.12 0.02,3.3 1.55,0.76 3.23,1.42 5.04,1.96l0 1.85c-1.82,-0.41 -3.5,-0.99 -5.04,-1.76 -0.04,0.73 -0.22,1.31 -0.52,1.76 -0.47,0.54 -1,0.79 -1.57,0.75l-2.44 -0.22 0 -1.87 1.66 0.15c0.55,0.05 0.82,-0.2 0.82,-0.73 0,-0.07 0,-0.15 0,-0.23 -1.15,0.22 -2.79,0.39 -4.9,0.52l0 -1.99c1.72,-0.09 3.35,-0.24 4.9,-0.45zm12.12 -14.06l10.31 -1.01c1.26,-0.12 2.21,0.01 2.84,0.41 0.33,0.18 0.59,0.45 0.78,0.81 1.09,-0.58 2.27,-1.16 3.53,-1.74l0 2.13c-1.02,0.42 -2.07,0.91 -3.17,1.48 0,0.02 0,0.04 0,0.07 1.37,-0.01 2.44,0.05 3.21,0.19l0 2.04c-0.68,-0.18 -1.64,-0.3 -2.87,-0.38 0.44,1.27 1.26,1.85 2.46,1.75 0.4,-0.07 0.84,-0.15 1.34,-0.23l0 1.92c-0.65,0.13 -1.23,0.21 -1.73,0.26 -2.77,0.27 -4.25,-1.54 -4.44,-5.44 -0.11,-0.95 -0.66,-1.38 -1.66,-1.28l-10.63 1.04 0.02 -2.02zm6.35 2.58l0 2.1c-0.61,0.13 -1.26,0.27 -1.96,0.4l0 2.9 3.01 -0.3 0 -5.51 2.16 -0.21 0 5.51 0.59 -0.06c1.29,-0.13 2.26,0.01 2.91,0.4 0.67,0.35 1.05,0.99 1.14,1.95 0,0.01 0,0.03 0,0.04 1.02,-0.69 2.13,-1.15 3.32,-1.35l0 2.01c-1.06,0.2 -2.13,0.6 -3.21,1.21 0,0.03 0,0.07 0,0.11 1.38,0 2.47,0.09 3.26,0.25l0 2.15c-0.67,-0.22 -1.62,-0.39 -2.84,-0.5 0.47,1.33 1.24,1.95 2.32,1.88 0.4,-0.09 0.85,-0.17 1.37,-0.25l0.02 2.01c-0.67,0.12 -1.26,0.21 -1.78,0.26 -2.82,0.28 -4.33,-2.02 -4.51,-6.9 -0.12,-0.93 -0.68,-1.35 -1.69,-1.25l-0.91 0.09 0 9.22 -2.16 0.21 0 -9.22 -3.01 0.3 0 0.23c-0.14,4.57 -1.73,7.7 -4.78,9.37l-0.02 -2.49c1.74,-1.08 2.64,-3.39 2.69,-6.9l-3.23 0.32 0.02 -2.06 3.21 -0.32 0 -2.72c-0.82,0.13 -1.67,0.26 -2.55,0.39l0 -2.1c1.9,-0.19 4.11,-0.58 6.62,-1.17zm24.11 -7.57l2.53 -0.53c-0.26,0.48 -0.5,0.94 -0.74,1.37l4.59 -0.95c2.37,-0.31 3.57,0.75 3.59,3.17 0,2.16 -1.05,3.6 -3.16,4.31l-11.54 2.39 0 0.85 15.7 -3.26 0 1.87 -15.7 3.26 0 0.89 12.32 -2.56c2.15,-0.22 3.28,0.83 3.38,3.14 0,2.58 -1.41,4.22 -4.21,4.92 -1.17,0.24 -2.25,0.45 -3.25,0.61l0 -2.01c0.82,-0.09 1.88,-0.27 3.16,-0.54 1.34,-0.36 2.01,-1.16 2.01,-2.41 0,-1.16 -0.56,-1.75 -1.68,-1.76l-13.91 2.89 0 -13.02 6.23 -1.29c0.21,-0.46 0.43,-0.91 0.67,-1.35zm6.48 1.74l-11.2 2.32 0 1.08 12.37 -2.57c-0.2,-0.59 -0.59,-0.86 -1.17,-0.84zm1.19 2.5l-12.39 2.57 0 0.98 10.82 -2.24c0.81,-0.18 1.33,-0.62 1.57,-1.31zm-11.29 11.52l1.97 -0.41c0.36,1.31 0.7,2.71 1.01,4.21l-2.04 0.42c-0.27,-1.44 -0.58,-2.85 -0.94,-4.22zm3.61 -0.75l1.99 -0.41c0.33,1.01 0.65,2.11 0.96,3.27l-2.04 0.42c-0.26,-1.12 -0.56,-2.21 -0.92,-3.28zm3.69 -0.77l2.11 -0.44c0.34,0.72 0.67,1.5 0.99,2.33l-2.15 0.45c-0.24,-0.82 -0.55,-1.6 -0.94,-2.34zm-10.39 2.13l1.95 -0.4c-0.07,2.35 -1.13,4.28 -3.18,5.79l0.02 -2.41c0.81,-0.85 1.21,-1.84 1.21,-2.97z"/>
 </g>
</svg>
