<?xml version="1.0" encoding="UTF-8"?>
<!DOCTYPE svg PUBLIC "-//W3C//DTD SVG 1.1//EN" "http://www.w3.org/Graphics/SVG/1.1/DTD/svg11.dtd">
<!-- Creator: CorelDRAW 2021.5 -->
<svg xmlns="http://www.w3.org/2000/svg" xml:space="preserve" width="100%" height="100%" version="1.1" style="shape-rendering:geometricPrecision; text-rendering:geometricPrecision; image-rendering:optimizeQuality; fill-rule:evenodd; clip-rule:evenodd"
viewBox="0 0 192.02 192.02"
 xmlns:xlink="http://www.w3.org/1999/xlink"
 xmlns:xodm="http://www.corel.com/coreldraw/odm/2003">
 <defs>
  <style type="text/css">
   <![CDATA[
    .fil0 {fill:none;fill-rule:nonzero}
    .fil1 {fill:#8C2898;fill-rule:nonzero}
    .fil2 {fill:white;fill-rule:nonzero}
   ]]>
  </style>
   <clipPath id="id0" style="clip-rule:nonzero">
    <path d="M3.5 101.64c61.7,26.4 123.36,28.01 185.07,0.14 0.14,-1.94 0.19,-3.83 0.19,-5.77 0,-25.6 -10.36,-48.79 -27.16,-65.54 -16.8,-16.8 -39.94,-27.16 -65.54,-27.16 -25.6,0 -48.79,10.36 -65.54,27.16 -16.8,16.8 -27.16,39.94 -27.16,65.54 0,1.89 0.05,3.79 0.19,5.68l-0.05 -0.05z"/>
   </clipPath>
    <clipPath id="id1">
     <path d="M24.32 109.6c46.38,15.61 92.74,16.91 139.13,1.91l0 -79.14c-0.61,-0.64 -1.22,-1.27 -1.85,-1.9 -16.8,-16.8 -39.94,-27.16 -65.54,-27.16 -25.6,0 -48.79,10.36 -65.54,27.16 -2.18,2.18 -4.25,4.47 -6.2,6.85l0 72.28z"/>
    </clipPath>
    <clipPath id="id2">
     <path d="M3.5 101.64c61.7,26.4 123.36,28.01 185.07,0.14 0.14,-1.94 0.19,-3.83 0.19,-5.77 0,-25.6 -10.36,-48.79 -27.16,-65.54 -16.8,-16.8 -39.94,-27.16 -65.54,-27.16 -25.6,0 -48.79,10.36 -65.54,27.16 -16.8,16.8 -27.16,39.94 -27.16,65.54 0,1.89 0.05,3.79 0.19,5.68l-0.05 -0.05z"/>
    </clipPath>
 </defs>
 <g id="Layer_x0020_1">
  <metadata id="CorelCorpID_0Corel-Layer"/>
  <g>
  </g>
  <g style="clip-path:url(#id0)">
   <g id="_1823092671968">
   </g>
   <g style="clip-path:url(#id1)">
   </g>
   <g style="clip-path:url(#id2)">
   </g>
  </g>
  <path class="fil0" d="M3.5 101.64c61.7,26.4 123.36,28.01 185.07,0.14 0.14,-1.94 0.19,-3.83 0.19,-5.77 0,-25.6 -10.36,-48.79 -27.16,-65.54 -16.8,-16.8 -39.94,-27.16 -65.54,-27.16 -25.6,0 -48.79,10.36 -65.54,27.16 -16.8,16.8 -27.16,39.94 -27.16,65.54 0,1.89 0.05,3.79 0.19,5.68l-0.05 -0.05z"/>
  <path class="fil1" d="M57.02 38.42c-2.27,1.51 -5.35,0.95 -6.86,-1.32 -1.51,-2.27 -0.95,-5.35 1.32,-6.86 1.04,-0.71 2.18,-1.42 3.31,-2.13 1.37,-0.85 2.51,-1.51 3.36,-1.99 2.41,-1.32 5.44,-0.43 6.72,1.99 1.32,2.41 0.43,5.44 -1.99,6.72 -1.28,0.71 -2.27,1.28 -2.98,1.7 -0.95,0.57 -1.94,1.18 -2.89,1.85l0 0.05zm38.99 -38.42c26.5,0 50.54,10.74 67.9,28.11 17.37,17.37 28.11,41.4 28.11,67.9 0,26.5 -10.74,50.54 -28.11,67.9 -17.37,17.37 -41.4,28.11 -67.9,28.11 -26.5,0 -50.54,-10.74 -67.9,-28.11 -17.37,-17.37 -28.11,-41.4 -28.11,-67.9 0,-26.5 10.74,-50.54 28.11,-67.9 17.37,-17.37 41.4,-28.11 67.9,-28.11zm-92.51 101.64c61.7,26.4 123.36,28.01 185.07,0.14 0.14,-1.94 0.19,-3.83 0.19,-5.77 0,-25.6 -10.36,-48.79 -27.16,-65.54 -16.8,-16.8 -39.94,-27.16 -65.54,-27.16 -25.6,0 -48.79,10.36 -65.54,27.16 -16.8,16.8 -27.16,39.94 -27.16,65.54 0,1.89 0.05,3.79 0.19,5.68l-0.05 -0.05zm24.46 -19.83c-0.57,2.7 -3.17,4.4 -5.87,3.83 -2.7,-0.57 -4.4,-3.17 -3.83,-5.87 1.61,-7.67 4.31,-15.05 8.04,-21.86 3.74,-6.81 8.47,-13.11 14.05,-18.6 1.94,-1.94 5.11,-1.89 7,0.05 1.94,1.94 1.89,5.06 -0.05,7 -4.92,4.83 -9.04,10.32 -12.3,16.28 -3.26,5.96 -5.63,12.4 -7.05,19.12l0 0.05z"/>
  <path class="fil2" d="M37.34 121c2.53,1.13 4.83,2.38 6.91,3.74l0 3.6c-2.29,-1.68 -4.59,-3.06 -6.91,-4.14l0 -3.21zm0 7.71c2.51,1.08 4.8,2.3 6.87,3.67l0 3.38c-2.31,-1.59 -4.6,-2.92 -6.87,-3.97l0 -3.08zm3.73 7.87l3.14 0.64c-1.12,4.99 -3.4,8.77 -6.84,11.32l0 -5.1c1.69,-1.44 2.92,-3.73 3.7,-6.86zm4.5 -13.71l7.81 1.58 0 -1.52 3.24 0.66 0 1.52 7.85 1.59 0 2.74 -7.85 -1.59 0 1.49 7.46 1.51 0 2.74 -7.46 -1.51 0 1.56 8.3 1.68 0 2.81 -19.74 -3.99 0 -2.81 8.2 1.66 0 -1.56 -7.36 -1.49 0 -2.74 7.36 1.49 0 -1.49 -7.81 -1.58 0 -2.74zm15.01 15.5c1.84,0.68 2.99,1.81 3.47,3.38 0.28,0.98 0.44,2.8 0.49,5.46 0,1.63 -0.06,2.92 -0.16,3.87 -0.54,2.2 -1.99,3.15 -4.35,2.82 -2.09,-0.42 -3.69,-0.84 -4.8,-1.26l0 -2.68c1.26,0.34 2.58,0.67 3.99,1 1.08,0.17 1.74,-0.09 1.98,-0.79 0,-0.13 0.01,-0.24 0.03,-0.32l-11.8 -2.38 0 4.56 -3.05 -0.62 0 -15.91 14.2 2.87zm-11.15 6.45l11.93 2.41c0,-0.22 0,-0.44 0,-0.66 0,-0.36 0,-0.69 0,-1.03l-11.93 -2.41 0 1.69zm0 -4.34l11.74 2.37c-0.02,-0.13 -0.04,-0.26 -0.07,-0.37 -0.07,-0.94 -0.61,-1.51 -1.62,-1.72l-10.05 -2.03 0 1.75zm33.58 -13.61l3.34 0.2 0 2.18 8.03 0.47c2.77,0.47 4.17,1.7 4.19,3.68 -0.07,2.26 -0.29,3.95 -0.66,5.05l-2.94 -0.17c0.02,0.27 0.03,0.55 0.03,0.87 0,2.91 -1.14,4.42 -3.43,4.53l-5.71 -0.34c-0.17,0.63 -0.41,1.21 -0.69,1.74l6.41 0.38c1.89,0.26 3.35,0.91 4.36,1.94 1.08,0.88 1.64,2.1 1.69,3.67 0,1.74 -0.5,3.03 -1.49,3.85 -1.21,1.05 -2.66,1.55 -4.36,1.5l-18.26 -1.07 0 -10.95 8.22 0.48c0.26,-0.58 0.51,-1.16 0.73,-1.74l-6.94 -0.41 0 -9.1 15.42 0.91c2.05,0.26 3.31,1.15 3.8,2.71 0.38,-1.63 0.56,-2.73 0.56,-3.31 0,-0.82 -0.61,-1.26 -1.81,-1.33l-19.12 -1.12 0 5.59 -3.23 -0.19 -0.03 -8.57 11.92 0.73 0 -2.18zm-4.32 13.37l12.08 0.71c0.77,-0.06 1.16,-0.65 1.16,-1.75 0,-1.17 -0.46,-1.84 -1.39,-2l-11.85 -0.66 0 3.7zm-1.85 12.26l13.87 0.79c2.23,0.04 3.39,-0.75 3.51,-2.37 -0.11,-1.38 -1.06,-2.21 -2.84,-2.52l-14.53 -0.85 0 4.96zm49.47 -8.26c-8.34,6.4 -14.03,9.74 -17.08,10.04 -2.81,0.28 -4.71,-0.84 -5.7,-3.34 -0.59,-1.51 -0.89,-3.97 -0.89,-7.39 0,-3.44 0.07,-8.09 0.2,-13.95l3.46 -0.34c-0.15,5.64 -0.23,9.53 -0.23,11.7 0,3.7 0.12,6.11 0.36,7.21 0.42,1.73 1.35,2.52 2.8,2.37 2.63,-0.26 8.33,-3.74 17.08,-10.44l0 4.14zm27.59 -24.16c-2.95,4.71 -6.27,8.73 -9.99,12.07l0 18.69 -3.24 0.64 0 -16.57c-3.53,2.69 -7.71,5.2 -12.56,7.52l0 -3.64c4.89,-2.41 9,-4.97 12.33,-7.7 3.42,-2.82 6.48,-6.2 9.18,-10.16l4.29 -0.85z"/>
 </g>
</svg>
