<?xml version="1.0" encoding="UTF-8"?>
<!DOCTYPE svg PUBLIC "-//W3C//DTD SVG 1.1//EN" "http://www.w3.org/Graphics/SVG/1.1/DTD/svg11.dtd">
<!-- Creator: CorelDRAW 2021.5 -->
<svg xmlns="http://www.w3.org/2000/svg" xml:space="preserve" width="100%" height="100%" version="1.1" style="shape-rendering:geometricPrecision; text-rendering:geometricPrecision; image-rendering:optimizeQuality; fill-rule:evenodd; clip-rule:evenodd"
viewBox="0 0 247.12 247.12"
 xmlns:xlink="http://www.w3.org/1999/xlink"
 xmlns:xodm="http://www.corel.com/coreldraw/odm/2003">
 <defs>
  <style type="text/css">
   <![CDATA[
    .fil0 {fill:none;fill-rule:nonzero}
    .fil1 {fill:#8C2898;fill-rule:nonzero}
    .fil2 {fill:white;fill-rule:nonzero}
   ]]>
  </style>
   <clipPath id="id0" style="clip-rule:nonzero">
    <path d="M4.45 130.81c79.41,33.98 158.76,36.05 238.17,0.18 0.18,-2.5 0.24,-4.93 0.24,-7.43 0,-32.95 -13.34,-62.79 -34.96,-84.34 -21.62,-21.62 -51.4,-34.96 -84.34,-34.96 -32.95,0 -62.79,13.34 -84.34,34.96 -21.62,21.62 -34.96,51.4 -34.96,84.34 0,2.44 0.06,4.87 0.24,7.31l-0.06 -0.06z"/>
   </clipPath>
    <clipPath id="id1">
     <path d="M31.24 141.05c59.69,20.09 119.36,21.77 179.05,2.46l0 -101.85c-0.78,-0.83 -1.57,-1.64 -2.38,-2.44 -21.62,-21.62 -51.4,-34.96 -84.34,-34.96 -32.95,0 -62.79,13.34 -84.34,34.96 -2.8,2.8 -5.47,5.75 -7.98,8.82l0 93.02z"/>
    </clipPath>
    <clipPath id="id2">
     <path d="M4.45 130.81c79.41,33.98 158.76,36.05 238.17,0.18 0.18,-2.5 0.24,-4.93 0.24,-7.43 0,-32.95 -13.34,-62.79 -34.96,-84.34 -21.62,-21.62 -51.4,-34.96 -84.34,-34.96 -32.95,0 -62.79,13.34 -84.34,34.96 -21.62,21.62 -34.96,51.4 -34.96,84.34 0,2.44 0.06,4.87 0.24,7.31l-0.06 -0.06z"/>
    </clipPath>
 </defs>
 <g id="Layer_x0020_1">
  <metadata id="CorelCorpID_0Corel-Layer"/>
  <g>
  </g>
  <g style="clip-path:url(#id0)">
   <g id="_1788546975648">
   </g>
   <g style="clip-path:url(#id1)">
   </g>
   <g style="clip-path:url(#id2)">
   </g>
  </g>
  <path class="fil0" d="M4.45 130.81c79.41,33.98 158.76,36.05 238.17,0.18 0.18,-2.5 0.24,-4.93 0.24,-7.43 0,-32.95 -13.34,-62.79 -34.96,-84.34 -21.62,-21.62 -51.4,-34.96 -84.34,-34.96 -32.95,0 -62.79,13.34 -84.34,34.96 -21.62,21.62 -34.96,51.4 -34.96,84.34 0,2.44 0.06,4.87 0.24,7.31l-0.06 -0.06z"/>
  <path class="fil1" d="M73.38 49.45c-2.92,1.95 -6.88,1.22 -8.83,-1.71 -1.95,-2.92 -1.22,-6.88 1.71,-8.83 1.34,-0.91 2.8,-1.83 4.26,-2.74 1.77,-1.1 3.23,-1.95 4.32,-2.56 3.11,-1.71 7,-0.55 8.65,2.56 1.71,3.11 0.55,7 -2.56,8.65 -1.64,0.91 -2.92,1.64 -3.84,2.19 -1.22,0.73 -2.5,1.52 -3.71,2.37l0 0.06zm50.18 -49.45c34.1,0 65.04,13.82 87.39,36.17 22.35,22.35 36.17,53.29 36.17,87.39 0,34.1 -13.82,65.04 -36.17,87.39 -22.35,22.35 -53.29,36.17 -87.39,36.17 -34.1,0 -65.04,-13.82 -87.39,-36.17 -22.35,-22.35 -36.17,-53.29 -36.17,-87.39 0,-34.1 13.82,-65.04 36.17,-87.39 22.35,-22.35 53.29,-36.17 87.39,-36.17zm-119.06 130.81c79.41,33.98 158.76,36.05 238.17,0.18 0.18,-2.5 0.24,-4.93 0.24,-7.43 0,-32.95 -13.34,-62.79 -34.96,-84.34 -21.62,-21.62 -51.4,-34.96 -84.34,-34.96 -32.95,0 -62.79,13.34 -84.34,34.96 -21.62,21.62 -34.96,51.4 -34.96,84.34 0,2.44 0.06,4.87 0.24,7.31l-0.06 -0.06zm31.48 -25.52c-0.73,3.47 -4.08,5.66 -7.55,4.93 -3.47,-0.73 -5.66,-4.08 -4.93,-7.55 2.07,-9.87 5.54,-19.37 10.35,-28.14 4.81,-8.77 10.9,-16.87 18.09,-23.93 2.5,-2.5 6.58,-2.44 9.01,0.06 2.5,2.5 2.44,6.52 -0.06,9.01 -6.33,6.21 -11.63,13.28 -15.83,20.95 -4.2,7.67 -7.25,15.95 -9.07,24.6l0 0.06z"/>
  <path class="fil2" d="M46.35 175.87l0 10.17 17.46 3.85c2.33,0.26 3.97,-0.61 4.91,-2.62 0.91,-1.53 1.45,-3.57 1.62,-6.11l-23.99 -5.29zm23.91 1.14c-0.26,-2.55 -0.86,-4.7 -1.83,-6.45 -1.19,-2.39 -3.01,-3.96 -5.45,-4.69l-16.63 -3.67 0 9.53 23.91 5.28zm-17.21 -21.89l4.7 1.04c-0.58,1.27 -1.33,2.56 -2.25,3.89l8.07 1.78c3.44,1.12 6.15,3.34 8.15,6.65 1.82,2.98 2.81,6.71 2.95,11.21 0,5.51 -0.9,9.25 -2.7,11.24 -1.83,2.57 -4.52,3.7 -8.07,3.37l-21.78 -4.81 0 -32.39 8.56 1.89c0.97,-1.32 1.76,-2.61 2.37,-3.87zm29.77 7.98l35.49 2.64 0 4.21 -19.79 -1.47c-1.33,3.16 -2.83,6.02 -4.5,8.56l11.55 0.86c3.68,0.38 6.4,1.68 8.15,3.88 1.9,2.27 2.87,4.98 2.93,8.14 0,3.2 -0.96,5.9 -2.88,8.08 -1.44,2.08 -4.27,2.96 -8.49,2.64l-15.28 -1.17 0 -17.41c-2.3,2.42 -4.83,4.31 -7.6,5.69l0 -5.27c4.72,-2.74 8.6,-7.52 11.63,-14.33l-11.21 -0.83 0 -4.21zm11.55 32.48l10.7 0.8c2.43,0.18 4.19,-0.38 5.26,-1.69 1.19,-1.04 1.78,-2.73 1.78,-5.05 -0.11,-2 -0.79,-3.75 -2.04,-5.27 -1.3,-1.34 -3.07,-2.17 -5.3,-2.48l-10.4 -0.77 0 14.47zm48.96 -32.88l4.41 -0.43 0 2.35 14.06 -1.34 0 3.65 -30.33 2.94c0,2.1 -0.01,4.2 -0.04,6.3 -0.25,8.68 -0.8,16.87 -1.61,24.59l-4.07 0.44c1.11,-8.14 1.66,-16.64 1.66,-25.49 0.06,-2.68 0.09,-5.72 0.09,-9.12l15.84 -1.55 0 -2.35zm-10.89 12.01l4.62 -0.45 0 -3.79 3.77 -0.37 0 3.79 4.87 -0.48 0 3.92 -0.93 0.09c0.12,5.52 0.41,10.62 0.89,15.29l0 7.36c-2.03,-4.12 -3.33,-11.56 -3.9,-22.35l-0.93 0.09 0 23.28 -3.77 0.37 0 -23.28 -0.93 0.09c-0.54,10.33 -2.12,18.1 -4.74,23.33l0 -7.07c0.93,-4.41 1.47,-9.72 1.61,-15.95l-0.55 0.05 0 -3.92zm14.58 -1.47l4.79 -0.47 0 -3.74 3.94 -0.39 0 3.74 5.08 -0.5 0 3.88 -0.98 0.1c0.14,5.49 0.65,10.52 1.53,15.09l0 7.37c-2.37,-4.08 -3.9,-11.47 -4.58,-22.15l-1.06 0.1 0 23.41 -3.94 0.39 0 -23.41 -0.8 0.08c-0.51,10.4 -2,18.23 -4.45,23.47l-0.04 -7.07c0.82,-4.42 1.28,-9.79 1.4,-16.1l-0.89 0.09 0 -3.88zm37.81 -17.15l4.29 -0.93 0 3.78 15.89 -3.43 0 4.09 -13.9 3c0.83,2.97 1.83,5.71 3,8.21 2.83,-2.63 5.92,-4.45 9.28,-5.45l0 4.09c-2.44,0.84 -4.97,2.36 -7.58,4.57 2.39,4 5.35,7.19 8.91,9.57l0 5.36c-8.35,-4.33 -14.23,-12.82 -17.64,-25.48l-0.38 0.08c-1.28,3.85 -3.45,7.89 -6.53,12.14 -0.19,2 -0.29,4.41 -0.29,7.26 0,1.93 0.06,3.4 0.17,4.43 0.47,2.09 1.88,2.87 4.24,2.36 4.44,-1.1 8.1,-2.21 10.99,-3.35l0 4.13c-1.75,0.94 -5.55,2.05 -11.4,3.31 -4.52,0.98 -7.14,-0.43 -7.87,-4.22 -0.16,-1.75 -0.25,-3.62 -0.25,-5.61 0,-0.97 0,-1.93 0,-2.89 -2.05,2.34 -4.34,4.71 -6.87,7.1l0 -5.06c6.82,-6.98 11.28,-13.19 13.36,-18.63l-12.98 2.8 0 -4.09 15.56 -3.36 0 -3.78z"/>
 </g>
</svg>
