<?xml version="1.0" encoding="UTF-8"?>
<!DOCTYPE svg PUBLIC "-//W3C//DTD SVG 1.1//EN" "http://www.w3.org/Graphics/SVG/1.1/DTD/svg11.dtd">
<!-- Creator: CorelDRAW 2021.5 -->
<svg xmlns="http://www.w3.org/2000/svg" xml:space="preserve" width="100%" height="100%" version="1.1" style="shape-rendering:geometricPrecision; text-rendering:geometricPrecision; image-rendering:optimizeQuality; fill-rule:evenodd; clip-rule:evenodd"
viewBox="0 0 132.8 132.8"
 xmlns:xlink="http://www.w3.org/1999/xlink"
 xmlns:xodm="http://www.corel.com/coreldraw/odm/2003">
 <defs>
  <style type="text/css">
   <![CDATA[
    .fil0 {fill:none;fill-rule:nonzero}
    .fil1 {fill:#8C2898;fill-rule:nonzero}
    .fil2 {fill:white;fill-rule:nonzero}
   ]]>
  </style>
   <clipPath id="id0" style="clip-rule:nonzero">
    <path d="M2.42 70.29c42.67,18.26 85.31,19.37 127.99,0.1 0.1,-1.34 0.13,-2.65 0.13,-3.99 0,-17.7 -7.17,-33.74 -18.78,-45.32 -11.62,-11.62 -27.62,-18.78 -45.32,-18.78 -17.7,0 -33.74,7.17 -45.32,18.78 -11.62,11.62 -18.78,27.62 -18.78,45.32 0,1.31 0.03,2.62 0.13,3.93l-0.03 -0.03z"/>
   </clipPath>
    <clipPath id="id1">
     <path d="M16.82 75.8c32.08,10.8 64.14,11.7 96.21,1.32l0 -54.73c-0.42,-0.44 -0.85,-0.88 -1.28,-1.31 -11.62,-11.62 -27.62,-18.78 -45.32,-18.78 -17.7,0 -33.74,7.17 -45.32,18.78 -1.51,1.51 -2.94,3.09 -4.29,4.74l0 49.98z"/>
    </clipPath>
    <clipPath id="id2">
     <path d="M2.42 70.29c42.67,18.26 85.31,19.37 127.99,0.1 0.1,-1.34 0.13,-2.65 0.13,-3.99 0,-17.7 -7.17,-33.74 -18.78,-45.32 -11.62,-11.62 -27.62,-18.78 -45.32,-18.78 -17.7,0 -33.74,7.17 -45.32,18.78 -11.62,11.62 -18.78,27.62 -18.78,45.32 0,1.31 0.03,2.62 0.13,3.93l-0.03 -0.03z"/>
    </clipPath>
 </defs>
 <g id="Layer_x0020_1">
  <metadata id="CorelCorpID_0Corel-Layer"/>
  <g>
  </g>
  <g style="clip-path:url(#id0)">
   <g id="_1788542849568">
   </g>
   <g style="clip-path:url(#id1)">
   </g>
   <g style="clip-path:url(#id2)">
   </g>
  </g>
  <path class="fil0" d="M2.42 70.29c42.67,18.26 85.31,19.37 127.99,0.1 0.1,-1.34 0.13,-2.65 0.13,-3.99 0,-17.7 -7.17,-33.74 -18.78,-45.32 -11.62,-11.62 -27.62,-18.78 -45.32,-18.78 -17.7,0 -33.74,7.17 -45.32,18.78 -11.62,11.62 -18.78,27.62 -18.78,45.32 0,1.31 0.03,2.62 0.13,3.93l-0.03 -0.03z"/>
  <path class="fil1" d="M39.43 26.57c-1.57,1.05 -3.7,0.65 -4.75,-0.92 -1.05,-1.57 -0.65,-3.7 0.92,-4.75 0.72,-0.49 1.51,-0.98 2.29,-1.47 0.95,-0.59 1.73,-1.05 2.32,-1.37 1.67,-0.92 3.76,-0.29 4.65,1.37 0.92,1.67 0.29,3.76 -1.37,4.65 -0.88,0.49 -1.57,0.88 -2.06,1.18 -0.65,0.39 -1.34,0.82 -2,1.28l0 0.03zm26.97 -26.57c18.33,0 34.95,7.43 46.96,19.44 12.01,12.01 19.44,28.63 19.44,46.96 0,18.33 -7.43,34.95 -19.44,46.96 -12.01,12.01 -28.63,19.44 -46.96,19.44 -18.33,0 -34.95,-7.43 -46.96,-19.44 -12.01,-12.01 -19.44,-28.63 -19.44,-46.96 0,-18.33 7.43,-34.95 19.44,-46.96 12.01,-12.01 28.63,-19.44 46.96,-19.44zm-63.98 70.29c42.67,18.26 85.31,19.37 127.99,0.1 0.1,-1.34 0.13,-2.65 0.13,-3.99 0,-17.7 -7.17,-33.74 -18.78,-45.32 -11.62,-11.62 -27.62,-18.78 -45.32,-18.78 -17.7,0 -33.74,7.17 -45.32,18.78 -11.62,11.62 -18.78,27.62 -18.78,45.32 0,1.31 0.03,2.62 0.13,3.93l-0.03 -0.03zm16.92 -13.71c-0.39,1.87 -2.19,3.04 -4.06,2.65 -1.87,-0.39 -3.04,-2.19 -2.65,-4.06 1.11,-5.3 2.98,-10.41 5.56,-15.12 2.59,-4.71 5.86,-9.06 9.72,-12.86 1.34,-1.34 3.53,-1.31 4.84,0.03 1.34,1.34 1.31,3.5 -0.03,4.84 -3.4,3.34 -6.25,7.13 -8.51,11.26 -2.26,4.12 -3.89,8.57 -4.88,13.22l0 0.03z"/>
  <path class="fil2" d="M19.15 80.87l2.01 0.49c-0.14,0.33 -0.28,0.64 -0.42,0.92l4.58 1.12 0 1.88 -2.15 -0.53c0.46,0.83 0.83,1.62 1.11,2.38l-2.07 -0.51c-0.22,-0.66 -0.58,-1.45 -1.09,-2.37l-1.44 -0.35c-0.96,1.11 -2.1,1.71 -3.41,1.82l0 -2.2c1.37,-0.34 2.33,-1.22 2.88,-2.66zm8.7 2.15l2.03 0.5c-0.14,0.36 -0.29,0.71 -0.44,1.04l4.89 1.2 0 1.85 -2.71 -0.66c0.47,0.86 0.85,1.69 1.13,2.47l-2.05 -0.5c-0.26,-0.72 -0.65,-1.55 -1.15,-2.48l-1.06 -0.26c-0.75,1.01 -1.66,1.58 -2.72,1.71l0 -2.22c0.99,-0.38 1.69,-1.27 2.09,-2.64zm-7.27 7.21l9.93 2.43 0 1.92 -9.93 -2.43 0 -1.92zm7.08 4.71c0.72,0.18 1.34,0.59 1.86,1.23 0.4,0.6 0.61,1.3 0.61,2.09 0,0.82 -0.24,1.45 -0.71,1.89 -0.47,0.4 -1.08,0.52 -1.82,0.36l-6.29 -1.54 0 -5.58 6.35 1.55zm-4.53 2.71l4.24 1.04c0.67,0.07 1,-0.22 1,-0.86 0,-0.52 -0.35,-0.93 -1.05,-1.24l-4.2 -1.03 0 2.08zm6.75 -8.4c0.96,0.28 1.79,0.88 2.49,1.8 0.7,0.89 1.12,1.89 1.27,3.01 0.15,0.99 0.23,2.12 0.23,3.42 0,1.17 -0.02,2.44 -0.06,3.78 -0.24,2.29 -1.53,3.19 -3.87,2.69 -1.52,-0.37 -2.71,-0.75 -3.57,-1.15l0 -2.08c1.05,0.47 2.21,0.87 3.51,1.18 1.27,0.1 1.9,-0.44 1.9,-1.6 0.07,-0.91 0.11,-1.89 0.11,-2.93 0,-0.81 -0.02,-1.57 -0.06,-2.3 0,-0.91 -0.21,-1.71 -0.63,-2.39 -0.43,-0.82 -1.05,-1.36 -1.84,-1.62l-9.74 -2.38 0 12.93 -2.05 -0.5 0 -14.87 12.31 3.01zm8.56 -0.49l3.57 0.47 0 -3.25 2.04 0.27 0 3.25 6.06 0.8 0 -3.25 2.11 0.28 0 3.25 3.4 0.45 0 2.24 -3.4 -0.45 0 6.38 4.04 0.53 0 2.29 -4.04 -0.53 0 6.52 -2.11 -0.28 0 -6.52 -7 -0.92c-0.24,0.79 -0.53,1.54 -0.85,2.22 -1.05,2.1 -2.07,3.39 -3.04,3.85l0 -3.09c0.77,-0.86 1.36,-1.95 1.79,-3.27l-3.19 -0.42 0 -2.29 3.77 0.5c0.25,-1.4 0.39,-2.96 0.4,-4.68l0.02 -1.65 -3.57 -0.47 0 -2.24zm5.62 2.98l0 1.71c-0.01,1.65 -0.15,3.18 -0.41,4.61l6.47 0.85 0 -6.38 -6.06 -0.8zm32.69 9c0,2.42 -0.84,4.24 -2.51,5.46 -1.44,1.04 -3.38,1.59 -5.83,1.65 -0.2,0 -0.61,-0 -1.24,-0.01l0 -2.2c0.18,-0 0.42,-0 0.71,0.01 0.31,0.01 0.49,0.01 0.54,0.01 4.19,-0.1 6.28,-1.72 6.28,-4.86 0,-1.43 -0.61,-2.53 -1.84,-3.3 -1.11,2.41 -2.58,4.53 -4.39,6.38 -2.07,2.09 -4.04,3.16 -5.92,3.21 -1.06,0.03 -1.94,-0.23 -2.66,-0.78 -0.84,-0.71 -1.27,-1.8 -1.27,-3.26 0,-1.39 0.49,-2.81 1.46,-4.29 1.06,-1.58 2.45,-2.76 4.18,-3.53 -0.01,-0.82 -0.02,-1.63 -0.02,-2.42l-4.93 0.12 0 -2.17 4.97 -0.12c0.06,-0.64 0.12,-1.32 0.19,-2.04l2.21 -0.05c-0.1,0.72 -0.16,1.4 -0.19,2.04l9.39 -0.23 0 2.17 -9.5 0.23c0,0.5 0.02,1.1 0.07,1.78 0.56,-0.11 1.14,-0.17 1.76,-0.18 2.17,-0.05 4.02,0.33 5.55,1.15 2,1.1 3,2.85 3,5.26zm-5.88 -3.95c-0.81,-0.18 -1.7,-0.26 -2.68,-0.23 -0.6,0.01 -1.16,0.08 -1.69,0.18 0.06,2.1 0.16,4.02 0.32,5.76 1.64,-1.63 2.99,-3.53 4.05,-5.7zm-6.02 7.28c-0.26,-1.84 -0.43,-3.99 -0.54,-6.46 -1.13,0.65 -2.03,1.54 -2.7,2.65 -0.63,0.98 -0.94,1.89 -0.94,2.72 0,1.28 0.62,1.91 1.87,1.88 0.7,-0.02 1.47,-0.28 2.32,-0.79zm31.44 -10.56c0,1.89 -0.65,3.4 -1.95,4.52 -1.11,0.94 -2.54,1.54 -4.31,1.8 -0.72,0.11 -1.54,0.15 -2.46,0.14l0 -2.33c0.89,0.04 1.71,0 2.46,-0.11 2.75,-0.41 4.12,-1.64 4.12,-3.7 0,-2.09 -1.02,-2.98 -3.06,-2.68 -1.67,0.25 -3.98,1.06 -6.94,2.44 1.23,4.12 2.22,8.39 2.95,12.83l-2.12 0.31c-0.74,-4.15 -1.7,-8.19 -2.89,-12.13 -1.42,0.71 -2.76,1.46 -4.03,2.24l0 -2.54c1.09,-0.62 2.22,-1.23 3.4,-1.83 -0.52,-1.56 -1.06,-3.04 -1.61,-4.45l2.29 -0.34c0.47,1.2 0.92,2.46 1.36,3.78 1.58,-0.72 3.02,-1.31 4.29,-1.75 -0.51,-1.28 -0.89,-2.18 -1.15,-2.69l2.44 -0.36c0.2,0.54 0.51,1.34 0.95,2.4 0.38,-0.09 0.74,-0.16 1.06,-0.2 1.63,-0.24 2.9,0.06 3.82,0.9 0.92,0.86 1.38,2.11 1.38,3.75zm19.3 -1.54c0,2.74 -0.8,5.03 -2.39,6.85 -1.48,1.68 -3.49,2.82 -6.02,3.4 -0.17,0.04 -0.73,0.13 -1.7,0.28l0 -2.31c0.98,-0.15 1.55,-0.24 1.7,-0.28 4.19,-0.97 6.29,-3.45 6.29,-7.45 0,-1.28 -0.39,-2.29 -1.15,-3.02 -0.67,-0.72 -1.57,-1.11 -2.7,-1.18 -0.81,3.53 -1.84,6.48 -3.08,8.86 -1.55,2.98 -3.28,4.69 -5.2,5.13 -2.53,0.58 -3.79,-0.7 -3.79,-3.86 0,-2.9 1.09,-5.55 3.29,-7.97 -0.48,-1.58 -0.9,-3.2 -1.28,-4.85l2.18 -0.5c0.28,1.25 0.59,2.45 0.94,3.6 1.65,-1.28 3.4,-2.14 5.26,-2.57l0.02 -0c0.24,-1.3 0.41,-2.43 0.52,-3.37l2.16 -0.5c-0.1,1.08 -0.28,2.3 -0.54,3.67 1.62,0.09 2.92,0.65 3.89,1.71 1.06,1.1 1.59,2.55 1.59,4.37zm-8.17 -3.42c-1.43,0.4 -2.78,1.14 -4.07,2.2 0.59,1.7 1.23,3.21 1.93,4.54 0.8,-1.81 1.51,-4.06 2.14,-6.74zm-3.5 9.27c-0.84,-1.47 -1.63,-3.2 -2.37,-5.2 -1.26,1.65 -1.88,3.4 -1.88,5.26 0,0.87 0.09,1.44 0.27,1.72 0.22,0.36 0.69,0.46 1.4,0.29 0.89,-0.21 1.76,-0.9 2.58,-2.08z"/>
 </g>
</svg>
