<?xml version="1.0" encoding="UTF-8"?>
<!DOCTYPE svg PUBLIC "-//W3C//DTD SVG 1.1//EN" "http://www.w3.org/Graphics/SVG/1.1/DTD/svg11.dtd">
<!-- Creator: CorelDRAW 2021.5 -->
<svg xmlns="http://www.w3.org/2000/svg" xml:space="preserve" width="100%" height="100%" version="1.1" style="shape-rendering:geometricPrecision; text-rendering:geometricPrecision; image-rendering:optimizeQuality; fill-rule:evenodd; clip-rule:evenodd"
viewBox="0 0 114.64 114.64"
 xmlns:xlink="http://www.w3.org/1999/xlink"
 xmlns:xodm="http://www.corel.com/coreldraw/odm/2003">
 <defs>
  <style type="text/css">
   <![CDATA[
    .fil0 {fill:none;fill-rule:nonzero}
    .fil1 {fill:#8C2898;fill-rule:nonzero}
    .fil2 {fill:white;fill-rule:nonzero}
   ]]>
  </style>
   <clipPath id="id0" style="clip-rule:nonzero">
    <path d="M2.09 60.68c36.84,15.76 73.65,16.72 110.49,0.08 0.08,-1.16 0.11,-2.29 0.11,-3.45 0,-15.28 -6.19,-29.13 -16.22,-39.13 -10.03,-10.03 -23.84,-16.22 -39.13,-16.22 -15.28,0 -29.13,6.19 -39.13,16.22 -10.03,10.03 -16.22,23.84 -16.22,39.13 0,1.13 0.03,2.26 0.11,3.39l-0.03 -0.03z"/>
   </clipPath>
    <clipPath id="id1">
     <path d="M14.52 65.44c27.69,9.32 55.37,10.1 83.06,1.14l0 -47.25c-0.36,-0.38 -0.73,-0.76 -1.1,-1.13 -10.03,-10.03 -23.84,-16.22 -39.13,-16.22 -15.28,0 -29.13,6.19 -39.13,16.22 -1.3,1.3 -2.54,2.67 -3.7,4.09l0 43.15z"/>
    </clipPath>
    <clipPath id="id2">
     <path d="M2.09 60.68c36.84,15.76 73.65,16.72 110.49,0.08 0.08,-1.16 0.11,-2.29 0.11,-3.45 0,-15.28 -6.19,-29.13 -16.22,-39.13 -10.03,-10.03 -23.84,-16.22 -39.13,-16.22 -15.28,0 -29.13,6.19 -39.13,16.22 -10.03,10.03 -16.22,23.84 -16.22,39.13 0,1.13 0.03,2.26 0.11,3.39l-0.03 -0.03z"/>
    </clipPath>
 </defs>
 <g id="Layer_x0020_1">
  <metadata id="CorelCorpID_0Corel-Layer"/>
  <g>
  </g>
  <g style="clip-path:url(#id0)">
   <g id="_1823105892192">
   </g>
   <g style="clip-path:url(#id1)">
   </g>
   <g style="clip-path:url(#id2)">
   </g>
  </g>
  <path class="fil0" d="M2.09 60.68c36.84,15.76 73.65,16.72 110.49,0.08 0.08,-1.16 0.11,-2.29 0.11,-3.45 0,-15.28 -6.19,-29.13 -16.22,-39.13 -10.03,-10.03 -23.84,-16.22 -39.13,-16.22 -15.28,0 -29.13,6.19 -39.13,16.22 -10.03,10.03 -16.22,23.84 -16.22,39.13 0,1.13 0.03,2.26 0.11,3.39l-0.03 -0.03z"/>
  <path class="fil1" d="M34.04 22.94c-1.36,0.9 -3.19,0.56 -4.1,-0.79 -0.9,-1.36 -0.56,-3.19 0.79,-4.1 0.62,-0.42 1.3,-0.85 1.98,-1.27 0.82,-0.51 1.5,-0.9 2.01,-1.19 1.44,-0.79 3.25,-0.25 4.01,1.19 0.79,1.44 0.25,3.25 -1.19,4.01 -0.76,0.42 -1.36,0.76 -1.78,1.02 -0.56,0.34 -1.16,0.71 -1.72,1.1l0 0.03zm23.28 -22.94c15.82,0 30.17,6.41 40.54,16.78 10.37,10.37 16.78,24.72 16.78,40.54 0,15.82 -6.41,30.17 -16.78,40.54 -10.37,10.37 -24.72,16.78 -40.54,16.78 -15.82,0 -30.17,-6.41 -40.54,-16.78 -10.37,-10.37 -16.78,-24.72 -16.78,-40.54 0,-15.82 6.41,-30.17 16.78,-40.54 10.37,-10.37 24.72,-16.78 40.54,-16.78zm-55.23 60.68c36.84,15.76 73.65,16.72 110.49,0.08 0.08,-1.16 0.11,-2.29 0.11,-3.45 0,-15.28 -6.19,-29.13 -16.22,-39.13 -10.03,-10.03 -23.84,-16.22 -39.13,-16.22 -15.28,0 -29.13,6.19 -39.13,16.22 -10.03,10.03 -16.22,23.84 -16.22,39.13 0,1.13 0.03,2.26 0.11,3.39l-0.03 -0.03zm14.61 -11.84c-0.34,1.61 -1.89,2.63 -3.5,2.29 -1.61,-0.34 -2.63,-1.89 -2.29,-3.5 0.96,-4.58 2.57,-8.98 4.8,-13.05 2.23,-4.07 5.06,-7.83 8.39,-11.1 1.16,-1.16 3.05,-1.13 4.18,0.03 1.16,1.16 1.13,3.02 -0.03,4.18 -2.94,2.88 -5.4,6.16 -7.35,9.72 -1.95,3.56 -3.36,7.4 -4.21,11.41l0 0.03z"/>
  <path class="fil2" d="M10.49 76.39l7.1 1.83 -0.02 -4.49 -3.15 -0.81c-0.71,1.36 -1.91,2.18 -3.63,2.46l0 -2.23c1.68,-0.57 2.52,-1.94 2.52,-4.11l1.85 0.48c-0.01,0.56 -0.06,1.08 -0.15,1.56l10.55 2.71 0 1.99 -6.12 -1.57 0 4.48 6.9 1.77 0 1.96 -6.58 -1.69c1.17,3.13 3.34,5.6 6.51,7.42l0 2.15c-3.7,-2.08 -6.26,-4.77 -7.69,-8.06 -0.43,0.8 -1,1.47 -1.71,2.03 -1.48,1.24 -3.59,1.89 -6.31,1.95l0 -2.08c2.16,-0.16 3.83,-0.73 4.99,-1.7 0.78,-0.64 1.34,-1.44 1.69,-2.37l-6.75 -1.73 0 -1.96zm24.09 -2.48l2.04 0.32c-0.13,0.55 -0.26,1.07 -0.42,1.58l3.83 0.6c1.26,0.35 1.92,1.22 1.99,2.6 0,1.62 -0.94,3.61 -2.83,5.95 1.57,2.43 3.77,4.41 6.57,5.93l0 2.25c-3.41,-1.72 -6.01,-4.01 -7.78,-6.87 -2.52,2.46 -5.38,3.88 -8.58,4.28l0 -2.17c2.45,-0.38 4.71,-1.51 6.76,-3.4 2.46,-2.32 3.71,-4.37 3.76,-6.14 0,-0.32 -0.17,-0.53 -0.51,-0.63l-3.85 -0.61c-1.2,2.83 -2.99,4.87 -5.36,6.12l0 -2.31c2.54,-2.09 4,-4.59 4.38,-7.51zm26.72 2.45c2.28,0.05 3.42,1.24 3.42,3.57 0,2.15 -0.98,3.31 -2.96,3.5l-7.55 0.04 0 -7.05 7.09 -0.05zm-5.31 5.31l5.43 -0.02c0.94,-0.02 1.41,-0.62 1.41,-1.81 0,-1.2 -0.52,-1.79 -1.57,-1.78l-5.27 0.04 0 3.57zm-2.64 3.77l4.87 -0.04 0 -1.41 1.89 -0.01 0 1.41 4.91 -0.04 0 1.82 -2.1 0.02c0.55,1.72 1.3,3.02 2.27,3.91l0 2.35c-1.74,-1.28 -3.09,-3.36 -4.05,-6.25l-1.03 0.01 0 6.51 -1.89 0.01 0 -6.51 -0.97 0.01c-0.51,2.77 -1.86,4.86 -4.03,6.29l0 -2.13c1.22,-1.1 1.99,-2.48 2.31,-4.14l-2.18 0.02 0 -1.82zm-2.94 -2.88c-0.59,0.69 -1.22,1.29 -1.91,1.81l0 -2.39c1.44,-1.43 2.53,-3.43 3.29,-5.99l1.83 -0.01c-0.36,1.36 -0.8,2.58 -1.34,3.68l0 14.08 -1.87 0.01 0 -11.2zm21.33 -7.54l1.98 -0.31c0.11,0.39 0.26,0.79 0.44,1.19l5.1 -0.81c0.21,-0.46 0.4,-0.9 0.55,-1.33l1.9 -0.3c-0.13,0.47 -0.27,0.91 -0.43,1.32l3.08 -0.49 0 1.82 -6.91 1.1 0 1.16 6.44 -1.02 0 1.82 -6.44 1.02 0 1.19 6.82 -1.08 0 1.82 -15.48 2.46 0 -1.82 6.84 -1.09 0 -1.19 -6.37 1.01 0 -1.82 6.37 -1.01 0 -1.16 -6.8 1.08 0 -1.82 3.35 -0.53c-0.16,-0.4 -0.3,-0.79 -0.42,-1.2zm-3.08 11.27l6.89 -1.09c0.01,-0.06 0.02,-0.11 0.02,-0.16l-0.04 -0.98 1.95 -0.31 0 0.99c0,0.05 -0.01,0.11 -0.02,0.16l6.91 -1.1 0 1.8 -6.67 1.06c1.47,1.45 3.72,2.1 6.72,1.94l0 1.95c-3.73,0.09 -6.36,-0.71 -7.91,-2.4 -1.3,2.2 -3.92,3.83 -7.85,4.88l0 -1.95c3.37,-0.93 5.51,-2.26 6.4,-4l-6.4 1.02 0 -1.8zm26.57 -14.07l2.38 -0.58 0 -1.88 1.8 -0.44 0 1.88 2.3 -0.56c0.08,-0.24 0.15,-0.47 0.23,-0.69l1.76 -0.43c-0.42,1.79 -1.22,3.58 -2.41,5.37l2.45 -0.6 0 1.74 -4.03 0.99c-0.4,0.48 -0.82,0.96 -1.29,1.46l1.86 -0.46c1.02,-0.25 1.8,-0.03 2.34,0.67 0.57,0.61 0.88,1.51 0.93,2.69 -0.01,1.28 -0.29,2.34 -0.84,3.19 -0.58,1 -1.36,1.65 -2.34,1.96l-4.5 1.1 0 -6.69c-0.37,0.34 -0.76,0.67 -1.16,0.99l0 -2.02c0.87,-0.75 1.67,-1.51 2.4,-2.27l-2.27 0.56 0 -1.74 2.75 -0.67 0 -2.43 -2.38 0.58 0 -1.72zm4.18 2.71c0.58,-0.8 1.08,-1.59 1.49,-2.38l-1.49 0.36 0 2.01zm-1.77 10.63l2.53 -0.62c0.83,-0.31 1.33,-1.04 1.51,-2.21l-4.04 0.99 0 1.84zm0 -3.52l4.04 -0.99c-0.16,-1.03 -0.66,-1.5 -1.49,-1.41l-2.55 0.62 0 1.78zm-6.69 -10.64l2.06 -0.51 -3.34 5.42 1.26 -0.31 1.9 -3.17 2.08 -0.51 -4.56 7.49 1.86 -0.46c0.3,-0.07 0.45,-0.34 0.45,-0.8l0 -1.44 1.56 -0.38 0 2.13c0,1.08 -0.55,1.79 -1.65,2.12l-0.5 0.12 0 7.72 -1.67 0.41 0 -7.72 -1.15 0.28c-0.79,0.19 -1.19,-0.06 -1.19,-0.76 0,-0.2 0.16,-0.55 0.48,-1.07l1.23 -2.02 -1.4 0.34c-0.51,0.03 -0.76,-0.27 -0.76,-0.92 0,-0.22 0.09,-0.48 0.26,-0.77l3.09 -5.22zm-2.57 11.25l1.47 -0.36c-0.04,3.29 -0.76,5.67 -2.16,7.14l0 -2.39c0.46,-1.01 0.69,-2.47 0.69,-4.4zm4.24 -1.1l1.43 -0.35c0.01,1.43 0.19,2.57 0.54,3.42l0 3.3c-1.08,-1.09 -1.74,-3.21 -1.97,-6.37z"/>
 </g>
</svg>
