<?xml version="1.0" encoding="UTF-8"?>
<!DOCTYPE svg PUBLIC "-//W3C//DTD SVG 1.1//EN" "http://www.w3.org/Graphics/SVG/1.1/DTD/svg11.dtd">
<!-- Creator: CorelDRAW 2021.5 -->
<svg xmlns="http://www.w3.org/2000/svg" xml:space="preserve" width="100%" height="100%" version="1.1" style="shape-rendering:geometricPrecision; text-rendering:geometricPrecision; image-rendering:optimizeQuality; fill-rule:evenodd; clip-rule:evenodd"
viewBox="0 0 123.29 123.29"
 xmlns:xlink="http://www.w3.org/1999/xlink"
 xmlns:xodm="http://www.corel.com/coreldraw/odm/2003">
 <defs>
  <style type="text/css">
   <![CDATA[
    .fil0 {fill:none;fill-rule:nonzero}
    .fil1 {fill:#8C2898;fill-rule:nonzero}
    .fil2 {fill:white;fill-rule:nonzero}
   ]]>
  </style>
   <clipPath id="id0" style="clip-rule:nonzero">
    <path d="M2.25 65.26c39.62,16.95 79.21,17.99 118.82,0.09 0.09,-1.25 0.12,-2.46 0.12,-3.71 0,-16.44 -6.65,-31.32 -17.44,-42.08 -10.79,-10.79 -25.64,-17.44 -42.08,-17.44 -16.44,0 -31.32,6.65 -42.08,17.44 -10.79,10.79 -17.44,25.64 -17.44,42.08 0,1.22 0.03,2.43 0.12,3.65l-0.03 -0.03z"/>
   </clipPath>
    <clipPath id="id1">
     <path d="M15.61 70.37c29.78,10.02 59.55,10.86 89.33,1.23l0 -50.81c-0.39,-0.41 -0.78,-0.82 -1.19,-1.22 -10.79,-10.79 -25.64,-17.44 -42.08,-17.44 -16.44,0 -31.32,6.65 -42.08,17.44 -1.4,1.4 -2.73,2.87 -3.98,4.4l0 46.41z"/>
    </clipPath>
    <clipPath id="id2">
     <path d="M2.25 65.26c39.62,16.95 79.21,17.99 118.82,0.09 0.09,-1.25 0.12,-2.46 0.12,-3.71 0,-16.44 -6.65,-31.32 -17.44,-42.08 -10.79,-10.79 -25.64,-17.44 -42.08,-17.44 -16.44,0 -31.32,6.65 -42.08,17.44 -10.79,10.79 -17.44,25.64 -17.44,42.08 0,1.22 0.03,2.43 0.12,3.65l-0.03 -0.03z"/>
    </clipPath>
 </defs>
 <g id="Layer_x0020_1">
  <metadata id="CorelCorpID_0Corel-Layer"/>
  <g>
  </g>
  <g style="clip-path:url(#id0)">
   <g id="_1787844397552">
   </g>
   <g style="clip-path:url(#id1)">
   </g>
   <g style="clip-path:url(#id2)">
   </g>
  </g>
  <path class="fil0" d="M2.25 65.26c39.62,16.95 79.21,17.99 118.82,0.09 0.09,-1.25 0.12,-2.46 0.12,-3.71 0,-16.44 -6.65,-31.32 -17.44,-42.08 -10.79,-10.79 -25.64,-17.44 -42.08,-17.44 -16.44,0 -31.32,6.65 -42.08,17.44 -10.79,10.79 -17.44,25.64 -17.44,42.08 0,1.22 0.03,2.43 0.12,3.65l-0.03 -0.03z"/>
  <path class="fil1" d="M36.61 24.67c-1.46,0.97 -3.43,0.61 -4.41,-0.85 -0.97,-1.46 -0.61,-3.43 0.85,-4.41 0.67,-0.46 1.4,-0.91 2.13,-1.37 0.88,-0.55 1.61,-0.97 2.16,-1.28 1.55,-0.85 3.49,-0.27 4.31,1.28 0.85,1.55 0.27,3.49 -1.28,4.31 -0.82,0.46 -1.46,0.82 -1.91,1.09 -0.61,0.36 -1.25,0.76 -1.85,1.18l0 0.03zm25.03 -24.67c17.01,0 32.45,6.9 43.6,18.05 11.15,11.15 18.05,26.58 18.05,43.6 0,17.01 -6.9,32.45 -18.05,43.6 -11.15,11.15 -26.58,18.05 -43.6,18.05 -17.01,0 -32.45,-6.9 -43.6,-18.05 -11.15,-11.15 -18.05,-26.58 -18.05,-43.6 0,-17.01 6.9,-32.45 18.05,-43.6 11.15,-11.15 26.58,-18.05 43.6,-18.05zm-59.4 65.26c39.62,16.95 79.21,17.99 118.82,0.09 0.09,-1.25 0.12,-2.46 0.12,-3.71 0,-16.44 -6.65,-31.32 -17.44,-42.08 -10.79,-10.79 -25.64,-17.44 -42.08,-17.44 -16.44,0 -31.32,6.65 -42.08,17.44 -10.79,10.79 -17.44,25.64 -17.44,42.08 0,1.22 0.03,2.43 0.12,3.65l-0.03 -0.03zm15.71 -12.73c-0.36,1.73 -2.04,2.83 -3.77,2.46 -1.73,-0.36 -2.83,-2.04 -2.46,-3.77 1.03,-4.92 2.76,-9.66 5.16,-14.04 2.4,-4.37 5.44,-8.42 9.02,-11.94 1.25,-1.25 3.28,-1.22 4.5,0.03 1.25,1.25 1.22,3.25 -0.03,4.5 -3.16,3.1 -5.8,6.62 -7.9,10.45 -2.1,3.83 -3.62,7.96 -4.53,12.27l0 0.03z"/>
  <path class="fil2" d="M20.47 80.01l7.4 1.63 -0.02 -3.96 2.13 0.47 0 3.95 7.55 1.67 0 2.1 -7.51 -1.66c0.75,5.25 3.34,9.21 7.78,11.89l0 2.32c-4.33,-2.34 -7.24,-5.82 -8.73,-10.42 -0.47,1.23 -1.11,2.28 -1.93,3.16 -1.64,1.85 -3.97,2.96 -6.97,3.33l0 -2.21c2.36,-0.52 4.18,-1.56 5.45,-3.15 1.2,-1.42 1.92,-3.22 2.16,-5.41l-7.32 -1.62 0 -2.1zm29.01 1.34l0 1.99c-0.89,-0.02 -1.84,-0.06 -2.86,-0.1l0 1.42 3.28 0.29 0 2 -0.89 -0.08c0.03,4.73 0.22,9 0.57,12.81l-1.76 -0.14c-0.3,-2.55 -0.45,-6.82 -0.47,-12.83l-0.74 -0.07 0 13.4 -1.97 -0.18 0 -13.4 -0.74 -0.07c-0.08,4.4 -0.24,8.63 -0.47,12.7l-1.99 -0.18c0.47,-3.97 0.71,-8.19 0.74,-12.68l-0.87 -0.08 0 -2 3.32 0.3 0 -1.36c-0.87,-0.03 -1.78,-0.09 -2.73,-0.16l0 -1.96c2.14,0.19 4.66,0.31 7.55,0.34zm6.15 1.04c0.88,0.13 1.6,0.47 2.18,1 0.58,0.6 0.92,1.24 1.01,1.92 0.26,1.37 0.38,3.5 0.38,6.41 -0.01,2.36 -0.08,3.94 -0.19,4.74 -0.03,1.06 -0.29,1.96 -0.78,2.69 -0.62,0.74 -1.38,1.09 -2.29,1.07l-5.35 -0.48 0 -17.8 5.03 0.45zm-3.15 15.5l3.19 0.29c0.83,-0.08 1.25,-0.62 1.25,-1.63 0.14,-0.99 0.21,-2.82 0.21,-5.46 0,-1.8 -0.06,-3.45 -0.19,-4.96 -0.03,-1.01 -0.59,-1.63 -1.67,-1.87l-2.79 -0.25 0 13.89zm13.98 -9.75l0 2.23 4.58 -0.45 0 -2.23 -4.58 0.45zm4.58 3.78l-6.64 0.65 0 -10.24 11.35 -1.11c3.2,-0.31 4.83,1.21 4.88,4.57 0,3.27 -1.37,5.13 -4.12,5.59l-3.38 0.33 0 1.85 7.27 -0.71 0 2.04 -7.27 0.71 0 1.93 8.14 -0.8 0 2.08 -18.24 1.79 0 -2.08 8.01 -0.79 0 -1.93 -7.06 0.69 0 -2.04 7.06 -0.69 0 -1.85zm2.09 -2.2l3.09 -0.3c1.31,-0.3 2.08,-1.12 2.3,-2.46l-5.39 0.53 0 2.23zm5.39 -4.56c-0.26,-1.49 -1.18,-2.16 -2.77,-2l-2.62 0.26 0 2.27 5.39 -0.53zm-7.49 -1.54l-4.58 0.45 0 2.27 4.58 -0.45 0 -2.27zm13.83 -2.91l4.03 -0.87 0 -1.13 2.06 -0.44 0 1.13 5.44 -1.17 0 -1.17 2.05 -0.44 0 1.17 3.84 -0.83 0 1.89 -3.84 0.83 0 1.19 -2.05 0.44 0 -1.19 -5.44 1.17 0 1.23 -2.06 0.44 0 -1.23 -4.03 0.87 0 -1.89zm0.15 10.97l7.58 -1.64 0 -1.04 2.01 -0.43 0 1.04 7.66 -1.65 0 1.95 -3.42 0.74c0.83,0.88 1.91,1.47 3.24,1.76l0 2.4c-2.33,-0.52 -4.16,-1.74 -5.5,-3.68l-1.97 0.43 0 5.05 -2.01 0.43 0 -5.05 -1.91 0.41c-0.83,2.26 -2.67,4.25 -5.52,5.97l0 -2.25c1.59,-1.04 2.69,-2.12 3.3,-3.24l-3.45 0.74 0 -1.95zm16.65 -11.09l0 1.94c-3.18,0.88 -8.56,2.15 -16.13,3.82l0 -1.84c7.81,-1.68 13.18,-2.99 16.13,-3.91zm-14.94 6.09l1.89 -0.41c0.35,0.89 0.66,1.85 0.94,2.88l-1.91 0.41c-0.25,-1.01 -0.56,-1.97 -0.91,-2.88zm5.35 -1.13l1.91 -0.41c0.29,0.87 0.56,1.81 0.81,2.82l-1.95 0.42c-0.21,-0.99 -0.46,-1.93 -0.77,-2.83zm6.48 -1.59l1.99 -0.43c-0.4,1.62 -0.77,2.78 -1.1,3.49l-2.04 0.44c0.53,-1.33 0.91,-2.5 1.14,-3.5z"/>
 </g>
</svg>
