<?xml version="1.0" encoding="UTF-8"?>
<!DOCTYPE svg PUBLIC "-//W3C//DTD SVG 1.1//EN" "http://www.w3.org/Graphics/SVG/1.1/DTD/svg11.dtd">
<!-- Creator: CorelDRAW 2021.5 -->
<svg xmlns="http://www.w3.org/2000/svg" xml:space="preserve" width="100%" height="100%" version="1.1" style="shape-rendering:geometricPrecision; text-rendering:geometricPrecision; image-rendering:optimizeQuality; fill-rule:evenodd; clip-rule:evenodd"
viewBox="0 0 157.01 157.01"
 xmlns:xlink="http://www.w3.org/1999/xlink"
 xmlns:xodm="http://www.corel.com/coreldraw/odm/2003">
 <defs>
  <style type="text/css">
   <![CDATA[
    .fil0 {fill:none;fill-rule:nonzero}
    .fil1 {fill:#8C2898;fill-rule:nonzero}
    .fil2 {fill:white;fill-rule:nonzero}
   ]]>
  </style>
   <clipPath id="id0" style="clip-rule:nonzero">
    <path d="M2.86 83.11c50.45,21.59 100.87,22.91 151.32,0.12 0.12,-1.59 0.15,-3.13 0.15,-4.72 0,-20.93 -8.47,-39.89 -22.21,-53.59 -13.74,-13.74 -32.66,-22.21 -53.59,-22.21 -20.93,0 -39.89,8.47 -53.59,22.21 -13.74,13.74 -22.21,32.66 -22.21,53.59 0,1.55 0.04,3.1 0.15,4.64l-0.04 -0.04z"/>
   </clipPath>
    <clipPath id="id1">
     <path d="M19.88 89.62c37.93,12.77 75.83,13.83 113.76,1.56l0 -64.71c-0.5,-0.52 -1,-1.04 -1.51,-1.55 -13.74,-13.74 -32.66,-22.21 -53.59,-22.21 -20.93,0 -39.89,8.47 -53.59,22.21 -1.78,1.78 -3.47,3.65 -5.07,5.6l0 59.1z"/>
    </clipPath>
    <clipPath id="id2">
     <path d="M2.86 83.11c50.45,21.59 100.87,22.91 151.32,0.12 0.12,-1.59 0.15,-3.13 0.15,-4.72 0,-20.93 -8.47,-39.89 -22.21,-53.59 -13.74,-13.74 -32.66,-22.21 -53.59,-22.21 -20.93,0 -39.89,8.47 -53.59,22.21 -13.74,13.74 -22.21,32.66 -22.21,53.59 0,1.55 0.04,3.1 0.15,4.64l-0.04 -0.04z"/>
    </clipPath>
 </defs>
 <g id="Layer_x0020_1">
  <metadata id="CorelCorpID_0Corel-Layer"/>
  <g>
  </g>
  <g style="clip-path:url(#id0)">
   <g id="_1787922004016">
   </g>
   <g style="clip-path:url(#id1)">
   </g>
   <g style="clip-path:url(#id2)">
   </g>
  </g>
  <path class="fil0" d="M2.86 83.11c50.45,21.59 100.87,22.91 151.32,0.12 0.12,-1.59 0.15,-3.13 0.15,-4.72 0,-20.93 -8.47,-39.89 -22.21,-53.59 -13.74,-13.74 -32.66,-22.21 -53.59,-22.21 -20.93,0 -39.89,8.47 -53.59,22.21 -13.74,13.74 -22.21,32.66 -22.21,53.59 0,1.55 0.04,3.1 0.15,4.64l-0.04 -0.04z"/>
  <path class="fil1" d="M46.62 31.42c-1.86,1.24 -4.37,0.77 -5.61,-1.08 -1.24,-1.86 -0.77,-4.37 1.08,-5.61 0.85,-0.58 1.78,-1.16 2.71,-1.74 1.12,-0.7 2.05,-1.24 2.75,-1.63 1.97,-1.08 4.45,-0.35 5.49,1.63 1.08,1.97 0.35,4.45 -1.63,5.49 -1.04,0.58 -1.86,1.04 -2.44,1.39 -0.77,0.46 -1.59,0.97 -2.36,1.51l0 0.04zm31.88 -31.42c21.67,0 41.32,8.78 55.52,22.98 14.2,14.2 22.98,33.86 22.98,55.52 0,21.67 -8.78,41.32 -22.98,55.52 -14.2,14.2 -33.86,22.98 -55.52,22.98 -21.67,0 -41.32,-8.78 -55.52,-22.98 -14.2,-14.2 -22.98,-33.86 -22.98,-55.52 0,-21.67 8.78,-41.32 22.98,-55.52 14.2,-14.2 33.86,-22.98 55.52,-22.98zm-75.64 83.11c50.45,21.59 100.87,22.91 151.32,0.12 0.12,-1.59 0.15,-3.13 0.15,-4.72 0,-20.93 -8.47,-39.89 -22.21,-53.59 -13.74,-13.74 -32.66,-22.21 -53.59,-22.21 -20.93,0 -39.89,8.47 -53.59,22.21 -13.74,13.74 -22.21,32.66 -22.21,53.59 0,1.55 0.04,3.1 0.15,4.64l-0.04 -0.04zm20 -16.21c-0.46,2.21 -2.59,3.6 -4.8,3.13 -2.21,-0.46 -3.6,-2.59 -3.13,-4.8 1.32,-6.27 3.52,-12.3 6.58,-17.88 3.06,-5.57 6.93,-10.72 11.49,-15.21 1.59,-1.59 4.18,-1.55 5.73,0.04 1.59,1.59 1.55,4.14 -0.04,5.73 -4.02,3.95 -7.39,8.43 -10.06,13.31 -2.67,4.88 -4.6,10.14 -5.77,15.63l0 0.04z"/>
  <path class="fil2" d="M22.98 95.29l2.65 0.71 0 21.02 4.96 1.32c0.77,0.19 1.16,-0.21 1.18,-1.2l0 -17.23 2.62 0.7 0 17.9c-0.02,2.16 -0.97,3.08 -2.85,2.76l-13.9 -3.71c-1.96,-0.85 -3.07,-2.42 -3.34,-4.71l0 -17.64 2.52 0.67 -0.03 17.09c0.17,1.07 0.64,1.75 1.39,2.05l4.8 1.28 0 -21.02zm17.13 7.27l9.4 1.62 0 -2.81 2.65 0.46 0 2.81 9.45 1.63 0 2.63 -5.21 -0.9c0.79,6.23 2.68,10.77 5.68,13.61l0 3.57c-4.37,-3.48 -7.11,-9.35 -8.22,-17.62l-1.7 -0.29 0 13.52 6.05 1.04 0 2.65 -6.05 -1.04 0 2.76 -2.65 -0.46 0 -2.76 -5.73 -0.99 0 -2.65 5.73 0.99 0 -13.52 -1.7 -0.29c-0.32,4.42 -1.17,7.68 -2.57,9.78 -1.59,2.5 -3.45,4.2 -5.6,5.09l0 -3.25c3.49,-2.34 5.38,-6.35 5.68,-12.05l-5.21 -0.9 0 -2.63zm39.66 17.48l2.21 -0.02c-0.02,1.17 -0.03,2.58 -0.03,4.22 0,0.88 0.43,1.32 1.3,1.31 1.24,-0.01 2.28,-0.08 3.1,-0.21l0 2.33c-1.38,0.1 -2.83,0.16 -4.35,0.17 -1.51,0.01 -2.27,-1.27 -2.28,-3.82 0.03,-1.55 0.05,-2.88 0.05,-3.98zm2.98 0.03l2.07 -0.02c0.39,1.41 0.66,2.79 0.82,4.16l-2.15 0.02c-0.15,-1.39 -0.39,-2.78 -0.74,-4.16zm3.1 -0.13l2.23 -0.02c0.68,2.39 1.2,5 1.57,7.83l-2.26 0.02c-0.32,-2.72 -0.83,-5.33 -1.54,-7.83zm-9.56 -14.67l5.13 -0.04 0 -1.27 2.42 -0.02 0 1.27 5.31 -0.04 0 2.47 -5.31 0.04 0 1.24 1.35 -0.01c1.27,0.08 2.25,0.54 2.92,1.39 0.74,0.91 1.12,2.12 1.12,3.61 0,1.55 -0.37,2.78 -1.12,3.69 -0.67,1 -1.56,1.52 -2.66,1.56l-8.66 0.07 0 -10.25 4.62 -0.04 0 -1.24 -5.13 0.04 0 -2.47zm2.79 5.82l0 1.92 2.34 -0.02 0 -1.92 -2.34 0.02zm4.76 -0.04l0 1.92 3 -0.02c-0.3,-1.15 -1.08,-1.79 -2.34,-1.9l-0.66 0.01zm2.92 4.09l-2.92 0.02 0 1.84 0.98 -0.01c0.97,-0.21 1.62,-0.82 1.94,-1.85zm-5.33 1.88l0 -1.84 -2.34 0.02 0 1.84 2.34 -0.02zm-5.95 -12.64l0 2.57c-0.97,0.06 -2.04,0.11 -3.19,0.16l0 1.79 3.48 -0.03 0 2.54 -0.69 0.01c0.05,6 0.25,11.4 0.58,16.2l-2.07 0.04c-0.26,-3.21 -0.41,-8.61 -0.43,-16.23l-0.87 0.01 0 16.82 -2.23 0.02 0 -16.82 -0.85 0.01c-0.09,5.57 -0.28,10.95 -0.58,16.13l-2.07 0.02c0.44,-5.07 0.68,-10.45 0.69,-16.13l-0.8 0.01 0 -2.54 3.61 -0.03 0 -1.7c-0.99,0.04 -2.04,0.08 -3.16,0.1l0 -2.54c2.44,-0.02 5.3,-0.15 8.58,-0.39zm1.41 15.73l1.96 -0.01c-0.05,3.75 -0.93,6.5 -2.63,8.24l0.05 -2.89c0.41,-1.34 0.61,-3.11 0.61,-5.33zm18.37 -16.15l14.3 -2.31c1.7,-0.02 2.54,0.9 2.54,2.78 0,0.63 -0.37,2.04 -1.1,4.24l1.81 -0.32c2.17,-0.1 3.25,0.88 3.25,2.94 0,4.89 -0.28,8.04 -0.84,9.44 -0.54,1.96 -1.91,3.19 -4.12,3.69 -1.99,0.25 -4,0.5 -6.03,0.76l0 -2.59c1.8,-0.15 3.67,-0.38 5.61,-0.69 1.19,-0.3 1.9,-1.05 2.15,-2.24 0.35,-0.69 0.52,-3.2 0.52,-7.53 0,-0.99 -0.49,-1.41 -1.47,-1.25l-4.64 0.75c1.41,-3.94 2.13,-6.12 2.13,-6.54 0,-0.43 -0.21,-0.7 -0.63,-0.79l-6.95 1.12 0 1.11c-0.49,11.06 -3.01,18.11 -7.55,21.15l0 -2.89c2.97,-2.79 4.66,-8.78 5.06,-17.96l0 -1 -4.02 0.65 -0.03 -2.51zm25.33 0.11l9.82 -2.51 0 -1.95c-2.61,0.72 -5.52,1.5 -8.73,2.34l0 -2.62c9.91,-2.53 16.74,-4.43 20.51,-5.68l0 2.6c-2.23,0.71 -5.32,1.61 -9.28,2.7l0 1.98 9.84 -2.52 0 2.52 -5.38 1.38c1.49,1.96 3.27,3.02 5.33,3.18l0 2.84c-3.68,-0.39 -6.36,-2.17 -8.04,-5.33l-1.75 0.45 0 4.76 -2.5 0.64 0 -4.76 -1.65 0.42c-0.87,2.53 -2.43,4.79 -4.66,6.76l11.47 -2.93c3.95,-1.01 5.96,0.19 6.03,3.6 0,3.32 -1.7,5.51 -5.1,6.58l-13.19 3.37 0 -9.95c-0.84,0.69 -1.75,1.33 -2.73,1.92l0 -2.76c2.56,-1.65 4.38,-3.61 5.46,-5.88l-5.44 1.39 0 -2.52zm5.15 12.99l0 1.76 10.36 -2.65c1.51,-0.53 2.44,-1.35 2.8,-2.48l-13.16 3.37zm13.09 -5.65c-0.45,-0.93 -1.54,-1.18 -3.27,-0.73l-9.82 2.51 0 1.57 13.09 -3.35z"/>
 </g>
</svg>
