<?xml version="1.0" encoding="UTF-8"?>
<!DOCTYPE svg PUBLIC "-//W3C//DTD SVG 1.1//EN" "http://www.w3.org/Graphics/SVG/1.1/DTD/svg11.dtd">
<!-- Creator: CorelDRAW 2021.5 -->
<svg xmlns="http://www.w3.org/2000/svg" xml:space="preserve" width="100%" height="100%" version="1.1" style="shape-rendering:geometricPrecision; text-rendering:geometricPrecision; image-rendering:optimizeQuality; fill-rule:evenodd; clip-rule:evenodd"
viewBox="0 0 132.8 132.8"
 xmlns:xlink="http://www.w3.org/1999/xlink"
 xmlns:xodm="http://www.corel.com/coreldraw/odm/2003">
 <defs>
  <style type="text/css">
   <![CDATA[
    .fil0 {fill:none;fill-rule:nonzero}
    .fil1 {fill:#8C2898;fill-rule:nonzero}
    .fil2 {fill:white;fill-rule:nonzero}
   ]]>
  </style>
   <clipPath id="id0" style="clip-rule:nonzero">
    <path d="M2.39 70.29c42.67,18.26 85.31,19.37 127.98,0.1 0.1,-1.34 0.13,-2.65 0.13,-3.99 0,-17.7 -7.17,-33.74 -18.78,-45.32 -11.62,-11.62 -27.62,-18.78 -45.32,-18.78 -17.7,0 -33.74,7.17 -45.32,18.78 -11.62,11.62 -18.78,27.62 -18.78,45.32 0,1.31 0.03,2.62 0.13,3.93l-0.03 -0.03z"/>
   </clipPath>
    <clipPath id="id1">
     <path d="M16.78 75.8c32.08,10.8 64.14,11.7 96.21,1.32l0 -54.73c-0.42,-0.44 -0.85,-0.88 -1.28,-1.31 -11.62,-11.62 -27.62,-18.78 -45.32,-18.78 -17.7,0 -33.74,7.17 -45.32,18.78 -1.51,1.51 -2.94,3.09 -4.29,4.74l0 49.98z"/>
    </clipPath>
    <clipPath id="id2">
     <path d="M2.39 70.29c42.67,18.26 85.31,19.37 127.98,0.1 0.1,-1.34 0.13,-2.65 0.13,-3.99 0,-17.7 -7.17,-33.74 -18.78,-45.32 -11.62,-11.62 -27.62,-18.78 -45.32,-18.78 -17.7,0 -33.74,7.17 -45.32,18.78 -11.62,11.62 -18.78,27.62 -18.78,45.32 0,1.31 0.03,2.62 0.13,3.93l-0.03 -0.03z"/>
    </clipPath>
 </defs>
 <g id="Layer_x0020_1">
  <metadata id="CorelCorpID_0Corel-Layer"/>
  <g>
  </g>
  <g style="clip-path:url(#id0)">
   <g id="_1823139985824">
   </g>
   <g style="clip-path:url(#id2)">
   </g>
  </g>
  <path class="fil0" d="M2.39 70.29c42.67,18.26 85.31,19.37 127.98,0.1 0.1,-1.34 0.13,-2.65 0.13,-3.99 0,-17.7 -7.17,-33.74 -18.78,-45.32 -11.62,-11.62 -27.62,-18.78 -45.32,-18.78 -17.7,0 -33.74,7.17 -45.32,18.78 -11.62,11.62 -18.78,27.62 -18.78,45.32 0,1.31 0.03,2.62 0.13,3.93l-0.03 -0.03z"/>
  <path class="fil1" d="M39.43 26.57c-1.57,1.05 -3.7,0.65 -4.75,-0.92 -1.05,-1.57 -0.65,-3.7 0.92,-4.75 0.72,-0.49 1.51,-0.98 2.29,-1.47 0.95,-0.59 1.73,-1.05 2.32,-1.37 1.67,-0.92 3.76,-0.29 4.65,1.37 0.92,1.67 0.29,3.76 -1.37,4.65 -0.88,0.49 -1.57,0.88 -2.06,1.18 -0.65,0.39 -1.34,0.82 -2,1.28l0 0.03zm26.96 -26.57c18.33,0 34.95,7.43 46.96,19.44 12.01,12.01 19.44,28.63 19.44,46.96 0,18.33 -7.43,34.95 -19.44,46.96 -12.01,12.01 -28.63,19.44 -46.96,19.44 -18.33,0 -34.95,-7.43 -46.96,-19.44 -12.01,-12.01 -19.44,-28.63 -19.44,-46.96 0,-18.33 7.43,-34.95 19.44,-46.96 12.01,-12.01 28.63,-19.44 46.96,-19.44zm-63.98 70.29c42.67,18.26 85.31,19.37 127.98,0.1 0.1,-1.34 0.13,-2.65 0.13,-3.99 0,-17.7 -7.17,-33.74 -18.78,-45.32 -11.62,-11.62 -27.62,-18.78 -45.32,-18.78 -17.7,0 -33.74,7.17 -45.32,18.78 -11.62,11.62 -18.78,27.62 -18.78,45.32 0,1.31 0.03,2.62 0.13,3.93l-0.03 -0.03zm16.92 -13.71c-0.39,1.87 -2.19,3.04 -4.06,2.65 -1.87,-0.39 -3.04,-2.19 -2.65,-4.06 1.11,-5.3 2.98,-10.41 5.56,-15.12 2.59,-4.71 5.86,-9.06 9.72,-12.86 1.34,-1.34 3.53,-1.31 4.84,0.03 1.34,1.34 1.31,3.5 -0.03,4.84 -3.4,3.34 -6.25,7.13 -8.51,11.26 -2.26,4.12 -3.89,8.57 -4.88,13.22l0 0.03z"/>
  <path class="fil2" d="M30.61 83.63l0 2.1c-0.88,-0.17 -1.84,-0.36 -2.9,-0.57l0 1.51 3.21 0.74 0 2.17 -0.76 -0.17c0.06,3.35 0.29,6.22 0.69,8.6l0 5.76c-1.34,-3.19 -2.18,-8.12 -2.54,-14.79l-0.6 -0.14 0 14.59 -2.12 -0.49 0 -14.59 -0.56 -0.13c-0.33,6.3 -1.32,10.8 -2.99,13.5l-0.04 -4.88c0.67,-2.4 1.05,-5.41 1.14,-9.05l-1.03 -0.24 0 -2.17 3.48 0.8 0 -1.46c-0.97,-0.21 -1.96,-0.42 -2.99,-0.64l0 -2.06c2.29,0.52 4.96,1.06 8,1.61zm4.55 0.77l2.16 0.5 0 7.3c0,0.41 -0.02,0.83 -0.05,1.25 0.3,3.53 1.61,7.02 3.93,10.49l0 2.74c-2.13,-2.09 -3.72,-4.9 -4.77,-8.44 -0.33,1.04 -0.76,1.98 -1.29,2.81 -1.29,1.96 -2.53,3.11 -3.72,3.45l0 -2.79c2.39,-1.84 3.63,-5.21 3.72,-10.08l0.02 -7.22zm-3.37 0.28l1.96 0.45c0.04,3.82 0.15,7.42 0.31,10.78l-1.94 -0.45c-0.19,-3.49 -0.3,-7.08 -0.33,-10.78zm6.93 1.64l1.99 0.46c-0.08,3.67 -0.24,7.18 -0.49,10.52l-2.05 -0.47c0.37,-3.22 0.56,-6.72 0.56,-10.51zm6.26 7.41l19.21 1.72 0 2.24 -5.4 -0.48 0 6.91c0.14,1.19 0.68,1.82 1.64,1.91 2,0.18 3.3,0.24 3.9,0.19l0 2.1c-0.53,0.04 -2.03,-0.05 -4.49,-0.27 -2.05,-0.32 -3.13,-1.63 -3.25,-3.93l0 -7.11 -3.81 -0.34c-0.03,0.77 -0.08,1.7 -0.14,2.76 -0.27,4.31 -2.81,6.88 -7.61,7.72l0 -2.43c3.31,-0.65 5.12,-2.62 5.44,-5.91 0.05,-0.79 0.08,-1.57 0.09,-2.33l-5.58 -0.5 0 -2.24zm0.91 -6.07l17.38 1.56 0 2.22 -17.38 -1.56 0 -2.22zm26.35 9.47l0 0.85 12.28 -1.04c0.02,-0.18 0.03,-0.37 0.05,-0.55 -0.02,-0.11 -0.02,-0.2 -0.02,-0.3l-12.31 1.04zm11.72 -2.78c-0.3,-0.42 -0.75,-0.65 -1.32,-0.71l-10.39 0.88 0 0.82 11.72 -0.99zm-11.72 5.41l0 0.82 9.96 -0.87c0.74,-0.09 1.31,-0.41 1.68,-0.94l-11.65 0.99zm-3.62 -10.05l8.13 -0.69 0 -1.46 2.3 -0.19 0 1.46 8.37 -0.71 0 2.1 -8.37 0.71 0 1.07 3.71 -0.31c1.28,0.03 2.26,0.47 2.96,1.33 0.73,0.68 1.1,1.74 1.12,3.18 0,1.58 -0.33,2.82 -1,3.7 -0.81,1.09 -1.78,1.72 -2.92,1.87l-12.99 1.1 0 -10.09 6.82 -0.58 0 -1.07 -8.13 0.69 0 -2.1zm-0.44 14.04l19.54 -1.65 0 2.15 -3.01 0.25c0.33,0.95 0.72,1.88 1.16,2.78l-2.69 0.2c-0.3,-0.87 -0.62,-1.8 -0.94,-2.78l-8.64 0.73c-0.37,1.08 -0.76,2.07 -1.19,2.98l-2.6 0.22c0.47,-1.02 0.87,-2.01 1.19,-2.98l-2.83 0.24 0 -2.15zm23.42 -17.39l19.04 -3.95 0 2.01 -8.49 1.76c-0.1,0.37 -0.21,0.72 -0.34,1.05l3.94 -0.82c2.67,-0.46 4.01,0.73 4.01,3.58 0,2.61 -1.15,4.25 -3.47,4.93l-8.94 1.85c-0.03,0.31 -0.09,0.62 -0.18,0.93l10.17 -2.11c0.98,-0.13 1.48,0.24 1.48,1.09 0,1.12 -1.33,2.61 -3.99,4.49 0.78,-0.04 1.6,-0.11 2.47,-0.21 1.09,-0.18 2.25,-0.4 3.47,-0.65l0 2.15c-4.07,0.79 -7.2,1.04 -9.36,0.78 -2.66,1.33 -5.96,2.42 -9.9,3.26l0 -2.13c2.64,-0.55 4.95,-1.2 6.92,-1.96 -1.14,-0.45 -2.05,-1.07 -2.76,-1.88 -0.91,1.03 -2.19,1.77 -3.83,2.24l0 -1.94c1.97,-0.74 3.13,-1.95 3.49,-3.63l-1.9 0.4 0 -8.62 6 -1.25c0.12,-0.35 0.23,-0.7 0.34,-1.05l-8.17 1.7 0 -2.01zm3.9 9.17l10.39 -2.16c0.66,-0.14 1.11,-0.54 1.36,-1.22l-11.76 2.44 0 0.94zm0 -2.27l12.05 -2.5c0,-0.12 0,-0.25 0,-0.39 0,-0.15 -0.01,-0.3 -0.02,-0.45l-12.03 2.5 0 0.84zm0 -2.15l11.71 -2.43c-0.3,-0.54 -0.8,-0.73 -1.5,-0.58l-10.21 2.12 0 0.89zm2.19 8.31c0.93,0.8 2.19,1.33 3.78,1.59 2.51,-1.39 3.86,-2.4 4.06,-3.04 0,-0.14 -0.07,-0.19 -0.23,-0.16l-7.61 1.6z"/>
 </g>
</svg>
