<?xml version="1.0" encoding="UTF-8"?>
<!DOCTYPE svg PUBLIC "-//W3C//DTD SVG 1.1//EN" "http://www.w3.org/Graphics/SVG/1.1/DTD/svg11.dtd">
<!-- Creator: CorelDRAW 2020 (64-Bit) -->
<svg xmlns="http://www.w3.org/2000/svg" xml:space="preserve" width="2550px" height="2550px" version="1.1" shape-rendering="geometricPrecision" text-rendering="geometricPrecision" image-rendering="optimizeQuality" fill-rule="evenodd" clip-rule="evenodd"
viewBox="0 0 891.16 891.16"
 xmlns:xlink="http://www.w3.org/1999/xlink"
 xmlns:xodm="http://www.corel.com/coreldraw/odm/2003">
 <g id="Layer_x0020_1">
  <metadata id="CorelCorpID_0Corel-Layer"/>
  <g id="_2205487343936">
   <path fill="#8C2898" fill-rule="nonzero" d="M264.63 178.31c-10.56,7.02 -24.83,4.38 -31.84,-6.14 -7.01,-10.56 -4.37,-24.83 6.15,-31.84 4.82,-3.3 10.1,-6.59 15.38,-9.89 6.35,-3.96 11.63,-7.01 15.58,-9.24 11.22,-6.15 25.24,-1.98 31.18,9.24 6.15,11.21 1.98,25.23 -9.24,31.17 -5.93,3.3 -10.55,5.94 -13.85,7.92 -4.37,2.64 -8.99,5.49 -13.4,8.58l0 0.2 0.04 0zm180.95 -178.31c122.97,0 234.56,49.86 315.14,130.44 80.58,80.58 130.44,192.17 130.44,315.14 0,122.97 -49.86,234.56 -130.44,315.14 -80.58,80.58 -192.17,130.44 -315.14,130.44 -122.97,0 -234.56,-49.86 -315.14,-130.44 -80.58,-80.58 -130.44,-192.17 -130.44,-315.14 0,-122.97 49.86,-234.56 130.44,-315.14 80.58,-80.58 192.17,-130.44 315.14,-130.44zm-429.37 471.73c286.4,122.56 572.55,130.02 858.91,0.65 0.66,-8.99 0.87,-17.77 0.87,-26.8 0,-118.81 -48.09,-226.44 -126.07,-304.17 -77.98,-77.99 -185.37,-126.07 -304.17,-126.07 -118.81,0 -226.44,48.08 -304.18,126.07 -77.98,77.98 -126.06,185.36 -126.06,304.17 0,8.78 0.2,17.57 0.86,26.35l-0.2 -0.21 0.04 0.01zm113.53 -92.01c-2.64,12.54 -14.73,20.42 -27.22,17.78 -12.54,-2.64 -20.41,-14.73 -17.78,-27.22 7.47,-35.59 20.01,-69.86 37.33,-101.45 17.36,-31.63 39.3,-60.82 65.23,-86.31 8.99,-8.99 23.72,-8.78 32.5,0.21 8.99,8.99 8.78,23.5 -0.21,32.49 -22.84,22.39 -41.94,47.88 -57.11,75.55 -15.14,27.67 -26.15,57.53 -32.74,88.75l0 0.2 0 0z"/>
   <path fill="#FEFEFE" fill-rule="nonzero" d="M168.61 569.74l14.12 2.71c1.47,3.1 2.76,6.42 3.85,9.96l22.13 4.24c-0.79,-3.48 -1.93,-6.87 -3.42,-10.18l14.55 2.79c1.39,3.19 2.48,6.57 3.27,10.15l19.31 3.71c1.77,-3.2 3.42,-6.34 4.89,-9.49l15.31 2.94c-1.39,3.55 -2.91,6.74 -4.61,9.54l0.45 0.09c12.07,3.63 18.13,9.67 18.13,18.13 -0.31,8.33 -1.24,14.4 -2.84,18.22l-14.4 -2.76c2.87,6.3 5.2,12.3 6.97,17.98l-14.4 -2.76c-3.16,-10 -8.71,-21.98 -16.62,-36.02l14.39 2.76c3.68,6.15 6.85,12.1 9.51,17.85 2.08,-7.55 3.12,-12.51 3.12,-14.81 0,-3.43 -2.56,-5.65 -7.71,-6.64l-85.85 -16.46 0 19.66 -13.81 -2.65 -0.3 -32.58 17.54 3.52c-0.92,-3.4 -2.08,-6.69 -3.58,-9.9zm22.86 30.69l12.93 2.48c-0.3,4.9 -0.46,9.36 -0.46,13.38 0,5.04 2.29,8 6.85,8.88 20.78,3.99 31.73,5.72 32.82,5.24l0 13c-2.58,0 -15.43,-2.21 -38.63,-6.66 -0.48,-0.19 -0.98,-0.39 -1.47,-0.59 -1.09,1.7 -2.28,3.31 -3.57,4.76l50.36 9.66c6.14,1.8 9.2,5.66 9.2,11.6 0,6.56 -6.94,12.37 -20.78,17.49 5.83,2.33 12.17,4.45 19.01,6.35 6.72,1.6 13.84,3.12 21.37,4.57l0 14.37c-27.02,-5.49 -47.27,-12.14 -60.73,-19.99 -17.34,2.54 -39.37,1.33 -66.11,-3.59l0 -13.76c19.22,3.69 35.41,5.32 48.57,4.93 -7.13,-6.11 -12.85,-12.81 -17.21,-20.1 -7.53,3.3 -16.45,5.28 -26.74,5.91l0 -14.35c19.41,-2.54 31.32,-8.57 35.79,-18.09 -1.09,-2.84 -1.63,-6.17 -1.63,-9.99 0,-5.75 0.16,-10.91 0.43,-15.5zm18.86 3.93l14.58 2.79c3.06,6.14 5.42,11.99 7.12,17.55l-15.01 -2.88c-1.19,-4.87 -3.42,-10.69 -6.69,-17.46zm-9.5 49.43c4.97,6.11 11.35,11.62 19.16,16.53 11.68,-2.28 18.02,-4.91 19.01,-7.84 0,-1.01 -0.43,-1.61 -1.32,-1.78l-36.85 -6.91zm72.18 -83.99l0 13.16c-22.96,-2.78 -61.72,-9.21 -116.29,-19.29l0 -12.7c56.25,10.79 95,17.07 116.29,18.83zm-97.58 27.86l11.74 2.25c-0.38,16.76 -7.18,27.71 -20.33,32.85l0.12 -15.56c5.56,-4.17 8.39,-10.67 8.47,-19.54zm185.34 -20.52l15.24 1.1 0 11.64 35.88 2.59c12.69,2.34 19.07,7.83 19.18,16.51 -0.31,7.02 -1.32,12.29 -3.04,15.81l-15.37 -1.11c2.21,-6.4 3.32,-10.6 3.32,-12.62 0,-3.53 -2.68,-5.48 -8,-5.87l-84.02 -6.07 0 18.15 -14.47 -1.05 -0.15 -31.31 51.43 3.87 0 -11.64zm-54.29 43.85l125.33 9.05 0 13.91 -77.68 -5.61c-3.02,5.95 -6.29,11.44 -9.81,16.53l54.16 3.91c8.03,1.31 14.23,4.51 18.56,9.68 4.5,4.45 6.87,10.56 7.08,18.34 0,8.57 -2.12,14.98 -6.34,19.21 -5.02,5.19 -11.17,7.61 -18.4,7.29l-71.79 -5.18 0 -34.64c-7.13,5.94 -14.99,10.71 -23.53,14.33l0 -17.99c13.46,-6.2 24.68,-17.08 33.64,-32.67l-31.22 -2.25 0 -13.91zm35.57 75.01l52.8 3.66c9.37,0.26 14.28,-4.21 14.77,-13.44 -0.49,-7.91 -4.45,-12.68 -11.89,-14.33l-55.68 -4.02 0 28.13zm154.83 -111.66l13.9 -0.65c-0.6,12.93 -0.9,26.7 -0.9,41.31 0,26.12 0.2,43.84 0.61,53.21 0.6,13.26 4.67,19.73 12.22,19.37 17.64,-0.83 31.48,-2.98 41.56,-6.5l0 14.84c-7.76,2.97 -21.32,4.93 -40.65,5.84 -15.91,0.75 -24.8,-8.3 -26.74,-27.18 -0.59,-19.22 -0.95,-38.85 -1.05,-58.92 0.2,-13.3 0.56,-27.1 1.05,-41.32zm24.93 -1.48l13.9 -0.66c5.13,29 9.23,64.45 12.24,106.35l-14.36 0.67c-2.42,-35.88 -6.34,-71.34 -11.78,-106.36zm30.81 -1.46l14.82 -0.7c8.35,35.1 15.06,78.03 20.08,128.79l-15.1 0.72c-4.13,-43.35 -10.73,-86.29 -19.8,-128.81zm-82.32 3.89l14.96 -0.71 0 33.11c-1.71,54.62 -10.63,88.12 -26.74,100.47l0 -23.9c6.96,-10.42 10.88,-35.89 11.78,-76.45l0 -32.52zm168.45 -18.53l16.09 -3.52 -23.78 24.09 7.24 -1.58c2.47,-2.35 5.02,-4.81 7.69,-7.41l11.82 -2.43 0 -11.95 26 -5.68c9.75,-0.64 14.62,4.7 14.62,16 -0.3,11.06 -5.22,17.82 -14.77,20.32l-14.63 3.2 0 0.9c0,3.43 1.19,4.87 3.56,4.36 4.41,-1.17 8.44,-2.39 12.1,-3.71 -0.2,-0.75 -0.4,-1.51 -0.58,-2.3l10.19 -2.22c1.38,5.04 2.64,10.46 3.83,16.27l-10.34 2.26c-0.3,-1.46 -0.53,-2.83 -0.73,-4.1 -5.42,2.12 -11.67,3.92 -18.76,5.47 -6.91,1.12 -10.36,-3.46 -10.36,-13.76l-0.13 -23.1 -25.11 24.38 12.56 -2.74c0.27,-1.48 0.53,-3.08 0.73,-4.86l9.76 -2.13c-1.59,17.69 -10.01,28.92 -25.27,33.65 -5.42,1.19 -9.45,1.84 -12.12,1.91l0 -9.09c1.76,0.03 5.72,-0.63 11.82,-1.96 3.93,-1.17 7.14,-3.14 9.61,-5.9l-19.07 4.17c-2.74,0.6 -4.13,-1.65 -4.13,-6.79 0,-0.62 3.25,-4.24 9.76,-10.91l-5.63 1.23c-3.35,0.63 -5.16,-0.93 -5.47,-4.71 0,-1.11 0.46,-2.37 1.34,-3.78l22.16 -23.58zm42.99 1.03l-12.71 2.78 0 4.85 17.27 -3.78c-0.88,-2.13 -2.39,-3.42 -4.56,-3.85zm5.02 11.47l-17.73 3.88 0 4.82 11.68 -2.55c3.25,-0.71 5.27,-2.75 6.05,-6.15zm14.77 -24.86l25.42 -5.55c6.4,-0.6 9.6,1.51 9.6,6.36 0,2.92 -2.12,7.82 -6.35,14.68 5.42,8.31 8.12,14.56 8.12,18.8 0,6.65 -2.42,10.77 -7.24,12.31 -5.42,1.19 -9.91,2.02 -13.44,2.5l0 -10.89c2.17,-0.27 4.87,-0.78 8.12,-1.49 0.88,-0.19 1.34,-0.83 1.34,-1.94 0,-0.6 -2.07,-4.14 -6.2,-10.6 -1.29,-2.63 -1.95,-4.5 -1.95,-5.61 0,-1.52 2,-6.19 5.93,-13.99l-11.37 2.48 0 46.28 -11.98 2.62 0 -55.96zm-32.8 63.41l14.62 -3.2 0 3.18 51.87 -11.34 0 9.99 -18.33 4c-0.58,2.76 -1.16,5.34 -1.77,7.8l23.78 -5.2 0 11.04 -125.71 27.49 0 -11.05 25.41 -5.55c-0.4,-2.42 -0.83,-4.8 -1.34,-7.12l-18.75 4.1 0 -9.98 50.22 -10.98 0 -3.18zm-17.27 16.94c0.38,2.45 0.78,4.81 1.18,7.15l48.44 -10.59c0.6,-2.64 1.18,-5.24 1.79,-7.8l-51.41 11.24zm62.17 9.4c5.53,-0.92 10.01,-0.07 13.47,2.5 3.83,2.49 5.75,6.31 5.75,11.44 0,6.25 -1.52,11.38 -4.57,15.35 -2.87,4.16 -7.11,7.05 -12.7,8.69l-89.69 19.61 0 -38.41 87.74 -19.18zm-73.69 43.94l72.23 -15.8c3.05,-0.67 5.02,-2.67 5.9,-5.99l-78.13 17.09 0 4.7zm0 -13.48l77.85 -17.02c-1.18,-2.35 -3.55,-3.25 -7.11,-2.68l-70.74 15.47 0 4.23z"/>
  </g>
 </g>
</svg>
