<?xml version="1.0" encoding="UTF-8"?>
<!DOCTYPE svg PUBLIC "-//W3C//DTD SVG 1.1//EN" "http://www.w3.org/Graphics/SVG/1.1/DTD/svg11.dtd">
<!-- Creator: CorelDRAW 2021.5 -->
<svg xmlns="http://www.w3.org/2000/svg" xml:space="preserve" width="100%" height="100%" version="1.1" style="shape-rendering:geometricPrecision; text-rendering:geometricPrecision; image-rendering:optimizeQuality; fill-rule:evenodd; clip-rule:evenodd"
viewBox="0 0 132.8 132.8"
 xmlns:xlink="http://www.w3.org/1999/xlink"
 xmlns:xodm="http://www.corel.com/coreldraw/odm/2003">
 <defs>
  <style type="text/css">
   <![CDATA[
    .fil0 {fill:none;fill-rule:nonzero}
    .fil1 {fill:#8C2898;fill-rule:nonzero}
    .fil2 {fill:white;fill-rule:nonzero}
   ]]>
  </style>
   <clipPath id="id0" style="clip-rule:nonzero">
    <path d="M2.42 70.29c42.67,18.26 85.31,19.37 127.99,0.1 0.1,-1.34 0.13,-2.65 0.13,-3.99 0,-17.7 -7.17,-33.74 -18.78,-45.32 -11.62,-11.62 -27.62,-18.78 -45.32,-18.78 -17.7,0 -33.74,7.17 -45.32,18.78 -11.62,11.62 -18.78,27.62 -18.78,45.32 0,1.31 0.03,2.62 0.13,3.93l-0.03 -0.03z"/>
   </clipPath>
    <clipPath id="id1">
     <path d="M16.82 75.8c32.08,10.8 64.14,11.7 96.21,1.32l0 -54.73c-0.42,-0.44 -0.85,-0.88 -1.28,-1.31 -11.62,-11.62 -27.62,-18.78 -45.32,-18.78 -17.7,0 -33.74,7.17 -45.32,18.78 -1.51,1.51 -2.94,3.09 -4.29,4.74l0 49.98z"/>
    </clipPath>
    <clipPath id="id2">
     <path d="M2.42 70.29c42.67,18.26 85.31,19.37 127.99,0.1 0.1,-1.34 0.13,-2.65 0.13,-3.99 0,-17.7 -7.17,-33.74 -18.78,-45.32 -11.62,-11.62 -27.62,-18.78 -45.32,-18.78 -17.7,0 -33.74,7.17 -45.32,18.78 -11.62,11.62 -18.78,27.62 -18.78,45.32 0,1.31 0.03,2.62 0.13,3.93l-0.03 -0.03z"/>
    </clipPath>
 </defs>
 <g id="Layer_x0020_1">
  <metadata id="CorelCorpID_0Corel-Layer"/>
  <g>
  </g>
  <g style="clip-path:url(#id0)">
   <g id="_1823092622432">
   </g>
   <g style="clip-path:url(#id1)">
   </g>
   <g style="clip-path:url(#id2)">
   </g>
  </g>
  <path class="fil0" d="M2.42 70.29c42.67,18.26 85.31,19.37 127.99,0.1 0.1,-1.34 0.13,-2.65 0.13,-3.99 0,-17.7 -7.17,-33.74 -18.78,-45.32 -11.62,-11.62 -27.62,-18.78 -45.32,-18.78 -17.7,0 -33.74,7.17 -45.32,18.78 -11.62,11.62 -18.78,27.62 -18.78,45.32 0,1.31 0.03,2.62 0.13,3.93l-0.03 -0.03z"/>
  <path class="fil1" d="M39.43 26.57c-1.57,1.05 -3.7,0.65 -4.75,-0.92 -1.05,-1.57 -0.65,-3.7 0.92,-4.75 0.72,-0.49 1.51,-0.98 2.29,-1.47 0.95,-0.59 1.73,-1.05 2.32,-1.37 1.67,-0.92 3.76,-0.29 4.65,1.37 0.92,1.67 0.29,3.76 -1.37,4.65 -0.88,0.49 -1.57,0.88 -2.06,1.18 -0.65,0.39 -1.34,0.82 -2,1.28l0 0.03zm26.97 -26.57c18.33,0 34.95,7.43 46.96,19.44 12.01,12.01 19.44,28.63 19.44,46.96 0,18.33 -7.43,34.95 -19.44,46.96 -12.01,12.01 -28.63,19.44 -46.96,19.44 -18.33,0 -34.95,-7.43 -46.96,-19.44 -12.01,-12.01 -19.44,-28.63 -19.44,-46.96 0,-18.33 7.43,-34.95 19.44,-46.96 12.01,-12.01 28.63,-19.44 46.96,-19.44zm-63.98 70.29c42.67,18.26 85.31,19.37 127.99,0.1 0.1,-1.34 0.13,-2.65 0.13,-3.99 0,-17.7 -7.17,-33.74 -18.78,-45.32 -11.62,-11.62 -27.62,-18.78 -45.32,-18.78 -17.7,0 -33.74,7.17 -45.32,18.78 -11.62,11.62 -18.78,27.62 -18.78,45.32 0,1.31 0.03,2.62 0.13,3.93l-0.03 -0.03zm16.92 -13.71c-0.39,1.87 -2.19,3.04 -4.06,2.65 -1.87,-0.39 -3.04,-2.19 -2.65,-4.06 1.11,-5.3 2.98,-10.41 5.56,-15.12 2.59,-4.71 5.86,-9.06 9.72,-12.86 1.34,-1.34 3.53,-1.31 4.84,0.03 1.34,1.34 1.31,3.5 -0.03,4.84 -3.4,3.34 -6.25,7.13 -8.51,11.26 -2.26,4.12 -3.89,8.57 -4.88,13.22l0 0.03z"/>
  <path class="fil2" d="M18 82.04c1.99,0.89 3.5,1.89 4.54,3.02l0 2.49c-0.99,-1.14 -2.51,-2.29 -4.54,-3.46l0 -2.06zm-0.06 6.62l2.36 0.56c1.44,0.62 2.24,1.67 2.42,3.16l0 4.62c0,1.05 0.44,1.82 1.34,2.31 1.16,0.9 3.24,1.75 6.25,2.56 3.01,0.71 5.22,1.18 6.63,1.39l0.02 2.02c-0.73,-0.02 -3.12,-0.51 -7.16,-1.47 -4.23,-1.11 -7.01,-2.58 -8.35,-4.41 -0.58,0.92 -1.74,1.43 -3.47,1.54l0 -2.2c1.59,-0.38 2.5,-1.22 2.74,-2.5l0 -3.98c0,-0.46 -0.28,-0.86 -0.85,-1.2l-1.91 -0.45 -0.02 -1.93zm5.68 -5.45l4.94 1.17 0 -1.1 2.09 0.5 0 1.1 5.34 1.27 0 1.9 -5.34 -1.27 0 1.24 5.7 1.35 0 1.9 -13.04 -3.09 0 -1.9 5.25 1.24 0 -1.24 -4.94 -1.17 0 -1.9zm9.52 8.07c0.74,0.22 1.34,0.59 1.8,1.09 0.54,0.56 0.8,1.16 0.8,1.81 0,0.81 -0.22,1.38 -0.65,1.7 -0.37,0.34 -0.94,0.46 -1.71,0.35l-1.67 -0.4c0.22,0.51 0.48,0.99 0.78,1.45 1.12,-0.41 2.34,-0.5 3.65,-0.28l0 1.64c-0.76,-0.09 -1.54,-0.05 -2.34,0.11 0.73,0.65 1.57,1.17 2.51,1.56l0 1.99c-2.74,-0.97 -4.78,-2.88 -6.12,-5.73l0 4.43 -2.05 -0.49 0 -4.78c-1,1.62 -2.48,2.46 -4.45,2.51l0 -1.97c1.25,-0.19 2.18,-0.76 2.8,-1.69l-2.18 -0.52 0 -4.9 8.81 2.09zm-6.88 1.48l6.68 1.58c0.56,0.13 0.84,-0.04 0.84,-0.53 0,-0.45 -0.35,-0.75 -1.04,-0.93l-6.48 -1.54 0 1.42zm14.56 -5.61l4.41 0.52 0 -1.01 2.25 0.27 0 1.01 5.95 0.7 0 -1.12 2.25 0.27 0 1.12 4.3 0.51 0 2.01 -4.3 -0.51 0 0.98 -2.25 -0.27 0 -0.98 -5.95 -0.7 0 0.98 -2.25 -0.27 0 -0.98 -4.41 -0.52 0 -2.01zm4 3.95c1.29,0.32 1.98,1.09 2.09,2.33 0.24,1.32 0.36,3.34 0.36,6.04 0,2.24 -0.03,3.86 -0.09,4.86 0,1.69 -0.62,2.5 -1.86,2.41 -0.54,-0.1 -1.1,-0.19 -1.66,-0.29l0 -1.92c0.41,0.1 0.81,0.17 1.2,0.21 0.29,-0.03 0.44,-0.25 0.45,-0.68 0.03,-0.88 0.05,-1.73 0.07,-2.55l-2.2 -0.26c-0.11,2.55 -0.28,4.29 -0.5,5.2l-1.89 -0.22c0.4,-2.06 0.62,-5.06 0.66,-9.01l0 -6.52 3.37 0.4zm-1.57 8.25l2.14 0.25c0,-0.08 0,-0.15 0,-0.23 0,-0.76 -0.01,-1.48 -0.02,-2.15l-2.09 -0.25 0 0.44c-0.02,0.67 -0.02,1.32 -0.02,1.94zm0.02 -4.3l2 0.24c-0.03,-0.6 -0.08,-1.18 -0.14,-1.75 0,-0.38 -0.25,-0.63 -0.75,-0.75l-1.11 -0.13 0 2.4zm5.84 -3.06l1.98 0.23c0.15,0.52 0.28,1.03 0.38,1.53l1.23 0.15c0.17,-0.56 0.28,-1.15 0.34,-1.77l1.86 0.22c-0.06,0.63 -0.16,1.23 -0.29,1.77l1.34 0.16c0.24,-0.51 0.44,-1 0.59,-1.48l2 0.24c-0.2,0.55 -0.4,1.05 -0.62,1.48l1.59 0.19 0 1.76 -3.23 -0.38c0.17,0.46 0.36,0.9 0.59,1.31l3.13 0.37 0 1.85 -1.7 -0.2c0.53,0.58 1.14,1.11 1.84,1.59l-0.02 2.08c-0.5,-0.29 -0.97,-0.59 -1.41,-0.92l0 0.75c-0.8,-0.06 -1.81,-0.11 -3.02,-0.13l0 -1.65c0.6,-0.02 1.22,-0.02 1.84,-0.01 -0.59,-0.59 -1.11,-1.25 -1.57,-1.99l-3.74 -0.44c-0.62,0.64 -1.35,1.19 -2.18,1.64 0.94,0.14 1.69,0.27 2.25,0.38l0 1.6c-0.76,-0.15 -1.92,-0.33 -3.5,-0.55l0 -0.85c-0.26,0.11 -0.52,0.2 -0.79,0.27l0 -1.9c0.59,-0.25 1.14,-0.55 1.64,-0.91l-1.57 -0.19 0 -1.85 3.3 0.39c0.26,-0.35 0.5,-0.73 0.73,-1.15l-3.84 -0.45 0 -1.76 1.32 0.16c-0.12,-0.49 -0.27,-1 -0.45,-1.54zm5.84 5.18c-0.2,-0.41 -0.36,-0.84 -0.5,-1.3l-0.36 -0.04c-0.17,0.43 -0.36,0.81 -0.59,1.17l1.45 0.17zm-1.98 5.62c-0.02,-1.04 -0.02,-2.11 -0.02,-3.23l2.05 0.24c0.01,1.02 0.02,2.12 0.02,3.3 1.55,0.81 3.22,1.51 5.02,2.11l0 1.85c-1.81,-0.46 -3.49,-1.09 -5.02,-1.9 -0.04,0.73 -0.22,1.31 -0.52,1.74 -0.47,0.53 -0.99,0.76 -1.57,0.71l-2.43 -0.29 0 -1.87 1.66 0.2c0.55,0.06 0.82,-0.17 0.82,-0.71 0,-0.07 0,-0.15 0,-0.23 -1.15,0.18 -2.78,0.31 -4.88,0.38l0 -1.99c1.71,-0.04 3.34,-0.15 4.88,-0.31zm28.03 -9.3c-2.78,0.4 -5.08,0.72 -6.9,0.95 1.68,3.11 3.22,5.35 4.63,6.72l-3.06 0.17c-1.33,-1.68 -2.69,-3.87 -4.09,-6.57 -3.17,0.39 -6.11,0.69 -8.84,0.9l0 -2.33c2.4,-0.16 5,-0.41 7.79,-0.75 -0.67,-1.46 -1.24,-2.82 -1.72,-4.09l2.44 -0.14c0.49,1.24 1.06,2.54 1.72,3.91 2.05,-0.25 4.73,-0.63 8.01,-1.13l0 2.36zm-0.8 13.04c-2.27,0.38 -4.77,0.65 -7.51,0.8 -2.58,0.14 -4.45,0.04 -5.62,-0.33 -2.01,-0.6 -3.01,-1.95 -3.01,-4.04 0,-0.73 0.19,-1.47 0.57,-2.2 0.21,-0.44 0.62,-1.1 1.24,-1.97l2.95 -0.16c-1.48,1.55 -2.22,2.88 -2.22,4.01 0,0.99 0.56,1.69 1.67,2.11 0.84,0.29 1.83,0.4 2.97,0.34 2.76,-0.15 4.25,-0.24 4.48,-0.25 1.78,-0.15 3.28,-0.37 4.5,-0.68l0 2.38zm16.51 -2.37l-3.52 0.56c-2.26,-1.96 -4.87,-3.6 -7.84,-4.93 -1.9,-0.84 -2.85,-1.83 -2.85,-2.96 0,-0.98 1.01,-2.35 3.03,-4.12 2.83,-2.51 4.99,-4.63 6.49,-6.36l3.32 -0.53c-2.45,2.77 -4.79,5.11 -7,7.01 -2.21,1.91 -3.32,3.06 -3.32,3.46 0,0.37 0.54,0.83 1.61,1.39 0.67,0.37 1.36,0.74 2.06,1.11 2.69,1.39 5.37,3.17 8.04,5.36zm12.42 -20.43l0 2.4c-2.62,0.12 -5.52,0.51 -8.7,1.19l0 -2.33c3.18,-0.69 6.08,-1.11 8.7,-1.26zm5.35 10.64c0,2.1 -0.95,3.89 -2.85,5.35 -1.61,1.24 -3.78,2.18 -6.53,2.81 -0.94,0.22 -2.18,0.45 -3.74,0.71l0 -2.33c1.65,-0.28 2.89,-0.51 3.74,-0.71 4.65,-1.08 6.98,-2.83 6.98,-5.27 0,-0.99 -0.29,-1.66 -0.87,-2.02 -0.73,-0.43 -1.92,-0.45 -3.59,-0.06 -1.17,0.27 -2.41,0.81 -3.7,1.61 -1.31,0.81 -2.45,1.72 -3.43,2.74l-2.25 0.52c-0.04,-2.92 0.03,-5.81 0.22,-8.68l2.29 -0.53c-0.13,1.89 -0.21,3.82 -0.22,5.79 2.26,-1.92 4.62,-3.17 7.09,-3.74 2.14,-0.5 3.8,-0.45 4.99,0.13 1.25,0.66 1.87,1.89 1.87,3.69z"/>
 </g>
</svg>
