<?xml version="1.0" encoding="UTF-8"?>
<!DOCTYPE svg PUBLIC "-//W3C//DTD SVG 1.1//EN" "http://www.w3.org/Graphics/SVG/1.1/DTD/svg11.dtd">
<!-- Creator: CorelDRAW 2021.5 -->
<svg xmlns="http://www.w3.org/2000/svg" xml:space="preserve" width="100%" height="100%" version="1.1" style="shape-rendering:geometricPrecision; text-rendering:geometricPrecision; image-rendering:optimizeQuality; fill-rule:evenodd; clip-rule:evenodd"
viewBox="0 0 192.02 192.02"
 xmlns:xlink="http://www.w3.org/1999/xlink"
 xmlns:xodm="http://www.corel.com/coreldraw/odm/2003">
 <defs>
  <style type="text/css">
   <![CDATA[
    .fil0 {fill:none;fill-rule:nonzero}
    .fil1 {fill:#8C2898;fill-rule:nonzero}
    .fil2 {fill:white;fill-rule:nonzero}
   ]]>
  </style>
   <clipPath id="id0" style="clip-rule:nonzero">
    <path d="M3.45 101.64c61.7,26.4 123.36,28.01 185.06,0.14 0.14,-1.94 0.19,-3.83 0.19,-5.77 0,-25.6 -10.36,-48.79 -27.16,-65.54 -16.8,-16.8 -39.94,-27.16 -65.54,-27.16 -25.6,0 -48.79,10.36 -65.54,27.16 -16.8,16.8 -27.16,39.94 -27.16,65.54 0,1.89 0.05,3.79 0.19,5.68l-0.05 -0.05z"/>
   </clipPath>
    <clipPath id="id1">
     <path d="M24.27 109.6c46.38,15.61 92.74,16.91 139.12,1.91l0 -79.14c-0.61,-0.64 -1.22,-1.27 -1.85,-1.9 -16.8,-16.8 -39.94,-27.16 -65.54,-27.16 -25.6,0 -48.79,10.36 -65.54,27.16 -2.18,2.18 -4.25,4.47 -6.2,6.85l0 72.27z"/>
    </clipPath>
    <clipPath id="id2">
     <path d="M3.45 101.64c61.7,26.4 123.36,28.01 185.06,0.14 0.14,-1.94 0.19,-3.83 0.19,-5.77 0,-25.6 -10.36,-48.79 -27.16,-65.54 -16.8,-16.8 -39.94,-27.16 -65.54,-27.16 -25.6,0 -48.79,10.36 -65.54,27.16 -16.8,16.8 -27.16,39.94 -27.16,65.54 0,1.89 0.05,3.79 0.19,5.68l-0.05 -0.05z"/>
    </clipPath>
 </defs>
 <g id="Layer_x0020_1">
  <metadata id="CorelCorpID_0Corel-Layer"/>
  <g>
  </g>
  <g style="clip-path:url(#id0)">
   <g id="_1788547015488">
   </g>
   <g style="clip-path:url(#id1)">
   </g>
   <g style="clip-path:url(#id2)">
   </g>
  </g>
  <path class="fil0" d="M3.45 101.64c61.7,26.4 123.36,28.01 185.06,0.14 0.14,-1.94 0.19,-3.83 0.19,-5.77 0,-25.6 -10.36,-48.79 -27.16,-65.54 -16.8,-16.8 -39.94,-27.16 -65.54,-27.16 -25.6,0 -48.79,10.36 -65.54,27.16 -16.8,16.8 -27.16,39.94 -27.16,65.54 0,1.89 0.05,3.79 0.19,5.68l-0.05 -0.05z"/>
  <path class="fil1" d="M57.02 38.42c-2.27,1.51 -5.35,0.95 -6.86,-1.32 -1.51,-2.27 -0.95,-5.35 1.32,-6.86 1.04,-0.71 2.18,-1.42 3.31,-2.13 1.37,-0.85 2.51,-1.51 3.36,-1.99 2.41,-1.32 5.44,-0.43 6.72,1.99 1.32,2.41 0.43,5.44 -1.99,6.72 -1.28,0.71 -2.27,1.28 -2.98,1.7 -0.95,0.57 -1.94,1.18 -2.89,1.85l0 0.05zm38.99 -38.42c26.5,0 50.54,10.74 67.9,28.11 17.37,17.37 28.11,41.4 28.11,67.9 0,26.5 -10.74,50.54 -28.11,67.9 -17.37,17.37 -41.4,28.11 -67.9,28.11 -26.5,0 -50.54,-10.74 -67.9,-28.11 -17.37,-17.37 -28.11,-41.4 -28.11,-67.9 0,-26.5 10.74,-50.54 28.11,-67.9 17.37,-17.37 41.4,-28.11 67.9,-28.11zm-92.51 101.64c61.7,26.4 123.36,28.01 185.06,0.14 0.14,-1.94 0.19,-3.83 0.19,-5.77 0,-25.6 -10.36,-48.79 -27.16,-65.54 -16.8,-16.8 -39.94,-27.16 -65.54,-27.16 -25.6,0 -48.79,10.36 -65.54,27.16 -16.8,16.8 -27.16,39.94 -27.16,65.54 0,1.89 0.05,3.79 0.19,5.68l-0.05 -0.05zm24.46 -19.83c-0.57,2.7 -3.17,4.4 -5.87,3.83 -2.7,-0.57 -4.4,-3.17 -3.83,-5.87 1.61,-7.67 4.31,-15.05 8.04,-21.86 3.74,-6.81 8.47,-13.11 14.05,-18.6 1.94,-1.94 5.11,-1.89 7,0.05 1.94,1.94 1.89,5.06 -0.05,7 -4.92,4.83 -9.04,10.32 -12.3,16.28 -3.26,5.96 -5.63,12.4 -7.05,19.12l0 0.05z"/>
  <path class="fil2" d="M34.24 132.35c-0.87,0.51 -1.79,0.9 -2.78,1.17l0 -3.31c2,-0.88 3.69,-2.48 5.07,-4.8l2.94 0.65c-0.65,1.51 -1.42,2.79 -2.33,3.85l0 19.18 -2.9 -0.64 0 -16.11zm6.07 -11.03l3.3 0.73c0.08,-0.4 0.18,-0.82 0.29,-1.26l2.81 0.62c-0.08,0.44 -0.18,0.86 -0.29,1.26l2.55 0.56c1.59,0.68 2.39,1.72 2.39,3.11 -0.04,0.85 -0.15,1.62 -0.32,2.31l1.1 0.24 0 2.75 -12.14 -2.68 0 -2.75 2.68 0.59c0.13,-0.76 0.27,-1.54 0.42,-2.32l-2.78 -0.61 0 -2.55zm5.62 3.79c-0.18,0.8 -0.34,1.57 -0.49,2.3l2.84 0.63c0.13,-0.63 0.2,-1.24 0.22,-1.84 0,-0.35 -0.17,-0.56 -0.51,-0.64l-2.07 -0.46zm-6.43 18.66l1.22 0.27 0 -2.28 -0.87 -0.19 0 -2.65 5.26 1.16 0 -1.29 -5.1 -1.12 0 -7.58 8.85 1.95c1.03,0.29 1.87,0.82 2.52,1.58 0.71,0.82 1.06,1.73 1.06,2.75 0,1.24 -0.29,2.13 -0.87,2.69 -0.52,0.57 -1.3,0.78 -2.36,0.64l-1.13 -0.25 0 1.29 3.91 0.86 0 2.65 -3.91 -0.86 0 2.28 4.2 0.93 0 2.85 -4.2 -0.93 0 3.04 -2.97 -0.66 0 -3.04 -5.62 -1.24 0 -2.85zm3.58 -1.49l0 2.28 2.03 0.45 0 -2.28 -2.03 -0.45zm-0.26 -6.44l5.78 1.28c0.78,0.17 1.16,-0.19 1.16,-1.1 0,-0.84 -0.47,-1.39 -1.42,-1.63l-5.52 -1.22 0 2.68zm10.3 -11.75l6.56 1.45 0 2.88 -6.56 -1.45 0 -2.88zm2.27 8.34l-2.39 -0.53 0 -2.87 6.98 1.54 0 2.87 -1.68 -0.37c0.07,2.4 0.09,5.87 0.09,10.41 0,3.69 -0.08,6.09 -0.25,7.22 -0.26,1.71 -1.2,2.38 -2.81,2.03 -0.95,-0.21 -1.71,-0.47 -2.29,-0.81l0 -2.74c0.45,0.3 0.95,0.51 1.48,0.63 0.58,0.13 0.88,-0.29 0.88,-1.26 0.06,-0.71 0.09,-2.57 0.09,-5.57 0,-3.75 -0.03,-7.26 -0.09,-10.54zm-19.32 -13.16l2.97 0.66c-1.68,4.06 -4.2,6.63 -7.56,7.7l0 -3.11c1.81,-1.03 3.34,-2.78 4.59,-5.24zm29.34 7.69l6.39 0.57 0 -1.46 3.26 0.29 0 1.46 8.63 0.77 0 -1.62 3.26 0.29 0 1.62 6.23 0.56 0 2.91 -6.23 -0.56 0 1.42 -3.26 -0.29 0 -1.42 -8.63 -0.77 0 1.42 -3.26 -0.29 0 -1.42 -6.39 -0.57 0 -2.91zm5.8 5.55c1.87,0.41 2.87,1.5 3.03,3.28 0.35,1.91 0.52,4.81 0.52,8.71 0,3.24 -0.04,5.58 -0.13,7.03 0,2.45 -0.9,3.63 -2.7,3.56 -0.79,-0.12 -1.59,-0.23 -2.4,-0.35l0 -2.78c0.59,0.12 1.18,0.21 1.74,0.26 0.42,-0.05 0.64,-0.38 0.66,-1 0.04,-1.27 0.08,-2.51 0.1,-3.69l-3.19 -0.29c-0.16,3.69 -0.4,6.21 -0.73,7.54l-2.74 -0.25c0.57,-2.99 0.89,-7.34 0.96,-13.05l0 -9.42 4.88 0.44zm-2.28 12l3.1 0.28c0,-0.11 0,-0.22 0,-0.33 0,-1.1 -0.01,-2.14 -0.03,-3.11l-3.03 -0.27 0 0.63c-0.02,0.97 -0.03,1.9 -0.03,2.81zm0.03 -6.22l2.9 0.26c-0.05,-0.86 -0.11,-1.71 -0.2,-2.53 0,-0.55 -0.37,-0.9 -1.09,-1.06l-1.61 -0.14 0 3.47zm8.47 -4.67l2.87 0.26c0.22,0.75 0.4,1.48 0.56,2.2l1.78 0.16c0.24,-0.81 0.41,-1.67 0.49,-2.57l2.7 0.24c-0.09,0.92 -0.23,1.78 -0.43,2.58l1.95 0.17c0.35,-0.74 0.64,-1.46 0.85,-2.17l2.9 0.26c-0.29,0.81 -0.58,1.53 -0.89,2.17l2.31 0.21 0 2.55 -4.68 -0.42c0.24,0.66 0.53,1.28 0.86,1.87l4.54 0.41 0 2.68 -2.47 -0.22c0.77,0.82 1.66,1.56 2.67,2.23l-0.03 3.01c-0.73,-0.4 -1.41,-0.82 -2.05,-1.27l0 1.09c-1.16,-0.06 -2.62,-0.08 -4.38,-0.06l0 -2.38c0.88,-0.06 1.77,-0.08 2.67,-0.09 -0.86,-0.83 -1.61,-1.76 -2.28,-2.82l-5.43 -0.49c-0.91,0.96 -1.96,1.78 -3.17,2.47 1.36,0.16 2.45,0.32 3.26,0.46l0 2.31c-1.1,-0.19 -2.79,-0.4 -5.07,-0.65l0 -1.23c-0.38,0.16 -0.76,0.3 -1.15,0.43l0 -2.74c0.85,-0.39 1.65,-0.85 2.37,-1.38l-2.28 -0.2 0 -2.68 4.78 0.43c0.37,-0.52 0.73,-1.08 1.06,-1.69l-5.57 -0.5 0 -2.55 1.91 0.17c-0.17,-0.7 -0.39,-1.43 -0.66,-2.21zm8.47 7.24c-0.29,-0.58 -0.53,-1.19 -0.72,-1.85l-0.53 -0.05c-0.24,0.62 -0.53,1.19 -0.85,1.71l2.11 0.19zm-2.87 8.21c-0.02,-1.5 -0.03,-3.06 -0.03,-4.67l2.97 0.27c0.02,1.48 0.03,3.07 0.03,4.77 2.24,1.1 4.67,2.05 7.28,2.84l0 2.68c-2.63,-0.59 -5.06,-1.44 -7.28,-2.54 -0.06,1.05 -0.31,1.9 -0.75,2.54 -0.69,0.78 -1.44,1.14 -2.28,1.09l-3.52 -0.32 0 -2.71 2.41 0.22c0.79,0.07 1.19,-0.28 1.19,-1.06 0,-0.11 0,-0.22 0,-0.33 -1.67,0.31 -4.03,0.56 -7.08,0.75l0 -2.88c2.49,-0.13 4.85,-0.35 7.08,-0.65zm21.74 -21.88l3.45 -0.34c0.2,0.66 0.45,1.34 0.76,2.04l8.89 -0.87c0.37,-0.74 0.69,-1.47 0.96,-2.18l3.32 -0.33c-0.22,0.77 -0.47,1.49 -0.75,2.16l5.37 -0.53 0 3.04 -12.05 1.18 0 1.95 11.22 -1.1 0 3.04 -11.22 1.1 0 1.99 11.88 -1.17 0 3.04 -26.99 2.65 0 -3.04 11.92 -1.17 0 -1.99 -11.1 1.09 0 -3.04 11.1 -1.09 0 -1.95 -11.85 1.16 0 -3.04 5.83 -0.57c-0.29,-0.68 -0.53,-1.36 -0.72,-2.05zm-5.37 18.58l12.01 -1.18c0.02,-0.09 0.03,-0.18 0.03,-0.27l-0.07 -1.65 3.39 -0.33 0 1.65c0,0.09 -0.01,0.18 -0.03,0.27l12.05 -1.18 0 3.01 -11.62 1.14c2.57,2.57 6.48,3.86 11.72,3.88l0 3.27c-6.49,-0.2 -11.09,-1.79 -13.79,-4.77 -2.26,3.57 -6.83,6.05 -13.69,7.43l0 -3.27c5.88,-1.24 9.6,-3.27 11.16,-6.09l-11.16 1.09 0 -3.01zm33.58 -7.52l6.17 -1.33 0 -1.76 3.07 -0.66 0 1.76 6.14 -1.33 0 3.01 -2.17 0.47c0.33,3.35 0.9,5.77 1.72,7.27l0 4.27c-2.14,-1.28 -3.58,-4.94 -4.33,-10.98l-1.36 0.29 0 12.27 -3.07 0.66 0 -12.27 -1.36 0.29c-0.56,5.37 -2.03,9.66 -4.4,12.86l0 -4.3c0.86,-2.2 1.41,-4.85 1.65,-7.97l-2.07 0.45 0 -3.01zm15.52 -17.44l0 2.94c-2.97,0.97 -8.03,2.26 -15.16,3.87l0 -2.95c7.35,-1.59 12.4,-2.87 15.16,-3.86zm-14.96 7.96l2.81 -0.61c0.52,1.94 1.03,4.01 1.52,6.22l-2.91 0.63c-0.41,-2.16 -0.88,-4.24 -1.42,-6.24zm5.3 -1.24l2.78 -0.6c0.35,2 0.66,4.15 0.94,6.45l-2.84 0.61c-0.24,-2.22 -0.53,-4.37 -0.88,-6.46zm6.18 -1.4l2.91 -0.63c-0.45,3.23 -0.87,5.56 -1.26,6.99l-2.94 0.63c0.61,-2.64 1.04,-4.98 1.3,-7zm11.31 -7.27l3.33 -0.72c-1.29,5.39 -4.73,9.59 -10.31,12.58l0 -3.34c4.21,-2.45 6.53,-5.29 6.98,-8.52zm0.17 8.07l3.29 -0.71c-1.25,5.69 -4.59,10.07 -10.02,13.14l-0.03 -3.23c4.09,-2.58 6.35,-5.65 6.76,-9.2zm0.77 8.53l3.27 -0.7c-1.94,6.55 -5.67,11.67 -11.19,15.37l0 -3.57c3.66,-2.29 6.3,-5.99 7.92,-11.1z"/>
 </g>
</svg>
