<?xml version="1.0" encoding="UTF-8"?>
<!DOCTYPE svg PUBLIC "-//W3C//DTD SVG 1.1//EN" "http://www.w3.org/Graphics/SVG/1.1/DTD/svg11.dtd">
<!-- Creator: CorelDRAW 2021.5 -->
<svg xmlns="http://www.w3.org/2000/svg" xml:space="preserve" width="100%" height="100%" version="1.1" style="shape-rendering:geometricPrecision; text-rendering:geometricPrecision; image-rendering:optimizeQuality; fill-rule:evenodd; clip-rule:evenodd"
viewBox="0 0 216.12 216.12"
 xmlns:xlink="http://www.w3.org/1999/xlink"
 xmlns:xodm="http://www.corel.com/coreldraw/odm/2003">
 <defs>
  <style type="text/css">
   <![CDATA[
    .fil0 {fill:none;fill-rule:nonzero}
    .fil1 {fill:#8C2898;fill-rule:nonzero}
    .fil2 {fill:white;fill-rule:nonzero}
   ]]>
  </style>
   <clipPath id="id0" style="clip-rule:nonzero">
    <path d="M3.94 114.4c69.45,29.72 138.84,31.53 208.29,0.16 0.16,-2.18 0.21,-4.31 0.21,-6.5 0,-28.81 -11.66,-54.91 -30.57,-73.76 -18.91,-18.91 -44.95,-30.57 -73.76,-30.57 -28.81,0 -54.91,11.66 -73.76,30.57 -18.91,18.91 -30.57,44.95 -30.57,73.76 0,2.13 0.05,4.26 0.21,6.39l-0.05 -0.05z"/>
   </clipPath>
    <clipPath id="id1">
     <path d="M27.37 123.35c52.2,17.57 104.38,19.04 156.58,2.15l0 -89.07c-0.68,-0.72 -1.38,-1.43 -2.08,-2.14 -18.91,-18.91 -44.95,-30.57 -73.76,-30.57 -28.81,0 -54.91,11.66 -73.76,30.57 -2.45,2.45 -4.78,5.03 -6.98,7.71l0 81.35z"/>
    </clipPath>
    <clipPath id="id2">
     <path d="M3.94 114.4c69.45,29.72 138.84,31.53 208.29,0.16 0.16,-2.18 0.21,-4.31 0.21,-6.5 0,-28.81 -11.66,-54.91 -30.57,-73.76 -18.91,-18.91 -44.95,-30.57 -73.76,-30.57 -28.81,0 -54.91,11.66 -73.76,30.57 -18.91,18.91 -30.57,44.95 -30.57,73.76 0,2.13 0.05,4.26 0.21,6.39l-0.05 -0.05z"/>
    </clipPath>
 </defs>
 <g id="Layer_x0020_1">
  <metadata id="CorelCorpID_0Corel-Layer"/>
  <g>
  </g>
  <g style="clip-path:url(#id0)">
   <g id="_1787652773808">
   </g>
   <g style="clip-path:url(#id1)">
   </g>
   <g style="clip-path:url(#id2)">
   </g>
  </g>
  <path class="fil0" d="M3.94 114.4c69.45,29.72 138.84,31.53 208.29,0.16 0.16,-2.18 0.21,-4.31 0.21,-6.5 0,-28.81 -11.66,-54.91 -30.57,-73.76 -18.91,-18.91 -44.95,-30.57 -73.76,-30.57 -28.81,0 -54.91,11.66 -73.76,30.57 -18.91,18.91 -30.57,44.95 -30.57,73.76 0,2.13 0.05,4.26 0.21,6.39l-0.05 -0.05z"/>
  <path class="fil1" d="M64.18 43.25c-2.56,1.7 -6.02,1.06 -7.72,-1.49 -1.7,-2.56 -1.06,-6.02 1.49,-7.72 1.17,-0.8 2.45,-1.6 3.73,-2.4 1.54,-0.96 2.82,-1.7 3.78,-2.24 2.72,-1.49 6.12,-0.48 7.56,2.24 1.49,2.72 0.48,6.12 -2.24,7.56 -1.44,0.8 -2.56,1.44 -3.36,1.92 -1.06,0.64 -2.18,1.33 -3.25,2.08l0 0.05zm43.88 -43.25c29.82,0 56.88,12.09 76.42,31.64 19.55,19.55 31.64,46.6 31.64,76.42 0,29.82 -12.09,56.88 -31.64,76.42 -19.55,19.55 -46.6,31.64 -76.42,31.64 -29.82,0 -56.88,-12.09 -76.42,-31.64 -19.55,-19.55 -31.64,-46.6 -31.64,-76.42 0,-29.82 12.09,-56.88 31.64,-76.42 19.55,-19.55 46.6,-31.64 76.42,-31.64zm-104.12 114.4c69.45,29.72 138.84,31.53 208.29,0.16 0.16,-2.18 0.21,-4.31 0.21,-6.5 0,-28.81 -11.66,-54.91 -30.57,-73.76 -18.91,-18.91 -44.95,-30.57 -73.76,-30.57 -28.81,0 -54.91,11.66 -73.76,30.57 -18.91,18.91 -30.57,44.95 -30.57,73.76 0,2.13 0.05,4.26 0.21,6.39l-0.05 -0.05zm27.53 -22.31c-0.64,3.04 -3.57,4.95 -6.6,4.31 -3.04,-0.64 -4.95,-3.57 -4.31,-6.6 1.81,-8.63 4.85,-16.94 9.05,-24.61 4.21,-7.67 9.53,-14.75 15.82,-20.93 2.18,-2.18 5.75,-2.13 7.88,0.05 2.18,2.18 2.13,5.7 -0.05,7.88 -5.54,5.43 -10.17,11.61 -13.85,18.32 -3.67,6.71 -6.34,13.95 -7.94,21.52l0 0.05z"/>
  <path class="fil2" d="M35.11 135.99l4.11 0.91 0 -3.02 2.91 0.64 0 3.02 3.85 0.85 0 3.23 -0.58 -0.13c0.02,9.61 0.14,18.28 0.33,25.99l-2.47 -0.51c-0.09,-5.11 -0.16,-13.78 -0.18,-25.99l-0.94 -0.21 0 27.33 -2.91 -0.64 0 -27.33 -1.05 -0.23c-0.02,8.99 -0.09,17.62 -0.18,25.91l-2.51 -0.55c0.22,-8.07 0.33,-16.69 0.33,-25.88l-0.69 -0.15 0 -3.23zm27.45 3.9c1.45,0.49 2.24,1.41 2.36,2.75 0,1.32 -0.55,2.23 -1.64,2.73 -0.9,0.49 -1.68,0.89 -2.33,1.2 0.14,0.21 0.28,0.41 0.4,0.61 1.12,0.49 2.03,1.21 2.77,2.14 0.92,1.24 1.38,2.47 1.38,3.69l0 10.16c-0.07,2.87 -0.7,4.29 -1.89,4.28l-2.36 -0.48 0 -2.72 0.87 0.19c0.34,0.08 0.51,-0.5 0.51,-1.71l0 -0.93 -2.36 -0.52 0 5.48 -2.98 -0.66 0 -5.48 -2.18 -0.48 0 5.36 -2.9 -0.64 0 -19.84 4.54 1c-1.23,-0.87 -2.77,-1.62 -4.62,-2.24l0 -2.54c2.47,0.77 4.53,1.72 6.18,2.86 1.99,-0.51 2.98,-0.91 2.98,-1.2 0,-0.35 -0.15,-0.55 -0.44,-0.62l-9.09 -2.01 0 -2.76 10.8 2.38zm-7.46 17.49l2.18 0.48 0 -3.02 -2.18 -0.48 0 3.02zm5.17 1.14l2.36 0.52 0 -3.02 -2.36 -0.52 0 3.02zm-2.98 -9.64l-2.18 -0.48 0 3.17 2.18 0.48 0 -3.17zm5.34 4.35l0 -0.41c0,-0.82 -0.32,-1.52 -0.98,-2.12 -0.38,-0.45 -0.85,-0.8 -1.38,-1.05l0 3.06 2.36 0.52zm-16.17 -4.76l1.35 0.3c1.87,0.83 2.92,2.4 3.16,4.72l0 9.9c0,1.05 0.47,1.81 1.41,2.29 1.24,0.89 3.46,1.73 6.65,2.51 3.23,0.71 5.58,1.17 7.05,1.37l0 2.9c-0.78,0 -3.36,-0.48 -7.74,-1.45 -4.55,-1.11 -7.58,-2.74 -9.05,-4.9 -0.43,1.32 -1.37,2.16 -2.8,2.51l0 -3.65c1.07,-1.03 1.68,-2.66 1.86,-4.88l0 -6.7c0,-0.69 -0.37,-1.29 -1.09,-1.8l-0.76 -0.17 -0.04 -2.95zm0.37 -8.63c1.77,1.04 3.16,2.06 4.18,3.08l0 4.24c-1.26,-1.64 -2.65,-2.92 -4.18,-3.82l0 -3.5zm46.18 5.15c3.16,0.61 5.66,2.3 7.49,5.1 1.66,2.48 2.55,5.75 2.67,9.81 0,4.96 -0.82,8.45 -2.45,10.47 -1.73,2.55 -4.21,3.88 -7.45,3.98l-18.28 -1.64 0 -29.33 18.02 1.61zm-14.17 24.53l14.31 1.28c2.15,-0.06 3.68,-1.06 4.6,-3.01 1.04,-1.99 1.56,-4.61 1.56,-7.86 -0.1,-3.24 -0.7,-5.83 -1.82,-7.76 -1.11,-2.08 -2.78,-3.31 -5.01,-3.69l-13.65 -1.22 0 22.26zm51.08 -26.91c5.96,0.06 9.07,4.54 9.34,13.46 0,2.85 -0.03,5.05 -0.08,6.6 -0.22,3.2 -1.1,5.76 -2.63,7.7 -1.88,2.39 -3.93,3.7 -6.15,3.91l-15.59 1.53 0 -31.72 15.11 -1.48zm-11.38 29.03l11.19 -1.1c1.45,-0.14 2.73,-0.88 3.81,-2.24 0.97,-1.14 1.52,-2.85 1.67,-5.15 0.13,-0.85 0.2,-2.04 0.22,-3.55l-16.93 1.66 0.04 10.38zm-0.04 -14.03l16.97 -1.67c-0.3,-6.22 -2.42,-9.44 -6.37,-9.65l-10.6 1.04 0 10.27zm30.57 -15.67l11.76 -2.54c0.46,-0.87 0.87,-1.76 1.24,-2.68l3.75 -0.81c-0.27,0.9 -0.57,1.77 -0.91,2.61l13.64 -2.94 0 3.46 -7.42 1.6c2.35,1.92 5.11,2.92 8.26,2.98l0 4.06c-1.55,-0.11 -2.98,-0.33 -4.29,-0.67l0 1.9 -22.31 4.81 0 -1.6c-1.24,0.69 -2.55,1.36 -3.93,2l0 -3.95c3.81,-1.77 6.88,-4.01 9.21,-6.72l-8.99 1.94 0 -3.46zm7.53 7.54l15.79 -3.41c-2.28,-1.05 -4.14,-2.54 -5.56,-4.5l-3.93 0.85c-1.6,2.66 -3.7,5 -6.3,7.06zm-8.19 8.69l30.75 -6.64 0 3.53 -13.17 2.84c0.12,1.12 0.23,2.38 0.33,3.8 0,1.86 -0.14,3.13 -0.4,3.81 -0.36,2.03 -1.88,3.48 -4.55,4.33 -2.09,0.45 -3.81,0.75 -5.17,0.89l0 -3.46c1.38,-0.1 2.71,-0.29 4,-0.56 1.65,-0.36 2.52,-1.44 2.58,-3.24 -0.05,-1.73 -0.16,-3.33 -0.32,-4.81l-14.05 3.03 0 -3.53zm4.66 3.83l3.24 -0.7c-0.12,4.52 -2.34,8.03 -6.66,10.52l0 -3.57c2.28,-1.63 3.42,-3.72 3.42,-6.25zm18.26 -3.83l3.35 -0.72c0.15,1.83 1.27,3.12 3.38,3.89l0 4.13c-3.69,-0.94 -5.93,-3.37 -6.73,-7.3z"/>
 </g>
</svg>
