<?xml version="1.0" encoding="UTF-8"?>
<!DOCTYPE svg PUBLIC "-//W3C//DTD SVG 1.1//EN" "http://www.w3.org/Graphics/SVG/1.1/DTD/svg11.dtd">
<!-- Creator: CorelDRAW 2021.5 -->
<svg xmlns="http://www.w3.org/2000/svg" xml:space="preserve" width="100%" height="100%" version="1.1" style="shape-rendering:geometricPrecision; text-rendering:geometricPrecision; image-rendering:optimizeQuality; fill-rule:evenodd; clip-rule:evenodd"
viewBox="0 0 192.02 192.02"
 xmlns:xlink="http://www.w3.org/1999/xlink"
 xmlns:xodm="http://www.corel.com/coreldraw/odm/2003">
 <defs>
  <style type="text/css">
   <![CDATA[
    .fil0 {fill:none;fill-rule:nonzero}
    .fil1 {fill:#8C2898;fill-rule:nonzero}
    .fil2 {fill:white;fill-rule:nonzero}
   ]]>
  </style>
   <clipPath id="id0" style="clip-rule:nonzero">
    <path d="M3.5 101.64c61.7,26.4 123.36,28.01 185.07,0.14 0.14,-1.94 0.19,-3.83 0.19,-5.77 0,-25.6 -10.36,-48.79 -27.16,-65.54 -16.8,-16.8 -39.94,-27.16 -65.54,-27.16 -25.6,0 -48.79,10.36 -65.54,27.16 -16.8,16.8 -27.16,39.94 -27.16,65.54 0,1.89 0.05,3.79 0.19,5.68l-0.05 -0.05z"/>
   </clipPath>
    <clipPath id="id1">
     <path d="M24.32 109.6c46.38,15.61 92.74,16.91 139.13,1.91l0 -79.14c-0.61,-0.64 -1.22,-1.27 -1.85,-1.9 -16.8,-16.8 -39.94,-27.16 -65.54,-27.16 -25.6,0 -48.79,10.36 -65.54,27.16 -2.18,2.18 -4.25,4.47 -6.2,6.85l0 72.28z"/>
    </clipPath>
    <clipPath id="id2">
     <path d="M3.5 101.64c61.7,26.4 123.36,28.01 185.07,0.14 0.14,-1.94 0.19,-3.83 0.19,-5.77 0,-25.6 -10.36,-48.79 -27.16,-65.54 -16.8,-16.8 -39.94,-27.16 -65.54,-27.16 -25.6,0 -48.79,10.36 -65.54,27.16 -16.8,16.8 -27.16,39.94 -27.16,65.54 0,1.89 0.05,3.79 0.19,5.68l-0.05 -0.05z"/>
    </clipPath>
 </defs>
 <g id="Layer_x0020_1">
  <metadata id="CorelCorpID_0Corel-Layer"/>
  <g>
  </g>
  <g style="clip-path:url(#id0)">
   <g id="_1823096905104">
   </g>
   <g style="clip-path:url(#id1)">
   </g>
   <g style="clip-path:url(#id2)">
   </g>
  </g>
  <path class="fil0" d="M3.5 101.64c61.7,26.4 123.36,28.01 185.07,0.14 0.14,-1.94 0.19,-3.83 0.19,-5.77 0,-25.6 -10.36,-48.79 -27.16,-65.54 -16.8,-16.8 -39.94,-27.16 -65.54,-27.16 -25.6,0 -48.79,10.36 -65.54,27.16 -16.8,16.8 -27.16,39.94 -27.16,65.54 0,1.89 0.05,3.79 0.19,5.68l-0.05 -0.05z"/>
  <path class="fil1" d="M57.02 38.42c-2.27,1.51 -5.35,0.95 -6.86,-1.32 -1.51,-2.27 -0.95,-5.35 1.32,-6.86 1.04,-0.71 2.18,-1.42 3.31,-2.13 1.37,-0.85 2.51,-1.51 3.36,-1.99 2.41,-1.32 5.44,-0.43 6.72,1.99 1.32,2.41 0.43,5.44 -1.99,6.72 -1.28,0.71 -2.27,1.28 -2.98,1.7 -0.95,0.57 -1.94,1.18 -2.89,1.85l0 0.05zm38.99 -38.42c26.5,0 50.54,10.74 67.9,28.11 17.37,17.37 28.11,41.4 28.11,67.9 0,26.5 -10.74,50.54 -28.11,67.9 -17.37,17.37 -41.4,28.11 -67.9,28.11 -26.5,0 -50.54,-10.74 -67.9,-28.11 -17.37,-17.37 -28.11,-41.4 -28.11,-67.9 0,-26.5 10.74,-50.54 28.11,-67.9 17.37,-17.37 41.4,-28.11 67.9,-28.11zm-92.51 101.64c61.7,26.4 123.36,28.01 185.07,0.14 0.14,-1.94 0.19,-3.83 0.19,-5.77 0,-25.6 -10.36,-48.79 -27.16,-65.54 -16.8,-16.8 -39.94,-27.16 -65.54,-27.16 -25.6,0 -48.79,10.36 -65.54,27.16 -16.8,16.8 -27.16,39.94 -27.16,65.54 0,1.89 0.05,3.79 0.19,5.68l-0.05 -0.05zm24.46 -19.83c-0.57,2.7 -3.17,4.4 -5.87,3.83 -2.7,-0.57 -4.4,-3.17 -3.83,-5.87 1.61,-7.67 4.31,-15.05 8.04,-21.86 3.74,-6.81 8.47,-13.11 14.05,-18.6 1.94,-1.94 5.11,-1.89 7,0.05 1.94,1.94 1.89,5.06 -0.05,7 -4.92,4.83 -9.04,10.32 -12.3,16.28 -3.26,5.96 -5.63,12.4 -7.05,19.12l0 0.05z"/>
  <path class="fil2" d="M26.69 124.27l0 1.56 13.96 3.47c1.41,0.29 2.34,0.01 2.79,-0.82l-16.74 -4.2zm16.87 1.69c-0.36,-1.02 -1.13,-1.75 -2.31,-2.2l-14.56 -3.65 0 1.62 16.87 4.23zm-22.46 15.4l12.16 3.05 0 -2.61 -8.4 -2.11 0 -2.98 8.4 2.11 0 -2.68 -7.57 -1.9c-1,1.43 -2.53,2.35 -4.59,2.78l0 -3.41c1.91,-0.69 2.96,-2.22 3.18,-4.59l2.86 0.72c-0.07,0.65 -0.16,1.25 -0.29,1.81l6.42 1.61 0 -2.08 2.98 0.75 0 2.08 10.78 2.71 0 2.98 -10.78 -2.71 0 2.68 10.17 2.55 0 2.98 -10.17 -2.55 0 2.61 11.97 3 0 2.98 -27.11 -6.8 0 -2.98zm20.31 -20.28c1.69,0.58 3.01,1.49 3.95,2.75 0.96,1.08 1.46,2.43 1.48,4.04 0,1.77 -0.44,2.99 -1.32,3.67 -1.09,0.87 -2.39,1.14 -3.91,0.81l-17.94 -4.5 0 -11.22 17.74 4.45zm15.75 12.77l0 4.1 2.1 0.28 0 -4.1 -2.1 -0.28zm2.1 7.19l-4.99 -0.66 0 -16.24 6.56 0.86c4.26,0.56 6.43,3.52 6.49,8.89 0,5.03 -1.72,7.52 -5.18,7.49l0 2.31 5.12 0.67 0 2.97 -5.12 -0.67 0 3.51c1.71,0.12 3.45,0.21 5.22,0.29l0 3.21c-3.65,-0.19 -8.19,-0.58 -13.61,-1.16l0 -3.18c1.8,0.21 3.63,0.41 5.51,0.6l0 -3.64 -5.25 -0.69 0 -2.97 5.25 0.69 0 -2.28zm2.88 -2.63c1.38,-0.3 2.18,-1.5 2.4,-3.59l-2.4 -0.32 0 3.9zm2.4 -6.23c-0.26,-2.08 -1.06,-3.44 -2.4,-4.05l0 3.74 2.4 0.32zm-5.28 -4.63l-2.1 -0.28 0 3.94 2.1 0.28 0 -3.94zm19.77 -0.11c1.44,0.39 2.22,1.28 2.33,2.66 0,1.65 -0.63,2.89 -1.9,3.69 -1.31,0.97 -2.42,1.71 -3.34,2.21 0.37,0.6 0.69,1.24 0.95,1.91l2.82 0.37c1.73,0.43 2.59,1.66 2.59,3.72 -0.11,2.59 -1.68,4.1 -4.72,4.54l-0.03 -3.18c1.14,-0.34 1.7,-0.85 1.7,-1.56 0,-0.42 -0.16,-0.65 -0.49,-0.7l-2.36 -0.31c0.15,2.34 0.23,5.4 0.23,9.19 0,2.03 -0.38,3.49 -1.12,4.39 -0.81,0.96 -1.91,1.34 -3.31,1.15l-3.51 -0.46 0 -3.04 2.95 0.39c1.33,0.18 2,-0.74 2,-2.75 0,-3.77 -0.09,-6.86 -0.29,-9.27l-5.48 -0.72 0 -2.94 5.57 0.73c-1.2,-1.86 -2.94,-3.2 -5.21,-4.03l0 -2.74c2.32,0.61 4.21,1.59 5.67,2.93 2.47,-1.4 3.71,-2.37 3.71,-2.92 0,-0.37 -0.14,-0.58 -0.43,-0.62l-9.74 -1.28 0 -2.85 11.41 1.5zm34.8 15.64l0 3.74c-1.34,-0.61 -2.72,-1.15 -4.13,-1.62 -1.65,4.92 -4.9,8.25 -9.75,9.99l0 -3.64c3.22,-1.43 5.42,-3.86 6.61,-7.31 -2.21,-0.62 -4.25,-1.01 -6.15,-1.18 -1.27,3.18 -2.75,5.77 -4.43,7.75 -1.98,2.37 -3.97,3.6 -5.95,3.68 -1.54,0.06 -2.67,-0.53 -3.4,-1.78 -0.62,-0.96 -0.93,-2.28 -0.93,-3.93 0,-2.85 1.2,-5.12 3.6,-6.82 2.09,-1.47 4.61,-2.27 7.56,-2.39 0.4,-0.02 0.83,-0.03 1.29,-0.02 0.93,-2.7 1.39,-4.73 1.39,-6.07 0,-0.62 -0.61,-0.9 -1.85,-0.85l-7.9 0.32 0 -3.38 7.27 -0.29c1.86,-0.07 3.18,0.05 3.97,0.37 1.28,0.52 1.91,1.6 1.91,3.23 0,1.83 -0.45,4.15 -1.35,6.97 1.85,0.21 3.78,0.56 5.79,1.05 0.28,-1.76 0.43,-3.93 0.43,-6.53l3.37 -0.14c0,2.93 -0.2,5.48 -0.59,7.63 1.08,0.4 2.16,0.81 3.24,1.23zm-16.99 -0.15c-2.09,0.13 -3.84,0.59 -5.25,1.4 -1.7,1.04 -2.54,2.47 -2.54,4.3 0,1.65 0.43,2.47 1.29,2.43 0.97,-0.04 2.09,-0.89 3.37,-2.55 1.1,-1.46 2.15,-3.32 3.14,-5.58zm45.34 5.45c-2.26,-1.1 -4.34,-1.87 -6.24,-2.32 -0.41,1.76 -1.25,3.24 -2.51,4.44 -1.27,1.24 -2.81,2 -4.64,2.29 -1.87,0.3 -3.38,0.14 -4.54,-0.47 -1.29,-0.72 -1.93,-2 -1.93,-3.83 0,-3.38 2.32,-5.43 6.96,-6.17 1.15,-0.18 2.41,-0.24 3.76,-0.16l0 -13.6 8.43 -1.34 0 3.34 -5.19 0.82 0 11.22c1.83,0.37 3.8,0.95 5.91,1.74l0 4.04zm-11.53 -16.23l-5.69 0.9c-1.54,5.8 -3.31,11.41 -5.29,16.82l-3.62 0.58c2.05,-5.42 3.85,-11.03 5.43,-16.84l-5.65 0.9 0 -3.21 6.5 -1.03c0.37,-1.45 0.72,-2.91 1.04,-4.4l3.46 -0.55c-0.3,1.48 -0.64,2.95 -1.01,4.39l4.83 -0.77 0 3.21zm2.12 13.39c-1.29,-0.12 -2.56,-0.08 -3.82,0.12 -2.17,0.35 -3.27,1.09 -3.27,2.23 0,1.37 1.03,1.89 3.07,1.57 2.14,-0.34 3.47,-1.65 4.02,-3.92zm38.73 -14.1l0 3.74c-1.3,-0.34 -2.64,-0.61 -4.01,-0.81 -1.61,5.25 -4.77,9.22 -9.48,11.92l0 -3.64c3.13,-2.07 5.27,-4.94 6.43,-8.62 -2.14,-0.18 -4.13,-0.17 -5.98,0.04 -1.24,3.44 -2.68,6.31 -4.3,8.63 -1.92,2.76 -3.85,4.38 -5.78,4.86 -1.5,0.37 -2.6,-0 -3.31,-1.11 -0.6,-0.84 -0.9,-2.09 -0.9,-3.75 0,-2.85 1.17,-5.36 3.5,-7.54 2.03,-1.89 4.48,-3.18 7.35,-3.89 0.39,-0.1 0.81,-0.19 1.26,-0.28 0.9,-2.88 1.35,-5 1.35,-6.35 0,-0.62 -0.6,-0.78 -1.8,-0.49l-7.68 1.88 0 -3.38 7.07 -1.73c1.8,-0.44 3.09,-0.58 3.86,-0.41 1.24,0.27 1.86,1.22 1.86,2.85 0,1.83 -0.44,4.24 -1.32,7.24 1.8,-0.16 3.67,-0.18 5.63,-0.09 0.27,-1.81 0.42,-4.01 0.42,-6.62l3.27 -0.8c0,2.93 -0.19,5.52 -0.58,7.74 1.05,0.19 2.1,0.38 3.15,0.59zm-16.51 3.22c-2.03,0.54 -3.73,1.36 -5.1,2.44 -1.65,1.38 -2.47,2.98 -2.47,4.81 0,1.65 0.42,2.38 1.25,2.18 0.94,-0.23 2.03,-1.31 3.28,-3.22 1.07,-1.67 2.09,-3.74 3.05,-6.21z"/>
 </g>
</svg>
