<?xml version="1.0" encoding="UTF-8"?>
<!DOCTYPE svg PUBLIC "-//W3C//DTD SVG 1.1//EN" "http://www.w3.org/Graphics/SVG/1.1/DTD/svg11.dtd">
<!-- Creator: CorelDRAW 2021.5 -->
<svg xmlns="http://www.w3.org/2000/svg" xml:space="preserve" width="100%" height="100%" version="1.1" style="shape-rendering:geometricPrecision; text-rendering:geometricPrecision; image-rendering:optimizeQuality; fill-rule:evenodd; clip-rule:evenodd"
viewBox="0 0 172.76 172.76"
 xmlns:xlink="http://www.w3.org/1999/xlink"
 xmlns:xodm="http://www.corel.com/coreldraw/odm/2003">
 <defs>
  <style type="text/css">
   <![CDATA[
    .fil0 {fill:none;fill-rule:nonzero}
    .fil1 {fill:#8C2898;fill-rule:nonzero}
    .fil2 {fill:white;fill-rule:nonzero}
   ]]>
  </style>
   <clipPath id="id0" style="clip-rule:nonzero">
    <path d="M3.15 91.45c55.51,23.76 110.99,25.2 166.5,0.13 0.13,-1.75 0.17,-3.45 0.17,-5.19 0,-23.03 -9.32,-43.89 -24.44,-58.96 -15.11,-15.11 -35.93,-24.44 -58.96,-24.44 -23.03,0 -43.89,9.32 -58.96,24.44 -15.11,15.11 -24.44,35.93 -24.44,58.96 0,1.7 0.04,3.41 0.17,5.11l-0.04 -0.04z"/>
   </clipPath>
    <clipPath id="id1">
     <path d="M21.88 98.61c41.73,14.05 83.44,15.22 125.17,1.72l0 -71.2c-0.55,-0.58 -1.1,-1.15 -1.66,-1.71 -15.11,-15.11 -35.93,-24.44 -58.96,-24.44 -23.03,0 -43.89,9.32 -58.96,24.44 -1.96,1.96 -3.82,4.02 -5.58,6.16l0 65.03z"/>
    </clipPath>
    <clipPath id="id2">
     <path d="M3.15 91.45c55.51,23.76 110.99,25.2 166.5,0.13 0.13,-1.75 0.17,-3.45 0.17,-5.19 0,-23.03 -9.32,-43.89 -24.44,-58.96 -15.11,-15.11 -35.93,-24.44 -58.96,-24.44 -23.03,0 -43.89,9.32 -58.96,24.44 -15.11,15.11 -24.44,35.93 -24.44,58.96 0,1.7 0.04,3.41 0.17,5.11l-0.04 -0.04z"/>
    </clipPath>
 </defs>
 <g id="Layer_x0020_1">
  <metadata id="CorelCorpID_0Corel-Layer"/>
  <g>
  </g>
  <g style="clip-path:url(#id0)">
   <g id="_1788431220032">
   </g>
   <g style="clip-path:url(#id1)">
   </g>
   <g style="clip-path:url(#id2)">
   </g>
  </g>
  <path class="fil0" d="M3.15 91.45c55.51,23.76 110.99,25.2 166.5,0.13 0.13,-1.75 0.17,-3.45 0.17,-5.19 0,-23.03 -9.32,-43.89 -24.44,-58.96 -15.11,-15.11 -35.93,-24.44 -58.96,-24.44 -23.03,0 -43.89,9.32 -58.96,24.44 -15.11,15.11 -24.44,35.93 -24.44,58.96 0,1.7 0.04,3.41 0.17,5.11l-0.04 -0.04z"/>
  <path class="fil1" d="M51.3 34.57c-2.04,1.36 -4.81,0.85 -6.17,-1.19 -1.36,-2.04 -0.85,-4.81 1.19,-6.17 0.94,-0.64 1.96,-1.28 2.98,-1.92 1.23,-0.77 2.26,-1.36 3.02,-1.79 2.17,-1.19 4.9,-0.38 6.05,1.79 1.19,2.17 0.38,4.9 -1.79,6.05 -1.15,0.64 -2.04,1.15 -2.68,1.53 -0.85,0.51 -1.75,1.06 -2.6,1.66l0 0.04zm35.08 -34.57c23.84,0 45.47,9.66 61.09,25.29 15.62,15.62 25.29,37.25 25.29,61.09 0,23.84 -9.66,45.47 -25.29,61.09 -15.62,15.62 -37.25,25.29 -61.09,25.29 -23.84,0 -45.47,-9.66 -61.09,-25.29 -15.62,-15.62 -25.29,-37.25 -25.29,-61.09 0,-23.84 9.66,-45.47 25.29,-61.09 15.62,-15.62 37.25,-25.29 61.09,-25.29zm-83.23 91.45c55.51,23.76 110.99,25.2 166.5,0.13 0.13,-1.75 0.17,-3.45 0.17,-5.19 0,-23.03 -9.32,-43.89 -24.44,-58.96 -15.11,-15.11 -35.93,-24.44 -58.96,-24.44 -23.03,0 -43.89,9.32 -58.96,24.44 -15.11,15.11 -24.44,35.93 -24.44,58.96 0,1.7 0.04,3.41 0.17,5.11l-0.04 -0.04zm22.01 -17.84c-0.51,2.43 -2.85,3.96 -5.28,3.45 -2.43,-0.51 -3.96,-2.85 -3.45,-5.28 1.45,-6.9 3.87,-13.54 7.24,-19.67 3.36,-6.13 7.62,-11.79 12.64,-16.73 1.75,-1.75 4.6,-1.7 6.3,0.04 1.75,1.75 1.7,4.56 -0.04,6.3 -4.43,4.34 -8.13,9.28 -11.07,14.64 -2.94,5.36 -5.07,11.15 -6.34,17.2l0 0.04z"/>
  <path class="fil2" d="M17.59 115.43l24.56 6.16 0 3.01 -24.56 -6.16 0 -3.01zm47.79 -0.17c-1.37,11.51 -7.98,18.53 -19.81,21.07l0 -3.28c9.91,-2.36 15.53,-8.46 16.84,-18.27l2.97 0.47zm18.91 -0.15l9.73 0.26 0 2.5 -3.63 -0.1c-0.12,0.58 -0.25,1.16 -0.39,1.75 0.89,0.16 1.63,0.52 2.23,1.07 0.75,0.78 1.19,1.61 1.3,2.5 0.34,1.38 0.51,3.52 0.51,6.41 -0.02,2.36 -0.11,3.96 -0.27,4.79 -0.02,1.03 -0.36,1.93 -1.01,2.71 -0.04,0.03 -0.08,0.06 -0.12,0.08 0.25,1.49 0.54,2.96 0.86,4.4l-2.76 -0.13c-0.16,-1.02 -0.33,-2.08 -0.51,-3.2 -0.12,0.02 -0.25,0.02 -0.39,0.02l-2.03 -0.05c-0.14,1.01 -0.3,2.05 -0.5,3.14l-2.71 -0.07c0.27,-1.08 0.5,-2.13 0.68,-3.14l-0.53 -0.01 0 -18.75 2.56 0.07c0.16,-0.55 0.3,-1.1 0.45,-1.65l-3.48 -0.09 0 -2.5zm3.01 12.31l0 2.74 4.08 0.11c0.02,-0.44 0.03,-0.88 0.03,-1.34 0,-0.5 -0.01,-0.96 -0.03,-1.4l-4.08 -0.11zm3.89 -2.43c-0.02,-0.22 -0.04,-0.43 -0.06,-0.63 -0.06,-1.39 -0.79,-2.18 -2.17,-2.38l-1.67 -0.04 0 2.95 3.89 0.1zm-3.89 7.58l0 2.89 2.17 0.06c1.09,-0.11 1.63,-0.63 1.63,-1.56 0.06,-0.34 0.12,-0.76 0.18,-1.28l-3.99 -0.1zm-16.42 -4.72l2.68 0.07c-0.79,5.24 -2.35,9.44 -4.67,12.61l0 -5.24c0.91,-1.72 1.57,-4.2 1.99,-7.45zm-1.96 -6.95c1.71,0.68 3.27,1.52 4.7,2.53l0 3.22c-1.57,-1.17 -3.14,-2.08 -4.7,-2.74l0 -3.01zm0.12 -6.22c1.69,0.58 3.22,1.31 4.61,2.2l0 3.21c-1.54,-1.03 -3.08,-1.84 -4.61,-2.41l0 -3.01zm5.39 1.54l3.57 0.09 0 -2.14 2.41 0.06 0 2.14 3.03 0.08 0 2.68 -3.03 -0.08 0 1.34c1.15,0.17 2.01,0.87 2.58,2.09 0.58,1.18 0.88,2.57 0.92,4.16 0,2.07 -0.36,3.64 -1.07,4.74 -0.04,0.06 -0.08,0.1 -0.12,0.14 0.08,1.91 0.36,3.67 0.83,5.29l0 4.43c-1.25,-1.68 -2.09,-4.47 -2.5,-8.36 -0.22,0.07 -0.44,0.14 -0.65,0.19l0 8.15 -2.41 -0.06 0 -8.04 -0.75 -0.02c-0.47,3.48 -1.6,6.08 -3.39,7.8l0 -3.75c0.76,-1.17 1.23,-2.54 1.43,-4.1l-0.59 -0.02 0 -12.79 3.3 0.09 0 -1.34 -3.57 -0.09 0 -2.68zm3.57 6.46l-1.13 -0.03 0 7.95 1.13 0.03 0 -7.95zm2.41 7.83c0.29,-0.15 0.58,-0.43 0.86,-0.84 0.32,-0.87 0.48,-1.84 0.48,-2.93 0,-1.07 -0.16,-2.07 -0.48,-2.99 -0.16,-0.42 -0.44,-0.72 -0.86,-0.89l0 7.65zm24.08 -17l3.09 -0.46c0.18,0.59 0.4,1.19 0.68,1.8l7.95 -1.17c0.33,-0.68 0.62,-1.35 0.85,-2.01l2.97 -0.44c-0.2,0.7 -0.42,1.36 -0.67,1.98l4.8 -0.71 0 2.74 -10.78 1.59 0 1.75 10.04 -1.48 0 2.74 -10.04 1.48 0 1.79 10.63 -1.57 0 2.74 -24.14 3.57 0 -2.74 10.66 -1.58 0 -1.79 -9.92 1.47 0 -2.74 9.92 -1.47 0 -1.75 -10.6 1.57 0 -2.74 5.22 -0.77c-0.26,-0.6 -0.47,-1.2 -0.65,-1.81zm-4.8 16.96l10.74 -1.59c0.02,-0.08 0.03,-0.16 0.03,-0.24l-0.06 -1.48 3.03 -0.45 0 1.49c0,0.08 -0.01,0.16 -0.03,0.24l10.78 -1.59 0 2.71 -10.4 1.54c2.3,2.2 5.79,3.19 10.48,2.98l0 2.95c-5.81,0.1 -9.92,-1.12 -12.33,-3.68 -2.02,3.31 -6.1,5.74 -12.24,7.28l0 -2.95c5.26,-1.37 8.59,-3.36 9.98,-5.97l-9.98 1.47 0 -2.71zm40.66 -23.71l2.92 -0.7 0 2 6.77 -1.62c2.26,-0.34 3.5,0.75 3.74,3.27 -0.02,2.23 -0.17,4.07 -0.46,5.52l-2.9 0.69c0.37,-1.73 0.55,-3.51 0.55,-5.34 -0.16,-1.21 -0.81,-1.72 -1.97,-1.53l-3.18 0.76c0.02,1.68 0.04,3.32 0.08,4.89 0,0.78 0.29,1.09 0.87,0.96 0.94,-0.25 1.89,-0.49 2.84,-0.74l0 2.56c-1.27,0.37 -2.74,0.74 -4.4,1.14 -1.27,0.3 -1.94,-0.45 -2,-2.27 -0.04,-2.09 -0.05,-4.06 -0.05,-5.91l-2.29 0.55c-0.48,4.66 -2.71,8.23 -6.69,10.7l0 -2.85c2.32,-1.6 3.66,-4.01 4.03,-7.21l-4.92 1.17 0 7.38 -2.87 0.68 0 -9.79 9.93 -2.34 0 -2zm-10.39 25.57l10.42 -2.48 0 -5.92 -9.32 2.22 0 -2.8 21.68 -5.17 0 2.8 -9.52 2.27 0 5.92 10.57 -2.52 0 2.92 -23.82 5.68 0 -2.92z"/>
 </g>
</svg>
