<?xml version="1.0" encoding="UTF-8"?>
<!DOCTYPE svg PUBLIC "-//W3C//DTD SVG 1.1//EN" "http://www.w3.org/Graphics/SVG/1.1/DTD/svg11.dtd">
<!-- Creator: CorelDRAW 2021.5 -->
<svg xmlns="http://www.w3.org/2000/svg" xml:space="preserve" width="100%" height="100%" version="1.1" style="shape-rendering:geometricPrecision; text-rendering:geometricPrecision; image-rendering:optimizeQuality; fill-rule:evenodd; clip-rule:evenodd"
viewBox="0 0 216.12 216.12"
 xmlns:xlink="http://www.w3.org/1999/xlink"
 xmlns:xodm="http://www.corel.com/coreldraw/odm/2003">
 <defs>
  <style type="text/css">
   <![CDATA[
    .fil0 {fill:none;fill-rule:nonzero}
    .fil1 {fill:#8C2898;fill-rule:nonzero}
    .fil2 {fill:white;fill-rule:nonzero}
   ]]>
  </style>
   <clipPath id="id0" style="clip-rule:nonzero">
    <path d="M3.94 114.4c69.45,29.72 138.84,31.53 208.29,0.16 0.16,-2.18 0.21,-4.31 0.21,-6.5 0,-28.81 -11.66,-54.91 -30.57,-73.76 -18.91,-18.91 -44.95,-30.57 -73.76,-30.57 -28.81,0 -54.91,11.66 -73.76,30.57 -18.91,18.91 -30.57,44.95 -30.57,73.76 0,2.13 0.05,4.26 0.21,6.39l-0.05 -0.05z"/>
   </clipPath>
    <clipPath id="id1">
     <path d="M27.37 123.35c52.2,17.57 104.38,19.04 156.58,2.15l0 -89.07c-0.68,-0.72 -1.38,-1.43 -2.08,-2.14 -18.91,-18.91 -44.95,-30.57 -73.76,-30.57 -28.81,0 -54.91,11.66 -73.76,30.57 -2.45,2.45 -4.78,5.03 -6.98,7.71l0 81.35z"/>
    </clipPath>
    <clipPath id="id2">
     <path d="M3.94 114.4c69.45,29.72 138.84,31.53 208.29,0.16 0.16,-2.18 0.21,-4.31 0.21,-6.5 0,-28.81 -11.66,-54.91 -30.57,-73.76 -18.91,-18.91 -44.95,-30.57 -73.76,-30.57 -28.81,0 -54.91,11.66 -73.76,30.57 -18.91,18.91 -30.57,44.95 -30.57,73.76 0,2.13 0.05,4.26 0.21,6.39l-0.05 -0.05z"/>
    </clipPath>
 </defs>
 <g id="Layer_x0020_1">
  <metadata id="CorelCorpID_0Corel-Layer"/>
  <g>
  </g>
  <g style="clip-path:url(#id0)">
   <g id="_1823092662608">
   </g>
   <g style="clip-path:url(#id1)">
   </g>
   <g style="clip-path:url(#id2)">
   </g>
  </g>
  <path class="fil0" d="M3.94 114.4c69.45,29.72 138.84,31.53 208.29,0.16 0.16,-2.18 0.21,-4.31 0.21,-6.5 0,-28.81 -11.66,-54.91 -30.57,-73.76 -18.91,-18.91 -44.95,-30.57 -73.76,-30.57 -28.81,0 -54.91,11.66 -73.76,30.57 -18.91,18.91 -30.57,44.95 -30.57,73.76 0,2.13 0.05,4.26 0.21,6.39l-0.05 -0.05z"/>
  <path class="fil1" d="M64.18 43.25c-2.56,1.7 -6.02,1.06 -7.72,-1.49 -1.7,-2.56 -1.06,-6.02 1.49,-7.72 1.17,-0.8 2.45,-1.6 3.73,-2.4 1.54,-0.96 2.82,-1.7 3.78,-2.24 2.72,-1.49 6.12,-0.48 7.56,2.24 1.49,2.72 0.48,6.12 -2.24,7.56 -1.44,0.8 -2.56,1.44 -3.36,1.92 -1.06,0.64 -2.18,1.33 -3.25,2.08l0 0.05zm43.88 -43.25c29.82,0 56.88,12.09 76.42,31.64 19.55,19.55 31.64,46.6 31.64,76.42 0,29.82 -12.09,56.88 -31.64,76.42 -19.55,19.55 -46.6,31.64 -76.42,31.64 -29.82,0 -56.88,-12.09 -76.42,-31.64 -19.55,-19.55 -31.64,-46.6 -31.64,-76.42 0,-29.82 12.09,-56.88 31.64,-76.42 19.55,-19.55 46.6,-31.64 76.42,-31.64zm-104.12 114.4c69.45,29.72 138.84,31.53 208.29,0.16 0.16,-2.18 0.21,-4.31 0.21,-6.5 0,-28.81 -11.66,-54.91 -30.57,-73.76 -18.91,-18.91 -44.95,-30.57 -73.76,-30.57 -28.81,0 -54.91,11.66 -73.76,30.57 -18.91,18.91 -30.57,44.95 -30.57,73.76 0,2.13 0.05,4.26 0.21,6.39l-0.05 -0.05zm27.53 -22.31c-0.64,3.04 -3.57,4.95 -6.6,4.31 -3.04,-0.64 -4.95,-3.57 -4.31,-6.6 1.81,-8.63 4.85,-16.94 9.05,-24.61 4.21,-7.67 9.53,-14.75 15.82,-20.93 2.18,-2.18 5.75,-2.13 7.88,0.05 2.18,2.18 2.13,5.7 -0.05,7.88 -5.54,5.43 -10.17,11.61 -13.85,18.32 -3.67,6.71 -6.34,13.95 -7.94,21.52l0 0.05z"/>
  <path class="fil2" d="M43.31 135.55l10.92 2.51c2.87,0.81 5.12,2.49 6.71,5.04 1.28,1.86 2.09,4.01 2.43,6.47l1.67 0.38 0 3.35 -1.6 -0.37c-0.24,2.42 -1.08,4.25 -2.5,5.46 -1.79,1.62 -4.24,2.18 -7.33,1.67l-0.94 -0.22c-1.28,5.12 -4.85,7.95 -10.71,8.49l-0.04 -3.88c3.78,-0.28 6.17,-2.09 7.18,-5.43l-5.94 -1.36 0 -3.42 6.53 1.5c0.02,-0.34 0.04,-0.67 0.04,-1l0 -4.95 -8.27 -1.9 0 -3.35 8.27 1.9 0 -5.88 -6.42 -1.47 0 -3.54zm9.91 5.81l0 5.88 6.56 1.51c-0.19,-1.36 -0.64,-2.56 -1.34,-3.62 -0.99,-1.74 -2.48,-2.94 -4.46,-3.59l-0.76 -0.17zm0 9.23l0 5.55c-0.02,0.14 -0.04,0.28 -0.04,0.4l0.36 0.08c2.13,0.27 3.73,-0.23 4.79,-1.47 0.77,-0.74 1.26,-1.76 1.45,-3.05l-6.56 -1.51zm-16.7 -4.54c-1.07,1.1 -2.22,2 -3.48,2.7l0 -4.77c2.51,-2.15 4.42,-5.51 5.7,-10.08l3.55 0.82c-0.61,2.27 -1.34,4.3 -2.22,6.08l0 26.73 -3.55 -0.82 0 -20.66zm34.68 -3.31l7.2 0.65 0 -1.64 3.67 0.33 0 1.64 9.71 0.87 0 -1.82 3.67 0.33 0 1.82 7.01 0.63 0 3.28 -7.01 -0.63 0 1.6 -3.67 -0.33 0 -1.6 -9.71 -0.87 0 1.6 -3.67 -0.33 0 -1.6 -7.2 -0.65 0 -3.28zm6.53 6.25c2.1,0.46 3.23,1.69 3.41,3.69 0.39,2.14 0.59,5.42 0.59,9.81 0,3.65 -0.04,6.29 -0.15,7.92 0,2.76 -1.01,4.09 -3.04,4.01 -0.89,-0.13 -1.79,-0.26 -2.7,-0.39l0 -3.13c0.66,0.14 1.32,0.23 1.96,0.29 0.47,-0.06 0.72,-0.43 0.74,-1.13 0.05,-1.43 0.09,-2.82 0.11,-4.16l-3.59 -0.32c-0.18,4.15 -0.45,6.99 -0.82,8.49l-3.08 -0.28c0.65,-3.37 1.01,-8.26 1.08,-14.69l0 -10.6 5.49 0.49zm-2.56 13.51l3.49 0.31c0,-0.13 0,-0.25 0,-0.37 0,-1.24 -0.01,-2.41 -0.04,-3.5l-3.41 -0.31 0 0.71c-0.03,1.09 -0.04,2.14 -0.04,3.16zm0.04 -7l3.27 0.29c-0.05,-0.97 -0.13,-1.92 -0.22,-2.85 0,-0.62 -0.41,-1.02 -1.23,-1.19l-1.82 -0.16 0 3.91zm9.53 -5.25l3.23 0.29c0.25,0.84 0.46,1.67 0.63,2.48l2.01 0.18c0.27,-0.92 0.46,-1.88 0.56,-2.89l3.04 0.27c-0.1,1.03 -0.26,2 -0.48,2.9l2.19 0.2c0.39,-0.84 0.72,-1.65 0.96,-2.44l3.27 0.29c-0.32,0.91 -0.66,1.73 -1.01,2.44l2.59 0.23 0 2.87 -5.27 -0.47c0.27,0.75 0.59,1.44 0.97,2.1l5.11 0.46 0 3.01 -2.78 -0.25c0.87,0.92 1.87,1.76 3.01,2.51l-0.04 3.38c-0.82,-0.45 -1.58,-0.92 -2.3,-1.43l0 1.23c-1.31,-0.07 -2.95,-0.09 -4.93,-0.07l0 -2.68c0.99,-0.06 1.99,-0.09 3.01,-0.11 -0.97,-0.93 -1.82,-1.99 -2.56,-3.17l-6.11 -0.55c-1.02,1.08 -2.2,2 -3.56,2.77 1.53,0.18 2.76,0.36 3.67,0.51l0 2.6c-1.23,-0.21 -3.14,-0.45 -5.71,-0.73l0 -1.38c-0.42,0.18 -0.85,0.34 -1.3,0.48l0 -3.09c0.96,-0.44 1.85,-0.95 2.67,-1.55l-2.56 -0.23 0 -3.01 5.38 0.48c0.42,-0.59 0.82,-1.22 1.19,-1.91l-6.27 -0.56 0 -2.87 2.15 0.19c-0.2,-0.79 -0.44,-1.61 -0.74,-2.49zm9.53 8.15c-0.32,-0.65 -0.59,-1.34 -0.82,-2.09l-0.6 -0.05c-0.27,0.7 -0.59,1.34 -0.96,1.93l2.37 0.21zm-3.23 9.24c-0.03,-1.69 -0.04,-3.44 -0.04,-5.26l3.34 0.3c0.02,1.67 0.03,3.45 0.03,5.37 2.52,1.24 5.25,2.31 8.2,3.19l0 3.02c-2.96,-0.67 -5.7,-1.62 -8.2,-2.86 -0.07,1.18 -0.35,2.13 -0.85,2.86 -0.77,0.88 -1.62,1.28 -2.56,1.23l-3.97 -0.36 0 -3.05 2.71 0.24c0.89,0.08 1.34,-0.32 1.34,-1.19 0,-0.12 0,-0.25 0,-0.37 -1.88,0.35 -4.54,0.63 -7.97,0.85l0 -3.24c2.8,-0.14 5.46,-0.39 7.97,-0.73zm35.96 -17.36l0 14.15c0,0.57 0.16,0.89 0.48,0.96l2.53 -0.21c-0.1,-2.53 -0.15,-5.47 -0.15,-8.85 0.05,-2.96 0.13,-5.75 0.22,-8.39 -1.98,0.19 -4.05,0.39 -6.23,0.6l0 -3.35c1.98,-0.17 4.09,-0.37 6.34,-0.61 0.05,-0.98 0.1,-1.91 0.15,-2.81l3.45 -0.29c-0.05,0.9 -0.08,1.79 -0.11,2.69 2.13,-0.23 4.35,-0.49 6.67,-0.79l0 3.39c-2.08,0.25 -4.35,0.51 -6.83,0.8 -0.07,2.74 -0.13,5.51 -0.18,8.32 0,3.6 0.03,6.6 0.08,9l2.48 -0.21c0.35,-0.03 0.52,-0.28 0.52,-0.75l0 -14.26 3.37 -0.29 0 14.97c-0.2,2.18 -1.3,3.35 -3.3,3.52l-2.97 0.25c0,0.15 0,0.29 0,0.41 0.2,1.77 0.97,2.6 2.3,2.49 2.32,-0.2 3.98,-0.51 4.97,-0.94l0 3.54c-1.39,0.34 -3.37,0.62 -5.98,0.84 -2.77,0.18 -4.32,-1.64 -4.67,-5.49 0,-0.2 0,-0.38 0,-0.55l-3.67 0.31c-1.44,-0.18 -2.32,-1.11 -2.67,-2.79l0 -15.38 3.19 -0.27zm-11.53 -7.25l3.93 -0.33 -6.94 9.56 2.53 -0.21 4.49 -6.49 3.86 -0.33 -9.27 13.45 3.93 -0.33c0.6,-0.05 0.89,-0.51 0.89,-1.38l0 -2.64 3.11 -0.26 0 3.95c0,2.03 -1.11,3.21 -3.34,3.52l-0.93 0.08 0 14.63 -3.34 0.28 0 -14.63 -2.49 0.21c-1.53,0.13 -2.3,-0.46 -2.3,-1.77 0,-0.37 0.32,-1 0.96,-1.87l2.19 -3.2 -2.75 0.23c-0.99,-0.09 -1.48,-0.71 -1.48,-1.85 0,-0.39 0.16,-0.83 0.48,-1.3l6.46 -9.3zm-5.16 20.39l2.93 -0.25c-0.08,6.21 -1.46,10.51 -4.15,12.89l0 -4.5c0.82,-1.75 1.22,-4.47 1.22,-8.14zm8.61 -0.77l2.85 -0.24c0.05,2.85 0.46,5.17 1.22,6.97l0 5.88c-2.22,-2.37 -3.58,-6.57 -4.08,-12.61zm28.79 -20.55l11.78 -2.44c0.46,-0.86 0.87,-1.76 1.24,-2.67l3.76 -0.78c-0.27,0.89 -0.57,1.76 -0.91,2.6l13.67 -2.84 0 3.46 -7.43 1.54c2.36,1.94 5.11,2.96 8.27,3.05l0 4.06c-1.56,-0.12 -2.99,-0.36 -4.3,-0.71l0 1.9 -22.35 4.64 0 -1.6c-1.24,0.68 -2.55,1.34 -3.94,1.97l0 -3.95c3.81,-1.74 6.89,-3.95 9.23,-6.65l-9.01 1.87 0 -3.46zm7.55 7.6l15.82 -3.28c-2.28,-1.06 -4.14,-2.58 -5.57,-4.54l-3.94 0.82c-1.61,2.65 -3.71,4.98 -6.31,7.01zm-8.2 8.63l30.8 -6.39 0 3.53 -13.2 2.74c0.12,1.12 0.23,2.38 0.33,3.81 0,1.86 -0.14,3.13 -0.4,3.81 -0.36,2.03 -1.89,3.47 -4.55,4.29 -2.09,0.43 -3.82,0.72 -5.18,0.85l0 -3.46c1.38,-0.09 2.72,-0.26 4.01,-0.53 1.65,-0.34 2.52,-1.42 2.59,-3.22 -0.05,-1.73 -0.16,-3.33 -0.32,-4.81l-14.07 2.92 0 -3.53zm4.67 3.87l3.24 -0.67c-0.12,4.52 -2.34,8.01 -6.67,10.47l0 -3.57c2.28,-1.62 3.43,-3.69 3.43,-6.23zm18.3 -3.68l3.35 -0.7c0.15,1.83 1.28,3.13 3.39,3.92l0 4.13c-3.7,-0.97 -5.94,-3.42 -6.74,-7.35z"/>
 </g>
</svg>
