<?xml version="1.0" encoding="UTF-8"?>
<!DOCTYPE svg PUBLIC "-//W3C//DTD SVG 1.1//EN" "http://www.w3.org/Graphics/SVG/1.1/DTD/svg11.dtd">
<!-- Creator: CorelDRAW 2020 (64-Bit) -->
<svg xmlns="http://www.w3.org/2000/svg" xml:space="preserve" width="2550px" height="2550px" version="1.1" shape-rendering="geometricPrecision" text-rendering="geometricPrecision" image-rendering="optimizeQuality" fill-rule="evenodd" clip-rule="evenodd"
viewBox="0 0 656.54 656.54"
 xmlns:xlink="http://www.w3.org/1999/xlink"
 xmlns:xodm="http://www.corel.com/coreldraw/odm/2003">
 <g id="Layer_x0020_1">
  <metadata id="CorelCorpID_0Corel-Layer"/>
  <g id="_2205487335104">
   <path fill="#8C2898" fill-rule="nonzero" d="M194.96 131.37c-7.78,5.16 -18.29,3.22 -23.46,-4.53 -5.16,-7.77 -3.22,-18.29 4.53,-23.45 3.56,-2.43 7.44,-4.86 11.33,-7.29 4.68,-2.92 8.57,-5.17 11.49,-6.81 8.26,-4.53 18.59,-1.46 22.97,6.81 4.52,8.26 1.45,18.59 -6.81,22.97 -4.37,2.43 -7.78,4.37 -10.21,5.83 -3.22,1.94 -6.62,4.04 -9.87,6.32l0 0.15 0.03 0zm133.31 -131.37c90.6,0 172.81,36.73 232.18,96.1 59.36,59.36 96.09,141.57 96.09,232.17 0,90.6 -36.73,172.81 -96.09,232.18 -59.37,59.36 -141.58,96.09 -232.18,96.09 -90.6,0 -172.81,-36.73 -232.17,-96.09 -59.37,-59.37 -96.1,-141.58 -96.1,-232.18 0,-90.6 36.73,-172.81 96.1,-232.17 59.36,-59.37 141.57,-96.1 232.17,-96.1zm-316.33 347.53c211,90.3 421.82,95.8 632.79,0.49 0.48,-6.62 0.63,-13.09 0.63,-19.75 0,-87.53 -35.42,-166.82 -92.87,-224.09 -57.45,-57.45 -136.57,-92.88 -224.1,-92.88 -87.53,0 -166.82,35.43 -224.09,92.88 -57.45,57.45 -92.88,136.56 -92.88,224.09 0,6.47 0.16,12.94 0.64,19.42l-0.15 -0.16 0.03 0zm83.64 -67.78c-1.94,9.24 -10.85,15.04 -20.05,13.1 -9.24,-1.95 -15.04,-10.85 -13.1,-20.05 5.5,-26.22 14.74,-51.47 27.5,-74.74 12.79,-23.31 28.95,-44.82 48.06,-63.59 6.63,-6.62 17.47,-6.47 23.94,0.15 6.63,6.62 6.47,17.32 -0.15,23.94 -16.83,16.5 -30.9,35.27 -42.08,55.66 -11.15,20.39 -19.26,42.38 -24.12,65.38l0 0.15 0 0z"/>
   <path fill="#FEFEFE" fill-rule="nonzero" d="M112.45 403.78c7.62,4.2 14.51,8.95 20.67,14.23l0 12.48c-6.96,-6.28 -13.85,-11.43 -20.67,-15.45l0 -11.26zm-0.22 24.35c7.39,4.38 14.15,9.32 20.24,14.8l0 11.81c-6.76,-6.52 -13.5,-11.82 -20.24,-15.9l0 -10.71zm10.23 29.21l10.01 2.19c-3.41,17.45 -10.12,30.69 -20.13,39.72l0 -17.29c4.72,-5.2 8.08,-13.4 10.12,-24.62zm26.65 -47.86l10.46 2.3c-0.72,2.21 -1.49,4.31 -2.28,6.3l46.46 10.19 0 9.68 -51.37 -11.26c-4.29,6.03 -9.4,9.53 -15.34,10.46l0 -10.8c5.72,-2.76 9.75,-8.38 12.07,-16.87zm55.41 84.35l0 9.81c-2.4,-0.17 -4.87,-0.37 -7.41,-0.64 -2.47,9.78 -9.61,13.47 -21.44,11.03 -7.33,-1.61 -13.05,-3.13 -17.2,-4.55l0 -9.59c3.35,1.25 9.4,2.84 18.19,4.77 4.7,0.95 7.93,-0.09 9.67,-3.13 -4.94,-0.78 -9.97,-1.73 -15.12,-2.85 -10.15,-2.23 -16.58,-4.14 -19.27,-5.7 -7.32,-4.11 -10.98,-9.53 -10.98,-16.21 0,-2.14 0.5,-5.69 1.52,-10.58l-6.76 -1.48 0 -9.92 8.71 1.91c1.53,-6.8 3.57,-15.08 6.1,-24.85l29.82 6.54c8.99,2.71 14.84,8.67 17.52,17.89 0.65,2.29 1.02,6.42 1.09,12.37l6.52 1.43 0 9.93 -6.41 -1.41c0,6.31 -0.14,11.24 -0.44,14.83 1.97,0.2 3.92,0.35 5.89,0.4zm-16.13 -1.54c0.45,-3.23 0.67,-8.09 0.67,-14.55 0,-0.44 0,-0.9 0,-1.33l-14.71 -3.23 -2.17 16.12c0.65,0.15 1.32,0.29 1.97,0.44 4.92,1.07 9.68,1.93 14.24,2.55zm-25.77 -5.43l2.06 -15.8 -12.19 -2.67c-0.57,3.73 -1.06,7.37 -1.41,10.95 0.21,2.63 1.65,4.35 4.35,5.17 1.89,0.79 4.27,1.56 7.19,2.35zm-8.38 -28.01l11.74 2.57 2.19 -16.44 -9.7 -2.13c-1.74,5.48 -3.15,10.81 -4.23,16zm23.61 -11.75l-2.18 16.45 13.17 2.88c-0.22,-3.6 -0.48,-6.53 -0.76,-8.74 -0.95,-4.96 -4.03,-8.41 -9.25,-10.37l-0.98 -0.22zm87.12 31.44l9.12 0.73c-1.57,4.57 -3.68,8.3 -6.33,11.2l32.86 2.64c0.67,0.06 1.33,0.15 1.99,0.28 -1.09,-1.06 -2.14,-2.15 -3.1,-3.28 -0.44,-0.93 -1.33,-1.43 -2.66,-1.54l-20.77 -1.67 0 -7.47 23.77 1.91c2.52,0.2 4.62,1.53 6.33,3.97 2.95,2.84 6.52,5.58 10.65,8.21l0 10.36c-1.55,-0.79 -3.03,-1.65 -4.44,-2.58 0.16,0.75 0.23,1.54 0.23,2.36 0,3.33 -0.96,5.78 -2.9,7.33 -1.76,1.72 -4.43,2.54 -8,2.48l-41.96 -3.37 0 -13.92c-2.16,0.86 -4.49,1.52 -6.99,1.99l0 -8.79c5.99,-1.76 10.06,-5.37 12.2,-10.84zm-39.19 -51.27c9.68,2.41 17.06,5.49 22.1,9.24l0 12.13c-4.66,-4 -12.04,-7.79 -22.1,-11.33l0 -10.04zm-0.57 18.34c9.93,2.73 17.48,6.31 22.67,10.74l0 12.13c-4.97,-4.62 -12.51,-8.92 -22.67,-12.85l0 -10.02zm-0.78 21.99l10.9 0.88c7.24,1.85 11.36,6.4 12.32,13.69l0 18.5c0,4.9 2.14,8.15 6.45,9.76 5.83,3.3 16.31,5.75 31.42,7.42 15.03,1.21 26.06,1.79 33.09,1.77l0 9.46c-3.54,0.39 -15.5,-0.23 -35.86,-1.87 -21.04,-2.14 -34.87,-6.77 -41.54,-13.92 -2.6,4.32 -7.77,7.28 -15.54,8.89l0 -10.37c6.88,-2.56 10.84,-6.66 11.88,-12.3l0 -16.48c0,-2.3 -1.4,-4.09 -4.23,-5.36l-8.77 -0.7 -0.12 -9.37zm44.32 35.54l30.98 2.49c2.6,0.21 3.89,-0.62 3.89,-2.49 0,-1.71 -1.59,-2.75 -4.78,-3.15l-30.09 -2.42 0 5.57zm-3.23 -49.5l0 2.77 31.45 2.53c3.11,0.04 5.47,-0.71 7.1,-2.21l-38.55 -3.09zm40.89 -1.95c0.07,-0.53 0.09,-1.12 0.09,-1.78 0,-0.23 0,-0.46 0,-0.67l-40.98 -3.29 0 2.46 40.89 3.28zm-30.44 -23.63l10.78 0.87c-0.81,1.42 -1.57,2.71 -2.24,3.83l14.79 1.19c5.25,0.88 9.28,2.84 12.09,5.88 2.98,2.69 4.53,6.31 4.66,10.85 0,5.03 -1.36,8.8 -4.09,11.25 -3.34,3 -7.37,4.39 -12.11,4.16l-43.54 -3.5 0 -32.09 17.67 1.42c0.58,-1.29 1.25,-2.57 1.99,-3.86zm28.54 15.78c-1.25,-1.66 -3.18,-2.79 -5.78,-3.36l-33.21 -2.66 0 2.89 38.99 3.13zm1.9 26.12c4.05,0.33 6.84,1.35 8.32,3.1 1.85,2.32 2.78,4.98 2.78,8.04 0,2.15 -0.23,3.88 -0.68,5.18l-8.98 -0.73c0.36,-1.91 0.55,-3.56 0.55,-4.97 0,-1.85 -1.29,-3.07 -3.89,-3.64l-42.87 -3.44 0 8 -8.98 -0.72 0 -15.13 53.75 4.31zm32.01 2.96l41.06 -1.94 0 -18.71 -23.59 1.12c-3.63,6.26 -8.95,11.34 -15.92,15.24l0 -11.92c6.92,-5.46 10.77,-13.48 11.59,-24.07l10.24 -0.48c-0.23,3.81 -0.74,7.35 -1.56,10.66l19.24 -0.91 0 -12.47 11.24 -0.53 0 12.47 37.72 -1.78 0 10.36 -37.72 1.78 0 18.71 41.52 -1.96 0 10.59 -21.04 1c3.04,14.78 9.95,24.81 20.7,30.1l0 13.6c-16.39,-6.89 -26.86,-21.28 -31.38,-43.2l-9.8 0.46 0 48.01 -11.24 0.53 0 -48.01 -9.9 0.47c-3.34,18.87 -13.65,34.26 -30.93,46.15l-0.12 -14.26c9.95,-6.93 16.66,-17.38 20.15,-31.37l-20.26 0.96 0 -10.6zm114.13 -42.35l21.12 -4.62 0 -5.45 10.78 -2.36 0 5.46 28.51 -6.23 0 -5.46 10.77 -2.36 0 5.46 20.59 -4.5 0 10.14 -20.59 4.49 0 6.03 -10.77 2.36 0 -6.03 -28.51 6.23 0 6.35 -10.78 2.36 0 -6.35 -21.12 4.61 0 -10.13zm58.67 7.35l10.23 -2.24 0 58.93 -10.23 2.23 0 -58.92zm18.29 -4.78l11.09 -2.42c0.74,7.63 1.21,26.58 1.43,56.84 -0.44,6.26 -1.71,10.68 -3.81,13.31 -2.69,4.37 -6.2,7.04 -10.57,7.99 -5.14,1.13 -10.96,2.05 -17.4,2.8l0 -10.14c3.92,-0.26 8.88,-1.06 14.9,-2.38 4.21,-0.92 6.31,-6.02 6.31,-15.3 -0.2,-28.47 -0.87,-45.36 -1.95,-50.7zm-25.69 5.27l0 10.25c-5.74,1.71 -11.98,3.48 -18.72,5.33l0 8.01 20.67 -4.52 0 10.25 -6.85 1.49c0.72,10.04 2.62,18.27 5.66,24.74l0 18.94c-7.76,-7.59 -12.76,-21.48 -15.02,-41.63l-4.46 0.98 0 45.34 -10.33 2.26 0 -45.35 -4.36 0.96c-1.08,21.85 -6.43,37.81 -16,47.85l0 -14.83c3.7,-7.27 5.8,-17.56 6.32,-30.91l-7.53 1.65 0 -10.25 21.57 -4.72 0 -7.45c-6.04,1.62 -12.37,3.22 -19.06,4.83l0 -10.68c13.71,-3 29.76,-7.19 48.11,-12.54z"/>
  </g>
 </g>
</svg>
