<?xml version="1.0" encoding="UTF-8"?>
<!DOCTYPE svg PUBLIC "-//W3C//DTD SVG 1.1//EN" "http://www.w3.org/Graphics/SVG/1.1/DTD/svg11.dtd">
<!-- Creator: CorelDRAW 2021.5 -->
<svg xmlns="http://www.w3.org/2000/svg" xml:space="preserve" width="100%" height="100%" version="1.1" style="shape-rendering:geometricPrecision; text-rendering:geometricPrecision; image-rendering:optimizeQuality; fill-rule:evenodd; clip-rule:evenodd"
viewBox="0 0 172.76 172.76"
 xmlns:xlink="http://www.w3.org/1999/xlink"
 xmlns:xodm="http://www.corel.com/coreldraw/odm/2003">
 <defs>
  <style type="text/css">
   <![CDATA[
    .fil0 {fill:none;fill-rule:nonzero}
    .fil1 {fill:#8C2898;fill-rule:nonzero}
    .fil2 {fill:white;fill-rule:nonzero}
   ]]>
  </style>
   <clipPath id="id0" style="clip-rule:nonzero">
    <path d="M3.15 91.45c55.51,23.76 110.99,25.2 166.5,0.13 0.13,-1.75 0.17,-3.45 0.17,-5.19 0,-23.03 -9.32,-43.89 -24.44,-58.96 -15.11,-15.11 -35.93,-24.44 -58.96,-24.44 -23.03,0 -43.89,9.32 -58.96,24.44 -15.11,15.11 -24.44,35.93 -24.44,58.96 0,1.7 0.04,3.41 0.17,5.11l-0.04 -0.04z"/>
   </clipPath>
    <clipPath id="id1">
     <path d="M21.88 98.61c41.73,14.05 83.44,15.22 125.17,1.72l0 -71.2c-0.55,-0.58 -1.1,-1.15 -1.66,-1.71 -15.11,-15.11 -35.93,-24.44 -58.96,-24.44 -23.03,0 -43.89,9.32 -58.96,24.44 -1.96,1.96 -3.82,4.02 -5.58,6.16l0 65.03z"/>
    </clipPath>
    <clipPath id="id2">
     <path d="M3.15 91.45c55.51,23.76 110.99,25.2 166.5,0.13 0.13,-1.75 0.17,-3.45 0.17,-5.19 0,-23.03 -9.32,-43.89 -24.44,-58.96 -15.11,-15.11 -35.93,-24.44 -58.96,-24.44 -23.03,0 -43.89,9.32 -58.96,24.44 -15.11,15.11 -24.44,35.93 -24.44,58.96 0,1.7 0.04,3.41 0.17,5.11l-0.04 -0.04z"/>
    </clipPath>
 </defs>
 <g id="Layer_x0020_1">
  <metadata id="CorelCorpID_0Corel-Layer"/>
  <g>
  </g>
  <g style="clip-path:url(#id0)">
   <g id="_1823140390944">
   </g>
   <g style="clip-path:url(#id1)">
   </g>
   <g style="clip-path:url(#id2)">
   </g>
  </g>
  <path class="fil0" d="M3.15 91.45c55.51,23.76 110.99,25.2 166.5,0.13 0.13,-1.75 0.17,-3.45 0.17,-5.19 0,-23.03 -9.32,-43.89 -24.44,-58.96 -15.11,-15.11 -35.93,-24.44 -58.96,-24.44 -23.03,0 -43.89,9.32 -58.96,24.44 -15.11,15.11 -24.44,35.93 -24.44,58.96 0,1.7 0.04,3.41 0.17,5.11l-0.04 -0.04z"/>
  <path class="fil1" d="M51.3 34.57c-2.04,1.36 -4.81,0.85 -6.17,-1.19 -1.36,-2.04 -0.85,-4.81 1.19,-6.17 0.94,-0.64 1.96,-1.28 2.98,-1.92 1.23,-0.77 2.26,-1.36 3.02,-1.79 2.17,-1.19 4.9,-0.38 6.05,1.79 1.19,2.17 0.38,4.9 -1.79,6.05 -1.15,0.64 -2.04,1.15 -2.68,1.53 -0.85,0.51 -1.75,1.06 -2.6,1.66l0 0.04zm35.08 -34.57c23.84,0 45.47,9.66 61.09,25.29 15.62,15.62 25.29,37.25 25.29,61.09 0,23.84 -9.66,45.47 -25.29,61.09 -15.62,15.62 -37.25,25.29 -61.09,25.29 -23.84,0 -45.47,-9.66 -61.09,-25.29 -15.62,-15.62 -25.29,-37.25 -25.29,-61.09 0,-23.84 9.66,-45.47 25.29,-61.09 15.62,-15.62 37.25,-25.29 61.09,-25.29zm-83.23 91.45c55.51,23.76 110.99,25.2 166.5,0.13 0.13,-1.75 0.17,-3.45 0.17,-5.19 0,-23.03 -9.32,-43.89 -24.44,-58.96 -15.11,-15.11 -35.93,-24.44 -58.96,-24.44 -23.03,0 -43.89,9.32 -58.96,24.44 -15.11,15.11 -24.44,35.93 -24.44,58.96 0,1.7 0.04,3.41 0.17,5.11l-0.04 -0.04zm22.01 -17.84c-0.51,2.43 -2.85,3.96 -5.28,3.45 -2.43,-0.51 -3.96,-2.85 -3.45,-5.28 1.45,-6.9 3.87,-13.54 7.24,-19.67 3.36,-6.13 7.62,-11.79 12.64,-16.73 1.75,-1.75 4.6,-1.7 6.3,0.04 1.75,1.75 1.7,4.56 -0.04,6.3 -4.43,4.34 -8.13,9.28 -11.07,14.64 -2.94,5.36 -5.07,11.15 -6.34,17.2l0 0.04z"/>
  <path class="fil2" d="M46.29 121.24c3.63,0.92 5.44,3.56 5.44,7.92 0,2.72 -0.72,4.42 -2.15,5.12 0.35,1.31 0.73,2.6 1.14,3.88l-3.46 -0.79c-0.21,-0.9 -0.42,-1.84 -0.62,-2.84l-12.12 -2.67c-0.23,1.04 -0.48,1.89 -0.72,2.55l-3.4 -0.75c0.37,-0.87 0.69,-1.7 0.96,-2.5l-0.96 -0.21 0 -13.21 15.9 3.51zm-13.1 7.82l13.28 2.93c0.87,0.19 1.49,-0.14 1.86,-0.99l-15.14 -3.34 0 1.4zm0 -3.48l15.52 3.42c0.01,-0.22 0.02,-0.42 0.02,-0.62 0,-0.24 -0.01,-0.46 -0.02,-0.69l-15.52 -3.42 0 1.31zm0 -3.42l15.08 3.33c-0.41,-1 -1.09,-1.61 -2.04,-1.82l-13.04 -2.88 0 1.37zm-4.19 -14.35l4.24 0.94c0.02,-0.04 0.03,-0.06 0.03,-0.08l0 -1.25 2.53 0.56 0 1.16c0,0.06 0,0.12 0,0.18l1.92 0.42c0.77,0.27 1.4,0.67 1.89,1.19 0.58,0.52 0.96,1.12 1.13,1.77 0.17,0.69 0.26,1.84 0.26,3.42 0,0.98 -0.3,1.67 -0.9,2.09 -0.6,0.39 -1.5,0.47 -2.7,0.24 -1.45,-0.32 -2.55,-0.6 -3.31,-0.85l0 -2.47c0.81,0.26 1.76,0.5 2.82,0.74 0.89,0.2 1.37,-0.01 1.45,-0.63 0,-0.78 -0.02,-1.37 -0.06,-1.77 -0.13,-0.68 -0.62,-1.17 -1.45,-1.45l-1.39 -0.31c-0.87,2.86 -3.34,4.63 -7.41,5.3l0 -2.95c2.35,-0.47 3.91,-1.46 4.68,-2.95l-3.72 -0.82 0 -2.47zm18.98 3.68c1.51,0.33 2.68,1.04 3.52,2.12 0.83,0.98 1.29,2.13 1.36,3.46 -0.01,1.35 -0.43,2.31 -1.25,2.88 -0.85,0.75 -2.01,0.98 -3.49,0.72l-6.02 -1.33 0 -9.14 5.87 1.3zm-3.25 5.89l3.08 0.68c1.57,0.23 2.36,-0.31 2.36,-1.62 0,-1.27 -0.78,-2.13 -2.33,-2.56l-3.11 -0.69 0 4.2zm13.44 -3.49l11.03 0.99 0 -1.22 2.87 0.26 0 1.22 11.11 1 0 2.56 -11.11 -1 0 1.37 10.44 0.94 0 2.56 -23.68 -2.12 0 -2.56 10.38 0.93 0 -1.37 -11.03 -0.99 0 -2.56zm20.21 9.28c2.41,0.32 3.62,1.39 3.62,3.21 0,1.9 -1.03,2.85 -3.08,2.85l-0.74 -0.07c-0.08,0.45 -0.17,0.86 -0.27,1.23l5.22 0.47 0 2.53 -25.17 -2.25 0 -2.53 5.13 0.46c-0.08,-0.42 -0.17,-0.85 -0.27,-1.27l-2.7 -0.24 0 -6.01 18.26 1.64zm-3.41 6.96c0.1,-0.43 0.19,-0.84 0.27,-1.22l-9.55 -0.86c0.08,0.4 0.15,0.83 0.21,1.27l9.07 0.81zm-11.94 -4.46l15.18 1.36c0.69,0.02 1.04,-0.24 1.04,-0.77 0,-0.59 -0.4,-0.95 -1.21,-1.06l-15 -1.31 0 1.79zm15.47 8.29c1.05,0.15 1.9,0.54 2.55,1.15 0.73,0.66 1.09,1.44 1.09,2.33 0,1.11 -0.29,1.93 -0.89,2.45 -0.54,0.55 -1.33,0.82 -2.37,0.8l-18.73 -1.68 0 -6.7 18.35 1.64zm-15.54 2.93l15.27 1.37c0.79,0.07 1.18,-0.25 1.18,-0.97 0,-0.61 -0.48,-0.99 -1.45,-1.11l-15 -1.34 0 2.05zm26.15 -20.42c2.39,0.4 4.22,1.2 5.48,2.38l0 3.28c-1.21,-1.23 -3.03,-2.22 -5.48,-2.98l0 -2.68zm-0.51 8.68l3.05 -0.3c1.92,0.17 2.99,1.18 3.22,3.05l0 5.74c0,1.33 0.61,2.12 1.84,2.38 1.58,0.64 4.42,0.82 8.53,0.53 4.11,-0.4 7.12,-0.78 9.03,-1.13l0.06 2.62c-0.99,0.29 -4.25,0.71 -9.78,1.25 -5.76,0.45 -9.55,-0.22 -11.37,-2.01 -0.77,1.46 -2.31,2.64 -4.62,3.55l0 -2.85c2.11,-1.16 3.33,-2.61 3.64,-4.34l0 -5.03c0,-0.59 -0.37,-0.99 -1.13,-1.19l-2.46 0.24 -0.03 -2.5zm24.7 -12.03l0 2.44c-4.62,0.6 -10.19,1.25 -16.71,1.97l0 -2.47c4.78,-0.47 10.35,-1.11 16.71,-1.93zm-16.58 5.14l2.69 -0.26c0.53,1.12 1.05,2.33 1.54,3.63l-2.75 0.27c-0.41,-1.25 -0.91,-2.46 -1.48,-3.63zm5.98 -0.86l2.64 -0.26c0.51,1.22 1,2.52 1.45,3.91l-2.69 0.26c-0.38,-1.35 -0.84,-2.66 -1.4,-3.91zm7.67 -0.69l2.84 -0.28c-0.59,1.48 -1.25,2.84 -1.98,4.06l-2.91 0.29c0.91,-1.42 1.59,-2.78 2.05,-4.07zm-13.33 6.1l16.05 -1.58 0 2.53 -6.75 0.66 0 1.49 7.61 -0.75 0 2.53 -7.61 0.75 0 3.87 3.7 -0.36c0.3,-0.03 0.44,-0.22 0.44,-0.58l0 -2.5 2.82 -0.28 0 3.03c-0.14,1.68 -1.05,2.6 -2.72,2.77l-11.67 1.15c-1.16,-0.14 -1.89,-0.85 -2.16,-2.11l0 -3.24 2.64 -0.26 0 2.29c0,0.42 0.12,0.66 0.35,0.74l3.79 -0.37 0 -3.87 -7.49 0.74 0 -2.53 7.49 -0.74 0 -1.49 -6.49 0.64 0 -2.53zm21.6 -5.42l11.09 -2.39 0 -2.14c-2.95,0.69 -6.24,1.44 -9.87,2.25l0 -2.88c11.19,-2.41 18.91,-4.24 23.16,-5.47l0 2.86c-2.52,0.7 -6.01,1.57 -10.48,2.62l0 2.17 11.11 -2.4 0 2.77 -6.08 1.31c1.69,2.21 3.69,3.44 6.02,3.7l0 3.12c-4.15,-0.57 -7.18,-2.63 -9.08,-6.16l-1.98 0.43 0 5.24 -2.82 0.61 0 -5.24 -1.86 0.4c-0.99,2.75 -2.75,5.17 -5.27,7.27l12.95 -2.79c4.46,-0.96 6.73,0.43 6.81,4.18 0,3.65 -1.92,6 -5.76,7.04l-14.89 3.21 0 -10.95c-0.95,0.72 -1.98,1.39 -3.09,2.01l0 -3.04c2.89,-1.72 4.95,-3.81 6.17,-6.27l-6.14 1.33 0 -2.77zm5.82 14.48l0 1.93 11.7 -2.52c1.7,-0.52 2.76,-1.4 3.17,-2.62l-14.86 3.21zm14.78 -5.72c-0.51,-1.04 -1.74,-1.35 -3.69,-0.93l-11.09 2.39 0 1.73 14.78 -3.19z"/>
 </g>
</svg>
