<?xml version="1.0" encoding="UTF-8"?>
<!DOCTYPE svg PUBLIC "-//W3C//DTD SVG 1.1//EN" "http://www.w3.org/Graphics/SVG/1.1/DTD/svg11.dtd">
<!-- Creator: CorelDRAW 2020 (64-Bit) -->
<svg xmlns="http://www.w3.org/2000/svg" xml:space="preserve" width="2550px" height="2550px" version="1.1" shape-rendering="geometricPrecision" text-rendering="geometricPrecision" image-rendering="optimizeQuality" fill-rule="evenodd" clip-rule="evenodd"
viewBox="0 0 413 413"
 xmlns:xlink="http://www.w3.org/1999/xlink"
 xmlns:xodm="http://www.corel.com/coreldraw/odm/2003">
 <g id="Layer_x0020_1">
  <metadata id="CorelCorpID_0Corel-Layer"/>
  <g id="_2205487332416">
   <path fill="#8C2898" fill-rule="nonzero" d="M122.64 82.64c-4.89,3.25 -11.51,2.02 -14.75,-2.85 -3.25,-4.89 -2.03,-11.5 2.84,-14.75 2.24,-1.53 4.69,-3.06 7.13,-4.59 2.95,-1.83 5.39,-3.25 7.23,-4.28 5.19,-2.85 11.69,-0.92 14.44,4.28 2.85,5.2 0.92,11.7 -4.28,14.45 -2.75,1.53 -4.89,2.75 -6.42,3.67 -2.02,1.22 -4.16,2.54 -6.21,3.97l0 0.1 0.02 0zm83.86 -82.64c56.99,0 108.71,23.11 146.05,60.45 37.35,37.34 60.45,89.06 60.45,146.05 0,56.99 -23.1,108.71 -60.45,146.05 -37.34,37.35 -89.06,60.45 -146.05,60.45 -56.99,0 -108.71,-23.1 -146.05,-60.45 -37.34,-37.34 -60.45,-89.06 -60.45,-146.05 0,-56.99 23.11,-108.71 60.45,-146.05 37.34,-37.34 89.06,-60.45 146.05,-60.45zm-198.99 218.62c132.73,56.8 265.35,60.26 398.06,0.3 0.31,-4.16 0.4,-8.23 0.4,-12.42 0,-55.06 -22.28,-104.94 -58.42,-140.97 -36.14,-36.14 -85.91,-58.42 -140.97,-58.42 -55.06,0 -104.94,22.28 -140.97,58.42 -36.14,36.14 -58.42,85.91 -58.42,140.97 0,4.07 0.09,8.14 0.4,12.21l-0.1 -0.09 0.02 0zm52.62 -42.64c-1.23,5.81 -6.83,9.46 -12.62,8.24 -5.81,-1.23 -9.46,-6.83 -8.24,-12.62 3.46,-16.49 9.27,-32.37 17.3,-47.01 8.05,-14.66 18.21,-28.19 30.24,-40 4.16,-4.17 10.98,-4.07 15.06,0.09 4.16,4.17 4.07,10.9 -0.1,15.06 -10.59,10.38 -19.44,22.19 -26.47,35.02 -7.01,12.82 -12.12,26.66 -15.17,41.12l0 0.1 0 0z"/>
   <path fill="#FEFEFE" fill-rule="nonzero" d="M117.14 261.63l6.79 1.49 0 62.59 -6.79 -1.49 0 -62.59zm-20.81 -2.87l6.65 1.45 0 58.17 -6.65 -1.46 0 -58.16zm-13.55 -4.66l0 25.23c0,11.31 -1.12,19.12 -3.35,23.44 -2.56,5.98 -5.34,9.88 -8.36,11.7l-0.07 -10.11c1.46,-2.06 2.7,-5.2 3.71,-9.42 1,-3.89 1.5,-9.51 1.5,-16.84l0.13 -25.34 6.44 1.34zm65.32 13.82l7.05 0.56 0 7.01 7.34 0.59 0 6.23 -2.38 -0.19c-0.42,12.54 -1.13,24.61 -2.16,36.2 1.3,-0.04 2.54,-0.1 3.7,-0.19l0 6.59c-5.07,0.15 -12.08,0.05 -21.02,-0.29l0 -6.45c1.02,0.08 2.03,0.14 3,0.17 -0.04,-12.53 -0.38,-25 -0.97,-37.43l-2.74 -0.22 0 -6.23 8.18 0.65 0 -7zm1.33 50.49c0.83,0.02 1.7,0.02 2.58,-0.01 1.3,-11.53 1.98,-23.78 2.03,-36.77l-5.45 -0.43c0.47,12.33 0.74,24.73 0.84,37.21zm28.43 -49.45l6.7 0.54 0 13.46 5.59 0.45c0.89,0.07 1.33,-0.17 1.33,-0.73l0 -10.3 6.78 0.54 0 11.99c0,3.36 -2.12,4.9 -6.37,4.59l-21.3 -1.71c-3.16,-0.29 -5.07,-2.13 -5.72,-5.49l0 -12.06 6.49 0.52 0 9.88c0,0.84 0.45,1.29 1.33,1.37l5.17 0.41 0 -13.46zm-13.77 21.76l35.49 2.85 0 5.88 -15.29 -1.23c-0.71,1.67 -1.31,3.28 -1.83,4.83l6.64 0.53c3.4,0.5 6.13,1.82 8.18,3.95 2.05,2.22 3.07,4.53 3.07,6.91l0 7.84c-0.18,6.49 -2.06,9.84 -5.65,10.06l-7.41 -0.52 0 -3.3 -3.49 -0.28 0 -19.62 -3.98 -0.31 0 20.17 -5.59 -0.45 0 -20.17 -3.5 -0.28 0 23.26 -6.28 -0.5 0 -28.73 10.83 0.86c0.56,-1.64 1.12,-3.25 1.68,-4.84l-12.87 -1.03 0 -5.88zm25.23 18.69l0 16.47 2.3 0.19c1.54,0.12 2.3,-1.17 2.3,-3.88l0 -7.36c0,-1.59 -0.74,-2.9 -2.23,-3.96 -0.65,-0.61 -1.44,-1.09 -2.37,-1.46zm68.91 -39.37c3.69,0.12 6.51,1.13 8.47,3.04 2.1,1.6 3.2,4.04 3.29,7.31 0,3.55 -0.95,6.31 -2.87,8.28 -2.33,2.52 -5.13,3.91 -8.4,4.19l-41.49 2.3 0 -22.85 41 -2.27zm-34.29 18.93l32.68 -1.88c3.03,-0.31 5.04,-1.43 6.02,-3.35l-38.7 2.15 0 3.08zm0 -8.42l38.84 -2.15c-0.74,-1.73 -2.38,-2.67 -4.9,-2.8l-33.94 1.88 0 3.07zm14.63 15.31l6.64 -0.36 0 11.63 26.38 -1.46 0 6.38 -17.84 0.99c-0.09,1.26 -0.13,2.6 -0.13,4 0,1.86 0.06,3.28 0.2,4.26 0.56,2.02 2.27,2.96 5.12,2.8 5.21,-0.43 9.54,-0.97 12.94,-1.63l0 6.25c-2.15,0.71 -7,1.29 -14.56,1.71 -5.78,0.32 -9.12,-1.6 -10,-5.76 -0.28,-1.94 -0.42,-3.97 -0.42,-6.06 0,-1.79 0.04,-3.51 0.14,-5.2l-9.8 0.54c-3.12,11.35 -11.36,18.15 -24.7,20.43l0 -6.73c9.05,-1.8 14.93,-6.24 17.64,-13.31l-17.84 0.99 0 -6.37 26.23 -1.46 0 -11.64zm-19.8 1.24l6.37 -0.35c0.61,3.23 1.25,6.36 1.96,9.35l-6.51 0.36c-0.66,-2.85 -1.27,-5.98 -1.82,-9.36zm40.93 -2.33l6.65 -0.37c-0.88,4.58 -1.71,7.84 -2.45,9.81l-6.72 0.37c1.22,-3.67 2.05,-6.94 2.52,-9.81zm24.38 -24.88l13.4 -2.34 0 -3.72 6.83 -1.2 0 3.72 18.09 -3.16 0 -3.87 6.83 -1.19 0 3.86 12.77 -2.23 0 6.23 -12.77 2.23 0 3.93 -6.83 1.19 0 -3.92 -18.09 3.16 0 4.07 -6.83 1.2 0 -4.07 -13.4 2.34 0 -6.23zm0.49 36.22l25.2 -4.41 0 -3.43 6.69 -1.18 0 3.44 25.47 -4.46 0 6.45 -11.38 1.99c2.76,3.02 6.35,5.09 10.77,6.24l0 7.93c-7.74,-2.02 -13.83,-6.3 -18.3,-12.85l-6.56 1.14 0 16.68 -6.69 1.17 0 -16.67 -6.35 1.11c-2.76,7.34 -8.89,13.67 -18.37,18.98l0 -7.43c5.29,-3.21 8.95,-6.64 10.98,-10.26l-11.46 2.01 0 -6.45zm55.36 -34.44l0 6.39c-10.58,2.5 -28.47,6 -53.63,10.5l0 -6.09c25.95,-4.54 43.83,-8.15 53.63,-10.8zm-49.7 18.16l6.28 -1.1c1.16,2.98 2.18,6.19 3.11,9.62l-6.35 1.12c-0.83,-3.36 -1.85,-6.57 -3.04,-9.64zm17.8 -3.04l6.35 -1.11c0.98,2.91 1.88,6.04 2.7,9.4l-6.49 1.14c-0.68,-3.29 -1.54,-6.43 -2.56,-9.43zm21.55 -4.41l6.62 -1.16c-1.33,5.28 -2.55,9.07 -3.65,11.37l-6.77 1.19c1.75,-4.33 3.01,-8.13 3.8,-11.4z"/>
  </g>
 </g>
</svg>
