<?xml version="1.0" encoding="UTF-8"?>
<!DOCTYPE svg PUBLIC "-//W3C//DTD SVG 1.1//EN" "http://www.w3.org/Graphics/SVG/1.1/DTD/svg11.dtd">
<!-- Creator: CorelDRAW 2021.5 -->
<svg xmlns="http://www.w3.org/2000/svg" xml:space="preserve" width="100%" height="100%" version="1.1" style="shape-rendering:geometricPrecision; text-rendering:geometricPrecision; image-rendering:optimizeQuality; fill-rule:evenodd; clip-rule:evenodd"
viewBox="0 0 143.89 143.89"
 xmlns:xlink="http://www.w3.org/1999/xlink"
 xmlns:xodm="http://www.corel.com/coreldraw/odm/2003">
 <defs>
  <style type="text/css">
   <![CDATA[
    .fil0 {fill:none;fill-rule:nonzero}
    .fil1 {fill:#8C2898;fill-rule:nonzero}
    .fil2 {fill:white;fill-rule:nonzero}
   ]]>
  </style>
   <clipPath id="id0" style="clip-rule:nonzero">
    <path d="M2.62 76.17c46.24,19.79 92.44,20.99 138.68,0.11 0.11,-1.45 0.14,-2.87 0.14,-4.33 0,-19.18 -7.77,-36.56 -20.35,-49.11 -12.59,-12.59 -29.93,-20.35 -49.11,-20.35 -19.18,0 -36.56,7.77 -49.11,20.35 -12.59,12.59 -20.35,29.93 -20.35,49.11 0,1.42 0.04,2.84 0.14,4.25l-0.04 -0.04z"/>
   </clipPath>
    <clipPath id="id1">
     <path d="M18.22 82.13c34.76,11.7 69.5,12.67 104.25,1.43l0 -59.3c-0.45,-0.48 -0.92,-0.95 -1.38,-1.42 -12.59,-12.59 -29.93,-20.35 -49.11,-20.35 -19.18,0 -36.56,7.77 -49.11,20.35 -1.63,1.63 -3.18,3.35 -4.65,5.13l0 54.16z"/>
    </clipPath>
    <clipPath id="id2">
     <path d="M2.62 76.17c46.24,19.79 92.44,20.99 138.68,0.11 0.11,-1.45 0.14,-2.87 0.14,-4.33 0,-19.18 -7.77,-36.56 -20.35,-49.11 -12.59,-12.59 -29.93,-20.35 -49.11,-20.35 -19.18,0 -36.56,7.77 -49.11,20.35 -12.59,12.59 -20.35,29.93 -20.35,49.11 0,1.42 0.04,2.84 0.14,4.25l-0.04 -0.04z"/>
    </clipPath>
 </defs>
 <g id="Layer_x0020_1">
  <metadata id="CorelCorpID_0Corel-Layer"/>
  <g>
  </g>
  <g style="clip-path:url(#id0)">
   <g id="_1823105927808">
   </g>
   <g style="clip-path:url(#id1)">
   </g>
   <g style="clip-path:url(#id2)">
   </g>
  </g>
  <path class="fil0" d="M2.62 76.17c46.24,19.79 92.44,20.99 138.68,0.11 0.11,-1.45 0.14,-2.87 0.14,-4.33 0,-19.18 -7.77,-36.56 -20.35,-49.11 -12.59,-12.59 -29.93,-20.35 -49.11,-20.35 -19.18,0 -36.56,7.77 -49.11,20.35 -12.59,12.59 -20.35,29.93 -20.35,49.11 0,1.42 0.04,2.84 0.14,4.25l-0.04 -0.04z"/>
  <path class="fil1" d="M42.73 28.79c-1.7,1.13 -4.01,0.71 -5.14,-0.99 -1.13,-1.7 -0.71,-4.01 0.99,-5.14 0.78,-0.53 1.63,-1.06 2.48,-1.6 1.03,-0.64 1.88,-1.13 2.52,-1.49 1.81,-0.99 4.08,-0.32 5.04,1.49 0.99,1.81 0.32,4.08 -1.49,5.04 -0.96,0.53 -1.7,0.96 -2.23,1.28 -0.71,0.43 -1.45,0.89 -2.16,1.38l0 0.04zm29.22 -28.79c19.86,0 37.87,8.05 50.88,21.06 13.01,13.01 21.06,31.03 21.06,50.88 0,19.86 -8.05,37.87 -21.06,50.88 -13.01,13.01 -31.03,21.06 -50.88,21.06 -19.86,0 -37.87,-8.05 -50.88,-21.06 -13.01,-13.01 -21.06,-31.03 -21.06,-50.88 0,-19.86 8.05,-37.87 21.06,-50.88 13.01,-13.01 31.03,-21.06 50.88,-21.06zm-69.32 76.17c46.24,19.79 92.44,20.99 138.68,0.11 0.11,-1.45 0.14,-2.87 0.14,-4.33 0,-19.18 -7.77,-36.56 -20.35,-49.11 -12.59,-12.59 -29.93,-20.35 -49.11,-20.35 -19.18,0 -36.56,7.77 -49.11,20.35 -12.59,12.59 -20.35,29.93 -20.35,49.11 0,1.42 0.04,2.84 0.14,4.25l-0.04 -0.04zm18.33 -14.86c-0.43,2.02 -2.38,3.3 -4.4,2.87 -2.02,-0.43 -3.3,-2.38 -2.87,-4.4 1.21,-5.74 3.23,-11.28 6.03,-16.38 2.8,-5.11 6.35,-9.82 10.53,-13.94 1.45,-1.45 3.83,-1.42 5.25,0.04 1.45,1.45 1.42,3.79 -0.04,5.25 -3.69,3.62 -6.77,7.73 -9.22,12.2 -2.45,4.47 -4.22,9.29 -5.28,14.33l0 0.04z"/>
  <path class="fil2" d="M26.63 95.57l0 1.69 5.49 1.21 0 -1.69 -5.49 -1.21zm5.49 4.98l-7.8 -1.72 -0.02 -9.5 15.49 3.42c1.12,0.41 1.97,1.12 2.56,2.13 0.58,1.02 0.87,2.13 0.87,3.34 -0.02,1.35 -0.36,2.38 -1.02,3.07 -0.73,0.78 -1.61,1.08 -2.66,0.9l-5.09 -1.12 0 1.19 8.54 1.88 0 2.23 -8.54 -1.88 0 1.39 9.12 2.01 0 2.25 -20.62 -4.55 0 -2.25 9.15 2.02 0 -1.39 -8.47 -1.87 0 -2.23 8.47 1.87 0 -1.19zm2.35 -1.56l4.92 1.08c0.66,-0 1.09,-0.47 1.28,-1.41l-6.2 -1.37 0 1.69zm6.22 -2.27c-0.23,-1.04 -0.81,-1.73 -1.77,-2.07l-4.45 -0.98 0 1.68 6.22 1.37zm-8.57 -3.57l-5.49 -1.21 0 1.68 5.49 1.21 0 -1.68zm-3.24 14.68l2.4 0.53c0.38,1.31 0.74,2.69 1.07,4.15l-2.42 -0.53c-0.29,-1.4 -0.64,-2.79 -1.04,-4.14zm5.37 1.13l2.37 0.52c0.45,1.32 0.87,2.72 1.26,4.19l-2.44 -0.54c-0.33,-1.41 -0.72,-2.8 -1.19,-4.18zm5.13 1.06l2.4 0.53c0.64,1.47 1.26,2.99 1.84,4.57l-2.47 -0.54c-0.48,-1.51 -1.07,-3.03 -1.76,-4.56zm-12.13 -2.55c-0.13,2.3 -1.57,3.51 -4.31,3.63l0 -2.45c1.24,-0.08 1.9,-0.64 1.96,-1.68l2.35 0.5zm25.12 -6.28l0 1.78 13.06 1.17c0.05,-0.33 0.07,-0.67 0.07,-1.01 0,-0.28 -0.02,-0.54 -0.05,-0.77l-13.08 -1.17zm12.05 -1.15c-0.08,-0.09 -0.17,-0.19 -0.27,-0.29 -0.91,-1.14 -2.24,-1.79 -4,-1.94l-7.78 -0.7 0 1.86 12.05 1.08zm-12.05 5.17l0 1.64 8.42 0.75c1.45,0.13 2.62,-0.23 3.53,-1.08 0.07,-0.07 0.13,-0.15 0.2,-0.23l-12.15 -1.09zm1.26 4.13l-3.7 -0.33 0 -14.37 11.01 0.99c2.29,0.32 4.02,1.19 5.21,2.6 1.22,1.43 1.86,3.13 1.93,5.11 -0.1,2.22 -0.73,3.91 -1.9,5.06 -1.13,1.01 -2.46,1.56 -3.97,1.65 -0.03,0.86 -0.05,1.7 -0.05,2.52 0,1.35 0.54,2.08 1.61,2.18 2.42,0.22 4.17,0.18 5.26,-0.1l0 2.48c-0.92,0.26 -2.75,0.28 -5.48,0.05 -2.63,-0.24 -3.96,-1.83 -3.97,-4.77 0,-0.86 0.02,-1.7 0.05,-2.52l-3.53 -0.32c-0.67,4.35 -3.41,6.51 -8.19,6.48l0 -2.35c3.24,-0.26 5.16,-1.7 5.75,-4.35zm22.57 -3.28l0 5.38 1.88 -0.16c0.87,-0.23 1.31,-0.77 1.31,-1.65 0.13,-0.77 0.22,-2.06 0.25,-3.86l-3.44 0.29zm3.41 -2.64c-0.03,-1.05 -0.1,-2.05 -0.2,-2.98 -0.03,-1.22 -0.62,-1.85 -1.78,-1.88l-1.43 0.12 0 5.03 3.41 -0.29zm5.58 0.3l0 0.67c-0.02,1.08 -0.04,2.14 -0.07,3.18l6.42 -0.54c0,-0.48 0,-0.99 0,-1.54 -0.02,-0.79 -0.04,-1.56 -0.07,-2.3l-6.28 0.53zm6.12 -2.85c-0.06,-0.67 -0.14,-1.32 -0.22,-1.94 -0.05,-1.23 -0.74,-1.88 -2.07,-1.93l-3.83 0.32 0 4.07 6.12 -0.52zm-6.3 9.04c-0.03,0.51 -0.06,1.02 -0.1,1.52 -0.13,2.05 -0.3,3.86 -0.52,5.45l-2.4 0.18c0.23,-1.56 0.41,-3.38 0.54,-5.47 0.16,-2.4 0.26,-4.71 0.27,-6.94l0 -9.32 6.1 -0.52c1.38,-0.04 2.5,0.28 3.33,0.93 0.78,0.71 1.22,1.66 1.33,2.84 0.25,1.75 0.38,3.94 0.4,6.56 0,2.38 -0.08,4.58 -0.24,6.61 -0.4,2.65 -1.84,4.07 -4.33,4.28 -1.3,0.11 -2.38,0.09 -3.23,-0.07l0 -2.35c1.12,0.09 2,0.1 2.64,0.05 1.53,-0.13 2.39,-0.91 2.59,-2.35 0.03,-0.51 0.06,-1.16 0.07,-1.94l-6.47 0.55zm-6.99 -13.69c0.94,0.02 1.71,0.29 2.32,0.79 0.61,0.6 0.96,1.28 1.06,2.07 0.26,1.27 0.4,3.27 0.4,5.99 -0.02,2.22 -0.08,3.72 -0.2,4.5 -0.02,0.99 -0.3,1.88 -0.84,2.67 -0.66,0.8 -1.46,1.26 -2.4,1.39l-4.52 0.38 0 -17.45 4.17 -0.35zm20.28 1.57l9.25 -1.92 0 -1.78c-2.46,0.56 -5.2,1.16 -8.23,1.8l0 -2.4c9.34,-1.94 15.78,-3.4 19.32,-4.41l0 2.38c-2.1,0.57 -5.02,1.27 -8.74,2.11l0 1.81 9.27 -1.92 0 2.31 -5.07 1.05c1.41,1.85 3.08,2.89 5.02,3.12l0 2.6c-3.46,-0.5 -5.99,-2.23 -7.57,-5.19l-1.65 0.34 0 4.36 -2.35 0.49 0 -4.36 -1.55 0.32c-0.82,2.29 -2.29,4.29 -4.39,6.02l10.8 -2.24c3.72,-0.77 5.61,0.4 5.68,3.53 0,3.04 -1.6,4.98 -4.8,5.83l-12.43 2.58 0 -9.12c-0.8,0.6 -1.65,1.15 -2.58,1.65l0 -2.53c2.41,-1.41 4.13,-3.14 5.15,-5.18l-5.12 1.06 0 -2.31zm4.85 12.1l0 1.61 9.76 -2.02c1.42,-0.43 2.3,-1.15 2.64,-2.16l-12.4 2.57zm12.33 -4.67c-0.42,-0.87 -1.45,-1.14 -3.08,-0.8l-9.25 1.92 0 1.44 12.33 -2.56z"/>
 </g>
</svg>
