<?xml version="1.0" encoding="UTF-8"?>
<!DOCTYPE svg PUBLIC "-//W3C//DTD SVG 1.1//EN" "http://www.w3.org/Graphics/SVG/1.1/DTD/svg11.dtd">
<!-- Creator: CorelDRAW 2020 (64-Bit) -->
<svg xmlns="http://www.w3.org/2000/svg" xml:space="preserve" width="2550px" height="2550px" version="1.1" shape-rendering="geometricPrecision" text-rendering="geometricPrecision" image-rendering="optimizeQuality" fill-rule="evenodd" clip-rule="evenodd"
viewBox="0 0 656.54 656.54"
 xmlns:xlink="http://www.w3.org/1999/xlink"
 xmlns:xodm="http://www.corel.com/coreldraw/odm/2003">
 <g id="Layer_x0020_1">
  <metadata id="CorelCorpID_0Corel-Layer"/>
  <g id="_2205487296704">
   <path fill="#8C2898" fill-rule="nonzero" d="M194.96 131.37c-7.78,5.16 -18.29,3.22 -23.46,-4.53 -5.16,-7.77 -3.22,-18.29 4.53,-23.45 3.56,-2.43 7.44,-4.86 11.33,-7.29 4.68,-2.92 8.57,-5.17 11.49,-6.81 8.26,-4.53 18.59,-1.46 22.97,6.81 4.52,8.26 1.45,18.59 -6.81,22.97 -4.37,2.43 -7.78,4.37 -10.21,5.83 -3.22,1.94 -6.62,4.04 -9.87,6.32l0 0.15 0.03 0zm133.31 -131.37c90.6,0 172.81,36.73 232.18,96.1 59.36,59.36 96.09,141.57 96.09,232.17 0,90.6 -36.73,172.81 -96.09,232.18 -59.37,59.36 -141.58,96.09 -232.18,96.09 -90.6,0 -172.81,-36.73 -232.17,-96.09 -59.37,-59.37 -96.1,-141.58 -96.1,-232.18 0,-90.6 36.73,-172.81 96.1,-232.17 59.36,-59.37 141.57,-96.1 232.17,-96.1zm-316.33 347.53c211,90.3 421.82,95.8 632.79,0.49 0.48,-6.62 0.63,-13.09 0.63,-19.75 0,-87.53 -35.42,-166.82 -92.87,-224.09 -57.45,-57.45 -136.57,-92.88 -224.1,-92.88 -87.53,0 -166.82,35.43 -224.09,92.88 -57.45,57.45 -92.88,136.56 -92.88,224.09 0,6.47 0.16,12.94 0.64,19.42l-0.15 -0.16 0.03 0zm83.64 -67.78c-1.94,9.24 -10.85,15.04 -20.05,13.1 -9.24,-1.95 -15.04,-10.85 -13.1,-20.05 5.5,-26.22 14.74,-51.47 27.5,-74.74 12.79,-23.31 28.95,-44.82 48.06,-63.59 6.63,-6.62 17.47,-6.47 23.94,0.15 6.63,6.62 6.47,17.32 -0.15,23.94 -16.83,16.5 -30.9,35.27 -42.08,55.66 -11.15,20.39 -19.26,42.38 -24.12,65.38l0 0.15 0 0z"/>
   <path fill="#FEFEFE" fill-rule="nonzero" d="M88.81 419.31l8.84 2.64 0 -23.61 9.02 2.69 0 23.62 7.61 2.27 0 10.71 -7.61 -2.28 0 38.77c2.66,0.34 5.39,0.64 8.18,0.88l0 10.92c-6.91,-0.58 -15.56,-2.05 -25.94,-4.41l0 -11.04c2.9,0.81 5.82,1.49 8.74,2.06l0 -39.87 -8.84 -2.65 0 -10.7zm37.17 23.26l0 8.34 11.5 3.44 0 -8.35 -11.5 -3.43zm20.51 14.48l6.48 1.93c3.99,0.68 6.45,-1.38 7.41,-6.13l-13.89 -4.15 0 8.35zm14.08 -13.5c-0.89,-5.4 -3.42,-9.01 -7.6,-10.87l-6.48 -1.93 0 8.59 14.08 4.21zm-23.09 -15.5l-11.5 -3.43 0 8.59 11.5 3.44 0 -8.6zm12.63 -5.57c1.01,-2.97 1.87,-5.91 2.57,-8.82l9.13 2.73c-0.77,3.71 -1.69,7 -2.76,9.88 2.47,1.76 4.56,4.25 6.26,7.44 2.86,4.71 4.41,10.29 4.67,16.76 -0.06,6.75 -1.46,11.56 -4.18,14.46 -2.99,3.72 -6.94,4.99 -11.89,3.8l-36.68 -10.96 0 -45.12 7.32 2.19c-0.7,-2.95 -1.4,-6.28 -2.09,-9.98l9.21 2.75c0.63,3.46 1.3,6.78 1.99,9.95l16.45 4.92zm2.86 49.87c4.93,1.47 8.77,4.56 11.5,9.23 2.72,4.24 4.21,9.21 4.46,14.93 -0.07,5.99 -1.43,10.18 -4.09,12.58 -2.79,3.18 -6.59,4.21 -11.4,3.06l-34.7 -10.37 0 -39.66 34.23 10.23zm-25.57 23.01l25 7.47c3.79,0.68 6.15,-0.77 7.02,-4.37l-32.02 -9.57 0 6.47zm0 -15.73l32.22 9.63c-1.02,-3.94 -3.39,-6.64 -7.14,-8.14l-25.08 -7.5 0 6.01zm71.24 0.87l0 30.08 23.15 3.78 0 -30.08 -23.15 -3.78zm33.08 35.48l11.09 1.81c5.38,0.14 9.18,-2.85 11.39,-8.94 2.14,-4.86 3.4,-11.08 3.78,-18.66l-26.26 -4.29 0 30.08zm26.16 -36.4c-0.51,-8.16 -1.97,-14.87 -4.36,-20.09 -2.79,-6.76 -6.98,-10.91 -12.56,-12.41l-9.24 -1.51 0 29.74 26.16 4.27zm-36.09 -35.63l-23.15 -3.77 0 29.73 23.15 3.78 0 -29.74zm20.54 -7.24c7.9,2.42 14.16,8 18.78,16.78 4.26,8.13 6.57,18.53 6.9,31.21 0,15.66 -2.11,26.54 -6.32,32.62 -4.22,7.69 -10.41,11.55 -18.58,11.55l-54.2 -8.85 0 -92.02 53.42 8.71zm43.94 85.59l83.26 0.81 0 11.26 -83.26 -0.81 0 -11.26zm8.15 -42.36l67.72 0.66 0 11.03 -67.72 -0.66 0 -11.03zm-4.12 -37.15l75.38 0.73 0 10.93 -75.38 -0.73 0 -10.93zm96.94 -0.67l18.92 -2.72 0 -5.46 9.65 -1.39 0 5.46 25.54 -3.69 0 -5.45 9.66 -1.4 0 5.46 18.43 -2.66 0 10.14 -18.43 2.66 0 6.02 -9.66 1.39 0 -6.02 -25.54 3.68 0 6.35 -9.65 1.39 0 -6.35 -18.92 2.73 0 -10.14zm52.55 12.6l9.17 -1.32 0 58.92 -9.17 1.33 0 -58.93zm16.39 -3.14l9.94 -1.43c0.66,7.7 1.08,26.69 1.28,56.97 -0.4,6.22 -1.53,10.52 -3.41,12.96 -2.42,4.13 -5.56,6.49 -9.47,7.05 -4.61,0.67 -9.82,1.08 -15.6,1.24l0 -10.13c3.52,0.08 7.96,-0.27 13.35,-1.05 3.78,-0.55 5.66,-5.46 5.66,-14.73 -0.18,-28.5 -0.78,-45.45 -1.75,-50.88zm-23.01 2.97l0 10.25c-5.15,1.2 -10.74,2.41 -16.78,3.66l0 8 18.52 -2.67 0 10.25 -6.14 0.89c0.65,10.09 2.35,18.5 5.08,25.24l0 18.93c-6.96,-8.27 -11.43,-22.61 -13.46,-42.97l-4 0.58 0 45.35 -9.25 1.33 0 -45.35 -3.91 0.57c-0.97,21.76 -5.76,37.24 -14.33,46.42l0 -14.83c3.31,-6.94 5.19,-17.04 5.66,-30.34l-6.74 0.97 0 -10.25 19.32 -2.78 0 -7.46c-5.41,1.09 -11.08,2.11 -17.08,3.13l0 -10.69c12.29,-1.77 26.66,-4.52 43.11,-8.23zm56.31 -27.27l32.42 -9.65 0 -8.14 9.99 -2.98 0 8.14 32.69 -9.74 0 10.57 -10.17 3.03c-0.88,6.88 -1.83,13.21 -2.85,19.01l16.17 -4.82 0 10.82 -82.05 24.44 0 -10.82 16.83 -5.01c-0.76,-5.11 -1.56,-10.92 -2.37,-17.45l-10.66 3.17 0 -10.57zm22.91 21.91l29.01 -8.64c1.07,-6.41 2.04,-12.74 2.94,-19.04l-34.42 10.25c0.77,6.09 1.59,11.91 2.47,17.43zm-9.31 45.34l0 8.03 45.34 -13.51c2.66,-1.48 4.42,-4.66 5.23,-9.58l-50.57 15.06zm50.57 -24.21c-1.01,-4.07 -3.33,-5.87 -6.93,-5.39l-43.64 13.01 0 7.45 50.57 -15.07zm-3.51 -16.1c4.37,-0.56 7.73,0.85 10.08,4.24 2.34,3.6 3.5,8.23 3.5,13.88 -0.11,6.42 -1.47,12.02 -4.07,16.81 -2.92,5.26 -6.47,8.62 -10.66,10.09l-55.13 16.43 -0.1 -44.66 56.38 -16.79z"/>
  </g>
 </g>
</svg>
