<?xml version="1.0" encoding="UTF-8"?>
<!DOCTYPE svg PUBLIC "-//W3C//DTD SVG 1.1//EN" "http://www.w3.org/Graphics/SVG/1.1/DTD/svg11.dtd">
<!-- Creator: CorelDRAW 2021.5 -->
<svg xmlns="http://www.w3.org/2000/svg" xml:space="preserve" width="100%" height="100%" version="1.1" style="shape-rendering:geometricPrecision; text-rendering:geometricPrecision; image-rendering:optimizeQuality; fill-rule:evenodd; clip-rule:evenodd"
viewBox="0 0 216.11 216.11"
 xmlns:xlink="http://www.w3.org/1999/xlink"
 xmlns:xodm="http://www.corel.com/coreldraw/odm/2003">
 <defs>
  <style type="text/css">
   <![CDATA[
    .fil0 {fill:none;fill-rule:nonzero}
    .fil1 {fill:#8C2898;fill-rule:nonzero}
    .fil2 {fill:white;fill-rule:nonzero}
   ]]>
  </style>
   <clipPath id="id0" style="clip-rule:nonzero">
    <path d="M3.89 114.39c69.45,29.72 138.84,31.53 208.28,0.16 0.16,-2.18 0.21,-4.31 0.21,-6.5 0,-28.81 -11.66,-54.91 -30.57,-73.76 -18.91,-18.91 -44.95,-30.57 -73.76,-30.57 -28.81,0 -54.91,11.66 -73.76,30.57 -18.91,18.91 -30.57,44.95 -30.57,73.76 0,2.13 0.05,4.26 0.21,6.39l-0.05 -0.05z"/>
   </clipPath>
    <clipPath id="id1">
     <path d="M27.32 123.35c52.2,17.57 104.38,19.03 156.58,2.15l0 -89.07c-0.68,-0.72 -1.38,-1.43 -2.08,-2.14 -18.91,-18.91 -44.95,-30.57 -73.76,-30.57 -28.81,0 -54.91,11.66 -73.76,30.57 -2.45,2.45 -4.78,5.03 -6.98,7.71l0 81.34z"/>
    </clipPath>
    <clipPath id="id2">
     <path d="M3.89 114.39c69.45,29.72 138.84,31.53 208.28,0.16 0.16,-2.18 0.21,-4.31 0.21,-6.5 0,-28.81 -11.66,-54.91 -30.57,-73.76 -18.91,-18.91 -44.95,-30.57 -73.76,-30.57 -28.81,0 -54.91,11.66 -73.76,30.57 -18.91,18.91 -30.57,44.95 -30.57,73.76 0,2.13 0.05,4.26 0.21,6.39l-0.05 -0.05z"/>
    </clipPath>
 </defs>
 <g id="Layer_x0020_1">
  <metadata id="CorelCorpID_0Corel-Layer"/>
  <g>
  </g>
  <g style="clip-path:url(#id0)">
   <g id="_1788546996048">
   </g>
   <g style="clip-path:url(#id1)">
   </g>
   <g style="clip-path:url(#id2)">
   </g>
  </g>
  <path class="fil0" d="M3.89 114.39c69.45,29.72 138.84,31.53 208.28,0.16 0.16,-2.18 0.21,-4.31 0.21,-6.5 0,-28.81 -11.66,-54.91 -30.57,-73.76 -18.91,-18.91 -44.95,-30.57 -73.76,-30.57 -28.81,0 -54.91,11.66 -73.76,30.57 -18.91,18.91 -30.57,44.95 -30.57,73.76 0,2.13 0.05,4.26 0.21,6.39l-0.05 -0.05z"/>
  <path class="fil1" d="M64.17 43.24c-2.56,1.7 -6.02,1.06 -7.72,-1.49 -1.7,-2.56 -1.06,-6.02 1.49,-7.72 1.17,-0.8 2.45,-1.6 3.73,-2.4 1.54,-0.96 2.82,-1.7 3.78,-2.24 2.72,-1.49 6.12,-0.48 7.56,2.24 1.49,2.72 0.48,6.12 -2.24,7.56 -1.44,0.8 -2.56,1.44 -3.36,1.92 -1.06,0.64 -2.18,1.33 -3.25,2.08l0 0.05zm43.88 -43.24c29.82,0 56.88,12.09 76.42,31.63 19.54,19.54 31.63,46.6 31.63,76.42 0,29.82 -12.09,56.88 -31.63,76.42 -19.54,19.54 -46.6,31.63 -76.42,31.63 -29.82,0 -56.88,-12.09 -76.42,-31.63 -19.54,-19.54 -31.63,-46.6 -31.63,-76.42 0,-29.82 12.09,-56.88 31.63,-76.42 19.54,-19.54 46.6,-31.63 76.42,-31.63zm-104.12 114.39c69.45,29.72 138.84,31.53 208.28,0.16 0.16,-2.18 0.21,-4.31 0.21,-6.5 0,-28.81 -11.66,-54.91 -30.57,-73.76 -18.91,-18.91 -44.95,-30.57 -73.76,-30.57 -28.81,0 -54.91,11.66 -73.76,30.57 -18.91,18.91 -30.57,44.95 -30.57,73.76 0,2.13 0.05,4.26 0.21,6.39l-0.05 -0.05zm27.53 -22.31c-0.64,3.04 -3.57,4.95 -6.6,4.31 -3.04,-0.64 -4.95,-3.57 -4.31,-6.6 1.81,-8.63 4.85,-16.94 9.05,-24.6 4.21,-7.67 9.53,-14.75 15.82,-20.93 2.18,-2.18 5.75,-2.13 7.88,0.05 2.18,2.18 2.13,5.7 -0.05,7.88 -5.54,5.43 -10.17,11.61 -13.85,18.32 -3.67,6.71 -6.34,13.95 -7.94,21.52l0 0.05z"/>
  <path class="fil2" d="M17.24 130.78l5.04 1.32 0 -2.98 3.39 0.89 0 2.98 4.86 1.27 0 3.61 -0.87 -0.23c0.05,9.7 0.33,18.48 0.83,26.36l-2.85 -0.75c-0.45,-5.28 -0.69,-14.06 -0.72,-26.33l-1.26 -0.33 0 26.95 -3.39 -0.89 0 -26.95 -1.19 -0.31c-0.12,9.03 -0.35,17.69 -0.69,25.99l-2.85 -0.75c0.5,-8.08 0.77,-16.74 0.79,-25.96l-1.11 -0.29 0 -3.61zm20.27 14.81l3.93 1.03 -5.58 14.51c0,0.47 0.23,0.78 0.68,0.92l5.26 1.38c0.72,0.09 1.08,-0.33 1.08,-1.24l0 -6.22 3.45 0.91 0 7.82c-0.12,2.03 -1.33,2.85 -3.64,2.47l-9.11 -2.39c-0.96,-0.33 -1.62,-1.22 -1.98,-2.68 0,-0.43 0.08,-0.95 0.25,-1.57l5.65 -14.94zm-2.84 -12.8l3.49 0.91c-0.84,7.3 -3.23,12.89 -7.17,16.77l0 -5.47c1.97,-3.38 3.19,-7.45 3.68,-12.21zm5.62 1.43l3.38 0.89c0.7,6.14 2.29,10.94 4.79,14.39l0 5.1c-4.01,-3.49 -6.74,-10.28 -8.17,-20.38zm14 6.32l5.4 0.85 0 -3.16 3.5 0.55 0 3.16 5.4 0.85 0 3.68 -1.14 -0.18c0.05,9.54 0.4,18.15 1.07,25.85l-2.98 -0.43c-0.63,-5.19 -0.99,-13.82 -1.07,-25.89l-1.29 -0.2 0 26.87 -3.5 -0.55 0 -26.87 -1.21 -0.19c-0.12,8.84 -0.39,17.35 -0.81,25.52l-3.23 -0.51c0.68,-7.96 1.04,-16.45 1.06,-25.48l-1.21 -0.19 0 -3.68zm15.48 2.48l9.34 1.47c-0.05,-1.05 -0.11,-2.08 -0.18,-3.08l3.72 0.59c0.07,0.88 0.13,1.91 0.18,3.08l2.98 0.47 0 3.61 -2.87 -0.45c0.07,3.14 0.11,6.98 0.11,11.52 0,5.49 -0.21,9.07 -0.63,10.74 -0.61,2.51 -2.72,3.48 -6.32,2.91 -2.11,-0.33 -3.8,-0.75 -5.08,-1.24l0 -3.5c1.47,0.53 3.16,0.94 5.08,1.24 2.01,0.32 3.01,-0.26 3.01,-1.72 0.22,-1.1 0.33,-3.92 0.33,-8.44 0,-4.19 -0.06,-8.22 -0.18,-12.09l-9.49 -1.5 0 -3.61zm0.33 5.86l3.42 0.54c0.95,5.11 1.71,11.26 2.28,18.45l-3.57 -0.56c-0.41,-6.15 -1.12,-12.29 -2.13,-18.42zm35.63 -3.97l3.46 -0.03c-0.64,8.94 -3.13,15.53 -7.45,19.75l-0.03 -5.21c2.53,-3.92 3.87,-8.75 4.02,-14.52zm11.47 -0.01l3.42 -0.03c0.17,4.02 1.39,7.72 3.65,11.1l0 4.5c-3.79,-2.85 -6.15,-8.04 -7.07,-15.58zm1.98 15.96l3.75 -0.03c-3.05,10.4 -10.21,15.71 -21.48,15.94l0 -3.27c9.56,-0.77 15.46,-4.98 17.73,-12.64zm-7.71 -17.74l3.46 -0.03c0.15,2.48 0.22,7.62 0.22,15.41 0,2.83 -0.14,4.77 -0.41,5.81 -0.47,2.26 -1.89,3.49 -4.24,3.68 -2.48,-0.06 -4.38,-0.28 -5.69,-0.66l0 -3.32c1.79,0.34 3.36,0.5 4.73,0.49 0.9,-0.06 1.5,-0.55 1.82,-1.46 0.2,-0.57 0.3,-2.06 0.3,-4.47 -0.05,-8.09 -0.11,-13.24 -0.18,-15.45zm-19.17 1.04c3.06,0.82 5.82,1.87 8.3,3.17l0 4.24c-2.76,-1.59 -5.52,-2.8 -8.3,-3.62l0 -3.79zm-0.15 8.3c3.1,1.02 5.93,2.31 8.49,3.88l0 4.17c-2.83,-1.81 -5.66,-3.2 -8.49,-4.14l0 -3.91zm4.69 9.83l3.65 -0.03c-1.41,5.54 -4.27,10.02 -8.56,13.43l0 -4.92c2.24,-1.98 3.88,-4.81 4.92,-8.49zm33.76 -16.63l9.86 -1.56c0.07,-1.16 0.11,-2.34 0.11,-3.56l3.64 -0.58c-0.04,1.25 -0.12,2.44 -0.22,3.57l17.76 -2.82 0 3.65 -18.2 2.89c-0.22,1.38 -0.46,2.67 -0.73,3.88l10.07 -1.6c2.75,-0.09 4.13,1.31 4.15,4.21 -0.19,2.17 -0.99,4.33 -2.39,6.48 -0.9,1.56 -2.03,3.04 -3.38,4.45 2.94,1.46 6.45,2.22 10.52,2.28l0 3.98c-5.44,-0.28 -9.93,-1.43 -13.45,-3.45 -3.9,3.34 -8.92,5.99 -15.08,7.94l0 -3.72c4.88,-1.72 8.92,-3.77 12.14,-6.17 -2.21,-1.83 -3.95,-4.13 -5.22,-6.88 -0.18,0.38 -0.37,0.74 -0.59,1.1 -2.72,4.9 -5.93,8.66 -9.63,11.28l0 -4.17c5.44,-5.03 8.78,-11.38 10.04,-19.05l-9.38 1.49 0 -3.65zm17.76 17.21c3.21,-3.29 4.82,-5.94 4.82,-7.95 -0.08,-1.2 -0.73,-1.77 -1.98,-1.69l-8.94 1.42c1.42,3.5 3.46,6.24 6.1,8.22zm19.17 -13.28l3.54 -0.89 0 -8.93 -3.25 0.82 0 -3.5 10.36 -2.6 0 3.5 -3.72 0.93 0 8.93 3.57 -0.9 0 3.46 -3.57 0.9 0 8.79c1.2,-0.5 2.41,-1.06 3.61,-1.69l0 3.68c-2.77,1.36 -6.2,2.72 -10.29,4.07l0 -3.76c1.08,-0.29 2.18,-0.63 3.28,-1.01l0 -9.23 -3.54 0.89 0 -3.46zm15.16 -5.85l0 4.32 4.15 -1.04 0 -4.32 -4.15 1.04zm4.15 6.59l-7.47 1.88 0 -18.54 11.63 -2.92c5.13,-1.29 7.75,1.1 7.87,7.18 0,5.88 -2.21,9.57 -6.64,11.05l-1.92 0.48 0 2.83 7.62 -1.91 0 3.62 -7.62 1.91 0 3.35 8.56 -2.15 0 3.65 -20.04 5.03 0 -3.65 8.02 -2.01 0 -3.35 -7.37 1.85 0 -3.62 7.37 -1.85 0 -2.83zm3.46 -4.18l1.45 -0.36c2.11,-0.88 3.35,-2.63 3.68,-5.24l-5.13 1.29 0 4.32zm5.16 -8.86c-0.36,-2.94 -1.85,-4.08 -4.47,-3.42l-0.69 0.17 0 4.54 5.16 -1.3zm-8.63 -2.38l-4.15 1.04 0 4.54 4.15 -1.04 0 -4.54z"/>
 </g>
</svg>
