<?xml version="1.0" encoding="UTF-8"?>
<!DOCTYPE svg PUBLIC "-//W3C//DTD SVG 1.1//EN" "http://www.w3.org/Graphics/SVG/1.1/DTD/svg11.dtd">
<!-- Creator: CorelDRAW 2021.5 -->
<svg xmlns="http://www.w3.org/2000/svg" xml:space="preserve" width="100%" height="100%" version="1.1" style="shape-rendering:geometricPrecision; text-rendering:geometricPrecision; image-rendering:optimizeQuality; fill-rule:evenodd; clip-rule:evenodd"
viewBox="0 0 123.29 123.29"
 xmlns:xlink="http://www.w3.org/1999/xlink"
 xmlns:xodm="http://www.corel.com/coreldraw/odm/2003">
 <defs>
  <style type="text/css">
   <![CDATA[
    .fil0 {fill:none;fill-rule:nonzero}
    .fil1 {fill:#8C2898;fill-rule:nonzero}
    .fil2 {fill:white;fill-rule:nonzero}
   ]]>
  </style>
   <clipPath id="id0" style="clip-rule:nonzero">
    <path d="M2.22 65.26c39.62,16.95 79.2,17.99 118.82,0.09 0.09,-1.25 0.12,-2.46 0.12,-3.71 0,-16.44 -6.65,-31.32 -17.44,-42.08 -10.79,-10.79 -25.64,-17.44 -42.08,-17.44 -16.44,0 -31.32,6.65 -42.08,17.44 -10.79,10.79 -17.44,25.64 -17.44,42.08 0,1.22 0.03,2.43 0.12,3.65l-0.03 -0.03z"/>
   </clipPath>
    <clipPath id="id1">
     <path d="M15.58 70.37c29.78,10.02 59.55,10.86 89.33,1.23l0 -50.81c-0.39,-0.41 -0.78,-0.82 -1.19,-1.22 -10.79,-10.79 -25.64,-17.44 -42.08,-17.44 -16.44,0 -31.32,6.65 -42.08,17.44 -1.4,1.4 -2.73,2.87 -3.98,4.4l0 46.4z"/>
    </clipPath>
    <clipPath id="id2">
     <path d="M2.22 65.26c39.62,16.95 79.2,17.99 118.82,0.09 0.09,-1.25 0.12,-2.46 0.12,-3.71 0,-16.44 -6.65,-31.32 -17.44,-42.08 -10.79,-10.79 -25.64,-17.44 -42.08,-17.44 -16.44,0 -31.32,6.65 -42.08,17.44 -10.79,10.79 -17.44,25.64 -17.44,42.08 0,1.22 0.03,2.43 0.12,3.65l-0.03 -0.03z"/>
    </clipPath>
 </defs>
 <g id="Layer_x0020_1">
  <metadata id="CorelCorpID_0Corel-Layer"/>
  <g>
  </g>
  <g style="clip-path:url(#id0)">
   <g id="_1787922017888">
   </g>
   <g style="clip-path:url(#id1)">
   </g>
   <g style="clip-path:url(#id2)">
   </g>
  </g>
  <path class="fil0" d="M2.22 65.26c39.62,16.95 79.2,17.99 118.82,0.09 0.09,-1.25 0.12,-2.46 0.12,-3.71 0,-16.44 -6.65,-31.32 -17.44,-42.08 -10.79,-10.79 -25.64,-17.44 -42.08,-17.44 -16.44,0 -31.32,6.65 -42.08,17.44 -10.79,10.79 -17.44,25.64 -17.44,42.08 0,1.22 0.03,2.43 0.12,3.65l-0.03 -0.03z"/>
  <path class="fil1" d="M36.61 24.67c-1.46,0.97 -3.43,0.61 -4.41,-0.85 -0.97,-1.46 -0.61,-3.43 0.85,-4.41 0.67,-0.46 1.4,-0.91 2.13,-1.37 0.88,-0.55 1.61,-0.97 2.16,-1.28 1.55,-0.85 3.49,-0.27 4.31,1.28 0.85,1.55 0.27,3.49 -1.28,4.31 -0.82,0.46 -1.46,0.82 -1.91,1.09 -0.61,0.36 -1.25,0.76 -1.85,1.18l0 0.03zm25.03 -24.67c17.01,0 32.45,6.9 43.6,18.05 11.15,11.15 18.05,26.58 18.05,43.6 0,17.01 -6.9,32.45 -18.05,43.6 -11.15,11.15 -26.58,18.05 -43.6,18.05 -17.01,0 -32.45,-6.9 -43.6,-18.05 -11.15,-11.15 -18.05,-26.58 -18.05,-43.6 0,-17.01 6.9,-32.45 18.05,-43.6 11.15,-11.15 26.58,-18.05 43.6,-18.05zm-59.4 65.26c39.62,16.95 79.2,17.99 118.82,0.09 0.09,-1.25 0.12,-2.46 0.12,-3.71 0,-16.44 -6.65,-31.32 -17.44,-42.08 -10.79,-10.79 -25.64,-17.44 -42.08,-17.44 -16.44,0 -31.32,6.65 -42.08,17.44 -10.79,10.79 -17.44,25.64 -17.44,42.08 0,1.22 0.03,2.43 0.12,3.65l-0.03 -0.03zm15.71 -12.73c-0.36,1.73 -2.04,2.83 -3.77,2.46 -1.73,-0.36 -2.83,-2.04 -2.46,-3.77 1.03,-4.92 2.76,-9.66 5.16,-14.04 2.4,-4.37 5.44,-8.42 9.02,-11.94 1.25,-1.25 3.28,-1.22 4.5,0.03 1.25,1.25 1.22,3.25 -0.03,4.5 -3.16,3.1 -5.8,6.62 -7.9,10.45 -2.1,3.83 -3.62,7.96 -4.53,12.27l0 0.03z"/>
  <path class="fil2" d="M28.1 77.36l2.09 0.48 0 1.4 5.03 1.15c1.74,0.59 2.61,1.53 2.63,2.81 -0.04,1.45 -0.18,2.51 -0.41,3.17l-1.84 -0.42c0.01,0.17 0.02,0.36 0.02,0.56 0,1.87 -0.72,2.72 -2.15,2.54l-3.58 -0.82c-0.11,0.38 -0.25,0.73 -0.43,1.05l4.02 0.92c1.19,0.37 2.1,0.94 2.73,1.71 0.68,0.68 1.03,1.52 1.06,2.54 0,1.12 -0.31,1.89 -0.93,2.31 -0.76,0.55 -1.67,0.72 -2.73,0.5l-11.45 -2.63 0 -7.03 5.15 1.18c0.17,-0.34 0.32,-0.69 0.46,-1.04l-4.35 -1 0 -5.84 9.67 2.22c1.29,0.38 2.08,1.09 2.38,2.14 0.24,-1.01 0.35,-1.69 0.35,-2.06 0,-0.53 -0.38,-0.87 -1.14,-1.05l-11.99 -2.75 0 3.59 -2.03 -0.46 -0.02 -5.5 7.47 1.74 0 -1.4zm-2.71 8.13l7.57 1.74c0.48,0.04 0.72,-0.29 0.72,-1 0,-0.75 -0.29,-1.23 -0.87,-1.43l-7.43 -1.68 0 2.38zm-1.16 7.67l8.69 1.98c1.4,0.26 2.13,-0.12 2.2,-1.15 -0.07,-0.9 -0.66,-1.53 -1.78,-1.92l-9.11 -2.09 0 3.18zm17.65 -12.33c1.58,0.61 3.02,1.35 4.31,2.21l0 2.31c-1.42,-1 -2.86,-1.8 -4.31,-2.38l0 -2.15zm-0.07 4.64c1.57,0.58 2.99,1.27 4.27,2.06l0 2.29c-1.43,-0.92 -2.85,-1.64 -4.27,-2.17l0 -2.19zm2.35 5.43l1.88 0.17c-0.73,3.24 -2.2,5.77 -4.4,7.62l0 -3.1c1.14,-1.04 1.98,-2.61 2.52,-4.68zm13.39 -8.65c0.66,0.13 1.16,0.44 1.48,0.94 0.35,0.56 0.53,1.11 0.53,1.66 0,0.79 -0.2,1.38 -0.59,1.77 -0.35,0.36 -0.9,0.52 -1.63,0.47l-3.26 -0.29 0 0.85 5.37 0.48 0 1.78 -5.37 -0.48 0 0.94 5.54 0.5 0 1.83 -2.45 -0.22c-0.1,0.4 -0.23,0.77 -0.4,1.11l2.81 0.25 0 1.85 -5.5 -0.49 0 1.36 5.37 0.48 0 1.85 -5.37 -0.48 0 2.16 -1.97 -0.18 0 -2.16 -5.29 -0.47 0 -1.85 5.29 0.47 0 -1.36 -5.33 -0.48 0 -1.85 3 0.27c-0.08,-0.39 -0.16,-0.78 -0.23,-1.17l-2.73 -0.24 0 -1.83 5.29 0.47 0 -0.94 -5.08 -0.45 0 -1.78 5.08 0.45 0 -0.85 -5.05 -0.45 0 -4.86 10.49 0.94zm-5.92 10.87l3.3 0.3c0.16,-0.37 0.29,-0.74 0.4,-1.11l-3.94 -0.35c0.08,0.39 0.16,0.78 0.23,1.17zm-2.73 -8.23l1.78 0.16 0 -1.98 -1.78 -0.16 0 1.98zm3.49 -1.66l0 1.98 1.67 0.15 0 -1.98 -1.67 -0.15zm3.39 0.3l0 1.98 0.82 0.07c0.7,0.03 1.06,-0.28 1.06,-0.95 0,-0.54 -0.37,-0.88 -1.1,-1.03l-0.78 -0.07zm10.71 2.32c0,0.82 -0.01,1.64 -0.02,2.47l3.32 -0.28c1.28,-0.04 2.11,0.51 2.47,1.64 0.27,0.59 0.4,1.42 0.4,2.49 0,1.16 -0.25,2.07 -0.74,2.74 -0.54,0.68 -1.31,1.12 -2.31,1.3 -1.26,0.11 -2.07,0.08 -2.43,-0.09l0 -1.83c0.49,0.06 0.99,0.06 1.5,0.02 0.83,-0.07 1.34,-0.2 1.52,-0.4 0.24,-0.13 0.36,-0.7 0.36,-1.69 0,-0.65 -0.04,-1.1 -0.11,-1.35 -0.16,-0.61 -0.68,-0.88 -1.59,-0.8l-2.5 0.21c-0.14,3.67 -0.4,7.14 -0.78,10.43l-2.2 0.21c0.62,-3.93 0.93,-8.05 0.93,-12.35 0.03,-1.29 0.04,-2.77 0.04,-4.42l8.51 -0.72c-0.04,-0.68 -0.06,-1.37 -0.06,-2.08l1.99 -0.17c0,0.72 0.02,1.41 0.07,2.07l2.43 -0.21c-0.23,-0.58 -0.47,-1.15 -0.72,-1.72l2.13 -0.18c0.21,0.56 0.43,1.14 0.66,1.75l1.67 -0.14 0 1.89 -6.05 0.51c0.23,2.47 0.69,4.6 1.4,6.38 0.69,-1.37 1.27,-2.95 1.76,-4.72l2.09 -0.18c-0.61,2.76 -1.52,5.13 -2.75,7.12 0.99,1.59 2.24,2.76 3.77,3.52l0 2.29c-2.09,-0.76 -3.78,-2.08 -5.08,-3.97 -1.61,1.98 -3.63,3.48 -6.05,4.51l0.02 -2.34c1.94,-0.76 3.59,-2.11 4.95,-4.05 -1.08,-2.24 -1.78,-5.04 -2.09,-8.4l-6.52 0.53zm26.22 -7.52l2.1 -0.44 0 1.72 2.7 -0.56c1.09,-0.21 1.94,0.08 2.54,0.88 0.61,0.84 0.92,1.99 0.92,3.46 -0.06,1.39 -0.41,2.54 -1.06,3.45 -0.68,1.09 -1.61,1.78 -2.79,2.08l-2.06 0.43c0.46,0.71 1.1,1.33 1.93,1.85 1.6,-1.71 3.37,-2.85 5.32,-3.44l0 1.89c-1.22,0.43 -2.47,1.22 -3.76,2.35 1.14,0.47 2.5,0.83 4.1,1.08l0 2.21c-4.91,-0.53 -8.21,-2.35 -9.9,-5.49l-3.8 0.79c0,0.97 0,1.95 0,2.91 0.05,1.48 0.79,2.07 2.23,1.77 1.52,-0.32 2.92,-0.73 4.18,-1.23l0 2.04c-1.31,0.55 -2.78,1 -4.43,1.34 -2.65,0.45 -3.99,-0.76 -4.03,-3.63 0,-4.27 0,-8.46 0,-12.55l5.82 -1.21 0 -1.72zm-3.76 4.35c0,0.72 0,1.45 0,2.17l9.77 -2.03c-0.18,-1.29 -0.76,-1.9 -1.73,-1.81l-8.05 1.67zm9.75 2.01l-9.75 2.02c0,0.67 0,1.33 0,2l8.01 -1.66c0.97,-0.2 1.55,-0.98 1.75,-2.36z"/>
 </g>
</svg>
