<?xml version="1.0" encoding="UTF-8"?>
<!DOCTYPE svg PUBLIC "-//W3C//DTD SVG 1.1//EN" "http://www.w3.org/Graphics/SVG/1.1/DTD/svg11.dtd">
<!-- Creator: CorelDRAW 2020 (64-Bit) -->
<svg xmlns="http://www.w3.org/2000/svg" xml:space="preserve" width="2550px" height="2550px" version="1.1" shape-rendering="geometricPrecision" text-rendering="geometricPrecision" image-rendering="optimizeQuality" fill-rule="evenodd" clip-rule="evenodd"
viewBox="0 0 413 413"
 xmlns:xlink="http://www.w3.org/1999/xlink"
 xmlns:xodm="http://www.corel.com/coreldraw/odm/2003">
 <g id="Layer_x0020_1">
  <metadata id="CorelCorpID_0Corel-Layer"/>
  <g id="_2205487296416">
   <path fill="#8C2898" fill-rule="nonzero" d="M122.64 82.64c-4.89,3.25 -11.51,2.02 -14.75,-2.85 -3.25,-4.89 -2.03,-11.5 2.84,-14.75 2.24,-1.53 4.69,-3.06 7.13,-4.59 2.95,-1.83 5.39,-3.25 7.23,-4.28 5.19,-2.85 11.69,-0.92 14.44,4.28 2.85,5.2 0.92,11.7 -4.28,14.45 -2.75,1.53 -4.89,2.75 -6.42,3.67 -2.02,1.22 -4.16,2.54 -6.21,3.97l0 0.1 0.02 0zm83.86 -82.64c56.99,0 108.71,23.11 146.05,60.45 37.35,37.34 60.45,89.06 60.45,146.05 0,56.99 -23.1,108.71 -60.45,146.05 -37.34,37.35 -89.06,60.45 -146.05,60.45 -56.99,0 -108.71,-23.1 -146.05,-60.45 -37.34,-37.34 -60.45,-89.06 -60.45,-146.05 0,-56.99 23.11,-108.71 60.45,-146.05 37.34,-37.34 89.06,-60.45 146.05,-60.45zm-198.99 218.62c132.73,56.8 265.35,60.26 398.06,0.3 0.31,-4.16 0.4,-8.23 0.4,-12.42 0,-55.06 -22.28,-104.94 -58.42,-140.97 -36.14,-36.14 -85.91,-58.42 -140.97,-58.42 -55.06,0 -104.94,22.28 -140.97,58.42 -36.14,36.14 -58.42,85.91 -58.42,140.97 0,4.07 0.09,8.14 0.4,12.21l-0.1 -0.09 0.02 0zm52.62 -42.64c-1.23,5.81 -6.83,9.46 -12.62,8.24 -5.81,-1.23 -9.46,-6.83 -8.24,-12.62 3.46,-16.49 9.27,-32.37 17.3,-47.01 8.05,-14.66 18.21,-28.19 30.24,-40 4.16,-4.17 10.98,-4.07 15.06,0.09 4.16,4.17 4.07,10.9 -0.1,15.06 -10.59,10.38 -19.44,22.19 -26.47,35.02 -7.01,12.82 -12.12,26.66 -15.17,41.12l0 0.1 0 0z"/>
   <path fill="#FEFEFE" fill-rule="nonzero" d="M73.48 255.07l22.66 4.96 0 -3.65 6.77 1.49 0 3.65 23.35 5.12 0 6.66 -11.71 -2.57c1.55,4.96 4.95,9.15 10.2,12.54l0 7.35c-9.03,-5.43 -14.71,-12.56 -17.05,-21.39l-4.79 -1.05 0 18.78 -6.77 -1.49 0 -18.78 -4.65 -1.01c-2.25,8.61 -8.06,13.45 -17.46,14.53l0 -7.15c5.56,-0.84 9.15,-3.79 10.74,-8.86l-11.29 -2.47 0 -6.66zm-3.08 28.48l10.41 2.28 0 -4.14 6.5 1.43 0 4.14 10.95 2.4 0 6.23 -3.42 -0.75c0.41,5.04 1.44,9.5 3.07,13.36l0 9.67c-4.46,-5.56 -7.35,-13.65 -8.62,-24.25l-1.98 -0.43 0 23.69 -6.5 -1.42 0 -23.7 -1.93 -0.42c-0.58,10.8 -3.39,17.67 -8.41,20.58l0 -8.06c1.55,-2.83 2.42,-7.43 2.59,-13.8l-2.66 -0.58 0 -6.23zm30.19 6.48l10.89 2.38 0 -4.21 6.49 1.43 0 4.21 10.68 2.34 0 6.3 -3.07 -0.67c0.36,5.03 1.39,9.51 3.07,13.43l0 10.23c-4.47,-5.64 -7.37,-13.95 -8.69,-24.89l-1.99 -0.44 0 23.62 -6.49 -1.42 0 -23.62 -2.06 -0.45c-0.59,10.94 -3.49,17.9 -8.69,20.87l0 -8.13c1.68,-2.86 2.64,-7.53 2.87,-14.02l-3.01 -0.66 0 -6.3zm41.73 -22.91l56.73 4.56 0 6.52 -24.87 -2 0 26.08 25.97 2.08 0 6.67 -25.97 -2.09 0 21.79 -7.21 -0.58 0 -21.79 -26.12 -2.1 0 -6.66 26.12 2.1 0 -26.08 -24.65 -1.98 0 -6.52zm4.82 9.78l6.91 0.56c1.22,7.2 2.56,14.17 4.05,20.93l-7.26 -0.58c-1.4,-6.47 -2.63,-13.43 -3.7,-20.91zm40.94 3.16l7.6 0.61c-1.39,7.59 -2.95,14.38 -4.67,20.36l-7.69 -0.61c2.1,-6.84 3.68,-13.63 4.76,-20.36zm26.32 -9.32l26.71 -1.69 0 6.03 -26.71 1.69 0 -6.03zm15.45 50.81c0,2.34 1.15,3.44 3.43,3.29 6.63,-0.42 10.12,-0.78 10.49,-1.08l0 6.03c-0.88,0.23 -5.36,0.61 -13.43,1.12 -4.71,-0.17 -7.06,-2.79 -7.06,-7.89 0,-3.26 0.05,-6.33 0.14,-9.19l-3.08 0.19c-0.46,6.11 -1.1,11.97 -1.88,17.57l-6.51 0.49c1.77,-8.94 2.66,-18.32 2.66,-28.14 0.08,-2.99 0.13,-6.35 0.13,-10.09l24 -1.46 0 -1.81 -4.41 0.27c0.66,-2.37 0.98,-4.42 0.98,-6.16 0,-1.35 -0.84,-2.09 -2.52,-2.22l-11.33 0.72 0 8.83 -5.87 0.37 0 -13.88 18.47 -1.17c2.6,-0.16 4.4,0.33 5.38,1.49 1.21,1.42 1.81,3.18 1.81,5.28 0,1.72 -0.19,3.23 -0.56,4.52l3.43 -0.21 0 -11.57 18.39 -1.17c2.57,-0.16 4.37,0.34 5.39,1.48 1.21,1.42 1.82,3.16 1.82,5.22 0,2.75 -0.28,4.99 -0.84,6.7l-5.88 0.38c0.47,-2.46 0.71,-4.61 0.71,-6.42 0,-1.35 -0.81,-2.1 -2.45,-2.23l-11.27 0.72 0 8.48 -4.33 0.27 0 1.67 25.67 -1.62 0 5.33 -17.06 1.08 0 2.8 11.05 -0.7c3.82,0.32 5.73,2.31 5.73,5.94 0,4.02 -1.94,6.15 -5.8,6.4l-12.67 0.8c-0.09,1.04 -0.15,2.14 -0.2,3.31 6.05,-0.8 12.26,-1.75 18.6,-2.86l0 5.75c-5.12,0.93 -11.28,1.81 -18.47,2.64 0.05,0.13 0.07,0.25 0.07,0.35 0.66,1.92 2.45,2.78 5.39,2.6 5.64,-0.5 10.31,-1.07 13.99,-1.73l0 5.82c-2.28,0.7 -7.3,1.3 -15.04,1.79 -5.97,0.38 -9.42,-1.39 -10.35,-5.3 -0.28,-1.8 -0.42,-3.71 -0.42,-5.72 0,-2.15 0.07,-4.24 0.21,-6.26l-16.43 1.05c0,1.02 -0.03,1.96 -0.08,2.81l13.09 -0.83 0 5.33 -13.09 0.82zm13.36 -52.63l27.07 -1.72 0 6.03 -27.07 1.72 0 -6.03zm-12.52 29.32l-9.86 0.55c0,0.98 0,1.94 0,2.87l9.86 -0.62 0 -2.8zm0 7.35l-9.93 0.63c-0.05,0.94 -0.1,1.87 -0.13,2.81l10.06 -0.64 0 -2.8zm6.23 2.41l10.7 -0.68 0 -2.8 -10.7 0.68 0 2.8zm0 -7.36l10.7 -0.68 0 -2.79 -10.7 0.67 0 2.8zm17.35 6.26l8.6 -0.55c1.03,-0.06 1.53,-0.54 1.53,-1.42 0,-0.98 -0.47,-1.44 -1.4,-1.38l-8.73 0.55 0 2.8zm-30.5 -21.97c3.03,0 5.85,0.1 8.46,0.32l0 5.39c-2.84,-0.29 -5.66,-0.5 -8.46,-0.66l0 -5.05zm28.25 -1.99c3.22,0.12 6.14,0.38 8.75,0.77l0 5.47c-2.89,-0.56 -5.81,-0.96 -8.75,-1.19l0 -5.05zm49.5 -19.21l6.3 -1.37c-0.27,6.04 -0.41,12.44 -0.41,19.21 0,12.11 0.09,20.3 0.28,24.62 0.27,6.1 2.11,8.78 5.54,8.03 7.99,-1.74 14.27,-3.81 18.83,-6.22l0 6.88c-3.51,1.98 -9.66,3.93 -18.42,5.84 -7.21,1.58 -11.24,-1.93 -12.12,-10.53 -0.27,-8.86 -0.43,-17.93 -0.48,-27.23 0.09,-6.18 0.26,-12.6 0.48,-19.23zm11.3 -2.61l6.3 -1.37c2.32,13.04 4.18,29.15 5.55,48.34l-6.51 1.42c-1.1,-16.45 -2.88,-32.58 -5.34,-48.39zm13.96 -3.05l6.72 -1.47c3.79,15.62 6.83,35 9.1,58.14l-6.84 1.5c-1.87,-19.77 -4.86,-39.16 -8.98,-58.17zm-37.31 8.15l6.78 -1.48 0 15.35c-0.77,25.44 -4.82,41.66 -12.12,48.62l0 -11.07c3.16,-5.37 4.93,-17.48 5.34,-36.35l0 -15.07z"/>
  </g>
 </g>
</svg>
