<?xml version="1.0" encoding="UTF-8"?>
<!DOCTYPE svg PUBLIC "-//W3C//DTD SVG 1.1//EN" "http://www.w3.org/Graphics/SVG/1.1/DTD/svg11.dtd">
<!-- Creator: CorelDRAW 2020 (64-Bit) -->
<svg xmlns="http://www.w3.org/2000/svg" xml:space="preserve" width="2550px" height="2550px" version="1.1" shape-rendering="geometricPrecision" text-rendering="geometricPrecision" image-rendering="optimizeQuality" fill-rule="evenodd" clip-rule="evenodd"
viewBox="0 0 1600.08 1600.08"
 xmlns:xlink="http://www.w3.org/1999/xlink"
 xmlns:xodm="http://www.corel.com/coreldraw/odm/2003">
 <g id="Layer_x0020_1">
  <metadata id="CorelCorpID_0Corel-Layer"/>
  <g id="_2205487305728">
   <path fill="#8C2898" fill-rule="nonzero" d="M475.14 320.16c-18.96,12.59 -44.58,7.85 -57.16,-11.03 -12.59,-18.95 -7.85,-44.57 11.03,-57.16 8.66,-5.92 18.14,-11.85 27.62,-17.77 11.4,-7.11 20.88,-12.59 27.98,-16.59 20.14,-11.03 45.32,-3.55 55.98,16.59 11.03,20.14 3.56,45.31 -16.58,55.98 -10.67,5.92 -18.96,10.66 -24.88,14.21 -7.85,4.74 -16.14,9.85 -24.07,15.4l0 0.37 0.08 0zm324.9 -320.16c220.8,0 421.16,89.52 565.84,234.2 144.68,144.68 234.2,345.04 234.2,565.84 0,220.8 -89.52,421.16 -234.2,565.84 -144.68,144.68 -345.04,234.2 -565.84,234.2 -220.8,0 -421.16,-89.52 -565.84,-234.2 -144.68,-144.68 -234.2,-345.04 -234.2,-565.84 0,-220.8 89.52,-421.16 234.2,-565.84 144.68,-144.68 345.04,-234.2 565.84,-234.2zm-770.94 846.98c514.23,220.06 1028.02,233.46 1542.18,1.19 1.18,-16.14 1.55,-31.92 1.55,-48.13 0,-213.32 -86.33,-406.57 -226.35,-546.15 -140.02,-140.01 -332.82,-226.35 -546.14,-226.35 -213.32,0 -406.58,86.34 -546.15,226.35 -140.01,140.02 -226.35,332.83 -226.35,546.15 0,15.77 0.37,31.54 1.56,47.31l-0.37 -0.37 0.07 0zm203.84 -165.19c-4.74,22.51 -26.43,36.65 -48.87,31.91 -22.51,-4.73 -36.65,-26.43 -31.91,-48.86 13.4,-63.9 35.91,-125.43 67.01,-182.15 31.17,-56.79 70.56,-109.22 117.13,-154.97 16.15,-16.15 42.58,-15.78 58.35,0.37 16.14,16.14 15.77,42.2 -0.37,58.34 -41.02,40.21 -75.3,85.97 -102.55,135.65 -27.17,49.68 -46.94,103.29 -58.79,159.34l0 0.37 0 0z"/>
   <path fill="#FEFEFE" fill-rule="nonzero" d="M484.9 1025.87l0 22.8 -158.87 -34.84 0 16.83 153.03 33.55 0 24.19 -153.03 -33.56 0 15.48 153.03 33.55 0 23.64 -153.03 -33.56 0 15.99 173.72 38.09 0 25.81 -96.82 -21.23c7.6,12.51 16.61,24.17 27.07,34.99 19.1,-7.4 40.05,-9.43 62.82,-6.06l0 24.47c-13.4,-1.69 -27.2,-1.28 -41.37,1.22 14.71,12.12 31.32,22.9 49.88,32.39l0 26.32c-61.01,-28.39 -102.66,-68.11 -124.93,-119.14l-49.56 -10.87c-0.91,11.76 -1.36,23.34 -1.36,34.73 0,15.95 6.2,25.23 18.56,27.94 27.61,6.05 47.75,8.34 60.47,6.77l0 26.6c-10.23,1.93 -30.64,-0.37 -61.24,-6.9 -29.19,-6.4 -43.77,-26.46 -43.77,-60.1 0,-11.96 0.27,-23.58 0.82,-34.86l-29.74 -6.52 0 -25.81 29.74 6.52 0 -118.9 184.58 40.47zm198.71 17.57l28.18 2.26c-1.8,5.1 -3.7,9.86 -5.68,14.24l20 1.6c27.99,3.69 42.22,19.01 42.77,46.07 -0.19,25.66 -13.07,38.66 -38.71,38.97l-55.47 -4.46 0 10.06 102.82 8.25 0 20.62 -102.82 -8.25 0 9.5 64.39 5.17c25.82,3.88 39.07,20.51 39.81,49.91 0,29.65 -15.06,45.03 -45.22,46.04 -22.35,-1.79 -38.89,-3.59 -49.51,-5.32l-0.28 -22.87c13.35,2.19 29.52,4.04 48.45,5.56 14.09,-0.67 21.11,-9.47 21.11,-26.29 0,-14.28 -7.2,-23.19 -21.66,-26.72l-81.71 -6.56 0 -145.78 27.3 2.19c2.54,-4.89 4.62,-9.59 6.23,-14.19zm41.44 38.36l-50.35 -4.04 0 12.23 66.84 5.37c-2.55,-6.74 -8.04,-11.26 -16.49,-13.56zm16.76 32.3l-67.11 -5.39 0 13.02 41.66 3.35c13.9,1.12 22.4,-2.51 25.45,-10.98zm-71.18 95.03l16.49 1.32c1.67,12.6 3.28,25.89 4.9,39.74l-17.6 -1.42c-1.06,-13.47 -2.35,-26.69 -3.79,-39.64zm23.01 2.12l16.26 1.31c3.23,12.54 6.18,25.84 8.91,39.78l-17.04 -1.37c-2.36,-13.4 -5.09,-26.64 -8.13,-39.72zm24.06 2.21l15.71 1.26c2.91,10.9 5.45,22.22 7.57,33.98l-16.21 -1.31c-1.99,-11.37 -4.34,-22.68 -7.07,-33.93zm-70.9 -6.25l18.43 1.48c-5.77,34.85 -15.15,55.6 -28.18,62.34l0 -33.13c3.79,-4.38 7.07,-14.64 9.75,-30.69zm-67.39 -175.38l23 1.85 0 191.7 5.96 0.48c2.91,0.23 4.34,-0.85 4.34,-3.22l0 -170.2 21.66 1.74 0 177.29c0,13.95 -6.79,20.54 -20.32,19.82l-48.18 -3.86c-10.62,-1.23 -17.04,-8.83 -19.21,-22.72l0 -177.85 21.66 1.74 0 168.86c0,3.43 1.34,5.29 4.07,5.51l7.02 0.57 0 -191.71zm371.43 11.14l27.34 -1.51 0 13.02 73.48 -4.07 0 22.8 -173.51 9.61 0 -22.8 72.69 -4.03 0 -13.02zm-71.58 168.79l173.78 -9.62 0 20.9 -75.64 4.19c0.18,9.76 0.27,20.05 0.27,30.94 0,7.78 -1.99,14.1 -5.97,19.05 -5.78,5.23 -12.03,7.99 -18.69,8.35l-27.94 1.55 0 -22.52 18.69 -1.03c6.15,-0.34 9.25,-2.42 9.25,-6.22 0,-9.22 0,-18.81 0,-28.77l-73.75 4.08 0 -20.9zm106.56 -100.38c15.17,-0.52 22.85,4.43 23.04,14.71 0,10.7 -7.45,16.44 -22.26,17.26l-58.53 3.25 -0.27 -32.01 58.02 -3.21zm-39.33 22.52l37.43 -2.08c5.23,-0.28 7.82,-1.86 7.82,-4.78 0,-2.69 -3.15,-4.14 -9.49,-4.34l-35.76 1.98 0 9.22zm-58.58 49.12l156.99 -8.7 0 19.56 -156.99 8.69 0 -19.55zm-35.48 -22.74l25.72 -1.42c-8.84,52.62 -26.65,95.68 -53.39,129.23l0 -45.09c12.67,-19.51 21.88,-47.08 27.67,-82.72zm-28.46 -94.8c19.16,7.28 36.6,16.97 52.28,29.12l0 33.41c-17.53,-15.48 -34.93,-27.03 -52.28,-34.55l0 -27.98zm80.78 173.09l21.15 -1.17c-0.74,22.65 -16.01,40 -45.85,51.94l0 -25.21c16.28,-7.07 24.52,-15.58 24.7,-25.56zm91.06 -4.76l23.04 -1.28c1.3,8.59 11.85,15.38 31.74,20.21l0 26.09c-29.84,-7.76 -48.07,-22.78 -54.78,-45.02zm-3.24 -148.62c35.07,-1.94 52.98,10.92 53.67,38.55 0,26.64 -15.08,41.66 -45.25,45.14l-108.45 6 0 -84.15 100.03 -5.54zm-77.27 69.43l82.18 -4.55c17.49,-2.59 26.28,-10.77 26.28,-24.53 0,-15.75 -10.42,-23.06 -31.19,-21.9l-77.27 4.27 0 46.71zm285.25 -137.68l24.61 -4.3c4.1,21.89 8.03,45.21 11.77,69.9l-25.38 4.44c-3.05,-23.93 -6.71,-47.25 -11,-70.04zm43.09 -7.26l24.33 -4.26c3.93,21.37 7.67,44.26 11.23,68.61l-25.15 4.4c-2.83,-23.55 -6.3,-46.48 -10.41,-68.75zm58.84 -10.57l25.15 -4.4c-5.2,34.04 -9.91,58.59 -14.2,73.61l-25.69 4.5c6.8,-27.79 11.68,-52.37 14.74,-73.71zm-105.94 123.36l45.73 -8.01c4.84,-8.44 10.18,-17.81 16.07,-28.06l28.07 -4.64c-6.25,10.32 -11.68,19.61 -16.29,27.83l59.38 -10.39 0 24.42 -15.24 2.67c-5.39,23.92 -15.07,45.36 -29.17,64.27 11.96,4.82 26.02,9.86 42.27,15.17l0 30.68c-22.14,-8.82 -42,-17.16 -59.66,-25.15 -18.17,17.87 -40.9,33.25 -68.2,46.18l0 -26.88c17.99,-8.42 33.42,-18.26 46.29,-29.55 -22.82,-9.07 -34.24,-18.48 -34.24,-28.25 0,-1.44 5.34,-11.87 16.03,-31.31l-31.04 5.44 0 -24.42zm67.69 59.28c12.09,-15.14 20.49,-32.18 25.15,-51.11l-35.33 6.18c-9.27,16.27 -13.88,25.23 -13.88,26.85 0,4.73 7.99,10.74 24.06,18.08zm-163.96 -127.7l33.69 -5.9 0 -23.63 24.37 -4.26 0 23.63 33.14 -5.8 0 24.98 -6.66 1.16c0.18,70.54 2.83,133.47 7.98,188.69l-20.31 3.55c-4.47,-36.52 -6.75,-99.46 -6.94,-188.87l-7.21 1.27 0 197.4 -24.37 4.26 0 -197.4 -7.21 1.26c-0.87,65.86 -2.56,129.5 -5.07,190.97l-20.09 3.52c3.75,-60.25 5.71,-123.94 5.89,-191.12l-7.21 1.27 0 -24.98z"/>
  </g>
 </g>
</svg>
