<?xml version="1.0" encoding="UTF-8"?>
<!DOCTYPE svg PUBLIC "-//W3C//DTD SVG 1.1//EN" "http://www.w3.org/Graphics/SVG/1.1/DTD/svg11.dtd">
<!-- Creator: CorelDRAW 2021.5 -->
<svg xmlns="http://www.w3.org/2000/svg" xml:space="preserve" width="100%" height="100%" version="1.1" style="shape-rendering:geometricPrecision; text-rendering:geometricPrecision; image-rendering:optimizeQuality; fill-rule:evenodd; clip-rule:evenodd"
viewBox="0 0 216.12 216.12"
 xmlns:xlink="http://www.w3.org/1999/xlink"
 xmlns:xodm="http://www.corel.com/coreldraw/odm/2003">
 <defs>
  <style type="text/css">
   <![CDATA[
    .fil0 {fill:none;fill-rule:nonzero}
    .fil1 {fill:#8C2898;fill-rule:nonzero}
    .fil2 {fill:white;fill-rule:nonzero}
   ]]>
  </style>
   <clipPath id="id0" style="clip-rule:nonzero">
    <path d="M3.94 114.4c69.45,29.72 138.84,31.53 208.29,0.16 0.16,-2.18 0.21,-4.31 0.21,-6.5 0,-28.81 -11.66,-54.91 -30.57,-73.76 -18.91,-18.91 -44.95,-30.57 -73.76,-30.57 -28.81,0 -54.91,11.66 -73.76,30.57 -18.91,18.91 -30.57,44.95 -30.57,73.76 0,2.13 0.05,4.26 0.21,6.39l-0.05 -0.05z"/>
   </clipPath>
    <clipPath id="id1">
     <path d="M27.37 123.35c52.2,17.57 104.38,19.04 156.58,2.15l0 -89.07c-0.68,-0.72 -1.38,-1.43 -2.08,-2.14 -18.91,-18.91 -44.95,-30.57 -73.76,-30.57 -28.81,0 -54.91,11.66 -73.76,30.57 -2.45,2.45 -4.78,5.03 -6.98,7.71l0 81.35z"/>
    </clipPath>
    <clipPath id="id2">
     <path d="M3.94 114.4c69.45,29.72 138.84,31.53 208.29,0.16 0.16,-2.18 0.21,-4.31 0.21,-6.5 0,-28.81 -11.66,-54.91 -30.57,-73.76 -18.91,-18.91 -44.95,-30.57 -73.76,-30.57 -28.81,0 -54.91,11.66 -73.76,30.57 -18.91,18.91 -30.57,44.95 -30.57,73.76 0,2.13 0.05,4.26 0.21,6.39l-0.05 -0.05z"/>
    </clipPath>
 </defs>
 <g id="Layer_x0020_1">
  <metadata id="CorelCorpID_0Corel-Layer"/>
  <g>
  </g>
  <g style="clip-path:url(#id0)">
   <g id="_1823140210400">
   </g>
   <g style="clip-path:url(#id1)">
   </g>
   <g style="clip-path:url(#id2)">
   </g>
  </g>
  <path class="fil0" d="M3.94 114.4c69.45,29.72 138.84,31.53 208.29,0.16 0.16,-2.18 0.21,-4.31 0.21,-6.5 0,-28.81 -11.66,-54.91 -30.57,-73.76 -18.91,-18.91 -44.95,-30.57 -73.76,-30.57 -28.81,0 -54.91,11.66 -73.76,30.57 -18.91,18.91 -30.57,44.95 -30.57,73.76 0,2.13 0.05,4.26 0.21,6.39l-0.05 -0.05z"/>
  <path class="fil1" d="M64.18 43.25c-2.56,1.7 -6.02,1.06 -7.72,-1.49 -1.7,-2.56 -1.06,-6.02 1.49,-7.72 1.17,-0.8 2.45,-1.6 3.73,-2.4 1.54,-0.96 2.82,-1.7 3.78,-2.24 2.72,-1.49 6.12,-0.48 7.56,2.24 1.49,2.72 0.48,6.12 -2.24,7.56 -1.44,0.8 -2.56,1.44 -3.36,1.92 -1.06,0.64 -2.18,1.33 -3.25,2.08l0 0.05zm43.88 -43.25c29.82,0 56.88,12.09 76.42,31.64 19.55,19.55 31.64,46.6 31.64,76.42 0,29.82 -12.09,56.88 -31.64,76.42 -19.55,19.55 -46.6,31.64 -76.42,31.64 -29.82,0 -56.88,-12.09 -76.42,-31.64 -19.55,-19.55 -31.64,-46.6 -31.64,-76.42 0,-29.82 12.09,-56.88 31.64,-76.42 19.55,-19.55 46.6,-31.64 76.42,-31.64zm-104.12 114.4c69.45,29.72 138.84,31.53 208.29,0.16 0.16,-2.18 0.21,-4.31 0.21,-6.5 0,-28.81 -11.66,-54.91 -30.57,-73.76 -18.91,-18.91 -44.95,-30.57 -73.76,-30.57 -28.81,0 -54.91,11.66 -73.76,30.57 -18.91,18.91 -30.57,44.95 -30.57,73.76 0,2.13 0.05,4.26 0.21,6.39l-0.05 -0.05zm27.53 -22.31c-0.64,3.04 -3.57,4.95 -6.6,4.31 -3.04,-0.64 -4.95,-3.57 -4.31,-6.6 1.81,-8.63 4.85,-16.94 9.05,-24.61 4.21,-7.67 9.53,-14.75 15.82,-20.93 2.18,-2.18 5.75,-2.13 7.88,0.05 2.18,2.18 2.13,5.7 -0.05,7.88 -5.54,5.43 -10.17,11.61 -13.85,18.32 -3.67,6.71 -6.34,13.95 -7.94,21.52l0 0.05z"/>
  <path class="fil2" d="M38.91 134.49c8.41,1.85 15.51,3.67 21.3,5.44l0 3.53c-7.07,-2.1 -14.18,-3.95 -21.3,-5.55l0 -3.42zm-0.04 4.98l7.35 1.62c2.33,0.56 4.07,1.95 5.23,4.17 0.53,0.94 0.95,2.12 1.23,3.55l0.04 0.01c3.59,-1.46 7.31,-2.29 11.16,-2.49l0 3.68c-2.69,0.18 -5.91,0.91 -9.67,2.22 2.47,5.19 6.2,9.86 11.19,14.01l0 4.02c-4.8,-3.19 -8.85,-7.74 -12.14,-13.63 -0.05,1.95 -0.16,3.7 -0.32,5.25 -0.15,2.05 -0.5,3.42 -1.05,4.12 -0.85,2.05 -2.63,2.88 -5.35,2.5 -1.99,-0.44 -3.96,-1.04 -5.92,-1.83l0 -3.57c1.67,0.74 3.52,1.34 5.53,1.78 1.69,0.37 2.72,-0.31 3.09,-2.04 0.34,-0.8 0.51,-3.65 0.51,-8.56 0,-2.61 -0.24,-4.9 -0.73,-6.86 -0.51,-1.53 -1.37,-2.46 -2.58,-2.8l-7.56 -1.67 0 -3.5zm5.56 6.36c2.08,0.96 3.13,2.72 3.13,5.27 -0.22,6.9 -4.77,10.76 -13.67,11.58l0 -3.65c6.09,-0.87 9.48,-3.49 10.18,-7.88 0,-1.12 -0.4,-1.84 -1.2,-2.17l-8.18 -1.8 0 -3.5 9.74 2.15zm38.31 -4.02l3.93 0.35c-0.39,0.74 -0.74,1.43 -1.04,2.07l9.05 0.81c3.73,0.63 5.61,2.87 5.64,6.73 0,3.45 -1.67,5.24 -5.01,5.4l-17.88 -1.6 0 1.52 25.81 2.31 0 2.87 -25.81 -2.31 0 1.52 20.21 1.81c3.56,0.72 5.42,3.05 5.6,6.98 0,4.32 -2.33,6.37 -6.97,6.15 -1.58,-0.14 -3.04,-0.32 -4.37,-0.54l0 -1.86c-0.5,0.23 -1.11,0.31 -1.85,0.24l-15.02 -1.35c-1.58,-0.19 -2.55,-1.18 -2.89,-2.97l0 -4.43 3.26 0.29 0 3.24c0,0.42 0.21,0.65 0.63,0.69l4.93 0.44 0 -4.54 3.37 0.3 0 4.54 4.86 0.44c0.42,0.04 0.63,-0.08 0.63,-0.36l0 -3.35 3.27 0.29 0 4.28c0,0.39 -0.05,0.74 -0.15,1.03 0.89,0.16 1.95,0.28 3.19,0.39 2.22,0.05 3.33,-1 3.33,-3.16 0,-2.06 -0.93,-3.38 -2.78,-3.97l-22.8 -2.04 0 -20.85 7.82 0.7c0.35,-0.69 0.7,-1.37 1.04,-2.07zm12.09 6.22l-17.4 -1.56 0 1.75 19.21 1.72c-0.3,-1.04 -0.91,-1.68 -1.82,-1.91zm1.85 4.52l-19.24 -1.72 0 1.59 16.76 1.5c1.31,0.1 2.14,-0.36 2.48,-1.37zm13.81 -8.24l16.29 -1.38 0 3.13 -1.85 0.16 0 14.59 -3.37 0.29 0 -1.16c-3.07,0.58 -6.98,1.19 -11.73,1.81l0 -3.01c0.84,-0.07 1.67,-0.15 2.49,-0.25l0 -11.21 -1.82 0.15 0 -3.13zm5.2 13.7c2,-0.29 3.96,-0.67 5.86,-1.12l0 -1.38 -5.86 0.5 0 2.01zm0 -4.95l5.86 -0.5 0 -1.56 -5.86 0.5 0 1.56zm0 -4.5l5.86 -0.5 0 -1.56 -5.86 0.5 0 1.56zm-6.16 24.65l13.95 -1.18 0 -2.08 -11.16 0.94 0 -2.98 11.16 -0.94 0 -2.01 -12.76 1.08 0 -3.09 29.23 -2.47 0 3.09 -12.8 1.08 0 2.01 11.73 -0.99 0 2.98 -11.73 0.99 0 2.08 13.92 -1.18 0 3.2 -31.53 2.67 0 -3.2zm24.04 -30.33c4.1,-0.27 6.24,1.41 6.42,5.04l0 5.17c-0.18,3.57 -2.09,5.53 -5.75,5.89l-6.6 0.56 0 -16.16 5.94 -0.5zm-2.56 13.29l2.89 -0.24c1.78,-0.15 2.67,-1.25 2.67,-3.28l0 -3.57c-0.05,-1.88 -0.96,-2.89 -2.71,-3.01l-2.85 0.24 0 9.87zm31.97 -10.04l3.46 -0.72c-0.15,0.98 -0.33,1.93 -0.55,2.87l3.61 -0.75c0.29,-1.05 0.53,-2.04 0.73,-2.95l3.39 -0.7c-0.19,0.91 -0.45,1.9 -0.77,2.95l4.96 -1.03 0 3.46 -5.21 1.08 0 2.19 4.63 -0.96 0 3.43 -4.63 0.96 0 2.38 4.67 -0.97 0 3.39 -4.67 0.97 0 2.23 5.43 -1.13 0 3.46 -16.55 3.43 0 -12.32c-0.39,0.53 -0.8,1.04 -1.24,1.52l0 -4.88c1.48,-2.49 2.39,-5.14 2.73,-7.94zm6.23 18.55l0 -2.23 -4.45 0.92 0 2.23 4.45 -0.92zm0 -5.62l0 -2.38 -4.45 0.92 0 2.38 4.45 -0.92zm0 -5.81l0 -2.19 -4.45 0.92 0 2.19 4.45 -0.92zm4.67 -18.72c1.24,-0.14 2.18,0.15 2.81,0.87 0.61,0.74 0.91,1.6 0.91,2.57 0,1.44 -0.35,2.58 -1.06,3.42 -0.68,0.88 -1.68,1.47 -2.99,1.77l-24.9 5.16 0 -8.56 25.23 -5.23zm-21.69 10.27l4.55 -0.94 0 -3.16 -4.55 0.94 0 3.16zm7.65 -4.75l0 3.16 5.98 -1.24 0 -3.16 -5.98 1.24zm9.08 -1.88l0 3.16 3.28 -0.68c1.29,-0.32 1.93,-1.01 1.93,-2.08 0,-0.87 -0.68,-1.22 -2.04,-1.06l-3.17 0.66zm-15.35 9.96l4.12 -0.86 -6.2 6.43 2.77 -0.58 2.81 -3.19 3.83 -0.79 -8.53 9.74 3.25 -0.67c0.58,-0.12 0.87,-0.58 0.87,-1.37l0 -0.74 2.95 -0.61 0 1.94c0,1.81 -1.04,3.01 -3.14,3.59l-0.47 0.1 0 10.43 -3.17 0.66 0 -10.43 -2.41 0.5c-1.53,0.32 -2.3,-0.11 -2.3,-1.31 0,-0.35 0.32,-0.95 0.95,-1.8l2.33 -2.64 -2.3 0.48c-1,0.04 -1.49,-0.47 -1.49,-1.51 0,-0.37 0.17,-0.79 0.51,-1.26l5.61 -6.08zm-5.06 15.38l2.73 -0.57c-0.07,4.65 -1.34,8.06 -3.83,10.21l0 -4.39c0.73,-1.19 1.09,-2.95 1.09,-5.25zm8.53 -1.81l2.74 -0.57c0.02,1.66 0.26,3 0.69,4.02l0 5.1c-1.85,-1.43 -2.99,-4.28 -3.43,-8.56z"/>
 </g>
</svg>
