<?xml version="1.0" encoding="UTF-8"?>
<!DOCTYPE svg PUBLIC "-//W3C//DTD SVG 1.1//EN" "http://www.w3.org/Graphics/SVG/1.1/DTD/svg11.dtd">
<!-- Creator: CorelDRAW 2021.5 -->
<svg xmlns="http://www.w3.org/2000/svg" xml:space="preserve" width="100%" height="100%" version="1.1" style="shape-rendering:geometricPrecision; text-rendering:geometricPrecision; image-rendering:optimizeQuality; fill-rule:evenodd; clip-rule:evenodd"
viewBox="0 0 132.8 132.8"
 xmlns:xlink="http://www.w3.org/1999/xlink"
 xmlns:xodm="http://www.corel.com/coreldraw/odm/2003">
 <defs>
  <style type="text/css">
   <![CDATA[
    .fil0 {fill:none;fill-rule:nonzero}
    .fil1 {fill:#8C2898;fill-rule:nonzero}
    .fil2 {fill:white;fill-rule:nonzero}
   ]]>
  </style>
   <clipPath id="id0" style="clip-rule:nonzero">
    <path d="M2.42 70.29c42.67,18.26 85.31,19.37 127.99,0.1 0.1,-1.34 0.13,-2.65 0.13,-3.99 0,-17.7 -7.17,-33.74 -18.78,-45.32 -11.62,-11.62 -27.62,-18.78 -45.32,-18.78 -17.7,0 -33.74,7.17 -45.32,18.78 -11.62,11.62 -18.78,27.62 -18.78,45.32 0,1.31 0.03,2.62 0.13,3.93l-0.03 -0.03z"/>
   </clipPath>
    <clipPath id="id1">
     <path d="M16.82 75.8c32.08,10.8 64.14,11.7 96.21,1.32l0 -54.73c-0.42,-0.44 -0.85,-0.88 -1.28,-1.31 -11.62,-11.62 -27.62,-18.78 -45.32,-18.78 -17.7,0 -33.74,7.17 -45.32,18.78 -1.51,1.51 -2.94,3.09 -4.29,4.74l0 49.98z"/>
    </clipPath>
    <clipPath id="id2">
     <path d="M2.42 70.29c42.67,18.26 85.31,19.37 127.99,0.1 0.1,-1.34 0.13,-2.65 0.13,-3.99 0,-17.7 -7.17,-33.74 -18.78,-45.32 -11.62,-11.62 -27.62,-18.78 -45.32,-18.78 -17.7,0 -33.74,7.17 -45.32,18.78 -11.62,11.62 -18.78,27.62 -18.78,45.32 0,1.31 0.03,2.62 0.13,3.93l-0.03 -0.03z"/>
    </clipPath>
 </defs>
 <g id="Layer_x0020_1">
  <metadata id="CorelCorpID_0Corel-Layer"/>
  <g>
  </g>
  <g style="clip-path:url(#id0)">
   <g id="_1788547018464">
   </g>
   <g style="clip-path:url(#id1)">
   </g>
   <g style="clip-path:url(#id2)">
   </g>
  </g>
  <path class="fil0" d="M2.42 70.29c42.67,18.26 85.31,19.37 127.99,0.1 0.1,-1.34 0.13,-2.65 0.13,-3.99 0,-17.7 -7.17,-33.74 -18.78,-45.32 -11.62,-11.62 -27.62,-18.78 -45.32,-18.78 -17.7,0 -33.74,7.17 -45.32,18.78 -11.62,11.62 -18.78,27.62 -18.78,45.32 0,1.31 0.03,2.62 0.13,3.93l-0.03 -0.03z"/>
  <path class="fil1" d="M39.43 26.57c-1.57,1.05 -3.7,0.65 -4.75,-0.92 -1.05,-1.57 -0.65,-3.7 0.92,-4.75 0.72,-0.49 1.51,-0.98 2.29,-1.47 0.95,-0.59 1.73,-1.05 2.32,-1.37 1.67,-0.92 3.76,-0.29 4.65,1.37 0.92,1.67 0.29,3.76 -1.37,4.65 -0.88,0.49 -1.57,0.88 -2.06,1.18 -0.65,0.39 -1.34,0.82 -2,1.28l0 0.03zm26.97 -26.57c18.33,0 34.95,7.43 46.96,19.44 12.01,12.01 19.44,28.63 19.44,46.96 0,18.33 -7.43,34.95 -19.44,46.96 -12.01,12.01 -28.63,19.44 -46.96,19.44 -18.33,0 -34.95,-7.43 -46.96,-19.44 -12.01,-12.01 -19.44,-28.63 -19.44,-46.96 0,-18.33 7.43,-34.95 19.44,-46.96 12.01,-12.01 28.63,-19.44 46.96,-19.44zm-63.98 70.29c42.67,18.26 85.31,19.37 127.99,0.1 0.1,-1.34 0.13,-2.65 0.13,-3.99 0,-17.7 -7.17,-33.74 -18.78,-45.32 -11.62,-11.62 -27.62,-18.78 -45.32,-18.78 -17.7,0 -33.74,7.17 -45.32,18.78 -11.62,11.62 -18.78,27.62 -18.78,45.32 0,1.31 0.03,2.62 0.13,3.93l-0.03 -0.03zm16.92 -13.71c-0.39,1.87 -2.19,3.04 -4.06,2.65 -1.87,-0.39 -3.04,-2.19 -2.65,-4.06 1.11,-5.3 2.98,-10.41 5.56,-15.12 2.59,-4.71 5.86,-9.06 9.72,-12.86 1.34,-1.34 3.53,-1.31 4.84,0.03 1.34,1.34 1.31,3.5 -0.03,4.84 -3.4,3.34 -6.25,7.13 -8.51,11.26 -2.26,4.12 -3.89,8.57 -4.88,13.22l0 0.03z"/>
  <path class="fil2" d="M18.58 80.75l2.28 0.6 0 3.3 3.05 0.8c3.41,0.89 5.14,3.27 5.2,7.13 0,3.71 -1.46,5.29 -4.38,4.75l-3.87 -1.01 0 5.65 -2.28 -0.6 0 -5.65 -7.34 -1.93 0 -11.67 7.34 1.93 0 -3.3zm0 5.47l-5.15 -1.35 0 7.23 5.15 1.35 0 -7.23zm2.28 7.82l3.54 0.93c1.7,0.2 2.55,-0.77 2.55,-2.9 0,-2.44 -1.01,-3.92 -3.03,-4.45l-3.05 -0.8 0 7.23zm12.26 -2.32l19.05 3 0 2.24 -5.36 -0.84 0 6.91c0.13,1.2 0.68,1.87 1.63,2.02 1.99,0.31 3.27,0.46 3.86,0.45l0 2.1c-0.53,0.01 -2.01,-0.18 -4.45,-0.57 -2.03,-0.46 -3.11,-1.84 -3.23,-4.15l0 -7.11 -3.78 -0.59c-0.03,0.77 -0.08,1.69 -0.14,2.75 -0.27,4.29 -2.79,6.69 -7.55,7.21l0 -2.43c3.28,-0.43 5.08,-2.28 5.4,-5.55 0.05,-0.79 0.08,-1.56 0.09,-2.32l-5.54 -0.87 0 -2.24zm0.9 -6.01l17.24 2.72 0 2.22 -17.24 -2.72 0 -2.22zm34.17 2.73c3.68,0.37 5.6,3.3 5.77,8.79 0,1.75 -0.02,3.1 -0.05,4.05 -0.14,1.95 -0.68,3.48 -1.62,4.59 -1.16,1.36 -2.42,2.05 -3.8,2.06l-9.63 0.07 0 -19.49 9.33 -0.07zm-7.02 17.21l6.91 -0.05c0.9,-0.01 1.68,-0.39 2.35,-1.16 0.6,-0.64 0.94,-1.67 1.03,-3.07 0.08,-0.52 0.12,-1.24 0.14,-2.17l-10.45 0.08 0.02 6.38zm-0.02 -8.62l10.48 -0.08c-0.18,-3.84 -1.5,-5.93 -3.94,-6.28l-6.54 0.05 0 6.31zm31.95 -4.31l-8.52 1.35 0 3.39 8.7 -1.38c-0.03,-1.17 -0.09,-2.29 -0.18,-3.36zm-10.62 5.07l0 -3.39 -2.06 0.33 0 -2.06 17.12 -2.72 0 2.06 -2.17 0.34c0.06,0.9 0.1,2.03 0.14,3.36l3.37 -0.53 0 2.08 -3.34 0.53c0,0.34 0,0.68 0,1.03 0,2.37 -0.14,3.94 -0.43,4.73 -0.39,1.19 -1.77,1.98 -4.16,2.35 -1.38,0.22 -2.51,0.34 -3.37,0.35l0 -2.19c1.01,-0.04 2.16,-0.16 3.46,-0.37 1.37,-0.22 2.06,-0.62 2.06,-1.22 0.15,-0.5 0.23,-1.66 0.23,-3.49 0,-0.29 0,-0.57 0,-0.85l-5.27 0.84c-1.07,3.53 -3.8,6.5 -8.2,8.92l0 -2.45c3.09,-1.85 5.06,-3.88 5.92,-6.11l-6.15 0.98 0 -2.08 2.85 -0.45zm-2.76 -9.08l4.34 -0.69 0 -1.37 2.19 -0.35 0 1.37 6.1 -0.97 0 -1.37 2.21 -0.35 0 1.37 4.2 -0.67 0 2.06 -4.2 0.67 0 1.21 -2.21 0.35 0 -1.21 -6.1 0.97 0 1.21 -2.19 0.35 0 -1.21 -4.34 0.69 0 -2.06zm22.91 -0.82l8.45 -2.12 0 -1.65c-2.25,0.61 -4.76,1.27 -7.52,1.98l0 -2.22c8.53,-2.14 14.42,-3.74 17.66,-4.8l0 2.2c-1.92,0.6 -4.58,1.36 -7.99,2.28l0 1.67 8.47 -2.13 0 2.13 -4.63 1.16c1.29,1.66 2.82,2.55 4.59,2.69l0 2.4c-3.17,-0.33 -5.48,-1.83 -6.92,-4.5l-1.51 0.38 0 4.03 -2.15 0.54 0 -4.03 -1.42 0.36c-0.75,2.14 -2.09,4.05 -4.02,5.72l9.88 -2.48c3.4,-0.85 5.13,0.16 5.19,3.04 0,2.81 -1.47,4.66 -4.39,5.56l-11.36 2.85 0 -8.42c-0.73,0.58 -1.51,1.12 -2.36,1.62l0 -2.33c2.21,-1.39 3.78,-3.05 4.71,-4.98l-4.68 1.18 0 -2.13zm4.44 10.98l0 1.49 8.92 -2.24c1.3,-0.45 2.11,-1.15 2.42,-2.09l-11.34 2.85zm11.27 -4.78c-0.39,-0.78 -1.33,-0.99 -2.82,-0.62l-8.46 2.12 0 1.33 11.27 -2.83z"/>
 </g>
</svg>
