<?xml version="1.0" encoding="UTF-8"?>
<!DOCTYPE svg PUBLIC "-//W3C//DTD SVG 1.1//EN" "http://www.w3.org/Graphics/SVG/1.1/DTD/svg11.dtd">
<!-- Creator: CorelDRAW 2021.5 -->
<svg xmlns="http://www.w3.org/2000/svg" xml:space="preserve" width="100%" height="100%" version="1.1" style="shape-rendering:geometricPrecision; text-rendering:geometricPrecision; image-rendering:optimizeQuality; fill-rule:evenodd; clip-rule:evenodd"
viewBox="0 0 157.01 157.01"
 xmlns:xlink="http://www.w3.org/1999/xlink"
 xmlns:xodm="http://www.corel.com/coreldraw/odm/2003">
 <defs>
  <style type="text/css">
   <![CDATA[
    .fil0 {fill:none;fill-rule:nonzero}
    .fil1 {fill:#8C2898;fill-rule:nonzero}
    .fil2 {fill:white;fill-rule:nonzero}
   ]]>
  </style>
   <clipPath id="id0" style="clip-rule:nonzero">
    <path d="M2.86 83.11c50.45,21.59 100.87,22.91 151.32,0.12 0.12,-1.59 0.15,-3.13 0.15,-4.72 0,-20.93 -8.47,-39.89 -22.21,-53.59 -13.74,-13.74 -32.66,-22.21 -53.59,-22.21 -20.93,0 -39.89,8.47 -53.59,22.21 -13.74,13.74 -22.21,32.66 -22.21,53.59 0,1.55 0.04,3.1 0.15,4.64l-0.04 -0.04z"/>
   </clipPath>
    <clipPath id="id1">
     <path d="M19.88 89.62c37.93,12.77 75.83,13.83 113.76,1.56l0 -64.71c-0.5,-0.52 -1,-1.04 -1.51,-1.55 -13.74,-13.74 -32.66,-22.21 -53.59,-22.21 -20.93,0 -39.89,8.47 -53.59,22.21 -1.78,1.78 -3.47,3.65 -5.07,5.6l0 59.1z"/>
    </clipPath>
    <clipPath id="id2">
     <path d="M2.86 83.11c50.45,21.59 100.87,22.91 151.32,0.12 0.12,-1.59 0.15,-3.13 0.15,-4.72 0,-20.93 -8.47,-39.89 -22.21,-53.59 -13.74,-13.74 -32.66,-22.21 -53.59,-22.21 -20.93,0 -39.89,8.47 -53.59,22.21 -13.74,13.74 -22.21,32.66 -22.21,53.59 0,1.55 0.04,3.1 0.15,4.64l-0.04 -0.04z"/>
    </clipPath>
 </defs>
 <g id="Layer_x0020_1">
  <metadata id="CorelCorpID_0Corel-Layer"/>
  <g>
  </g>
  <g style="clip-path:url(#id0)">
   <g id="_1823092633616">
   </g>
   <g style="clip-path:url(#id1)">
   </g>
   <g style="clip-path:url(#id2)">
   </g>
  </g>
  <path class="fil0" d="M2.86 83.11c50.45,21.59 100.87,22.91 151.32,0.12 0.12,-1.59 0.15,-3.13 0.15,-4.72 0,-20.93 -8.47,-39.89 -22.21,-53.59 -13.74,-13.74 -32.66,-22.21 -53.59,-22.21 -20.93,0 -39.89,8.47 -53.59,22.21 -13.74,13.74 -22.21,32.66 -22.21,53.59 0,1.55 0.04,3.1 0.15,4.64l-0.04 -0.04z"/>
  <path class="fil1" d="M46.62 31.42c-1.86,1.24 -4.37,0.77 -5.61,-1.08 -1.24,-1.86 -0.77,-4.37 1.08,-5.61 0.85,-0.58 1.78,-1.16 2.71,-1.74 1.12,-0.7 2.05,-1.24 2.75,-1.63 1.97,-1.08 4.45,-0.35 5.49,1.63 1.08,1.97 0.35,4.45 -1.63,5.49 -1.04,0.58 -1.86,1.04 -2.44,1.39 -0.77,0.46 -1.59,0.97 -2.36,1.51l0 0.04zm31.88 -31.42c21.67,0 41.32,8.78 55.52,22.98 14.2,14.2 22.98,33.86 22.98,55.52 0,21.67 -8.78,41.32 -22.98,55.52 -14.2,14.2 -33.86,22.98 -55.52,22.98 -21.67,0 -41.32,-8.78 -55.52,-22.98 -14.2,-14.2 -22.98,-33.86 -22.98,-55.52 0,-21.67 8.78,-41.32 22.98,-55.52 14.2,-14.2 33.86,-22.98 55.52,-22.98zm-75.64 83.11c50.45,21.59 100.87,22.91 151.32,0.12 0.12,-1.59 0.15,-3.13 0.15,-4.72 0,-20.93 -8.47,-39.89 -22.21,-53.59 -13.74,-13.74 -32.66,-22.21 -53.59,-22.21 -20.93,0 -39.89,8.47 -53.59,22.21 -13.74,13.74 -22.21,32.66 -22.21,53.59 0,1.55 0.04,3.1 0.15,4.64l-0.04 -0.04zm20 -16.21c-0.46,2.21 -2.59,3.6 -4.8,3.13 -2.21,-0.46 -3.6,-2.59 -3.13,-4.8 1.32,-6.27 3.52,-12.3 6.58,-17.88 3.06,-5.57 6.93,-10.72 11.49,-15.21 1.59,-1.59 4.18,-1.55 5.73,0.04 1.59,1.59 1.55,4.14 -0.04,5.73 -4.02,3.95 -7.39,8.43 -10.06,13.31 -2.67,4.88 -4.6,10.14 -5.77,15.63l0 0.04z"/>
  <path class="fil2" d="M25.81 97.37l15.69 3.46c2.93,1.06 4.75,3.17 5.47,6.32 0.37,1.72 0.55,3.94 0.55,6.64 0,3.98 -0.12,6.1 -0.37,6.36 -0.46,3.09 -2.37,4.39 -5.73,3.9 -1.65,-0.37 -3.02,-0.72 -4.09,-1.06l0.03 -2.51c0.98,0.38 2.21,0.73 3.67,1.05 2.06,0.22 3.24,-0.53 3.54,-2.25 0.23,-0.58 0.34,-2.55 0.34,-5.9 0,-2.9 -0.15,-5.07 -0.45,-6.5 -0.35,-1.81 -1.49,-3.04 -3.41,-3.7l-12.73 -2.78 0 21.09 -2.51 -0.53 0 -23.59zm5.36 4.78l2.46 0.54c0.27,1.07 0.55,2.1 0.85,3.11l4.04 0.89c0.25,-0.9 0.51,-1.79 0.79,-2.67l2.59 0.57c-0.32,0.96 -0.6,1.84 -0.87,2.65l2.27 0.5 0 2.3 -5.6 -1.24 0 8.35 1.35 0.3c0.7,0.14 1.06,-0.21 1.08,-1.03l0 -5.6 2.38 0.52 0 6.17c-0.02,1.83 -0.88,2.64 -2.59,2.43l-6.21 -1.37c-1.81,-0.69 -2.84,-2.01 -3.09,-3.95l0 -5.89 2.33 0.51 -0.03 5.46c0.16,0.9 0.59,1.46 1.29,1.69l1.09 0.24 0 -8.35 -5.58 -1.23 0 -2.3 2.27 0.5c-0.26,-0.93 -0.54,-1.96 -0.82,-3.1zm21.4 3.05l9.67 0.87 0 -2.81 2.72 0.24 0 2.81 9.72 0.87 0 2.63 -5.36 -0.48c0.81,6.17 2.76,10.55 5.85,13.15l0 3.57c-4.49,-3.13 -7.31,-8.78 -8.46,-16.96l-1.75 -0.16 0 13.52 6.22 0.56 0 2.65 -6.22 -0.56 0 2.76 -2.72 -0.24 0 -2.76 -5.9 -0.53 0 -2.65 5.9 0.53 0 -13.52 -1.75 -0.16c-0.33,4.44 -1.2,7.77 -2.64,9.99 -1.63,2.63 -3.55,4.48 -5.77,5.54l0 -3.25c3.6,-2.62 5.54,-6.79 5.85,-12.51l-5.36 -0.48 0 -2.63zm27.19 3.17l3.42 -0.29c0.36,-1.28 0.75,-2.67 1.19,-4.19l2.67 -0.2c-0.46,1.52 -0.89,2.91 -1.26,4.16l3.93 -0.33 0 2.43 -0.59 0.05c-0.14,4.5 -0.98,8.27 -2.51,11.3 0.81,0.6 1.73,1.24 2.78,1.93l0 3.62c-1.53,-1.15 -2.91,-2.23 -4.15,-3.25 -1.38,1.94 -3.16,3.48 -5.31,4.61l0 -2.73c1.37,-0.93 2.52,-2.07 3.45,-3.43 -1.96,-1.4 -2.93,-2.67 -2.93,-3.81 0,-0.3 0.67,-2.87 2.02,-7.69l-2.7 0.23 0 -2.43zm4.93 11.43c1.22,-2.61 1.91,-5.8 2.07,-9.59l-1.73 0.15c-1.35,4.46 -2.02,6.9 -2.02,7.31 0,0.47 0.56,1.18 1.67,2.13zm11.67 -13.86l-3.26 0.28 0 4.57 3.26 -0.28 0 -4.57zm2.59 4.38c2.46,-0.03 3.69,1.34 3.69,4.1 -0.09,2.82 -1.28,4.42 -3.58,4.79l0 4.76c1.27,-0.13 2.55,-0.26 3.83,-0.4l0 2.54c-3.04,0.29 -6.16,0.58 -9.38,0.85 -1.92,-0.02 -2.9,-1.2 -2.93,-3.56l0 -19.34 11.96 -1.01 -0.02 2.38 -3.56 0.3 0 4.6zm-2.42 9.1l-3.42 0.29 0 3.08c0,1.01 0.33,1.55 0.99,1.62 0.83,-0.07 1.64,-0.14 2.43,-0.21l0 -4.79zm-3.42 -2.09l5.2 -0.44c1.22,-0.1 1.84,-0.86 1.84,-2.26 0,-1.24 -0.66,-1.88 -1.97,-1.92l-5.06 0.43 0 4.19zm14.76 -14.21l8.56 -1.78c0.33,-0.63 0.63,-1.28 0.9,-1.94l2.73 -0.57c-0.19,0.65 -0.42,1.28 -0.66,1.89l9.93 -2.06 0 2.52 -5.4 1.12c1.71,1.41 3.72,2.15 6.01,2.21l0 2.95c-1.13,-0.09 -2.17,-0.26 -3.12,-0.52l0 1.38 -16.23 3.37 0 -1.16c-0.9,0.49 -1.85,0.97 -2.86,1.43l0 -2.87c2.77,-1.26 5.01,-2.87 6.7,-4.83l-6.54 1.36 0 -2.52zm5.48 5.52l11.49 -2.38c-1.66,-0.77 -3.01,-1.87 -4.05,-3.3l-2.86 0.59c-1.17,1.92 -2.69,3.61 -4.58,5.09zm-5.96 6.27l22.38 -4.64 0 2.57 -9.59 1.99c0.09,0.81 0.17,1.73 0.24,2.77 0,1.35 -0.1,2.27 -0.29,2.77 -0.26,1.48 -1.37,2.52 -3.31,3.12 -1.52,0.32 -2.78,0.52 -3.76,0.62l0 -2.52c1,-0.06 1.97,-0.19 2.91,-0.39 1.2,-0.25 1.83,-1.03 1.88,-2.34 -0.04,-1.26 -0.11,-2.42 -0.24,-3.5l-10.22 2.12 0 -2.57zm3.39 2.81l2.35 -0.49c-0.09,3.28 -1.7,5.82 -4.84,7.61l0 -2.59c1.66,-1.17 2.49,-2.68 2.49,-4.52zm13.29 -2.67l2.44 -0.51c0.11,1.33 0.93,2.28 2.46,2.84l0 3c-2.68,-0.7 -4.32,-2.48 -4.9,-5.34z"/>
 </g>
</svg>
