<?xml version="1.0" encoding="UTF-8"?>
<!DOCTYPE svg PUBLIC "-//W3C//DTD SVG 1.1//EN" "http://www.w3.org/Graphics/SVG/1.1/DTD/svg11.dtd">
<!-- Creator: CorelDRAW 2020 (64-Bit) -->
<svg xmlns="http://www.w3.org/2000/svg" xml:space="preserve" width="2550px" height="2550px" version="1.1" shape-rendering="geometricPrecision" text-rendering="geometricPrecision" image-rendering="optimizeQuality" fill-rule="evenodd" clip-rule="evenodd"
viewBox="0 0 3660.48 3660.48"
 xmlns:xlink="http://www.w3.org/1999/xlink"
 xmlns:xodm="http://www.corel.com/coreldraw/odm/2003">
 <g id="Layer_x0020_1">
  <metadata id="CorelCorpID_0Corel-Layer"/>
  <g id="_2205487345136">
   <path fill="#8C2898" fill-rule="nonzero" d="M1086.96 732.43c-43.36,28.8 -101.97,17.96 -130.77,-25.24 -28.79,-43.36 -17.95,-101.97 25.24,-130.76 19.82,-13.55 41.5,-27.1 63.19,-40.66 26.08,-16.26 47.76,-28.79 64.02,-37.94 46.08,-25.24 103.67,-8.13 128.06,37.94 25.24,46.08 8.13,103.67 -37.94,128.06 -24.39,13.55 -43.36,24.39 -56.91,32.52 -17.96,10.84 -36.93,22.53 -55.05,35.24l0 0.84 0.16 0zm743.28 -732.43c505.11,0 963.48,204.79 1294.46,535.78 330.99,330.98 535.78,789.34 535.78,1294.46 0,505.11 -204.79,963.48 -535.78,1294.46 -330.98,330.99 -789.35,535.78 -1294.46,535.78 -505.12,0 -963.48,-204.79 -1294.46,-535.78 -330.99,-330.98 -535.78,-789.35 -535.78,-1294.46 0,-505.12 204.79,-963.48 535.78,-1294.46 330.98,-330.99 789.34,-535.78 1294.46,-535.78zm-1763.67 1937.63c1176.4,503.42 2351.78,534.08 3528.01,2.71 2.71,-36.93 3.56,-73.01 3.56,-110.1 0,-488.01 -197.51,-930.11 -517.82,-1249.41 -320.31,-320.31 -761.4,-517.82 -1249.4,-517.82 -488.01,0 -930.11,197.51 -1249.41,517.82 -320.31,320.31 -517.82,761.4 -517.82,1249.41 0,36.08 0.85,72.16 3.56,108.24l-0.85 -0.85 0.17 0zm466.32 -377.91c-10.84,51.5 -60.47,83.85 -111.79,73.01 -51.5,-10.84 -83.85,-60.47 -73.01,-111.8 30.66,-146.18 82.16,-286.94 153.3,-416.69 71.31,-129.92 161.42,-249.85 267.97,-354.53 36.93,-36.93 97.4,-36.08 133.48,0.85 36.92,36.92 36.08,96.55 -0.85,133.47 -93.84,91.98 -172.27,196.66 -234.6,310.32 -62.17,113.66 -107.39,236.3 -134.5,364.53l0 0.84 0 0z"/>
   <path fill="#FEFEFE" fill-rule="nonzero" d="M447.45 2313.11l213.82 58.87 -0.62 -115.72 61.63 16.97 0 115.55 218.01 60.03 0 61.49 -216.78 -59.69c21.57,154.66 96.38,274.38 224.54,359.39l0 67.74c-124.99,-75.02 -209,-180.94 -252.13,-317.91 -13.5,35.19 -32.1,65.05 -55.71,89.61 -47.42,51.61 -114.57,80.5 -201.14,86.88l0 -64.56c68.28,-11.52 120.71,-39.48 157.5,-84.05 34.75,-39.62 55.5,-91.26 62.24,-154.92l-211.36 -58.2 0 -61.48zm619.97 92.11l98.1 11.78 0 -64.67 58.63 7.04 0 64.67 88.72 10.65 0 57.14 -88.72 -10.65 0 67.63 96.83 11.63 0 58.41 -80.2 -9.63 0 72.08 78.31 9.41 0 57.13 -78.31 -9.4 0 86.29c34.94,21.59 75.25,35.75 120.83,42.5 104.83,12.58 179.66,19.34 224.5,20.17l0 60.21c-57.15,-4.42 -132.41,-12.19 -225.66,-23.38 -118.41,-18.35 -196.61,-66.86 -234.4,-145.5 -17.68,47.49 -42.52,84.9 -74.63,112.11l-0.63 -86.37c31.27,-47.98 47.68,-110.25 49.37,-186.69l56.1 6.73c-2.42,36.6 -7.37,70.14 -14.74,100.74 12.32,19.72 26.11,37.27 41.26,52.77l0 -175.76 -123.99 -14.89 0 -58.41 106.73 12.81 0 -67.63 -98.1 -11.78 0 -57.14zm444.07 154.56l50.62 6.07c-4.52,62.32 -15.68,115.9 -33.36,160.52 15.26,29.19 32.94,53.68 53.05,73.48l0 72.08c-31.27,-24.42 -58,-54.77 -80.21,-91.04 -22.21,33.8 -49.89,59.73 -83.25,77.67l0 -58.41c-34.95,8.21 -69.26,11.51 -102.94,10.01l0 -50.99c7.37,0.88 15.79,1.05 25.26,0.59l0 -323 76.52 9.18c-1.26,-20.4 -1.9,-41.67 -1.9,-63.62l53.05 6.37c0,22.37 0.42,43.52 1.27,63.55l30.2 3.62c-3.26,-14.91 -7.79,-31.14 -13.57,-48.8l52.41 6.29c4.95,16.29 8.84,32.55 11.68,48.58l25.9 3.11 0 54.06 -102.94 -12.36c4.95,54.03 13.58,101.6 25.89,142.83 6.21,-27.03 10.32,-56.96 12.32,-89.79zm-90.63 -59.33l-25.26 -3.03 0 255.27c11.47,-2.34 23.16,-5.07 35.16,-8.19l0 38.48c16.42,-16.26 30.42,-35.46 41.89,-57.72 -27.16,-62.1 -44.42,-137 -51.79,-224.81zm735.13 146.79c-36.03,-16.51 -67.83,-36.27 -95.6,-59.48 7.42,33.07 11.13,67.35 11.13,102.97 0,71.24 -18.02,127.39 -53.96,168.54 -38.58,42.47 -92.74,64.2 -162.7,65.28 -58.4,0.9 -105.25,-16.61 -140.45,-52.53 -35.61,-35.49 -53.42,-81.97 -53.42,-139.53 0,-74.95 36.47,-149.61 109.39,-224.1l-118.71 1.84 0 -62.12 161.53 -2.5c35.19,-0.55 52.79,12.12 52.79,37.77 0,9.12 -2.65,17.43 -8.06,24.93 -1.69,2.89 -8.05,9.24 -19.29,18.95 -76.21,70.3 -114.26,138.42 -114.26,204.25 0,40.18 11.55,72.33 34.76,96.35 22.79,23.29 54.7,34.56 95.72,33.93 103.03,-1.59 154.54,-58.26 154.54,-170.09 0,-43.04 -6.15,-85.78 -18.55,-128.31 -13.25,-46.54 -31.48,-85.59 -54.69,-117.14l75.15 -1.16c25.23,49.33 73.45,93.1 144.68,131.33l0 70.82zm531.65 173.55c-42.7,-21.92 -81.92,-37.6 -117.67,-47.15 -7.79,32.9 -23.56,60.13 -47.43,81.82 -23.88,22.55 -53,35.9 -87.5,40.29 -35.33,4.49 -63.83,0.69 -85.6,-11.49 -24.29,-14.29 -36.39,-38.62 -36.39,-72.96 0,-63.4 43.75,-100.66 131.25,-111.79 21.76,-2.77 45.43,-3.02 70.88,-0.85l0 -255.37 158.9 -20.22 0 62.76 -97.91 12.45 0 210.64c34.49,8.02 71.61,20.05 111.47,36.07l0 75.8zm-217.47 -311.46l-107.27 13.64c-29.13,108.02 -62.36,212.32 -99.8,312.7l-68.35 8.7c38.59,-100.53 72.66,-204.94 102.32,-313.02l-106.63 13.56 0 -60.32 122.61 -15.6c6.94,-26.96 13.57,-54.3 19.67,-82l65.31 -8.31c-5.68,27.65 -12.1,54.97 -19.04,81.93l91.18 -11.6 0 60.32zm40.06 252.61c-24.29,-3.06 -48.27,-3.08 -72.14,-0.05 -41.01,5.22 -61.62,18.55 -61.62,40.07 0,25.65 19.35,36.12 57.94,31.22 40.28,-5.13 65.52,-28.9 75.82,-71.24zm711.17 -284.94c0,71.66 -19.68,134.19 -58.85,187.52 -41.32,55.18 -98.73,92.42 -172.45,111.8l-25.22 6.63 0 -62.76 25.22 -6.63c56.08,-14.74 99.15,-41.75 129.19,-81.13 27.57,-38.31 41.42,-84.88 41.42,-139.47 0,-107.71 -52.91,-151.15 -158.61,-130.37 -2.36,98.36 -12.41,182.52 -30.04,252.57 -27.17,108.59 -71.67,171.06 -133.39,187.28 -38.86,10.22 -68.28,-1.56 -88.27,-35.21 -16.41,-28.02 -24.61,-65.4 -24.61,-112.15 0,-85.34 23.38,-160.18 70.23,-224.65 46.86,-64.47 107.35,-106.55 181.47,-126.04 77.31,-20.31 137.18,-15.06 179.63,15.55 42.86,29.76 64.28,82.11 64.28,157.06zm-280.61 -97.02c-49.22,21.2 -87.66,55.9 -115.34,104.2 -25.94,45.72 -38.96,97.38 -38.96,154.95 0,37.31 5.74,64.95 17.43,82.98 9.53,14.88 21.22,20.5 34.75,16.94 36.5,-9.59 63.47,-58.66 81.1,-147.36 12.41,-58.39 19.48,-128.94 21.02,-211.71z"/>
  </g>
 </g>
</svg>
