<?xml version="1.0" encoding="UTF-8"?>
<!DOCTYPE svg PUBLIC "-//W3C//DTD SVG 1.1//EN" "http://www.w3.org/Graphics/SVG/1.1/DTD/svg11.dtd">
<!-- Creator: CorelDRAW 2020 (64-Bit) -->
<svg xmlns="http://www.w3.org/2000/svg" xml:space="preserve" width="2550px" height="2550px" version="1.1" shape-rendering="geometricPrecision" text-rendering="geometricPrecision" image-rendering="optimizeQuality" fill-rule="evenodd" clip-rule="evenodd"
viewBox="0 0 1600.08 1600.08"
 xmlns:xlink="http://www.w3.org/1999/xlink"
 xmlns:xodm="http://www.corel.com/coreldraw/odm/2003">
 <g id="Layer_x0020_1">
  <metadata id="CorelCorpID_0Corel-Layer"/>
  <g id="_2205487340720">
   <path fill="#8C2898" fill-rule="nonzero" d="M475.14 320.16c-18.96,12.59 -44.58,7.85 -57.16,-11.03 -12.59,-18.95 -7.85,-44.57 11.03,-57.16 8.66,-5.92 18.14,-11.85 27.62,-17.77 11.4,-7.11 20.88,-12.59 27.98,-16.59 20.14,-11.03 45.32,-3.55 55.98,16.59 11.03,20.14 3.56,45.31 -16.58,55.98 -10.67,5.92 -18.96,10.66 -24.88,14.21 -7.85,4.74 -16.14,9.85 -24.07,15.4l0 0.37 0.08 0zm324.9 -320.16c220.8,0 421.16,89.52 565.84,234.2 144.68,144.68 234.2,345.04 234.2,565.84 0,220.8 -89.52,421.16 -234.2,565.84 -144.68,144.68 -345.04,234.2 -565.84,234.2 -220.8,0 -421.16,-89.52 -565.84,-234.2 -144.68,-144.68 -234.2,-345.04 -234.2,-565.84 0,-220.8 89.52,-421.16 234.2,-565.84 144.68,-144.68 345.04,-234.2 565.84,-234.2zm-770.94 846.98c514.23,220.06 1028.02,233.46 1542.18,1.19 1.18,-16.14 1.55,-31.92 1.55,-48.13 0,-213.32 -86.33,-406.57 -226.35,-546.15 -140.02,-140.01 -332.82,-226.35 -546.14,-226.35 -213.32,0 -406.58,86.34 -546.15,226.35 -140.01,140.02 -226.35,332.83 -226.35,546.15 0,15.77 0.37,31.54 1.56,47.31l-0.37 -0.37 0.07 0zm203.84 -165.19c-4.74,22.51 -26.43,36.65 -48.87,31.91 -22.51,-4.73 -36.65,-26.43 -31.91,-48.86 13.4,-63.9 35.91,-125.43 67.01,-182.15 31.17,-56.79 70.56,-109.22 117.13,-154.97 16.15,-16.15 42.58,-15.78 58.35,0.37 16.14,16.14 15.77,42.2 -0.37,58.34 -41.02,40.21 -75.3,85.97 -102.55,135.65 -27.17,49.68 -46.94,103.29 -58.79,159.34l0 0.37 0 0z"/>
   <path fill="#FEFEFE" fill-rule="nonzero" d="M373.32 991.28l27.61 6.05c1.94,25.59 2.89,69.86 2.89,132.84 0,39.67 -1.4,65.58 -4.25,77.84 -4.07,17.92 -18.29,24.21 -42.68,18.86 -14.31,-3.13 -25.89,-6.69 -34.77,-10.58l0 -27.16c9.74,4.27 20.6,7.76 32.64,10.4 13.26,2.91 19.92,-0.96 19.92,-11.67 1.4,-7.84 2.08,-28.04 2.08,-60.61 0,-48.34 -1.13,-93.67 -3.44,-135.97zm-68.44 -0.09l27.07 5.94c-1.23,98.57 -20.96,160.83 -59.12,186.89l0 -41.56c21.37,-28.45 32.05,-78.84 32.05,-151.27zm137.42 29.34l28.38 6.23c1.04,64.45 10.23,119.99 27.57,166.46l0 49.45c-30.6,-48.55 -49.25,-122.57 -55.95,-222.14zm102.69 14.01c20.56,6.93 39.31,15.29 56.26,25.18l0 28.22c-18.93,-11.3 -37.69,-20.22 -56.26,-26.76l0 -26.64zm-0.55 59.45c20.74,7.6 39.68,16.58 56.81,26.81l0 28.77c-19.12,-12.19 -38.06,-21.77 -56.81,-28.7l0 -26.88zm27.62 68.44l26.79 2.15c-8.87,41.64 -26.47,74.38 -52.79,98.12l0 -39.9c12.1,-13.34 20.74,-33.45 26,-60.37zm36.77 -71.7l61.48 4.93 0 -19.27 -56.03 -4.5 0 -23.91 56.03 4.5 0 -17.1 26.23 2.11 0 17.09 28.97 2.33c23.46,3.37 36.53,18.78 39.21,46.33l11.41 0.92 0 24.14 -11.92 -0.95c-3.28,26.38 -15.61,39.38 -37.09,39.14l-30.58 -2.45 0 16.82 73.91 5.93 0 24.42 -73.91 -5.93 0 18.21 77.42 6.21 0 25.77 -77.42 -6.22 0 33.14 -26.23 -2.11 0 -33.13 -67.67 -5.44 0 -25.76 67.67 5.43 0 -18.21 -63.1 -5.07 0 -24.42 63.1 5.07 0 -16.82 -57.92 -4.65 0 -24.19 57.92 4.65 0 -17.93 -61.48 -4.94 0 -24.14zm87.71 49.12l23.56 1.89c9.93,0.8 15.94,-4.7 18.11,-16.48l-41.67 -3.35 0 17.94zm41.67 -38.73c-2.68,-11.43 -9.1,-18.39 -19.22,-20.82l-22.45 -1.81 0 19.28 41.67 3.35zm194.12 40.8c-1.62,4.45 -3.29,8.66 -4.9,12.74l-28.46 1.57 0 7.6 -23.6 1.31 0 66.54c9.07,-1.43 18.19,-3.27 27.39,-5.59l0 26.32c-21.69,4.68 -48.62,8.58 -80.78,11.84l0 -25.81c9.02,-0.68 18.23,-1.66 27.67,-2.88l0 -68.99 -27.67 1.53 0 -25.49 27.67 -1.53 0 -63.02 -26.33 1.46 0 -24.14 77.55 -4.3 0 24.14 -25.5 1.41 0 63.02 23.6 -1.3 0 16.26c12.82,-32.36 24.29,-69.42 34.42,-111.03l58.02 -3.22c16.98,0.5 28.46,6.63 34.43,18.44 12.86,25.88 24.24,55.42 34.14,88.51l-30.9 1.72c-1.07,-4.07 -2.04,-8.19 -2.97,-12.31l-93.78 5.2zm85.92 -30.01c-4.35,-13.16 -9.3,-25.76 -14.9,-37.73 -2.36,-5.85 -7.22,-8.92 -14.67,-9.25l-35.21 1.96c-3.98,17.41 -8.32,33.87 -13,49.32l77.78 -4.3zm-106.56 54.51l103.04 -5.71c7.59,0.28 13.74,2.39 18.42,6.3 5.59,3.49 9.34,8.24 11.15,14.31 1.8,8.61 2.68,23.67 2.68,45.21 0,13.58 -2.96,24.22 -8.93,31.96 -5.97,7.42 -14.76,11.8 -26.33,13.14 -16.98,0.94 -29.79,1.23 -38.49,0.79l0 -24.98c9.62,0.39 20.82,0.19 33.64,-0.52 8.83,-0.49 13.55,-6.96 14.11,-19.5 0,-14.32 -0.19,-24.97 -0.56,-31.99 -1.25,-6.65 -5.96,-10.1 -14.11,-10.39l-41.73 2.31 0 94.77 -25.77 1.42 0 -94.76 -27.12 1.5 0 -23.86zm192.76 -122.44l86.41 -15.12c3.38,-6.2 6.39,-12.61 9.08,-19.19l27.57 -4.83c-1.96,6.46 -4.2,12.74 -6.71,18.78l100.28 -17.55 0 25.26 -54.54 9.54c17.3,14.72 37.52,22.77 60.71,24.13l0 29.61c-11.42,-1.24 -21.91,-3.3 -31.54,-6.15l0 13.85 -163.96 28.7 0 -11.68c-9.09,4.65 -18.72,9.16 -28.9,13.49l0 -28.78c27.98,-11.8 50.58,-27.25 67.7,-46.37l-66.1 11.57 0 -25.26zm55.37 57.14l116.08 -20.32c-16.76,-8.28 -30.4,-19.75 -40.9,-34.41l-28.9 5.06c-11.77,18.93 -27.2,35.44 -46.28,49.67zm-60.16 61.03l225.99 -39.54 0 25.76 -96.82 16.94c0.87,8.19 1.69,17.45 2.42,27.85 0,13.57 -1,22.78 -2.96,27.67 -2.65,14.73 -13.83,24.85 -33.42,30.27 -15.33,2.68 -28.02,4.35 -37.97,5.02l0 -25.25c10.13,-0.34 19.95,-1.32 29.39,-2.97 12.14,-2.12 18.49,-9.77 18.99,-22.88 -0.36,-12.63 -1.14,-24.31 -2.37,-35.17l-103.25 18.07 0 -25.77zm34.23 29.28l23.78 -4.17c-0.86,32.92 -17.2,57.88 -48.93,74.83l0 -26.04c16.75,-11.27 25.15,-26.13 25.15,-44.62zm134.25 -22.66l24.6 -4.31c1.09,13.39 9.36,23.16 24.87,29.34l0 30.12c-27.11,-7.91 -43.59,-26.29 -49.47,-55.15z"/>
  </g>
 </g>
</svg>
