<?xml version="1.0" encoding="UTF-8"?>
<!DOCTYPE svg PUBLIC "-//W3C//DTD SVG 1.1//EN" "http://www.w3.org/Graphics/SVG/1.1/DTD/svg11.dtd">
<!-- Creator: CorelDRAW 2021.5 -->
<svg xmlns="http://www.w3.org/2000/svg" xml:space="preserve" width="100%" height="100%" version="1.1" style="shape-rendering:geometricPrecision; text-rendering:geometricPrecision; image-rendering:optimizeQuality; fill-rule:evenodd; clip-rule:evenodd"
viewBox="0 0 123.29 123.29"
 xmlns:xlink="http://www.w3.org/1999/xlink"
 xmlns:xodm="http://www.corel.com/coreldraw/odm/2003">
 <defs>
  <style type="text/css">
   <![CDATA[
    .fil0 {fill:none;fill-rule:nonzero}
    .fil1 {fill:#8C2898;fill-rule:nonzero}
    .fil2 {fill:white;fill-rule:nonzero}
   ]]>
  </style>
   <clipPath id="id0" style="clip-rule:nonzero">
    <path d="M2.25 65.26c39.62,16.95 79.21,17.99 118.82,0.09 0.09,-1.25 0.12,-2.46 0.12,-3.71 0,-16.44 -6.65,-31.32 -17.44,-42.08 -10.79,-10.79 -25.64,-17.44 -42.08,-17.44 -16.44,0 -31.32,6.65 -42.08,17.44 -10.79,10.79 -17.44,25.64 -17.44,42.08 0,1.22 0.03,2.43 0.12,3.65l-0.03 -0.03z"/>
   </clipPath>
    <clipPath id="id1">
     <path d="M15.61 70.37c29.78,10.02 59.55,10.86 89.33,1.23l0 -50.81c-0.39,-0.41 -0.78,-0.82 -1.19,-1.22 -10.79,-10.79 -25.64,-17.44 -42.08,-17.44 -16.44,0 -31.32,6.65 -42.08,17.44 -1.4,1.4 -2.73,2.87 -3.98,4.4l0 46.41z"/>
    </clipPath>
    <clipPath id="id2">
     <path d="M2.25 65.26c39.62,16.95 79.21,17.99 118.82,0.09 0.09,-1.25 0.12,-2.46 0.12,-3.71 0,-16.44 -6.65,-31.32 -17.44,-42.08 -10.79,-10.79 -25.64,-17.44 -42.08,-17.44 -16.44,0 -31.32,6.65 -42.08,17.44 -10.79,10.79 -17.44,25.64 -17.44,42.08 0,1.22 0.03,2.43 0.12,3.65l-0.03 -0.03z"/>
    </clipPath>
 </defs>
 <g id="Layer_x0020_1">
  <metadata id="CorelCorpID_0Corel-Layer"/>
  <g>
  </g>
  <g style="clip-path:url(#id0)">
   <g id="_1823105921088">
   </g>
   <g style="clip-path:url(#id1)">
   </g>
   <g style="clip-path:url(#id2)">
   </g>
  </g>
  <path class="fil0" d="M2.25 65.26c39.62,16.95 79.21,17.99 118.82,0.09 0.09,-1.25 0.12,-2.46 0.12,-3.71 0,-16.44 -6.65,-31.32 -17.44,-42.08 -10.79,-10.79 -25.64,-17.44 -42.08,-17.44 -16.44,0 -31.32,6.65 -42.08,17.44 -10.79,10.79 -17.44,25.64 -17.44,42.08 0,1.22 0.03,2.43 0.12,3.65l-0.03 -0.03z"/>
  <path class="fil1" d="M36.61 24.67c-1.46,0.97 -3.43,0.61 -4.41,-0.85 -0.97,-1.46 -0.61,-3.43 0.85,-4.41 0.67,-0.46 1.4,-0.91 2.13,-1.37 0.88,-0.55 1.61,-0.97 2.16,-1.28 1.55,-0.85 3.49,-0.27 4.31,1.28 0.85,1.55 0.27,3.49 -1.28,4.31 -0.82,0.46 -1.46,0.82 -1.91,1.09 -0.61,0.36 -1.25,0.76 -1.85,1.18l0 0.03zm25.03 -24.67c17.01,0 32.45,6.9 43.6,18.05 11.15,11.15 18.05,26.58 18.05,43.6 0,17.01 -6.9,32.45 -18.05,43.6 -11.15,11.15 -26.58,18.05 -43.6,18.05 -17.01,0 -32.45,-6.9 -43.6,-18.05 -11.15,-11.15 -18.05,-26.58 -18.05,-43.6 0,-17.01 6.9,-32.45 18.05,-43.6 11.15,-11.15 26.58,-18.05 43.6,-18.05zm-59.4 65.26c39.62,16.95 79.21,17.99 118.82,0.09 0.09,-1.25 0.12,-2.46 0.12,-3.71 0,-16.44 -6.65,-31.32 -17.44,-42.08 -10.79,-10.79 -25.64,-17.44 -42.08,-17.44 -16.44,0 -31.32,6.65 -42.08,17.44 -10.79,10.79 -17.44,25.64 -17.44,42.08 0,1.22 0.03,2.43 0.12,3.65l-0.03 -0.03zm15.71 -12.73c-0.36,1.73 -2.04,2.83 -3.77,2.46 -1.73,-0.36 -2.83,-2.04 -2.46,-3.77 1.03,-4.92 2.76,-9.66 5.16,-14.04 2.4,-4.37 5.44,-8.42 9.02,-11.94 1.25,-1.25 3.28,-1.22 4.5,0.03 1.25,1.25 1.22,3.25 -0.03,4.5 -3.16,3.1 -5.8,6.62 -7.9,10.45 -2.1,3.83 -3.62,7.96 -4.53,12.27l0 0.03z"/>
  <path class="fil2" d="M19.16 77.2l3.15 0.72 0 -1.66 1.98 0.46 0 1.66 3.13 0.72 0 2.06 -0.72 -0.17c0.01,5.48 0.17,10.44 0.48,14.87l-1.7 -0.37c-0.32,-2.98 -0.48,-7.94 -0.49,-14.89l-0.69 -0.16 0 15.48 -1.98 -0.46 0 -15.48 -0.7 -0.16c-0.09,5.11 -0.25,10 -0.5,14.69l-1.74 -0.4c0.33,-4.57 0.51,-9.46 0.54,-14.68l-0.75 -0.17 0 -2.06zm10.93 8.69l0 3.42 4.61 1.06c0.01,-0.59 0.02,-1.23 0.02,-1.93 0,-0.51 -0.01,-1.01 -0.02,-1.49l-4.61 -1.06zm4.51 -0.96c-0.03,-0.57 -0.06,-1.12 -0.1,-1.64 -0.03,-1.05 -0.59,-1.77 -1.68,-2.15l-2.73 -0.63 0 3.38 4.51 1.03zm-4.51 6.38l0 3.48 3.14 0.72c0.83,0.03 1.24,-0.47 1.24,-1.5 0.06,-0.43 0.11,-0.98 0.17,-1.66l-4.55 -1.04zm3.11 -12.01c0.87,0.26 1.59,0.7 2.17,1.33 0.56,0.7 0.9,1.39 0.99,2.08 0.26,1.45 0.4,3.66 0.4,6.63 -0.01,2.42 -0.08,4.03 -0.19,4.84 -0.01,1.07 -0.28,1.95 -0.79,2.64 -0.61,0.65 -1.37,0.9 -2.28,0.75l-5.41 -1.24 0 -18.2 5.09 1.17zm7.51 2.16c1.47,0.48 2.8,1.06 4,1.74l0 2.21c-1.33,-0.83 -2.66,-1.48 -4,-1.95l0 -2zm4.02 5.26l0 2.06c-1.3,0.32 -2.69,0.72 -4.17,1.2l0 -2.08c1.27,-0.42 2.66,-0.82 4.17,-1.18zm3.9 -5.66l2.28 0.2c-0.34,0.54 -0.63,1.03 -0.89,1.49l0.42 0.04c1.13,0.17 1.98,0.68 2.56,1.54 0.52,0.8 0.81,1.71 0.85,2.73 0,1.33 -0.33,2.32 -1,2.97 -0.7,0.66 -1.72,0.97 -3.04,0.92l-4.34 -0.39 0 -8.22 2.31 0.21c0.27,-0.5 0.55,-1 0.85,-1.5zm-1.21 7.96l2.6 0.23c0.47,0.01 0.9,-0.16 1.29,-0.5 0.17,-0.28 0.29,-0.58 0.36,-0.88l-4.25 -0.38 0 1.53zm0 -3.29l4.25 0.38c-0.07,-0.35 -0.18,-0.67 -0.34,-0.97 -0.23,-0.38 -0.66,-0.61 -1.31,-0.71l-2.6 -0.23 0 1.53zm10.85 -2.75l0 1.98c-1.21,0.3 -2.51,0.68 -3.89,1.14l0 -1.98c1.18,-0.4 2.48,-0.78 3.89,-1.14zm-3.87 4.54c1.17,0.66 2.48,1.19 3.91,1.6l0 2.02c-1.44,-0.35 -2.74,-0.91 -3.91,-1.64l0 -1.98zm-14.05 3.84l8 0.72 0 -0.79 2.14 0.19 0 0.79 7.97 0.71 0 1.98 -4.61 -0.41c0.89,1.44 2.34,2.65 4.36,3.64l-0.02 2.21c-3.06,-1.25 -5.27,-3.27 -6.62,-6.05l-1.08 -0.1 0 6.1 -2.14 -0.19 0 -6.1 -1.27 -0.11c-1.1,2.59 -3.25,4.21 -6.45,4.86l0 -2.15c2.12,-0.66 3.52,-1.63 4.23,-2.91l-4.51 -0.4 0 -1.98zm27.37 -9.46l6.37 -0.54c1.68,-0.06 2.98,0.5 3.92,1.67 0.75,0.83 1.22,1.91 1.42,3.25l0.97 -0.08 0 1.91 -0.93 0.08c-0.14,1.43 -0.63,2.62 -1.46,3.56 -1.04,1.25 -2.47,2.01 -4.28,2.27l-0.55 0.05c-0.75,3.15 -2.83,5.41 -6.24,6.77l-0.02 -2.21c2.2,-0.84 3.6,-2.3 4.19,-4.39l-3.47 0.29 0 -1.95 3.81 -0.32c0.01,-0.2 0.02,-0.39 0.02,-0.57l0 -2.82 -4.82 0.41 0 -1.91 4.82 -0.41 0 -3.35 -3.75 0.32 0 -2.02zm5.78 1.53l0 3.35 3.83 -0.32c-0.11,-0.74 -0.37,-1.35 -0.78,-1.82 -0.58,-0.81 -1.44,-1.23 -2.6,-1.24l-0.44 0.04zm0 5.27l0 3.16c-0.01,0.08 -0.02,0.16 -0.02,0.23l0.21 -0.02c1.24,-0.23 2.17,-0.8 2.8,-1.7 0.45,-0.56 0.73,-1.23 0.85,-2l-3.83 0.32zm-9.74 0.42c-0.62,0.82 -1.3,1.54 -2.03,2.17l0 -2.72c1.47,-1.68 2.57,-3.94 3.32,-6.78l2.07 -0.18c-0.35,1.4 -0.78,2.69 -1.29,3.87l0 15.25 -2.07 0.18 0 -11.79zm28.81 -11.22l2.02 -0.42 0 1.55 1.62 -0.34 0 1.87 -0.39 0.08c-0.07,1.28 -0.15,2.52 -0.25,3.75l1.33 -0.28c-0.04,-0.66 -0.07,-1.34 -0.1,-2.04 0.01,-2.1 0.05,-3.78 0.1,-5.06l1.77 -0.32c-0.04,1.25 -0.07,2.6 -0.08,4.05 0,1.08 0.03,2.07 0.08,3l2.83 -0.59 0 1.85 -2.7 0.56c0.11,1.21 0.26,2.27 0.45,3.18 0.24,-0.83 0.4,-1.69 0.48,-2.59l1.66 -0.32c-0.22,1.92 -0.68,3.67 -1.37,5.28 0.42,0.85 0.92,1.41 1.52,1.68l0 2.44c-1.04,-0.27 -1.91,-0.97 -2.6,-2.12 -0.73,1.15 -1.63,2.19 -2.68,3.15l0 -2.06c0.76,-0.87 1.4,-1.78 1.91,-2.73 -0.53,-1.45 -0.9,-3.3 -1.13,-5.54l-6.55 1.36 0 -1.85 0.87 -0.18c-0.1,-1.18 -0.16,-2.4 -0.19,-3.66l-0.5 0.1 0 -1.87 1.9 -0.39 0 -1.55zm0.35 7.04l1.1 -0.23c0.1,-1.24 0.17,-2.49 0.23,-3.74l-1.52 0.32c0.04,1.24 0.11,2.46 0.19,3.66zm0.94 2.42c0.87,-0.13 1.54,0.14 1.99,0.8 0.44,0.61 0.67,1.58 0.67,2.9 0,1.23 -0.22,2.22 -0.67,2.97 -0.43,0.77 -1.07,1.27 -1.93,1.5l-3.03 0.63 0 -8.17 2.97 -0.62zm-1.39 6.81l1.15 -0.24c0.43,-0.13 0.75,-0.42 0.95,-0.85 0.15,-0.34 0.25,-0.74 0.29,-1.19l-2.39 0.5 0 1.78zm0 -3.37l2.31 -0.48c-0.06,-0.27 -0.13,-0.51 -0.23,-0.7 -0.22,-0.44 -0.55,-0.64 -1,-0.62l-1.08 0.22 0 1.57zm6.63 -12.91l1.58 -0.33c0.22,1.44 0.39,3.07 0.5,4.89l-1.56 0.32c-0.07,-1.69 -0.24,-3.31 -0.52,-4.88zm-12.35 1.35l2.14 -0.44 -3.2 5.8 0.92 -0.19 1.72 -3.2 2 -0.41 -3.99 7.48 1.52 -0.32c0.29,-0.06 0.44,-0.32 0.44,-0.77l0 -1.59 1.58 -0.33 0 2.27c0,1.11 -0.56,1.81 -1.69,2.11l-0.21 0.04 0 8.35 -1.75 0.36 0 -8.35 -1.04 0.22c-0.81,0.17 -1.21,-0.1 -1.21,-0.81 0,-0.21 0.17,-0.56 0.5,-1.06l1.15 -2.15 -1.31 0.27c-0.55,0.02 -0.83,-0.28 -0.83,-0.89 0,-0.21 0.09,-0.47 0.27,-0.78l3 -5.61zm-2.58 11.83l1.52 -0.32c-0.04,3.52 -0.71,6.03 -2.02,7.53l0 -2.4c0.33,-1.04 0.5,-2.65 0.5,-4.82zm4.24 -0.96l1.46 -0.3c0.01,1.6 0.15,2.9 0.42,3.9l0 3.27c-1.01,-1.22 -1.64,-3.51 -1.87,-6.88z"/>
 </g>
</svg>
