<?xml version="1.0" encoding="UTF-8"?>
<!DOCTYPE svg PUBLIC "-//W3C//DTD SVG 1.1//EN" "http://www.w3.org/Graphics/SVG/1.1/DTD/svg11.dtd">
<!-- Creator: CorelDRAW 2021.5 -->
<svg xmlns="http://www.w3.org/2000/svg" xml:space="preserve" width="100%" height="100" version="1.1" style="shape-rendering:geometricPrecision; text-rendering:geometricPrecision; image-rendering:optimizeQuality; fill-rule:evenodd; clip-rule:evenodd"
viewBox="0 0 247.13 247.13"
 xmlns:xlink="http://www.w3.org/1999/xlink"
 xmlns:xodm="http://www.corel.com/coreldraw/odm/2003">
 <defs>
  <style type="text/css">
   <![CDATA[
    .fil0 {fill:none;fill-rule:nonzero}
    .fil1 {fill:#8C2898;fill-rule:nonzero}
    .fil2 {fill:white;fill-rule:nonzero}
   ]]>
  </style>
   <clipPath id="id0" style="clip-rule:nonzero">
    <path d="M4.51 130.81c79.41,33.98 158.77,36.05 238.18,0.18 0.18,-2.5 0.24,-4.93 0.24,-7.43 0,-32.95 -13.34,-62.79 -34.96,-84.35 -21.62,-21.62 -51.4,-34.96 -84.35,-34.96 -32.95,0 -62.79,13.34 -84.35,34.96 -21.62,21.62 -34.96,51.4 -34.96,84.35 0,2.44 0.06,4.87 0.24,7.31l-0.06 -0.06z"/>
   </clipPath>
    <clipPath id="id1">
     <path d="M31.3 141.05c59.69,20.09 119.36,21.77 179.05,2.46l0 -101.85c-0.78,-0.83 -1.57,-1.64 -2.38,-2.44 -21.62,-21.62 -51.4,-34.96 -84.35,-34.96 -32.95,0 -62.79,13.34 -84.35,34.96 -2.8,2.8 -5.47,5.75 -7.98,8.82l0 93.02z"/>
    </clipPath>
    <clipPath id="id2">
     <path d="M4.51 130.81c79.41,33.98 158.77,36.05 238.18,0.18 0.18,-2.5 0.24,-4.93 0.24,-7.43 0,-32.95 -13.34,-62.79 -34.96,-84.35 -21.62,-21.62 -51.4,-34.96 -84.35,-34.96 -32.95,0 -62.79,13.34 -84.35,34.96 -21.62,21.62 -34.96,51.4 -34.96,84.35 0,2.44 0.06,4.87 0.24,7.31l-0.06 -0.06z"/>
    </clipPath>
 </defs>
 <g id="Layer_x0020_1">
  <metadata id="CorelCorpID_0Corel-Layer"/>
  <g>
  </g>
  <g style="clip-path:url(#id0)">
   <g id="_1787924409136">
   </g>
   <g style="clip-path:url(#id1)">
   </g>
   <g style="clip-path:url(#id2)">
   </g>
  </g>
  <path class="fil0" d="M4.51 130.81c79.41,33.98 158.77,36.05 238.18,0.18 0.18,-2.5 0.24,-4.93 0.24,-7.43 0,-32.95 -13.34,-62.79 -34.96,-84.35 -21.62,-21.62 -51.4,-34.96 -84.35,-34.96 -32.95,0 -62.79,13.34 -84.35,34.96 -21.62,21.62 -34.96,51.4 -34.96,84.35 0,2.44 0.06,4.87 0.24,7.31l-0.06 -0.06z"/>
  <path class="fil1" d="M73.38 49.45c-2.92,1.95 -6.88,1.22 -8.83,-1.71 -1.95,-2.92 -1.22,-6.88 1.71,-8.83 1.34,-0.91 2.8,-1.83 4.26,-2.74 1.77,-1.1 3.23,-1.95 4.32,-2.56 3.11,-1.71 7,-0.55 8.65,2.56 1.71,3.11 0.55,7 -2.56,8.65 -1.64,0.91 -2.92,1.64 -3.84,2.19 -1.22,0.73 -2.5,1.52 -3.72,2.37l0 0.06zm50.18 -49.45c34.1,0 65.04,13.82 87.39,36.17 22.35,22.35 36.17,53.29 36.17,87.39 0,34.1 -13.82,65.04 -36.17,87.39 -22.35,22.35 -53.29,36.17 -87.39,36.17 -34.1,0 -65.04,-13.82 -87.39,-36.17 -22.35,-22.35 -36.17,-53.29 -36.17,-87.39 0,-34.1 13.82,-65.04 36.17,-87.39 22.35,-22.35 53.29,-36.17 87.39,-36.17zm-119.06 130.81c79.41,33.98 158.77,36.05 238.18,0.18 0.18,-2.5 0.24,-4.93 0.24,-7.43 0,-32.95 -13.34,-62.79 -34.96,-84.35 -21.62,-21.62 -51.4,-34.96 -84.35,-34.96 -32.95,0 -62.79,13.34 -84.35,34.96 -21.62,21.62 -34.96,51.4 -34.96,84.35 0,2.44 0.06,4.87 0.24,7.31l-0.06 -0.06zm31.49 -25.52c-0.73,3.47 -4.08,5.66 -7.55,4.93 -3.47,-0.73 -5.66,-4.08 -4.93,-7.55 2.07,-9.87 5.54,-19.37 10.35,-28.14 4.81,-8.77 10.9,-16.87 18.09,-23.93 2.5,-2.5 6.58,-2.44 9.01,0.06 2.5,2.5 2.44,6.52 -0.06,9.01 -6.33,6.21 -11.63,13.28 -15.83,20.95 -4.2,7.67 -7.25,15.96 -9.07,24.6l0 0.06z"/>
  <path class="fil2" d="M55.47 156.08l3.82 0.84c0.64,3.69 1.25,7.58 1.83,11.69l-3.94 -0.87c-0.48,-3.94 -1.04,-7.82 -1.71,-11.66zm6.7 1.52l3.78 0.83c0.61,3.59 1.19,7.41 1.75,11.45l-3.91 -0.86c-0.44,-3.87 -0.98,-7.68 -1.62,-11.42zm9.15 1.97l3.91 0.86c-0.81,5.02 -1.54,8.57 -2.21,10.66l-3.99 -0.88c1.06,-3.94 1.82,-7.49 2.29,-10.65zm-16.47 12.8l7.11 1.57c0.75,-1.03 1.58,-2.16 2.5,-3.41l4.36 1.01c-0.97,1.23 -1.82,2.35 -2.53,3.36l9.23 2.04 0 3.83 -2.37 -0.52c-0.84,3.42 -2.34,6.18 -4.53,8.28 1.86,1.49 4.04,3.15 6.57,4.99l0 4.81c-3.44,-2.75 -6.53,-5.28 -9.27,-7.63 -2.82,1.68 -6.36,2.69 -10.6,3.03l0 -4.21c2.8,-0.21 5.19,-0.8 7.19,-1.78 -3.55,-2.83 -5.32,-5.01 -5.32,-6.54 0,-0.23 0.83,-1.53 2.49,-3.92l-4.82 -1.06 0 -3.83zm10.52 13.47c1.88,-1.63 3.19,-3.78 3.91,-6.46l-5.49 -1.21c-1.44,1.98 -2.16,3.1 -2.16,3.35 0,0.74 1.24,2.18 3.74,4.32zm-25.48 -30.14l5.24 1.16 0 -3.71 3.79 0.84 0 3.71 5.15 1.14 0 3.92 -1.04 -0.23c0.03,11.07 0.44,21.1 1.24,30.08l-3.16 -0.7c-0.7,-6 -1.05,-16.01 -1.08,-30.04l-1.12 -0.25 0 30.95 -3.79 -0.84 0 -30.95 -1.12 -0.25c-0.14,10.27 -0.4,20.15 -0.79,29.63l-3.12 -0.69c0.58,-9.21 0.89,-19.08 0.92,-29.6l-1.12 -0.25 0 -3.92zm43.64 11.5l7.12 0.64 0 -6.04 4.07 0.37 0 6.04 12.08 1.08 0 -6.04 4.2 0.38 0 6.04 6.78 0.61 0 4.18 -6.78 -0.61 0 11.87 8.05 0.72 0 4.26 -8.05 -0.72 0 12.13 -4.2 -0.38 0 -12.13 -13.95 -1.25c-0.48,1.49 -1.05,2.89 -1.69,4.19 -2.1,3.98 -4.12,6.45 -6.06,7.38l0 -5.75c1.53,-1.65 2.71,-3.72 3.56,-6.2l-6.36 -0.57 0 -4.26 7.5 0.67c0.51,-2.62 0.77,-5.53 0.8,-8.73l0.04 -3.06 -7.12 -0.64 0 -4.18zm11.19 5.18l0 3.19c-0.03,3.06 -0.3,5.93 -0.81,8.61l12.89 1.16 0 -11.87 -12.08 -1.08zm48.66 6.36c-0.25,0.71 -0.51,1.38 -0.77,2.03l-4.45 0.44 0 1.19 -3.69 0.36 0 10.43c1.42,-0.28 2.84,-0.64 4.28,-1.06l0 4.13c-3.39,0.88 -7.6,1.67 -12.62,2.39l0 -4.05c1.41,-0.17 2.85,-0.38 4.32,-0.64l0 -10.82 -4.32 0.42 0 -4 4.32 -0.42 0 -9.88 -4.11 0.4 0 -3.79 12.12 -1.19 0 3.79 -3.98 0.39 0 9.88 3.69 -0.36 0 2.55c2,-5.16 3.8,-11.04 5.38,-17.64l9.07 -0.89c2.65,-0.04 4.45,0.85 5.38,2.66 2.01,3.97 3.79,8.53 5.34,13.65l-4.83 0.47c-0.17,-0.63 -0.32,-1.27 -0.46,-1.91l-14.66 1.44zm13.43 -5.28c-0.68,-2.03 -1.45,-3.98 -2.33,-5.82 -0.37,-0.9 -1.13,-1.35 -2.29,-1.35l-5.5 0.54c-0.62,2.76 -1.3,5.37 -2.03,7.82l12.15 -1.19zm-16.65 9.26l16.1 -1.58c1.19,-0.01 2.15,0.28 2.88,0.87 0.87,0.51 1.46,1.23 1.74,2.17 0.28,1.34 0.42,3.69 0.42,7.07 0,2.13 -0.46,3.82 -1.4,5.07 -0.93,1.2 -2.31,1.95 -4.11,2.23 -2.65,0.26 -4.66,0.39 -6.02,0.38l0 -3.92c1.5,-0 3.25,-0.11 5.26,-0.31 1.38,-0.14 2.12,-1.18 2.21,-3.15 0,-2.25 -0.03,-3.91 -0.09,-5.01 -0.2,-1.03 -0.93,-1.54 -2.21,-1.53l-6.52 0.64 0 14.86 -4.03 0.4 0 -14.86 -4.24 0.42 0 -3.74zm29.18 -14.89l15.88 -3.3 0 -3.07c-4.23,0.96 -8.94,1.99 -14.13,3.1l0 -4.13c16.03,-3.33 27.1,-5.85 33.19,-7.57l0 4.09c-3.61,0.98 -8.61,2.18 -15.01,3.62l0 3.11 15.92 -3.3 0 3.96 -8.71 1.81c2.42,3.18 5.29,4.97 8.63,5.36l0 4.47c-5.95,-0.87 -10.29,-3.84 -13,-8.92l-2.84 0.59 0 7.49 -4.04 0.84 0 -7.49 -2.67 0.55c-1.42,3.93 -3.93,7.37 -7.55,10.34l18.55 -3.85c6.39,-1.33 9.64,0.7 9.75,6.06 0,5.22 -2.75,8.56 -8.25,10.01l-21.34 4.43 0 -15.66c-1.37,1.02 -2.84,1.97 -4.43,2.84l0 -4.34c4.15,-2.42 7.09,-5.39 8.84,-8.9l-8.8 1.83 0 -3.96zm8.34 20.79l0 2.77 16.76 -3.48c2.44,-0.73 3.96,-1.97 4.54,-3.71l-21.3 4.42zm21.18 -8.01c-0.73,-1.49 -2.49,-1.95 -5.29,-1.37l-15.88 3.3 0 2.47 21.18 -4.39z"/>
 </g>
</svg>
