<?xml version="1.0" encoding="UTF-8"?>
<!DOCTYPE svg PUBLIC "-//W3C//DTD SVG 1.1//EN" "http://www.w3.org/Graphics/SVG/1.1/DTD/svg11.dtd">
<!-- Creator: CorelDRAW 2021.5 -->
<svg xmlns="http://www.w3.org/2000/svg" xml:space="preserve" width="100%" height="100%" version="1.1" style="shape-rendering:geometricPrecision; text-rendering:geometricPrecision; image-rendering:optimizeQuality; fill-rule:evenodd; clip-rule:evenodd"
viewBox="0 0 3986.84 3986.84"
 xmlns:xlink="http://www.w3.org/1999/xlink"
 xmlns:xodm="http://www.corel.com/coreldraw/odm/2003">
 <defs>
  <style type="text/css">
   <![CDATA[
    .fil0 {fill:none;fill-rule:nonzero}
    .fil1 {fill:#8C2898;fill-rule:nonzero}
    .fil2 {fill:#FEFEFE;fill-rule:nonzero}
   ]]>
  </style>
   <clipPath id="id0" style="clip-rule:nonzero">
    <path d="M72.71 2110.34c1281.13,548.21 2561.28,581.62 3842.41,2.95 2.95,-40.28 3.93,-79.58 3.93,-119.86 0,-531.52 -215.16,-1012.92 -563.93,-1360.71 -348.78,-348.78 -829.2,-563.93 -1360.71,-563.93 -531.52,0 -1012.92,215.16 -1360.71,563.93 -348.78,348.78 -563.93,829.2 -563.93,1360.71 0,39.3 0.99,78.6 3.93,117.89l-0.99 -0.98z"/>
   </clipPath>
    <clipPath id="id1">
     <path d="M504.9 2275.56c963.01,324.15 1925.59,351.15 2888.57,39.68l0 -1643.14c-12.6,-13.32 -25.38,-26.45 -38.35,-39.39 -348.78,-348.78 -829.2,-563.93 -1360.71,-563.93 -531.52,0 -1012.92,215.16 -1360.71,563.93 -45.25,45.25 -88.23,92.73 -128.79,142.23l0 1500.62z"/>
    </clipPath>
    <clipPath id="id2">
     <path d="M72.71 2110.34c1281.13,548.21 2561.28,581.62 3842.41,2.95 2.95,-40.28 3.93,-79.58 3.93,-119.86 0,-531.52 -215.16,-1012.92 -563.93,-1360.71 -348.78,-348.78 -829.2,-563.93 -1360.71,-563.93 -531.52,0 -1012.92,215.16 -1360.71,563.93 -348.78,348.78 -563.93,829.2 -563.93,1360.71 0,39.3 0.99,78.6 3.93,117.89l-0.99 -0.98z"/>
    </clipPath>
 </defs>
 <g id="Layer_x0020_1">
  <metadata id="CorelCorpID_0Corel-Layer"/>
  <g>
  </g>
  <g style="clip-path:url(#id0)">
   <g id="_2718333555024">
   </g>
   <g style="clip-path:url(#id1)">
   </g>
   <g style="clip-path:url(#id2)">
   </g>
  </g>
  <path class="fil0" d="M72.71 2110.34c1281.13,548.21 2561.28,581.62 3842.41,2.95 2.95,-40.28 3.93,-79.58 3.93,-119.86 0,-531.52 -215.16,-1012.92 -563.93,-1360.71 -348.78,-348.78 -829.2,-563.93 -1360.71,-563.93 -531.52,0 -1012.92,215.16 -1360.71,563.93 -348.78,348.78 -563.93,829.2 -563.93,1360.71 0,39.3 0.99,78.6 3.93,117.89l-0.99 -0.98z"/>
  <path class="fil1" d="M1183.87 797.77c-47.15,31.44 -111.01,19.65 -142.46,-27.51 -31.44,-47.15 -19.65,-111.01 27.51,-142.46 21.62,-14.74 45.19,-29.47 68.77,-44.21 28.5,-17.68 52.07,-31.44 69.76,-41.26 50.1,-27.51 112.99,-8.84 139.51,41.26 27.51,50.1 8.84,112.99 -41.26,139.51 -26.52,14.74 -47.15,26.52 -61.9,35.37 -19.65,11.79 -40.28,24.56 -59.93,38.31l0 0.99zm809.55 -797.77c550.17,0 1049.27,223.02 1409.84,583.58 360.56,360.56 583.58,859.65 583.58,1409.84 0,550.17 -223.02,1049.27 -583.58,1409.84 -360.56,360.56 -859.65,583.58 -1409.84,583.58 -550.17,0 -1049.27,-223.02 -1409.84,-583.58 -360.56,-360.56 -583.58,-859.65 -583.58,-1409.84 0,-550.17 223.02,-1049.27 583.58,-1409.84 360.56,-360.56 859.65,-583.58 1409.84,-583.58zm-1920.71 2110.34c1281.13,548.21 2561.28,581.62 3842.41,2.95 2.95,-40.28 3.93,-79.58 3.93,-119.86 0,-531.52 -215.16,-1012.92 -563.93,-1360.71 -348.78,-348.78 -829.2,-563.93 -1360.71,-563.93 -531.52,0 -1012.92,215.16 -1360.71,563.93 -348.78,348.78 -563.93,829.2 -563.93,1360.71 0,39.3 0.99,78.6 3.93,117.89l-0.99 -0.98zm507.93 -411.65c-11.79,56.01 -65.82,91.37 -121.83,79.58 -56.01,-11.79 -91.37,-65.82 -79.58,-121.83 33.4,-159.15 89.4,-312.42 167.02,-453.9 77.61,-141.47 175.86,-272.14 291.79,-386.11 40.28,-40.28 106.11,-39.3 145.4,0.99 40.28,40.28 39.3,105.12 -0.99,145.4 -102.17,100.21 -187.65,214.17 -255.44,337.96 -67.79,123.79 -116.91,257.4 -146.39,396.91l0.01 1z"/>
  <path class="fil2" d="M1170.36 2552.55l134.44 25.9c3.5,-24.51 4.9,-49.72 5.6,-77.02l69.32 13.31c-1.4,26.6 -3.5,52.52 -7,76.32l207.26 39.21 0 71.41 -220.56 -42.01c-11.2,47.61 -27.31,89.62 -47.61,125.34l255.57 49.01 0 71.41 -152.64 -29.4 0 223.36 164.55 31.51 0 72.82 -408.91 -77.72 0 -72.82 175.04 33.61 0 -223.36 -79.82 -15.4c-32.2,35.71 -72.82,61.62 -119.73,77.72l0 -82.62c71.41,-39.21 119.73,-104.33 144.23,-196.05l-120.43 -23.1 0 -71.41 0.7 -0.01zm-67.22 -89.62l72.12 14c-16.11,51.11 -35.71,95.92 -56.71,133.74l0 523.03 -67.22 -12.6 0 -420.81c-22.41,22.41 -46.92,39.91 -72.82,52.52l0 -95.92c51.11,-32.91 93.12,-97.33 124.63,-193.25l0 -0.71zm596.56 134.44l135.13 2.1 0 -32.91 69.32 0.7 0 32.91 182.75 2.8 0 -36.41 69.32 0.7 0 36.41 131.64 2.1 0 65.12 -131.64 -2.1 0 31.51 -69.32 -0.7 0 -31.51 -182.75 -2.8 0 31.51 -69.32 -0.7 0 -31.51 -135.13 -2.1 0 -65.12zm122.53 114.12c39.21,6.3 60.92,28.71 64.42,67.92 7.7,42.01 11.2,106.43 11.2,193.95 0,72.82 -0.7,125.34 -2.8,157.54 0,54.61 -18.91,82.62 -57.41,84.02 -16.8,-1.4 -33.61,-2.8 -51.11,-3.5l0 -62.31c12.6,1.4 25.21,2.8 37.11,2.8 9.1,-2.1 13.31,-9.8 14,-23.8 0.7,-28.71 1.4,-56.02 2.1,-82.62l-67.92 -0.7c-3.5,82.62 -8.4,139.34 -15.4,170.15l-58.12 -0.7c11.9,-67.92 18.91,-165.94 20.3,-293.37l0 -210.75 102.93 1.4 0.69 -0.02zm-48.31 272.37l65.81 0.7c0,-2.8 0,-4.9 0,-7.7 0,-24.51 0,-47.61 -0.7,-69.32l-64.42 -0.7 0 14c-0.7,21.71 -0.7,42.71 -0.7,63.01l0 0.01zm0.7 -139.33l61.62 0.7c-0.7,-18.91 -2.1,-37.81 -4.2,-56.02 0,-12.6 -7.7,-19.61 -23.1,-21.71l-34.31 -0.7 0 77.72 -0.01 0zm179.25 -119.04l60.92 0.7c4.9,16.11 8.4,32.2 11.9,48.31l37.81 0.7c4.9,-18.91 8.4,-37.81 10.51,-58.12l57.41 0.7c-2.1,21 -4.9,39.91 -9.1,58.12l41.31 0.7c7.7,-17.5 13.31,-33.61 18.2,-49.72l61.62 0.7c-6.3,18.91 -12.6,35 -18.91,49.72l49.01 0.7 0 56.71 -98.72 -1.4c4.9,14.7 11.2,28.01 18.2,40.61l95.92 1.4 0 60.21 -52.52 -0.7c16.11,16.8 35,32.2 56.71,45.51l-0.7 67.22c-15.4,-7.7 -29.4,-16.11 -43.41,-25.21l0 24.51c-24.51,0.7 -55.32,2.8 -92.42,6.3l0 -53.21c18.91,-2.8 37.81,-4.9 56.71,-6.3 -18.2,-16.8 -34.31,-37.11 -48.31,-59.51l-114.83 -1.4c-18.91,23.1 -41.31,43.41 -67.22,60.21 28.71,1.4 51.81,2.8 69.32,4.9l0 51.81c-23.1,-2.1 -58.82,-4.2 -107.13,-5.6l0 -27.31c-7.7,4.2 -16.11,8.4 -24.51,11.2l0 -61.62c18.2,-10.51 35,-21.71 50.41,-35l-48.31 -0.7 0 -60.21 100.83 1.4c7.7,-12.6 15.4,-25.21 22.41,-39.91l-117.63 -1.4 0 -56.71 40.61 0.7c-3.5,-15.4 -8.4,-31.51 -14,-48.31l-2.08 -0.69zm179.25 147.74c-6.3,-12.6 -11.2,-25.9 -15.4,-40.61l-11.2 0c-4.9,14.7 -11.2,27.31 -18.2,39.91l44.81 0.7 -0.01 0zm-60.92 188.35c-0.7,-33.61 -0.7,-68.61 -0.7,-104.33l63.01 0.7c0.7,32.91 0.7,68.61 0.7,106.43 47.61,21 98.72,37.81 154.04,51.11l0 60.21c-55.32,-9.1 -107.13,-23.8 -154.04,-44.11 -1.4,23.8 -7,42.71 -16.11,58.12 -14.7,18.91 -30.11,28.01 -48.31,28.01l-74.92 -1.4 0 -60.92 51.11 0.7c16.8,0 25.21,-8.4 25.21,-25.9 0,-2.1 0,-4.9 0,-7 -35,9.8 -85.42,19.61 -149.84,28.71l0 -64.42c52.52,-7 102.93,-16.11 149.84,-26.6l0.01 0.7zm810.81 -582.56c25.9,-4.9 49.72,-0.7 70.02,12.6 19.61,17.5 29.4,40.61 29.4,69.32l-0.7 450.92c0,16.11 4.2,23.8 13.31,24.51l13.31 -2.8 0 62.31c-14,2.8 -28.01,5.6 -42.71,8.4 -26.6,2.1 -41.31,-23.1 -44.81,-76.32l0 -441.81c-3.5,-26.6 -18.2,-39.91 -44.11,-39.91l-165.94 31.51 0 55.32c0,114.13 -2.8,212.86 -8.4,295.47 -3.5,88.22 -9.1,165.24 -16.11,231.77l-60.21 11.9c7,-57.41 13.31,-131.64 18.2,-221.26 5.6,-81.92 9.1,-185.55 11.2,-310.18l0 -117.63 227.56 -43.41 0 -0.72zm16.11 91.03l0 56.71c-18.2,4.9 -38.51,10.51 -60.92,15.4l0 41.31c21,-1.4 37.11,9.8 47.61,35 11.2,23.1 16.8,58.82 16.8,107.13 0,45.51 -5.6,81.22 -16.8,107.13 -9.8,27.31 -25.9,44.11 -47.61,50.41l0 77.02 13.31 -2.8c4.9,-1.4 7.7,-5.6 7.7,-12.6l0 -49.72 44.81 -8.4 0 70.72c0,14.7 -3.5,27.31 -11.2,38.51 -5.6,11.2 -16.11,18.2 -30.11,22.41l-147.03 28.01 0 -63.01 74.92 -14 0 -77.02 -60.21 11.2 0 -300.38 60.21 -11.2 0 -38.51c-18.91,4.9 -39.21,9.1 -60.21,14l0 -57.41c63.72,-14 119.73,-27.31 169.44,-39.91l-0.71 0zm-128.83 373.2l19.61 -3.5 0 -195.36 -19.61 3.5 0 195.36zm67.92 -203.06l0 187.65c7,-5.6 11.9,-14.7 16.11,-27.31 5.6,-17.5 8.4,-39.21 8.4,-64.42 0,-30.11 -2.8,-53.91 -8.4,-71.41 -4.2,-12.6 -9.1,-21 -16.11,-24.51zm-431.31 -132.33l81.92 -15.4 0 -56.71 59.51 -11.2 0 56.71 87.52 -16.8 0 67.22 -23.8 4.9c0.7,195.36 2.8,370.4 7,525.14l-45.51 8.4c-5.6,-102.22 -8.4,-277.27 -8.4,-524.44l-16.8 3.5 0 544.74 -59.51 11.2 0 -544.74 -16.11 3.5c-2.1,184.15 -5.6,361.3 -11.9,531.44l-50.41 9.8c8.4,-167.35 13.31,-344.49 14,-532.13l-16.8 3.5 0 -67.22 -0.7 -1.4z"/>
 </g>
</svg>
