<?xml version="1.0" encoding="UTF-8"?>
<!DOCTYPE svg PUBLIC "-//W3C//DTD SVG 1.1//EN" "http://www.w3.org/Graphics/SVG/1.1/DTD/svg11.dtd">
<!-- Creator: CorelDRAW 2020 (64-Bit) -->
<svg xmlns="http://www.w3.org/2000/svg" xml:space="preserve" width="2550px" height="2550px" version="1.1" shape-rendering="geometricPrecision" text-rendering="geometricPrecision" image-rendering="optimizeQuality" fill-rule="evenodd" clip-rule="evenodd"
viewBox="0 0 3660.48 3660.48"
 xmlns:xlink="http://www.w3.org/1999/xlink"
 xmlns:xodm="http://www.corel.com/coreldraw/odm/2003">
 <g id="Layer_x0020_1">
  <metadata id="CorelCorpID_0Corel-Layer"/>
  <g id="_2205487296368">
   <path fill="#8C2898" fill-rule="nonzero" d="M1086.96 732.43c-43.36,28.8 -101.97,17.96 -130.77,-25.24 -28.79,-43.36 -17.95,-101.97 25.24,-130.76 19.82,-13.55 41.5,-27.1 63.19,-40.66 26.08,-16.26 47.76,-28.79 64.02,-37.94 46.08,-25.24 103.67,-8.13 128.06,37.94 25.24,46.08 8.13,103.67 -37.94,128.06 -24.39,13.55 -43.36,24.39 -56.91,32.52 -17.96,10.84 -36.93,22.53 -55.05,35.24l0 0.84 0.16 0zm743.28 -732.43c505.11,0 963.48,204.79 1294.46,535.78 330.99,330.98 535.78,789.34 535.78,1294.46 0,505.11 -204.79,963.48 -535.78,1294.46 -330.98,330.99 -789.35,535.78 -1294.46,535.78 -505.12,0 -963.48,-204.79 -1294.46,-535.78 -330.99,-330.98 -535.78,-789.35 -535.78,-1294.46 0,-505.12 204.79,-963.48 535.78,-1294.46 330.98,-330.99 789.34,-535.78 1294.46,-535.78zm-1763.67 1937.63c1176.4,503.42 2351.78,534.08 3528.01,2.71 2.71,-36.93 3.56,-73.01 3.56,-110.1 0,-488.01 -197.51,-930.11 -517.82,-1249.41 -320.31,-320.31 -761.4,-517.82 -1249.4,-517.82 -488.01,0 -930.11,197.51 -1249.41,517.82 -320.31,320.31 -517.82,761.4 -517.82,1249.41 0,36.08 0.85,72.16 3.56,108.24l-0.85 -0.85 0.17 0zm466.32 -377.91c-10.84,51.5 -60.47,83.85 -111.79,73.01 -51.5,-10.84 -83.85,-60.47 -73.01,-111.8 30.66,-146.18 82.16,-286.94 153.3,-416.69 71.31,-129.92 161.42,-249.85 267.97,-354.53 36.93,-36.93 97.4,-36.08 133.48,0.85 36.92,36.92 36.08,96.55 -0.85,133.47 -93.84,91.98 -172.27,196.66 -234.6,310.32 -62.17,113.66 -107.39,236.3 -134.5,364.53l0 0.84 0 0z"/>
   <path fill="#FEFEFE" fill-rule="nonzero" d="M742.91 2283.66l180.67 51.78 0 52.16 -67.42 -19.33c-2.17,11.47 -4.62,22.95 -7.17,34.63 16.6,7.62 30.37,18.66 41.49,32.98 13.96,19.8 22.07,39.3 24.24,58.47 6.31,30.43 9.43,75.85 9.43,136.27 -0.38,49.19 -1.98,82.12 -5,98.64 -0.38,21.41 -6.6,38.61 -18.77,51.76 -0.75,0.53 -1.5,0.95 -2.16,1.18 4.71,32.42 10.09,64.38 15.93,95.95l-51.3 -15.97c-3.01,-21.96 -6.12,-45.01 -9.42,-69.17 -2.17,-0.2 -4.63,-0.69 -7.17,-1.42l-37.63 -10.79c-2.54,20.37 -5.65,41.42 -9.33,63.16l-50.26 -14.4c5.09,-21.34 9.33,-42.07 12.63,-62.22l-9.9 -2.83 0 -391.39 47.53 13.62c2.92,-10.71 5.66,-21.48 8.3,-32.39l-64.69 -18.54 0 -52.15zm55.82 271.26l0 57.14 75.72 21.71c0.38,-9.01 0.57,-18.29 0.57,-27.72 0,-10.39 -0.19,-20.2 -0.57,-29.42l-75.72 -21.71zm72.33 -32.06c-0.28,-4.64 -0.66,-9.09 -1.04,-13.33 -1.13,-29.27 -14.62,-49.35 -40.36,-60.02l-30.93 -8.86 0 61.48 72.33 20.73zm-72.33 139.56l0 60.21 40.36 11.57c20.18,2.92 30.36,-5.4 30.36,-24.8 1.14,-6.78 2.17,-15.38 3.31,-25.77l-74.03 -21.21zm-304.96 -176.88l49.7 14.25c-14.71,105.5 -43.66,185.82 -86.76,241l0 -109.29c16.98,-31.61 29.24,-80.25 37.06,-145.96zm-36.49 -154.52c31.68,22.33 60.73,47.4 87.32,75.27l0 67.1c-29.14,-31.88 -58.28,-58.47 -87.32,-79.62l0 -62.75zm2.17 -129.24c31.31,20.21 59.88,42.81 85.62,68l0 67.11c-28.66,-28.89 -57.24,-53.09 -85.62,-72.36l0 -62.75zm100.05 57.93l66.29 19 0 -44.74 44.79 12.84 0 44.74 56.3 16.13 0 55.87 -56.3 -16.14 0 27.99c21.31,8.97 37.34,27.67 48,55.95 10.75,27.46 16.41,57.92 17.16,91.21 0,43.14 -6.6,74.33 -19.9,93.73 -0.75,1.06 -1.5,1.8 -2.16,2.46 1.41,40.15 6.6,78.32 15.46,114.36l0 92.55c-23.2,-41 -38.76,-103.23 -46.49,-186.55 -4.05,0.43 -8.11,0.75 -12.07,0.89l0 170.14 -44.79 -12.84 0 -167.7 -13.86 -3.97c-8.77,70.42 -29.8,119.2 -62.99,146.57l0 -78.23c14.05,-20.88 22.91,-47.07 26.59,-78.78l-11.03 -3.16 0 -267.03 61.29 17.56 0 -27.98 -66.29 -19 0 -55.87zm66.29 151.83l-21.03 -6.03 0 165.91 21.03 6.02 0 -165.9zm44.79 175.03c5.47,-1.72 10.84,-6.22 15.94,-13.45 5.94,-16.53 8.86,-36.16 8.86,-58.95 0,-22.37 -2.92,-43.88 -8.86,-64.66 -2.93,-9.53 -8.21,-17.09 -15.94,-22.59l0 159.65zm451.23 135.89c-3.38,69.44 -8.98,134.61 -16.89,195.49l-58.88 -9.22c12.45,-104.91 19.4,-203.68 20.95,-296.19 0.38,-35.14 0.58,-79 0.58,-131.58l318.43 49.85c33.5,5.24 58.79,21.28 75.77,47.9 17.28,25.92 25.97,55.37 25.97,88.55 0,31.49 -8.3,55.21 -24.81,71.28 -15.92,18.6 -36.77,27.74 -62.84,27.48l-278.28 -43.56zm3.96 -176.41c0,40.49 -0.58,79.94 -1.64,118.36l255.02 40.56c31.37,-0.5 47.87,-16.57 49.81,-48.18 0,-40.6 -15.45,-64.12 -46.43,-70.55l-256.76 -40.19zm-93.82 -173.7l470.56 73.65 0 60.22 -470.56 -73.66 0 -60.21zm888.86 105.35c48.76,5.86 87.18,30.81 115.37,74.96 25.54,39.15 39.29,92.49 41.15,160.04 0,82.79 -12.58,142.15 -37.74,177.95 -26.63,44.81 -64.95,70.42 -114.78,76.53l-281.72 -2.63 0 -489.44 277.72 2.59zm-218.34 428.36l220.58 2.06c33.16,-3.83 56.76,-22.58 70.9,-56.48 15.99,-34.62 23.99,-79.07 23.99,-133.24 -1.56,-53.87 -10.83,-96.25 -27.99,-127.05 -17.16,-33.24 -42.91,-51.5 -77.13,-54.78l-210.35 -1.97 0 371.46zm629.64 -466.1l52.14 -7.21c-2.23,53.31 -3.39,109.98 -3.39,169.98 0,107.28 0.78,180 2.33,218.37 2.22,54.29 17.51,79.53 45.85,75.61 66.17,-9.15 118.12,-22.48 155.95,-40.22l0 60.95c-29.12,14.74 -80.01,27.18 -152.56,37.21 -59.69,8.25 -93.07,-26.04 -100.32,-102.95 -2.23,-78.78 -3.58,-159.26 -3.97,-241.68 0.77,-54.7 2.13,-111.5 3.97,-170.06zm93.54 -14.21l52.15 -7.21c19.25,117.45 34.63,261.72 45.95,432.85l-53.88 7.45c-9.1,-146.63 -23.8,-290.99 -44.22,-433.09zm115.61 -15.98l55.63 -7.69c31.34,141.43 56.49,315.62 75.36,522.48l-56.69 7.84c-15.48,-176.69 -40.25,-350.94 -74.3,-522.63zm-308.89 42.71l56.11 -7.76 0 136.01c-6.39,224.88 -39.86,365.41 -100.32,421.37l0 -98.16c26.12,-45.07 40.82,-150.99 44.21,-317.89l0 -133.57zm598.94 -102.68l255.88 -73.11c32.06,-6.73 57.81,-3.48 77.33,9.6 18.11,15.07 28.39,37.79 30.94,68.12 5.19,42.83 7.92,96.54 8.3,160.99 0,59.68 -1.98,114.84 -6.04,165.72 -8.49,67.09 -41.5,108.75 -98.94,125.16 -60.07,17.17 -109.21,28.56 -147.5,34.09l0 -57.77c55.92,-11.42 100.35,-21.79 133.17,-31.16 35.75,-10.22 55.74,-33.53 60.17,-69.99 1.13,-12.41 1.89,-26.93 2.27,-43.58l-277.48 79.29c-7.36,63.37 -16.03,120.55 -25.94,171.4l-55.83 15.32c11.41,-57.11 21.03,-123.15 28.76,-198.29 9.25,-86.71 14.15,-169.21 14.91,-247.76l0 -108.03zm44.79 305.23l271.82 -77.67c0,-12.83 0,-26.71 0,-41.66 -0.28,-18.9 -0.84,-37.18 -1.6,-54.77l-263.05 75.16c-1.51,33.5 -3.86,66.51 -7.17,98.94zm9.91 -160.04l256.44 -73.28c-1.5,-16.53 -2.92,-32.24 -4.43,-47.18 -1.51,-31.37 -17.73,-44.97 -48.67,-40.69l-202.21 57.78 0 49.72c-0.38,18.24 -0.76,36.16 -1.13,53.65z"/>
  </g>
 </g>
</svg>
