<?xml version="1.0" encoding="UTF-8"?>
<!DOCTYPE svg PUBLIC "-//W3C//DTD SVG 1.1//EN" "http://www.w3.org/Graphics/SVG/1.1/DTD/svg11.dtd">
<!-- Creator: CorelDRAW 2020 (64-Bit) -->
<svg xmlns="http://www.w3.org/2000/svg" xml:space="preserve" width="2550px" height="2550px" version="1.1" shape-rendering="geometricPrecision" text-rendering="geometricPrecision" image-rendering="optimizeQuality" fill-rule="evenodd" clip-rule="evenodd"
viewBox="0 0 891.16 891.16"
 xmlns:xlink="http://www.w3.org/1999/xlink"
 xmlns:xodm="http://www.corel.com/coreldraw/odm/2003">
 <g id="Layer_x0020_1">
  <metadata id="CorelCorpID_0Corel-Layer"/>
  <g id="_2205487330976">
   <path fill="#8C2898" fill-rule="nonzero" d="M264.63 178.31c-10.56,7.02 -24.83,4.38 -31.84,-6.14 -7.01,-10.56 -4.37,-24.83 6.15,-31.84 4.82,-3.3 10.1,-6.59 15.38,-9.89 6.35,-3.96 11.63,-7.01 15.58,-9.24 11.22,-6.15 25.24,-1.98 31.18,9.24 6.15,11.21 1.98,25.23 -9.24,31.17 -5.93,3.3 -10.55,5.94 -13.85,7.92 -4.37,2.64 -8.99,5.49 -13.4,8.58l0 0.2 0.04 0zm180.95 -178.31c122.97,0 234.56,49.86 315.14,130.44 80.58,80.58 130.44,192.17 130.44,315.14 0,122.97 -49.86,234.56 -130.44,315.14 -80.58,80.58 -192.17,130.44 -315.14,130.44 -122.97,0 -234.56,-49.86 -315.14,-130.44 -80.58,-80.58 -130.44,-192.17 -130.44,-315.14 0,-122.97 49.86,-234.56 130.44,-315.14 80.58,-80.58 192.17,-130.44 315.14,-130.44zm-429.37 471.73c286.4,122.56 572.55,130.02 858.91,0.65 0.66,-8.99 0.87,-17.77 0.87,-26.8 0,-118.81 -48.09,-226.44 -126.07,-304.17 -77.98,-77.99 -185.37,-126.07 -304.17,-126.07 -118.81,0 -226.44,48.08 -304.18,126.07 -77.98,77.98 -126.06,185.36 -126.06,304.17 0,8.78 0.2,17.57 0.86,26.35l-0.2 -0.21 0.04 0.01zm113.53 -92.01c-2.64,12.54 -14.73,20.42 -27.22,17.78 -12.54,-2.64 -20.41,-14.73 -17.78,-27.22 7.47,-35.59 20.01,-69.86 37.33,-101.45 17.36,-31.63 39.3,-60.82 65.23,-86.31 8.99,-8.99 23.72,-8.78 32.5,0.21 8.99,8.99 8.78,23.5 -0.21,32.49 -22.84,22.39 -41.94,47.88 -57.11,75.55 -15.14,27.67 -26.15,57.53 -32.74,88.75l0 0.2 0 0z"/>
   <path fill="#FEFEFE" fill-rule="nonzero" d="M226.36 611.15c-0.59,2.6 -1.14,5.23 -1.63,7.85l-15.3 -2.94c4.66,-16.04 8.77,-34.81 12.34,-56.3l29.4 5.65c8.62,2.45 14.35,7.08 17.24,13.88 5.04,15.3 9.45,32.37 13.2,51.24l-15.74 -3.02c-0.51,-3.15 -0.94,-6.14 -1.34,-9.04l-38.17 -7.32zm35.51 -6.5c-1.4,-6.83 -2.97,-13.48 -4.77,-19.96 -1.19,-3.46 -3.65,-5.68 -7.42,-6.72l-17.37 -3.33c-1.19,8.34 -2.43,16.21 -3.72,23.62l33.28 6.39zm-49.61 16.34l47.22 9.06c4.06,1.19 7.38,3.12 9.97,5.83 3.06,2.81 5.04,6.08 5.93,9.76 0.98,5.53 1.49,14.97 1.49,28.27 0,8.28 -1.6,14.43 -4.76,18.44 -3.27,3.71 -7.96,5.18 -14.12,4.41 -6.82,-1.31 -12.01,-2.51 -15.59,-3.61l0 -13.44c3.78,1.11 8.09,2.14 12.93,3.07 4.66,0.89 7.17,-2.75 7.58,-10.93 0,-9.68 -0.11,-16.9 -0.31,-21.69 -0.68,-3.77 -3.22,-6.27 -7.58,-7.49l-16.93 -3.25 0 57.6 -13.51 -2.59 0 -57.6 -12.32 -2.37 0 -13.47zm-46.63 -27.68l-2.23 6.97 -12.78 -2.45 14.27 -48.69 22.56 4.32c6.74,2.12 11.43,7.46 14.12,16.03l7.43 39.67 -13.08 -2.51 -1.35 -7.79 -6.81 -1.31 0 16.62 20.78 3.99 0 13.01 -20.78 -3.99 0 41.29c7.02,1.14 14.19,2.21 21.51,3.2l0 13.32c-14.34,-1.85 -32.21,-4.56 -53.6,-8.17l0 -13.91c6.33,1.21 12.82,2.36 19.46,3.42l0 -41.57 -21.39 -4.11 0 -13.01 21.39 4.11 0 -16.62 -9.5 -1.82zm26.43 -8.25l-2.07 -12.66c-1.09,-3.82 -3.48,-6.16 -7.13,-6.96l-7.73 -1.49 -5.35 16.84 22.28 4.27zm-36.55 41.22l11.59 2.23c0.91,9.95 1.85,20.56 2.84,31.85l-11.43 -2.2c-0.82,-10.84 -1.8,-21.45 -3,-31.88zm39.82 7.64l11.43 2.2c-0.4,11.4 -1.34,21.47 -2.81,30.14l-11.58 -2.22c1.37,-10.32 2.36,-20.35 2.96,-30.12zm111.14 -41.4l55.04 3.97 0 -18.89 15.24 1.1 0 18.89 55.37 4 0 14.37 -29.89 -2.15c4.04,37.58 14.39,64.08 31.07,79.51l0 20.85c-24.74,-18.2 -40.05,-52.03 -46,-101.44l-10.55 -0.76 0 102.35 -15.24 -1.1 0 -102.35 -10.56 -0.77c-1.59,27.09 -6.43,47.31 -14.46,60.64 -8.86,15.6 -19.31,26.69 -31.38,33.27l0 -19.2c19.41,-16.15 29.7,-41.39 30.91,-75.78l-29.55 -2.14 0 -14.37zm179.55 -10.63l15.86 -1c-3.52,10.91 -7.54,20.74 -12.08,29.49l0 106.46 -14.78 0.93 0 -84.98c-5.44,6.69 -11.33,12.25 -17.67,16.68l0 -18.74c11.77,-9.93 21.33,-26.2 28.67,-48.84zm14.19 16.47l29.75 -1.88c1.11,-5.59 1.85,-11.45 2.24,-17.51l14.96 -0.95c-0.61,6.08 -1.41,11.94 -2.42,17.52l44.67 -2.82 0 15.12 -47.83 3.03c-3.12,11.09 -7.29,21.13 -12.55,30.14l32.02 -2.03c8.45,0.16 14.88,3.08 19.31,8.76 4.82,6.05 7.24,14.26 7.24,24.63 0,10.71 -2.42,19.33 -7.24,25.88 -4.43,7.04 -10.32,10.93 -17.66,11.7l-49.05 3.11 0 -52.03c-5.64,5.7 -11.92,10.69 -18.88,14.97l0 -16.18c14.89,-12.14 25.43,-28.14 31.56,-47.99l-26.12 1.66 0 -15.13zm28.23 56.6l0 42.63 30.19 -1.91c8.86,-2.47 13.57,-10.49 14.19,-24.02 -0.83,-11.75 -6.26,-17.91 -16.31,-18.48l-28.07 1.78zm87.42 -64.36l13.86 -3.03c-0.07,-6.03 -0.17,-12.07 -0.27,-18.08l14.02 -3.07c0.2,6.31 0.35,12.31 0.45,18.05l11.22 -2.46 0 13.76 -10.92 2.39c0.1,11.17 0.18,21.22 0.28,30.18 2.87,-1.74 5.72,-3.57 8.57,-5.51l0 15.74c-2.95,1.86 -5.8,3.7 -8.57,5.49 0,11.3 0,22.63 0,34.04 0,14.61 -4.71,22.94 -14.17,25.01 -5.32,1.16 -9.96,1.99 -13.89,2.44l0.15 -14.1c1.86,0.19 4.81,-0.04 8.87,-0.72 3.43,-0.75 5.17,-4.41 5.17,-10.97 0,-9.26 0.05,-18.56 0.13,-27.85 -5.4,2.99 -10.72,5.68 -15.94,8.03l0 -15.13c5.32,-2.58 10.64,-5.29 15.94,-8.17 0,-0.7 0,-1.42 0,-2.12 -0.18,-11.24 -0.43,-22.33 -0.73,-33.26l-14.17 3.09 0 -13.75zm43.14 -17.15l29.4 -6.42c1.08,-3.46 2.01,-7 2.8,-10.6l14.17 -3.1c-0.79,3.61 -1.62,7.12 -2.5,10.54l36.05 -7.88 0 13.62 -20.39 4.46c6.1,8.94 13.38,13.95 21.86,15.02l0 16.18c-2.95,-0.47 -5.7,-1.18 -8.27,-2.12l0 7.57 -65.89 14.39 0 -7.56c-2.37,1.63 -4.84,3.23 -7.38,4.79l0 -15.12c9.55,-6.12 17.22,-14.5 23.04,-25.14l-22.89 5 0 -13.63zm17.42 35.97l46.7 -10.21c-8.3,-4.74 -14.78,-12.05 -19.52,-21.88l-6.05 1.33c-5.32,12.23 -12.36,22.49 -21.13,30.76zm14.32 36.95l-33.68 7.36 0 -14.07 83.48 -18.24 0 14.06 -35.45 7.75c0.2,5.3 0.28,12.23 0.28,20.82 0,8.65 -0.48,14.4 -1.47,17.25 -1.28,4.41 -6.05,7.52 -14.34,9.33 -4.82,1.05 -8.7,1.69 -11.65,1.95l0 -13.01c2.34,-0.12 5.02,-0.5 7.97,-1.14 3.15,-0.69 4.74,-1.99 4.74,-3.9 0.37,-1.61 0.58,-5.37 0.58,-11.33 0,-5.83 -0.16,-11.45 -0.46,-16.83zm-23.32 10.07l11.8 -2.57c-0.48,17.65 -8.6,31.27 -24.36,40.86l0 -15.28c8.37,-6.06 12.56,-13.71 12.56,-23.01zm48.01 -10.18l13.01 -2.84c0.37,7.58 4.08,13.07 11.06,16.47l0 16.49c-13.11,-4.07 -21.12,-14.11 -24.07,-30.12z"/>
  </g>
 </g>
</svg>
