<?xml version="1.0" encoding="UTF-8"?>
<!DOCTYPE svg PUBLIC "-//W3C//DTD SVG 1.1//EN" "http://www.w3.org/Graphics/SVG/1.1/DTD/svg11.dtd">
<!-- Creator: CorelDRAW 2021.5 -->
<svg xmlns="http://www.w3.org/2000/svg" xml:space="preserve" width="100%" height="100%" version="1.1" style="shape-rendering:geometricPrecision; text-rendering:geometricPrecision; image-rendering:optimizeQuality; fill-rule:evenodd; clip-rule:evenodd"
viewBox="0 0 114.64 114.64"
 xmlns:xlink="http://www.w3.org/1999/xlink"
 xmlns:xodm="http://www.corel.com/coreldraw/odm/2003">
 <defs>
  <style type="text/css">
   <![CDATA[
    .fil0 {fill:none;fill-rule:nonzero}
    .fil1 {fill:#8C2898;fill-rule:nonzero}
    .fil2 {fill:white;fill-rule:nonzero}
   ]]>
  </style>
   <clipPath id="id0" style="clip-rule:nonzero">
    <path d="M2.06 60.68c36.84,15.76 73.65,16.72 110.49,0.08 0.08,-1.16 0.11,-2.29 0.11,-3.45 0,-15.28 -6.19,-29.13 -16.22,-39.13 -10.03,-10.03 -23.84,-16.22 -39.13,-16.22 -15.28,0 -29.13,6.19 -39.13,16.22 -10.03,10.03 -16.22,23.84 -16.22,39.13 0,1.13 0.03,2.26 0.11,3.39l-0.03 -0.03z"/>
   </clipPath>
    <clipPath id="id1">
     <path d="M14.49 65.43c27.69,9.32 55.37,10.1 83.06,1.14l0 -47.25c-0.36,-0.38 -0.73,-0.76 -1.1,-1.13 -10.03,-10.03 -23.84,-16.22 -39.13,-16.22 -15.28,0 -29.13,6.19 -39.13,16.22 -1.3,1.3 -2.54,2.67 -3.7,4.09l0 43.15z"/>
    </clipPath>
    <clipPath id="id2">
     <path d="M2.06 60.68c36.84,15.76 73.65,16.72 110.49,0.08 0.08,-1.16 0.11,-2.29 0.11,-3.45 0,-15.28 -6.19,-29.13 -16.22,-39.13 -10.03,-10.03 -23.84,-16.22 -39.13,-16.22 -15.28,0 -29.13,6.19 -39.13,16.22 -10.03,10.03 -16.22,23.84 -16.22,39.13 0,1.13 0.03,2.26 0.11,3.39l-0.03 -0.03z"/>
    </clipPath>
 </defs>
 <g id="Layer_x0020_1">
  <metadata id="CorelCorpID_0Corel-Layer"/>
  <g>
  </g>
  <g style="clip-path:url(#id0)">
   <g id="_1823140213088">
   </g>
   <g style="clip-path:url(#id1)">
   </g>
   <g style="clip-path:url(#id2)">
   </g>
  </g>
  <path class="fil0" d="M2.06 60.68c36.84,15.76 73.65,16.72 110.49,0.08 0.08,-1.16 0.11,-2.29 0.11,-3.45 0,-15.28 -6.19,-29.13 -16.22,-39.13 -10.03,-10.03 -23.84,-16.22 -39.13,-16.22 -15.28,0 -29.13,6.19 -39.13,16.22 -10.03,10.03 -16.22,23.84 -16.22,39.13 0,1.13 0.03,2.26 0.11,3.39l-0.03 -0.03z"/>
  <path class="fil1" d="M34.04 22.94c-1.36,0.9 -3.19,0.56 -4.1,-0.79 -0.9,-1.36 -0.56,-3.19 0.79,-4.1 0.62,-0.42 1.3,-0.85 1.98,-1.27 0.82,-0.51 1.5,-0.9 2.01,-1.19 1.44,-0.79 3.25,-0.25 4.01,1.19 0.79,1.44 0.25,3.25 -1.19,4.01 -0.76,0.42 -1.36,0.76 -1.78,1.02 -0.56,0.34 -1.16,0.71 -1.72,1.1l0 0.03zm23.28 -22.94c15.82,0 30.17,6.41 40.54,16.78 10.37,10.37 16.78,24.72 16.78,40.54 0,15.82 -6.41,30.17 -16.78,40.54 -10.37,10.37 -24.72,16.78 -40.54,16.78 -15.82,0 -30.17,-6.41 -40.54,-16.78 -10.37,-10.37 -16.78,-24.72 -16.78,-40.54 0,-15.82 6.41,-30.17 16.78,-40.54 10.37,-10.37 24.72,-16.78 40.54,-16.78zm-55.23 60.68c36.84,15.76 73.65,16.72 110.49,0.08 0.08,-1.16 0.11,-2.29 0.11,-3.45 0,-15.28 -6.19,-29.13 -16.22,-39.13 -10.03,-10.03 -23.84,-16.22 -39.13,-16.22 -15.28,0 -29.13,6.19 -39.13,16.22 -10.03,10.03 -16.22,23.84 -16.22,39.13 0,1.13 0.03,2.26 0.11,3.39l-0.03 -0.03zm14.61 -11.84c-0.34,1.61 -1.89,2.63 -3.5,2.29 -1.61,-0.34 -2.63,-1.89 -2.29,-3.5 0.96,-4.58 2.57,-8.98 4.8,-13.05 2.23,-4.07 5.06,-7.83 8.39,-11.1 1.16,-1.16 3.05,-1.13 4.18,0.03 1.16,1.16 1.13,3.02 -0.03,4.18 -2.94,2.88 -5.4,6.16 -7.35,9.72 -1.95,3.56 -3.36,7.4 -4.21,11.41l0 0.03z"/>
  <path class="fil2" d="M29.99 84.15c1.45,0.41 2.17,1.28 2.17,2.61 0,1.09 -0.37,1.72 -1.1,1.88l1.12 0.26c0.7,0.16 1.06,-0.15 1.06,-0.94l0 -2.35c0,-0.49 -0.21,-0.93 -0.63,-1.31 -0.34,-0.35 -0.75,-0.6 -1.23,-0.74l-9.59 -2.2 0 7.25 -1.93 -0.44 0 -8.91 11.97 2.75c0.99,0.31 1.79,0.82 2.41,1.54 0.59,0.74 0.88,1.47 0.88,2.2l0 2.51c-0.06,1.88 -0.77,2.75 -2.12,2.6l-2.75 -0.61 0 -1.58 -7.26 -1.66 0 -4.44 6.99 1.6zm-5.14 1.82l5.04 1.16c0.41,0.04 0.62,-0.18 0.62,-0.65 0,-0.5 -0.24,-0.82 -0.73,-0.98l-4.93 -1.11 0 1.58zm1.46 -14.08l1.98 0.46 0 1.21 6.95 1.59 0 1.78 -16.07 -3.69 0 -1.78 7.14 1.64 0 -1.21zm5.12 4.97c1.66,0.45 2.48,1.32 2.48,2.63 0,1.38 -0.7,1.97 -2.1,1.77l-10.85 -2.49 0 -4.31 10.47 2.4zm-8.58 0.86l8.49 1.95c0.47,0.07 0.71,-0.1 0.71,-0.51 0,-0.41 -0.28,-0.69 -0.85,-0.85l-8.35 -1.9 0 1.3zm23.26 -2.38l2.03 0.18 0 15.34 3.8 0.34c0.59,0.04 0.89,-0.3 0.9,-1.02l0 -12.58 2.01 0.18 0 13.07c-0.01,1.58 -0.74,2.37 -2.18,2.37l-10.64 -0.95c-1.5,-0.37 -2.35,-1.38 -2.56,-3.01l0 -12.88 1.93 0.17 -0.02 12.48c0.13,0.76 0.49,1.2 1.06,1.32l3.68 0.33 0 -15.34zm12.84 8.82l16.74 -1.42 0 2 -16.74 1.42 0 -2zm21.37 -4.01l-0.97 0.2 -0.02 -4.97 7 -1.43 0 -1.3 1.99 -0.41 0 1.3 4.7 -0.97c1.62,-0.15 2.44,0.37 2.46,1.56 -0.04,1.27 -0.17,2.25 -0.39,2.93l-0.68 0.14 0 0.77 -6.17 1.28 0 1.16 5.94 -1.23 0 1.74 -5.94 1.23 0 0.67c0,0.17 -0.01,0.35 -0.04,0.52l7.1 -1.47 0 1.76 -6.28 1.3c1.43,1.56 3.52,2.18 6.28,1.87l0 1.95c-3.61,0.46 -6.26,-0.5 -7.97,-2.89 -0.43,0.76 -0.97,1.47 -1.64,2.14 -1.48,1.53 -3.57,2.86 -6.27,3.99l0 -2.02c2.13,-0.94 3.77,-1.97 4.91,-3.09 0.41,-0.4 0.77,-0.8 1.06,-1.21l-6.07 1.26 0 -1.76 6.94 -1.44c0.04,-0.18 0.06,-0.36 0.08,-0.53l0 -0.67 -5.69 1.18 0 -1.74 5.69 -1.18 -0.02 -1.16 -6.01 1.25 0 -0.73zm13.03 -3.77c0.14,-0.69 0.21,-1.16 0.21,-1.43 0,-0.49 -0.36,-0.66 -1.07,-0.51l-11.25 2.33 0 2.11 5.09 -1.05 0 -1.42 1.91 -0.4 0 1.42 5.11 -1.06z"/>
 </g>
</svg>
