<?xml version="1.0" encoding="UTF-8"?>
<!DOCTYPE svg PUBLIC "-//W3C//DTD SVG 1.1//EN" "http://www.w3.org/Graphics/SVG/1.1/DTD/svg11.dtd">
<!-- Creator: CorelDRAW 2021.5 -->
<svg xmlns="http://www.w3.org/2000/svg" xml:space="preserve" width="100%" height="100%" version="1.1" style="shape-rendering:geometricPrecision; text-rendering:geometricPrecision; image-rendering:optimizeQuality; fill-rule:evenodd; clip-rule:evenodd"
viewBox="0 0 247.13 247.13"
 xmlns:xlink="http://www.w3.org/1999/xlink"
 xmlns:xodm="http://www.corel.com/coreldraw/odm/2003">
 <defs>
  <style type="text/css">
   <![CDATA[
    .fil0 {fill:none;fill-rule:nonzero}
    .fil1 {fill:#8C2898;fill-rule:nonzero}
    .fil2 {fill:white;fill-rule:nonzero}
   ]]>
  </style>
   <clipPath id="id0" style="clip-rule:nonzero">
    <path d="M4.51 130.81c79.41,33.98 158.77,36.05 238.18,0.18 0.18,-2.5 0.24,-4.93 0.24,-7.43 0,-32.95 -13.34,-62.79 -34.96,-84.35 -21.62,-21.62 -51.4,-34.96 -84.35,-34.96 -32.95,0 -62.79,13.34 -84.35,34.96 -21.62,21.62 -34.96,51.4 -34.96,84.35 0,2.44 0.06,4.87 0.24,7.31l-0.06 -0.06z"/>
   </clipPath>
    <clipPath id="id1">
     <path d="M31.3 141.05c59.69,20.09 119.36,21.77 179.05,2.46l0 -101.85c-0.78,-0.83 -1.57,-1.64 -2.38,-2.44 -21.62,-21.62 -51.4,-34.96 -84.35,-34.96 -32.95,0 -62.79,13.34 -84.35,34.96 -2.8,2.8 -5.47,5.75 -7.98,8.82l0 93.02z"/>
    </clipPath>
    <clipPath id="id2">
     <path d="M4.51 130.81c79.41,33.98 158.77,36.05 238.18,0.18 0.18,-2.5 0.24,-4.93 0.24,-7.43 0,-32.95 -13.34,-62.79 -34.96,-84.35 -21.62,-21.62 -51.4,-34.96 -84.35,-34.96 -32.95,0 -62.79,13.34 -84.35,34.96 -21.62,21.62 -34.96,51.4 -34.96,84.35 0,2.44 0.06,4.87 0.24,7.31l-0.06 -0.06z"/>
    </clipPath>
 </defs>
 <g id="Layer_x0020_1">
  <metadata id="CorelCorpID_0Corel-Layer"/>
  <g>
  </g>
  <g style="clip-path:url(#id0)">
   <g id="_1823105917152">
   </g>
   <g style="clip-path:url(#id1)">
   </g>
   <g style="clip-path:url(#id2)">
   </g>
  </g>
  <path class="fil0" d="M4.51 130.81c79.41,33.98 158.77,36.05 238.18,0.18 0.18,-2.5 0.24,-4.93 0.24,-7.43 0,-32.95 -13.34,-62.79 -34.96,-84.35 -21.62,-21.62 -51.4,-34.96 -84.35,-34.96 -32.95,0 -62.79,13.34 -84.35,34.96 -21.62,21.62 -34.96,51.4 -34.96,84.35 0,2.44 0.06,4.87 0.24,7.31l-0.06 -0.06z"/>
  <path class="fil1" d="M73.38 49.45c-2.92,1.95 -6.88,1.22 -8.83,-1.71 -1.95,-2.92 -1.22,-6.88 1.71,-8.83 1.34,-0.91 2.8,-1.83 4.26,-2.74 1.77,-1.1 3.23,-1.95 4.32,-2.56 3.11,-1.71 7,-0.55 8.65,2.56 1.71,3.11 0.55,7 -2.56,8.65 -1.64,0.91 -2.92,1.64 -3.84,2.19 -1.22,0.73 -2.5,1.52 -3.72,2.37l0 0.06zm50.18 -49.45c34.1,0 65.04,13.82 87.39,36.17 22.35,22.35 36.17,53.29 36.17,87.39 0,34.1 -13.82,65.04 -36.17,87.39 -22.35,22.35 -53.29,36.17 -87.39,36.17 -34.1,0 -65.04,-13.82 -87.39,-36.17 -22.35,-22.35 -36.17,-53.29 -36.17,-87.39 0,-34.1 13.82,-65.04 36.17,-87.39 22.35,-22.35 53.29,-36.17 87.39,-36.17zm-119.06 130.81c79.41,33.98 158.77,36.05 238.18,0.18 0.18,-2.5 0.24,-4.93 0.24,-7.43 0,-32.95 -13.34,-62.79 -34.96,-84.35 -21.62,-21.62 -51.4,-34.96 -84.35,-34.96 -32.95,0 -62.79,13.34 -84.35,34.96 -21.62,21.62 -34.96,51.4 -34.96,84.35 0,2.44 0.06,4.87 0.24,7.31l-0.06 -0.06zm31.49 -25.52c-0.73,3.47 -4.08,5.66 -7.55,4.93 -3.47,-0.73 -5.66,-4.08 -4.93,-7.55 2.07,-9.87 5.54,-19.37 10.35,-28.14 4.81,-8.77 10.9,-16.87 18.09,-23.93 2.5,-2.5 6.58,-2.44 9.01,0.06 2.5,2.5 2.44,6.52 -0.06,9.01 -6.33,6.21 -11.63,13.28 -15.83,20.95 -4.2,7.67 -7.25,15.96 -9.07,24.6l0 0.06z"/>
  <path class="fil2" d="M45.83 174.55l0 11.49 9.89 2.18 0 -11.49 -9.89 -2.18zm14.13 14.61l4.74 1.05c2.3,0.22 3.92,-0.8 4.87,-3.05 0.92,-1.79 1.45,-4.13 1.62,-7.01l-11.22 -2.48 0 11.49zm11.18 -13.07c-0.22,-3.14 -0.84,-5.74 -1.87,-7.81 -1.19,-2.68 -2.98,-4.39 -5.36,-5.14l-3.95 -0.87 0 11.36 11.18 2.47zm-15.42 -14.77l-9.89 -2.18 0 11.36 9.89 2.18 0 -11.36zm8.78 -2.11c3.38,1.17 6.05,3.51 8.02,7.01 1.82,3.24 2.81,7.29 2.95,12.14 0,5.99 -0.9,10.07 -2.7,12.26 -1.8,2.81 -4.45,4.08 -7.94,3.82l-23.16 -5.11 0 -35.16 22.82 5.04zm18.64 5.44l6.23 0.56 0 -3.62 4.03 0.36 0 3.62 6.23 0.56 0 4.21 -1.31 -0.12c0.06,10.9 0.46,20.73 1.23,29.48l-3.44 -0.26c-0.73,-5.89 -1.14,-15.73 -1.23,-29.53l-1.48 -0.13 0 30.73 -4.03 -0.36 0 -30.73 -1.4 -0.12c-0.14,10.12 -0.45,19.87 -0.93,29.25l-3.73 -0.33c0.79,-9.16 1.2,-18.89 1.22,-29.22l-1.4 -0.12 0 -4.21zm17.85 1.64l10.77 0.96c-0.06,-1.2 -0.12,-2.37 -0.21,-3.51l4.28 0.38c0.08,1 0.15,2.17 0.21,3.51l3.44 0.31 0 4.13 -3.31 -0.3c0.08,3.58 0.12,7.97 0.12,13.16 0,6.28 -0.24,10.38 -0.72,12.33 -0.7,2.92 -3.13,4.19 -7.29,3.82 -2.43,-0.22 -4.39,-0.57 -5.85,-1.03l0 -4c1.69,0.49 3.65,0.84 5.85,1.03 2.32,0.21 3.47,-0.52 3.47,-2.2 0.25,-1.28 0.38,-4.51 0.38,-9.67 0,-4.79 -0.07,-9.4 -0.21,-13.81l-10.94 -0.98 0 -4.13zm0.38 6.67l3.94 0.35c1.1,5.77 1.98,12.75 2.63,20.92l-4.12 -0.37c-0.48,-7 -1.29,-13.96 -2.45,-20.9zm32.81 7.73l0 1.58 22.83 -2.24c0.03,-0.34 0.06,-0.69 0.09,-1.03 -0.03,-0.2 -0.04,-0.38 -0.04,-0.56l-22.88 2.25zm21.78 -5.46c-0.56,-0.77 -1.39,-1.19 -2.46,-1.29l-19.32 1.9 0 1.53 21.78 -2.14zm-21.78 10.35l0 1.53 18.52 -1.86c1.38,-0.19 2.43,-0.79 3.13,-1.8l-21.65 2.12zm-6.73 -18.62l15.12 -1.48 0 -2.72 4.28 -0.42 0 2.72 15.55 -1.53 0 3.92 -15.55 1.53 0 2 6.91 -0.68c2.37,0.02 4.21,0.82 5.51,2.4 1.35,1.25 2.05,3.21 2.08,5.88 0,2.95 -0.62,5.25 -1.87,6.9 -1.5,2.05 -3.3,3.24 -5.42,3.55l-24.15 2.37 0 -18.77 12.67 -1.24 0 -2 -15.12 1.48 0 -3.92zm-0.81 26.13l36.31 -3.56 0 4 -5.6 0.55c0.62,1.76 1.34,3.47 2.16,5.15l-5 0.45c-0.56,-1.62 -1.15,-3.34 -1.74,-5.15l-16.05 1.58c-0.68,2.02 -1.42,3.88 -2.21,5.58l-4.83 0.47c0.87,-1.9 1.61,-3.76 2.21,-5.58l-5.26 0.52 0 -4zm50.67 -35.03l4.37 -0.94c-0.97,3.22 -2.08,6.15 -3.33,8.81l0 29.97 -4.08 0.88 0 -23.92c-1.5,2.11 -3.12,3.92 -4.87,5.43l0 -5.27c3.25,-3.29 5.88,-8.27 7.9,-14.94zm3.91 4.05l8.2 -1.77c0.31,-1.62 0.51,-3.3 0.62,-5.02l4.13 -0.89c-0.17,1.74 -0.39,3.42 -0.67,5.03l12.31 -2.66 0 4.26 -13.19 2.85c-0.86,3.25 -2.01,6.25 -3.46,9.01l8.83 -1.9c2.33,-0.31 4.1,0.25 5.33,1.66 1.33,1.5 2,3.71 2,6.63 0,3.02 -0.67,5.54 -2,7.59 -1.22,2.17 -2.85,3.51 -4.87,4.03l-13.52 2.92 0 -14.65c-1.56,1.84 -3.29,3.51 -5.21,5l0 -4.56c4.1,-4.04 7.01,-8.98 8.7,-14.82l-7.2 1.55 0 -4.26zm7.78 14.75l0 12 8.32 -1.8c2.44,-1.06 3.74,-3.52 3.91,-7.35 -0.23,-3.27 -1.72,-4.78 -4.49,-4.52l-7.74 1.67z"/>
 </g>
</svg>
