<?xml version="1.0" encoding="UTF-8"?>
<!DOCTYPE svg PUBLIC "-//W3C//DTD SVG 1.1//EN" "http://www.w3.org/Graphics/SVG/1.1/DTD/svg11.dtd">
<!-- Creator: CorelDRAW 2021.5 -->
<svg xmlns="http://www.w3.org/2000/svg" xml:space="preserve" width="100%" height="100%" version="1.1" style="shape-rendering:geometricPrecision; text-rendering:geometricPrecision; image-rendering:optimizeQuality; fill-rule:evenodd; clip-rule:evenodd"
viewBox="0 0 157.01 157.01"
 xmlns:xlink="http://www.w3.org/1999/xlink"
 xmlns:xodm="http://www.corel.com/coreldraw/odm/2003">
 <defs>
  <style type="text/css">
   <![CDATA[
    .fil0 {fill:none;fill-rule:nonzero}
    .fil1 {fill:#8C2898;fill-rule:nonzero}
    .fil2 {fill:white;fill-rule:nonzero}
   ]]>
  </style>
   <clipPath id="id0" style="clip-rule:nonzero">
    <path d="M2.86 83.11c50.45,21.59 100.87,22.91 151.32,0.12 0.12,-1.59 0.15,-3.13 0.15,-4.72 0,-20.93 -8.47,-39.89 -22.21,-53.59 -13.74,-13.74 -32.66,-22.21 -53.59,-22.21 -20.93,0 -39.89,8.47 -53.59,22.21 -13.74,13.74 -22.21,32.66 -22.21,53.59 0,1.55 0.04,3.1 0.15,4.64l-0.04 -0.04z"/>
   </clipPath>
    <clipPath id="id1">
     <path d="M19.88 89.62c37.93,12.77 75.83,13.83 113.76,1.56l0 -64.71c-0.5,-0.52 -1,-1.04 -1.51,-1.55 -13.74,-13.74 -32.66,-22.21 -53.59,-22.21 -20.93,0 -39.89,8.47 -53.59,22.21 -1.78,1.78 -3.47,3.65 -5.07,5.6l0 59.1z"/>
    </clipPath>
    <clipPath id="id2">
     <path d="M2.86 83.11c50.45,21.59 100.87,22.91 151.32,0.12 0.12,-1.59 0.15,-3.13 0.15,-4.72 0,-20.93 -8.47,-39.89 -22.21,-53.59 -13.74,-13.74 -32.66,-22.21 -53.59,-22.21 -20.93,0 -39.89,8.47 -53.59,22.21 -13.74,13.74 -22.21,32.66 -22.21,53.59 0,1.55 0.04,3.1 0.15,4.64l-0.04 -0.04z"/>
    </clipPath>
 </defs>
 <g id="Layer_x0020_1">
  <metadata id="CorelCorpID_0Corel-Layer"/>
  <g>
  </g>
  <g style="clip-path:url(#id0)">
   <g id="_1823096663408">
   </g>
   <g style="clip-path:url(#id1)">
   </g>
   <g style="clip-path:url(#id2)">
   </g>
  </g>
  <path class="fil0" d="M2.86 83.11c50.45,21.59 100.87,22.91 151.32,0.12 0.12,-1.59 0.15,-3.13 0.15,-4.72 0,-20.93 -8.47,-39.89 -22.21,-53.59 -13.74,-13.74 -32.66,-22.21 -53.59,-22.21 -20.93,0 -39.89,8.47 -53.59,22.21 -13.74,13.74 -22.21,32.66 -22.21,53.59 0,1.55 0.04,3.1 0.15,4.64l-0.04 -0.04z"/>
  <path class="fil1" d="M46.62 31.42c-1.86,1.24 -4.37,0.77 -5.61,-1.08 -1.24,-1.86 -0.77,-4.37 1.08,-5.61 0.85,-0.58 1.78,-1.16 2.71,-1.74 1.12,-0.7 2.05,-1.24 2.75,-1.63 1.97,-1.08 4.45,-0.35 5.49,1.63 1.08,1.97 0.35,4.45 -1.63,5.49 -1.04,0.58 -1.86,1.04 -2.44,1.39 -0.77,0.46 -1.59,0.97 -2.36,1.51l0 0.04zm31.88 -31.42c21.67,0 41.32,8.78 55.52,22.98 14.2,14.2 22.98,33.86 22.98,55.52 0,21.67 -8.78,41.32 -22.98,55.52 -14.2,14.2 -33.86,22.98 -55.52,22.98 -21.67,0 -41.32,-8.78 -55.52,-22.98 -14.2,-14.2 -22.98,-33.86 -22.98,-55.52 0,-21.67 8.78,-41.32 22.98,-55.52 14.2,-14.2 33.86,-22.98 55.52,-22.98zm-75.64 83.11c50.45,21.59 100.87,22.91 151.32,0.12 0.12,-1.59 0.15,-3.13 0.15,-4.72 0,-20.93 -8.47,-39.89 -22.21,-53.59 -13.74,-13.74 -32.66,-22.21 -53.59,-22.21 -20.93,0 -39.89,8.47 -53.59,22.21 -13.74,13.74 -22.21,32.66 -22.21,53.59 0,1.55 0.04,3.1 0.15,4.64l-0.04 -0.04zm20 -16.21c-0.46,2.21 -2.59,3.6 -4.8,3.13 -2.21,-0.46 -3.6,-2.59 -3.13,-4.8 1.32,-6.27 3.52,-12.3 6.58,-17.88 3.06,-5.57 6.93,-10.72 11.49,-15.21 1.59,-1.59 4.18,-1.55 5.73,0.04 1.59,1.59 1.55,4.14 -0.04,5.73 -4.02,3.95 -7.39,8.43 -10.06,13.31 -2.67,4.88 -4.6,10.14 -5.77,15.63l0 0.04z"/>
  <path class="fil2" d="M17.82 95.54c1.91,1.06 3.65,2.25 5.23,3.58l0 3.14c-1.74,-1.53 -3.48,-2.78 -5.23,-3.77l0 -2.95zm-0.08 6.06c1.93,1.18 3.69,2.53 5.28,4.05l0 3.11c-1.75,-1.74 -3.52,-3.17 -5.28,-4.27l0 -2.89zm2.7 7.83l2.44 0.6c-0.89,3.84 -2.67,6.69 -5.33,8.54l0 -3.78c1.31,-1.11 2.28,-2.89 2.89,-5.35zm5.97 -8.47c0,0.76 0,1.5 0,2.24l2.34 0.57 0 -2.24 -2.34 -0.57zm4.57 1.12l0 2.24 4.52 1.1 0 -2.24 -4.52 -1.1zm6.91 1.69l0 2.24 2.1 0.51 0 2.27 -2.1 -0.51 0 2.03c-0.12,1.36 -0.91,1.86 -2.36,1.5l-4.94 -1.21c-1,-0.46 -1.61,-1.26 -1.84,-2.4l0 -2.16 -2.39 -0.58c-0.14,5.21 -0.44,10.08 -0.89,14.6l-2.52 -0.59c0.67,-4.91 1,-10.14 1,-15.71 0.05,-1.65 0.08,-3.55 0.08,-5.71l7.3 1.79 0 -1.87 2.63 0.64 0 1.9 5.99 1.46 0 2.33 -2.05 -0.53zm-6.91 2.83l0 1.35c0,0.38 0.1,0.63 0.29,0.75l3.83 0.94c0.26,0.06 0.39,-0.07 0.39,-0.39l0 -1.54 -4.52 -1.1zm-3.55 4.14l9.88 2.41c1,0.42 1.5,1.14 1.5,2.15 0,1.14 -0.48,2.16 -1.44,3.08 -0.46,0.52 -1.02,0.96 -1.68,1.32 1.28,0.76 2.73,1.42 4.36,1.98l0 2.41c-2.58,-0.83 -4.8,-1.94 -6.68,-3.33 -1.89,0.58 -4.13,0.6 -6.73,0.06l0 -2.46c1.49,0.36 2.95,0.46 4.39,0.29 -1.28,-1.4 -2.3,-2.97 -3.08,-4.73l2.65 0.65c0.67,1.28 1.58,2.43 2.73,3.43 1.35,-0.57 2.25,-1.46 2.71,-2.67 0,-0.18 -0.08,-0.29 -0.24,-0.33l-8.35 -2.04 -0.03 -2.23zm17.08 -0.5l2.97 0.39c1.79,0.6 2.8,1.83 3.03,3.7l0 5.25c0,1.19 0.54,2.02 1.61,2.48 1.41,0.89 3.92,1.63 7.53,2.21 3.63,0.48 6.28,0.75 7.97,0.83l0.02 2.52c-0.86,0.07 -3.74,-0.23 -8.66,-0.87 -5.09,-0.78 -8.45,-2.17 -10.05,-4.19 -0.74,1.22 -2.19,2.01 -4.37,2.37l0 -2.6c2,-0.64 3.14,-1.72 3.43,-3.25l0 -4.65c0,-0.6 -0.35,-1.07 -1.05,-1.41l-2.41 -0.32 -0.03 -2.47zm7.48 -7.48l9.87 1.33c1.45,0.25 2.58,0.89 3.4,1.94 0.79,0.99 1.25,2.27 1.4,3.86 0.05,1.32 0.08,2.83 0.08,4.5 -0.07,2.77 -0.23,4.63 -0.48,5.59 -0.49,1.9 -1.8,2.78 -3.94,2.64 -1.88,-0.25 -3.46,-0.55 -4.75,-0.92l0 -2.68c1.2,0.48 2.71,0.84 4.53,1.08 0.93,0.09 1.48,-0.42 1.66,-1.51 0.21,-0.77 0.32,-2.22 0.32,-4.37 0,-1.86 -0.07,-3.52 -0.22,-4.98 0,-1.59 -0.85,-2.49 -2.54,-2.72l-2.84 -0.37 0 1.95c0,4.09 -0.62,6.94 -1.85,8.54 -1.43,2.19 -2.96,3.62 -4.59,4.29l-0.03 -3.28c1.09,-0.74 2.01,-1.91 2.76,-3.5 0.81,-1.44 1.21,-3.56 1.21,-6.33l0.02 -2 -4.02 -0.53 0 -2.54zm-6.89 -0.2c2.16,0.84 3.82,1.93 4.96,3.28l0 3.22c-1.09,-1.37 -2.75,-2.66 -4.96,-3.87l0 -2.62zm48.4 14.42l0 3.06c-1.1,-0.5 -2.22,-0.94 -3.38,-1.33 -1.35,4.02 -4.01,6.74 -7.97,8.17l0 -2.98c2.63,-1.17 4.43,-3.16 5.41,-5.98 -1.8,-0.5 -3.48,-0.82 -5.03,-0.96 -1.04,2.6 -2.25,4.72 -3.62,6.34 -1.62,1.94 -3.24,2.94 -4.87,3.01 -1.26,0.05 -2.19,-0.43 -2.78,-1.46 -0.51,-0.79 -0.76,-1.86 -0.76,-3.21 0,-2.33 0.98,-4.18 2.95,-5.58 1.71,-1.2 3.77,-1.86 6.19,-1.95 0.33,-0.01 0.68,-0.02 1.06,-0.02 0.76,-2.21 1.13,-3.87 1.13,-4.97 0,-0.5 -0.5,-0.74 -1.51,-0.7l-6.46 0.26 0 -2.76 5.95 -0.24c1.52,-0.06 2.6,0.04 3.25,0.3 1.04,0.43 1.56,1.31 1.56,2.64 0,1.5 -0.37,3.39 -1.11,5.7 1.51,0.17 3.09,0.46 4.73,0.86 0.23,-1.44 0.35,-3.21 0.35,-5.34l2.75 -0.11c0,2.4 -0.16,4.48 -0.48,6.24 0.88,0.33 1.77,0.66 2.65,1.01zm-13.89 -0.12c-1.71,0.11 -3.14,0.49 -4.29,1.15 -1.39,0.85 -2.08,2.02 -2.08,3.52 0,1.35 0.35,2.02 1.05,1.99 0.79,-0.03 1.71,-0.73 2.76,-2.09 0.9,-1.19 1.76,-2.71 2.56,-4.57zm33.25 -4.59c0,7.59 -4.09,12.04 -12.29,13.34l-1.58 0.25 0 -2.76 1.58 -0.25c3.53,-0.56 6,-1.66 7.43,-3.32 1.37,-1.55 2.06,-3.82 2.06,-6.82 0,-2.69 -0.36,-4.64 -1.09,-5.86 -0.67,-1.17 -1.61,-1.66 -2.8,-1.48 -2.08,0.33 -3.94,1.89 -5.56,4.67 -1.64,2.89 -2.52,6.24 -2.64,10.05l-2.7 0.43c0,-6.71 0.13,-12.02 0.4,-15.94l2.73 -0.43c-0.13,1.46 -0.21,3.19 -0.27,5.18 2.17,-3.95 4.85,-6.18 8.04,-6.68 2.33,-0.37 4.07,0.44 5.21,2.44 1,1.74 1.5,4.13 1.5,7.18zm6.29 -9.5l2.5 -0.6c0.26,0.44 0.49,0.94 0.68,1.48l3.92 -0.93c-0.14,-0.56 -0.34,-1.08 -0.61,-1.56l2.58 -0.61c0.25,0.46 0.44,0.98 0.58,1.57l3.42 -0.82c0.31,-0.71 0.61,-1.4 0.87,-2.07l2.71 -0.65c-0.25,0.74 -0.52,1.43 -0.82,2.06l0.08 -0.02c2.14,-0.27 3.21,0.34 3.21,1.86 -0.05,1.51 -0.22,2.67 -0.5,3.48l-2.55 0.61c0.51,0.91 0.92,1.8 1.23,2.68l-2.55 0.61c-0.56,-1.55 -1.54,-3.26 -2.95,-5.17l2.55 -0.61c0.65,0.82 1.21,1.64 1.68,2.46 0.37,-1.51 0.55,-2.48 0.55,-2.89 0,-0.61 -0.45,-0.82 -1.36,-0.6l-15.21 3.63 0 3.52 -2.45 0.58 -0.05 -5.8 3.11 -0.71c-0.16,-0.54 -0.37,-1.04 -0.63,-1.5zm4.05 3.74l2.29 -0.55c-0.05,0.9 -0.08,1.71 -0.08,2.43 0,0.9 0.4,1.26 1.21,1.06 3.68,-0.88 5.62,-1.41 5.81,-1.58l0 2.33c-0.46,0.2 -2.73,0.79 -6.84,1.77 -0.09,0 -0.18,0 -0.26,0.01 -0.19,0.39 -0.4,0.77 -0.63,1.13l8.92 -2.13c1.09,-0.15 1.63,0.31 1.63,1.37 0,1.17 -1.23,2.74 -3.68,4.72 1.03,-0.03 2.16,-0.14 3.37,-0.32 1.19,-0.23 2.45,-0.5 3.79,-0.82l0 2.57c-4.79,1.09 -8.37,1.45 -10.76,1.07 -3.07,1.78 -6.97,3.25 -11.71,4.42l0 -2.46c3.4,-0.81 6.27,-1.76 8.6,-2.84 -1.26,-0.55 -2.28,-1.31 -3.05,-2.28 -1.33,1.17 -2.91,2.2 -4.74,3.11l0 -2.57c3.44,-1.94 5.55,-3.93 6.34,-5.98 -0.19,-0.42 -0.29,-0.98 -0.29,-1.66 0,-1.03 0.03,-1.96 0.08,-2.81zm3.34 -0.74l2.58 -0.62c0.54,0.86 0.96,1.73 1.26,2.59l-2.66 0.63c-0.21,-0.78 -0.61,-1.65 -1.19,-2.61zm-1.68 9.57c0.88,0.71 2.01,1.21 3.39,1.49 2.07,-1.3 3.19,-2.26 3.37,-2.86 0,-0.18 -0.08,-0.25 -0.23,-0.22l-6.53 1.58zm12.79 -20.55l0 2.35c-4.07,1.26 -10.93,3.08 -20.6,5.45l0 -2.27c9.96,-2.38 16.83,-4.22 20.6,-5.54zm-17.29 12.45l2.08 -0.5c-0.07,3.03 -1.27,5.51 -3.6,7.43l0.02 -2.79c0.98,-1.17 1.49,-2.55 1.5,-4.14z"/>
 </g>
</svg>
