<?xml version="1.0" encoding="UTF-8"?>
<!DOCTYPE svg PUBLIC "-//W3C//DTD SVG 1.1//EN" "http://www.w3.org/Graphics/SVG/1.1/DTD/svg11.dtd">
<!-- Creator: CorelDRAW 2020 (64-Bit) -->
<svg xmlns="http://www.w3.org/2000/svg" xml:space="preserve" width="2550px" height="2550px" version="1.1" shape-rendering="geometricPrecision" text-rendering="geometricPrecision" image-rendering="optimizeQuality" fill-rule="evenodd" clip-rule="evenodd"
viewBox="0 0 891.16 891.16"
 xmlns:xlink="http://www.w3.org/1999/xlink"
 xmlns:xodm="http://www.corel.com/coreldraw/odm/2003">
 <g id="Layer_x0020_1">
  <metadata id="CorelCorpID_0Corel-Layer"/>
  <g id="_2205487346480">
   <path fill="#8C2898" fill-rule="nonzero" d="M264.63 178.31c-10.56,7.02 -24.83,4.38 -31.84,-6.14 -7.01,-10.56 -4.37,-24.83 6.15,-31.84 4.82,-3.3 10.1,-6.59 15.38,-9.89 6.35,-3.96 11.63,-7.01 15.58,-9.24 11.22,-6.15 25.24,-1.98 31.18,9.24 6.15,11.21 1.98,25.23 -9.24,31.17 -5.93,3.3 -10.55,5.94 -13.85,7.92 -4.37,2.64 -8.99,5.49 -13.4,8.58l0 0.2 0.04 0zm180.95 -178.31c122.97,0 234.56,49.86 315.14,130.44 80.58,80.58 130.44,192.17 130.44,315.14 0,122.97 -49.86,234.56 -130.44,315.14 -80.58,80.58 -192.17,130.44 -315.14,130.44 -122.97,0 -234.56,-49.86 -315.14,-130.44 -80.58,-80.58 -130.44,-192.17 -130.44,-315.14 0,-122.97 49.86,-234.56 130.44,-315.14 80.58,-80.58 192.17,-130.44 315.14,-130.44zm-429.37 471.73c286.4,122.56 572.55,130.02 858.91,0.65 0.66,-8.99 0.87,-17.77 0.87,-26.8 0,-118.81 -48.09,-226.44 -126.07,-304.17 -77.98,-77.99 -185.37,-126.07 -304.17,-126.07 -118.81,0 -226.44,48.08 -304.18,126.07 -77.98,77.98 -126.06,185.36 -126.06,304.17 0,8.78 0.2,17.57 0.86,26.35l-0.2 -0.21 0.04 0.01zm113.53 -92.01c-2.64,12.54 -14.73,20.42 -27.22,17.78 -12.54,-2.64 -20.41,-14.73 -17.78,-27.22 7.47,-35.59 20.01,-69.86 37.33,-101.45 17.36,-31.63 39.3,-60.82 65.23,-86.31 8.99,-8.99 23.72,-8.78 32.5,0.21 8.99,8.99 8.78,23.5 -0.21,32.49 -22.84,22.39 -41.94,47.88 -57.11,75.55 -15.14,27.67 -26.15,57.53 -32.74,88.75l0 0.2 0 0z"/>
   <path fill="#FEFEFE" fill-rule="nonzero" d="M152.16 617.78l56.75 11.59 -0.15 -34.36 -25.19 -5.14c-5.64,10.64 -15.3,17.34 -29.03,20.09l0 -17.09c13.43,-4.92 20.15,-15.68 20.15,-32.32l14.8 3.02c-0.08,4.32 -0.48,8.31 -1.17,12.02l84.31 17.21 0 15.26 -48.9 -9.99 0 34.33 55.12 11.25 0 15 -52.6 -10.74c9.39,23.57 26.71,41.79 51.99,54.61l0 16.47c-29.53,-14.7 -50.01,-34.39 -61.47,-59.11 -3.46,6.24 -8.01,11.6 -13.63,16.11 -11.86,9.99 -28.65,15.67 -50.39,17.09l0 -15.9c17.29,-1.99 30.57,-6.89 39.87,-14.67 6.22,-5.18 10.7,-11.44 13.48,-18.72l-53.94 -11.01 0 -15zm171.63 42.83l0 40.83 35.85 3.02 0 -40.83 -35.85 -3.02zm51.23 45.15l17.17 1.44c8.34,-0.3 14.23,-4.71 17.65,-13.17 3.31,-6.79 5.27,-15.35 5.86,-25.68l-40.68 -3.42 0 40.83zm40.53 -51.8c-0.8,-11.03 -3.06,-20 -6.77,-26.87 -4.32,-8.93 -10.8,-14.17 -19.44,-15.7l-14.32 -1.2 0 40.36 40.53 3.41zm-55.91 -45.07l-35.85 -3.02 0 40.37 35.85 3.02 0 -40.37zm31.81 -11.7c12.24,2.56 21.94,9.57 29.09,21.06 6.6,10.65 10.18,24.55 10.69,41.73 0,21.27 -3.26,36.22 -9.79,44.86 -6.54,10.83 -16.13,16.63 -28.78,17.37l-83.94 -7.07 0 -124.91 82.73 6.96zm68.41 3.67l29.3 -1.58 0 -9.21 14.95 -0.81 0 9.21 39.56 -2.13 0 -9.22 14.94 -0.81 0 9.22 28.56 -1.54 0 13.31 -28.56 1.54 0 8.62 -14.94 0.81 0 -8.62 -39.56 2.14 0 10.12 -14.95 0.8 0 -10.11 -29.3 1.58 0 -13.32zm20.23 78.01l0 22.66 12.09 -0.65c5.33,-0.99 8.01,-3.51 8.01,-7.53 0.8,-3.17 1.29,-8.38 1.49,-15.65l-21.59 1.17zm21.44 -15.38c-0.18,-4.22 -0.59,-8.2 -1.19,-11.88 -0.2,-6.86 -3.78,-10.48 -10.72,-10.91l-9.53 0.52 0 23.43 21.44 -1.16zm35.95 2.6c-0.21,4.35 -0.41,8.44 -0.59,12.27l31.85 -1.72c0.1,-1.12 0.15,-2.28 0.15,-3.49 0,-3.13 -0.05,-6.04 -0.15,-8.75l-31.26 1.69zm30.64 -15.28c0,-0.7 -0.05,-1.44 -0.13,-2.26 0,-7.05 -3.48,-11.35 -10.43,-12.89l-20.23 1.1c0.1,5.23 0.2,10.46 0.3,15.7l30.49 -1.65zm-32.32 41.23c-1.18,12.77 -3.11,23.61 -5.72,32.52l-14.79 0.8c5.34,-19.05 8.09,-40.83 8.3,-65.33 -0.31,-11.88 -0.57,-23.82 -0.75,-35.81l34.12 -1.84c7.55,-0.1 13.58,1.64 18.12,5.22 4.12,3.1 6.18,7.64 6.18,13.6 1.11,9.51 1.68,19.81 1.68,30.9 0,14.2 -0.46,24.62 -1.37,31.23 -1.52,11.67 -9.35,18.08 -23.55,19.26 -7.96,0.43 -14.35,0.62 -19.17,0.57l0 -13.91c4.02,0.5 8.84,0.58 14.48,0.27 8.86,-0.47 13.4,-3.79 13.61,-9.94 0.49,-2.84 0.9,-5.96 1.18,-9.28l-32.32 1.74zm-43.93 -64.18c5.64,0.11 10.33,1.66 14.04,4.68 3.74,3.54 5.9,7.51 6.5,11.91 1.72,5.95 2.57,15.48 2.57,28.59 -0.2,10.69 -0.69,17.95 -1.52,21.71 -0.1,4.75 -1.7,8.97 -4.82,12.67 -3.94,3.83 -8.81,6 -14.66,6.52l-27.47 1.49 0 -86.2 25.36 -1.37zm122.46 -38.59l28.69 -6.15 0 -8.93 14.64 -3.14 0 8.93 38.74 -8.29 0 -8.93 14.64 -3.14 0 8.93 27.96 -5.99 0 13.6 -27.96 5.99 0 7.87 -14.64 3.14 0 -7.87 -38.74 8.3 0 7.87 -14.64 3.13 0 -7.87 -28.69 6.15 0 -13.6zm3.99 25l117.27 -25.12 0 13.01 -16.56 3.55 0 11.92 19.97 -4.28 0 13.47 -19.97 4.28 0 11.2 15.83 -3.39 0 12.98 -51.46 11.03 0 9.83 54.84 -11.75 0 13.32 -54.84 11.75 0 15.87 -14.63 3.13 0 -15.87 -53.68 11.5 0 -13.32 53.68 -11.5 0 -9.83 -50.3 10.77 0 -12.98 15.97 -3.42 0 -11.2 -20.54 4.4 0 -13.47 20.54 -4.4 0 -11.93 -16.12 3.46 0 -13.01zm87.69 30.82l0 -11.2 -22.61 4.84 0 11.2 22.61 -4.84zm-37.24 7.98l0 -11.2 -21.15 4.53 0 11.2 21.15 -4.53zm37.24 -32.65l0 -11.93 -22.61 4.85 0 11.92 22.61 -4.84zm-37.24 7.98l0 -11.93 -21.15 4.53 0 11.93 21.15 -4.53z"/>
  </g>
 </g>
</svg>
