<?xml version="1.0" encoding="UTF-8"?>
<!DOCTYPE svg PUBLIC "-//W3C//DTD SVG 1.1//EN" "http://www.w3.org/Graphics/SVG/1.1/DTD/svg11.dtd">
<!-- Creator: CorelDRAW 2020 (64-Bit) -->
<svg xmlns="http://www.w3.org/2000/svg" xml:space="preserve" width="232px" height="304px" version="1.1" shape-rendering="geometricPrecision" text-rendering="geometricPrecision" image-rendering="optimizeQuality" fill-rule="evenodd" clip-rule="evenodd"
viewBox="0 0 16.56 21.66"
 xmlns:xlink="http://www.w3.org/1999/xlink"
 xmlns:xodm="http://www.corel.com/coreldraw/odm/2003">
 <g id="Layer_x0020_1">
  <metadata id="CorelCorpID_0Corel-Layer"/>
  <polygon fill="#DEB0FF" points="1.27,0 15.29,0 15.29,1.27 16.56,1.27 16.56,20.39 15.29,20.39 15.29,21.66 1.27,21.66 1.27,20.39 0,20.39 0,1.27 1.27,1.27 "/>
  <path fill="#440079" d="M2.55 19.11l1.27 0 1.28 0 1.27 0 1.27 0 1.28 0 1.27 0 1.28 0 0 -1.27 1.27 0 0 -1.28 1.28 0 0 -1.27 0 -1.28 0 -1.27 0 -1.27 -1.28 0 -1.27 0 0 -1.28 0 -1.27 1.27 0 1.28 0 0 -1.28 0 -1.27 0 -1.27 -1.28 0 0 -1.28 -1.27 0 0 -1.27 -1.28 0 -1.27 0 -1.28 0 -1.27 0 -1.27 0 -1.28 0 -1.27 0 0 1.27 0 1.28 0 1.27 0 1.27 0 1.28 0 1.27 0 1.28 0 1.27 0 1.27 0 1.28 0 1.27 0 1.28 0 1.27zm8.92 -2.55l-1.28 0 -1.27 0 -1.28 0 -1.27 0 -1.27 0 0 -1.27 0 -1.28 0 -1.27 0 -1.27 1.27 0 1.27 0 1.28 0 1.27 0 1.28 0 0 1.27 0 1.27 0 1.28 0 1.27zm0 -10.19l0 1.27 0 1.28 -1.28 0 -1.27 0 -1.28 0 -1.27 0 -1.27 0 0 -1.28 0 -1.27 0 -1.27 1.27 0 1.27 0 1.28 0 1.27 0 1.28 0 0 1.27z"/>
 </g>
</svg>
