<?xml version="1.0" encoding="UTF-8"?>
<!DOCTYPE svg PUBLIC "-//W3C//DTD SVG 1.1//EN" "http://www.w3.org/Graphics/SVG/1.1/DTD/svg11.dtd">
<!-- Creator: CorelDRAW 2020 (64-Bit) -->
<svg xmlns="http://www.w3.org/2000/svg" xml:space="preserve" width="455px" height="385px" version="1.1" shape-rendering="geometricPrecision" text-rendering="geometricPrecision" image-rendering="optimizeQuality" fill-rule="evenodd" clip-rule="evenodd"
viewBox="0 0 121 102.39"
 xmlns:xlink="http://www.w3.org/1999/xlink"
 xmlns:xodm="http://www.corel.com/coreldraw/odm/2003">
 <g id="Layer_x0020_1">
  <metadata id="CorelCorpID_0Corel-Layer"/>
  <polygon fill="#FAFAFA" points="9.31,18.62 18.62,18.62 18.62,9.31 102.39,9.31 102.39,18.62 111.7,18.62 111.7,65.16 111.7,83.77 102.39,83.77 102.39,74.46 18.62,74.46 18.62,65.16 9.31,65.16 "/>
  <path fill="#DEB0FF" d="M18.62 0l9.3 0 9.31 0 9.31 0 9.31 0 9.31 0 9.3 0 9.31 0 9.31 0 9.31 0 0 9.31 0 9.31 9.31 0 0 9.3 0 9.31 0 9.31 0 9.31 0 9.31 0 9.3 0 9.31 -9.31 0 -9.31 0 -9.31 0 -9.31 0 -9.3 0 -9.31 0 -9.31 0 -9.31 0 -9.31 0 -9.3 0 0 -9.31 -9.31 0 0 -9.3 -9.31 0 0 -9.31 0 -9.31 0 -9.31 0 -9.31 0 -9.3 9.31 0 0 -9.31 9.31 0 0 -9.31zm102.38 83.77l0 -9.31 0 -9.3 0 -9.31 0 -9.31 0 -9.31 0 -9.31 0 -9.3 -9.3 0 0 -9.31 -9.31 0 -9.31 0 -9.31 0 -9.31 0 -9.3 0 -9.31 0 -9.31 0 -9.31 0 -9.31 0 -9.3 0 0 9.31 -9.31 0 0 9.3 0 9.31 0 9.31 0 9.31 0 9.31 9.31 0 0 9.3 9.3 0 9.31 0 9.31 0 9.31 0 9.31 0 9.3 0 9.31 0 9.31 0 9.31 0 0 9.31 0 9.31 9.31 0 0 9.31 9.3 0 0 -9.31 0 -9.31zm-37.23 -46.54l9.31 0 0 9.31 -9.31 0 0 -9.31zm-18.61 0l9.3 0 0 9.31 -9.3 0 0 -9.31zm-18.62 0l9.31 0 0 9.31 -9.31 0 0 -9.31zm-18.62 0l9.31 0 0 9.31 -9.31 0 0 -9.31z"/>
 </g>
</svg>
