<?xml version="1.0" encoding="UTF-8"?>
<!DOCTYPE svg PUBLIC "-//W3C//DTD SVG 1.1//EN" "http://www.w3.org/Graphics/SVG/1.1/DTD/svg11.dtd">
<!-- Creator: CorelDRAW 2020 (64-Bit) -->
<svg xmlns="http://www.w3.org/2000/svg" xml:space="preserve" width="161px" height="158px" version="1.1" shape-rendering="geometricPrecision" text-rendering="geometricPrecision" image-rendering="optimizeQuality" fill-rule="evenodd" clip-rule="evenodd"
viewBox="0 0 3.54 3.47"
 xmlns:xlink="http://www.w3.org/1999/xlink"
 xmlns:xodm="http://www.corel.com/coreldraw/odm/2003">
 <g id="Layer_x0020_1">
  <metadata id="CorelCorpID_0Corel-Layer"/>
  <g id="_1573297214992">
   <polygon fill="#DEB0FF" points="0.32,1.25 0.64,1.25 0.64,0.61 1.29,0.61 1.29,0.32 2.25,0.32 2.25,0.61 2.9,0.61 2.9,1.25 3.22,1.25 3.22,2.22 2.9,2.22 2.9,2.86 2.25,2.86 2.25,3.15 1.29,3.15 1.29,2.86 0.64,2.86 0.64,2.22 0.32,2.22 "/>
   <polygon fill="#C479FF" points="2.25,0.61 2.9,0.61 2.9,0.9 2.9,1.25 3.22,1.25 3.22,2.22 2.9,2.22 2.9,2.86 2.25,2.86 2.25,3.15 1.93,3.15 1.29,3.15 1.29,2.86 1.29,2.51 0.97,2.51 0.97,1.54 1.29,1.54 1.29,0.9 1.93,0.9 1.93,0.61 "/>
   <path fill="#440079" d="M1.29 0l0.32 0 0.32 0 0.32 0 0 0.29 0.32 0 0.33 0 0 0.32 0.32 0 0 0.32 0 0.32 0.32 0 0 0.33 0 0.32 0 0.32 -0.32 0 0 0.32 0 0.32 -0.32 0 0 0.32 -0.33 0 -0.32 0 0 0.29 -0.32 0 -0.32 0 -0.32 0 0 -0.29 -0.32 0 -0.33 0 0 -0.32 -0.32 0 0 -0.32 0 -0.32 0 -0.32 0 -0.32 0 -0.33 0.32 0 0 -0.32 0 -0.32 0.33 0 0.32 0 0 -0.29 0.32 0 0.32 0 0.32 0 0 0.29 0.32 0 0.33 0 0 0.32 0 0.32 0.32 0 0 0.33 0 0.32 0 0.32 -0.32 0 0 0.32 0 0.32 -0.33 0 -0.32 0 0 0.29 -0.32 0 -0.32 0 -0.32 0 0 -0.29 -0.32 0 -0.33 0 0 -0.32 0 -0.32 -0.32 0 -0.32 0 0 -0.32 0 -0.32 0 -0.33 0.32 0 0 -0.32 0 -0.32 0.32 0 0 -0.32 0.33 0 0.32 0 0 -0.29zm0.32 2.86l0.32 0 0 -0.32 -0.32 0 0 0.32zm0 -2.25l0.32 0 0 1.61 -0.32 0 0 -1.61z"/>
  </g>
 </g>
</svg>
