<?xml version="1.0" encoding="UTF-8"?>
<!DOCTYPE svg PUBLIC "-//W3C//DTD SVG 1.1//EN" "http://www.w3.org/Graphics/SVG/1.1/DTD/svg11.dtd">
<!-- Creator: CorelDRAW 2020 (64-Bit) -->
<svg xmlns="http://www.w3.org/2000/svg" xml:space="preserve" width="129px" height="158px" version="1.1" shape-rendering="geometricPrecision" text-rendering="geometricPrecision" image-rendering="optimizeQuality" fill-rule="evenodd" clip-rule="evenodd"
viewBox="0 0 2.54 3.1"
 xmlns:xlink="http://www.w3.org/1999/xlink"
 xmlns:xodm="http://www.corel.com/coreldraw/odm/2003">
 <g id="Layer_x0020_1">
  <metadata id="CorelCorpID_0Corel-Layer"/>
  <polygon fill="#440079" points="0.28,0 0.56,0 0.85,0 1.13,0 1.41,0 1.69,0 1.97,0 2.26,0 2.26,0.28 1.97,0.28 1.97,0.56 1.97,0.85 1.97,1.13 1.97,1.41 1.97,1.69 2.26,1.69 2.26,1.97 1.97,1.97 1.69,1.97 1.41,1.97 1.13,1.97 0.85,1.97 0.56,1.97 0.28,1.97 0.28,1.69 0.56,1.69 0.56,1.41 0.85,1.41 0.85,1.13 0.85,0.85 0.85,0.56 0.85,0.28 1.13,0.28 1.41,0.28 1.69,0.28 1.69,0.56 1.69,0.85 1.69,1.13 1.69,1.41 1.97,1.41 2.26,1.41 2.26,1.69 2.54,1.69 2.54,1.97 2.54,2.26 2.26,2.26 1.97,2.26 1.69,2.26 1.41,2.26 1.41,2.54 1.41,2.82 1.41,3.1 1.13,3.1 1.13,2.82 1.13,2.54 1.13,2.26 0.85,2.26 0.56,2.26 0.28,2.26 0,2.26 0,1.97 0,1.69 0.28,1.69 0.28,1.41 0.56,1.41 0.56,1.13 0.56,0.85 0.56,0.56 0.56,0.28 0.28,0.28 "/>
  <polygon fill="#DEB0FF" points="0.85,0.28 1.13,0.28 1.13,0.56 1.13,0.85 1.13,1.13 1.13,1.41 0.85,1.41 0.85,1.69 0.56,1.69 0.56,1.97 0.28,1.97 0.28,1.69 0.56,1.69 0.56,1.41 0.85,1.41 0.85,1.13 0.85,0.85 0.85,0.56 "/>
  <polygon fill="#C479FF" points="1.13,0.28 1.41,0.28 1.69,0.28 1.69,0.56 1.69,0.85 1.69,1.13 1.69,1.41 1.97,1.41 1.97,1.69 2.26,1.69 2.26,1.97 1.97,1.97 1.69,1.97 1.41,1.97 1.13,1.97 0.85,1.97 0.56,1.97 0.56,1.69 0.85,1.69 0.85,1.41 1.13,1.41 1.13,1.13 1.13,0.85 1.13,0.56 "/>
 </g>
</svg>
