<?xml version="1.0" encoding="UTF-8"?>
<!DOCTYPE svg PUBLIC "-//W3C//DTD SVG 1.1//EN" "http://www.w3.org/Graphics/SVG/1.1/DTD/svg11.dtd">
<!-- Creator: CorelDRAW 2020 (64-Bit) -->
<svg xmlns="http://www.w3.org/2000/svg" xml:space="preserve" width="187px" height="158px" version="1.1" shape-rendering="geometricPrecision" text-rendering="geometricPrecision" image-rendering="optimizeQuality" fill-rule="evenodd" clip-rule="evenodd"
viewBox="0 0 5.56 4.71"
 xmlns:xlink="http://www.w3.org/1999/xlink"
 xmlns:xodm="http://www.corel.com/coreldraw/odm/2003">
 <g id="Layer_x0020_1">
  <metadata id="CorelCorpID_0Corel-Layer"/>
  <g id="_2349565386880">
   <path fill="#440079" d="M1.71 0l0.43 0 0 0.43 0.43 0 0 -0.43 0.43 0 0 0.43 0.42 0 0 0.43 0.43 0 0 0.42 0.43 0 0.43 0 0 0.43 0.43 0 0 0.43 0 0.43 0.42 0 0 0.43 0 0.42 0 0.43 0 0.43 0 0.43 -0.42 0 0 -0.43 -0.43 0 0 -0.43 -0.43 0 0 -0.43 -0.43 0 -0.43 0 0 0.43 -0.42 0 0 0.43 -0.43 0 0 -0.43 -0.43 0 0 0.43 -0.43 0 0 -0.43 -0.43 0 0 -0.43 -0.42 0 0 -0.42 -0.43 0 0 -0.43 -0.43 0 0 -0.43 0 -0.43 0.43 0 0 -0.43 0.43 0 0 -0.42 0.42 0 0 -0.43 0.43 0 0 -0.43zm1.29 3.42l0 -0.42 0.42 0 0.43 0 0.43 0 0 0.42 0.43 0 0 0.43 0.43 0 0 -0.43 0 -0.42 0 -0.43 -0.43 0 0 -0.43 0 -0.43 -0.43 0 -0.43 0 0 -0.43 -0.43 0 -0.42 0 0 -0.42 0 -0.43 -0.43 0 0 0.43 -0.43 0 0 0.42 -0.43 0 0 0.43 -0.43 0 0 0.43 0 0.43 0.43 0 0 0.43 0.43 0 0 0.42 0.43 0 0 0.43 0.43 0 0 -0.43zm-0.86 0l-0.43 0 0 0.43 0.43 0 0 -0.43zm-0.43 -0.42l-0.43 0 0 0.42 0.43 0 0 -0.42zm-0.43 -0.43l-0.42 0 0 0.43 0.42 0 0 -0.43zm-0.42 -0.43l0 -0.43 -0.43 0 0 0.43 0 0.43 0.43 0 0 -0.43zm0.42 -0.43l0 -0.43 -0.42 0 0 0.43 0.42 0zm0.43 -0.43l0 -0.42 -0.43 0 0 0.42 0.43 0zm0.43 -0.42l0 -0.43 -0.43 0 0 0.43 0.43 0z"/>
   <polygon fill="#C479FF" points="1.71,0.43 2.14,0.43 2.14,0.86 1.71,0.86 1.71,1.28 1.28,1.28 1.28,1.71 0.86,1.71 0.86,2.14 0.86,2.57 1.28,2.57 1.28,3 1.71,3 1.71,3.42 2.14,3.42 2.14,3.85 1.71,3.85 1.71,3.42 1.28,3.42 1.28,3 0.86,3 0.86,2.57 0.43,2.57 0.43,2.14 0.43,1.71 0.86,1.71 0.86,1.28 1.28,1.28 1.28,0.86 1.71,0.86 "/>
   <polygon fill="#DEB0FF" points="2.57,0.43 3,0.43 3,0.86 3,1.28 3.42,1.28 3.85,1.28 3.85,1.71 4.28,1.71 4.71,1.71 4.71,2.14 4.71,2.57 5.14,2.57 5.14,3 5.14,3.42 5.14,3.85 4.71,3.85 4.71,3.42 4.28,3.42 4.28,3 3.85,3 3.42,3 3,3 3,3.42 3,3.85 2.57,3.85 2.57,3.42 2.14,3.42 2.14,3 1.71,3 1.71,2.57 1.28,2.57 1.28,2.14 1.28,1.71 1.71,1.71 1.71,1.28 2.14,1.28 2.14,0.86 2.57,0.86 "/>
  </g>
 </g>
</svg>
