<?xml version="1.0" encoding="UTF-8"?>
<!DOCTYPE svg PUBLIC "-//W3C//DTD SVG 1.1//EN" "http://www.w3.org/Graphics/SVG/1.1/DTD/svg11.dtd">
<!-- Creator: CorelDRAW 2020 (64-Bit) -->
<svg xmlns="http://www.w3.org/2000/svg" xml:space="preserve" width="187px" height="158px" version="1.1" shape-rendering="geometricPrecision" text-rendering="geometricPrecision" image-rendering="optimizeQuality" fill-rule="evenodd" clip-rule="evenodd"
viewBox="0 0 6.51 5.51"
 xmlns:xlink="http://www.w3.org/1999/xlink"
 xmlns:xodm="http://www.corel.com/coreldraw/odm/2003">
 <g id="Layer_x0020_1">
  <metadata id="CorelCorpID_0Corel-Layer"/>
  <g id="_2349564699616">
   <path fill="#440079" d="M0 2.5l0.5 0 0.5 0 0.5 0 0.5 0 0.5 0 0.5 0 0 -0.5 0 -0.5 0.5 0 0 -0.5 0 -0.5 0.5 0 0 -0.5 0.5 0 0.51 0 0 0.5 0 0.5 0 0.5 0 0.5 0.5 0 0.5 0 0 0.5 0.5 0 0 0.5 0 0.5 0 0.5 0 0.5 0 0.51 -0.5 0 0 0.5 -0.5 0 -0.5 0 -0.51 0 -0.5 0 -0.5 0 0 -0.5 -0.5 0 -0.5 0 -0.5 0 0 0.5 -0.5 0 -0.5 0 -0.5 0 -0.5 0 0 -0.5 0 -0.51 0 -0.5 0 -0.5 0 -0.5 0 -0.5zm2.5 2l0.5 0 0.5 0 0 0.51 0.5 0 0.5 0 0.51 0 0.5 0 0.5 0 0 -0.51 0 -0.5 0 -0.5 0 -0.5 0 -0.5 -0.5 0 -0.5 0 -0.51 0 0 -0.5 0 -0.5 0 -0.5 0 -0.5 -0.5 0 0 0.5 0 0.5 -0.5 0 0 0.5 0 0.5 -0.5 0 0 0.5 -0.5 0 -0.5 0 0 0.5 0 0.5 0 0.5 0.5 0zm-1 0.51l0 -0.51 0 -0.5 0 -0.5 0 -0.5 -0.5 0 -0.5 0 0 0.5 0 0.5 0 0.5 0 0.51 0.5 0 0.5 0z"/>
   <polygon fill="#C479FF" points="1.5,4.5 1.5,5.01 1,5.01 0.5,5.01 0.5,4.5 0.5,4 0.5,3.5 0.5,3 1,3 1.5,3 1.5,3.5 1.5,4 "/>
   <polygon fill="#DEB0FF" points="6.01,4.13 6.01,4.38 6.01,4.5 6.01,5.01 4.76,5.01 3.5,5.01 3.5,4.5 3,4.5 2,4.5 2,4.13 2,3.75 2,3.38 2,3 3,3 3,2.5 3.5,2.5 3.5,2.25 3.5,1.5 4,1.5 4,1.5 4,1.5 4,0.5 4.25,0.5 4.5,0.5 4.5,1.5 4.5,1.5 4.5,2.25 4.5,2.5 4.5,2.5 4.76,2.5 6.01,2.5 6.01,3 6.01,3.13 6.01,3.38 6.01,3.5 6.01,3.75 6.01,3.75 6.01,4 "/>
  </g>
 </g>
</svg>
