<?xml version="1.0" encoding="UTF-8"?>
<!DOCTYPE svg PUBLIC "-//W3C//DTD SVG 1.1//EN" "http://www.w3.org/Graphics/SVG/1.1/DTD/svg11.dtd">
<!-- Creator: CorelDRAW 2020 (64-Bit) -->
<svg xmlns="http://www.w3.org/2000/svg" xml:space="preserve" width="158px" height="158px" version="1.1" shape-rendering="geometricPrecision" text-rendering="geometricPrecision" image-rendering="optimizeQuality" fill-rule="evenodd" clip-rule="evenodd"
viewBox="0 0 4.16 4.16"
 xmlns:xlink="http://www.w3.org/1999/xlink"
 xmlns:xodm="http://www.corel.com/coreldraw/odm/2003">
 <g id="Layer_x0020_1">
  <metadata id="CorelCorpID_0Corel-Layer"/>
  <g id="_2349616017472">
   <rect fill="none" width="4.16" height="4.16"/>
   <path fill="#440079" d="M1.59 1.59l0.33 0 0.32 0 0 -0.32 -0.32 0 -0.33 0 0 0.32zm-0.97 1.94l0.33 0 0.32 0 0 -0.32 0.32 0 0.33 0 0.32 0 0.32 0 0 -0.32 0 -0.33 -0.32 0 -0.32 0 0 0.33 0.32 0 0.32 0 0.33 0 0.32 0 0 -0.33 0.32 0 0 -0.32 0.33 0 0 -0.32 -0.33 0 0 -0.33 -0.32 0 -0.32 0 0 0.33 -0.33 0 0 0.32 0 0.32 0.33 0 0.32 0 0 -0.32 0.32 0 0 -0.32 -0.32 0 0 -0.33 0 -0.32 0.32 0 0 -0.32 0 -0.33 -0.32 0 -0.32 0 0 0.33 -0.33 0 -0.32 0 -0.32 0 -0.33 0 0 0.32 -0.32 0 -0.32 0 0 0.32 -0.33 0 0 0.33 -0.32 0 0 0.32 0.32 0 0.33 0 0 0.32 0 0.33 -0.33 0 0 0.32 0 0.32zm0.97 -1.29l-0.32 0 0 0.32 -0.32 0 -0.33 0 0 -0.32 0 -0.32 0.33 0 0 -0.33 0.32 0 0.32 0 0 0.33 0 0.32z"/>
  </g>
 </g>
</svg>
