<?xml version="1.0" encoding="UTF-8"?>
<!DOCTYPE svg PUBLIC "-//W3C//DTD SVG 1.1//EN" "http://www.w3.org/Graphics/SVG/1.1/DTD/svg11.dtd">
<!-- Creator: CorelDRAW 2020 (64-Bit) -->
<svg xmlns="http://www.w3.org/2000/svg" xml:space="preserve" width="187px" height="158px" version="1.1" shape-rendering="geometricPrecision" text-rendering="geometricPrecision" image-rendering="optimizeQuality" fill-rule="evenodd" clip-rule="evenodd"
viewBox="0 0 7.18 6.08"
 xmlns:xlink="http://www.w3.org/1999/xlink"
 xmlns:xodm="http://www.corel.com/coreldraw/odm/2003">
 <g id="Layer_x0020_1">
  <metadata id="CorelCorpID_0Corel-Layer"/>
  <g id="_2349565392640">
   <path fill="#440079" d="M7.18 3.32l-0.55 0 -0.55 0 -0.55 0 -0.56 0 -0.55 0 -0.55 0 0 0.55 0 0.55 -0.55 0 0 0.55 0 0.56 -0.56 0 0 0.55 -0.55 0 -0.55 0 0 -0.55 0 -0.56 0 -0.55 0 -0.55 -0.55 0 -0.56 0 0 -0.55 -0.55 0 0 -0.56 0 -0.55 0 -0.55 0 -0.55 0 -0.56 0.55 0 0 -0.55 0.56 0 0.55 0 0.55 0 0.55 0 0.56 0 0 0.55 0.55 0 0.55 0 0.55 0 0 -0.55 0.56 0 0.55 0 0.55 0 0.55 0 0 0.55 0 0.56 0 0.55 0 0.55 0 0.55 0 0.56zm-2.76 -2.21l-0.55 0 -0.55 0 0 -0.56 -0.56 0 -0.55 0 -0.55 0 -0.55 0 -0.56 0 0 0.56 0 0.55 0 0.55 0 0.55 0 0.56 0.56 0 0.55 0 0.55 0 0 0.55 0 0.55 0 0.55 0 0.56 0.55 0 0 -0.56 0 -0.55 0.56 0 0 -0.55 0 -0.55 0.55 0 0 -0.56 0.55 0 0.55 0 0 -0.55 0 -0.55 0 -0.55 -0.55 0zm1.11 -0.56l0 0.56 0 0.55 0 0.55 0 0.55 0.55 0 0.55 0 0 -0.55 0 -0.55 0 -0.55 0 -0.56 -0.55 0 -0.55 0z"/>
   <polygon fill="#C479FF" points="5.53,1.11 5.53,0.55 6.08,0.55 6.63,0.55 6.63,1.11 6.63,1.66 6.63,2.21 6.63,2.76 6.08,2.76 5.53,2.76 5.53,2.21 5.53,1.66 "/>
   <polygon fill="#DEB0FF" points="0.55,1.52 0.55,1.24 0.55,1.11 0.55,0.55 1.93,0.55 3.32,0.55 3.32,1.11 3.87,1.11 4.97,1.11 4.97,1.52 4.97,1.93 4.97,2.35 4.97,2.76 3.87,2.76 3.87,3.32 3.32,3.32 3.32,3.59 3.32,4.42 2.76,4.42 2.76,4.42 2.76,4.42 2.76,5.53 2.49,5.53 2.21,5.53 2.21,4.42 2.21,4.42 2.21,3.59 2.21,3.32 2.21,3.32 1.93,3.32 0.55,3.32 0.55,2.76 0.55,2.62 0.55,2.35 0.55,2.21 0.55,1.93 0.55,1.93 0.55,1.66 "/>
  </g>
 </g>
</svg>
