<?xml version="1.0" encoding="UTF-8"?>
<!DOCTYPE svg PUBLIC "-//W3C//DTD SVG 1.1//EN" "http://www.w3.org/Graphics/SVG/1.1/DTD/svg11.dtd">
<!-- Creator: CorelDRAW 2020 (64-Bit) -->
<svg xmlns="http://www.w3.org/2000/svg" xml:space="preserve" width="157px" height="158px" version="1.1" shape-rendering="geometricPrecision" text-rendering="geometricPrecision" image-rendering="optimizeQuality" fill-rule="evenodd" clip-rule="evenodd"
viewBox="0 0 3.55 3.58"
 xmlns:xlink="http://www.w3.org/1999/xlink"
 xmlns:xodm="http://www.corel.com/coreldraw/odm/2003">
 <g id="Layer_x0020_1">
  <metadata id="CorelCorpID_0Corel-Layer"/>
  <g id="_2349564648256">
   <polygon fill="#DEB0FF" points="0.3,3.26 0.59,3.26 0.89,3.26 1.18,3.26 1.18,2.96 1.48,2.96 1.48,2.67 1.78,2.67 1.78,2.37 2.07,2.37 2.07,2.07 2.37,2.07 2.37,1.78 2.67,1.78 2.67,1.48 2.96,1.48 2.96,1.18 3.26,1.18 3.26,0.89 2.96,0.89 2.96,0.59 2.67,0.59 2.67,0.3 2.37,0.3 2.37,0.59 2.07,0.59 2.07,0.89 1.78,0.89 1.78,1.18 1.48,1.18 1.48,1.48 1.18,1.48 1.18,1.78 0.89,1.78 0.89,2.07 0.59,2.07 0.59,2.37 0.3,2.37 "/>
   <path fill="#440079" d="M0 2.07l0.3 0 0 -0.29 0.29 0 0 -0.3 0.3 0 0 -0.3 0.29 0 0 -0.29 0.3 0 0 -0.3 0.3 0 0 -0.29 0.29 0 0 -0.3 0.3 0 0.3 0 0.29 0 0 0.3 0.3 0 0 0.29 0.29 0 0 0.3 0 0.29 0 0.3 -0.29 0 0 0.3 -0.3 0 0 0.29 -0.29 0 0 0.3 -0.3 0 0 0.3 -0.3 0 0 0.29 -0.29 0 0 0.3 -0.3 0 0 0.29 -0.3 0 -0.29 0 -0.3 0 -0.29 0 -0.3 0 0 -0.29 0 -0.3 0 -0.29 0 -0.3 0 -0.3zm0.3 0.89l0.29 0 0 0.3 0.3 0 0.29 0 0 -0.3 0.3 0 0 -0.29 0.3 0 0 -0.3 0.29 0 0 -0.3 0.3 0 0 -0.29 0.3 0 0 -0.3 0.29 0 0 -0.3 0.3 0 0 -0.29 -0.3 0 0 -0.3 -0.29 0 0 -0.29 -0.3 0 0 0.29 -0.3 0 0 0.3 -0.29 0 0 0.29 -0.3 0 0 0.3 -0.3 0 0 0.3 -0.29 0 0 0.29 -0.3 0 0 0.3 -0.29 0 0 0.3 0 0.29zm2.96 0.03l0.29 0 0 0.29 0 0.3 -0.29 0 -0.3 0 -0.29 0 -0.3 0 -0.3 0 0 -0.3 0.3 0 0.3 0 0.29 0 0 -0.29 0.3 0z"/>
  </g>
 </g>
</svg>
