<?xml version="1.0" encoding="UTF-8"?>
<!DOCTYPE svg PUBLIC "-//W3C//DTD SVG 1.1//EN" "http://www.w3.org/Graphics/SVG/1.1/DTD/svg11.dtd">
<!-- Creator: CorelDRAW 2020 (64-Bit) -->
<svg xmlns="http://www.w3.org/2000/svg" xml:space="preserve" width="158px" height="158px" version="1.1" shape-rendering="geometricPrecision" text-rendering="geometricPrecision" image-rendering="optimizeQuality" fill-rule="evenodd" clip-rule="evenodd"
viewBox="0 0 4.32 4.32"
 xmlns:xlink="http://www.w3.org/1999/xlink"
 xmlns:xodm="http://www.corel.com/coreldraw/odm/2003">
 <g id="Layer_x0020_1">
  <metadata id="CorelCorpID_0Corel-Layer"/>
  <rect fill="#DEB0FF" x="0.78" y="0.78" width="2.75" height="3.14"/>
  <path fill="#440079" d="M1.18 0c0.65,0 1.3,0 1.96,0l0 0.39c0.39,0 0.78,0 1.18,0l0 0.79 -0.4 0c0,0.91 0,1.83 0,2.74l-0.39 0 0 0.4c-0.91,0 -1.83,0 -2.75,0l0 -0.4 -0.39 0c0,-0.91 0,-1.83 0,-2.74l-0.39 0 0 -0.79c0.39,0 0.78,0 1.18,0l0 -0.39zm1.17 3.53l-0.39 0c0,-0.52 0,-1.44 0,-1.96l0.39 0c0,0.52 0,1.44 0,1.96zm0.4 0l0.39 0c0,-0.52 0,-1.44 0,-1.96l-0.39 0c0,0.52 0,1.44 0,1.96zm-1.18 0l-0.39 0c0,-0.52 0,-1.44 0,-1.96l0.39 0c0,0.52 0,1.44 0,1.96zm-0.79 -2.75l0 0.4c0,0.91 0,1.83 0,2.74 0.92,0 1.84,0 2.75,0 0,-0.91 0,-1.83 0,-2.74l0 -0.4c-0.91,0 -1.83,0 -2.75,0z"/>
 </g>
</svg>
