<?xml version="1.0" encoding="UTF-8"?>
<!DOCTYPE svg PUBLIC "-//W3C//DTD SVG 1.1//EN" "http://www.w3.org/Graphics/SVG/1.1/DTD/svg11.dtd">
<!-- Creator: CorelDRAW 2020 (64-Bit) -->
<svg xmlns="http://www.w3.org/2000/svg" xml:space="preserve" width="394px" height="304px" version="1.1" shape-rendering="geometricPrecision" text-rendering="geometricPrecision" image-rendering="optimizeQuality" fill-rule="evenodd" clip-rule="evenodd"
viewBox="0 0 345.47 266.83"
 xmlns:xlink="http://www.w3.org/1999/xlink"
 xmlns:xodm="http://www.corel.com/coreldraw/odm/2003">
 <g id="Layer_x0020_1">
  <metadata id="CorelCorpID_0Corel-Layer"/>
  <polygon fill="#440079" points="47.09,0 62.78,0 298.39,0 314.08,0 329.78,0 329.78,15.7 345.47,15.7 345.47,251.13 329.78,251.13 329.78,266.83 314.08,266.83 298.39,266.83 62.78,266.83 47.09,266.83 31.39,266.83 15.7,266.83 15.7,251.13 0,251.13 0,15.7 15.7,15.7 15.7,0 31.39,0 "/>
  <path fill="#C479FF" d="M109.95 47.08l-15.69 0 -15.7 0 -15.7 0 -15.69 0 0 15.7 0 15.7 0 15.69 0 15.7 0 15.7 117.72 0 0 -78.49 -7.85 0 -15.7 0 -15.69 0 -15.7 0zm70.64 78.49l117.72 0 0 -15.7 0 -15.7 0 -15.69 0 -15.7 0 -15.7 -15.7 0 -15.7 0 -15.69 0 -15.7 0 -15.69 0 -15.7 0 -15.7 0 -7.84 0 0 78.49zm0 15.69l0 78.48 7.84 0 15.7 0 15.7 0 15.69 0 15.7 0 15.69 0 15.7 0 15.7 0 0 -15.69 0 -15.7 0 -15.7 0 -15.69 0 -15.7 -117.72 0zm-15.7 78.48l0 -78.48 -117.72 0 0 15.7 0 15.69 0 15.7 0 15.7 0 15.69 15.69 0 15.7 0 15.7 0 15.69 0 15.7 0 15.69 0 15.7 0 7.85 0zm149.11 -156.96l0 15.7 0 15.69 0 15.7 0 15.7 0 15.69 0 15.7 0 15.69 0 15.7 0 15.7 0 15.69 0 15.7 -15.69 0 -15.7 0 -15.7 0 -15.69 0 -15.7 0 -15.69 0 -15.7 0 -15.7 0 -7.84 0 -7.85 0 -7.85 0 -7.85 0 -15.7 0 -15.69 0 -15.7 0 -15.69 0 -15.7 0 -15.7 0 -15.69 0 -15.7 0 0 -15.7 0 -15.69 0 -15.7 0 -15.7 0 -15.69 0 -15.7 0 -15.69 0 -15.7 0 -15.7 0 -15.69 0 -15.7 0 -15.7 0 -15.69 15.7 0 15.69 0 15.7 0 15.7 0 15.69 0 15.7 0 15.69 0 15.7 0 7.85 0 7.85 0 7.85 0 7.84 0 15.7 0 15.7 0 15.69 0 15.7 0 15.69 0 15.7 0 15.7 0 15.69 0 0 15.69 0 15.7z"/>
 </g>
</svg>
