<?xml version="1.0" encoding="UTF-8"?>
<!DOCTYPE svg PUBLIC "-//W3C//DTD SVG 1.1//EN" "http://www.w3.org/Graphics/SVG/1.1/DTD/svg11.dtd">
<!-- Creator: CorelDRAW 2020 (64-Bit) -->
<svg xmlns="http://www.w3.org/2000/svg" xml:space="preserve" width="394px" height="304px" version="1.1" shape-rendering="geometricPrecision" text-rendering="geometricPrecision" image-rendering="optimizeQuality" fill-rule="evenodd" clip-rule="evenodd"
viewBox="0 0 385.48 297.72"
 xmlns:xlink="http://www.w3.org/1999/xlink"
 xmlns:xodm="http://www.corel.com/coreldraw/odm/2003">
 <g id="Layer_x0020_1">
  <metadata id="CorelCorpID_0Corel-Layer"/>
  <polygon fill="#DEB0FF" points="52.54,0 70.06,0 332.94,0 350.45,0 367.97,0 367.97,17.51 385.48,17.51 385.48,280.21 367.97,280.21 367.97,297.72 350.45,297.72 332.94,297.72 70.06,297.72 52.54,297.72 35.03,297.72 17.51,297.72 17.51,280.21 0,280.21 0,17.51 17.51,17.51 17.51,0 35.03,0 "/>
  <path fill="#440079" d="M122.68 52.54l-17.51 0 -17.51 0 -17.52 0 -17.51 0 0 17.51 0 17.51 0 17.52 0 17.51 0 17.52 0 17.51 0 17.51 0 17.52 0 17.51 0 17.52 0 17.51 17.51 0 17.52 0 17.51 0 17.51 0 17.52 0 17.51 0 17.52 0 17.51 0 17.51 0 17.52 0 17.51 0 17.52 0 17.51 0 17.51 0 17.52 0 17.51 0 0 -17.51 0 -17.52 0 -17.51 0 -17.52 0 -17.51 0 -17.51 0 -17.52 0 -17.51 0 -17.52 0 -17.51 0 -17.51 -17.51 0 -17.52 0 -17.51 0 -17.51 0 -17.52 0 -17.51 0 -17.52 0 -17.51 0 -17.51 0 -17.52 0 -17.51 0 -17.52 0zm227.68 17.51l0 17.51 0 17.52 0 17.51 0 17.52 0 17.51 0 17.51 0 17.52 0 17.51 0 17.52 0 17.51 0 17.51 -17.51 0 -17.51 0 -17.52 0 -17.51 0 -17.51 0 -17.52 0 -17.51 0 -17.52 0 -17.51 0 -17.51 0 -17.52 0 -17.51 0 -17.52 0 -17.51 0 -17.51 0 -17.52 0 -17.51 0 -17.51 0 0 -17.51 0 -17.51 0 -17.52 0 -17.51 0 -17.52 0 -17.51 0 -17.51 0 -17.52 0 -17.51 0 -17.52 0 -17.51 0 -17.51 0 -17.52 17.51 0 17.51 0 17.52 0 17.51 0 17.51 0 17.52 0 17.51 0 17.52 0 17.51 0 17.51 0 17.52 0 17.51 0 17.52 0 17.51 0 17.51 0 17.52 0 17.51 0 17.51 0 0 17.52 0 17.51z"/>
 </g>
</svg>
