<?xml version="1.0" encoding="UTF-8"?>
<!DOCTYPE svg PUBLIC "-//W3C//DTD SVG 1.1//EN" "http://www.w3.org/Graphics/SVG/1.1/DTD/svg11.dtd">
<!-- Creator: CorelDRAW 2020 (64-Bit) -->
<svg xmlns="http://www.w3.org/2000/svg" xml:space="preserve" width="394px" height="304px" version="1.1" shape-rendering="geometricPrecision" text-rendering="geometricPrecision" image-rendering="optimizeQuality" fill-rule="evenodd" clip-rule="evenodd"
viewBox="0 0 120.65 93.18"
 xmlns:xlink="http://www.w3.org/1999/xlink"
 xmlns:xodm="http://www.corel.com/coreldraw/odm/2003">
 <g id="Layer_x0020_1">
  <metadata id="CorelCorpID_0Corel-Layer"/>
  <polygon fill="#DEB0FF" points="16.44,0 21.93,0 104.2,0 109.69,0 115.17,0 115.17,5.48 120.65,5.48 120.65,87.7 115.17,87.7 115.17,93.18 109.69,93.18 104.2,93.18 21.93,93.18 16.44,93.18 10.96,93.18 5.48,93.18 5.48,87.7 0,87.7 0,5.48 5.48,5.48 5.48,0 10.96,0 "/>
  <path fill="#440079" d="M38.4 16.44l-5.48 0 -5.48 0 -5.49 0 -5.48 0 0 5.48 0 5.49 0 5.48 0 5.48 0 5.48 0 5.48 0 5.48 0 5.49 0 5.48 0 5.48 0 5.48 5.48 0 5.49 0 5.48 0 5.48 0 5.48 0 5.48 0 5.48 0 5.48 0 5.49 0 5.48 0 5.48 0 5.48 0 5.48 0 5.48 0 5.49 0 5.48 0 0 -5.48 0 -5.48 0 -5.48 0 -5.49 0 -5.48 0 -5.48 0 -5.48 0 -5.48 0 -5.48 0 -5.49 0 -5.48 -5.48 0 -5.49 0 -5.48 0 -5.48 0 -5.48 0 -5.48 0 -5.48 0 -5.49 0 -5.48 0 -5.48 0 -5.48 0 -5.48 0zm71.26 5.48l0 5.49 0 5.48 0 5.48 0 5.48 0 5.48 0 5.48 0 5.49 0 5.48 0 5.48 0 5.48 0 5.48 -5.48 0 -5.48 0 -5.49 0 -5.48 0 -5.48 0 -5.48 0 -5.48 0 -5.48 0 -5.49 0 -5.48 0 -5.48 0 -5.48 0 -5.48 0 -5.48 0 -5.48 0 -5.49 0 -5.48 0 -5.48 0 0 -5.48 0 -5.48 0 -5.48 0 -5.48 0 -5.49 0 -5.48 0 -5.48 0 -5.48 0 -5.48 0 -5.48 0 -5.49 0 -5.48 0 -5.48 5.48 0 5.48 0 5.49 0 5.48 0 5.48 0 5.48 0 5.48 0 5.48 0 5.48 0 5.49 0 5.48 0 5.48 0 5.48 0 5.48 0 5.48 0 5.49 0 5.48 0 5.48 0 0 5.48 0 5.48z"/>
  <polygon fill="#C479FF" points="21.95,60.3 16.47,60.3 16.47,54.81 21.95,54.81 21.95,49.33 27.44,49.33 27.44,43.85 32.92,43.85 32.92,38.37 38.4,38.37 38.4,32.89 43.88,32.89 49.36,32.89 54.84,32.89 60.32,32.89 60.32,38.37 65.81,38.37 65.81,43.85 71.29,43.85 71.29,49.33 76.77,49.33 76.77,43.85 82.25,43.85 82.25,38.37 87.73,38.37 93.21,38.37 98.7,38.37 98.7,43.85 104.18,43.85 104.18,49.33 98.7,49.33 98.7,43.85 93.21,43.85 87.73,43.85 82.25,43.85 82.25,49.33 76.77,49.33 76.77,54.81 82.25,54.81 82.25,60.3 87.73,60.3 87.73,65.78 93.21,65.78 93.21,71.26 87.73,71.26 87.73,65.78 82.25,65.78 82.25,60.3 76.77,60.3 76.77,54.81 71.29,54.81 71.29,49.33 65.81,49.33 65.81,43.85 60.32,43.85 60.32,38.37 54.84,38.37 49.36,38.37 43.88,38.37 38.4,38.37 38.4,43.85 32.92,43.85 32.92,49.33 27.44,49.33 27.44,54.81 21.95,54.81 "/>
  <path fill="#E6E6E6" d="M60.32 43.85l-5.48 0 0 -5.48 5.48 0 0 5.48 5.49 0 0 5.48 5.48 0 0 5.48 5.48 0 0 5.49 5.48 0 0 5.48 5.48 0 0 5.48 -5.48 0 0 -5.48 -5.48 0 0 -5.48 -5.48 0 0 -5.49 -5.48 0 0 -5.48 -5.49 0 0 -5.48zm38.38 5.48l-5.49 0 -5.48 0 -5.48 0 0 -5.48 5.48 0 5.48 0 5.49 0 0 5.48 5.48 0 0 5.48 -5.48 0 0 -5.48z"/>
  <polygon fill="#B352FF" points="21.95,76.74 16.47,76.74 16.47,60.3 21.95,60.3 21.95,54.81 27.44,54.81 27.44,49.33 32.92,49.33 32.92,43.85 38.4,43.85 38.4,38.37 54.84,38.37 54.84,43.85 60.32,43.85 60.32,49.33 65.81,49.33 65.81,54.81 71.29,54.81 71.29,60.3 76.77,60.3 76.77,65.78 82.25,65.78 82.25,71.26 93.21,71.26 93.21,65.78 87.73,65.78 87.73,60.3 82.25,60.3 82.25,54.81 76.77,54.81 76.77,49.33 98.7,49.33 98.7,54.81 104.18,54.81 104.18,60.3 104.18,65.78 104.18,71.26 104.18,76.74 82.25,76.74 76.77,76.74 71.29,76.74 65.81,76.74 60.32,76.74 54.84,76.74 38.4,76.74 32.92,76.74 27.44,76.74 "/>
  <polygon fill="#26BF35" points="16.47,16.44 21.95,16.44 27.44,16.44 32.92,16.44 38.4,16.44 60.32,16.44 65.81,16.44 71.29,16.44 72.77,16.44 76.77,16.44 98.7,16.44 104.18,16.44 104.18,43.85 98.7,43.85 98.7,38.37 82.25,38.37 82.25,43.85 76.77,43.85 76.77,49.33 71.29,49.33 71.29,43.85 68.74,43.85 65.81,43.85 65.81,38.37 60.32,38.37 60.32,32.89 38.4,32.89 38.4,38.37 32.92,38.37 32.92,43.85 27.44,43.85 27.44,49.33 21.95,49.33 21.95,54.81 16.47,54.81 "/>
 </g>
</svg>
