<?xml version="1.0" encoding="UTF-8"?>
<!DOCTYPE svg PUBLIC "-//W3C//DTD SVG 1.1//EN" "http://www.w3.org/Graphics/SVG/1.1/DTD/svg11.dtd">
<!-- Creator: CorelDRAW 2020 (64-Bit) -->
<svg xmlns="http://www.w3.org/2000/svg" xml:space="preserve" width="232px" height="304px" version="1.1" shape-rendering="geometricPrecision" text-rendering="geometricPrecision" image-rendering="optimizeQuality" fill-rule="evenodd" clip-rule="evenodd"
viewBox="0 0 22.85 29.88"
 xmlns:xlink="http://www.w3.org/1999/xlink"
 xmlns:xodm="http://www.corel.com/coreldraw/odm/2003">
 <g id="Layer_x0020_1">
  <metadata id="CorelCorpID_0Corel-Layer"/>
  <polygon fill="#DEB0FF" points="1.76,0 21.09,0 21.09,1.76 22.85,1.76 22.85,28.12 21.09,28.12 21.09,29.88 1.76,29.88 1.76,28.12 0,28.12 0,1.76 1.76,1.76 "/>
  <polygon fill="#440079" points="7.03,26.36 8.79,26.36 10.54,26.36 10.54,24.61 10.54,22.85 10.54,21.09 12.3,21.09 12.3,19.33 12.3,17.58 12.3,15.82 14.06,15.82 14.06,14.06 14.06,12.3 14.06,10.55 14.06,8.79 15.82,8.79 15.82,7.03 15.82,5.27 15.82,3.51 14.06,3.51 12.3,3.51 12.3,5.27 12.3,7.03 12.3,8.79 10.54,8.79 10.54,10.55 10.54,12.3 10.54,14.06 10.54,15.82 8.79,15.82 8.79,17.58 8.79,19.33 8.79,21.09 7.03,21.09 7.03,22.85 7.03,24.61 "/>
 </g>
</svg>
