<?xml version="1.0" encoding="UTF-8"?>
<!DOCTYPE svg PUBLIC "-//W3C//DTD SVG 1.1//EN" "http://www.w3.org/Graphics/SVG/1.1/DTD/svg11.dtd">
<!-- Creator: CorelDRAW 2020 (64-Bit) -->
<svg xmlns="http://www.w3.org/2000/svg" xml:space="preserve" width="751px" height="304px" version="1.1" shape-rendering="geometricPrecision" text-rendering="geometricPrecision" image-rendering="optimizeQuality" fill-rule="evenodd" clip-rule="evenodd"
viewBox="0 0 160.36 64.91"
 xmlns:xlink="http://www.w3.org/1999/xlink"
 xmlns:xodm="http://www.corel.com/coreldraw/odm/2003">
 <defs>
   <clipPath id="id0">
    <path d="M3.82 7.64l3.82 0 0 -3.82 145.08 0 0 3.82 3.82 0 0 49.63 -3.82 0 0 3.82 -145.08 0 0 -3.82 -3.82 0 0 -49.63z"/>
   </clipPath>
 </defs>
 <g id="Layer_x0020_1">
  <metadata id="CorelCorpID_0Corel-Layer"/>
  <polygon fill="#F58024" points="3.82,7.64 7.64,7.64 7.64,3.82 152.72,3.82 152.72,7.64 156.54,7.64 156.54,57.27 152.72,57.27 152.72,61.09 7.64,61.09 7.64,57.27 3.82,57.27 "/>
  <g clip-path="url(#id0)">
   <g id="_2349566345280">
    <rect fill="#FBB149" x="-12.99" y="32.46" width="169.54" height="42.31"/>
   </g>
  </g>
  <polygon fill="none" points="3.82,7.64 7.64,7.64 7.64,3.82 152.72,3.82 152.72,7.64 156.54,7.64 156.54,57.27 152.72,57.27 152.72,61.09 7.64,61.09 7.64,57.27 3.82,57.27 "/>
  <path fill="red" fill-rule="nonzero" fill-opacity="0.200000" d="M38.2 52.82l-2.55 0 0 -2.54 0 -2.55 0 -2.54 0 -2.55 0 -2.55 0 -2.54 -2.55 0 -2.54 0 -2.55 0 -2.55 0 -2.54 0 0 2.54 0 2.55 0 2.55 0 2.54 0 2.55 0 2.54 -2.55 0 -2.54 0 0 -2.54 0 -2.55 0 -2.54 0 -2.55 0 -2.55 0 -2.54 0 -2.55 0 -2.55 0 -2.54 0 -2.55 2.54 0 2.55 0 0 2.55 0 2.54 2.54 0 2.55 0 2.55 0 2.54 0 2.55 0 0 -2.54 0 -2.55 2.55 0 2.54 0 0 2.55 0 2.54 0 2.55 0 2.55 0 2.54 0 2.55 0 2.55 0 2.54 0 2.55 0 2.54 -2.54 0zm-2.55 -25.46l-2.55 0 -2.54 0 -2.55 0 -2.55 0 -2.54 0 0 -2.54 0 -2.55 2.54 0 2.55 0 2.55 0 2.54 0 2.55 0 0 2.55 0 2.54zm25.46 25.46l-2.54 0 -2.55 0 -2.55 0 -2.54 0 -2.55 0 -2.55 0 -2.54 0 0 -2.54 0 -2.55 0 -2.54 0 -2.55 0 -2.55 0 -2.54 0 -2.55 0 -2.55 0 -2.54 0 -2.55 0 -2.54 0 -2.55 2.54 0 2.55 0 2.55 0 2.54 0 2.55 0 2.55 0 2.54 0 2.55 0 0 2.55 0 2.54 2.55 0 2.54 0 0 2.55 0 2.54 0 2.55 0 2.55 0 2.54 0 2.55 0 2.55 0 2.54 -2.54 0 -2.55 0 0 -2.54 0 -2.55 0 -2.55 0 -2.54 0 -2.55 0 -2.55 0 -2.54 0 -2.55 -2.55 0 -2.54 0 -2.55 0 -2.55 0 -2.54 0 -2.55 0 0 2.55 0 2.54 0 2.55 0 2.55 0 2.54 0 2.55 0 2.55 0 2.54 2.55 0 2.54 0 2.55 0 2.55 0 2.54 0 2.55 0 0 2.55 0 2.54 -2.55 0zm33.1 0l-2.54 0 0 -2.54 0 -2.55 0 -2.54 0 -2.55 0 -2.55 0 -2.54 0 -2.55 0 -2.55 -2.55 0 -2.54 0 0 2.55 0 2.55 -2.55 0 -2.55 0 0 -2.55 0 -2.55 2.55 0 2.55 0 0 -2.54 0 -2.55 2.54 0 2.55 0 0 -2.54 0 -2.55 2.54 0 2.55 0 0 2.55 0 2.54 0 2.55 0 2.54 0 2.55 0 2.55 0 2.54 0 2.55 0 2.55 0 2.54 0 2.55 0 2.54 -2.55 0zm-20.37 0l-2.54 0 0 -2.54 0 -2.55 0 -2.54 0 -2.55 0 -2.55 0 -2.54 0 -2.55 0 -2.55 0 -2.54 0 -2.55 0 -2.54 0 -2.55 2.54 0 2.55 0 0 2.55 0 2.54 2.55 0 2.54 0 0 2.55 0 2.54 -2.54 0 -2.55 0 0 2.55 0 2.55 0 2.54 0 2.55 0 2.55 0 2.54 0 2.55 0 2.54 -2.55 0zm35.65 0l-2.54 0 -2.55 0 -2.55 0 0 -2.54 0 -2.55 2.55 0 0 -2.54 0 -2.55 0 -2.55 0 -2.54 0 -2.55 0 -2.55 0 -2.54 0 -2.55 -2.55 0 0 -2.54 0 -2.55 2.55 0 2.55 0 2.54 0 2.55 0 0 2.55 0 2.54 -2.55 0 0 2.55 0 2.54 0 2.55 0 2.55 0 2.54 0 2.55 0 2.55 0 2.54 2.55 0 0 2.55 0 2.54 -2.55 0zm28.01 0l-2.55 0 0 -2.54 0 -2.55 0 -2.54 0 -2.55 0 -2.55 -2.54 0 -2.55 0 0 -2.54 0 -2.55 2.55 0 2.54 0 0 -2.55 0 -2.54 0 -2.55 0 -2.54 0 -2.55 2.55 0 2.55 0 0 2.55 0 2.54 0 2.55 0 2.54 0 2.55 0 2.55 0 2.54 0 2.55 0 2.55 0 2.54 0 2.55 0 2.54 -2.55 0zm-20.37 0l-2.55 0 0 -2.54 0 -2.55 0 -2.54 0 -2.55 0 -2.55 0 -2.54 0 -2.55 0 -2.55 0 -2.54 0 -2.55 0 -2.54 0 -2.55 2.55 0 2.55 0 0 2.55 2.54 0 2.55 0 0 2.54 0 2.55 2.55 0 2.54 0 0 2.54 0 2.55 -2.54 0 -2.55 0 0 -2.55 0 -2.54 -2.55 0 -2.54 0 0 2.54 0 2.55 0 2.55 0 2.54 0 2.55 0 2.55 0 2.54 0 2.55 0 2.54 -2.55 0z"/>
  <path fill="#FAFAFA" fill-rule="nonzero" d="M38.2 47.73l-2.55 0 0 -2.54 0 -2.55 0 -2.55 0 -2.54 0 -2.55 0 -2.55 -2.55 0 -2.54 0 -2.55 0 -2.55 0 -2.54 0 0 2.55 0 2.55 0 2.54 0 2.55 0 2.55 0 2.54 -2.55 0 -2.54 0 0 -2.54 0 -2.55 0 -2.55 0 -2.54 0 -2.55 0 -2.55 0 -2.54 0 -2.55 0 -2.54 0 -2.55 2.54 0 2.55 0 0 2.55 0 2.54 2.54 0 2.55 0 2.55 0 2.54 0 2.55 0 0 -2.54 0 -2.55 2.55 0 2.54 0 0 2.55 0 2.54 0 2.55 0 2.54 0 2.55 0 2.55 0 2.54 0 2.55 0 2.55 0 2.54 -2.54 0zm-2.55 -25.46l-2.55 0 -2.54 0 -2.55 0 -2.55 0 -2.54 0 0 -2.55 0 -2.54 2.54 0 2.55 0 2.55 0 2.54 0 2.55 0 0 2.54 0 2.55zm25.46 25.46l-2.54 0 -2.55 0 -2.55 0 -2.54 0 -2.55 0 -2.55 0 -2.54 0 0 -2.54 0 -2.55 0 -2.55 0 -2.54 0 -2.55 0 -2.55 0 -2.54 0 -2.55 0 -2.54 0 -2.55 0 -2.55 0 -2.54 2.54 0 2.55 0 2.55 0 2.54 0 2.55 0 2.55 0 2.54 0 2.55 0 0 2.54 0 2.55 2.55 0 2.54 0 0 2.55 0 2.54 0 2.55 0 2.54 0 2.55 0 2.55 0 2.54 0 2.55 -2.54 0 -2.55 0 0 -2.55 0 -2.54 0 -2.55 0 -2.55 0 -2.54 0 -2.55 0 -2.54 0 -2.55 -2.55 0 -2.54 0 -2.55 0 -2.55 0 -2.54 0 -2.55 0 0 2.55 0 2.54 0 2.55 0 2.54 0 2.55 0 2.55 0 2.54 0 2.55 2.55 0 2.54 0 2.55 0 2.55 0 2.54 0 2.55 0 0 2.55 0 2.54 -2.55 0zm33.1 0l-2.54 0 0 -2.54 0 -2.55 0 -2.55 0 -2.54 0 -2.55 0 -2.55 0 -2.54 0 -2.55 -2.55 0 -2.54 0 0 2.55 0 2.54 -2.55 0 -2.55 0 0 -2.54 0 -2.55 2.55 0 2.55 0 0 -2.54 0 -2.55 2.54 0 2.55 0 0 -2.55 0 -2.54 2.54 0 2.55 0 0 2.54 0 2.55 0 2.55 0 2.54 0 2.55 0 2.54 0 2.55 0 2.55 0 2.54 0 2.55 0 2.55 0 2.54 -2.55 0zm-20.37 0l-2.54 0 0 -2.54 0 -2.55 0 -2.55 0 -2.54 0 -2.55 0 -2.55 0 -2.54 0 -2.55 0 -2.54 0 -2.55 0 -2.55 0 -2.54 2.54 0 2.55 0 0 2.54 0 2.55 2.55 0 2.54 0 0 2.55 0 2.54 -2.54 0 -2.55 0 0 2.55 0 2.54 0 2.55 0 2.55 0 2.54 0 2.55 0 2.55 0 2.54 -2.55 0zm35.65 0l-2.54 0 -2.55 0 -2.55 0 0 -2.54 0 -2.55 2.55 0 0 -2.55 0 -2.54 0 -2.55 0 -2.55 0 -2.54 0 -2.55 0 -2.54 0 -2.55 -2.55 0 0 -2.55 0 -2.54 2.55 0 2.55 0 2.54 0 2.55 0 0 2.54 0 2.55 -2.55 0 0 2.55 0 2.54 0 2.55 0 2.54 0 2.55 0 2.55 0 2.54 0 2.55 2.55 0 0 2.55 0 2.54 -2.55 0zm28.01 0l-2.55 0 0 -2.54 0 -2.55 0 -2.55 0 -2.54 0 -2.55 -2.54 0 -2.55 0 0 -2.55 0 -2.54 2.55 0 2.54 0 0 -2.55 0 -2.54 0 -2.55 0 -2.55 0 -2.54 2.55 0 2.55 0 0 2.54 0 2.55 0 2.55 0 2.54 0 2.55 0 2.54 0 2.55 0 2.55 0 2.54 0 2.55 0 2.55 0 2.54 -2.55 0zm-20.37 0l-2.55 0 0 -2.54 0 -2.55 0 -2.55 0 -2.54 0 -2.55 0 -2.55 0 -2.54 0 -2.55 0 -2.54 0 -2.55 0 -2.55 0 -2.54 2.55 0 2.55 0 0 2.54 2.54 0 2.55 0 0 2.55 0 2.55 2.55 0 2.54 0 0 2.54 0 2.55 -2.54 0 -2.55 0 0 -2.55 0 -2.54 -2.55 0 -2.54 0 0 2.54 0 2.55 0 2.54 0 2.55 0 2.55 0 2.54 0 2.55 0 2.55 0 2.54 -2.55 0z"/>
  <path fill="#FB7305" d="M3.82 11.45l0 -1.9 0 -1.91 3.82 0 0 -3.82 1.91 0 1.9 0 137.46 0 1.91 0 1.9 0 0 3.82 3.82 0 0 1.91 0 1.9 0 42.01 0 1.9 0 1.91 -3.82 0 0 3.82 -2.66 0 -1.15 0 -137.46 0 -1.9 0 -1.91 0 0 -3.82 -3.82 0 0 -1.91 0 -1.9 0 -42.01zm156.54 0l0 -1.9 0 -1.91 -3.82 0 0 -3.82 -3.82 0 0 -3.82 -1.9 0 -1.91 0 -137.46 0 -1.9 0 -1.91 0 0 3.82 -3.82 0 0 3.82 -3.82 0 0 1.91 0 1.9 0 42.01 0 1.9 0 1.91 3.82 0 0 3.82 3.82 0 0 3.82 1.91 0 1.9 0 137.46 0 1.15 0 2.66 0 0 -3.82 3.82 0 0 -3.82 3.82 0 0 -1.91 0 -1.9 0 -42.01z"/>
 </g>
</svg>
