<?xml version="1.0" encoding="UTF-8"?>
<!DOCTYPE svg PUBLIC "-//W3C//DTD SVG 1.1//EN" "http://www.w3.org/Graphics/SVG/1.1/DTD/svg11.dtd">
<!-- Creator: CorelDRAW 2020 (64-Bit) -->
<svg xmlns="http://www.w3.org/2000/svg" xml:space="preserve" width="939px" height="304px" version="1.1" shape-rendering="geometricPrecision" text-rendering="geometricPrecision" image-rendering="optimizeQuality" fill-rule="evenodd" clip-rule="evenodd"
viewBox="0 0 3315.19 1073.85"
 xmlns:xlink="http://www.w3.org/1999/xlink"
 xmlns:xodm="http://www.corel.com/coreldraw/odm/2003">
 <defs>
   <clipPath id="id0">
    <path d="M63.17 126.33l63.16 0 0 -63.16 3062.53 0 0 63.16 63.17 0 0 821.18 -63.17 0 0 63.17 -3062.53 0 0 -63.17 -63.16 0 0 -821.18z"/>
   </clipPath>
 </defs>
 <g id="Layer_x0020_1">
  <metadata id="CorelCorpID_0Corel-Layer"/>
  <polygon fill="gray" points="63.17,126.33 126.33,126.33 126.33,63.17 3188.86,63.17 3188.86,126.33 3252.03,126.33 3252.03,947.51 3188.86,947.51 3188.86,1010.68 126.33,1010.68 126.33,947.51 63.17,947.51 "/>
  <g clip-path="url(#id0)">
   <g id="_1573260879616">
    <rect fill="#666666" x="-214.97" y="536.93" width="4981.63" height="700.04"/>
   </g>
  </g>
  <polygon fill="none" points="63.17,126.33 126.33,126.33 126.33,63.17 3188.86,63.17 3188.86,126.33 3252.03,126.33 3252.03,947.51 3188.86,947.51 3188.86,1010.68 126.33,1010.68 126.33,947.51 63.17,947.51 "/>
  <path fill="#4D4D4D" d="M63.17 189.5l0 -31.59 0 -31.58 63.16 0 0 -63.16 31.58 0 31.59 0 2936.19 0 31.59 0 31.58 0 0 63.16 63.17 0 0 31.58 0 31.59 0 694.85 0 31.58 0 31.58 -63.17 0 0 63.17 -44.06 0 -19.11 0 -2936.19 0 -31.59 0 -31.58 0 0 -63.17 -63.16 0 0 -31.58 0 -31.58 0 -694.85zm3252.02 0l0 -31.59 0 -31.58 -63.16 0 0 -63.16 -63.17 0 0 -63.17 -31.58 0 -31.59 0 -2936.19 0 -31.59 0 -31.58 0 0 63.17 -63.16 0 0 63.16 -63.17 0 0 31.58 0 31.59 0 694.85 0 31.58 0 31.58 63.17 0 0 63.17 63.16 0 0 63.17 31.58 0 31.59 0 2936.19 0 19.11 0 44.06 0 0 -63.17 63.17 0 0 -63.17 63.16 0 0 -31.58 0 -31.58 0 -694.85z"/>
  <path fill="black" fill-rule="nonzero" fill-opacity="0.301961" d="M625.55 873.92l-42.12 0 0 -42.12 0 -42.13 0 -42.12 0 -42.13 0 -42.12 0 -42.13 0 -42.12 0 -42.12 -42.13 0 -42.12 0 0 42.12 0 42.12 -42.12 0 -42.13 0 0 -42.12 0 -42.12 42.13 0 42.12 0 0 -42.13 0 -42.12 42.12 0 42.13 0 0 -42.12 0 -42.13 42.12 0 42.12 0 0 42.13 0 42.12 0 42.12 0 42.13 0 42.12 0 42.12 0 42.13 0 42.12 0 42.13 0 42.12 0 42.13 0 42.12 -42.12 0zm-336.99 0l-42.13 0 0 -42.12 0 -42.13 0 -42.12 0 -42.13 0 -42.12 0 -42.13 0 -42.12 0 -42.12 0 -42.13 0 -42.12 0 -42.12 0 -42.13 42.13 0 42.12 0 0 42.13 0 42.12 42.13 0 42.12 0 0 42.12 0 42.13 -42.12 0 -42.13 0 0 42.12 0 42.12 0 42.13 0 42.12 0 42.13 0 42.12 0 42.13 0 42.12 -42.12 0zm800.35 0l-42.12 0 -42.12 0 -42.13 0 -42.12 0 -42.12 0 -42.13 0 -42.12 0 -42.13 0 -42.12 0 0 -42.12 0 -42.13 0 -42.12 0 -42.13 0 -42.12 0 -42.13 0 -42.12 0 -42.12 0 -42.13 0 -42.12 0 -42.12 0 -42.13 42.12 0 42.13 0 42.12 0 42.13 0 42.12 0 42.12 0 42.13 0 42.12 0 42.12 0 42.13 0 0 42.13 0 42.12 -42.13 0 -42.12 0 -42.12 0 -42.13 0 -42.12 0 -42.12 0 -42.13 0 -42.12 0 0 42.12 0 42.13 42.12 0 42.13 0 42.12 0 0 42.12 0 42.12 -42.12 0 -42.13 0 -42.12 0 0 42.13 0 42.12 0 42.13 0 42.12 42.12 0 42.13 0 42.12 0 42.12 0 42.13 0 42.12 0 42.12 0 42.13 0 0 42.13 0 42.12 -42.13 0zm463.37 0l-42.13 0 0 -42.12 0 -42.13 0 -42.12 0 -42.13 0 -42.12 0 -42.13 0 -42.12 0 -42.12 -42.12 0 -42.12 0 0 42.12 0 42.12 -42.13 0 -42.12 0 0 -42.12 0 -42.12 42.12 0 42.13 0 0 -42.13 0 -42.12 42.12 0 42.12 0 0 -42.12 0 -42.13 42.13 0 42.12 0 0 42.13 0 42.12 0 42.12 0 42.13 0 42.12 0 42.12 0 42.13 0 42.12 0 42.13 0 42.12 0 42.13 0 42.12 -42.12 0zm-336.99 0l-42.13 0 0 -42.12 0 -42.13 0 -42.12 0 -42.13 0 -42.12 0 -42.13 0 -42.12 0 -42.12 0 -42.13 0 -42.12 0 -42.12 0 -42.13 42.13 0 42.12 0 0 42.13 0 42.12 42.12 0 42.13 0 0 42.12 0 42.13 -42.13 0 -42.12 0 0 42.12 0 42.12 0 42.13 0 42.12 0 42.13 0 42.12 0 42.13 0 42.12 -42.12 0zm716.1 0l-42.12 0 -42.12 0 -42.13 0 -42.12 0 -42.13 0 -42.12 0 -42.12 0 0 -42.12 0 -42.13 0 -42.12 0 -42.13 0 -42.12 0 -42.13 0 -42.12 0 -42.12 0 -42.13 0 -42.12 0 -42.12 0 -42.13 42.12 0 42.12 0 42.13 0 42.12 0 42.13 0 42.12 0 42.12 0 42.12 0 0 42.13 0 42.12 42.13 0 42.12 0 0 42.12 0 42.13 0 42.12 -42.12 0 -42.13 0 0 -42.12 0 -42.13 0 -42.12 -42.12 0 -42.12 0 -42.12 0 -42.13 0 -42.12 0 -42.13 0 0 42.12 0 42.13 0 42.12 42.13 0 42.12 0 42.13 0 42.12 0 42.12 0 42.12 0 0 42.12 0 42.13 42.13 0 42.12 0 0 42.12 0 42.13 0 42.12 -42.12 0 -42.13 0 0 -42.12 0 -42.13 0 -42.12 -42.12 0 -42.12 0 -42.12 0 -42.13 0 -42.12 0 -42.13 0 0 42.12 0 42.13 0 42.12 42.13 0 42.12 0 42.13 0 42.12 0 42.12 0 42.12 0 0 42.13 0 42.12 -42.12 0zm547.61 0l-42.12 0 -42.12 0 -42.13 0 -42.12 0 -42.13 0 -42.12 0 -42.13 0 -42.12 0 -42.13 0 0 -42.12 0 -42.13 0 -42.12 0 -42.13 0 -42.12 0 -42.13 0 -42.12 0 -42.12 0 -42.13 0 -42.12 0 -42.12 0 -42.13 42.13 0 42.12 0 42.13 0 42.12 0 42.13 0 42.12 0 42.13 0 42.12 0 42.12 0 42.12 0 0 42.13 0 42.12 -42.12 0 -42.12 0 -42.12 0 -42.13 0 -42.12 0 -42.13 0 -42.12 0 -42.13 0 0 42.12 0 42.13 42.13 0 42.12 0 42.13 0 0 42.12 0 42.12 -42.13 0 -42.12 0 -42.13 0 0 42.13 0 42.12 0 42.13 0 42.12 42.13 0 42.12 0 42.13 0 42.12 0 42.13 0 42.12 0 42.12 0 42.12 0 0 42.13 0 42.12 -42.12 0zm547.61 0l-42.12 0 0 -42.12 0 -42.13 42.12 0 42.13 0 0 42.13 0 42.12 -42.13 0zm-421.24 0l-42.12 0 0 -42.12 0 -42.13 0 -42.12 0 -42.13 0 -42.12 0 -42.13 0 -42.12 0 -42.12 0 -42.13 0 -42.12 0 -42.12 0 -42.13 42.12 0 42.13 0 42.12 0 42.13 0 42.12 0 42.12 0 42.13 0 42.12 0 42.12 0 0 42.13 0 42.12 42.13 0 42.12 0 0 42.12 0 42.13 -42.12 0 -42.13 0 0 -42.13 0 -42.12 -42.12 0 -42.12 0 -42.13 0 -42.12 0 -42.12 0 -42.13 0 -42.12 0 0 42.12 0 42.13 42.12 0 42.13 0 42.12 0 42.12 0 42.13 0 42.12 0 42.12 0 0 42.12 0 42.12 -42.12 0 0 42.13 0 42.12 42.12 0 42.13 0 0 42.13 0 42.12 -42.13 0 -42.12 0 0 -42.12 0 -42.13 -42.12 0 -42.13 0 0 -42.12 0 -42.13 -42.12 0 -42.12 0 -42.13 0 -42.12 0 0 42.13 0 42.12 0 42.13 0 42.12 0 42.13 0 42.12 -42.13 0z"/>
  <path fill="white" fill-rule="nonzero" d="M625.55 789.67l-42.12 0 0 -42.12 0 -42.13 0 -42.12 0 -42.13 0 -42.12 0 -42.13 0 -42.12 0 -42.12 -42.13 0 -42.12 0 0 42.12 0 42.12 -42.12 0 -42.13 0 0 -42.12 0 -42.12 42.13 0 42.12 0 0 -42.12 0 -42.13 42.12 0 42.13 0 0 -42.12 0 -42.13 42.12 0 42.12 0 0 42.13 0 42.12 0 42.13 0 42.12 0 42.12 0 42.12 0 42.13 0 42.12 0 42.13 0 42.12 0 42.13 0 42.12 -42.12 0zm-336.99 0l-42.13 0 0 -42.12 0 -42.13 0 -42.12 0 -42.13 0 -42.12 0 -42.13 0 -42.12 0 -42.12 0 -42.12 0 -42.13 0 -42.12 0 -42.13 42.13 0 42.12 0 0 42.13 0 42.12 42.13 0 42.12 0 0 42.13 0 42.12 -42.12 0 -42.13 0 0 42.12 0 42.12 0 42.13 0 42.12 0 42.13 0 42.12 0 42.13 0 42.12 -42.12 0zm800.35 0l-42.12 0 -42.12 0 -42.13 0 -42.12 0 -42.12 0 -42.13 0 -42.12 0 -42.13 0 -42.12 0 0 -42.12 0 -42.13 0 -42.12 0 -42.13 0 -42.12 0 -42.13 0 -42.12 0 -42.12 0 -42.12 0 -42.13 0 -42.12 0 -42.13 42.12 0 42.13 0 42.12 0 42.13 0 42.12 0 42.12 0 42.13 0 42.12 0 42.12 0 42.13 0 0 42.13 0 42.12 -42.13 0 -42.12 0 -42.12 0 -42.13 0 -42.12 0 -42.12 0 -42.13 0 -42.12 0 0 42.13 0 42.12 42.12 0 42.13 0 42.12 0 0 42.12 0 42.12 -42.12 0 -42.13 0 -42.12 0 0 42.13 0 42.12 0 42.13 0 42.12 42.12 0 42.13 0 42.12 0 42.12 0 42.13 0 42.12 0 42.12 0 42.13 0 0 42.13 0 42.12 -42.13 0zm463.37 0l-42.13 0 0 -42.12 0 -42.13 0 -42.12 0 -42.13 0 -42.12 0 -42.13 0 -42.12 0 -42.12 -42.12 0 -42.12 0 0 42.12 0 42.12 -42.13 0 -42.12 0 0 -42.12 0 -42.12 42.12 0 42.13 0 0 -42.12 0 -42.13 42.12 0 42.12 0 0 -42.12 0 -42.13 42.13 0 42.12 0 0 42.13 0 42.12 0 42.13 0 42.12 0 42.12 0 42.12 0 42.13 0 42.12 0 42.13 0 42.12 0 42.13 0 42.12 -42.12 0zm-336.99 0l-42.13 0 0 -42.12 0 -42.13 0 -42.12 0 -42.13 0 -42.12 0 -42.13 0 -42.12 0 -42.12 0 -42.12 0 -42.13 0 -42.12 0 -42.13 42.13 0 42.12 0 0 42.13 0 42.12 42.12 0 42.13 0 0 42.13 0 42.12 -42.13 0 -42.12 0 0 42.12 0 42.12 0 42.13 0 42.12 0 42.13 0 42.12 0 42.13 0 42.12 -42.12 0zm716.1 0l-42.12 0 -42.12 0 -42.13 0 -42.12 0 -42.13 0 -42.12 0 -42.12 0 0 -42.12 0 -42.13 0 -42.12 0 -42.13 0 -42.12 0 -42.13 0 -42.12 0 -42.12 0 -42.12 0 -42.13 0 -42.12 0 -42.13 42.12 0 42.12 0 42.13 0 42.12 0 42.13 0 42.12 0 42.12 0 42.12 0 0 42.13 0 42.12 42.13 0 42.12 0 0 42.13 0 42.12 0 42.12 -42.12 0 -42.13 0 0 -42.12 0 -42.12 0 -42.13 -42.12 0 -42.12 0 -42.12 0 -42.13 0 -42.12 0 -42.13 0 0 42.13 0 42.12 0 42.12 42.13 0 42.12 0 42.13 0 42.12 0 42.12 0 42.12 0 0 42.12 0 42.13 42.13 0 42.12 0 0 42.12 0 42.13 0 42.12 -42.12 0 -42.13 0 0 -42.12 0 -42.13 0 -42.12 -42.12 0 -42.12 0 -42.12 0 -42.13 0 -42.12 0 -42.13 0 0 42.12 0 42.13 0 42.12 42.13 0 42.12 0 42.13 0 42.12 0 42.12 0 42.12 0 0 42.13 0 42.12 -42.12 0zm547.61 0l-42.12 0 -42.12 0 -42.13 0 -42.12 0 -42.13 0 -42.12 0 -42.13 0 -42.12 0 -42.13 0 0 -42.12 0 -42.13 0 -42.12 0 -42.13 0 -42.12 0 -42.13 0 -42.12 0 -42.12 0 -42.12 0 -42.13 0 -42.12 0 -42.13 42.13 0 42.12 0 42.13 0 42.12 0 42.13 0 42.12 0 42.13 0 42.12 0 42.12 0 42.12 0 0 42.13 0 42.12 -42.12 0 -42.12 0 -42.12 0 -42.13 0 -42.12 0 -42.13 0 -42.12 0 -42.13 0 0 42.13 0 42.12 42.13 0 42.12 0 42.13 0 0 42.12 0 42.12 -42.13 0 -42.12 0 -42.13 0 0 42.13 0 42.12 0 42.13 0 42.12 42.13 0 42.12 0 42.13 0 42.12 0 42.13 0 42.12 0 42.12 0 42.12 0 0 42.13 0 42.12 -42.12 0zm547.61 0l-42.12 0 0 -42.12 0 -42.13 42.12 0 42.13 0 0 42.13 0 42.12 -42.13 0zm-421.24 0l-42.12 0 0 -42.12 0 -42.13 0 -42.12 0 -42.13 0 -42.12 0 -42.13 0 -42.12 0 -42.12 0 -42.12 0 -42.13 0 -42.12 0 -42.13 42.12 0 42.13 0 42.12 0 42.13 0 42.12 0 42.12 0 42.13 0 42.12 0 42.12 0 0 42.13 0 42.12 42.13 0 42.12 0 0 42.13 0 42.12 -42.12 0 -42.13 0 0 -42.12 0 -42.13 -42.12 0 -42.12 0 -42.13 0 -42.12 0 -42.12 0 -42.13 0 -42.12 0 0 42.13 0 42.12 42.12 0 42.13 0 42.12 0 42.12 0 42.13 0 42.12 0 42.12 0 0 42.12 0 42.12 -42.12 0 0 42.13 0 42.12 42.12 0 42.13 0 0 42.13 0 42.12 -42.13 0 -42.12 0 0 -42.12 0 -42.13 -42.12 0 -42.13 0 0 -42.12 0 -42.13 -42.12 0 -42.12 0 -42.13 0 -42.12 0 0 42.13 0 42.12 0 42.13 0 42.12 0 42.13 0 42.12 -42.13 0z"/>
 </g>
</svg>
