<?xml version="1.0" encoding="UTF-8"?>
<!DOCTYPE svg PUBLIC "-//W3C//DTD SVG 1.1//EN" "http://www.w3.org/Graphics/SVG/1.1/DTD/svg11.dtd">
<!-- Creator: CorelDRAW 2020 (64-Bit) -->
<svg xmlns="http://www.w3.org/2000/svg" xml:space="preserve" width="1829px" height="700px" version="1.1" shape-rendering="geometricPrecision" text-rendering="geometricPrecision" image-rendering="optimizeQuality" fill-rule="evenodd" clip-rule="evenodd"
viewBox="0 0 5953.46 2278.97"
 xmlns:xlink="http://www.w3.org/1999/xlink"
 xmlns:xodm="http://www.corel.com/coreldraw/odm/2003">
 <g id="Layer_x0020_1">
  <metadata id="CorelCorpID_0Corel-Layer"/>
  <polygon fill="#DEB0FF" points="162.78,976.7 325.57,976.7 325.57,813.92 2499.57,813.92 2499.57,651.13 2662.35,651.13 2662.35,488.35 2825.14,488.35 2825.14,325.57 2987.92,325.57 2987.92,488.35 2987.92,651.13 2987.92,732.53 2987.92,872.92 2987.92,976.7 2987.92,1953.4 2825.14,1953.4 2825.14,2116.18 325.57,2116.18 325.57,1953.4 162.78,1953.4 "/>
  <path fill="#440079" d="M325.57 651.13c542.61,0 1631.39,0 2174,0l0 -162.78 69.1 0 93.68 0 0 -162.78 75.21 0 87.58 0 0 -162.79 162.78 0 0 -162.78 162.78 0 0 162.78 0 162.79 0 162.78 0 162.78 0 162.79 0 162.78 0 162.78 0 162.79 0 162.78 0 325.57 0 162.78 -162.78 0 0 162.78 -162.78 0 -162.79 0 -162.78 0 -162.78 0 -708.96 0 -162.78 0 -162.78 0 -162.79 0 -162.78 0 -162.78 0 -162.79 0 -162.78 0 -162.78 0 0 -162.78 -162.79 0 0 -162.78 0 -325.57 0 -162.78 0 -162.79 0 -162.78 162.79 0 0 -162.78c705.39,0 1956.96,0 2662.35,0l0 162.78 0 162.78 0 162.79 0 162.78 0 325.57 0 162.78 -162.78 0 0 162.78 0 162.79 -162.79 0 -162.78 0 -162.78 0 -708.96 0 -162.78 0 -162.78 0 -162.79 0 -162.78 0 -162.78 0 -162.79 0 -162.78 0 -162.78 0 0 -162.79 -162.79 0 0 -162.78 -162.78 0 0 -162.78 0 -325.57 0 -162.78 0 -162.79 0 -162.78 162.78 0 0 -162.78 162.79 0 0 -162.79zm1011.78 1153.74l-78.3 0 0 -78.31 0 -78.3 0 -78.3 0 -78.31 0 -78.31 0 -78.3 0 -78.3 78.3 0 78.3 0 0 78.3 0 78.3 0 78.31 0 78.31 0 78.3 0 78.3 0 78.31 -78.3 0zm-469.83 0l-78.3 0 0 -78.31 0 -78.3 0 -78.3 0 -78.31 0 -78.31 0 -78.3 0 -78.3 78.3 0 78.31 0 0 78.3 0 78.3 0 78.31 0 78.31 0 78.3 0 78.3 0 78.31 -78.31 0zm-469.82 0l-78.3 0 0 -78.31 0 -78.3 0 -78.3 0 -78.31 0 -78.31 0 -78.3 0 -78.3 0 -78.31 0 -78.3 78.3 0 78.31 0 78.3 0 78.3 0 78.31 0 78.3 0 0 78.3 0 78.31 -78.3 0 -78.31 0 -78.3 0 -78.3 0 0 78.3 0 78.3 0 78.31 0 78.31 0 78.3 0 78.3 0 78.31 -78.31 0zm861.35 -548.13l-78.31 0 -78.3 0 -78.31 0 -78.3 0 0 -78.31 0 -78.3 78.3 0 78.31 0 78.3 0 78.31 0 0 78.3 0 78.31zm626.44 548.13l-78.31 0 -78.31 0 -78.3 0 0 -78.31 0 -78.3 78.3 0 78.31 0 78.31 0 78.3 0 0 78.3 0 78.31 -78.3 0zm78.3 -156.61l0 -78.3 0 -78.31 0 -78.31 0 -78.3 0 -78.3 78.3 0 78.31 0 0 78.3 0 78.3 0 78.31 0 78.31 0 78.3 -78.31 0 -78.3 0zm-313.22 0l-78.31 0 -78.3 0 0 -78.3 0 -78.31 0 -78.31 0 -78.3 0 -78.3 78.3 0 78.31 0 0 78.3 0 78.3 0 78.31 0 78.31 0 78.3zm313.22 -391.52l-78.3 0 -78.31 0 -78.31 0 -78.3 0 0 -78.31 0 -78.3 78.3 0 78.31 0 78.31 0 78.3 0 0 78.3 0 78.31zm783.04 548.13l-78.3 0 -78.3 0 -78.31 0 -78.31 0 -78.3 0 0 -78.31 0 -78.3 78.3 0 78.31 0 78.31 0 78.3 0 0 -78.3 78.3 0 78.31 0 0 78.3 0 78.3 0 78.31 -78.31 0zm-391.52 -156.61l-78.3 0 -78.31 0 0 -78.3 0 -78.31 0 -78.31 0 -78.3 0 -78.3 78.31 0 78.3 0 0 -78.31 0 -78.3 78.3 0 78.31 0 78.31 0 78.3 0 78.3 0 78.31 0 0 78.3 0 78.31 0 78.3 0 78.3 -78.31 0 -78.3 0 0 78.31 -78.3 0 -78.31 0 -78.31 0 -78.3 0 0 78.31 0 78.3zm234.92 -313.22l78.3 0 0 -78.3 -78.3 0 -78.31 0 -78.31 0 -78.3 0 0 78.3 78.3 0 78.31 0 78.31 0z"/>
  <path fill="#440079" fill-rule="nonzero" d="M3773.54 1804.87l-77.85 0 -77.86 0 -77.85 0 -77.85 0 0 -77.86 0 -77.85 77.85 0 77.85 0 77.86 0 77.85 0 77.86 0 0 77.85 0 77.86 -77.86 0zm77.86 -155.71l0 -77.85 0 -77.86 77.85 0 77.85 0 0 77.86 0 77.85 -77.85 0 -77.85 0zm-389.27 0l-77.86 0 -77.85 0 0 -77.85 0 -77.86 0 -77.85 0 -77.86 0 -77.85 77.85 0 77.86 0 0 77.85 0 77.86 0 77.85 0 77.86 0 77.85zm467.12 -233.56l-77.85 0 0 -77.86 0 -77.85 77.85 0 77.85 0 0 77.85 0 77.86 -77.85 0zm-77.85 -155.71l-77.86 0 -77.85 0 -77.86 0 -77.85 0 -77.85 0 0 -77.86 0 -77.85 77.85 0 77.85 0 77.86 0 77.85 0 77.86 0 0 77.85 0 77.86zm778.54 544.98l-77.86 0 0 -77.86 0 -77.85 0 -77.85 0 -77.86 0 -77.85 0 -77.86 77.86 0 77.85 0 0 77.86 0 77.85 0 77.86 0 77.85 0 77.85 0 77.86 -77.85 0zm-467.13 0l-77.85 0 0 -77.86 0 -77.85 0 -77.85 0 -77.86 0 -77.85 0 -77.86 0 -77.85 0 -77.86 0 -77.85 0 -77.85 0 -77.85 0 -77.86 77.85 0 77.86 0 0 77.86 0 77.85 0 77.85 0 77.85 0 77.86 0 77.85 77.85 0 77.85 0 0 77.86 0 77.85 -77.85 0 -77.85 0 0 77.86 0 77.85 0 77.85 0 77.86 -77.86 0zm389.27 -467.13l-77.85 0 -77.86 0 0 -77.85 0 -77.86 77.86 0 77.85 0 0 77.86 0 77.85zm856.4 467.13l-77.86 0 -77.85 0 -77.86 0 -77.85 0 -77.85 0 -77.86 0 0 -77.86 0 -77.85 -77.85 0 -77.86 0 0 -77.85 0 -77.86 77.86 0 77.85 0 0 -77.85 0 -77.86 77.86 0 77.85 0 77.85 0 77.86 0 77.85 0 0 -77.85 77.86 0 77.85 0 0 77.85 0 77.86 0 77.85 0 77.86 0 77.85 0 77.85 0 77.86 -77.85 0zm-155.71 -155.71l77.85 0 0 -77.85 0 -77.86 -77.85 0 -77.86 0 -77.85 0 -77.85 0 -77.86 0 0 77.86 0 77.85 77.86 0 77.85 0 77.85 0 77.86 0zm77.85 -389.27l-77.85 0 -77.86 0 -77.85 0 -77.85 0 -77.86 0 -77.85 0 -77.86 0 0 -77.86 0 -77.85 77.86 0 77.85 0 77.86 0 77.85 0 77.85 0 77.86 0 77.85 0 0 77.85 0 77.86zm544.98 544.98l-77.85 0 0 -77.86 0 -77.85 77.85 0 77.86 0 0 77.85 0 77.86 -77.86 0zm-77.85 -155.71l-77.86 0 -77.85 0 0 -77.85 0 -77.86 0 -77.85 0 -77.86 0 -77.85 -77.85 0 0 -77.86 0 -77.85 77.85 0 0 -77.85 0 -77.85 77.85 0 77.86 0 0 77.85 0 77.85 77.85 0 0 77.85 0 77.86 -77.85 0 0 77.85 0 77.86 0 77.85 0 77.86 0 77.85z"/>
 </g>
</svg>
