<?xml version="1.0" encoding="UTF-8"?>
<!DOCTYPE svg PUBLIC "-//W3C//DTD SVG 1.1//EN" "http://www.w3.org/Graphics/SVG/1.1/DTD/svg11.dtd">
<!-- Creator: CorelDRAW 2020 (64-Bit) -->
<svg xmlns="http://www.w3.org/2000/svg" xml:space="preserve" width="512px" height="512px" version="1.1" shape-rendering="geometricPrecision" text-rendering="geometricPrecision" image-rendering="optimizeQuality" fill-rule="evenodd" clip-rule="evenodd"
viewBox="0 0 123.49 123.49"
 xmlns:xlink="http://www.w3.org/1999/xlink"
 xmlns:xodm="http://www.corel.com/coreldraw/odm/2003">
 <g id="Layer_x0020_1">
  <metadata id="CorelCorpID_0Corel-Layer"/>
  <polygon fill="#C479FF" points="7.26,0 116.22,0 116.22,7.26 123.49,7.26 123.49,116.22 116.22,116.22 116.22,123.49 7.26,123.49 7.26,116.22 0,116.22 0,7.26 7.26,7.26 "/>
  <polygon fill="#440079" points="32.65,50.93 36.97,50.93 36.97,46.6 41.3,46.6 41.3,42.28 45.62,42.28 49.95,42.28 54.27,42.28 54.27,37.95 58.6,37.95 62.93,37.95 67.25,37.95 71.58,37.95 71.58,33.63 75.9,33.63 80.23,33.63 84.55,33.63 88.88,33.63 88.88,37.95 88.88,42.28 88.88,46.6 88.88,50.93 84.55,50.93 84.55,55.25 84.55,59.58 84.55,63.91 84.55,68.23 80.23,68.23 80.23,72.56 80.23,76.88 80.23,81.21 75.9,81.21 75.9,85.53 71.58,85.53 71.58,89.86 67.25,89.86 67.25,85.53 62.93,85.53 62.93,81.21 62.93,76.88 62.93,72.56 58.6,72.56 58.6,68.23 58.6,63.91 54.27,63.91 49.95,63.91 49.95,59.58 45.62,59.58 41.3,59.58 36.97,59.58 36.97,55.25 32.65,55.25 "/>
  <path fill="#DEB0FF" d="M80.23 42.28l0 -4.33 -4.33 0 -4.32 0 0 4.33 -4.33 0 -4.32 0 -4.33 0 0 4.32 -4.33 0 -4.32 0 -4.33 0 -4.32 0 0 4.33 0 4.32 4.32 0 4.33 0 0 4.33 4.32 0 4.33 0 4.33 0 0 4.33 0 4.32 0 4.33 4.32 0 0 4.32 0 4.33 4.33 0 4.32 0 0 -4.33 0 -4.32 0 -4.33 0 -4.32 4.33 0 0 -4.33 0 -4.33 0 -4.32 4.32 0 0 -4.33 0 -4.32 -4.32 0zm-17.3 17.3l0 -4.33 4.32 0 0 4.33 -4.32 0zm4.32 -4.33l0 -4.32 4.33 0 0 4.32 -4.33 0zm4.33 -4.32l0 -4.33 4.32 0 0 4.33 -4.32 0zm4.32 -4.33l0 -4.32 4.33 0 0 4.32 -4.33 0z"/>
 </g>
</svg>
