<?xml version="1.0" encoding="UTF-8"?>
<!DOCTYPE svg PUBLIC "-//W3C//DTD SVG 1.1//EN" "http://www.w3.org/Graphics/SVG/1.1/DTD/svg11.dtd">
<!-- Creator: CorelDRAW 2020 (64-Bit) -->
<svg xmlns="http://www.w3.org/2000/svg" xml:space="preserve" width="232px" height="304px" version="1.1" shape-rendering="geometricPrecision" text-rendering="geometricPrecision" image-rendering="optimizeQuality" fill-rule="evenodd" clip-rule="evenodd"
viewBox="0 0 29.74 38.89"
 xmlns:xlink="http://www.w3.org/1999/xlink"
 xmlns:xodm="http://www.corel.com/coreldraw/odm/2003">
 <g id="Layer_x0020_1">
  <metadata id="CorelCorpID_0Corel-Layer"/>
  <polygon fill="#DEB0FF" points="2.29,0 27.45,0 27.45,2.29 29.74,2.29 29.74,36.6 27.45,36.6 27.45,38.89 2.29,38.89 2.29,36.6 0,36.6 0,2.29 2.29,2.29 "/>
  <path fill="#440079" d="M4.57 34.32l2.29 0 2.29 0 2.29 0 2.29 0 2.28 0 2.29 0 2.29 0 2.29 0 2.28 0 0 -2.29 0 -2.29 -2.28 0 -2.29 0 -2.29 0 -2.29 0 -2.28 0 -2.29 0 -2.29 0 -2.29 0 -2.29 0 0 2.29 0 2.29zm4.58 -11.44l0 -2.29 0 -2.29 0 -2.29 0 -2.28 0 -2.29 0 -2.29 0 -2.29 0 -2.29 -2.29 0 -2.29 0 0 2.29 0 2.29 0 2.29 0 2.29 0 2.28 0 2.29 0 2.29 0 2.29 0 2.28 2.29 0 0 2.29 2.29 0 2.29 0 2.29 0 2.28 0 2.29 0 2.29 0 2.29 0 0 -2.29 2.28 0 0 -2.28 0 -2.29 0 -2.29 0 -2.29 0 -2.28 0 -2.29 0 -2.29 0 -2.29 0 -2.29 -2.28 0 -2.29 0 0 2.29 0 2.29 0 2.29 0 2.29 0 2.28 0 2.29 0 2.29 0 2.29 -2.29 0 -2.29 0 -2.28 0 -2.29 0 -2.29 0z"/>
 </g>
</svg>
