<?xml version="1.0" encoding="UTF-8"?>
<!DOCTYPE svg PUBLIC "-//W3C//DTD SVG 1.1//EN" "http://www.w3.org/Graphics/SVG/1.1/DTD/svg11.dtd">
<!-- Creator: CorelDRAW 2020 (64-Bit) -->
<svg xmlns="http://www.w3.org/2000/svg" xml:space="preserve" width="91px" height="98px" version="1.1" shape-rendering="geometricPrecision" text-rendering="geometricPrecision" image-rendering="optimizeQuality" fill-rule="evenodd" clip-rule="evenodd"
viewBox="0 0 5.44 5.83"
 xmlns:xlink="http://www.w3.org/1999/xlink"
 xmlns:xodm="http://www.corel.com/coreldraw/odm/2003">
 <g id="Layer_x0020_1">
  <metadata id="CorelCorpID_0Corel-Layer"/>
  <polygon fill="#8600EF" points="0.42,0 5.02,0 5.02,0.42 5.44,0.42 5.44,5.41 5.02,5.41 5.02,5.83 0.42,5.83 0.42,5.41 0,5.41 0,0.42 0.42,0.42 "/>
  <polygon fill="#C479FF" points="2.52,1.25 2.11,1.25 2.11,0.83 2.11,0.42 2.52,0.42 2.94,0.42 2.94,0.83 3.35,0.83 3.35,1.25 3.77,1.25 3.77,1.66 4.19,1.66 4.19,2.08 4.6,2.08 4.6,2.5 4.6,2.5 5.02,2.5 5.02,2.91 5.02,3.33 4.6,3.33 4.6,3.33 4.6,3.75 4.19,3.75 4.19,4.16 3.77,4.16 3.77,4.58 3.35,4.58 3.35,4.99 2.94,4.99 2.94,5.41 2.52,5.41 2.11,5.41 2.11,4.99 2.11,4.58 2.52,4.58 2.52,4.16 2.94,4.16 2.94,3.75 3.35,3.75 3.35,3.33 3.35,3.33 2.94,3.33 2.94,3.33 2.52,3.33 2.11,3.33 2.11,3.33 1.69,3.33 1.69,3.33 1.27,3.33 0.86,3.33 0.86,3.33 0.44,3.33 0.44,2.91 0.44,2.5 0.86,2.5 0.86,2.5 1.27,2.5 1.69,2.5 1.69,2.5 2.11,2.5 2.11,2.5 2.52,2.5 2.94,2.5 2.94,2.5 3.35,2.5 3.35,2.5 3.35,2.08 2.94,2.08 2.94,1.66 2.52,1.66 "/>
  <polygon fill="#F8EFFF" points="2.11,0.83 2.11,0.42 2.52,0.42 2.94,0.42 2.94,0.83 3.35,0.83 3.35,1.25 3.77,1.25 3.77,1.66 4.19,1.66 4.19,2.08 4.6,2.08 4.6,2.5 4.6,2.5 5.02,2.5 5.02,2.91 4.6,2.91 4.6,2.91 4.6,3.33 4.19,3.33 4.19,3.75 3.77,3.75 3.77,4.16 3.35,4.16 3.35,4.58 2.94,4.58 2.94,4.99 2.52,4.99 2.11,4.99 2.11,4.58 2.52,4.58 2.52,4.16 2.94,4.16 2.94,3.75 3.35,3.75 3.35,3.33 3.35,2.91 3.35,2.91 2.94,2.91 2.94,2.91 2.52,2.91 2.11,2.91 2.11,2.91 1.69,2.91 1.69,2.91 1.27,2.91 0.86,2.91 0.86,2.91 0.44,2.91 0.44,2.5 0.86,2.5 0.86,2.5 1.27,2.5 1.69,2.5 1.69,2.5 2.11,2.5 2.11,2.5 2.52,2.5 2.94,2.5 2.94,2.5 3.35,2.5 3.35,2.5 3.35,2.08 3.35,1.66 2.94,1.66 2.94,1.25 2.52,1.25 2.52,0.83 "/>
 </g>
</svg>
