<?xml version="1.0" encoding="UTF-8"?>
<!DOCTYPE svg PUBLIC "-//W3C//DTD SVG 1.1//EN" "http://www.w3.org/Graphics/SVG/1.1/DTD/svg11.dtd">
<!-- Creator: CorelDRAW 2020 (64-Bit) -->
<svg xmlns="http://www.w3.org/2000/svg" xml:space="preserve" width="91px" height="98px" version="1.1" shape-rendering="geometricPrecision" text-rendering="geometricPrecision" image-rendering="optimizeQuality" fill-rule="evenodd" clip-rule="evenodd"
viewBox="0 0 6.33 6.79"
 xmlns:xlink="http://www.w3.org/1999/xlink"
 xmlns:xodm="http://www.corel.com/coreldraw/odm/2003">
 <g id="Layer_x0020_1">
  <metadata id="CorelCorpID_0Corel-Layer"/>
  <polygon fill="#8600EF" points="0.49,0 5.85,0 5.85,0.49 6.33,0.49 6.33,6.3 5.85,6.3 5.85,6.79 0.49,6.79 0.49,6.3 0,6.3 0,0.49 0.49,0.49 "/>
  <polygon fill="#C479FF" points="3.42,1.45 3.91,1.45 3.91,0.97 3.91,0.48 3.42,0.48 2.94,0.48 2.94,0.97 2.45,0.97 2.45,1.45 1.97,1.45 1.97,1.94 1.48,1.94 1.48,2.42 1,2.42 1,2.91 1,2.91 0.51,2.91 0.51,3.39 0.51,3.88 1,3.88 1,3.88 1,4.36 1.48,4.36 1.48,4.85 1.97,4.85 1.97,5.33 2.45,5.33 2.45,5.82 2.94,5.82 2.94,6.3 3.42,6.3 3.91,6.3 3.91,5.82 3.91,5.33 3.42,5.33 3.42,4.85 2.94,4.85 2.94,4.36 2.45,4.36 2.45,3.88 2.45,3.88 2.94,3.88 2.94,3.88 3.42,3.88 3.91,3.88 3.91,3.88 4.39,3.88 4.39,3.88 4.88,3.88 5.36,3.88 5.36,3.88 5.85,3.88 5.85,3.39 5.85,2.91 5.36,2.91 5.36,2.91 4.88,2.91 4.39,2.91 4.39,2.91 3.91,2.91 3.91,2.91 3.42,2.91 2.94,2.91 2.94,2.91 2.45,2.91 2.45,2.91 2.45,2.42 2.94,2.42 2.94,1.94 3.42,1.94 "/>
  <polygon fill="#F8EFFF" points="3.91,0.97 3.91,0.48 3.42,0.48 2.94,0.48 2.94,0.97 2.45,0.97 2.45,1.45 1.97,1.45 1.97,1.94 1.48,1.94 1.48,2.42 1,2.42 1,2.91 1,2.91 0.51,2.91 0.51,3.39 1,3.39 1,3.39 1,3.88 1.48,3.88 1.48,4.36 1.97,4.36 1.97,4.85 2.45,4.85 2.45,5.33 2.94,5.33 2.94,5.82 3.42,5.82 3.91,5.82 3.91,5.33 3.42,5.33 3.42,4.85 2.94,4.85 2.94,4.36 2.45,4.36 2.45,3.88 2.45,3.39 2.45,3.39 2.94,3.39 2.94,3.39 3.42,3.39 3.91,3.39 3.91,3.39 4.39,3.39 4.39,3.39 4.88,3.39 5.36,3.39 5.36,3.39 5.85,3.39 5.85,2.91 5.36,2.91 5.36,2.91 4.88,2.91 4.39,2.91 4.39,2.91 3.91,2.91 3.91,2.91 3.42,2.91 2.94,2.91 2.94,2.91 2.45,2.91 2.45,2.91 2.45,2.42 2.45,1.94 2.94,1.94 2.94,1.45 3.42,1.45 3.42,0.97 "/>
 </g>
</svg>
