<?xml version="1.0" encoding="UTF-8"?>
<!DOCTYPE svg PUBLIC "-//W3C//DTD SVG 1.1//EN" "http://www.w3.org/Graphics/SVG/1.1/DTD/svg11.dtd">
<!-- Creator: CorelDRAW 2020 (64-Bit) -->
<svg xmlns="http://www.w3.org/2000/svg" xml:space="preserve" width="90px" height="90px" version="1.1" shape-rendering="geometricPrecision" text-rendering="geometricPrecision" image-rendering="optimizeQuality" fill-rule="evenodd" clip-rule="evenodd"
viewBox="0 0 4.73 4.73"
 xmlns:xlink="http://www.w3.org/1999/xlink"
 xmlns:xodm="http://www.corel.com/coreldraw/odm/2003">
 <g id="Layer_x0020_1">
  <metadata id="CorelCorpID_0Corel-Layer"/>
  <rect fill="none" width="4.73" height="4.73"/>
  <path fill="#440079" d="M0.89 3.65l0.37 0 0.37 0 0.37 0 0.36 0 0.37 0 0.37 0 0.37 0 0.37 0 0.36 0 0 -0.37 0 -0.36 -0.36 0 0 -0.37 -0.37 0 0 -0.37 0 -0.37 0 -0.37 0 -0.36 -0.37 0 0 -0.37 -0.37 0 -0.37 0 -0.36 0 0 0.37 -0.37 0 0 0.36 0 0.37 0 0.37 0 0.37 -0.37 0 0 0.37 -0.37 0 0 0.36 0 0.37zm2.58 -1.1l0 0.37 0.37 0 0 0.36 0 0.37 0 0.37 -0.37 0 -0.37 0 -0.37 0 0 0.37 -0.37 0 -0.36 0 0 -0.37 -0.37 0 -0.37 0 -0.37 0 0 -0.37 -0.36 0 0 -0.37 0 -0.36 0.36 0 0 -0.37 0.37 0 0 -0.37 0 -0.37 0 -0.37 0 -0.36 0.37 0 0 -0.37 0.37 0 0 -0.37 0.36 0 0.37 0 0 0.37 0 0.37 0.37 0 0 0.36 0 0.37 0 0.37 0 0.37 0.37 0z"/>
  <polygon fill="#DEB0FF" points="2.36,1.81 2.36,2.18 2.36,2.55 2,2.55 2,2.92 1.63,2.92 1.63,3.28 1.63,3.65 1.26,3.65 0.89,3.65 0.89,3.28 0.89,2.92 1.26,2.92 1.26,2.55 1.63,2.55 1.63,2.18 1.63,1.81 1.63,1.44 1.63,1.08 2,1.08 2,0.71 2.36,0.71 2.73,0.71 2.73,1.08 2.36,1.08 2.36,1.44 "/>
  <polygon fill="#C479FF" points="3.1,3.65 3.47,3.65 3.84,3.65 3.84,3.28 3.84,2.92 3.47,2.92 3.47,2.55 3.1,2.55 3.1,2.18 3.1,1.81 3.1,1.44 3.1,1.08 2.73,1.08 2.36,1.08 2.36,1.44 2.36,1.81 2.36,2.18 2.36,2.55 2,2.55 2,2.92 1.63,2.92 1.63,3.28 1.63,3.65 2,3.65 2.36,3.65 2.73,3.65 "/>
 </g>
</svg>
