<?xml version="1.0" encoding="UTF-8"?>
<!DOCTYPE svg PUBLIC "-//W3C//DTD SVG 1.1//EN" "http://www.w3.org/Graphics/SVG/1.1/DTD/svg11.dtd">
<!-- Creator: CorelDRAW 2020 (64-Bit) -->
<svg xmlns="http://www.w3.org/2000/svg" xml:space="preserve" width="90px" height="90px" version="1.1" shape-rendering="geometricPrecision" text-rendering="geometricPrecision" image-rendering="optimizeQuality" fill-rule="evenodd" clip-rule="evenodd"
viewBox="0 0 3.2 3.2"
 xmlns:xlink="http://www.w3.org/1999/xlink"
 xmlns:xodm="http://www.corel.com/coreldraw/odm/2003">
 <g id="Layer_x0020_1">
  <metadata id="CorelCorpID_0Corel-Layer"/>
  <g id="_2424864234944">
   <rect fill="none" width="3.2" height="3.2"/>
   <rect fill="#C479FF" x="0.48" y="0.48" width="2.24" height="0.5"/>
   <path fill="#440079" d="M0.73 1.47l0.25 0 0 0.25 -0.25 0 0 -0.25zm2.24 -1.24l-0.25 0 -0.25 0 -0.25 0 -0.25 0 -0.25 0 -0.25 0 -0.24 0 -0.25 0 -0.25 0 -0.25 0 -0.25 0 0 0.25 0 0.25 0 0.25 0 0.25 0 0.24 0 0.25 0 0.25 0 0.25 0 0.25 0 0.25 0 0.25 0.25 0 0.25 0 0.25 0 0.25 0 0.24 0 0.25 0 0.25 0 0.25 0 0.25 0 0.25 0 0.25 0 0 -0.25 0 -0.25 0 -0.25 0 -0.25 0 -0.25 0 -0.25 0 -0.24 0 -0.25 0 -0.25 0 -0.25 0 -0.25zm-2.49 0.5l0 -0.25 0.25 0 0 0.25 0.25 0 0 -0.25 0.25 0 0 0.25 0.24 0 0 -0.25 0.25 0 0 0.25 0.25 0 0 -0.25 0.25 0 0 0.25 0.25 0 0 -0.25 0.25 0 0 0.25 0 0.25 0 0 -0.25 0 -0.25 0 -0.25 0 -0.25 0 -0.25 0 -0.24 0 -0.25 0 -0.25 0 -0.25 0 0 0 0 -0.25zm1.24 1.99l0.25 0 0.25 0 0.25 0 0.25 0 0 -0.25 0 -0.25 0 -0.25 0 -0.25 0 -0.25 0 -0.24 -0.25 0 -0.25 0 -0.25 0 -0.25 0 -0.25 0 -0.24 0 -0.25 0 -0.25 0 -0.25 0 0 0.24 0 0.25 0 0.25 0 0.25 0 0.25 0 0.25 0.25 0 0.25 0 0.25 0 0.24 0 0.25 0zm0 -0.75l0.25 0 0 0.25 -0.25 0 0 -0.25zm-0.49 0l0.24 0 0 0.25 -0.24 0 0 -0.25zm1.24 0l-0.25 0 0 0.25 0.25 0 0 -0.25zm-1.74 0l0.25 0 0 0.25 -0.25 0 0 -0.25zm0.99 -0.5l0.25 0 0 0.25 -0.25 0 0 -0.25zm-0.49 0l0.24 0 0 0.25 -0.24 0 0 -0.25zm1.24 0l-0.25 0 0 0.25 0.25 0 0 -0.25z"/>
  </g>
 </g>
</svg>
