<?xml version="1.0" encoding="UTF-8"?>
<!DOCTYPE svg PUBLIC "-//W3C//DTD SVG 1.1//EN" "http://www.w3.org/Graphics/SVG/1.1/DTD/svg11.dtd">
<!-- Creator: CorelDRAW 2020 (64-Bit) -->
<svg xmlns="http://www.w3.org/2000/svg" xml:space="preserve" width="90px" height="90px" version="1.1" shape-rendering="geometricPrecision" text-rendering="geometricPrecision" image-rendering="optimizeQuality" fill-rule="evenodd" clip-rule="evenodd"
viewBox="0 0 3.2 3.2"
 xmlns:xlink="http://www.w3.org/1999/xlink"
 xmlns:xodm="http://www.corel.com/coreldraw/odm/2003">
 <g id="Layer_x0020_1">
  <metadata id="CorelCorpID_0Corel-Layer"/>
  <rect fill="none" width="3.2" height="3.2"/>
  <path fill="#440079" d="M1.23 0.26l0.24 0 0.25 0 0.25 0 0 0.23 0.25 0 0.25 0 0 0.25 0.25 0 0 0.24 0 0.25 0.25 0 0 0.25 0 0.25 0 0.25 -0.25 0 0 0.25 0 0.25 -0.25 0 0 0.24 -0.25 0 -0.25 0 0 0.23 -0.25 0 -0.25 0 -0.24 0 0 -0.23 -0.25 0 -0.25 0 0 -0.24 -0.25 0 0 -0.25 0 -0.25 0 -0.25 0 -0.25 0 -0.25 0.25 0 0 -0.25 0 -0.24 0.25 0 0.25 0 0 -0.23 0.24 0 0.25 0 0.25 0 0 0.23 0.25 0 0.25 0 0 0.24 0 0.25 0.25 0 0 0.25 0 0.25 0 0.25 -0.25 0 0 0.25 0 0.25 -0.25 0 -0.25 0 0 0.22 -0.25 0 -0.25 0 -0.24 0 0 -0.22 -0.25 0 -0.25 0 0 -0.25 0 -0.25 -0.25 0 -0.25 0 0 -0.25 0 -0.25 0 -0.25 0.25 0 0 -0.25 0 -0.24 0.25 0 0 -0.25 0.25 0 0.25 0 0 -0.23zm0.49 1.72l-0.25 0 -0.24 0 0 -0.25 0 -0.25 0 -0.25 0.24 0 0.25 0 0.25 0 0 0.25 0 0.25 0 0.25 -0.25 0zm-0.25 -0.25l0.25 0 0 -0.25 -0.25 0 0 0.25z"/>
  <path fill="#C479FF" d="M1.23 1.23l0 0.75 -0.25 0 0 0.25 -0.25 0 0 -0.25 -0.25 0 0 -0.75 0.25 0 0 -0.25 0.25 0 0 0.25 0.25 0zm0.74 0l0 0.75 0.25 0 0 0.25 0.25 0 0 -0.25 0.25 0 0 -0.75 -0.25 0 0 -0.25 -0.25 0 0 0.25 -0.25 0z"/>
 </g>
</svg>
