<?xml version="1.0" encoding="UTF-8"?>
<!DOCTYPE svg PUBLIC "-//W3C//DTD SVG 1.1//EN" "http://www.w3.org/Graphics/SVG/1.1/DTD/svg11.dtd">
<!-- Creator: CorelDRAW 2020 (64-Bit) -->
<svg xmlns="http://www.w3.org/2000/svg" xml:space="preserve" width="90px" height="90px" version="1.1" shape-rendering="geometricPrecision" text-rendering="geometricPrecision" image-rendering="optimizeQuality" fill-rule="evenodd" clip-rule="evenodd"
viewBox="0 0 4.22 4.22"
 xmlns:xlink="http://www.w3.org/1999/xlink"
 xmlns:xodm="http://www.corel.com/coreldraw/odm/2003">
 <g id="Layer_x0020_1">
  <metadata id="CorelCorpID_0Corel-Layer"/>
  <g id="_2806959514304">
   <rect fill="none" width="4.22" height="4.22"/>
   <path fill="#440079" d="M1.78 0.96l0 0.33 -0.33 0 0 0.33 0 0.33 0 0.33 -0.32 0 0 0.32 0 0.33 -0.33 0 0 0.33 0.33 0 0 0.33 0.32 0 0.33 0 0.33 0 0.33 0 0.33 0 0.33 0 0 -0.33 0.33 0 0 -0.33 -0.33 0 0 -0.33 0 -0.32 -0.33 0 0 -0.33 0 -0.33 0 -0.33 -0.33 0 0 -0.33 0 -0.33 0 -0.32 -0.33 0 -0.33 0 0 0.32 -0.33 0 0 0.33 0 0.33 -0.32 0 0 0.33 0 0.33 0 0.33 -0.33 0 0 -0.33 -0.33 0 0 0.33 0.33 0 0 0.32 0 0.33 -0.33 0 0 0.33 -0.33 0 0 0.33 0.33 0 0 0.33 0.33 0 0.33 0 0.32 0 0.33 0 0.33 0 0.33 0 0.33 0 0.33 0 0.33 0 0.32 0 0 -0.33 0.33 0 0 -0.33 -0.33 0 0 -0.33 -0.32 0 0 -0.33 0 -0.32 0.32 0 0 -0.33 -0.32 0 0 0.33 -0.33 0 0 -0.33 0 -0.33 0 -0.33 -0.33 0 0 -0.33 0 -0.33 -0.33 0 -0.33 0 -0.33 0 0 0.33zm-1.31 0.33l0.33 0 0 0.33 -0.33 0 0 -0.33zm2.96 -0.66l-0.33 0 0 0.33 0.33 0 0 -0.33zm0.32 0.66l-0.32 0 0 0.33 0.32 0 0 -0.33zm-2.95 -0.66l0.33 0 0 0.33 -0.33 0 0 -0.33z"/>
   <path fill="#A22BFF" d="M2.11 0.63l0.33 0 0 0.33 -0.33 0 -0.33 0 0 -0.33 0.33 0zm-0.66 0.66l0.33 0 0.33 0 0.33 0 0.33 0 0 0.33 -0.33 0 -0.33 0 -0.33 0 -0.33 0 0 -0.33zm-0.32 1.31l0.32 0 0.33 0 0.33 0 0.33 0 0.33 0 0.33 0 0 0.33 -0.33 0 -0.33 0 -0.33 0 -0.33 0 -0.33 0 -0.32 0 0 -0.33zm0 0.66l0.32 0 0.33 0 0.33 0 0.33 0 0.33 0 0.33 0 0 0.33 -0.33 0 -0.33 0 -0.33 0 -0.33 0 -0.33 0 -0.32 0 0 -0.33zm0.32 -1.31l0.33 0 0.33 0 0.33 0 0.33 0 0 0.33 -0.33 0 -0.33 0 -0.33 0 -0.33 0 0 -0.33z"/>
   <path fill="#E7C7FF" d="M2.44 0.96l0 0.33 -0.66 0 0 -0.33 0.66 0zm-0.99 0.66c0.44,0 0.88,0 1.32,0l0 0.33c-0.44,0 -0.88,0 -1.32,0l0 -0.33zm-0.65 1.31c0.87,0 1.75,0 2.63,0l0 0.33c-0.88,0 -1.76,0 -2.63,0l0 -0.33zm0.33 -0.65c0.65,0 1.31,0 1.97,0l0 0.32c-0.66,0 -1.32,0 -1.97,0l0 -0.32z"/>
  </g>
 </g>
</svg>
