<?xml version="1.0" encoding="UTF-8"?>
<!DOCTYPE svg PUBLIC "-//W3C//DTD SVG 1.1//EN" "http://www.w3.org/Graphics/SVG/1.1/DTD/svg11.dtd">
<!-- Creator: CorelDRAW 2020 (64-Bit) -->
<svg xmlns="http://www.w3.org/2000/svg" xml:space="preserve" width="97px" height="97px" version="1.1" shape-rendering="geometricPrecision" text-rendering="geometricPrecision" image-rendering="optimizeQuality" fill-rule="evenodd" clip-rule="evenodd"
viewBox="0 0 29.48 29.48"
 xmlns:xlink="http://www.w3.org/1999/xlink"
 xmlns:xodm="http://www.corel.com/coreldraw/odm/2003">
 <g id="Layer_x0020_1">
  <metadata id="CorelCorpID_0Corel-Layer"/>
  <polygon fill="#440079" points="1.47,1.47 2.95,1.47 2.95,0 4.42,0 5.9,0 7.37,0 8.84,0 10.32,0 11.79,0 13.27,0 14.74,0 16.22,0 17.69,0 19.16,0 20.64,0 22.11,0 23.59,0 25.06,0 26.53,0 26.53,1.47 28.01,1.47 28.01,2.95 29.48,2.95 29.48,4.42 29.48,5.9 29.48,7.37 29.48,8.84 29.48,10.32 29.48,11.79 29.48,13.27 29.48,14.74 29.48,16.22 29.48,17.69 29.48,19.16 29.48,20.64 29.48,22.11 29.48,23.59 29.48,25.06 29.48,26.53 28.01,26.53 28.01,26.53 29.48,26.53 29.48,28.01 29.48,29.48 28.01,29.48 26.53,29.48 25.06,29.48 25.06,28.01 23.59,28.01 22.11,28.01 20.64,28.01 19.16,28.01 17.69,28.01 16.22,28.01 14.74,28.01 13.27,28.01 11.79,28.01 10.32,28.01 8.84,28.01 7.37,28.01 5.9,28.01 4.42,28.01 2.95,28.01 2.95,26.53 1.47,26.53 1.47,25.06 0,25.06 0,25.06 0,23.59 0,22.11 0,20.64 0,19.16 0,17.69 0,16.22 0,14.74 0,13.27 0,11.79 0,10.32 0,8.84 0,7.37 0,5.9 0,4.42 0,2.95 1.47,2.95 "/>
  <path fill="white" d="M22.11 18.43l0 1.47 -1.47 0 0 -1.47 1.47 0zm-10.32 -11.8l1.48 0 1.47 0 1.48 0 1.47 0 0 1.48 1.47 0 1.48 0 0 -1.48 1.47 0 0 1.48 1.48 0 0 1.47 0 1.48 1.47 0 0 1.47 0 1.47 0 1.48 1.47 0 0 1.47 0 1.48 0 1.47 -1.47 0 0 1.47 -1.47 0 0 1.48 -1.48 0 -1.47 0 -1.48 0 0 -1.48 1.48 0 0 -1.47 -1.48 0 -1.47 0 0 1.47 -1.47 0 -1.48 0 -1.47 0 -1.48 0 0 -1.47 -1.47 0 -1.48 0 0 1.47 1.48 0 0 1.48 -1.48 0 -1.47 0 -1.47 0 0 -1.48 -1.48 0 0 -1.47 -1.47 0 0 -1.47 0 -1.48 0 -1.47 1.47 0 0 -1.48 0 -1.47 0 -1.47 1.48 0 0 -1.48 0 -1.47 1.47 0 0 -1.48 1.47 0 0 1.48 1.48 0 1.47 0 0 -1.48zm0 8.85l1.48 0 0 -1.48 -1.48 0 0 -1.47 -1.47 0 -1.48 0 0 1.47 -1.47 0 0 1.48 1.47 0 0 1.47 1.48 0 1.47 0 0 -1.47zm-2.95 -7.37l-1.47 0 0 1.47 1.47 0 0 -1.47zm0 11.79l0 -1.47 -1.47 0 0 1.47 1.47 0zm8.85 -4.42l-1.47 0 0 -1.48 1.47 0 0 -1.47 1.47 0 1.48 0 0 1.47 1.47 0 0 1.48 -1.47 0 0 1.47 -1.48 0 -1.47 0 0 -1.47zm2.95 -7.37l1.47 0 0 1.47 -1.47 0 0 -1.47z"/>
 </g>
</svg>
