<?xml version="1.0" encoding="UTF-8"?>
<!DOCTYPE svg PUBLIC "-//W3C//DTD SVG 1.1//EN" "http://www.w3.org/Graphics/SVG/1.1/DTD/svg11.dtd">
<!-- Creator: CorelDRAW 2020 (64-Bit) -->
<svg xmlns="http://www.w3.org/2000/svg" xml:space="preserve" width="90px" height="90px" version="1.1" shape-rendering="geometricPrecision" text-rendering="geometricPrecision" image-rendering="optimizeQuality" fill-rule="evenodd" clip-rule="evenodd"
viewBox="0 0 2.96 2.96"
 xmlns:xlink="http://www.w3.org/1999/xlink"
 xmlns:xodm="http://www.corel.com/coreldraw/odm/2003">
 <g id="Layer_x0020_1">
  <metadata id="CorelCorpID_0Corel-Layer"/>
  <g id="_2424811097632">
   <rect fill="none" width="2.96" height="2.96"/>
   <path fill="#440079" d="M1.71 2.05l0.23 0 0 -0.23 0.23 0 0 -0.23 0.23 0 0 -0.23 -0.23 0 0 0.23 -0.23 0 0 0.23 -0.23 0 0 -0.23 0 -0.23 0 -0.23 0 -0.23 0 -0.23 0 -0.23 0 -0.23 -0.23 0 -0.23 0 0 0.23 0 0.23 0 0.23 0 0.23 0 0.23 0 0.23 0 0.23 -0.23 0 0 -0.23 -0.23 0 0 -0.23 -0.23 0 0 0.23 0.23 0 0 0.23 0.23 0 0 0.23 0.23 0 0 0.23 0.23 0 0.23 0 0 -0.23zm0.92 0.23l-0.23 0 0 0.23 -0.23 0 -0.23 0 -0.23 0 -0.23 0 -0.23 0 -0.23 0 -0.23 0 -0.23 0 0 -0.23 -0.23 0 0 0.23 0 0.23 0.23 0 0.23 0 0.23 0 0.23 0 0.23 0 0.23 0 0.23 0 0.23 0 0.23 0 0.23 0 0 -0.23 0 -0.23z"/>
   <rect fill="#C479FF" x="0.56" y="2.28" width="1.84" height="0.23"/>
  </g>
 </g>
</svg>
