<?xml version="1.0" encoding="UTF-8"?>
<!DOCTYPE svg PUBLIC "-//W3C//DTD SVG 1.1//EN" "http://www.w3.org/Graphics/SVG/1.1/DTD/svg11.dtd">
<!-- Creator: CorelDRAW 2020 (64-Bit) -->
<svg xmlns="http://www.w3.org/2000/svg" xml:space="preserve" width="90px" height="90px" version="1.1" shape-rendering="geometricPrecision" text-rendering="geometricPrecision" image-rendering="optimizeQuality" fill-rule="evenodd" clip-rule="evenodd"
viewBox="0 0 4.96 4.96"
 xmlns:xlink="http://www.w3.org/1999/xlink"
 xmlns:xodm="http://www.corel.com/coreldraw/odm/2003">
 <g id="Layer_x0020_1">
  <metadata id="CorelCorpID_0Corel-Layer"/>
  <rect fill="none" width="4.96" height="4.96"/>
  <polygon fill="#C479FF" points="1.13,4.79 0.74,4.79 0.74,4.4 0.36,4.4 0.36,4.02 0.36,3.63 0.36,3.25 0.36,2.86 0.36,2.48 0.36,2.09 0.36,1.71 0.36,1.32 0.36,0.94 0.36,0.55 0.74,0.55 0.74,0.17 1.13,0.17 1.51,0.17 1.9,0.17 2.28,0.17 2.67,0.17 3.06,0.17 3.44,0.17 3.83,0.17 4.21,0.17 4.21,0.55 4.6,0.55 4.6,0.94 4.6,1.32 4.6,1.71 4.6,2.09 4.6,2.48 4.6,2.86 4.6,3.25 4.6,3.63 4.6,4.02 4.6,4.4 4.21,4.4 4.21,4.79 3.83,4.79 3.44,4.79 3.06,4.79 2.67,4.79 2.28,4.79 1.9,4.79 1.51,4.79 "/>
  <polygon fill="#440079" points="2.67,4.02 2.67,4.4 2.28,4.4 2.28,4.02 1.9,4.02 1.9,3.63 1.51,3.63 1.51,3.25 1.13,3.25 1.13,2.86 1.51,2.86 1.51,3.25 1.9,3.25 1.9,3.63 2.28,3.63 2.28,3.25 2.28,2.86 2.28,2.48 2.28,2.09 2.28,1.71 2.28,1.32 2.28,0.94 2.28,0.55 2.67,0.55 2.67,0.94 2.67,1.32 2.67,1.71 2.67,2.09 2.67,2.48 2.67,2.86 2.67,3.25 2.67,3.63 3.06,3.63 3.06,3.25 3.44,3.25 3.44,2.86 3.83,2.86 3.83,3.25 3.44,3.25 3.44,3.63 3.06,3.63 3.06,4.02 "/>
 </g>
</svg>
