<?xml version="1.0" encoding="UTF-8"?>
<!DOCTYPE svg PUBLIC "-//W3C//DTD SVG 1.1//EN" "http://www.w3.org/Graphics/SVG/1.1/DTD/svg11.dtd">
<!-- Creator: CorelDRAW 2020 (64-Bit) -->
<svg xmlns="http://www.w3.org/2000/svg" xml:space="preserve" width="90px" height="90px" version="1.1" shape-rendering="geometricPrecision" text-rendering="geometricPrecision" image-rendering="optimizeQuality" fill-rule="evenodd" clip-rule="evenodd"
viewBox="0 0 4.73 4.73"
 xmlns:xlink="http://www.w3.org/1999/xlink"
 xmlns:xodm="http://www.corel.com/coreldraw/odm/2003">
 <g id="Layer_x0020_1">
  <metadata id="CorelCorpID_0Corel-Layer"/>
  <g id="_2806982743536">
   <polygon fill="#DEB0FF" points="0.89,4.02 3.84,4.02 3.84,3.28 3.47,3.28 3.47,2.55 3.1,2.55 3.1,1.81 2.73,1.81 2.73,0.71 2,0.71 2,1.81 1.63,1.81 1.63,2.55 1.26,2.55 1.26,3.28 0.89,3.28 "/>
   <rect fill="none" width="4.73" height="4.73"/>
   <path fill="#440079" d="M2 1.44l0 0.37 -0.37 0 0 -0.37 0 -0.36 0 -0.37 -0.37 0 0 -0.37 0.37 0 0.37 0 0.36 0 0.37 0 0.37 0 0.37 0 0 0.37 -0.37 0 0 0.37 0 0.36 0 0.37 0.37 0 0 0.37 0 0.37 0.37 0 0 0.37 0 0.36 0.36 0 0 0.37 0 0.37 -0.36 0 0 0.37 -0.37 0 -0.37 0 -0.37 0 -0.37 0 -0.36 0 -0.37 0 -0.37 0 -0.37 0 0 -0.37 -0.36 0 0 -0.37 0 -0.37 0.36 0 0 -0.36 0 -0.37 0.37 0 0 -0.37 0 -0.37 0.37 0 0 0.37 0 0.37 0.37 0 0 0.37 -0.37 0 0 -0.37 -0.37 0 0 0.37 0 0.36 -0.37 0 0 0.37 0 0.37 0.37 0 0.37 0 0.37 0 0.36 0 0.37 0 0.37 0 0.37 0 0.37 0 0 -0.37 0 -0.37 -0.37 0 0 -0.36 0 -0.37 -0.37 0 0 -0.37 0 -0.37 -0.37 0 0 0.37 -0.37 0 0 -0.37 0.37 0 0 -0.37 0 -0.36 0 -0.37 -0.37 0 -0.36 0 0 0.37 0 0.36zm0.73 1.84l0.37 0 0 0.37 -0.37 0 0 -0.37z"/>
  </g>
 </g>
</svg>
