<?xml version="1.0" encoding="UTF-8"?>
<!DOCTYPE svg PUBLIC "-//W3C//DTD SVG 1.1//EN" "http://www.w3.org/Graphics/SVG/1.1/DTD/svg11.dtd">
<!-- Creator: CorelDRAW 2020 (64-Bit) -->
<svg xmlns="http://www.w3.org/2000/svg" xml:space="preserve" width="90px" height="90px" version="1.1" shape-rendering="geometricPrecision" text-rendering="geometricPrecision" image-rendering="optimizeQuality" fill-rule="evenodd" clip-rule="evenodd"
viewBox="0 0 3.81 3.81"
 xmlns:xlink="http://www.w3.org/1999/xlink"
 xmlns:xodm="http://www.corel.com/coreldraw/odm/2003">
 <g id="Layer_x0020_1">
  <metadata id="CorelCorpID_0Corel-Layer"/>
  <g id="_2424863724000">
   <rect fill="none" width="3.81" height="3.81"/>
   <path fill="#440079" d="M1.46 1.46l0.3 0 0.3 0 0.29 0 0 -0.29 -0.29 0 -0.3 0 -0.3 0 0 0.29zm0.6 1.49l0.29 0 0 -0.3 0 -0.3 -0.29 0 -0.3 0 -0.3 0 -0.29 0 -0.3 0 0 -0.29 -0.3 0 -0.29 0 0 -0.3 0.29 0 0 -0.3 0.3 0 0 -0.29 0.3 0 0.29 0 0 -0.3 0.3 0 0.3 0 0.29 0 0 0.3 0.3 0 0.3 0 0 0.29 0.29 0 0 0.3 0.3 0 0 0.3 -0.3 0 0 0.29 -0.29 0 0 0.3 -0.3 0 -0.3 0 -0.29 0 -0.3 0 -0.3 0 0 -0.3 0 -0.29 0 -0.3 0 -0.3 -0.29 0 -0.3 0 0 0.3 -0.3 0 0 0.3 0 0.29 0.3 0 0 0.3 0.3 0 0.29 0 0 0.3 0.3 0 0.3 0zm0.59 -0.6l0.3 0 0 -0.29 0.29 0 0 -0.3 -0.29 0 0 -0.3 -0.3 0 -0.3 0 0 0.3 0 0.3 0 0.29 0.3 0z"/>
  </g>
 </g>
</svg>
