<?xml version="1.0" encoding="UTF-8"?>
<!DOCTYPE svg PUBLIC "-//W3C//DTD SVG 1.1//EN" "http://www.w3.org/Graphics/SVG/1.1/DTD/svg11.dtd">
<!-- Creator: CorelDRAW 2020 (64-Bit) -->
<svg xmlns="http://www.w3.org/2000/svg" xml:space="preserve" width="90px" height="90px" version="1.1" shape-rendering="geometricPrecision" text-rendering="geometricPrecision" image-rendering="optimizeQuality" fill-rule="evenodd" clip-rule="evenodd"
viewBox="0 0 3.81 3.81"
 xmlns:xlink="http://www.w3.org/1999/xlink"
 xmlns:xodm="http://www.corel.com/coreldraw/odm/2003">
 <g id="Layer_x0020_1">
  <metadata id="CorelCorpID_0Corel-Layer"/>
  <rect fill="none" width="3.81" height="3.81"/>
  <polygon fill="#C479FF" points="0.72,3.24 2.8,3.24 3.09,3.24 3.09,2.65 3.09,0.57 2.8,0.57 2.8,2.65 0.72,2.65 "/>
  <path fill="#440079" d="M0.72 1.17l0 0.29 0 0.3 0 0.3 0 0.29 0 0.3 0 0.3 0 0.29 0.3 0 0.29 0 0.3 0 0.3 0 0.29 0 0.3 0 0.3 0 0.29 0 0 -0.29 0 -0.3 0 -0.3 0 -0.29 0 -0.3 0 -0.3 0 -0.29 0 -0.3 0 -0.3 -0.29 0 -0.3 0 -0.3 0 -0.29 0 -0.3 0 -0.3 0 -0.29 0 -0.3 0 0 0.3 0 0.3zm1.51 0l0.26 0 0 0.29 0.31 0 0 0.3 0 0.3 0 0.29 0 0.3 0 0.3 -0.31 0 0 -0.3 0 -0.3 -0.26 0 -0.3 0 -0.31 0 -0.3 0 0 0.3 0 0.3 -0.3 0 0 -0.3 0 -0.3 0 -0.29 0 -0.3 0 -0.3 0.3 0 0 -0.29 0.3 0 0 -0.3 0.31 0 0.3 0 0 0.3zm0.26 0.29l-0.3 0 0 -0.29 -0.26 0 -0.31 0 0 0.29 -0.3 0 0 0.3 0 0.3 0.3 0 0.31 0 0.3 0 0.26 0 0 -0.3 0 -0.3zm0.01 -1.18l0.3 0 0.29 0 0.3 0 0 0.29 0 0.3 0 0.3 0 0.29 0 0.3 0 0.3 0 0.29 0 0.3 0 0.3 0 0.29 0 0.3 -0.3 0 -0.29 0 -0.3 0 -0.3 0 -0.29 0 -0.3 0 -0.3 0 -0.29 0 -0.3 0 -0.3 0 0 -0.3 0 -0.29 0 -0.3 0 -0.3 0 -0.29 0 -0.3 0 -0.3 0 -0.29 0 -0.3 0 -0.3 0 -0.29 0.3 0 0.3 0 0.29 0 0.3 0 0.3 0 0.29 0 0.3 0z"/>
 </g>
</svg>
