<?xml version="1.0" encoding="UTF-8"?>
<!DOCTYPE svg PUBLIC "-//W3C//DTD SVG 1.1//EN" "http://www.w3.org/Graphics/SVG/1.1/DTD/svg11.dtd">
<!-- Creator: CorelDRAW 2020 (64-Bit) -->
<svg xmlns="http://www.w3.org/2000/svg" xml:space="preserve" width="1250px" height="600px" version="1.1" shape-rendering="geometricPrecision" text-rendering="geometricPrecision" image-rendering="optimizeQuality" fill-rule="evenodd" clip-rule="evenodd"
viewBox="0 0 12524.34 6011.66"
 xmlns:xlink="http://www.w3.org/1999/xlink"
 xmlns:xodm="http://www.corel.com/coreldraw/odm/2003">
 <g id="Layer_x0020_1">
  <metadata id="CorelCorpID_0Corel-Layer"/>
  <path fill="black" fill-opacity="0.301961" d="M0 5385.44l125.26 0 0 250.49 125.24 0 0 125.24 125.21 0 0 125.25 250.58 0 0 125.24c3757.25,0 7514.51,0 11271.76,0l0 -125.24 250.59 0 0 -125.25 125.2 0 0 -125.24 125.24 0 0 -250.49 125.26 0 0 -4508.73 -125.26 0 0 -250.49 -125.24 0 0 -125.24 -125.2 0 0 -125.25 -250.59 0 0 -125.24c-3757.25,0 -7514.51,0 -11271.76,0l0 125.24 -250.58 0 0 125.25 -125.21 0 0 125.24 -125.24 0 0 250.49 -125.26 0 0 4508.73z"/>
  <path fill="black" fill-opacity="0.301961" d="M0 5260.19l125.26 0 0 250.49 125.24 0 0 125.24 125.21 0 0 125.25 250.58 0 0 125.24c3757.25,0 7514.51,0 11271.76,0l0 -125.24 250.59 0 0 -125.25 125.2 0 0 -125.24 125.24 0 0 -250.49 125.26 0 0 -4508.73 -125.26 0 0 -250.49 -125.24 0 0 -125.24 -125.2 0 0 -125.25 -250.59 0 0 -125.24c-3757.25,0 -7514.51,0 -11271.76,0l0 125.24 -250.58 0 0 125.25 -125.21 0 0 125.24 -125.24 0 0 250.49 -125.26 0 0 4508.73z"/>
  <path fill="black" d="M0 5134.95l125.26 0 0 250.49 125.24 0 0 125.24 125.21 0 0 125.25 250.58 0 0 125.24c3757.25,0 7514.51,0 11271.76,0l0 -125.24 250.59 0 0 -125.25 125.2 0 0 -125.24 125.24 0 0 -250.49 125.26 0 0 -4508.73 -125.26 0 0 -250.49 -125.24 0 0 -125.24 -125.2 0 0 -125.25 -250.59 0 0 -125.24c-3757.25,0 -7514.51,0 -11271.76,0l0 125.24 -250.58 0 0 125.25 -125.21 0 0 125.24 -125.24 0 0 250.49 -125.26 0 0 4508.73z"/>
  <polygon fill="transparent" id="garapan" points="125.26,626.22 250.5,626.22 250.5,375.73 375.75,375.73 375.75,250.49 626.24,250.49 626.24,125.24 11898.1,125.24 11898.1,250.49 12148.59,250.49 12148.59,375.73 12273.83,375.73 12273.83,626.22 12399.08,626.22 12399.08,5134.95 12273.83,5134.95 12273.83,5385.44 12148.59,5385.44 12148.59,5510.7 11898.1,5510.7 11898.1,5635.93 626.24,5635.93 626.24,5510.7 375.75,5510.7 375.75,5385.44 250.5,5385.44 250.5,5134.95 125.26,5134.95 "/>
 </g>
</svg>
