<?xml version="1.0" encoding="UTF-8"?>
<!DOCTYPE svg PUBLIC "-//W3C//DTD SVG 1.1//EN" "http://www.w3.org/Graphics/SVG/1.1/DTD/svg11.dtd">
<!-- Creator: CorelDRAW 2020 (64-Bit) -->
<svg xmlns="http://www.w3.org/2000/svg" xml:space="preserve" width="90px" height="90px" version="1.1" shape-rendering="geometricPrecision" text-rendering="geometricPrecision" image-rendering="optimizeQuality" fill-rule="evenodd" clip-rule="evenodd"
viewBox="0 0 4.22 4.22"
 xmlns:xlink="http://www.w3.org/1999/xlink"
 xmlns:xodm="http://www.corel.com/coreldraw/odm/2003">
 <g id="Layer_x0020_1">
  <metadata id="CorelCorpID_0Corel-Layer"/>
  <rect fill="none" width="4.22" height="4.22"/>
  <polygon fill="#DEB0FF" points="0.63,1.63 0.96,1.63 0.96,0.97 1.62,0.97 1.62,0.68 2.6,0.68 2.6,0.97 3.26,0.97 3.26,1.63 3.59,1.63 3.59,2.61 3.26,2.61 3.26,3.27 2.6,3.27 2.6,3.56 1.62,3.56 1.62,3.27 0.96,3.27 0.96,2.61 0.63,2.61 "/>
  <polygon fill="#C479FF" points="2.6,0.97 3.26,0.97 3.26,1.27 3.26,1.63 3.59,1.63 3.59,2.61 3.26,2.61 3.26,3.27 2.6,3.27 2.6,3.56 2.28,3.56 1.62,3.56 1.62,3.27 1.62,2.91 1.29,2.91 1.29,1.92 1.62,1.92 1.62,1.27 2.28,1.27 2.28,0.97 "/>
  <path fill="#440079" d="M1.62 0.35l0.33 0 0.33 0 0.32 0 0 0.29 0.33 0 0.33 0 0 0.33 0.33 0 0 0.33 0 0.33 0.33 0 0 0.33 0 0.32 0 0.33 -0.33 0 0 0.33 0 0.33 -0.33 0 0 0.33 -0.33 0 -0.33 0 0 0.29 -0.32 0 -0.33 0 -0.33 0 0 -0.29 -0.33 0 -0.33 0 0 -0.33 -0.33 0 0 -0.33 0 -0.33 0 -0.33 0 -0.32 0 -0.33 0.33 0 0 -0.33 0 -0.33 0.33 0 0.33 0 0 -0.29 0.33 0 0.33 0 0.32 0 0 0.29 0.33 0 0.33 0 0 0.33 0 0.33 0.33 0 0 0.33 0 0.32 0 0.33 -0.33 0 0 0.33 0 0.33 -0.33 0 -0.33 0 0 0.29 -0.32 0 -0.33 0 -0.33 0 0 -0.29 -0.33 0 -0.33 0 0 -0.33 0 -0.33 -0.33 0 -0.32 0 0 -0.33 0 -0.32 0 -0.33 0.32 0 0 -0.33 0 -0.33 0.33 0 0 -0.33 0.33 0 0.33 0 0 -0.29zm0.33 2.92l0.33 0 0 -0.33 -0.33 0 0 0.33zm0 -2.3l0.33 0 0 1.64 -0.33 0 0 -1.64z"/>
 </g>
</svg>
