<?xml version="1.0" encoding="UTF-8"?>
<!DOCTYPE svg PUBLIC "-//W3C//DTD SVG 1.1//EN" "http://www.w3.org/Graphics/SVG/1.1/DTD/svg11.dtd">
<!-- Creator: CorelDRAW 2020 (64-Bit) -->
<svg xmlns="http://www.w3.org/2000/svg" xml:space="preserve" width="97px" height="97px" version="1.1" shape-rendering="geometricPrecision" text-rendering="geometricPrecision" image-rendering="optimizeQuality" fill-rule="evenodd" clip-rule="evenodd"
viewBox="0 0 92.02 92.02"
 xmlns:xlink="http://www.w3.org/1999/xlink"
 xmlns:xodm="http://www.corel.com/coreldraw/odm/2003">
 <g id="Layer_x0020_1">
  <metadata id="CorelCorpID_0Corel-Layer"/>
  <g id="_2304471164768">
   <polygon fill="#440079" points="0,13.8 4.6,13.8 4.6,9.2 9.2,9.2 9.2,4.6 13.8,4.6 13.8,0 18.4,0 23.01,0 27.61,0 32.21,0 36.81,0 41.41,0 46.01,0 50.61,0 55.21,0 59.81,0 64.42,0 69.02,0 73.62,0 78.22,0 78.22,4.6 82.82,4.6 82.82,9.2 87.42,9.2 87.42,13.8 92.02,13.8 92.02,18.4 92.02,23.01 92.02,27.61 92.02,32.21 92.02,36.81 92.02,41.41 92.02,46.01 92.02,50.61 92.02,55.21 92.02,59.81 92.02,64.42 92.02,69.02 92.02,73.62 92.02,78.22 87.42,78.22 87.42,82.82 82.82,82.82 82.82,87.42 78.22,87.42 78.22,92.02 73.62,92.02 69.02,92.02 64.42,92.02 59.81,92.02 55.21,92.02 50.61,92.02 46.01,92.02 41.41,92.02 36.81,92.02 32.21,92.02 27.61,92.02 23.01,92.02 18.4,92.02 13.8,92.02 13.8,87.42 9.2,87.42 9.2,82.82 4.6,82.82 4.6,78.22 0,78.22 0,73.62 0,69.02 0,64.42 0,59.81 0,55.21 0,50.61 0,46.01 0,41.41 0,36.81 0,32.21 0,27.61 0,23.01 0,18.4 "/>
   <path fill="white" d="M46.01 73.62l4.6 0 4.6 0 4.6 0 4.61 0 4.6 0 0 -4.6 4.6 0 4.6 0 0 -4.6 0 -4.61 0 -4.6 0 -4.6 0 -4.6 0 -4.6 0 -4.6 0 -4.6 0 -4.6 0 -4.6 -4.6 0 0 -4.61 -4.6 0 0 -4.6 -4.6 0 -4.61 0 -4.6 0 -4.6 0 -4.6 0 -4.6 0 -4.6 0 -4.6 0 -4.6 0 -4.6 0 0 4.6 -4.61 0 0 4.61 -4.6 0 0 4.6 0 4.6 0 4.6 0 4.6 0 4.6 0 4.6 0 4.6 0 4.6 0 4.61 0 4.6 4.6 0 4.61 0 0 4.6 4.6 0 4.6 0 4.6 0 4.6 0 4.6 0zm13.8 -46.01l0 4.6 -4.6 0 0 -4.6 -4.6 0 -4.6 0 -4.6 0 -4.6 0 0 4.6 -4.6 0 0 4.6 -4.6 0 0 4.6 0 4.6 0 4.6 0 4.6 4.6 0 4.6 0 0 4.6 4.6 0 4.6 0 4.6 0 4.6 0 0 -4.6 4.6 0 4.61 0 0 -4.6 0 -4.6 0 -4.6 0 -4.6 -4.61 0 0 -4.6 4.61 0 0 -4.6 -4.61 0zm0 23l0 4.6 0 4.6 -4.6 0 0 4.61 -4.6 0 -4.6 0 -4.6 0 -4.6 0 0 -4.61 -4.6 0 0 -4.6 0 -4.6 0 -4.6 0 -4.6 0 -4.6 4.6 0 0 -4.6 4.6 0 4.6 0 4.6 0 4.6 0 0 4.6 4.6 0 0 4.6 0 4.6 0 4.6zm13.81 18.41l0 4.6 -4.6 0 0 4.6 -4.6 0 -4.61 0 -4.6 0 -4.6 0 -4.6 0 -4.6 0 -4.6 0 -4.6 0 -4.6 0 -4.6 0 0 -4.6 -4.61 0 0 -4.6 0 -4.6 0 -4.61 0 -4.6 0 -4.6 0 -4.6 0 -4.6 0 -4.6 0 -4.6 0 -4.6 0 -4.6 4.61 0 0 -4.61 4.6 0 4.6 0 4.6 0 4.6 0 4.6 0 4.6 0 4.6 0 4.6 0 4.61 0 4.6 0 0 4.61 4.6 0 0 4.6 0 4.6 0 4.6 0 4.6 0 4.6 0 4.6 0 4.6 0 4.6 0 4.61 0 4.6z"/>
  </g>
 </g>
</svg>
