<?xml version="1.0" encoding="UTF-8"?>
<!DOCTYPE svg PUBLIC "-//W3C//DTD SVG 1.1//EN" "http://www.w3.org/Graphics/SVG/1.1/DTD/svg11.dtd">
<!-- Creator: CorelDRAW 2020 (64-Bit) -->
<svg xmlns="http://www.w3.org/2000/svg" xml:space="preserve" width="90px" height="90px" version="1.1" shape-rendering="geometricPrecision" text-rendering="geometricPrecision" image-rendering="optimizeQuality" fill-rule="evenodd" clip-rule="evenodd"
viewBox="0 0 3.76 3.76"
 xmlns:xlink="http://www.w3.org/1999/xlink"
 xmlns:xodm="http://www.corel.com/coreldraw/odm/2003">
 <g id="Layer_x0020_1">
  <metadata id="CorelCorpID_0Corel-Layer"/>
  <g id="_2276554355392">
   <rect fill="none" width="3.76" height="3.76"/>
   <path fill="#440079" d="M0.66 1.53l0 0 0 0.35 0.35 0 0 0.35 0.35 0 0 0.35 0.35 0 0 0.34 0.34 0 0 -0.34 0.35 0 0 -0.35 0.35 0 0 -0.35 0.35 0 0 -0.35 0 0 0 -0.35 0 0 0 -0.34 -0.35 0 0 0 -0.35 0 0 0 -0.35 0 0 0.34 -0.34 0 0 -0.34 -0.35 0 0 0 -0.35 0 0 0 -0.35 0 0 0.34 0 0 0 0.35zm2.09 -1.04l0 0 0.35 0 0 0.35 0.35 0 0 0.34 0 0 0 0.35 0 0 0 0.35 -0.35 0 0 0.35 -0.35 0 0 0.35 -0.35 0 0 0.34 -0.35 0 0 0.35 -0.34 0 0 -0.35 -0.35 0 0 -0.34 -0.35 0 0 -0.35 -0.35 0 0 -0.35 -0.35 0 0 -0.35 0 0 0 -0.35 0 0 0 -0.34 0.35 0 0 -0.35 0.35 0 0 0 0.35 0 0 0 0.35 0 0 0.35 0.34 0 0 -0.35 0.35 0 0 0 0.35 0z"/>
  </g>
 </g>
</svg>
