<?xml version="1.0" encoding="UTF-8"?>
<!DOCTYPE svg PUBLIC "-//W3C//DTD SVG 1.1//EN" "http://www.w3.org/Graphics/SVG/1.1/DTD/svg11.dtd">
<!-- Creator: CorelDRAW 2020 (64-Bit) -->
<svg xmlns="http://www.w3.org/2000/svg" xml:space="preserve" width="90px" height="90px" version="1.1" shape-rendering="geometricPrecision" text-rendering="geometricPrecision" image-rendering="optimizeQuality" fill-rule="evenodd" clip-rule="evenodd"
viewBox="0 0 4.16 4.16"
 xmlns:xlink="http://www.w3.org/1999/xlink"
 xmlns:xodm="http://www.corel.com/coreldraw/odm/2003">
 <g id="Layer_x0020_1">
  <metadata id="CorelCorpID_0Corel-Layer"/>
  <g id="_2276554384240">
   <rect fill="none" width="4.16" height="4.16"/>
   <path fill="#440079" d="M0.73 1.69l0 0 0 0.39 0.39 0 0 0.39 0.38 0 0 0.38 0.39 0 0 0.39 0.38 0 0 -0.39 0.39 0 0 -0.38 0.38 0 0 -0.39 0.39 0 0 -0.39 0 0 0 -0.38 0 0 0 -0.39 -0.39 0 0 0 -0.38 0 0 0 -0.39 0 0 0.39 -0.38 0 0 -0.39 -0.39 0 0 0 -0.38 0 0 0 -0.39 0 0 0.39 0 0 0 0.38zm2.31 -1.15l0 0 0.39 0 0 0.38 0.38 0 0 0.39 0 0 0 0.38 0 0 0 0.39 -0.38 0 0 0.39 -0.39 0 0 0.38 -0.38 0 0 0.39 -0.39 0 0 0.38 -0.38 0 0 -0.38 -0.39 0 0 -0.39 -0.38 0 0 -0.38 -0.39 0 0 -0.39 -0.38 0 0 -0.39 0 0 0 -0.38 0 0 0 -0.39 0.38 0 0 -0.38 0.39 0 0 0 0.38 0 0 0 0.39 0 0 0.38 0.38 0 0 -0.38 0.39 0 0 0 0.38 0z"/>
   <polygon fill="#DEB0FF" points="0.73,0.92 1.12,0.92 1.89,0.92 1.89,1.31 2.08,1.31 2.27,1.31 2.27,0.92 3.04,0.92 3.43,0.92 3.43,2.08 3.04,2.08 3.04,2.47 2.66,2.47 2.66,2.85 2.27,2.85 2.27,3.24 1.89,3.24 1.89,2.85 1.5,2.85 1.5,2.47 1.12,2.47 1.12,2.08 0.73,2.08 "/>
   <polygon fill="#E7C7FF" points="0.73,0.92 1.12,0.92 1.5,0.92 1.69,0.92 1.89,0.92 1.89,1.31 2.08,1.31 2.27,1.31 2.27,0.92 3.04,0.92 3.04,1.69 2.66,1.69 2.66,2.08 2.27,2.08 2.27,2.47 1.89,2.47 1.89,2.85 1.5,2.85 1.5,2.47 1.5,2.47 1.12,2.47 1.12,2.08 0.73,2.08 "/>
  </g>
 </g>
</svg>
