<?xml version="1.0" encoding="UTF-8"?>
<!DOCTYPE svg PUBLIC "-//W3C//DTD SVG 1.1//EN" "http://www.w3.org/Graphics/SVG/1.1/DTD/svg11.dtd">
<!-- Creator: CorelDRAW 2020 (64-Bit) -->
<svg xmlns="http://www.w3.org/2000/svg" xml:space="preserve" width="90px" height="90px" version="1.1" shape-rendering="geometricPrecision" text-rendering="geometricPrecision" image-rendering="optimizeQuality" fill-rule="evenodd" clip-rule="evenodd"
viewBox="0 0 4.22 4.22"
 xmlns:xlink="http://www.w3.org/1999/xlink"
 xmlns:xodm="http://www.corel.com/coreldraw/odm/2003">
 <g id="Layer_x0020_1">
  <metadata id="CorelCorpID_0Corel-Layer"/>
  <g id="_2424864229376">
   <rect fill="none" width="4.22" height="4.22"/>
   <path fill="#440079" d="M0.96 2.44l0.33 0 0 -0.33 0.33 0 0 0.33 -0.33 0 0 0.33 -0.33 0 0 0.33 0 0.33 0.33 0 0.33 0 0 -0.33 0.33 0 0 -0.33 0.33 0 0 -0.33 -0.33 0 0 -0.33 -0.33 0 0 -0.33 0 0 0 -0.33 0.33 0 0 -0.32 0.33 0 0 -0.33 0.32 0 0 -0.33 0.33 0 0.33 0 0 0.33 0.33 0 0 0.33 0 0 0 0.32 -0.33 0 0 0.33 -0.33 0 0 0.33 -0.33 0 0 0.33 0 0.33 -0.32 0 0 0.33 -0.33 0 0 0.33 -0.33 0 0 0.32 -0.33 0 -0.33 0 0 -0.32 -0.33 0 0 -0.33 0 -0.33 0.33 0 0 -0.33zm1.64 -1.64l0 0.33 -0.32 0 0 0.32 -0.33 0 0 0.33 0 0 0.33 0 0 0.33 0.32 0 0 -0.33 0.33 0 0 -0.33 0.33 0 0 -0.32 0 0 0 -0.33 -0.33 0 -0.33 0z"/>
  </g>
 </g>
</svg>
