<?xml version="1.0" encoding="UTF-8"?>
<!DOCTYPE svg PUBLIC "-//W3C//DTD SVG 1.1//EN" "http://www.w3.org/Graphics/SVG/1.1/DTD/svg11.dtd">
<!-- Creator: CorelDRAW 2020 (64-Bit) -->
<svg xmlns="http://www.w3.org/2000/svg" xml:space="preserve" width="90px" height="90px" version="1.1" shape-rendering="geometricPrecision" text-rendering="geometricPrecision" image-rendering="optimizeQuality" fill-rule="evenodd" clip-rule="evenodd"
viewBox="0 0 3.76 3.76"
 xmlns:xlink="http://www.w3.org/1999/xlink"
 xmlns:xodm="http://www.corel.com/coreldraw/odm/2003">
 <g id="Layer_x0020_1">
  <metadata id="CorelCorpID_0Corel-Layer"/>
  <rect fill="none" width="3.76" height="3.76"/>
  <path fill="#440079" d="M1 1.15l0 0.29 0.29 0 0 0.29 0.3 0 0 0.3 -0.3 0 0 0.29 -0.29 0 0 0.29 0 0.29 -0.29 0 0 0.29 0.29 0 0.29 0 0.3 0 0.29 0 0.29 0 0.29 0 0.3 0 0.29 0 0 -0.29 -0.29 0 0 -0.29 0 -0.29 -0.3 0 0 -0.29 -0.29 0 0 -0.3 0.29 0 0 -0.29 0.3 0 0 -0.29 0 -0.29 0.29 0 0 -0.3 -0.29 0 -0.3 0 -0.29 0 -0.29 0 -0.29 0 -0.3 0 -0.29 0 -0.29 0 0 0.3 0.29 0 0 0.29zm1.17 -0.88l0.29 0 0.3 0 0.29 0 0.29 0 0 0.29 0 0.3 -0.29 0 0 0.29 0 0.29 -0.29 0 0 0.29 -0.3 0 0 0.3 0.3 0 0 0.29 0.29 0 0 0.29 0 0.29 0.29 0 0 0.29 0 0.3 -0.29 0 -0.29 0 -0.3 0 -0.29 0 -0.29 0 -0.29 0 -0.3 0 -0.29 0 -0.29 0 -0.29 0 0 -0.3 0 -0.29 0.29 0 0 -0.29 0 -0.29 0.29 0 0 -0.29 0.29 0 0 -0.3 -0.29 0 0 -0.29 -0.29 0 0 -0.29 0 -0.29 -0.29 0 0 -0.3 0 -0.29 0.29 0 0.29 0 0.29 0 0.3 0 0.29 0 0.29 0z"/>
  <polygon fill="#DEB0FF" points="1,1.44 1.29,1.44 1.29,1.73 1.59,1.73 1.59,2.03 1.59,2.9 0.71,2.9 0.71,3.19 1.59,3.19 1.59,3.19 2.17,3.19 2.17,3.19 3.05,3.19 3.05,2.9 2.17,2.9 2.17,2.03 2.17,1.73 2.46,1.73 2.46,1.44 2.76,1.44 2.76,1.15 1,1.15 "/>
 </g>
</svg>
