<?xml version="1.0" encoding="UTF-8"?>
<!DOCTYPE svg PUBLIC "-//W3C//DTD SVG 1.1//EN" "http://www.w3.org/Graphics/SVG/1.1/DTD/svg11.dtd">
<!-- Creator: CorelDRAW 2020 (64-Bit) -->
<svg xmlns="http://www.w3.org/2000/svg" xml:space="preserve" width="127mm" height="5.08mm" version="1.1" style="shape-rendering:geometricPrecision; text-rendering:geometricPrecision; image-rendering:optimizeQuality; fill-rule:evenodd; clip-rule:evenodd"
viewBox="0 0 9494.39 379.78"
 xmlns:xlink="http://www.w3.org/1999/xlink"
 xmlns:xodm="http://www.corel.com/coreldraw/odm/2003">
 <defs>
  <style type="text/css">
   <![CDATA[
    .fil0 {fill:#440079}
    .fil1 {fill:#551488}
    .fil2 {fill:#662797}
    .fil3 {fill:#773BA6}
    .fil4 {fill:#884EB5}
    .fil5 {fill:#9A62C3}
    .fil6 {fill:#AB75D2}
    .fil7 {fill:#BC89E1}
    .fil8 {fill:#CD9CF0}
    .fil9 {fill:#DEB0FF}
   ]]>
  </style>
 </defs>
 <g id="Layer_x0020_1">
  <metadata id="CorelCorpID_0Corel-Layer"/>
  <g id="_1869698573232">
   <path class="fil0" d="M114.55 0l28.77 0 0 29.22 0 29.22 0 29.22 28.77 0 0 29.22 -28.77 0 -28.77 0 0 -29.22 0 -29.22 0 -29.22 0 -29.22zm691.58 58.44l28.77 0 0 29.21 0 29.22 -28.77 0 -28.77 0 0 -29.22 28.77 0 0 -29.21zm0 -58.43l28.77 0 0 29.22 -28.77 0 -28.77 0 0 29.21 0 29.22 -28.77 0 0 -29.22 0 -29.21 28.77 0 0 -29.22 28.77 0zm-115.07 0l28.77 0 0 29.22 0 29.21 0 29.22 -28.77 0 -28.77 0 0 -29.22 -28.77 0 0 29.22 -28.77 0 0 -29.22 0 -29.21 0 -29.22 28.77 0 0 29.22 28.77 0 0 29.21 28.77 0 0 -29.21 0 -29.22zm0 87.64l28.77 0 0 29.22 -28.77 0 0 -29.22zm-86.31 0l28.77 0 0 29.22 -28.77 0 0 -29.22zm-58.67 -87.64l28.77 0 0 29.22 0 29.21 0 29.22 -28.77 0 0 -29.22 0 -29.21 0 -29.22zm0 87.64l28.77 0 0 29.22 -28.77 0 0 -29.22zm-115.07 -87.64l28.77 0 28.77 0 0 29.22 28.77 0 0 29.21 0 29.22 -28.77 0 0 -29.22 0 -29.21 -28.77 0 0 29.21 0 29.22 -28.77 0 0 -29.22 0 -29.21 0 -29.22zm0 87.64l28.77 0 28.77 0 0 29.22 -28.77 0 -28.77 0 0 -29.22zm-57.53 0l28.77 0 0 29.22 -28.77 0 0 -29.22zm-28.77 0l0 29.22 -28.77 0 0 -29.22 0 -29.22 0 -29.22 28.77 0 0 -29.22 28.77 0 0 29.22 -28.77 0 0 29.22 0 0 28.77 0 0 -29.21 28.77 0 0 29.21 0 29.22 -28.77 0 -28.77 0zm-86.31 -58.42l28.77 0 0 29.21 0 29.22 -28.77 0 0 29.22 -28.77 0 0 -29.22 -28.77 0 0 -29.22 0 -29.22 28.77 0 0 -29.22 28.77 0 0 29.22 -28.77 0 0 29.22 0 29.22 28.77 0 0 -29.22 0 -29.21z"/>
   <path class="fil0" d="M57.54 146.07l28.77 0 28.77 0 28.77 0 28.77 0 28.77 0 28.77 0 28.77 0 28.77 0 28.77 0 28.77 0 28.77 0 28.77 0 28.77 0 28.77 0 28.77 0 28.77 0 28.77 0 28.77 0 28.77 0 28.77 0 28.77 0 28.77 0 28.77 0 28.77 0 28.77 0 28.77 0 28.77 0 28.77 0 28.77 0 28.77 0 0 29.22 28.77 0 0 29.21 0 29.22 0 29.22 0 29.21 0 29.22 0 29.22 -28.77 0 0 29.21 -28.77 0 -28.77 0 -28.77 0 -28.77 0 -28.77 0 -28.77 0 -28.77 0 -28.77 0 -28.77 0 -28.77 0 -28.77 0 -28.77 0 -28.77 0 -28.77 0 -28.77 0 -28.77 0 -28.77 0 -28.77 0 -28.77 0 -28.77 0 -28.77 0 -28.77 0 -28.77 0 -28.77 0 -28.77 0 -28.77 0 -28.77 0 -28.77 0 -28.77 0 -28.77 0 -28.77 0 0 -29.21 -28.77 0 0 -29.22 0 -29.22 0 -29.21 0 -29.22 0 -29.22 0 -29.21 28.77 0 0 -29.22 28.77 0zm863.13 204.5l0 -29.22 0 -29.22 0 -29.21 0 -29.22 0 -29.22 0 -29.21 -28.77 0 -28.77 0 -28.77 0 -28.77 0 -28.77 0 -28.77 0 -28.77 0 -28.77 0 -28.77 0 -28.77 0 -28.77 0 -28.77 0 -28.77 0 -28.77 0 -28.77 0 -28.77 0 -28.77 0 -28.77 0 -28.77 0 -28.77 0 -28.77 0 -28.77 0 -28.77 0 -28.77 0 -28.77 0 -28.77 0 -28.77 0 -28.77 0 -28.77 0 -28.77 0 -28.77 0 0 29.21 0 29.22 0 29.22 0 29.21 0 29.22 0 29.22 28.77 0 28.77 0 28.77 0 28.77 0 28.77 0 28.77 0 28.77 0 28.77 0 28.77 0 28.77 0 28.77 0 28.77 0 28.77 0 28.77 0 28.77 0 28.77 0 28.77 0 28.77 0 28.77 0 28.77 0 28.77 0 28.77 0 28.77 0 28.77 0 28.77 0 28.77 0 28.77 0 28.77 0 28.77 0 28.77 0 28.77 0z"/>
   <path class="fil0" d="M115.08 321.35l-57.54 0c0,-38.95 0,-77.9 0,-116.86l57.54 0c0,38.96 0,77.91 0,116.86z"/>
   <path class="fil1" d="M201.39 321.35c-19.18,0 -38.36,0 -57.54,0 0,-38.95 0,-77.9 0,-116.86 19.18,0 38.37,0 57.54,0 0,38.96 0,77.91 0,116.86z"/>
   <path class="fil2" d="M287.71 321.35c-19.18,0 -38.36,0 -57.54,0 0,-38.95 0,-77.9 0,-116.86 19.18,0 38.36,0 57.54,0 0,38.96 0,77.91 0,116.86z"/>
   <path class="fil3" d="M374.02 321.35c-19.18,0 -38.36,0 -57.54,0 0,-38.95 0,-77.9 0,-116.86 19.18,0 38.37,0 57.54,0 0,38.96 0,77.91 0,116.86z"/>
   <path class="fil4" d="M460.34 321.35c-19.18,0 -38.37,0 -57.54,0 0,-38.95 0,-77.9 0,-116.86 19.18,0 38.36,0 57.54,0 0,38.96 0,77.91 0,116.86z"/>
   <path class="fil5" d="M546.65 321.35c-19.18,0 -38.36,0 -57.54,0 0,-38.95 0,-77.9 0,-116.86 19.18,0 38.37,0 57.54,0 0,38.96 0,77.91 0,116.86z"/>
   <path class="fil6" d="M632.96 321.35c-19.18,0 -38.37,0 -57.54,0 0,-38.95 0,-77.9 0,-116.86 19.18,0 38.36,0 57.54,0 0,38.96 0,77.91 0,116.86z"/>
   <path class="fil7" d="M719.27 321.35c-19.18,0 -38.36,0 -57.54,0 0,-38.95 0,-77.9 0,-116.86 19.18,0 38.36,0 57.54,0 0,38.96 0,77.91 0,116.86z"/>
   <path class="fil8" d="M805.59 321.35c-19.18,0 -38.37,0 -57.54,0 0,-38.95 0,-77.9 0,-116.86 19.18,0 38.36,0 57.54,0 0,38.96 0,77.91 0,116.86z"/>
   <path class="fil9" d="M891.9 321.35l-57.54 0c0,-38.95 0,-77.9 0,-116.86l57.54 0c0,38.96 0,77.91 0,116.86z"/>
  </g>
  <g id="_1869698575536">
   <path class="fil0" d="M1063.99 0l28.77 0 0 29.22 0 29.22 0 29.22 28.77 0 0 29.22 -28.77 0 -28.77 0 0 -29.22 0 -29.22 0 -29.22 0 -29.22zm691.58 58.44l28.77 0 0 29.21 0 29.22 -28.77 0 -28.77 0 0 -29.22 28.77 0 0 -29.21zm0 -58.43l28.77 0 0 29.22 -28.77 0 -28.77 0 0 29.21 0 29.22 -28.77 0 0 -29.22 0 -29.21 28.77 0 0 -29.22 28.77 0zm-115.07 0l28.77 0 0 29.22 0 29.21 0 29.22 -28.77 0 -28.77 0 0 -29.22 -28.77 0 0 29.22 -28.77 0 0 -29.22 0 -29.21 0 -29.22 28.77 0 0 29.22 28.77 0 0 29.21 28.77 0 0 -29.21 0 -29.22zm0 87.64l28.77 0 0 29.22 -28.77 0 0 -29.22zm-86.31 0l28.77 0 0 29.22 -28.77 0 0 -29.22zm-58.67 -87.64l28.77 0 0 29.22 0 29.21 0 29.22 -28.77 0 0 -29.22 0 -29.21 0 -29.22zm0 87.64l28.77 0 0 29.22 -28.77 0 0 -29.22zm-115.07 -87.64l28.77 0 28.77 0 0 29.22 28.77 0 0 29.21 0 29.22 -28.77 0 0 -29.22 0 -29.21 -28.77 0 0 29.21 0 29.22 -28.77 0 0 -29.22 0 -29.21 0 -29.22zm0 87.64l28.77 0 28.77 0 0 29.22 -28.77 0 -28.77 0 0 -29.22zm-57.53 0l28.77 0 0 29.22 -28.77 0 0 -29.22zm-28.77 0l0 29.22 -28.77 0 0 -29.22 0 -29.22 0 -29.22 28.77 0 0 -29.22 28.77 0 0 29.22 -28.77 0 0 29.22 0 0 28.77 0 0 -29.21 28.77 0 0 29.21 0 29.22 -28.77 0 -28.77 0zm-86.31 -58.42l28.77 0 0 29.21 0 29.22 -28.77 0 0 29.22 -28.77 0 0 -29.22 -28.77 0 0 -29.22 0 -29.22 28.77 0 0 -29.22 28.77 0 0 29.22 -28.77 0 0 29.22 0 29.22 28.77 0 0 -29.22 0 -29.21z"/>
   <path class="fil0" d="M1006.98 146.07l28.77 0 28.77 0 28.77 0 28.77 0 28.77 0 28.77 0 28.77 0 28.77 0 28.77 0 28.77 0 28.77 0 28.77 0 28.77 0 28.77 0 28.77 0 28.77 0 28.77 0 28.77 0 28.77 0 28.77 0 28.77 0 28.77 0 28.77 0 28.77 0 28.77 0 28.77 0 28.77 0 28.77 0 28.77 0 28.77 0 0 29.22 28.77 0 0 29.21 0 29.22 0 29.22 0 29.21 0 29.22 0 29.22 -28.77 0 0 29.21 -28.77 0 -28.77 0 -28.77 0 -28.77 0 -28.77 0 -28.77 0 -28.77 0 -28.77 0 -28.77 0 -28.77 0 -28.77 0 -28.77 0 -28.77 0 -28.77 0 -28.77 0 -28.77 0 -28.77 0 -28.77 0 -28.77 0 -28.77 0 -28.77 0 -28.77 0 -28.77 0 -28.77 0 -28.77 0 -28.77 0 -28.77 0 -28.77 0 -28.77 0 -28.77 0 -28.77 0 0 -29.21 -28.77 0 0 -29.22 0 -29.22 0 -29.21 0 -29.22 0 -29.22 0 -29.21 28.77 0 0 -29.22 28.77 0zm863.13 204.5l0 -29.22 0 -29.22 0 -29.21 0 -29.22 0 -29.22 0 -29.21 -28.77 0 -28.77 0 -28.77 0 -28.77 0 -28.77 0 -28.77 0 -28.77 0 -28.77 0 -28.77 0 -28.77 0 -28.77 0 -28.77 0 -28.77 0 -28.77 0 -28.77 0 -28.77 0 -28.77 0 -28.77 0 -28.77 0 -28.77 0 -28.77 0 -28.77 0 -28.77 0 -28.77 0 -28.77 0 -28.77 0 -28.77 0 -28.77 0 -28.77 0 -28.77 0 -28.77 0 0 29.21 0 29.22 0 29.22 0 29.21 0 29.22 0 29.22 28.77 0 28.77 0 28.77 0 28.77 0 28.77 0 28.77 0 28.77 0 28.77 0 28.77 0 28.77 0 28.77 0 28.77 0 28.77 0 28.77 0 28.77 0 28.77 0 28.77 0 28.77 0 28.77 0 28.77 0 28.77 0 28.77 0 28.77 0 28.77 0 28.77 0 28.77 0 28.77 0 28.77 0 28.77 0 28.77 0 28.77 0z"/>
   <path class="fil0" d="M1064.52 321.35l-57.54 0c0,-38.95 0,-77.9 0,-116.86l57.54 0c0,38.96 0,77.91 0,116.86z"/>
   <path class="fil1" d="M1150.83 321.35c-19.18,0 -38.36,0 -57.54,0 0,-38.95 0,-77.9 0,-116.86 19.18,0 38.37,0 57.54,0 0,38.96 0,77.91 0,116.86z"/>
   <path class="fil2" d="M1237.15 321.35c-19.18,0 -38.36,0 -57.54,0 0,-38.95 0,-77.9 0,-116.86 19.18,0 38.36,0 57.54,0 0,38.96 0,77.91 0,116.86z"/>
   <path class="fil3" d="M1323.46 321.35c-19.18,0 -38.36,0 -57.54,0 0,-38.95 0,-77.9 0,-116.86 19.18,0 38.37,0 57.54,0 0,38.96 0,77.91 0,116.86z"/>
   <path class="fil4" d="M1409.78 321.35c-19.18,0 -38.37,0 -57.54,0 0,-38.95 0,-77.9 0,-116.86 19.18,0 38.36,0 57.54,0 0,38.96 0,77.91 0,116.86z"/>
   <path class="fil5" d="M1496.08 321.35c-19.18,0 -38.36,0 -57.54,0 0,-38.95 0,-77.9 0,-116.86 19.18,0 38.37,0 57.54,0 0,38.96 0,77.91 0,116.86z"/>
   <path class="fil6" d="M1582.4 321.35c-19.18,0 -38.37,0 -57.54,0 0,-38.95 0,-77.9 0,-116.86 19.18,0 38.36,0 57.54,0 0,38.96 0,77.91 0,116.86z"/>
   <path class="fil7" d="M1668.71 321.35c-19.18,0 -38.36,0 -57.54,0 0,-38.95 0,-77.9 0,-116.86 19.18,0 38.36,0 57.54,0 0,38.96 0,77.91 0,116.86z"/>
   <path class="fil8" d="M1755.03 321.35c-19.18,0 -38.37,0 -57.54,0 0,-38.95 0,-77.9 0,-116.86 19.18,0 38.36,0 57.54,0 0,38.96 0,77.91 0,116.86z"/>
  </g>
  <g id="_1869698579472">
   <path class="fil0" d="M2013.42 0l28.77 0 0 29.22 0 29.22 0 29.22 28.77 0 0 29.22 -28.77 0 -28.77 0 0 -29.22 0 -29.22 0 -29.22 0 -29.22zm691.58 58.44l28.77 0 0 29.21 0 29.22 -28.77 0 -28.77 0 0 -29.22 28.77 0 0 -29.21zm0 -58.43l28.77 0 0 29.22 -28.77 0 -28.77 0 0 29.21 0 29.22 -28.77 0 0 -29.22 0 -29.21 28.77 0 0 -29.22 28.77 0zm-115.07 0l28.77 0 0 29.22 0 29.21 0 29.22 -28.77 0 -28.77 0 0 -29.22 -28.77 0 0 29.22 -28.77 0 0 -29.22 0 -29.21 0 -29.22 28.77 0 0 29.22 28.77 0 0 29.21 28.77 0 0 -29.21 0 -29.22zm0 87.64l28.77 0 0 29.22 -28.77 0 0 -29.22zm-86.31 0l28.77 0 0 29.22 -28.77 0 0 -29.22zm-58.67 -87.64l28.77 0 0 29.22 0 29.21 0 29.22 -28.77 0 0 -29.22 0 -29.21 0 -29.22zm0 87.64l28.77 0 0 29.22 -28.77 0 0 -29.22zm-115.07 -87.64l28.77 0 28.77 0 0 29.22 28.77 0 0 29.21 0 29.22 -28.77 0 0 -29.22 0 -29.21 -28.77 0 0 29.21 0 29.22 -28.77 0 0 -29.22 0 -29.21 0 -29.22zm0 87.64l28.77 0 28.77 0 0 29.22 -28.77 0 -28.77 0 0 -29.22zm-57.53 0l28.77 0 0 29.22 -28.77 0 0 -29.22zm-28.77 0l0 29.22 -28.77 0 0 -29.22 0 -29.22 0 -29.22 28.77 0 0 -29.22 28.77 0 0 29.22 -28.77 0 0 29.22 0 0 28.77 0 0 -29.21 28.77 0 0 29.21 0 29.22 -28.77 0 -28.77 0zm-86.31 -58.42l28.77 0 0 29.21 0 29.22 -28.77 0 0 29.22 -28.77 0 0 -29.22 -28.77 0 0 -29.22 0 -29.22 28.77 0 0 -29.22 28.77 0 0 29.22 -28.77 0 0 29.22 0 29.22 28.77 0 0 -29.22 0 -29.21z"/>
   <path class="fil0" d="M1956.42 146.07l28.77 0 28.77 0 28.77 0 28.77 0 28.77 0 28.77 0 28.77 0 28.77 0 28.77 0 28.77 0 28.77 0 28.77 0 28.77 0 28.77 0 28.77 0 28.77 0 28.77 0 28.77 0 28.77 0 28.77 0 28.77 0 28.77 0 28.77 0 28.77 0 28.77 0 28.77 0 28.77 0 28.77 0 28.77 0 28.77 0 0 29.22 28.77 0 0 29.21 0 29.22 0 29.22 0 29.21 0 29.22 0 29.22 -28.77 0 0 29.21 -28.77 0 -28.77 0 -28.77 0 -28.77 0 -28.77 0 -28.77 0 -28.77 0 -28.77 0 -28.77 0 -28.77 0 -28.77 0 -28.77 0 -28.77 0 -28.77 0 -28.77 0 -28.77 0 -28.77 0 -28.77 0 -28.77 0 -28.77 0 -28.77 0 -28.77 0 -28.77 0 -28.77 0 -28.77 0 -28.77 0 -28.77 0 -28.77 0 -28.77 0 -28.77 0 -28.77 0 0 -29.21 -28.77 0 0 -29.22 0 -29.22 0 -29.21 0 -29.22 0 -29.22 0 -29.21 28.77 0 0 -29.22 28.77 0zm863.13 204.5l0 -29.22 0 -29.22 0 -29.21 0 -29.22 0 -29.22 0 -29.21 -28.77 0 -28.77 0 -28.77 0 -28.77 0 -28.77 0 -28.77 0 -28.77 0 -28.77 0 -28.77 0 -28.77 0 -28.77 0 -28.77 0 -28.77 0 -28.77 0 -28.77 0 -28.77 0 -28.77 0 -28.77 0 -28.77 0 -28.77 0 -28.77 0 -28.77 0 -28.77 0 -28.77 0 -28.77 0 -28.77 0 -28.77 0 -28.77 0 -28.77 0 -28.77 0 -28.77 0 0 29.21 0 29.22 0 29.22 0 29.21 0 29.22 0 29.22 28.77 0 28.77 0 28.77 0 28.77 0 28.77 0 28.77 0 28.77 0 28.77 0 28.77 0 28.77 0 28.77 0 28.77 0 28.77 0 28.77 0 28.77 0 28.77 0 28.77 0 28.77 0 28.77 0 28.77 0 28.77 0 28.77 0 28.77 0 28.77 0 28.77 0 28.77 0 28.77 0 28.77 0 28.77 0 28.77 0 28.77 0z"/>
   <path class="fil0" d="M2013.96 321.35l-57.54 0c0,-38.95 0,-77.9 0,-116.86l57.54 0c0,38.96 0,77.91 0,116.86z"/>
   <path class="fil1" d="M2100.27 321.35c-19.18,0 -38.36,0 -57.54,0 0,-38.95 0,-77.9 0,-116.86 19.18,0 38.37,0 57.54,0 0,38.96 0,77.91 0,116.86z"/>
   <path class="fil2" d="M2186.59 321.35c-19.18,0 -38.36,0 -57.54,0 0,-38.95 0,-77.9 0,-116.86 19.18,0 38.36,0 57.54,0 0,38.96 0,77.91 0,116.86z"/>
   <path class="fil3" d="M2272.9 321.35c-19.18,0 -38.36,0 -57.54,0 0,-38.95 0,-77.9 0,-116.86 19.18,0 38.37,0 57.54,0 0,38.96 0,77.91 0,116.86z"/>
   <path class="fil4" d="M2359.21 321.35c-19.18,0 -38.37,0 -57.54,0 0,-38.95 0,-77.9 0,-116.86 19.18,0 38.36,0 57.54,0 0,38.96 0,77.91 0,116.86z"/>
   <path class="fil5" d="M2445.52 321.35c-19.18,0 -38.36,0 -57.54,0 0,-38.95 0,-77.9 0,-116.86 19.18,0 38.37,0 57.54,0 0,38.96 0,77.91 0,116.86z"/>
   <path class="fil6" d="M2531.84 321.35c-19.18,0 -38.37,0 -57.54,0 0,-38.95 0,-77.9 0,-116.86 19.18,0 38.36,0 57.54,0 0,38.96 0,77.91 0,116.86z"/>
   <path class="fil7" d="M2618.15 321.35c-19.18,0 -38.36,0 -57.54,0 0,-38.95 0,-77.9 0,-116.86 19.18,0 38.36,0 57.54,0 0,38.96 0,77.91 0,116.86z"/>
  </g>
  <g id="_1869698581584">
   <path class="fil0" d="M2962.86 0l28.77 0 0 29.22 0 29.22 0 29.22 28.77 0 0 29.22 -28.77 0 -28.77 0 0 -29.22 0 -29.22 0 -29.22 0 -29.22zm691.58 58.44l28.77 0 0 29.21 0 29.22 -28.77 0 -28.77 0 0 -29.22 28.77 0 0 -29.21zm0 -58.43l28.77 0 0 29.22 -28.77 0 -28.77 0 0 29.21 0 29.22 -28.77 0 0 -29.22 0 -29.21 28.77 0 0 -29.22 28.77 0zm-115.07 0l28.77 0 0 29.22 0 29.21 0 29.22 -28.77 0 -28.77 0 0 -29.22 -28.77 0 0 29.22 -28.77 0 0 -29.22 0 -29.21 0 -29.22 28.77 0 0 29.22 28.77 0 0 29.21 28.77 0 0 -29.21 0 -29.22zm0 87.64l28.77 0 0 29.22 -28.77 0 0 -29.22zm-86.31 0l28.77 0 0 29.22 -28.77 0 0 -29.22zm-58.67 -87.64l28.77 0 0 29.22 0 29.21 0 29.22 -28.77 0 0 -29.22 0 -29.21 0 -29.22zm0 87.64l28.77 0 0 29.22 -28.77 0 0 -29.22zm-115.07 -87.64l28.77 0 28.77 0 0 29.22 28.77 0 0 29.21 0 29.22 -28.77 0 0 -29.22 0 -29.21 -28.77 0 0 29.21 0 29.22 -28.77 0 0 -29.22 0 -29.21 0 -29.22zm0 87.64l28.77 0 28.77 0 0 29.22 -28.77 0 -28.77 0 0 -29.22zm-57.53 0l28.77 0 0 29.22 -28.77 0 0 -29.22zm-28.77 0l0 29.22 -28.77 0 0 -29.22 0 -29.22 0 -29.22 28.77 0 0 -29.22 28.77 0 0 29.22 -28.77 0 0 29.22 0 0 28.77 0 0 -29.21 28.77 0 0 29.21 0 29.22 -28.77 0 -28.77 0zm-86.31 -58.42l28.77 0 0 29.21 0 29.22 -28.77 0 0 29.22 -28.77 0 0 -29.22 -28.77 0 0 -29.22 0 -29.22 28.77 0 0 -29.22 28.77 0 0 29.22 -28.77 0 0 29.22 0 29.22 28.77 0 0 -29.22 0 -29.21z"/>
   <path class="fil0" d="M2905.86 146.07l28.77 0 28.77 0 28.77 0 28.77 0 28.77 0 28.77 0 28.77 0 28.77 0 28.77 0 28.77 0 28.77 0 28.77 0 28.77 0 28.77 0 28.77 0 28.77 0 28.77 0 28.77 0 28.77 0 28.77 0 28.77 0 28.77 0 28.77 0 28.77 0 28.77 0 28.77 0 28.77 0 28.77 0 28.77 0 28.77 0 0 29.22 28.77 0 0 29.21 0 29.22 0 29.22 0 29.21 0 29.22 0 29.22 -28.77 0 0 29.21 -28.77 0 -28.77 0 -28.77 0 -28.77 0 -28.77 0 -28.77 0 -28.77 0 -28.77 0 -28.77 0 -28.77 0 -28.77 0 -28.77 0 -28.77 0 -28.77 0 -28.77 0 -28.77 0 -28.77 0 -28.77 0 -28.77 0 -28.77 0 -28.77 0 -28.77 0 -28.77 0 -28.77 0 -28.77 0 -28.77 0 -28.77 0 -28.77 0 -28.77 0 -28.77 0 -28.77 0 0 -29.21 -28.77 0 0 -29.22 0 -29.22 0 -29.21 0 -29.22 0 -29.22 0 -29.21 28.77 0 0 -29.22 28.77 0zm863.13 204.5l0 -29.22 0 -29.22 0 -29.21 0 -29.22 0 -29.22 0 -29.21 -28.77 0 -28.77 0 -28.77 0 -28.77 0 -28.77 0 -28.77 0 -28.77 0 -28.77 0 -28.77 0 -28.77 0 -28.77 0 -28.77 0 -28.77 0 -28.77 0 -28.77 0 -28.77 0 -28.77 0 -28.77 0 -28.77 0 -28.77 0 -28.77 0 -28.77 0 -28.77 0 -28.77 0 -28.77 0 -28.77 0 -28.77 0 -28.77 0 -28.77 0 -28.77 0 -28.77 0 0 29.21 0 29.22 0 29.22 0 29.21 0 29.22 0 29.22 28.77 0 28.77 0 28.77 0 28.77 0 28.77 0 28.77 0 28.77 0 28.77 0 28.77 0 28.77 0 28.77 0 28.77 0 28.77 0 28.77 0 28.77 0 28.77 0 28.77 0 28.77 0 28.77 0 28.77 0 28.77 0 28.77 0 28.77 0 28.77 0 28.77 0 28.77 0 28.77 0 28.77 0 28.77 0 28.77 0 28.77 0z"/>
   <path class="fil0" d="M2963.4 321.35l-57.54 0c0,-38.95 0,-77.9 0,-116.86l57.54 0c0,38.96 0,77.91 0,116.86z"/>
   <path class="fil1" d="M3049.71 321.35c-19.18,0 -38.36,0 -57.54,0 0,-38.95 0,-77.9 0,-116.86 19.18,0 38.37,0 57.54,0 0,38.96 0,77.91 0,116.86z"/>
   <path class="fil2" d="M3136.03 321.35c-19.18,0 -38.36,0 -57.54,0 0,-38.95 0,-77.9 0,-116.86 19.18,0 38.36,0 57.54,0 0,38.96 0,77.91 0,116.86z"/>
   <path class="fil3" d="M3222.34 321.35c-19.18,0 -38.36,0 -57.54,0 0,-38.95 0,-77.9 0,-116.86 19.18,0 38.37,0 57.54,0 0,38.96 0,77.91 0,116.86z"/>
   <path class="fil4" d="M3308.65 321.35c-19.18,0 -38.37,0 -57.54,0 0,-38.95 0,-77.9 0,-116.86 19.18,0 38.36,0 57.54,0 0,38.96 0,77.91 0,116.86z"/>
   <path class="fil5" d="M3394.96 321.35c-19.18,0 -38.36,0 -57.54,0 0,-38.95 0,-77.9 0,-116.86 19.18,0 38.37,0 57.54,0 0,38.96 0,77.91 0,116.86z"/>
   <path class="fil6" d="M3481.28 321.35c-19.18,0 -38.37,0 -57.54,0 0,-38.95 0,-77.9 0,-116.86 19.18,0 38.36,0 57.54,0 0,38.96 0,77.91 0,116.86z"/>
  </g>
  <g id="_1869698585376">
   <path class="fil0" d="M3912.3 0l28.77 0 0 29.22 0 29.22 0 29.22 28.77 0 0 29.22 -28.77 0 -28.77 0 0 -29.22 0 -29.22 0 -29.22 0 -29.22zm691.58 58.44l28.77 0 0 29.21 0 29.22 -28.77 0 -28.77 0 0 -29.22 28.77 0 0 -29.21zm0 -58.43l28.77 0 0 29.22 -28.77 0 -28.77 0 0 29.21 0 29.22 -28.77 0 0 -29.22 0 -29.21 28.77 0 0 -29.22 28.77 0zm-115.07 0l28.77 0 0 29.22 0 29.21 0 29.22 -28.77 0 -28.77 0 0 -29.22 -28.77 0 0 29.22 -28.77 0 0 -29.22 0 -29.21 0 -29.22 28.77 0 0 29.22 28.77 0 0 29.21 28.77 0 0 -29.21 0 -29.22zm0 87.64l28.77 0 0 29.22 -28.77 0 0 -29.22zm-86.31 0l28.77 0 0 29.22 -28.77 0 0 -29.22zm-58.67 -87.64l28.77 0 0 29.22 0 29.21 0 29.22 -28.77 0 0 -29.22 0 -29.21 0 -29.22zm0 87.64l28.77 0 0 29.22 -28.77 0 0 -29.22zm-115.07 -87.64l28.77 0 28.77 0 0 29.22 28.77 0 0 29.21 0 29.22 -28.77 0 0 -29.22 0 -29.21 -28.77 0 0 29.21 0 29.22 -28.77 0 0 -29.22 0 -29.21 0 -29.22zm0 87.64l28.77 0 28.77 0 0 29.22 -28.77 0 -28.77 0 0 -29.22zm-57.53 0l28.77 0 0 29.22 -28.77 0 0 -29.22zm-28.77 0l0 29.22 -28.77 0 0 -29.22 0 -29.22 0 -29.22 28.77 0 0 -29.22 28.77 0 0 29.22 -28.77 0 0 29.22 0 0 28.77 0 0 -29.21 28.77 0 0 29.21 0 29.22 -28.77 0 -28.77 0zm-86.31 -58.42l28.77 0 0 29.21 0 29.22 -28.77 0 0 29.22 -28.77 0 0 -29.22 -28.77 0 0 -29.22 0 -29.22 28.77 0 0 -29.22 28.77 0 0 29.22 -28.77 0 0 29.22 0 29.22 28.77 0 0 -29.22 0 -29.21z"/>
   <path class="fil0" d="M3855.3 146.07l28.77 0 28.77 0 28.77 0 28.77 0 28.77 0 28.77 0 28.77 0 28.77 0 28.77 0 28.77 0 28.77 0 28.77 0 28.77 0 28.77 0 28.77 0 28.77 0 28.77 0 28.77 0 28.77 0 28.77 0 28.77 0 28.77 0 28.77 0 28.77 0 28.77 0 28.77 0 28.77 0 28.77 0 28.77 0 28.77 0 0 29.22 28.77 0 0 29.21 0 29.22 0 29.22 0 29.21 0 29.22 0 29.22 -28.77 0 0 29.21 -28.77 0 -28.77 0 -28.77 0 -28.77 0 -28.77 0 -28.77 0 -28.77 0 -28.77 0 -28.77 0 -28.77 0 -28.77 0 -28.77 0 -28.77 0 -28.77 0 -28.77 0 -28.77 0 -28.77 0 -28.77 0 -28.77 0 -28.77 0 -28.77 0 -28.77 0 -28.77 0 -28.77 0 -28.77 0 -28.77 0 -28.77 0 -28.77 0 -28.77 0 -28.77 0 -28.77 0 0 -29.21 -28.77 0 0 -29.22 0 -29.22 0 -29.21 0 -29.22 0 -29.22 0 -29.21 28.77 0 0 -29.22 28.77 0zm863.13 204.5l0 -29.22 0 -29.22 0 -29.21 0 -29.22 0 -29.22 0 -29.21 -28.77 0 -28.77 0 -28.77 0 -28.77 0 -28.77 0 -28.77 0 -28.77 0 -28.77 0 -28.77 0 -28.77 0 -28.77 0 -28.77 0 -28.77 0 -28.77 0 -28.77 0 -28.77 0 -28.77 0 -28.77 0 -28.77 0 -28.77 0 -28.77 0 -28.77 0 -28.77 0 -28.77 0 -28.77 0 -28.77 0 -28.77 0 -28.77 0 -28.77 0 -28.77 0 -28.77 0 0 29.21 0 29.22 0 29.22 0 29.21 0 29.22 0 29.22 28.77 0 28.77 0 28.77 0 28.77 0 28.77 0 28.77 0 28.77 0 28.77 0 28.77 0 28.77 0 28.77 0 28.77 0 28.77 0 28.77 0 28.77 0 28.77 0 28.77 0 28.77 0 28.77 0 28.77 0 28.77 0 28.77 0 28.77 0 28.77 0 28.77 0 28.77 0 28.77 0 28.77 0 28.77 0 28.77 0 28.77 0z"/>
   <path class="fil0" d="M3912.84 321.35l-57.54 0c0,-38.95 0,-77.9 0,-116.86l57.54 0c0,38.96 0,77.91 0,116.86z"/>
   <path class="fil1" d="M3999.15 321.35c-19.18,0 -38.36,0 -57.54,0 0,-38.95 0,-77.9 0,-116.86 19.18,0 38.37,0 57.54,0 0,38.96 0,77.91 0,116.86z"/>
   <path class="fil2" d="M4085.47 321.35c-19.18,0 -38.36,0 -57.54,0 0,-38.95 0,-77.9 0,-116.86 19.18,0 38.36,0 57.54,0 0,38.96 0,77.91 0,116.86z"/>
   <path class="fil3" d="M4171.78 321.35c-19.18,0 -38.36,0 -57.54,0 0,-38.95 0,-77.9 0,-116.86 19.18,0 38.37,0 57.54,0 0,38.96 0,77.91 0,116.86z"/>
   <path class="fil4" d="M4258.09 321.35c-19.18,0 -38.37,0 -57.54,0 0,-38.95 0,-77.9 0,-116.86 19.18,0 38.36,0 57.54,0 0,38.96 0,77.91 0,116.86z"/>
   <path class="fil5" d="M4344.4 321.35c-19.18,0 -38.36,0 -57.54,0 0,-38.95 0,-77.9 0,-116.86 19.18,0 38.37,0 57.54,0 0,38.96 0,77.91 0,116.86z"/>
  </g>
  <g id="_1869698586480">
   <path class="fil0" d="M4861.74 0l28.77 0 0 29.22 0 29.22 0 29.22 28.77 0 0 29.22 -28.77 0 -28.77 0 0 -29.22 0 -29.22 0 -29.22 0 -29.22zm691.58 58.44l28.77 0 0 29.21 0 29.22 -28.77 0 -28.77 0 0 -29.22 28.77 0 0 -29.21zm0 -58.43l28.77 0 0 29.22 -28.77 0 -28.77 0 0 29.21 0 29.22 -28.77 0 0 -29.22 0 -29.21 28.77 0 0 -29.22 28.77 0zm-115.07 0l28.77 0 0 29.22 0 29.21 0 29.22 -28.77 0 -28.77 0 0 -29.22 -28.77 0 0 29.22 -28.77 0 0 -29.22 0 -29.21 0 -29.22 28.77 0 0 29.22 28.77 0 0 29.21 28.77 0 0 -29.21 0 -29.22zm0 87.64l28.77 0 0 29.22 -28.77 0 0 -29.22zm-86.31 0l28.77 0 0 29.22 -28.77 0 0 -29.22zm-58.67 -87.64l28.77 0 0 29.22 0 29.21 0 29.22 -28.77 0 0 -29.22 0 -29.21 0 -29.22zm0 87.64l28.77 0 0 29.22 -28.77 0 0 -29.22zm-115.07 -87.64l28.77 0 28.77 0 0 29.22 28.77 0 0 29.21 0 29.22 -28.77 0 0 -29.22 0 -29.21 -28.77 0 0 29.21 0 29.22 -28.77 0 0 -29.22 0 -29.21 0 -29.22zm0 87.64l28.77 0 28.77 0 0 29.22 -28.77 0 -28.77 0 0 -29.22zm-57.53 0l28.77 0 0 29.22 -28.77 0 0 -29.22zm-28.77 0l0 29.22 -28.77 0 0 -29.22 0 -29.22 0 -29.22 28.77 0 0 -29.22 28.77 0 0 29.22 -28.77 0 0 29.22 0 0 28.77 0 0 -29.21 28.77 0 0 29.21 0 29.22 -28.77 0 -28.77 0zm-86.31 -58.42l28.77 0 0 29.21 0 29.22 -28.77 0 0 29.22 -28.77 0 0 -29.22 -28.77 0 0 -29.22 0 -29.22 28.77 0 0 -29.22 28.77 0 0 29.22 -28.77 0 0 29.22 0 29.22 28.77 0 0 -29.22 0 -29.21z"/>
   <path class="fil0" d="M4804.74 146.07l28.77 0 28.77 0 28.77 0 28.77 0 28.77 0 28.77 0 28.77 0 28.77 0 28.77 0 28.77 0 28.77 0 28.77 0 28.77 0 28.77 0 28.77 0 28.77 0 28.77 0 28.77 0 28.77 0 28.77 0 28.77 0 28.77 0 28.77 0 28.77 0 28.77 0 28.77 0 28.77 0 28.77 0 28.77 0 28.77 0 0 29.22 28.77 0 0 29.21 0 29.22 0 29.22 0 29.21 0 29.22 0 29.22 -28.77 0 0 29.21 -28.77 0 -28.77 0 -28.77 0 -28.77 0 -28.77 0 -28.77 0 -28.77 0 -28.77 0 -28.77 0 -28.77 0 -28.77 0 -28.77 0 -28.77 0 -28.77 0 -28.77 0 -28.77 0 -28.77 0 -28.77 0 -28.77 0 -28.77 0 -28.77 0 -28.77 0 -28.77 0 -28.77 0 -28.77 0 -28.77 0 -28.77 0 -28.77 0 -28.77 0 -28.77 0 -28.77 0 0 -29.21 -28.77 0 0 -29.22 0 -29.22 0 -29.21 0 -29.22 0 -29.22 0 -29.21 28.77 0 0 -29.22 28.77 0zm863.13 204.5l0 -29.22 0 -29.22 0 -29.21 0 -29.22 0 -29.22 0 -29.21 -28.77 0 -28.77 0 -28.77 0 -28.77 0 -28.77 0 -28.77 0 -28.77 0 -28.77 0 -28.77 0 -28.77 0 -28.77 0 -28.77 0 -28.77 0 -28.77 0 -28.77 0 -28.77 0 -28.77 0 -28.77 0 -28.77 0 -28.77 0 -28.77 0 -28.77 0 -28.77 0 -28.77 0 -28.77 0 -28.77 0 -28.77 0 -28.77 0 -28.77 0 -28.77 0 -28.77 0 0 29.21 0 29.22 0 29.22 0 29.21 0 29.22 0 29.22 28.77 0 28.77 0 28.77 0 28.77 0 28.77 0 28.77 0 28.77 0 28.77 0 28.77 0 28.77 0 28.77 0 28.77 0 28.77 0 28.77 0 28.77 0 28.77 0 28.77 0 28.77 0 28.77 0 28.77 0 28.77 0 28.77 0 28.77 0 28.77 0 28.77 0 28.77 0 28.77 0 28.77 0 28.77 0 28.77 0 28.77 0z"/>
   <path class="fil0" d="M4862.28 321.35l-57.54 0c0,-38.95 0,-77.9 0,-116.86l57.54 0c0,38.96 0,77.91 0,116.86z"/>
   <path class="fil1" d="M4948.59 321.35c-19.18,0 -38.36,0 -57.54,0 0,-38.95 0,-77.9 0,-116.86 19.18,0 38.37,0 57.54,0 0,38.96 0,77.91 0,116.86z"/>
   <path class="fil2" d="M5034.91 321.35c-19.18,0 -38.36,0 -57.54,0 0,-38.95 0,-77.9 0,-116.86 19.18,0 38.36,0 57.54,0 0,38.96 0,77.91 0,116.86z"/>
   <path class="fil3" d="M5121.22 321.35c-19.18,0 -38.36,0 -57.54,0 0,-38.95 0,-77.9 0,-116.86 19.18,0 38.37,0 57.54,0 0,38.96 0,77.91 0,116.86z"/>
   <path class="fil4" d="M5207.53 321.35c-19.18,0 -38.37,0 -57.54,0 0,-38.95 0,-77.9 0,-116.86 19.18,0 38.36,0 57.54,0 0,38.96 0,77.91 0,116.86z"/>
  </g>
  <g id="_1869698587344">
   <path class="fil0" d="M5811.18 0l28.77 0 0 29.22 0 29.22 0 29.22 28.77 0 0 29.22 -28.77 0 -28.77 0 0 -29.22 0 -29.22 0 -29.22 0 -29.22zm691.58 58.44l28.77 0 0 29.21 0 29.22 -28.77 0 -28.77 0 0 -29.22 28.77 0 0 -29.21zm0 -58.43l28.77 0 0 29.22 -28.77 0 -28.77 0 0 29.21 0 29.22 -28.77 0 0 -29.22 0 -29.21 28.77 0 0 -29.22 28.77 0zm-115.07 0l28.77 0 0 29.22 0 29.21 0 29.22 -28.77 0 -28.77 0 0 -29.22 -28.77 0 0 29.22 -28.77 0 0 -29.22 0 -29.21 0 -29.22 28.77 0 0 29.22 28.77 0 0 29.21 28.77 0 0 -29.21 0 -29.22zm0 87.64l28.77 0 0 29.22 -28.77 0 0 -29.22zm-86.31 0l28.77 0 0 29.22 -28.77 0 0 -29.22zm-58.67 -87.64l28.77 0 0 29.22 0 29.21 0 29.22 -28.77 0 0 -29.22 0 -29.21 0 -29.22zm0 87.64l28.77 0 0 29.22 -28.77 0 0 -29.22zm-115.07 -87.64l28.77 0 28.77 0 0 29.22 28.77 0 0 29.21 0 29.22 -28.77 0 0 -29.22 0 -29.21 -28.77 0 0 29.21 0 29.22 -28.77 0 0 -29.22 0 -29.21 0 -29.22zm0 87.64l28.77 0 28.77 0 0 29.22 -28.77 0 -28.77 0 0 -29.22zm-57.53 0l28.77 0 0 29.22 -28.77 0 0 -29.22zm-28.77 0l0 29.22 -28.77 0 0 -29.22 0 -29.22 0 -29.22 28.77 0 0 -29.22 28.77 0 0 29.22 -28.77 0 0 29.22 0 0 28.77 0 0 -29.21 28.77 0 0 29.21 0 29.22 -28.77 0 -28.77 0zm-86.31 -58.42l28.77 0 0 29.21 0 29.22 -28.77 0 0 29.22 -28.77 0 0 -29.22 -28.77 0 0 -29.22 0 -29.22 28.77 0 0 -29.22 28.77 0 0 29.22 -28.77 0 0 29.22 0 29.22 28.77 0 0 -29.22 0 -29.21z"/>
   <path class="fil0" d="M5754.18 146.07l28.77 0 28.77 0 28.77 0 28.77 0 28.77 0 28.77 0 28.77 0 28.77 0 28.77 0 28.77 0 28.77 0 28.77 0 28.77 0 28.77 0 28.77 0 28.77 0 28.77 0 28.77 0 28.77 0 28.77 0 28.77 0 28.77 0 28.77 0 28.77 0 28.77 0 28.77 0 28.77 0 28.77 0 28.77 0 28.77 0 0 29.22 28.77 0 0 29.21 0 29.22 0 29.22 0 29.21 0 29.22 0 29.22 -28.77 0 0 29.21 -28.77 0 -28.77 0 -28.77 0 -28.77 0 -28.77 0 -28.77 0 -28.77 0 -28.77 0 -28.77 0 -28.77 0 -28.77 0 -28.77 0 -28.77 0 -28.77 0 -28.77 0 -28.77 0 -28.77 0 -28.77 0 -28.77 0 -28.77 0 -28.77 0 -28.77 0 -28.77 0 -28.77 0 -28.77 0 -28.77 0 -28.77 0 -28.77 0 -28.77 0 -28.77 0 -28.77 0 0 -29.21 -28.77 0 0 -29.22 0 -29.22 0 -29.21 0 -29.22 0 -29.22 0 -29.21 28.77 0 0 -29.22 28.77 0zm863.13 204.5l0 -29.22 0 -29.22 0 -29.21 0 -29.22 0 -29.22 0 -29.21 -28.77 0 -28.77 0 -28.77 0 -28.77 0 -28.77 0 -28.77 0 -28.77 0 -28.77 0 -28.77 0 -28.77 0 -28.77 0 -28.77 0 -28.77 0 -28.77 0 -28.77 0 -28.77 0 -28.77 0 -28.77 0 -28.77 0 -28.77 0 -28.77 0 -28.77 0 -28.77 0 -28.77 0 -28.77 0 -28.77 0 -28.77 0 -28.77 0 -28.77 0 -28.77 0 -28.77 0 0 29.21 0 29.22 0 29.22 0 29.21 0 29.22 0 29.22 28.77 0 28.77 0 28.77 0 28.77 0 28.77 0 28.77 0 28.77 0 28.77 0 28.77 0 28.77 0 28.77 0 28.77 0 28.77 0 28.77 0 28.77 0 28.77 0 28.77 0 28.77 0 28.77 0 28.77 0 28.77 0 28.77 0 28.77 0 28.77 0 28.77 0 28.77 0 28.77 0 28.77 0 28.77 0 28.77 0 28.77 0z"/>
   <path class="fil0" d="M5811.72 321.35l-57.54 0c0,-38.95 0,-77.9 0,-116.86l57.54 0c0,38.96 0,77.91 0,116.86z"/>
   <path class="fil1" d="M5898.03 321.35c-19.18,0 -38.36,0 -57.54,0 0,-38.95 0,-77.9 0,-116.86 19.18,0 38.37,0 57.54,0 0,38.96 0,77.91 0,116.86z"/>
   <path class="fil2" d="M5984.35 321.35c-19.18,0 -38.36,0 -57.54,0 0,-38.95 0,-77.9 0,-116.86 19.18,0 38.36,0 57.54,0 0,38.96 0,77.91 0,116.86z"/>
   <path class="fil3" d="M6070.66 321.35c-19.18,0 -38.36,0 -57.54,0 0,-38.95 0,-77.9 0,-116.86 19.18,0 38.37,0 57.54,0 0,38.96 0,77.91 0,116.86z"/>
  </g>
  <g id="_1869698587776">
   <path class="fil0" d="M6760.62 0l28.77 0 0 29.22 0 29.22 0 29.22 28.77 0 0 29.22 -28.77 0 -28.77 0 0 -29.22 0 -29.22 0 -29.22 0 -29.22zm691.58 58.44l28.77 0 0 29.21 0 29.22 -28.77 0 -28.77 0 0 -29.22 28.77 0 0 -29.21zm0 -58.43l28.77 0 0 29.22 -28.77 0 -28.77 0 0 29.21 0 29.22 -28.77 0 0 -29.22 0 -29.21 28.77 0 0 -29.22 28.77 0zm-115.07 0l28.77 0 0 29.22 0 29.21 0 29.22 -28.77 0 -28.77 0 0 -29.22 -28.77 0 0 29.22 -28.77 0 0 -29.22 0 -29.21 0 -29.22 28.77 0 0 29.22 28.77 0 0 29.21 28.77 0 0 -29.21 0 -29.22zm0 87.64l28.77 0 0 29.22 -28.77 0 0 -29.22zm-86.31 0l28.77 0 0 29.22 -28.77 0 0 -29.22zm-58.67 -87.64l28.77 0 0 29.22 0 29.21 0 29.22 -28.77 0 0 -29.22 0 -29.21 0 -29.22zm0 87.64l28.77 0 0 29.22 -28.77 0 0 -29.22zm-115.07 -87.64l28.77 0 28.77 0 0 29.22 28.77 0 0 29.21 0 29.22 -28.77 0 0 -29.22 0 -29.21 -28.77 0 0 29.21 0 29.22 -28.77 0 0 -29.22 0 -29.21 0 -29.22zm0 87.64l28.77 0 28.77 0 0 29.22 -28.77 0 -28.77 0 0 -29.22zm-57.53 0l28.77 0 0 29.22 -28.77 0 0 -29.22zm-28.77 0l0 29.22 -28.77 0 0 -29.22 0 -29.22 0 -29.22 28.77 0 0 -29.22 28.77 0 0 29.22 -28.77 0 0 29.22 0 0 28.77 0 0 -29.21 28.77 0 0 29.21 0 29.22 -28.77 0 -28.77 0zm-86.31 -58.42l28.77 0 0 29.21 0 29.22 -28.77 0 0 29.22 -28.77 0 0 -29.22 -28.77 0 0 -29.22 0 -29.22 28.77 0 0 -29.22 28.77 0 0 29.22 -28.77 0 0 29.22 0 29.22 28.77 0 0 -29.22 0 -29.21z"/>
   <path class="fil0" d="M6703.62 146.07l28.77 0 28.77 0 28.77 0 28.77 0 28.77 0 28.77 0 28.77 0 28.77 0 28.77 0 28.77 0 28.77 0 28.77 0 28.77 0 28.77 0 28.77 0 28.77 0 28.77 0 28.77 0 28.77 0 28.77 0 28.77 0 28.77 0 28.77 0 28.77 0 28.77 0 28.77 0 28.77 0 28.77 0 28.77 0 28.77 0 0 29.22 28.77 0 0 29.21 0 29.22 0 29.22 0 29.21 0 29.22 0 29.22 -28.77 0 0 29.21 -28.77 0 -28.77 0 -28.77 0 -28.77 0 -28.77 0 -28.77 0 -28.77 0 -28.77 0 -28.77 0 -28.77 0 -28.77 0 -28.77 0 -28.77 0 -28.77 0 -28.77 0 -28.77 0 -28.77 0 -28.77 0 -28.77 0 -28.77 0 -28.77 0 -28.77 0 -28.77 0 -28.77 0 -28.77 0 -28.77 0 -28.77 0 -28.77 0 -28.77 0 -28.77 0 -28.77 0 0 -29.21 -28.77 0 0 -29.22 0 -29.22 0 -29.21 0 -29.22 0 -29.22 0 -29.21 28.77 0 0 -29.22 28.77 0zm863.13 204.5l0 -29.22 0 -29.22 0 -29.21 0 -29.22 0 -29.22 0 -29.21 -28.77 0 -28.77 0 -28.77 0 -28.77 0 -28.77 0 -28.77 0 -28.77 0 -28.77 0 -28.77 0 -28.77 0 -28.77 0 -28.77 0 -28.77 0 -28.77 0 -28.77 0 -28.77 0 -28.77 0 -28.77 0 -28.77 0 -28.77 0 -28.77 0 -28.77 0 -28.77 0 -28.77 0 -28.77 0 -28.77 0 -28.77 0 -28.77 0 -28.77 0 -28.77 0 -28.77 0 0 29.21 0 29.22 0 29.22 0 29.21 0 29.22 0 29.22 28.77 0 28.77 0 28.77 0 28.77 0 28.77 0 28.77 0 28.77 0 28.77 0 28.77 0 28.77 0 28.77 0 28.77 0 28.77 0 28.77 0 28.77 0 28.77 0 28.77 0 28.77 0 28.77 0 28.77 0 28.77 0 28.77 0 28.77 0 28.77 0 28.77 0 28.77 0 28.77 0 28.77 0 28.77 0 28.77 0 28.77 0z"/>
   <path class="fil0" d="M6761.16 321.35l-57.54 0c0,-38.95 0,-77.9 0,-116.86l57.54 0c0,38.96 0,77.91 0,116.86z"/>
   <path class="fil1" d="M6847.47 321.35c-19.18,0 -38.36,0 -57.54,0 0,-38.95 0,-77.9 0,-116.86 19.18,0 38.37,0 57.54,0 0,38.96 0,77.91 0,116.86z"/>
   <path class="fil2" d="M6933.79 321.35c-19.18,0 -38.36,0 -57.54,0 0,-38.95 0,-77.9 0,-116.86 19.18,0 38.36,0 57.54,0 0,38.96 0,77.91 0,116.86z"/>
  </g>
  <g id="_1869698590992">
   <path class="fil0" d="M7710.06 0l28.77 0 0 29.22 0 29.22 0 29.22 28.77 0 0 29.22 -28.77 0 -28.77 0 0 -29.22 0 -29.22 0 -29.22 0 -29.22zm691.58 58.44l28.77 0 0 29.21 0 29.22 -28.77 0 -28.77 0 0 -29.22 28.77 0 0 -29.21zm0 -58.43l28.77 0 0 29.22 -28.77 0 -28.77 0 0 29.21 0 29.22 -28.77 0 0 -29.22 0 -29.21 28.77 0 0 -29.22 28.77 0zm-115.07 0l28.77 0 0 29.22 0 29.21 0 29.22 -28.77 0 -28.77 0 0 -29.22 -28.77 0 0 29.22 -28.77 0 0 -29.22 0 -29.21 0 -29.22 28.77 0 0 29.22 28.77 0 0 29.21 28.77 0 0 -29.21 0 -29.22zm0 87.64l28.77 0 0 29.22 -28.77 0 0 -29.22zm-86.31 0l28.77 0 0 29.22 -28.77 0 0 -29.22zm-58.67 -87.64l28.77 0 0 29.22 0 29.21 0 29.22 -28.77 0 0 -29.22 0 -29.21 0 -29.22zm0 87.64l28.77 0 0 29.22 -28.77 0 0 -29.22zm-115.07 -87.64l28.77 0 28.77 0 0 29.22 28.77 0 0 29.21 0 29.22 -28.77 0 0 -29.22 0 -29.21 -28.77 0 0 29.21 0 29.22 -28.77 0 0 -29.22 0 -29.21 0 -29.22zm0 87.64l28.77 0 28.77 0 0 29.22 -28.77 0 -28.77 0 0 -29.22zm-57.53 0l28.77 0 0 29.22 -28.77 0 0 -29.22zm-28.77 0l0 29.22 -28.77 0 0 -29.22 0 -29.22 0 -29.22 28.77 0 0 -29.22 28.77 0 0 29.22 -28.77 0 0 29.22 0 0 28.77 0 0 -29.21 28.77 0 0 29.21 0 29.22 -28.77 0 -28.77 0zm-86.31 -58.42l28.77 0 0 29.21 0 29.22 -28.77 0 0 29.22 -28.77 0 0 -29.22 -28.77 0 0 -29.22 0 -29.22 28.77 0 0 -29.22 28.77 0 0 29.22 -28.77 0 0 29.22 0 29.22 28.77 0 0 -29.22 0 -29.21z"/>
   <g>
    <path class="fil0" d="M7653.06 146.07l28.77 0 28.77 0 28.77 0 28.77 0 28.77 0 28.77 0 28.77 0 28.77 0 28.77 0 28.77 0 28.77 0 28.77 0 28.77 0 28.77 0 28.77 0 28.77 0 28.77 0 28.77 0 28.77 0 28.77 0 28.77 0 28.77 0 28.77 0 28.77 0 28.77 0 28.77 0 28.77 0 28.77 0 28.77 0 28.77 0 0 29.22 28.77 0 0 29.21 0 29.22 0 29.22 0 29.21 0 29.22 0 29.22 -28.77 0 0 29.21 -28.77 0 -28.77 0 -28.77 0 -28.77 0 -28.77 0 -28.77 0 -28.77 0 -28.77 0 -28.77 0 -28.77 0 -28.77 0 -28.77 0 -28.77 0 -28.77 0 -28.77 0 -28.77 0 -28.77 0 -28.77 0 -28.77 0 -28.77 0 -28.77 0 -28.77 0 -28.77 0 -28.77 0 -28.77 0 -28.77 0 -28.77 0 -28.77 0 -28.77 0 -28.77 0 -28.77 0 0 -29.21 -28.77 0 0 -29.22 0 -29.22 0 -29.21 0 -29.22 0 -29.22 0 -29.21 28.77 0 0 -29.22 28.77 0zm863.13 204.5l0 -29.22 0 -29.22 0 -29.21 0 -29.22 0 -29.22 0 -29.21 -28.77 0 -28.77 0 -28.77 0 -28.77 0 -28.77 0 -28.77 0 -28.77 0 -28.77 0 -28.77 0 -28.77 0 -28.77 0 -28.77 0 -28.77 0 -28.77 0 -28.77 0 -28.77 0 -28.77 0 -28.77 0 -28.77 0 -28.77 0 -28.77 0 -28.77 0 -28.77 0 -28.77 0 -28.77 0 -28.77 0 -28.77 0 -28.77 0 -28.77 0 -28.77 0 -28.77 0 0 29.21 0 29.22 0 29.22 0 29.21 0 29.22 0 29.22 28.77 0 28.77 0 28.77 0 28.77 0 28.77 0 28.77 0 28.77 0 28.77 0 28.77 0 28.77 0 28.77 0 28.77 0 28.77 0 28.77 0 28.77 0 28.77 0 28.77 0 28.77 0 28.77 0 28.77 0 28.77 0 28.77 0 28.77 0 28.77 0 28.77 0 28.77 0 28.77 0 28.77 0 28.77 0 28.77 0 28.77 0z"/>
    <path class="fil0" d="M7710.6 321.35l-57.54 0c0,-38.95 0,-77.9 0,-116.86l57.54 0c0,38.96 0,77.91 0,116.86z"/>
    <path class="fil1" d="M7796.91 321.35c-19.18,0 -38.36,0 -57.54,0 0,-38.95 0,-77.9 0,-116.86 19.18,0 38.37,0 57.54,0 0,38.96 0,77.91 0,116.86z"/>
   </g>
  </g>
  <g id="_1869698589792">
   <path class="fil0" d="M8659.5 0l28.77 0 0 29.22 0 29.22 0 29.22 28.77 0 0 29.22 -28.77 0 -28.77 0 0 -29.22 0 -29.22 0 -29.22 0 -29.22zm691.58 58.44l28.77 0 0 29.21 0 29.22 -28.77 0 -28.77 0 0 -29.22 28.77 0 0 -29.21zm0 -58.43l28.77 0 0 29.22 -28.77 0 -28.77 0 0 29.21 0 29.22 -28.77 0 0 -29.22 0 -29.21 28.77 0 0 -29.22 28.77 0zm-115.07 0l28.77 0 0 29.22 0 29.21 0 29.22 -28.77 0 -28.77 0 0 -29.22 -28.77 0 0 29.22 -28.77 0 0 -29.22 0 -29.21 0 -29.22 28.77 0 0 29.22 28.77 0 0 29.21 28.77 0 0 -29.21 0 -29.22zm0 87.64l28.77 0 0 29.22 -28.77 0 0 -29.22zm-86.31 0l28.77 0 0 29.22 -28.77 0 0 -29.22zm-58.67 -87.64l28.77 0 0 29.22 0 29.21 0 29.22 -28.77 0 0 -29.22 0 -29.21 0 -29.22zm0 87.64l28.77 0 0 29.22 -28.77 0 0 -29.22zm-115.07 -87.64l28.77 0 28.77 0 0 29.22 28.77 0 0 29.21 0 29.22 -28.77 0 0 -29.22 0 -29.21 -28.77 0 0 29.21 0 29.22 -28.77 0 0 -29.22 0 -29.21 0 -29.22zm0 87.64l28.77 0 28.77 0 0 29.22 -28.77 0 -28.77 0 0 -29.22zm-57.53 0l28.77 0 0 29.22 -28.77 0 0 -29.22zm-28.77 0l0 29.22 -28.77 0 0 -29.22 0 -29.22 0 -29.22 28.77 0 0 -29.22 28.77 0 0 29.22 -28.77 0 0 29.22 0 0 28.77 0 0 -29.21 28.77 0 0 29.21 0 29.22 -28.77 0 -28.77 0zm-86.31 -58.42l28.77 0 0 29.21 0 29.22 -28.77 0 0 29.22 -28.77 0 0 -29.22 -28.77 0 0 -29.22 0 -29.22 28.77 0 0 -29.22 28.77 0 0 29.22 -28.77 0 0 29.22 0 29.22 28.77 0 0 -29.22 0 -29.21z"/>
   <path class="fil0" d="M8602.5 146.07l28.77 0 28.77 0 28.77 0 28.77 0 28.77 0 28.77 0 28.77 0 28.77 0 28.77 0 28.77 0 28.77 0 28.77 0 28.77 0 28.77 0 28.77 0 28.77 0 28.77 0 28.77 0 28.77 0 28.77 0 28.77 0 28.77 0 28.77 0 28.77 0 28.77 0 28.77 0 28.77 0 28.77 0 28.77 0 28.77 0 0 29.22 28.77 0 0 29.21 0 29.22 0 29.22 0 29.21 0 29.22 0 29.22 -28.77 0 0 29.21 -28.77 0 -28.77 0 -28.77 0 -28.77 0 -28.77 0 -28.77 0 -28.77 0 -28.77 0 -28.77 0 -28.77 0 -28.77 0 -28.77 0 -28.77 0 -28.77 0 -28.77 0 -28.77 0 -28.77 0 -28.77 0 -28.77 0 -28.77 0 -28.77 0 -28.77 0 -28.77 0 -28.77 0 -28.77 0 -28.77 0 -28.77 0 -28.77 0 -28.77 0 -28.77 0 -28.77 0 0 -29.21 -28.77 0 0 -29.22 0 -29.22 0 -29.21 0 -29.22 0 -29.22 0 -29.21 28.77 0 0 -29.22 28.77 0zm863.13 204.5l0 -29.22 0 -29.22 0 -29.21 0 -29.22 0 -29.22 0 -29.21 -28.77 0 -28.77 0 -28.77 0 -28.77 0 -28.77 0 -28.77 0 -28.77 0 -28.77 0 -28.77 0 -28.77 0 -28.77 0 -28.77 0 -28.77 0 -28.77 0 -28.77 0 -28.77 0 -28.77 0 -28.77 0 -28.77 0 -28.77 0 -28.77 0 -28.77 0 -28.77 0 -28.77 0 -28.77 0 -28.77 0 -28.77 0 -28.77 0 -28.77 0 -28.77 0 -28.77 0 0 29.21 0 29.22 0 29.22 0 29.21 0 29.22 0 29.22 28.77 0 28.77 0 28.77 0 28.77 0 28.77 0 28.77 0 28.77 0 28.77 0 28.77 0 28.77 0 28.77 0 28.77 0 28.77 0 28.77 0 28.77 0 28.77 0 28.77 0 28.77 0 28.77 0 28.77 0 28.77 0 28.77 0 28.77 0 28.77 0 28.77 0 28.77 0 28.77 0 28.77 0 28.77 0 28.77 0 28.77 0z"/>
   <path class="fil0" d="M8660.04 321.35l-57.54 0c0,-38.95 0,-77.9 0,-116.86l57.54 0c0,38.96 0,77.91 0,116.86z"/>
  </g>
 </g>
</svg>
