<?xml version="1.0" encoding="UTF-8"?>
<!DOCTYPE svg PUBLIC "-//W3C//DTD SVG 1.0//EN" "http://www.w3.org/TR/2001/REC-SVG-20010904/DTD/svg10.dtd">
<!-- Creator: CorelDRAW 2020 (64-Bit) -->
<svg xmlns="http://www.w3.org/2000/svg" xml:space="preserve" width="303px" height="375px" version="1.0" style="shape-rendering:geometricPrecision; text-rendering:geometricPrecision; image-rendering:optimizeQuality; fill-rule:evenodd; clip-rule:evenodd"
viewBox="0 0 75.24 93.3"
 xmlns:xlink="http://www.w3.org/1999/xlink"
 xmlns:xodm="http://www.corel.com/coreldraw/odm/2003">
 <defs>
  <style type="text/css">
   <![CDATA[
    .fil0 {fill:#2E0052}
    .fil5 {fill:#5A00A0}
    .fil6 {fill:#7000C7}
    .fil4 {fill:#9103FF}
    .fil3 {fill:#A22BFF}
    .fil2 {fill:#B352FF}
    .fil1 {fill:#D5A0FF}
   ]]>
  </style>
 </defs>
 <g id="Layer_x0020_1">
  <metadata id="CorelCorpID_0Corel-Layer"/>
  <g id="_2394087076992">
   <path class="fil0" d="M3.01 84.27c3.01,0 6.02,0 9.03,0l0 3.01c5.01,0 10.03,0 15.05,0l0 3.01c5.01,0 10.03,0 15.04,0l0 3.01c7.03,0 14.05,0 21.07,0l0 -3.01 3.01 0 0 -6.02 3.01 0c0,-4.01 0,-8.03 0,-12.04l3.01 0c0,-4.01 0,-8.02 0,-12.04l3.01 0c0,-6.02 0,-12.04 0,-18.05l-3.01 0 0 -3.01 -3.01 0c0,-7.03 0,-14.05 0,-21.07l-3.01 0 0 -6.02 -3.01 0 0 -3.01 -3.01 0 0 -3.01 -3.01 0 0 -3.01 -3.01 0 -3.01 0 0 -3.01c-6.02,0 -12.03,0 -18.05,0l0 3.01 -6.02 0 0 3.01 -3.01 0 0 3.01 -3.01 0 0 3.01 -3.01 0 0 6.02 -3.01 0c0,3.01 0,6.02 0,9.03l-3.01 0 0 3.01 -3.01 0 0 3.01 -3.01 0c0,4.01 0,8.02 0,12.03l-3.01 0c0,6.02 0,12.04 0,18.06l-3.01 0c0,6.02 0,12.04 0,18.06l3.01 0 0 3.01zm48.15 -66.21l0 -3.01 -3.01 0 0 -3.01c-4.01,0 -8.02,0 -12.03,0l0 3.01 -3.01 0 0 3.01 -3.01 0 0 3.01 0 3.01 0 3.01 0 3.01c4.01,0 8.02,0 12.03,0l0 3.01c4.02,0 8.03,0 12.04,0 0,-5.02 0,-10.04 0,-15.05l-3.01 0z"/>
   <g>
    <path class="fil1" d="M3.01 75.24l0 3.01 3.01 0 0 -3.01 0 -3.01 0 -3.01 0 -3.01 3.01 0 0 -3.01 0 -3.01 0 -3.01 0 -3.01 0 -3.01 0 -3.01 3.01 0 0 -3.01 0 -3.01 0 -3 0 -3.01 3.01 0 0 -3.01 3.01 0 3.01 0 3.01 0 0 3.01 3.01 0 3.01 0 3.01 0 3.01 0 3.01 0 3 0 0 3.01 3.01 0 3.01 0 3.01 0 3.01 0 3.01 0 3.01 0 3.01 0 0 -3.01 -3.01 0 -3.01 0 -3.01 0 -3.01 0 -3.01 0 -3.01 0 -3.01 0 0 -3.01 -3 0 -3.01 0 -3.01 0 -3.01 0 -3.01 0 0 -3.01 -3.01 0 -3.01 0 -3.01 0 -3.01 0 -3.01 0 0 3.01 -3.01 0 0 3.01 0 3.01 0 3 0 3.01 -3.01 0 0 3.01 0 3.01 0 3.01 0 3.01 0 3.01 0 3.01 -3.01 0 0 3.01 0 3.01 0 3.01 0 3.01zm54.17 -45.14l0 3.01 3.01 0 0 -3.01 0 -3.01 0 -3.01 0 -3.01 0 -3.01 -3.01 0 0 3.01 0 3.01 0 3.01 0 3.01zm-18.05 -27.09l-3.01 0 -3.01 0 0 3.01 -3.01 0 -3.01 0 0 3.01 -3.01 0 0 3.01 -3.01 0 0 3.01 0 3.01 -3.01 0 0 3.01 0 3.01 0 3.01 3.01 0 0 -3.01 0 -3.01 0 -3.01 3.01 0 0 -3.01 0 -3.01 3.01 0 0 -3.01 3.01 0 3.01 0 0 -3.01 3.01 0 3.01 0 3 0 0 -3.01 -3 0z"/>
    <path class="fil2" d="M6.02 75.24l0 3.01 3.01 0 3.01 0 0 3.01 3.01 0 3.01 0 3.01 0 0 -3.01 0 -3.01 0 -3.01 3.01 0 0 -3.01 0 -3.01 3.01 0 0 -3.01 -3.01 0 0 -3.01 -3.01 0 0 -3.01 0 -3.01 0 -3.01 3.01 0 0 -3.01 3.01 0 0 -3.01 3.01 0 3.01 0 3.01 0 3.01 0 0 3.01 3 0 0 3.01 3.01 0 0 3.01 0 3.01 0 3.01 -3.01 0 0 3.01 -3 0 0 3.01 -3.01 0 0 3.01 0 3.01 3.01 0 0 3.01 0 3.01 0 3.01 -3.01 0 -3.01 0 -3.01 0 -3.01 0 0 3.01 3.01 0 3.01 0 3.01 0 3.01 0 3 0 0 3.01 3.01 0 3.01 0 3.01 0 3.01 0 0 -3.01 3.01 0 0 -3.01 0 -3.01 0 -3.01 0 -3.01 3.01 0 0 -3.01 0 -3.01 0 -3.01 0 -3.01 3.01 0 0 -3.01 0 -3.01 0 -3.01 0 -3.01 3.01 0 0 -3.01 0 -3.01 0 -3 -3.01 0 -3.01 0 -3.01 0 -3.01 0 -3.01 0 -3.01 0 -3.01 0 -3.01 0 0 -3.01 -3 0 -3.01 0 -3.01 0 -3.01 0 -3.01 0 -3.01 0 0 -3.01 -3.01 0 -3.01 0 -3.01 0 0 3.01 -3.01 0 0 3.01 0 3 0 3.01 0 3.01 -3.01 0 0 3.01 0 3.01 0 3.01 0 3.01 0 3.01 0 3.01 -3.01 0 0 3.01 0 3.01 0 3.01zm54.17 -45.14l0 3.01 3.01 0 0 -3.01 0 -3.01 0 -3.01 0 -3.01 0 -3.01 0 -3.01 0 -3.01 -3.01 0 0 -3.01 -3.01 0 0 -3.01 -3.01 0 -3.01 0 0 -3.01 -3.01 0 -3.01 0 -3.01 0 0 3.01 -3 0 -3.01 0 -3.01 0 0 3.01 -3.01 0 -3.01 0 0 3.01 -3.01 0 0 3.01 0 3.01 -3.01 0 0 3.01 0 3.01 0 3.01 3.01 0 0 -3.01 0 -3.01 0 -3.01 3.01 0 0 -3.01 3.01 0 0 -3.01 3.01 0 0 -3.01 3.01 0 3.01 0 3 0 3.01 0 3.01 0 3.01 0 0 3.01 3.01 0 0 3.01 0 3.01 3.01 0 3.01 0 0 3.01 0 3.01 0 3.01 0 3.01z"/>
    <path class="fil3" d="M36.12 87.28l3.01 0 3 0 0 3.01 3.01 0 3.01 0 3.01 0 3.01 0 3.01 0 3.01 0 3.01 0 0 -3.01 0 -3.01 3.01 0 0 -3.01 0 -3.01 0 -3.01 0 -3.01 3.01 0 0 -3.01 0 -3.01 0 -3.01 0 -3.01 3.01 0 0 -3.01 0 -3.01 0 -3.01 0 -3.01 0 -3.01 0 -3.01 -3.01 0 0 -3 -3.01 0 0 -3.01 -3.01 0 0 3.01 3.01 0 0 3 0 3.01 0 3.01 -3.01 0 0 3.01 0 3.01 0 3.01 0 3.01 -3.01 0 0 3.01 0 3.01 0 3.01 0 3.01 -3.01 0 0 3.01 0 3.01 0 3.01 0 3.01 -3.01 0 0 3.01 -3.01 0 -3.01 0 -3.01 0 -3.01 0 0 -3.01 -3 0 -3.01 0 -3.01 0 -3.01 0 -3.01 0 0 -3.01 -3.01 0 -3.01 0 -3.01 0 -3.01 0 -3.01 0 0 -3.01 -3.01 0 -3.01 0 -3.01 0 0 3.01 3.01 0 3.01 0 3.01 0 0 3.01 3.01 0 3.01 0 3.01 0 3.01 0 3.01 0 0 3.01 3.01 0 3.01 0 3.01 0zm-12.04 -63.2l0 3.01 3.01 0 0 -3.01 0 -3.01 0 -3.01 3.01 0 0 -3.01 3.01 0 0 -3.01 3.01 0 0 -3.01 -3.01 0 0 3.01 -3.01 0 0 3.01 -3.01 0 0 3.01 -3.01 0 0 3.01 0 3.01zm27.08 -12.04l0 -3.01 -3.01 0 0 3.01 3.01 0 0 3.01 3.01 0 0 -3.01 -3.01 0zm15.05 9.03l0 -3.01 -3.01 0 0 3.01 0 3.01 0 3.01 0 3.01 0 3.01 3.01 0 0 -3.01 0 -3.01 0 -3.01 0 -3.01z"/>
    <path class="fil4" d="M24.08 54.17l0 -3.01 3.01 0 0 -3.01 3.01 0 3.01 0 3.01 0 3.01 0 0 3.01 3 0 0 3.01 0 3.01 0 3.01 -3 0 0 3.01 -3.01 0 0 3.01 -3.01 0 0 3.01 0 3.01 3.01 0 0 3.01 0 3.01 -3.01 0 -3.01 0 -3.01 0 -3.01 0 0 -3.01 0 -3.01 3.01 0 0 -3.01 0 -3.01 3.01 0 0 -3.01 -3.01 0 0 -3.01 -3.01 0 0 -3.01 0 -3.01zm-3.01 24.08l0 3.01 3.01 0 3.01 0 3.01 0 3.01 0 3.01 0 3.01 0 0 -3.01 0 -3.01 0 -3.01 -3.01 0 0 -3.01 0 -3.01 3.01 0 0 -3.01 3 0 0 -3.01 3.01 0 0 -3.01 0 -3.01 0 -3.01 -3.01 0 0 -3.01 -3 0 0 -3.01 -3.01 0 -3.01 0 -3.01 0 -3.01 0 0 3.01 -3.01 0 0 3.01 -3.01 0 0 3.01 0 3.01 0 3.01 3.01 0 0 3.01 3.01 0 0 3.01 -3.01 0 0 3.01 0 3.01 -3.01 0 0 3.01 0 3.01z"/>
    <path class="fil5" d="M27.09 72.23l-3.01 0 0 3.01 0 3.01 3.01 0 0 -3.01 0 -3.01 3.01 0 0 -3.01 0 -3.01 -3.01 0 0 3.01 0 3.01zm9.03 -21.07l3.01 0 0 -3.01 -3.01 0 -3.01 0 -3.01 0 -3.01 0 0 3.01 -3.01 0 0 3.01 0 3.01 0 3.01 3.01 0 0 3.01 3.01 0 0 -3.01 -3.01 0 0 -3.01 0 -3.01 3.01 0 0 -3.01 3.01 0 3.01 0z"/>
    <polygon class="fil6" points="27.09,75.24 27.09,78.25 30.1,78.25 33.11,78.25 36.12,78.25 36.12,75.24 36.12,72.23 33.11,72.23 33.11,69.22 33.11,66.21 36.12,66.21 36.12,63.2 39.13,63.2 39.13,60.19 42.13,60.19 42.13,57.18 42.13,54.17 42.13,51.16 39.13,51.16 36.12,51.16 33.11,51.16 30.1,51.16 30.1,54.17 27.09,54.17 27.09,57.18 27.09,60.19 30.1,60.19 30.1,63.2 30.1,66.21 30.1,69.22 30.1,72.23 27.09,72.23 "/>
   </g>
  </g>
 </g>
</svg>
