<?xml version="1.0" encoding="UTF-8"?>
<!DOCTYPE svg PUBLIC "-//W3C//DTD SVG 1.1//EN" "http://www.w3.org/Graphics/SVG/1.1/DTD/svg11.dtd">
<!-- Creator: CorelDRAW 2020 (64-Bit) -->
<svg xmlns="http://www.w3.org/2000/svg" xml:space="preserve" width="90px" height="90px" version="1.1" style="shape-rendering:geometricPrecision; text-rendering:geometricPrecision; image-rendering:optimizeQuality; fill-rule:evenodd; clip-rule:evenodd"
viewBox="0 0 90 90"
 xmlns:xlink="http://www.w3.org/1999/xlink"
 xmlns:xodm="http://www.corel.com/coreldraw/odm/2003">
 <defs>
  <style type="text/css">
   <![CDATA[
    .fil0 {fill:none}
    .fil1 {fill:#440079}
    .fil2 {fill:#DEB0FF}
   ]]>
  </style>
 </defs>
 <g id="Layer_x0020_1">
  <metadata id="CorelCorpID_0Corel-Layer"/>
  <g id="_1935596506192">
   <rect class="fil0" width="90" height="90"/>
   <g>
    <path class="fil1" d="M7 83l7 0 7 0 7 0 7 0 7 0 7 0 7 0 7 0 7 0 7 0 7 0 0 -7 0 -7 -7 0 0 -7 0 -7 -7 0 0 -7 -7 0 0 -7 -7 0 -7 0 0 -7 0 -7 0 -7 7 0 0 7 -7 0 -7 0 -7 0 -7 0 0 -7 0 -7 7 0 0 -7 7 0 7 0 0 7 -7 0 -7 0 0 7 0 7 0 7 7 0 0 7 -7 0 -7 0 0 7 -7 0 0 7 -7 0 0 7 0 7 -7 0 0 7 0 7zm63 -7l-7 0 -7 0 -7 0 -7 0 -7 0 -7 0 -7 0 -7 0 0 -7 7 0 0 -7 0 -7 7 0 0 -7 7 0 7 0 7 0 7 0 7 0 0 7 7 0 0 7 0 7 7 0 0 7 -7 0z"/>
    <polygon class="fil2" points="14,76 77,76 77,69 70,69 70,56 63,56 63,49 28,49 28,56 21,56 21,69 14,69 "/>
   </g>
  </g>
 </g>
</svg>
