<?xml version="1.0" encoding="UTF-8"?>
<!DOCTYPE svg PUBLIC "-//W3C//DTD SVG 1.1//EN" "http://www.w3.org/Graphics/SVG/1.1/DTD/svg11.dtd">
<!-- Creator: CorelDRAW 2020 (64-Bit) -->
<svg xmlns="http://www.w3.org/2000/svg" xml:space="preserve" width="123px" height="130px" version="1.1" shape-rendering="geometricPrecision" text-rendering="geometricPrecision" image-rendering="optimizeQuality" fill-rule="evenodd" clip-rule="evenodd"
viewBox="0 0 15.5 16.36"
 xmlns:xlink="http://www.w3.org/1999/xlink"
 xmlns:xodm="http://www.corel.com/coreldraw/odm/2003">
 <g id="Layer_x0020_1">
  <metadata id="CorelCorpID_0Corel-Layer"/>
  <g id="_2304477631792">
   <rect fill="black" x="4.3" y="5.17" width="0.86" height="0.86"/>
   <rect fill="black" transform="matrix(3.6242E-14 1.36842 -1.36842 3.6242E-14 6.02568 6.02726)" width="0.63" height="0.63"/>
   <rect fill="white" x="4.3" y="6.03" width="0.86" height="0.86"/>
   <rect fill="black" x="4.3" y="6.89" width="0.86" height="0.86"/>
   <rect fill="black" transform="matrix(3.6242E-14 1.36842 -1.36842 3.6242E-14 4.30417 6.02726)" width="0.63" height="0.63"/>
  </g>
  <g id="_2304477632512">
   <rect fill="black" x="0.86" y="7.75" width="0.86" height="0.86"/>
   <rect fill="black" transform="matrix(3.6242E-14 1.36842 -1.36842 3.6242E-14 2.58226 8.60992)" width="0.63" height="0.63"/>
   <rect fill="white" x="0.86" y="8.61" width="0.86" height="0.86"/>
   <rect fill="black" x="0.86" y="9.47" width="0.86" height="0.86"/>
   <rect fill="black" transform="matrix(3.6242E-14 1.36842 -1.36842 3.6242E-14 0.860753 8.60992)" width="0.63" height="0.63"/>
  </g>
  <polygon fill="black" points="6.89,8.61 7.75,8.61 7.75,7.75 7.75,6.89 7.75,6.03 7.75,5.17 7.75,4.3 7.75,3.44 7.75,2.58 7.75,1.72 7.75,0.86 7.75,0 8.61,0 8.61,0.86 9.47,0.86 10.33,0.86 10.33,1.72 11.19,1.72 12.05,1.72 12.05,2.58 12.91,2.58 13.77,2.58 13.77,3.44 14.64,3.44 15.5,3.44 15.5,4.3 15.5,5.17 15.5,6.03 15.5,6.89 15.5,7.75 15.5,8.61 15.5,9.47 15.5,10.33 15.5,11.19 15.5,12.05 15.5,12.91 15.5,13.78 15.5,14.64 14.64,14.64 14.64,15.5 13.77,15.5 13.77,16.36 12.91,16.36 12.05,16.36 11.19,16.36 11.19,15.5 10.33,15.5 10.33,14.64 10.33,13.78 10.33,12.91 11.19,12.91 11.19,12.05 12.05,12.05 12.05,11.19 12.91,11.19 13.77,11.19 14.64,11.19 14.64,10.33 14.64,9.47 14.64,8.61 14.64,7.75 14.64,6.89 14.64,6.03 13.77,6.03 13.77,5.17 12.91,5.17 12.05,5.17 12.05,4.3 11.19,4.3 10.33,4.3 10.33,3.44 9.47,3.44 8.61,3.44 8.61,4.3 8.61,5.17 8.61,6.03 8.61,6.89 8.61,7.75 8.61,8.61 8.61,9.47 8.61,10.33 8.61,11.19 8.61,12.05 7.75,12.05 7.75,12.91 6.89,12.91 6.89,13.78 6.03,13.78 5.16,13.78 4.3,13.78 4.3,12.91 3.44,12.91 3.44,12.05 3.44,11.19 3.44,10.33 4.3,10.33 4.3,9.47 5.16,9.47 5.16,8.61 6.03,8.61 "/>
  <path fill="white" d="M13.77 4.3l0.87 0 0 0.87 -0.87 0 0 -0.87 -0.86 0 -0.86 0 0 -0.86 -0.86 0 -0.86 0 0 -0.86 -0.86 0 -0.86 0 0 -0.86 0.86 0 0.86 0 0 0.86 0.86 0 0.86 0 0 0.86 0.86 0 0.86 0 0 0.86zm-1.72 8.61l0.86 0 0 0.87 -0.86 0 0 -0.87zm-6.89 -2.58l0.87 0 0 0.86 -0.87 0 0 -0.86z"/>
 </g>
</svg>
