<?xml version="1.0" encoding="UTF-8"?>
<!DOCTYPE svg PUBLIC "-//W3C//DTD SVG 1.1//EN" "http://www.w3.org/Graphics/SVG/1.1/DTD/svg11.dtd">
<!-- Creator: CorelDRAW 2020 (64-Bit) -->
<svg xmlns="http://www.w3.org/2000/svg" xml:space="preserve" width="110px" height="130px" version="1.1" shape-rendering="geometricPrecision" text-rendering="geometricPrecision" image-rendering="optimizeQuality" fill-rule="evenodd" clip-rule="evenodd"
viewBox="0 0 9.92 11.72"
 xmlns:xlink="http://www.w3.org/1999/xlink"
 xmlns:xodm="http://www.corel.com/coreldraw/odm/2003">
 <g id="Layer_x0020_1">
  <metadata id="CorelCorpID_0Corel-Layer"/>
  <path fill="black" d="M0.9 4.51l0 0.9 0.9 0 0 -0.9 -0.9 0zm5.41 7.21l-0.9 0 -0.9 0 -0.9 0 -0.9 0 -0.91 0 -0.9 0 -0.9 0 0 -0.9 0 -0.9 0.9 0 0.9 0 0.91 0 0.9 0 0.9 0 0 -0.9 -0.9 0 0 -0.9 -0.9 0 0 -0.91 -0.91 0 0 -0.9 -0.9 0 0 -0.9 -0.9 0 0 -0.9 0 -0.9 0 -0.9 0.9 0 0 0.9 0.9 0 0 0.9 0.91 0 0 0.9 0.9 0 0 -0.9 0 -0.9 0 -0.9 0 -0.91 0 -0.9 0 -0.9 0.9 0 0.9 0 0.9 0 0 0.9 0 0.9 0 0.91 0 0.9 0 0.9 0 0.9 0.9 0 0 -0.9 0.91 0 0 -0.9 0.9 0 0 -0.9 0.9 0 0 0.9 0 0.9 0 0.9 -0.9 0 0 0.9 -0.9 0 0 0.9 -0.91 0 0 0.91 -0.9 0 0 0.9 -0.9 0 -0.9 0 0 -0.9 -0.9 0 0 -0.91 0.9 0 0 -0.9 0 -0.9 0 -0.9 0 -0.9 0 -0.9 0 -0.91 0 -0.9 0.9 0 0 0.9 0 0.91 0 0.9 0 0.9 0 0.9 0 0.9 0 0.9 0.9 0 0 0.91 -0.9 0 0 0.9 0 0.9 0.9 0 0.9 0 0.91 0 0.9 0 0.9 0 0 0.9 0 0.9 -0.9 0 -0.9 0 -0.91 0 -0.9 0zm0 -4.51l0 -0.9 0.9 0 0 0.9 -0.9 0zm0.9 -0.9l0 -0.9 0.91 0 0 0.9 -0.91 0zm0.91 -0.9l0 -0.9 0.9 0 0 0.9 -0.9 0zm-4.51 1.8l0 -0.9 -0.9 0 0 0.9 0.9 0zm-0.9 -0.9l0 -0.9 -0.91 0 0 0.9 0.91 0z"/>
  <polygon fill="#C479FF" points="0.9,4.51 1.8,4.51 1.8,5.41 2.71,5.41 2.71,6.31 3.61,6.31 3.61,7.21 4.51,7.21 4.51,6.31 4.51,5.41 4.51,4.51 4.51,3.61 4.51,2.71 4.51,1.8 4.51,0.9 5.41,0.9 5.41,1.8 5.41,2.71 5.41,3.61 5.41,4.51 5.41,5.41 5.41,6.31 5.41,7.21 6.31,7.21 7.21,7.21 7.21,6.31 8.12,6.31 8.12,5.41 9.02,5.41 9.02,4.51 8.12,4.51 8.12,5.41 7.21,5.41 7.21,6.31 6.31,6.31 6.31,7.21 6.31,8.12 5.41,8.12 5.41,9.02 4.51,9.02 4.51,8.12 3.61,8.12 3.61,7.21 2.71,7.21 2.71,6.31 1.8,6.31 1.8,5.41 0.9,5.41 "/>
 </g>
</svg>
