<?xml version="1.0" encoding="UTF-8"?>
<!DOCTYPE svg PUBLIC "-//W3C//DTD SVG 1.1//EN" "http://www.w3.org/Graphics/SVG/1.1/DTD/svg11.dtd">
<!-- Creator: CorelDRAW 2020 (64-Bit) -->
<svg xmlns="http://www.w3.org/2000/svg" xml:space="preserve" width="155px" height="155px" version="1.1" shape-rendering="geometricPrecision" text-rendering="geometricPrecision" image-rendering="optimizeQuality" fill-rule="evenodd" clip-rule="evenodd"
viewBox="0 0 61.58 61.58"
 xmlns:xlink="http://www.w3.org/1999/xlink"
 xmlns:xodm="http://www.corel.com/coreldraw/odm/2003">
 <g id="Layer_x0020_1">
  <metadata id="CorelCorpID_0Corel-Layer"/>
  <g id="_1600327076080">
   <rect fill="none" width="61.58" height="61.58"/>
   <path fill="#440079" d="M6.75 39.42l2.79 0 2.78 0 2.78 0 0 -2.78 0 -2.78 0 -2.78 0 -2.78 2.78 0 2.78 0 0 -2.78 2.78 0 2.78 0 2.78 0 2.78 0 2.78 0 2.78 0 2.78 0 2.78 0 0 -2.78 0 -2.79 0 -2.78 0 -2.78 -2.78 0 0 -2.78 -2.78 0 0 -2.78 -2.78 0 -2.78 0 -2.78 0 -2.78 0 0 2.78 -2.78 0 0 2.78 -2.78 0 0 -2.78 2.78 0 0 -2.78 2.78 0 0 -2.78 2.78 0 0 -2.78 2.78 0 2.78 0 2.78 0 0 2.78 2.78 0 0 2.78 2.78 0 0 2.78 2.78 0 0 2.78 0 2.78 0 2.78 0 2.79 0 2.78 2.78 0 0 2.78 2.78 0 0 2.78 0 2.78 0 2.78 0 2.78 2.79 0 2.78 0 0 2.78 0 2.78 0 2.78 0 2.78 0 2.78 0 2.78 0 2.78 -2.78 0 -2.79 0 -2.78 0 -2.78 0 -2.78 0 -2.78 0 -2.78 0 -2.78 0 -2.78 0 -2.78 0 -2.78 0 -2.78 0 -2.78 0 -2.78 0 -2.78 0 -2.78 0 -2.78 0 -2.79 0 -2.78 0 0 -2.78 0 -2.78 0 -2.78 0 -2.78 0 -2.78 0 -2.78 0 -2.78 2.78 0zm27.81 -8.34l0 -2.78 -2.78 0 -2.78 0 -2.78 0 0 2.78 0 2.78 0 2.78 0 2.78 2.78 0 2.78 0 2.78 0 0 -2.78 0 -2.78 0 -2.78zm16.68 11.12l-2.78 0 -2.78 0 -2.78 0 -2.78 0 -2.78 0 -2.78 0 -2.78 0 -2.78 0 -2.78 0 -2.78 0 -2.78 0 -2.78 0 -2.78 0 -2.78 0 -2.78 0 -2.79 0 0 2.78 0 2.78 0 2.78 0 2.78 0 2.78 2.79 0 2.78 0 2.78 0 2.78 0 2.78 0 2.78 0 2.78 0 2.78 0 2.78 0 2.78 0 2.78 0 2.78 0 2.78 0 2.78 0 2.78 0 2.78 0 2.79 0 0 -2.78 0 -2.78 0 -2.78 0 -2.78 0 -2.78 -2.79 0z"/>
   <polygon fill="#B352FF" points="12.32,33.86 12.32,36.64 12.32,39.42 9.54,39.42 9.54,36.64 9.54,33.86 9.54,31.08 9.54,28.3 12.32,28.3 12.32,25.52 15.1,25.52 15.1,22.74 15.1,19.95 15.1,17.17 15.1,14.39 15.1,11.61 17.88,11.61 17.88,8.83 20.66,8.83 20.66,6.05 23.44,6.05 23.44,3.27 26.22,3.27 26.22,6.05 23.44,6.05 23.44,8.83 20.66,8.83 20.66,11.61 17.88,11.61 17.88,14.39 17.88,17.17 17.88,19.95 17.88,22.74 17.88,25.52 15.1,25.52 15.1,28.3 12.32,28.3 12.32,31.08 "/>
   <path fill="#8600EF" d="M15.1 25.52l2.78 0 0 -2.78 0 -2.79 0 -2.78 0 -2.78 0 -2.78 2.78 0 0 -2.78 2.78 0 0 -2.78 2.78 0 0 -2.78 2.78 0 0 2.78 -2.78 0 0 2.78 -2.78 0 0 2.78 -2.78 0 0 2.78 0 2.78 0 2.78 0 2.79 0 2.78 0 2.78 -2.78 0 -2.78 0 0 2.78 0 2.78 0 2.78 0 2.78 -2.78 0 0 -2.78 0 -2.78 0 -2.78 0 -2.78 2.78 0 0 -2.78zm27.8 -11.13l-2.78 0 0 -2.78 -2.78 0 0 -2.78 -2.78 0 0 2.78 2.78 0 0 2.78 2.78 0 0 2.78 0 2.78 0 2.79 0 2.78 2.78 0 0 -2.78 0 -2.79 0 -2.78 0 -2.78z"/>
   <path fill="#8600EF" d="M48.46 50.54l2.78 0 0 2.78 -2.78 0 0 -2.78 -2.78 0 -2.78 0 0 2.78 2.78 0 0 -2.78 0 -2.78 -2.78 0 0 -2.78 2.78 0 0 2.78 2.78 0 2.78 0 0 -2.78 -2.78 0 0 2.78 0 2.78zm-38.92 -5.56l2.78 0 0 2.78 2.78 0 2.78 0 0 -2.78 -2.78 0 0 2.78 0 2.78 2.78 0 0 2.78 -2.78 0 0 -2.78 -2.78 0 -2.78 0 0 2.78 2.78 0 0 -2.78 0 -2.78 -2.78 0 0 -2.78zm11.12 0l2.78 0 0 2.78 2.78 0 2.78 0 0 -2.78 -2.78 0 0 2.78 0 2.78 2.78 0 0 2.78 -2.78 0 0 -2.78 -2.78 0 -2.78 0 0 2.78 2.78 0 0 -2.78 0 -2.78 -2.78 0 0 -2.78zm11.12 0l2.78 0 0 2.78 2.78 0 2.78 0 0 -2.78 -2.78 0 0 2.78 0 2.78 2.78 0 0 2.78 -2.78 0 0 -2.78 -2.78 0 -2.78 0 0 2.78 2.78 0 0 -2.78 0 -2.78 -2.78 0 0 -2.78z"/>
  </g>
 </g>
</svg>
