<?xml version="1.0" encoding="UTF-8"?>
<!DOCTYPE svg PUBLIC "-//W3C//DTD SVG 1.1//EN" "http://www.w3.org/Graphics/SVG/1.1/DTD/svg11.dtd">
<!-- Creator: CorelDRAW 2020 (64-Bit) -->
<svg xmlns="http://www.w3.org/2000/svg" xml:space="preserve" width="90px" height="90px" version="1.1" shape-rendering="geometricPrecision" text-rendering="geometricPrecision" image-rendering="optimizeQuality" fill-rule="evenodd" clip-rule="evenodd"
viewBox="0 0 3.48 3.48"
 xmlns:xlink="http://www.w3.org/1999/xlink"
 xmlns:xodm="http://www.corel.com/coreldraw/odm/2003">
 <g id="Layer_x0020_1">
  <metadata id="CorelCorpID_0Corel-Layer"/>
  <g id="_2424811064224">
   <rect fill="none" width="3.48" height="3.48"/>
   <polygon fill="#440079" points="0.79,1.06 0.79,1.33 0.79,1.6 0.79,1.87 0.79,2.14 0.79,2.42 0.79,2.69 0.79,2.96 1.06,2.96 1.06,2.69 1.33,2.69 1.33,2.42 1.6,2.42 1.6,2.14 1.87,2.14 1.87,2.42 2.14,2.42 2.14,2.69 2.14,2.96 2.42,2.96 2.42,3.23 2.69,3.23 2.96,3.23 2.96,2.96 2.96,2.69 2.96,2.42 2.96,2.14 2.96,1.87 2.96,1.6 2.96,1.33 2.96,1.06 2.96,0.79 2.96,0.52 2.69,0.52 2.69,0.25 2.42,0.25 2.14,0.25 1.87,0.25 1.6,0.25 1.33,0.25 1.06,0.25 0.79,0.25 0.79,0.52 0.52,0.52 0.52,0.79 0.52,1.06 0.52,1.33 0.52,1.6 0.52,1.87 0.52,2.14 0.52,2.42 0.52,2.69 0.52,2.96 0.52,3.23 0.79,3.23 1.06,3.23 1.06,2.96 1.33,2.96 1.33,2.69 1.6,2.69 1.6,2.42 1.87,2.42 1.87,2.69 2.14,2.69 2.42,2.69 2.42,2.96 2.69,2.96 2.69,2.69 2.69,2.42 2.69,2.14 2.69,1.87 2.69,1.6 2.69,1.33 2.69,1.06 2.69,0.79 2.69,0.52 2.42,0.52 2.14,0.52 1.87,0.52 1.6,0.52 1.33,0.52 1.06,0.52 0.79,0.52 0.79,0.79 "/>
   <polygon fill="#C479FF" points="0.79,0.52 1.87,0.52 1.87,2.14 1.6,2.14 1.6,2.42 1.33,2.42 1.33,2.69 1.06,2.69 1.06,2.96 0.79,2.96 0.79,2.69 0.79,2.42 0.79,2.14 0.79,1.56 "/>
  </g>
 </g>
</svg>
