<?xml version="1.0" encoding="UTF-8"?>
<!DOCTYPE svg PUBLIC "-//W3C//DTD SVG 1.1//EN" "http://www.w3.org/Graphics/SVG/1.1/DTD/svg11.dtd">
<!-- Creator: CorelDRAW 2020 (64-Bit) -->
<svg xmlns="http://www.w3.org/2000/svg" xml:space="preserve" width="90px" height="90px" version="1.1" shape-rendering="geometricPrecision" text-rendering="geometricPrecision" image-rendering="optimizeQuality" fill-rule="evenodd" clip-rule="evenodd"
viewBox="0 0 3.2 3.2"
 xmlns:xlink="http://www.w3.org/1999/xlink"
 xmlns:xodm="http://www.corel.com/coreldraw/odm/2003">
 <g id="Layer_x0020_1">
  <metadata id="CorelCorpID_0Corel-Layer"/>
  <rect fill="none" width="3.2" height="3.2"/>
  <polygon fill="#DEB0FF" points="0.6,0.73 0.85,0.73 0.85,0.48 2.1,0.48 2.1,0.73 2.35,0.73 2.35,1.97 2.1,1.97 2.1,2.22 0.85,2.22 0.85,1.97 0.6,1.97 "/>
  <polygon fill="#440079" points="2.6,2.47 2.6,2.22 2.35,2.22 2.35,1.97 2.6,1.97 2.6,1.72 2.6,1.48 2.6,1.23 2.6,0.98 2.6,0.73 2.35,0.73 2.1,0.73 2.1,0.98 1.85,0.98 1.85,0.73 2.1,0.73 2.1,0.48 1.85,0.48 1.6,0.48 1.35,0.48 1.1,0.48 0.85,0.48 0.85,0.73 0.6,0.73 0.6,0.98 0.6,1.23 0.6,1.48 0.6,1.72 0.6,1.97 0.85,1.97 0.85,2.22 1.1,2.22 1.35,2.22 1.6,2.22 1.85,2.22 2.1,2.22 2.1,1.97 2.35,1.97 2.35,1.72 2.35,1.48 2.35,1.23 2.35,0.98 2.35,0.73 2.35,0.48 2.1,0.48 2.1,0.23 1.85,0.23 1.6,0.23 1.35,0.23 1.1,0.23 0.85,0.23 0.85,0.48 0.6,0.48 0.6,0.73 0.36,0.73 0.36,0.98 0.36,1.23 0.36,1.48 0.36,1.72 0.36,1.97 0.6,1.97 0.6,2.22 0.85,2.22 0.85,2.47 1.1,2.47 1.35,2.47 1.6,2.47 1.85,2.47 2.1,2.47 2.1,2.72 2.35,2.72 2.35,2.97 2.6,2.97 2.84,2.97 2.84,2.72 2.84,2.47 "/>
 </g>
</svg>
