<?xml version="1.0" encoding="UTF-8"?>
<!DOCTYPE svg PUBLIC "-//W3C//DTD SVG 1.1//EN" "http://www.w3.org/Graphics/SVG/1.1/DTD/svg11.dtd">
<!-- Creator: CorelDRAW 2020 (64-Bit) -->
<svg xmlns="http://www.w3.org/2000/svg" xml:space="preserve" width="90px" height="90px" version="1.1" shape-rendering="geometricPrecision" text-rendering="geometricPrecision" image-rendering="optimizeQuality" fill-rule="evenodd" clip-rule="evenodd"
viewBox="0 0 3.81 3.81"
 xmlns:xlink="http://www.w3.org/1999/xlink"
 xmlns:xodm="http://www.corel.com/coreldraw/odm/2003">
 <g id="Layer_x0020_1">
  <metadata id="CorelCorpID_0Corel-Layer"/>
  <g id="_2424864219008">
   <rect fill="none" width="3.81" height="3.81"/>
   <polygon fill="#440079" points="1.62,1.91 1.62,2.2 1.62,2.5 1.33,2.5 1.33,2.78 1.33,3.07 1.03,3.07 1.03,3.37 0.73,3.37 0.44,3.37 0.44,3.07 0.73,3.07 1.03,3.07 1.03,2.78 1.03,2.48 1.33,2.48 1.33,2.2 1.33,1.91 1.03,1.91 0.73,1.91 0.44,1.91 0.44,1.61 0.73,1.61 1.03,1.61 1.33,1.61 1.62,1.61 1.92,1.61 1.92,1.31 1.92,1.02 1.62,1.02 1.33,1.02 1.03,1.02 1.03,1.31 0.73,1.31 0.73,1.02 1.03,1.02 1.03,0.72 1.33,0.72 1.33,0.42 1.62,0.42 1.62,0.72 1.92,0.72 1.92,0.42 2.22,0.42 2.22,0.72 2.51,0.72 2.81,0.72 3.11,0.72 3.11,1.02 2.81,1.02 2.51,1.02 2.22,1.02 2.22,1.31 2.22,1.61 2.51,1.61 2.81,1.61 3.08,1.61 3.11,1.61 3.38,1.61 3.38,1.91 3.11,1.91 3.08,1.91 2.81,1.91 2.51,1.91 2.51,2.2 2.51,2.5 2.51,2.8 2.51,3.09 2.81,3.09 3.11,3.09 3.11,2.8 3.4,2.8 3.4,3.09 3.4,3.39 3.11,3.39 2.81,3.39 2.51,3.39 2.22,3.39 2.22,3.09 2.22,2.8 2.22,2.5 2.22,2.2 2.22,1.91 1.92,1.91 "/>
  </g>
 </g>
</svg>
