<?xml version="1.0" encoding="UTF-8"?>
<!DOCTYPE svg PUBLIC "-//W3C//DTD SVG 1.1//EN" "http://www.w3.org/Graphics/SVG/1.1/DTD/svg11.dtd">
<!-- Creator: CorelDRAW 2020 (64-Bit) -->
<svg xmlns="http://www.w3.org/2000/svg" xml:space="preserve" width="100px" height="100px" version="1.1" shape-rendering="geometricPrecision" text-rendering="geometricPrecision" image-rendering="optimizeQuality" fill-rule="evenodd" clip-rule="evenodd"
viewBox="0 0 4.76 4.76"
 xmlns:xlink="http://www.w3.org/1999/xlink"
 xmlns:xodm="http://www.corel.com/coreldraw/odm/2003">
 <g id="Layer_x0020_1">
  <metadata id="CorelCorpID_0Corel-Layer"/>
  <g id="_2304449908528">
   <rect fill="white" x="1.36" y="1.36" width="2.04" height="2.04"/>
   <path fill="#C479FF" d="M0.68 2.72l-0.68 0 0 -0.68 0.68 0 0.68 0 0.68 0 0 -0.68 0 -0.68 0 -0.68 0.68 0 0 0.68 0 0.68 0 0.68 0.68 0 0.68 0 0.68 0 0 0.68 -0.68 0 -0.68 0 -0.68 0 0 0.68 0 0.68 0 0.68 -0.68 0 0 -0.68 0 -0.68 0 -0.68 -0.68 0 -0.68 0zm0 1.36l0 -0.68 0.68 0 0 0.68 -0.68 0zm3.4 0l-0.68 0 0 -0.68 0.68 0 0 0.68zm-0.68 -2.72l0 -0.68 0.68 0 0 0.68 -0.68 0zm-2.04 0l-0.68 0 0 -0.68 0.68 0 0 0.68zm1.36 1.36l0 -0.68 -0.68 0 0 0.68 0.68 0z"/>
  </g>
 </g>
</svg>
