<?xml version="1.0" encoding="UTF-8"?>
<!DOCTYPE svg PUBLIC "-//W3C//DTD SVG 1.1//EN" "http://www.w3.org/Graphics/SVG/1.1/DTD/svg11.dtd">
<!-- Creator: CorelDRAW 2020 (64-Bit) -->
<svg xmlns="http://www.w3.org/2000/svg" xml:space="preserve" width="100px" height="100px" version="1.1" shape-rendering="geometricPrecision" text-rendering="geometricPrecision" image-rendering="optimizeQuality" fill-rule="evenodd" clip-rule="evenodd"
viewBox="0 0 7.22 7.22"
 xmlns:xlink="http://www.w3.org/1999/xlink"
 xmlns:xodm="http://www.corel.com/coreldraw/odm/2003">
 <g id="Layer_x0020_1">
  <metadata id="CorelCorpID_0Corel-Layer"/>
  <path fill="#C479FF" d="M1.03 4.13l-1.03 0 0 -1.03 1.03 0 1.03 0 0 -1.04 1.04 0 0 -1.03 1.03 0 1.03 0 0 1.03 1.03 0 0 1.04 0 1.03 -1.03 0 0 1.03 -1.03 0 0 1.03 0 1.03 -1.03 0 0 -1.03 -1.04 0 0 -1.03 -1.03 0 0 -1.03zm3.1 -3.1l0 -1.03 -1.03 0 0 1.03 -1.04 0 0 1.03 -1.03 0 0 1.04 0 1.03 1.03 0 0 1.03 1.04 0 0 1.03 1.03 0 1.03 0 0 -1.03 1.03 0 0 -1.03 1.03 0 0 -1.03 -1.03 0 -1.03 0 0 -1.04 -1.03 0 0 -1.03z"/>
 </g>
</svg>
