<?xml version="1.0" encoding="UTF-8"?>
<!DOCTYPE svg PUBLIC "-//W3C//DTD SVG 1.1//EN" "http://www.w3.org/Graphics/SVG/1.1/DTD/svg11.dtd">
<!-- Creator: CorelDRAW 2020 (64-Bit) -->
<svg xmlns="http://www.w3.org/2000/svg" xml:space="preserve" width="100px" height="100px" version="1.1" shape-rendering="geometricPrecision" text-rendering="geometricPrecision" image-rendering="optimizeQuality" fill-rule="evenodd" clip-rule="evenodd"
viewBox="0 0 14.72 14.72"
 xmlns:xlink="http://www.w3.org/1999/xlink"
 xmlns:xodm="http://www.corel.com/coreldraw/odm/2003">
 <g id="Layer_x0020_1">
  <metadata id="CorelCorpID_0Corel-Layer"/>
  <g id="_2304295573872">
   <polygon fill="#A22BFF" points="0,6.31 2.1,6.31 4.21,6.31 4.21,4.21 6.31,4.21 6.31,2.1 6.31,0 8.41,0 8.41,2.1 8.41,4.21 10.52,4.21 10.52,6.31 12.62,6.31 14.72,6.31 14.72,8.41 12.62,8.41 10.52,8.41 10.52,10.52 8.41,10.52 8.41,12.62 8.41,14.72 6.31,14.72 6.31,12.62 6.31,10.52 4.21,10.52 4.21,8.41 2.1,8.41 0,8.41 "/>
   <path fill="white" d="M6.31 8.41l0 -2.1 2.1 0 0 2.1 -2.1 0zm0 -2.1l-2.1 0 0 2.1 2.1 0 0 2.11 2.1 0 0 -2.11 2.11 0 0 -2.1 -2.11 0 0 -2.1 -2.1 0 0 2.1z"/>
  </g>
 </g>
</svg>
