<?xml version="1.0" encoding="UTF-8"?>
<!DOCTYPE svg PUBLIC "-//W3C//DTD SVG 1.1//EN" "http://www.w3.org/Graphics/SVG/1.1/DTD/svg11.dtd">
<!-- Creator: CorelDRAW 2020 (64-Bit) -->
<svg xmlns="http://www.w3.org/2000/svg" xml:space="preserve" width="100px" height="100px" version="1.1" shape-rendering="geometricPrecision" text-rendering="geometricPrecision" image-rendering="optimizeQuality" fill-rule="evenodd" clip-rule="evenodd"
viewBox="0 0 14.83 14.83"
 xmlns:xlink="http://www.w3.org/1999/xlink"
 xmlns:xodm="http://www.corel.com/coreldraw/odm/2003">
 <g id="Layer_x0020_1">
  <metadata id="CorelCorpID_0Corel-Layer"/>
  <path fill="#B352FF" d="M2.12 8.47l-2.12 0 0 -2.12 2.12 0 0 2.12zm6.35 4.24l0 2.12 -2.12 0 0 -2.12 2.12 0zm4.24 -6.36l2.12 0 0 2.12 -2.12 0 0 -2.12zm-6.36 -4.23l0 -2.12 2.12 0 0 2.12 -2.12 0z"/>
  <path fill="#F8EFFF" d="M6.35 8.47l-2.11 0 0 -2.12 2.11 0 0 -2.11 2.12 0 0 2.11 2.12 0 0 2.12 -2.12 0 0 2.12 -2.12 0 0 -2.12zm2.12 0l0 -2.12 -2.12 0 0 2.12 2.12 0z"/>
 </g>
</svg>
