<?xml version="1.0" encoding="UTF-8"?>
<!DOCTYPE svg PUBLIC "-//W3C//DTD SVG 1.1//EN" "http://www.w3.org/Graphics/SVG/1.1/DTD/svg11.dtd">
<!-- Creator: CorelDRAW 2020 (64-Bit) -->
<svg xmlns="http://www.w3.org/2000/svg" xml:space="preserve" width="100px" height="100px" version="1.1" shape-rendering="geometricPrecision" text-rendering="geometricPrecision" image-rendering="optimizeQuality" fill-rule="evenodd" clip-rule="evenodd"
viewBox="0 0 4.75 4.75"
 xmlns:xlink="http://www.w3.org/1999/xlink"
 xmlns:xodm="http://www.corel.com/coreldraw/odm/2003">
 <g id="Layer_x0020_1">
  <metadata id="CorelCorpID_0Corel-Layer"/>
  <polygon fill="none" points="2.04,2.71 1.36,2.71 1.36,2.04 2.04,2.04 2.04,1.36 2.71,1.36 2.71,2.04 3.39,2.04 3.39,2.71 2.71,2.71 2.71,3.39 2.04,3.39 "/>
  <path fill="#C479FF" d="M4.07 2.71l0.68 0 0 -0.67 -0.68 0 -0.68 0 0 -0.68 -0.68 0 -0.67 0 0 0.68 -0.68 0 0 0.67 0.68 0 0 0.68 0.67 0 0.68 0 0 -0.68 0.68 0zm-1.36 -1.35l0 0.68 0.68 0 0 0.67 -0.68 0 0 0.68 0 0.68 0 0.68 -0.67 0 0 -0.68 0 -0.68 -0.68 0 0 -0.68 -0.68 0 -0.68 0 0 -0.67 0.68 0 0.68 0 0 -0.68 0.68 0 0 -0.68 0 -0.68 0.67 0 0 0.68 0 0.68z"/>
 </g>
</svg>
