<?xml version="1.0" encoding="UTF-8"?>
<!DOCTYPE svg PUBLIC "-//W3C//DTD SVG 1.1//EN" "http://www.w3.org/Graphics/SVG/1.1/DTD/svg11.dtd">
<!-- Creator: CorelDRAW 2020 (64-Bit) -->
<svg xmlns="http://www.w3.org/2000/svg" xml:space="preserve" width="90px" height="90px" version="1.1" shape-rendering="geometricPrecision" text-rendering="geometricPrecision" image-rendering="optimizeQuality" fill-rule="evenodd" clip-rule="evenodd"
viewBox="0 0 2.96 2.96"
 xmlns:xlink="http://www.w3.org/1999/xlink"
 xmlns:xodm="http://www.corel.com/coreldraw/odm/2003">
 <g id="Layer_x0020_1">
  <metadata id="CorelCorpID_0Corel-Layer"/>
  <g id="_1490728119488">
   <rect fill="none" width="2.96" height="2.96"/>
   <rect fill="#440079" x="0.33" y="2.05" width="1.84" height="0.23"/>
   <rect fill="#440079" x="0.56" y="2.51" width="0.23" height="0.23"/>
   <rect fill="#440079" x="0.79" y="2.51" width="0.23" height="0.23"/>
   <rect fill="#440079" x="2.4" y="0.9" width="0.23" height="0.23"/>
   <rect fill="#440079" x="2.4" y="1.13" width="0.23" height="0.23"/>
   <rect fill="#440079" x="2.4" y="1.82" width="0.23" height="0.23"/>
   <rect fill="#440079" x="2.4" y="2.05" width="0.23" height="0.23"/>
   <rect fill="#440079" x="2.4" y="2.28" width="0.23" height="0.23"/>
   <rect fill="#440079" x="2.4" y="2.51" width="0.23" height="0.23"/>
   <rect fill="#440079" x="2.17" y="2.51" width="0.23" height="0.23"/>
   <rect fill="#440079" x="1.94" y="2.51" width="0.23" height="0.23"/>
   <rect fill="#440079" x="2.4" y="0.44" width="0.23" height="0.23"/>
   <polygon fill="#440079" points="2.17,0.21 1.94,0.21 1.94,0.44 1.71,0.44 1.71,0.67 1.48,0.67 1.48,0.9 1.25,0.9 1.25,1.13 1.02,1.13 1.02,1.36 0.79,1.36 0.79,1.59 0.56,1.59 0.56,1.82 0.33,1.82 0.33,2.05 0.56,2.05 0.56,1.82 0.79,1.82 0.79,1.59 1.02,1.59 1.02,1.36 1.25,1.36 1.25,1.13 1.48,1.13 1.48,0.9 1.71,0.9 1.71,0.67 1.94,0.67 1.94,2.28 2.17,2.28 "/>
   <rect fill="#440079" x="2.4" y="0.67" width="0.23" height="0.23"/>
   <rect fill="#440079" x="2.4" y="1.36" width="0.23" height="0.23"/>
   <rect fill="#440079" x="2.4" y="1.59" width="0.23" height="0.23"/>
   <rect fill="#440079" x="1.02" y="2.51" width="0.23" height="0.23"/>
   <rect fill="#440079" x="1.48" y="2.51" width="0.23" height="0.23"/>
   <rect fill="#440079" x="1.25" y="2.51" width="0.23" height="0.23"/>
   <rect fill="#440079" x="1.71" y="2.51" width="0.23" height="0.23"/>
   <polygon fill="#C479FF" points="0.56,2.05 1.71,2.05 1.94,2.05 1.94,1.82 1.94,0.67 1.71,0.67 1.71,1.82 0.56,1.82 "/>
  </g>
 </g>
</svg>
