<?xml version="1.0" encoding="UTF-8"?>
<!DOCTYPE svg PUBLIC "-//W3C//DTD SVG 1.1//EN" "http://www.w3.org/Graphics/SVG/1.1/DTD/svg11.dtd">
<!-- Creator: CorelDRAW 2020 (64-Bit) -->
<svg xmlns="http://www.w3.org/2000/svg" xml:space="preserve" width="90px" height="90px" version="1.1" shape-rendering="geometricPrecision" text-rendering="geometricPrecision" image-rendering="optimizeQuality" fill-rule="evenodd" clip-rule="evenodd"
viewBox="0 0 3.2 3.2"
 xmlns:xlink="http://www.w3.org/1999/xlink"
 xmlns:xodm="http://www.corel.com/coreldraw/odm/2003">
 <g id="Layer_x0020_1">
  <metadata id="CorelCorpID_0Corel-Layer"/>
  <g id="_2424858470784">
   <rect fill="none" width="3.2" height="3.2"/>
   <g>
    <path fill="#440079" d="M0.6 0.23l0.25 0 0.25 0 0.25 0 0.25 0 0.25 0 0.25 0 0.24 0 0.25 0 0 0.25 -0.25 0 -0.24 0 -0.25 0 -0.25 0 -0.25 0 -0.25 0 -0.25 0 -0.25 0 0 -0.25zm2.24 0.75l0 0.25 0 0.24 0 0.25 0 0.25 0 0.25 0 0.25 0 0.25 -0.25 0 0 -0.25 0 -0.25 0 -0.25 0 -0.25 0 -0.25 0 -0.24 0 -0.25 0.25 0zm-0.25 1.99l-0.25 0 -0.24 0 -0.25 0 -0.25 0 -0.25 0 -0.25 0 -0.25 0 -0.25 0 0 -0.25 0.25 0 0.25 0 0.25 0 0.25 0 0.25 0 0.25 0 0.24 0 0.25 0 0 0.25zm-2.23 -0.25l0 -0.25 0 -0.25 0 -0.25 0 -0.25 0 -0.25 0 -0.24 0 -0.25 0.24 0 1.99 0 0 -0.25 -1.99 0 0 0.25 0 0.25 0 0.24 0 0.25 0 0.25 0 0.25 0 0.25 0 0.25 -0.24 0z"/>
    <rect fill="#C479FF" x="0.6" y="0.98" width="1.99" height="1.74"/>
    <polygon fill="#440079" points="1.47,1.47 1.72,1.47 1.72,1.23 1.97,1.23 1.97,1.47 2.22,1.47 2.22,1.72 2.22,1.97 1.97,1.97 1.97,2.22 1.72,2.22 1.72,2.47 1.47,2.47 1.47,2.22 1.23,2.22 1.23,1.97 0.98,1.97 0.98,1.72 0.98,1.47 1.23,1.47 1.23,1.23 1.47,1.23 "/>
   </g>
  </g>
 </g>
</svg>
