<?xml version="1.0" encoding="UTF-8"?>
<!DOCTYPE svg PUBLIC "-//W3C//DTD SVG 1.1//EN" "http://www.w3.org/Graphics/SVG/1.1/DTD/svg11.dtd">
<!-- Creator: CorelDRAW 2020 (64-Bit) -->
<svg xmlns="http://www.w3.org/2000/svg" xml:space="preserve" width="97px" height="97px" version="1.1" shape-rendering="geometricPrecision" text-rendering="geometricPrecision" image-rendering="optimizeQuality" fill-rule="evenodd" clip-rule="evenodd"
viewBox="0 0 75.18 75.18"
 xmlns:xlink="http://www.w3.org/1999/xlink"
 xmlns:xodm="http://www.corel.com/coreldraw/odm/2003">
 <g id="Layer_x0020_1">
  <metadata id="CorelCorpID_0Corel-Layer"/>
  <path fill="#440079" d="M0 0l3.76 0 3.76 0 3.76 0 3.76 0 3.76 0 0 3.76 3.76 0 0 3.76 3.75 0 0 3.76 0 3.76 3.76 0 0 3.76 3.76 0 0 3.76 3.76 0 0 3.75 3.76 0 3.76 0 0 -3.75 3.76 0 0 -3.76 3.76 0 0 -3.76 3.76 0 0 -3.76 3.76 0 0 -3.76 3.76 0 0 -3.76 3.76 0 0 -3.76 3.76 0 3.75 0 0 3.76 -3.75 0 0 3.76 -3.76 0 0 3.76 -3.76 0 0 3.76 -3.76 0 0 3.76 -3.76 0 0 3.76 -3.76 0 0 3.75 -3.76 0 0 3.76 -3.76 0 0 3.76 0 3.76 3.76 0 0 3.76 3.76 0 0 3.76 3.76 0 0 3.76 3.76 0 0 3.76 3.76 0 0 3.76 0 3.76 3.76 0 0 3.76 3.76 0 0 3.76 3.75 0 0 3.76 0 3.75 -3.75 0 -3.76 0 -3.76 0 -3.76 0 -3.76 0 0 -3.75 -3.76 0 0 -3.76 -3.76 0 0 -3.76 0 -3.76 -3.76 0 0 -3.76 -3.76 0 0 -3.76 -3.76 0 0 -3.76 -3.76 0 -3.76 0 0 3.76 -3.76 0 0 3.76 -3.75 0 0 3.76 -3.76 0 0 3.76 -3.76 0 0 3.76 -3.76 0 0 3.76 -3.76 0 0 3.75 -3.76 0 -3.76 0 0 -3.75 3.76 0 0 -3.76 3.76 0 0 -3.76 3.76 0 0 -3.76 3.76 0 0 -3.76 3.76 0 0 -3.76 3.76 0 0 -3.76 3.75 0 0 -3.76 3.76 0 0 -3.76 0 -3.76 -3.76 0 0 -3.76 -3.75 0 0 -3.76 -3.76 0 0 -3.76 -3.76 0 0 -3.75 -3.76 0 0 -3.76 0 -3.76 -3.76 0 0 -3.76 -3.76 0 0 -3.76 -3.76 0 0 -3.76 0 -3.76zm60.15 56.39l-3.76 0 0 -3.76 -3.76 0 0 -3.76 -3.76 0 0 -3.76 -3.76 0 0 -3.76 -3.76 0 0 -3.76 0 -3.76 -3.76 0 0 -3.76 -3.76 0 0 -3.76 -3.76 0 0 -3.75 -3.76 0 0 -3.76 -3.75 0 0 -3.76 0 -3.76 -3.76 0 0 -3.76 -3.76 0 0 -3.76 -3.76 0 -3.76 0 0 3.76 3.76 0 0 3.76 3.76 0 0 3.76 0 3.76 3.76 0 0 3.76 3.76 0 0 3.75 3.75 0 0 3.76 3.76 0 0 3.76 3.76 0 0 3.76 0 3.76 3.76 0 0 3.76 3.76 0 0 3.76 3.76 0 0 3.76 3.76 0 0 3.76 3.76 0 0 3.76 0 3.76 3.76 0 0 3.76 3.76 0 0 3.76 3.76 0 3.76 0 0 -3.76 -3.76 0 0 -3.76 -3.76 0 0 -3.76 0 -3.76z"/>
 </g>
</svg>
