<?xml version="1.0" encoding="UTF-8"?>
<!DOCTYPE svg PUBLIC "-//W3C//DTD SVG 1.1//EN" "http://www.w3.org/Graphics/SVG/1.1/DTD/svg11.dtd">
<!-- Creator: CorelDRAW 2020 (64-Bit) -->
<svg xmlns="http://www.w3.org/2000/svg" xml:space="preserve" width="90px" height="90px" version="1.1" shape-rendering="geometricPrecision" text-rendering="geometricPrecision" image-rendering="optimizeQuality" fill-rule="evenodd" clip-rule="evenodd"
viewBox="0 0 3.48 3.48"
 xmlns:xlink="http://www.w3.org/1999/xlink"
 xmlns:xodm="http://www.corel.com/coreldraw/odm/2003">
 <g id="Layer_x0020_1">
  <metadata id="CorelCorpID_0Corel-Layer"/>
  <g id="_2424858442944">
   <rect fill="none" width="3.48" height="3.48"/>
   <path fill="#440079" d="M1.2 1.06l0 0.27 0.27 0 0 0.27 0.27 0 0.27 0 0.27 0 0 -0.27 0.27 0 0 -0.27 0 -0.27 -0.27 0 0 -0.27 -0.27 0 -0.27 0 -0.27 0 0 0.27 -0.27 0 0 0.27zm0.81 0.81l0.27 0 0.27 0 0 0.27 0.27 0 0 0.28 0.27 0 0 0.27 0 0.27 0 0.27 -0.27 0 -0.27 0 -0.27 0 -0.27 0 -0.27 0 -0.27 0 -0.27 0 -0.27 0 -0.27 0 -0.27 0 0 -0.27 0 -0.27 0 -0.27 0.27 0 0 -0.28 0.27 0 0 -0.27 0.27 0 0.27 0 0 -0.27 -0.27 0 0 -0.27 -0.27 0 0 -0.27 0 -0.27 0.27 0 0 -0.27 0.27 0 0 -0.27 0.27 0 0.27 0 0 0.27 0 0.27 0.27 0 0 0.27 0 0.27 -0.27 0 0 0.27 0 0.27zm0.27 0.27l-0.27 0 -0.27 0 -0.27 0 -0.27 0 -0.27 0 0 0.28 -0.27 0 0 0.27 0 0.27 0.27 0 0.27 0 0.27 0 0.27 0 0.27 0 0.27 0 0.27 0 0.27 0 0 -0.27 0 -0.27 -0.27 0 0 -0.28 -0.27 0z"/>
   <polygon fill="#C479FF" points="0.66,2.96 2.82,2.96 2.82,2.42 2.55,2.42 2.55,2.14 0.93,2.14 0.93,2.42 0.66,2.42 "/>
  </g>
 </g>
</svg>
