<?xml version="1.0" encoding="UTF-8"?>
<!DOCTYPE svg PUBLIC "-//W3C//DTD SVG 1.1//EN" "http://www.w3.org/Graphics/SVG/1.1/DTD/svg11.dtd">
<!-- Creator: CorelDRAW 2020 (64-Bit) -->
<svg xmlns="http://www.w3.org/2000/svg" xml:space="preserve" width="90px" height="90px" version="1.1" shape-rendering="geometricPrecision" text-rendering="geometricPrecision" image-rendering="optimizeQuality" fill-rule="evenodd" clip-rule="evenodd"
viewBox="0 0 3.48 3.48"
 xmlns:xlink="http://www.w3.org/1999/xlink"
 xmlns:xodm="http://www.corel.com/coreldraw/odm/2003">
 <g id="Layer_x0020_1">
  <metadata id="CorelCorpID_0Corel-Layer"/>
  <g id="_2799368003088">
   <rect fill="none" width="3.48" height="3.48"/>
   <path fill="#440079" d="M1.89 3.23l0.27 0 1.09 0 0 -0.27 -1.09 0c0,-0.82 0,-1.63 0,-2.44l1.09 0 0 -0.27 -1.09 0 -0.27 0c0,0.99 0,1.98 0,2.98zm-0.27 0c-0.36,0 -0.99,0 -1.35,0l0 -0.27c0.27,0 0.81,0 1.08,0 0,-0.82 0,-1.63 0,-2.44 -0.27,0 -0.81,0 -1.08,0l0 -0.27c0.36,0 0.99,0 1.35,0 0,0.99 0,1.98 0,2.98z"/>
   <path fill="#DEB0FF" d="M0.27 0.52l1.08 0 0 2.44 -1.08 0 0 -2.44zm1.89 0l1.09 0 0 2.44 -1.09 0 0 -2.44z"/>
  </g>
 </g>
</svg>
