<?xml version="1.0" encoding="UTF-8"?>
<!DOCTYPE svg PUBLIC "-//W3C//DTD SVG 1.1//EN" "http://www.w3.org/Graphics/SVG/1.1/DTD/svg11.dtd">
<!-- Creator: CorelDRAW 2020 (64-Bit) -->
<svg xmlns="http://www.w3.org/2000/svg" xml:space="preserve" width="90px" height="90px" version="1.1" shape-rendering="geometricPrecision" text-rendering="geometricPrecision" image-rendering="optimizeQuality" fill-rule="evenodd" clip-rule="evenodd"
viewBox="0 0 3.81 3.81"
 xmlns:xlink="http://www.w3.org/1999/xlink"
 xmlns:xodm="http://www.corel.com/coreldraw/odm/2003">
 <g id="Layer_x0020_1">
  <metadata id="CorelCorpID_0Corel-Layer"/>
  <g id="_2799365792976">
   <rect fill="none" width="3.81" height="3.81"/>
   <g>
    <path fill="#440079" d="M0.57 1.16l0 0.3 0.3 0 0.29 0 0.3 0 0 -0.3 0 -0.29 0 -0.3 -0.3 0 -0.29 0 -0.3 0 0 0.3 0 0.29zm1.19 0.3l0 0.3 -0.3 0 -0.3 0 -0.29 0 -0.3 0 -0.29 0 0 -0.3 0 -0.3 0 -0.29 0 -0.3 0 -0.29 0.29 0 0.3 0 0.29 0 0.3 0 0.3 0 0 0.29 0 0.3 0 0.29 0 0.3z"/>
    <rect fill="#DEB0FF" x="0.57" y="0.57" width="0.89" height="0.89"/>
    <path fill="#440079" d="M2.35 1.16l0 0.3 0.3 0 0.29 0 0.3 0 0 -0.3 0 -0.29 0 -0.3 -0.3 0 -0.29 0 -0.3 0 0 0.3 0 0.29zm1.18 0.3l0 0.3 -0.29 0 -0.3 0 -0.29 0 -0.3 0 -0.3 0 0 -0.3 0 -0.3 0 -0.29 0 -0.3 0 -0.29 0.3 0 0.3 0 0.29 0 0.3 0 0.29 0 0 0.29 0 0.3 0 0.29 0 0.3z"/>
    <rect fill="#DEB0FF" x="2.35" y="0.57" width="0.89" height="0.89"/>
    <path fill="#440079" d="M0.57 2.94l0 0.3 0.3 0 0.29 0 0.3 0 0 -0.3 0 -0.29 0 -0.3 -0.3 0 -0.29 0 -0.3 0 0 0.3 0 0.29zm1.19 0.3l0 0.29 -0.3 0 -0.3 0 -0.29 0 -0.3 0 -0.29 0 0 -0.29 0 -0.3 0 -0.29 0 -0.3 0 -0.3 0.29 0 0.3 0 0.29 0 0.3 0 0.3 0 0 0.3 0 0.3 0 0.29 0 0.3z"/>
    <rect fill="#DEB0FF" x="0.57" y="2.35" width="0.89" height="0.89"/>
    <path fill="#440079" d="M2.35 2.94l0 0.3 0.3 0 0.29 0 0.3 0 0 -0.3 0 -0.29 0 -0.3 -0.3 0 -0.29 0 -0.3 0 0 0.3 0 0.29zm1.18 0.3l0 0.29 -0.29 0 -0.3 0 -0.29 0 -0.3 0 -0.3 0 0 -0.29 0 -0.3 0 -0.29 0 -0.3 0 -0.3 0.3 0 0.3 0 0.29 0 0.3 0 0.29 0 0 0.3 0 0.3 0 0.29 0 0.3z"/>
    <rect fill="#DEB0FF" x="2.35" y="2.35" width="0.89" height="0.89"/>
   </g>
  </g>
 </g>
</svg>
